<svg width="46" height="71" viewBox="0 0 46 71" fill="none" xmlns="http://www.w3.org/2000/svg">
<g filter="url(#filter0_d_347_278)">
<circle cx="23" cy="19" r="16.5" transform="rotate(-90 23 19)" stroke="#E04463" stroke-width="5"/>
<g filter="url(#filter1_d_347_278)">
<path d="M21.1605 13L16 18.1646L21.1605 22.8734L21.1605 19.9114L26.4707 19.9114C28.6396 19.9114 30.2252 22.8127 27.2934 25C30.3598 23.6329 31.4069 15.2785 27.2934 15.2785L21.1605 15.2785L21.1605 13Z" fill="#E04463"/>
<path d="M21.1605 19.9114L21.1605 22.8734L16 18.1646L21.1605 13L21.1605 15.2785M21.1605 19.9114L26.4707 19.9114C28.6396 19.9114 30.2252 22.8127 27.2934 25C30.3598 23.6329 31.4069 15.2785 27.2934 15.2785C19.6947 15.2785 22.2076 15.2785 21.1605 15.2785M21.1605 19.9114L21.1605 15.2785" stroke="#DD4462" stroke-linejoin="round"/>
</g>
<path d="M7.90332 62.417C6.74577 62.417 5.83431 62.1595 5.16895 61.6445C4.6084 61.2161 4.32812 60.7217 4.32812 60.1611C4.32812 59.874 4.41471 59.637 4.58789 59.4502C4.76107 59.2588 5.00033 59.1631 5.30566 59.1631C5.71582 59.1631 6.0166 59.3727 6.20801 59.792C6.46777 60.3525 7.05566 60.6328 7.97168 60.6328C8.75553 60.6328 9.51432 60.4619 10.248 60.1201C11.0091 59.7692 11.3896 59.3841 11.3896 58.9648C11.3896 58.3906 11.1527 58.0124 10.6787 57.8301C10.3415 57.6979 9.66471 57.6204 8.64844 57.5977C7.86003 57.5794 7.15365 57.4313 6.5293 57.1533C5.6862 56.7751 5.27148 56.2327 5.28516 55.5264C5.29883 54.6377 5.77279 53.8242 6.70703 53.0859C7.64128 52.3431 8.67122 51.9717 9.79688 51.9717C10.2435 51.9717 10.7949 52.0742 11.4512 52.2793C12.2669 52.5345 12.6748 52.8285 12.6748 53.1611C12.6748 53.3981 12.5928 53.6077 12.4287 53.79C12.2464 53.9951 12.0117 54.0977 11.7246 54.0977C11.5104 54.0977 11.1891 54.0521 10.7607 53.9609C10.3369 53.8698 10.0156 53.8242 9.79688 53.8242C9.20898 53.8288 8.65072 53.9701 8.12207 54.248C7.5752 54.5306 7.30176 54.8382 7.30176 55.1709C7.30176 55.3441 7.38379 55.4876 7.54785 55.6016C7.71647 55.7109 7.96712 55.7884 8.2998 55.834C8.88314 55.8659 9.46419 55.8978 10.043 55.9297C11.0547 56.0072 11.8545 56.292 12.4424 56.7842C13.0895 57.3311 13.4131 58.0876 13.4131 59.0537C13.4131 60.2295 12.7432 61.1204 11.4033 61.7266C10.3825 62.1868 9.21582 62.417 7.90332 62.417ZM22.252 62.2051C21.8919 62.1914 21.5296 61.7676 21.165 60.9336C20.9235 60.3958 20.7161 59.776 20.543 59.0742C20.2057 59.1243 19.6543 59.1745 18.8887 59.2246C18.1686 59.2747 17.6172 59.334 17.2344 59.4023C17.0247 59.9036 16.6602 60.6579 16.1406 61.665C15.9401 61.9932 15.6621 62.1572 15.3066 62.1572C15.056 62.1572 14.8304 62.0729 14.6299 61.9043C14.4294 61.7311 14.3291 61.5124 14.3291 61.248C14.3291 61.0156 14.6618 60.2272 15.3271 58.8828C15.2633 58.7415 15.236 58.6094 15.2451 58.4863C15.2633 58.2676 15.4844 58.0967 15.9082 57.9736C16.5553 56.8525 17.2754 55.6904 18.0684 54.4873C19.2077 52.7601 19.9095 51.8965 20.1738 51.8965C20.6751 51.8965 21.0101 52.1995 21.1787 52.8057C21.2699 53.2933 21.4134 54.0247 21.6094 55C21.8874 56.3125 22.2269 57.8141 22.6279 59.5049C22.6598 59.6325 22.776 59.9333 22.9766 60.4072C23.1406 60.7992 23.2227 61.0931 23.2227 61.2891C23.2227 61.5534 23.1224 61.7744 22.9219 61.9521C22.7259 62.1299 22.5026 62.2142 22.252 62.2051ZM19.7021 55.1914C19.3467 55.8021 18.8568 56.6338 18.2324 57.6865C18.4375 57.641 18.7565 57.6045 19.1895 57.5771C19.6999 57.5452 20.0212 57.5202 20.1533 57.502C20.0439 56.9095 19.8936 56.1393 19.7021 55.1914ZM30.4893 53.9199C30.2523 53.9199 29.6029 53.8561 28.541 53.7285C28.4772 54.5671 28.4453 55.6813 28.4453 57.0713L28.4385 60.1406C29.0446 60.127 29.6621 60.1201 30.291 60.1201C30.5645 60.1201 30.79 60.2113 30.9678 60.3936C31.1501 60.5758 31.2412 60.7946 31.2412 61.0498C31.2412 61.305 31.1501 61.5238 30.9678 61.7061C30.79 61.8838 30.5645 61.9727 30.291 61.9727C30.0358 61.9727 29.653 61.9795 29.1426 61.9932C28.6322 62.0023 28.2493 62.0068 27.9941 62.0068C27.6934 62.0068 27.2422 62.0456 26.6406 62.123C26.0391 62.2051 25.5879 62.2461 25.2871 62.2461C25.0137 62.2461 24.7858 62.1572 24.6035 61.9795C24.4258 61.7972 24.3369 61.5785 24.3369 61.3232C24.3369 61.068 24.4258 60.8493 24.6035 60.667C24.7858 60.4847 25.0137 60.3936 25.2871 60.3936C25.597 60.3936 26.0049 60.3594 26.5107 60.291C26.5016 59.7533 26.4971 58.7233 26.4971 57.2012C26.4971 55.9616 26.5426 54.779 26.6338 53.6533L25.1504 53.6943C24.877 53.6943 24.6468 53.6055 24.46 53.4277C24.2777 53.25 24.1865 53.029 24.1865 52.7646C24.1865 52.4958 24.2777 52.277 24.46 52.1084C24.6286 51.9535 24.8359 51.8646 25.082 51.8418C25.4831 51.8053 26.1803 51.7871 27.1738 51.7871C28.0671 51.7871 29.2178 51.8828 30.626 52.0742C31.1865 52.1517 31.4668 52.4661 31.4668 53.0176C31.4668 53.3092 31.3529 53.5394 31.125 53.708C30.9382 53.8493 30.7262 53.9199 30.4893 53.9199ZM39.3008 62.082C39.0547 62.082 38.8291 61.9863 38.624 61.7949C37.2432 60.5007 35.7256 59.6029 34.0713 59.1016C34.1214 60.4277 34.1465 61.1637 34.1465 61.3096C34.1465 61.5693 34.0553 61.7904 33.873 61.9727C33.6908 62.1504 33.4629 62.2393 33.1895 62.2393C32.916 62.2393 32.6882 62.1504 32.5059 61.9727C32.3236 61.7904 32.2324 61.5693 32.2324 61.3096C32.2324 60.9678 32.237 60.4574 32.2461 59.7783C32.2552 59.0947 32.2598 58.582 32.2598 58.2402L32.2734 52.7236C32.2734 52.4274 32.3623 52.1585 32.54 51.917C32.7725 51.6071 33.0938 51.4681 33.5039 51.5C34.6113 51.582 35.1787 51.6253 35.2061 51.6299C35.8441 51.7074 36.3864 51.86 36.833 52.0879C38.779 53.0677 39.752 54.2822 39.752 55.7314C39.752 56.3285 39.5469 56.8571 39.1367 57.3174C38.7311 57.7731 38.1204 58.1582 37.3047 58.4727C38.5124 59.1471 39.4215 59.8353 40.0322 60.5371C40.1917 60.7194 40.2715 60.9222 40.2715 61.1455C40.2715 61.4007 40.1758 61.6217 39.9844 61.8086C39.793 61.9909 39.5651 62.082 39.3008 62.082ZM34.9189 53.4824C34.8825 53.4779 34.6159 53.4596 34.1191 53.4277V57.0576C34.2331 57.0622 34.3333 57.0645 34.4199 57.0645C35.5365 57.0645 36.3636 56.9255 36.9014 56.6475C37.1338 56.529 37.3457 56.3717 37.5371 56.1758C37.7331 55.9798 37.8311 55.8317 37.8311 55.7314C37.8311 55.221 37.5075 54.7288 36.8604 54.2549C36.2451 53.8083 35.598 53.5508 34.9189 53.4824Z" fill="#DA4361"/>
</g>
<defs>
<filter id="filter0_d_347_278" x="0" y="0" width="46" height="70.417" filterUnits="userSpaceOnUse" color-interpolation-filters="sRGB">
<feFlood flood-opacity="0" result="BackgroundImageFix"/>
<feColorMatrix in="SourceAlpha" type="matrix" values="0 0 0 0 0 0 0 0 0 0 0 0 0 0 0 0 0 0 127 0" result="hardAlpha"/>
<feOffset dy="4"/>
<feGaussianBlur stdDeviation="2"/>
<feComposite in2="hardAlpha" operator="out"/>
<feColorMatrix type="matrix" values="0 0 0 0 0 0 0 0 0 0 0 0 0 0 0 0 0 0 0.25 0"/>
<feBlend mode="normal" in2="BackgroundImageFix" result="effect1_dropShadow_347_278"/>
<feBlend mode="normal" in="SourceGraphic" in2="effect1_dropShadow_347_278" result="shape"/>
</filter>
<filter id="filter1_d_347_278" x="10.5" y="7.5" width="35" height="33" filterUnits="userSpaceOnUse" color-interpolation-filters="sRGB">
<feFlood flood-opacity="0" result="BackgroundImageFix"/>
<feColorMatrix in="SourceAlpha" type="matrix" values="0 0 0 0 0 0 0 0 0 0 0 0 0 0 0 0 0 0 127 0" result="hardAlpha"/>
<feOffset dx="5" dy="5"/>
<feGaussianBlur stdDeviation="5"/>
<feColorMatrix type="matrix" values="0 0 0 0 0 0 0 0 0 0 0 0 0 0 0 0 0 0 0.25 0"/>
<feBlend mode="normal" in2="BackgroundImageFix" result="effect1_dropShadow_347_278"/>
<feBlend mode="normal" in="SourceGraphic" in2="effect1_dropShadow_347_278" result="shape"/>
</filter>
</defs>
</svg>
