<svg width="111" height="46" viewBox="0 0 111 46" fill="none" xmlns="http://www.w3.org/2000/svg">
<g filter="url(#filter0_d_362_74)">
<path d="M54.334 22.1289C55.0221 20.3971 55.5553 19.0186 55.9336 17.9932C56.1341 17.4508 56.3324 16.9062 56.5283 16.3594C56.7972 15.7122 57.0866 15.2132 57.3965 14.8623C57.6016 14.6299 57.8477 14.5137 58.1348 14.5137C58.3945 14.5137 58.6224 14.6048 58.8184 14.7871C59.0143 14.9648 59.1123 15.1836 59.1123 15.4434C59.1123 15.6257 59.0508 15.8057 58.9277 15.9834C58.6816 16.3389 58.4561 16.7673 58.251 17.2686C58.2419 17.2868 58.0732 17.738 57.7451 18.6221C57.335 19.6748 56.7243 21.2539 55.9131 23.3594C55.7035 23.9108 55.446 24.4622 55.1406 25.0137C54.9447 25.3691 54.6598 25.5469 54.2861 25.5469C53.8122 25.5469 53.4818 25.3236 53.2949 24.877C52.7389 23.5508 52.1214 21.639 51.4424 19.1416C51.2555 18.5264 51.0664 17.9111 50.875 17.2959C50.6198 16.4391 50.4922 15.8444 50.4922 15.5117C50.4922 15.2428 50.5924 15.0195 50.793 14.8418C50.9844 14.6777 51.2077 14.5957 51.4629 14.5957C51.9004 14.5957 52.2057 14.8236 52.3789 15.2793C52.4701 15.6758 52.5612 16.07 52.6523 16.4619C52.8027 16.9541 53.0192 17.6924 53.3018 18.6768C53.6572 19.9801 54.0013 21.1309 54.334 22.1289ZM64.8203 25.417C63.4714 25.417 62.3229 25.0296 61.375 24.2549C60.3633 23.4255 59.8574 22.3522 59.8574 21.0352C59.8574 19.4857 60.3428 18.0729 61.3135 16.7969C62.4027 15.3613 63.7744 14.6436 65.4287 14.6436C67.0192 14.6436 68.2109 15.0081 69.0039 15.7373C69.7969 16.4665 70.1934 17.5625 70.1934 19.0254C70.1934 20.5749 69.7467 21.9785 68.8535 23.2363C67.8236 24.6901 66.4792 25.417 64.8203 25.417ZM65.4287 16.4961C64.4124 16.4961 63.542 16.9883 62.8174 17.9727C62.1383 18.8932 61.7988 19.9141 61.7988 21.0352C61.7988 21.7917 62.0928 22.4069 62.6807 22.8809C63.2458 23.3366 63.959 23.5645 64.8203 23.5645C65.8229 23.5645 66.6592 23.0723 67.3291 22.0879C67.9443 21.1901 68.252 20.1693 68.252 19.0254C68.252 18.0684 68.0378 17.403 67.6094 17.0293C67.1992 16.6738 66.4723 16.4961 65.4287 16.4961ZM77.7539 24.7402C77.2161 24.9772 76.3844 25.1891 75.2588 25.376C74.2288 25.5492 73.3835 25.6357 72.7227 25.6357C71.6061 25.6357 71.0479 25.1458 71.0479 24.166C71.0479 24.2435 71.0934 23.5212 71.1846 21.999C71.3031 20.0212 71.3623 17.82 71.3623 15.3955C71.3623 15.1357 71.4512 14.9147 71.6289 14.7324C71.8112 14.5501 72.0391 14.459 72.3125 14.459C72.5859 14.459 72.8138 14.5501 72.9961 14.7324C73.1784 14.9147 73.2695 15.1357 73.2695 15.3955C73.2695 17.8245 73.208 20.0622 73.085 22.1084C73.0439 22.473 73.0007 23.0312 72.9551 23.7832C74.0352 23.765 75.4206 23.5007 77.1113 22.9902C77.2161 22.9583 77.3164 22.9424 77.4121 22.9424C77.6992 22.9424 77.9316 23.0472 78.1094 23.2568C78.2689 23.4437 78.3486 23.6533 78.3486 23.8857C78.3486 24.2777 78.1504 24.5625 77.7539 24.7402ZM87.2012 16.8037C86.8457 16.8037 86.292 16.7786 85.54 16.7285C84.8154 16.6784 84.2617 16.6556 83.8789 16.6602C83.8971 17.1797 83.9587 18.1048 84.0635 19.4355C84.1592 20.6113 84.207 21.541 84.207 22.2246C84.207 22.3796 84.223 22.6097 84.2549 22.915C84.2868 23.2204 84.3027 23.4505 84.3027 23.6055C84.3027 23.9473 84.2298 24.2549 84.084 24.5283C83.8971 24.8792 83.6305 25.0547 83.2842 25.0547C83.0335 25.0547 82.8125 24.9749 82.6211 24.8154C82.4069 24.6377 82.2998 24.4144 82.2998 24.1455C82.2998 24.0817 82.3112 23.986 82.334 23.8584C82.3568 23.7262 82.3682 23.626 82.3682 23.5576C82.3682 23.348 82.3522 23.0312 82.3203 22.6074C82.293 22.1836 82.2793 21.8646 82.2793 21.6504C82.2793 21.0397 82.2314 20.2126 82.1357 19.1689C82.0264 17.9704 81.9626 17.1432 81.9443 16.6875H81.5889C80.5726 16.6875 79.766 16.6146 79.1689 16.4688C78.6631 16.3457 78.4102 16.0472 78.4102 15.5732C78.4102 15.3408 78.4922 15.1312 78.6562 14.9443C78.8477 14.721 79.0983 14.6208 79.4082 14.6436C79.5677 14.6527 79.93 14.6914 80.4951 14.7598C80.9463 14.8099 81.3109 14.835 81.5889 14.835C81.8669 14.835 82.2816 14.8304 82.833 14.8213C83.389 14.8122 83.806 14.8076 84.084 14.8076C84.4303 14.8076 84.9499 14.8327 85.6426 14.8828C86.3353 14.9284 86.8548 14.9512 87.2012 14.9512C87.4746 14.9512 87.7025 15.04 87.8848 15.2178C88.0716 15.3955 88.165 15.6143 88.165 15.874C88.165 16.1338 88.0716 16.3548 87.8848 16.5371C87.7025 16.7148 87.4746 16.8037 87.2012 16.8037ZM96.6348 25.2051C96.2747 25.1914 95.9124 24.7676 95.5479 23.9336C95.3063 23.3958 95.099 22.776 94.9258 22.0742C94.5885 22.1243 94.0371 22.1745 93.2715 22.2246C92.5514 22.2747 92 22.334 91.6172 22.4023C91.4076 22.9036 91.043 23.6579 90.5234 24.665C90.3229 24.9932 90.0449 25.1572 89.6895 25.1572C89.4388 25.1572 89.2132 25.0729 89.0127 24.9043C88.8122 24.7311 88.7119 24.5124 88.7119 24.248C88.7119 24.0156 89.0446 23.2272 89.71 21.8828C89.6462 21.7415 89.6188 21.6094 89.6279 21.4863C89.6462 21.2676 89.8672 21.0967 90.291 20.9736C90.9382 19.8525 91.6582 18.6904 92.4512 17.4873C93.5905 15.7601 94.2923 14.8965 94.5566 14.8965C95.0579 14.8965 95.3929 15.1995 95.5615 15.8057C95.6527 16.2933 95.7962 17.0247 95.9922 18C96.2702 19.3125 96.6097 20.8141 97.0107 22.5049C97.0426 22.6325 97.1589 22.9333 97.3594 23.4072C97.5234 23.7992 97.6055 24.0931 97.6055 24.2891C97.6055 24.5534 97.5052 24.7744 97.3047 24.9521C97.1087 25.1299 96.8854 25.2142 96.6348 25.2051ZM94.085 18.1914C93.7295 18.8021 93.2396 19.6338 92.6152 20.6865C92.8203 20.641 93.1393 20.6045 93.5723 20.5771C94.0827 20.5452 94.404 20.5202 94.5361 20.502C94.4268 19.9095 94.2764 19.1393 94.085 18.1914ZM106.027 25.082C105.781 25.082 105.556 24.9863 105.351 24.7949C103.97 23.5007 102.452 22.6029 100.798 22.1016C100.848 23.4277 100.873 24.1637 100.873 24.3096C100.873 24.5693 100.782 24.7904 100.6 24.9727C100.417 25.1504 100.189 25.2393 99.916 25.2393C99.6426 25.2393 99.4147 25.1504 99.2324 24.9727C99.0501 24.7904 98.959 24.5693 98.959 24.3096C98.959 23.9678 98.9635 23.4574 98.9727 22.7783C98.9818 22.0947 98.9863 21.582 98.9863 21.2402L99 15.7236C99 15.4274 99.0889 15.1585 99.2666 14.917C99.499 14.6071 99.8203 14.4681 100.23 14.5C101.338 14.582 101.905 14.6253 101.933 14.6299C102.571 14.7074 103.113 14.86 103.56 15.0879C105.506 16.0677 106.479 17.2822 106.479 18.7314C106.479 19.3285 106.273 19.8571 105.863 20.3174C105.458 20.7731 104.847 21.1582 104.031 21.4727C105.239 22.1471 106.148 22.8353 106.759 23.5371C106.918 23.7194 106.998 23.9222 106.998 24.1455C106.998 24.4007 106.902 24.6217 106.711 24.8086C106.52 24.9909 106.292 25.082 106.027 25.082ZM101.646 16.4824C101.609 16.4779 101.342 16.4596 100.846 16.4277V20.0576C100.96 20.0622 101.06 20.0645 101.146 20.0645C102.263 20.0645 103.09 19.9255 103.628 19.6475C103.86 19.529 104.072 19.3717 104.264 19.1758C104.46 18.9798 104.558 18.8317 104.558 18.7314C104.558 18.221 104.234 17.7288 103.587 17.2549C102.972 16.8083 102.325 16.5508 101.646 16.4824Z" fill="#DC4361"/>
<circle cx="23" cy="19" r="16.5" transform="rotate(-90 23 19)" stroke="#E04463" stroke-width="5"/>
<path d="M21.1605 13L16 18.1646L21.1605 22.8734L21.1605 19.9114L26.4707 19.9114C28.6396 19.9114 30.2252 22.8127 27.2934 25C30.3598 23.6329 31.4069 15.2785 27.2934 15.2785L21.1605 15.2785L21.1605 13Z" fill="#E04463"/>
<path d="M21.1605 19.9114L21.1605 22.8734L16 18.1646L21.1605 13L21.1605 15.2785M21.1605 19.9114L26.4707 19.9114C28.6396 19.9114 30.2252 22.8127 27.2934 25C30.3598 23.6329 31.4069 15.2785 27.2934 15.2785C19.6947 15.2785 22.2076 15.2785 21.1605 15.2785M21.1605 19.9114L21.1605 15.2785" stroke="#DD4462" stroke-linejoin="round"/>
</g>
<defs>
<filter id="filter0_d_362_74" x="0" y="0" width="110.998" height="46" filterUnits="userSpaceOnUse" color-interpolation-filters="sRGB">
<feFlood flood-opacity="0" result="BackgroundImageFix"/>
<feColorMatrix in="SourceAlpha" type="matrix" values="0 0 0 0 0 0 0 0 0 0 0 0 0 0 0 0 0 0 127 0" result="hardAlpha"/>
<feOffset dy="4"/>
<feGaussianBlur stdDeviation="2"/>
<feComposite in2="hardAlpha" operator="out"/>
<feColorMatrix type="matrix" values="0 0 0 0 0 0 0 0 0 0 0 0 0 0 0 0 0 0 0.25 0"/>
<feBlend mode="normal" in2="BackgroundImageFix" result="effect1_dropShadow_362_74"/>
<feBlend mode="normal" in="SourceGraphic" in2="effect1_dropShadow_362_74" result="shape"/>
</filter>
</defs>
</svg>
