<svg width="102" height="37" viewBox="0 0 102 37" fill="none" xmlns="http://www.w3.org/2000/svg">
<g filter="url(#filter0_d_435_24)">
<rect x="4" width="94" height="29" rx="5" fill="#4DD635"/>
<path d="M21.0928 12.0957C20.7594 12.0957 20.5094 11.9004 20.3428 11.5098C20.1969 11.1764 20.0615 10.9733 19.9365 10.9004C19.8271 10.8431 19.5563 10.8145 19.124 10.8145C18.3688 10.8145 17.5303 11.3926 16.6084 12.5488C15.3584 14.1009 14.7334 15.5723 14.7334 16.9629C14.7334 17.6348 14.9495 18.2129 15.3818 18.6973C15.8245 19.1973 16.3584 19.4473 16.9834 19.4473C17.5199 19.4473 18.0589 19.3092 18.6006 19.0332C18.9027 18.877 19.3662 18.5697 19.9912 18.1113C20.2881 17.8926 20.512 17.7832 20.6631 17.7832C20.887 17.7832 21.0745 17.8691 21.2256 18.041C21.3766 18.2077 21.4521 18.3952 21.4521 18.6035C21.4521 18.8379 21.3532 19.0436 21.1553 19.2207C19.7803 20.4395 18.3896 21.0488 16.9834 21.0488C15.9053 21.0488 14.9938 20.6348 14.249 19.8066C13.5303 19.0046 13.1709 18.0566 13.1709 16.9629C13.1709 15.1973 13.9105 13.3874 15.3896 11.5332C16.624 9.98633 17.8688 9.21289 19.124 9.21289C19.3792 9.21289 19.6084 9.22591 19.8115 9.25195C20.0146 9.27279 20.1943 9.30924 20.3506 9.36133C20.5329 9.0957 20.7699 8.96289 21.0615 8.96289C21.4209 8.96289 21.6475 9.19987 21.7412 9.67383C21.8245 10.0957 21.8662 10.6139 21.8662 11.2285C21.8662 11.4421 21.8089 11.6296 21.6943 11.791C21.5537 11.9941 21.3532 12.0957 21.0928 12.0957ZM28.374 21.3379C26.9053 21.3379 25.6605 20.8978 24.6396 20.0176C23.5563 19.0801 23.0146 17.8717 23.0146 16.3926C23.0146 14.5905 23.5485 12.9525 24.6162 11.4785C25.8089 9.8431 27.2959 9.02539 29.0771 9.02539C30.7907 9.02539 32.0641 9.41081 32.8975 10.1816C33.7673 10.9837 34.2021 12.2493 34.2021 13.9785C34.2021 15.7806 33.7126 17.4056 32.7334 18.8535C31.6084 20.5098 30.1553 21.3379 28.374 21.3379ZM29.0771 10.627C27.8011 10.627 26.7204 11.2624 25.835 12.5332C25.0173 13.6999 24.6084 14.9863 24.6084 16.3926C24.6084 17.3978 24.9808 18.2155 25.7256 18.8457C26.4391 19.4395 27.3219 19.7363 28.374 19.7363C29.6396 19.7363 30.6839 19.0983 31.5068 17.8223C32.2412 16.6816 32.6084 15.4004 32.6084 13.9785C32.6084 12.7337 32.3298 11.8587 31.7725 11.3535C31.2412 10.8691 30.3428 10.627 29.0771 10.627ZM47.585 21.5098C47.3037 21.5098 47.0719 21.3639 46.8896 21.0723C46.7334 20.8223 46.5928 20.4056 46.4678 19.8223L46.1865 18.4785C45.973 17.6452 45.6344 15.8066 45.1709 12.9629L43.6084 17.6738L43.1475 19.1582C42.96 19.7467 42.7646 20.2285 42.5615 20.6035C42.3428 20.9993 42.0485 21.1973 41.6787 21.1973C41.3714 21.1973 41.1292 21.0306 40.9521 20.6973C40.8376 20.4785 40.7334 20.1999 40.6396 19.8613L40.4131 18.9941C39.887 17.1556 39.4235 15.1868 39.0225 13.0879L38.7412 14.4863L37.7334 18.6113C37.6917 19.0957 37.5615 19.8118 37.3428 20.7598C37.1865 21.166 36.9287 21.3691 36.5693 21.3691C36.3141 21.3691 36.111 21.278 35.96 21.0957C35.8298 20.9395 35.7646 20.7467 35.7646 20.5176C35.7646 19.6478 35.9443 18.5801 36.3037 17.3145L37.1631 14.166L37.6162 11.7051C37.8454 10.554 38.0876 9.80143 38.3428 9.44727C38.5511 9.14518 38.8089 8.99414 39.1162 8.99414C39.4548 8.99414 39.7074 9.18685 39.874 9.57227C40.0771 10.0358 40.2959 10.9811 40.5303 12.4082C40.8063 14.1217 41.236 15.9759 41.8193 17.9707C42.5902 15.9655 43.2568 13.877 43.8193 11.7051L44.0537 10.5645C44.1475 10.1061 44.2699 9.73633 44.4209 9.45508C44.624 9.06966 44.9027 8.87695 45.2568 8.87695C45.7048 8.87695 46.0459 9.30924 46.2803 10.1738C46.3636 10.4707 46.4652 11.0853 46.585 12.0176C46.8923 14.3717 47.2751 16.3822 47.7334 18.0488L48.1162 19.3926C48.3141 20.1113 48.4131 20.554 48.4131 20.7207C48.4131 20.9447 48.3271 21.1322 48.1553 21.2832C47.9886 21.4342 47.7985 21.5098 47.585 21.5098ZM52.2412 16.2754C52.0954 16.2754 51.7777 16.2415 51.2881 16.1738C51.2464 16.9603 51.2256 18.3379 51.2256 20.3066C51.2256 20.515 51.1579 20.6921 51.0225 20.8379C50.887 20.9785 50.7178 21.0488 50.5146 21.0488C50.3063 21.0488 50.1344 20.9785 49.999 20.8379C49.8636 20.6921 49.7959 20.515 49.7959 20.3066V18.0098C49.7959 17.2441 49.8428 16.166 49.9365 14.7754C50.0407 13.2702 50.098 12.1921 50.1084 11.541V10.4629C50.1084 9.94727 50.1396 9.57227 50.2021 9.33789C50.3219 8.87956 50.5771 8.68164 50.9678 8.74414C51.1344 8.69206 51.3714 8.65299 51.6787 8.62695C51.986 8.60091 52.3636 8.58789 52.8115 8.58789C53.7646 8.58789 54.6579 8.91341 55.4912 9.56445C56.4079 10.2832 56.8662 11.1478 56.8662 12.1582C56.8662 13.4499 56.3766 14.4785 55.3975 15.2441C54.5225 15.9316 53.4704 16.2754 52.2412 16.2754ZM52.6318 10.0723C52.4027 10.0723 52.1969 10.0775 52.0146 10.0879C51.8376 10.0983 51.6865 10.1139 51.5615 10.1348L51.5459 11.5723L51.3818 14.6816L52.2412 14.7832C53.1162 14.7832 53.8532 14.5618 54.4521 14.1191C55.1084 13.6348 55.4365 12.9811 55.4365 12.1582C55.4365 11.5749 55.124 11.0723 54.499 10.6504C53.9209 10.265 53.2985 10.0723 52.6318 10.0723ZM66.1396 20.9473C65.9417 20.9473 65.7568 20.8639 65.585 20.6973C63.861 18.9941 61.9443 17.8483 59.835 17.2598L59.8975 18.791L59.9365 20.3301C59.9365 20.5592 59.861 20.7493 59.71 20.9004C59.5641 21.0566 59.3792 21.1348 59.1553 21.1348C58.9313 21.1348 58.7438 21.0566 58.5928 20.9004C58.4469 20.7493 58.374 20.5592 58.374 20.3301C58.374 19.9186 58.3532 19.3066 58.3115 18.4941C58.2751 17.6764 58.2568 17.0618 58.2568 16.6504C58.2568 16.1712 58.3089 15.4577 58.4131 14.5098C58.5173 13.5618 58.5693 12.8509 58.5693 12.377C58.5693 12.1113 58.5433 11.7181 58.4912 11.1973C58.4443 10.6764 58.4209 10.2832 58.4209 10.0176C58.4209 9.7207 58.5042 9.46029 58.6709 9.23633C58.8688 8.96029 59.1423 8.83529 59.4912 8.86133L61.374 9.00977C62.0876 9.09831 62.6891 9.27279 63.1787 9.5332C65.2881 10.653 66.3428 12.0202 66.3428 13.6348C66.3428 14.4264 65.9834 15.127 65.2646 15.7363C64.6865 16.2259 63.9652 16.5983 63.1006 16.8535C64.7204 17.7233 65.9313 18.64 66.7334 19.6035C66.8688 19.7702 66.9365 19.9473 66.9365 20.1348C66.9365 20.3535 66.8558 20.5436 66.6943 20.7051C66.5381 20.8665 66.3532 20.9473 66.1396 20.9473ZM61.1631 10.6191L60.0068 10.5254L60.085 11.4707C60.1214 11.8561 60.1396 12.1712 60.1396 12.416C60.1396 12.8327 60.1058 13.3509 60.0381 13.9707L59.874 15.5254C59.9469 15.5254 60.0589 15.528 60.21 15.5332C60.3662 15.5384 60.4834 15.541 60.5615 15.541C61.8896 15.541 62.8844 15.3639 63.5459 15.0098C63.8376 14.8483 64.1084 14.6374 64.3584 14.377C64.6344 14.0853 64.7725 13.8379 64.7725 13.6348C64.7725 12.9108 64.361 12.2363 63.5381 11.6113C62.7829 11.0384 61.9912 10.7077 61.1631 10.6191ZM77.1709 21.0957C76.6917 21.0957 76.2751 20.4811 75.9209 19.252C75.7855 18.7832 75.6162 17.9629 75.4131 16.791C74.8818 16.8639 74.1865 16.9941 73.3271 17.1816L71.249 17.6113C70.9886 18.2936 70.5433 19.291 69.9131 20.6035C69.7464 20.8952 69.5199 21.041 69.2334 21.041C69.0251 21.041 68.8376 20.9655 68.6709 20.8145C68.5094 20.6634 68.4287 20.4759 68.4287 20.252C68.4287 20.002 68.8219 19.0514 69.6084 17.4004C69.5199 17.265 69.4756 17.1087 69.4756 16.9316C69.4756 16.5098 69.7308 16.2389 70.2412 16.1191C70.835 15.0046 71.585 13.7233 72.4912 12.2754C73.7256 10.3014 74.4938 9.31445 74.7959 9.31445C75.2074 9.31445 75.4886 9.60091 75.6396 10.1738L76.1318 12.7988L77.2959 18.2285L77.7412 19.4629C77.8923 19.8848 77.9678 20.166 77.9678 20.3066C77.9678 20.5306 77.887 20.7181 77.7256 20.8691C77.5641 21.0202 77.3792 21.0957 77.1709 21.0957ZM74.4131 12.166L72.1787 15.7676C72.8089 15.6061 73.7646 15.4108 75.0459 15.1816L74.4131 12.166ZM87.9053 20.9473C87.7074 20.9473 87.5225 20.8639 87.3506 20.6973C85.6266 18.9941 83.71 17.8483 81.6006 17.2598L81.6631 18.791L81.7021 20.3301C81.7021 20.5592 81.6266 20.7493 81.4756 20.9004C81.3298 21.0566 81.1449 21.1348 80.9209 21.1348C80.6969 21.1348 80.5094 21.0566 80.3584 20.9004C80.2126 20.7493 80.1396 20.5592 80.1396 20.3301C80.1396 19.9186 80.1188 19.3066 80.0771 18.4941C80.0407 17.6764 80.0225 17.0618 80.0225 16.6504C80.0225 16.1712 80.0745 15.4577 80.1787 14.5098C80.2829 13.5618 80.335 12.8509 80.335 12.377C80.335 12.1113 80.3089 11.7181 80.2568 11.1973C80.21 10.6764 80.1865 10.2832 80.1865 10.0176C80.1865 9.7207 80.2699 9.46029 80.4365 9.23633C80.6344 8.96029 80.9079 8.83529 81.2568 8.86133L83.1396 9.00977C83.8532 9.09831 84.4548 9.27279 84.9443 9.5332C87.0537 10.653 88.1084 12.0202 88.1084 13.6348C88.1084 14.4264 87.749 15.127 87.0303 15.7363C86.4521 16.2259 85.7308 16.5983 84.8662 16.8535C86.486 17.7233 87.6969 18.64 88.499 19.6035C88.6344 19.7702 88.7021 19.9473 88.7021 20.1348C88.7021 20.3535 88.6214 20.5436 88.46 20.7051C88.3037 20.8665 88.1188 20.9473 87.9053 20.9473ZM82.9287 10.6191L81.7725 10.5254L81.8506 11.4707C81.887 11.8561 81.9053 12.1712 81.9053 12.416C81.9053 12.8327 81.8714 13.3509 81.8037 13.9707L81.6396 15.5254C81.7126 15.5254 81.8245 15.528 81.9756 15.5332C82.1318 15.5384 82.249 15.541 82.3271 15.541C83.6553 15.541 84.6501 15.3639 85.3115 15.0098C85.6032 14.8483 85.874 14.6374 86.124 14.377C86.4001 14.0853 86.5381 13.8379 86.5381 13.6348C86.5381 12.9108 86.1266 12.2363 85.3037 11.6113C84.5485 11.0384 83.7568 10.7077 82.9287 10.6191Z" fill="white"/>
</g>
<defs>
<filter id="filter0_d_435_24" x="0" y="0" width="102" height="37" filterUnits="userSpaceOnUse" color-interpolation-filters="sRGB">
<feFlood flood-opacity="0" result="BackgroundImageFix"/>
<feColorMatrix in="SourceAlpha" type="matrix" values="0 0 0 0 0 0 0 0 0 0 0 0 0 0 0 0 0 0 127 0" result="hardAlpha"/>
<feOffset dy="4"/>
<feGaussianBlur stdDeviation="2"/>
<feComposite in2="hardAlpha" operator="out"/>
<feColorMatrix type="matrix" values="0 0 0 0 0 0 0 0 0 0 0 0 0 0 0 0 0 0 0.25 0"/>
<feBlend mode="normal" in2="BackgroundImageFix" result="effect1_dropShadow_435_24"/>
<feBlend mode="normal" in="SourceGraphic" in2="effect1_dropShadow_435_24" result="shape"/>
</filter>
</defs>
</svg>
