<svg width="184" height="507" viewBox="0 0 184 507" fill="none" xmlns="http://www.w3.org/2000/svg">
<g filter="url(#filter0_d_435_43)">
<rect x="5" y="5" width="164" height="487" rx="5" fill="#23579F"/>
</g>
<g style="mix-blend-mode:multiply">
<rect x="46" y="25" width="82" height="105" rx="5" fill="#800080" fill-opacity="0.6"/>
</g>
<g style="mix-blend-mode:multiply">
<rect x="46" y="104" width="82" height="19" fill="#800080" fill-opacity="0.6"/>
</g>
<path d="M58.0156 118.648C57.6354 119.164 57.1771 119.594 56.6406 119.938C55.9844 120.354 55.3099 120.562 54.6172 120.562C53.2891 120.562 52.3021 120.307 51.6562 119.797C50.2917 118.719 49.6094 116.846 49.6094 114.18C49.6094 113.924 49.6224 113.544 49.6484 113.039C49.6745 112.534 49.6875 112.154 49.6875 111.898C49.6875 111.695 49.6927 111.393 49.7031 110.992C49.7135 110.586 49.7188 110.281 49.7188 110.078C49.7188 109.661 49.7943 109.268 49.9453 108.898C50.1484 108.409 50.4323 108.164 50.7969 108.164C51.0833 108.164 51.3359 108.258 51.5547 108.445C51.7943 108.643 51.9141 108.898 51.9141 109.211C51.9141 109.508 51.9089 109.958 51.8984 110.562C51.8932 111.161 51.8906 111.612 51.8906 111.914C51.8906 112.164 51.8776 112.542 51.8516 113.047C51.8255 113.552 51.8125 113.93 51.8125 114.18C51.8125 114.987 51.9062 115.737 52.0938 116.43C52.3125 117.258 52.6328 117.836 53.0547 118.164C53.2734 118.336 53.7943 118.427 54.6172 118.438C55.9922 118.458 56.9193 117.286 57.3984 114.922C57.6484 113.698 57.7734 111.979 57.7734 109.766C57.7734 109.474 57.8594 109.193 58.0312 108.922C58.2656 108.562 58.599 108.383 59.0312 108.383C59.3854 108.383 59.651 108.513 59.8281 108.773C59.9635 108.966 60.0312 109.18 60.0312 109.414C60.0312 111.471 59.9349 113.076 59.7422 114.227C59.4505 116.003 58.875 117.477 58.0156 118.648ZM64.0234 115.641C63.9349 115.641 63.7161 115.622 63.3672 115.586C63.3359 116.315 63.3203 117.513 63.3203 119.18C63.3203 119.456 63.224 119.693 63.0312 119.891C62.8385 120.089 62.5938 120.188 62.2969 120.188C62 120.188 61.7526 120.089 61.5547 119.891C61.362 119.693 61.2656 119.456 61.2656 119.18V117C61.2656 116.193 61.3177 114.997 61.4219 113.414C61.5208 111.805 61.5729 110.604 61.5781 109.812C61.5833 108.458 61.9635 107.81 62.7188 107.867C62.8958 107.82 63.1406 107.786 63.4531 107.766C63.7656 107.74 64.1458 107.727 64.5938 107.727C65.6146 107.727 66.5729 108.057 67.4688 108.719C68.4635 109.458 68.9609 110.359 68.9609 111.422C68.9609 112.755 68.4323 113.815 67.375 114.602C66.4375 115.294 65.3203 115.641 64.0234 115.641ZM64.4141 109.742C64.2474 109.742 64.099 109.745 63.9688 109.75C63.8438 109.75 63.737 109.755 63.6484 109.766C63.6484 110.01 63.6458 110.378 63.6406 110.867C63.6302 111.445 63.5807 112.346 63.4922 113.57C63.7578 113.612 63.9349 113.633 64.0234 113.633C64.8359 113.633 65.5104 113.44 66.0469 113.055C66.6198 112.643 66.9062 112.099 66.9062 111.422C66.9062 110.979 66.638 110.586 66.1016 110.242C65.5859 109.909 65.0234 109.742 64.4141 109.742ZM79.7578 115.406C79.4036 116.958 78.6901 118.201 77.6172 119.133C76.5286 120.07 75.2526 120.539 73.7891 120.539C72.4036 120.539 71.3646 120.174 70.6719 119.445C69.9792 118.711 69.6328 117.612 69.6328 116.148C69.6328 114.815 69.9609 113.448 70.6172 112.047C71.2734 110.646 72.1172 109.51 73.1484 108.641C73.8724 108.031 74.6484 107.727 75.4766 107.727C75.9818 107.727 76.6693 107.909 77.5391 108.273C78.5703 108.706 79.0859 109.167 79.0859 109.656C79.0859 109.938 78.9792 110.19 78.7656 110.414C78.5521 110.633 78.2891 110.742 77.9766 110.742C77.8203 110.742 77.474 110.596 76.9375 110.305C76.4062 110.008 75.9193 109.859 75.4766 109.859C75.0078 109.859 74.375 110.365 73.5781 111.375C72.4167 112.844 71.8359 114.435 71.8359 116.148C71.8359 117.018 71.9635 117.609 72.2188 117.922C72.4896 118.25 73.013 118.414 73.7891 118.414C74.5859 118.414 75.2865 118.188 75.8906 117.734C76.5312 117.255 77.0052 116.557 77.3125 115.641C76.1042 115.734 75.0521 115.982 74.1562 116.383C73.9948 116.456 73.8333 116.492 73.6719 116.492C73.349 116.492 73.0807 116.372 72.8672 116.133C72.6745 115.919 72.5781 115.677 72.5781 115.406C72.5781 114.609 73.5208 114.052 75.4062 113.734C76.4688 113.557 77.7083 113.469 79.125 113.469C79.4375 113.469 79.6979 113.57 79.9062 113.773C80.1198 113.977 80.2266 114.227 80.2266 114.523C80.2266 114.904 80.0703 115.198 79.7578 115.406ZM89 120.094C88.7188 120.094 88.4609 119.984 88.2266 119.766C86.6484 118.286 84.9141 117.26 83.0234 116.688C83.0807 118.203 83.1094 119.044 83.1094 119.211C83.1094 119.508 83.0052 119.76 82.7969 119.969C82.5885 120.172 82.3281 120.273 82.0156 120.273C81.7031 120.273 81.4427 120.172 81.2344 119.969C81.026 119.76 80.9219 119.508 80.9219 119.211C80.9219 118.82 80.9271 118.237 80.9375 117.461C80.9479 116.68 80.9531 116.094 80.9531 115.703L80.9688 109.398C80.9688 109.06 81.0703 108.753 81.2734 108.477C81.5391 108.122 81.9062 107.964 82.375 108C83.6406 108.094 84.2891 108.143 84.3203 108.148C85.0495 108.237 85.6693 108.411 86.1797 108.672C88.4036 109.792 89.5156 111.18 89.5156 112.836C89.5156 113.518 89.2812 114.122 88.8125 114.648C88.349 115.169 87.651 115.609 86.7188 115.969C88.099 116.74 89.138 117.526 89.8359 118.328C90.0182 118.536 90.1094 118.768 90.1094 119.023C90.1094 119.315 90 119.568 89.7812 119.781C89.5625 119.99 89.3021 120.094 89 120.094ZM83.9922 110.266C83.9505 110.26 83.6458 110.24 83.0781 110.203V114.352C83.2083 114.357 83.3229 114.359 83.4219 114.359C84.6979 114.359 85.6432 114.201 86.2578 113.883C86.5234 113.747 86.7656 113.568 86.9844 113.344C87.2083 113.12 87.3203 112.951 87.3203 112.836C87.3203 112.253 86.9505 111.69 86.2109 111.148C85.5078 110.638 84.7682 110.344 83.9922 110.266ZM100.219 120.234C99.8073 120.219 99.3932 119.734 98.9766 118.781C98.7005 118.167 98.4635 117.458 98.2656 116.656C97.8802 116.714 97.25 116.771 96.375 116.828C95.5521 116.885 94.9219 116.953 94.4844 117.031C94.2448 117.604 93.8281 118.466 93.2344 119.617C93.0052 119.992 92.6875 120.18 92.2812 120.18C91.9948 120.18 91.737 120.083 91.5078 119.891C91.2786 119.693 91.1641 119.443 91.1641 119.141C91.1641 118.875 91.5443 117.974 92.3047 116.438C92.2318 116.276 92.2005 116.125 92.2109 115.984C92.2318 115.734 92.4844 115.539 92.9688 115.398C93.7083 114.117 94.5312 112.789 95.4375 111.414C96.7396 109.44 97.5417 108.453 97.8438 108.453C98.4167 108.453 98.7995 108.799 98.9922 109.492C99.0964 110.049 99.2604 110.885 99.4844 112C99.8021 113.5 100.19 115.216 100.648 117.148C100.685 117.294 100.818 117.638 101.047 118.18C101.234 118.628 101.328 118.964 101.328 119.188C101.328 119.49 101.214 119.742 100.984 119.945C100.76 120.148 100.505 120.245 100.219 120.234ZM97.3047 112.219C96.8984 112.917 96.3385 113.867 95.625 115.07C95.8594 115.018 96.224 114.977 96.7188 114.945C97.3021 114.909 97.6693 114.88 97.8203 114.859C97.6953 114.182 97.5234 113.302 97.3047 112.219ZM104.359 120.078C104.052 120.073 103.794 119.969 103.586 119.766C103.378 119.557 103.273 119.307 103.273 119.016C103.273 118.495 103.297 117.714 103.344 116.672C103.396 115.63 103.422 114.849 103.422 114.328C103.422 113.75 103.409 112.883 103.383 111.727C103.362 110.57 103.352 109.703 103.352 109.125C103.352 108.839 103.49 108.555 103.766 108.273C104.042 107.987 104.336 107.844 104.648 107.844C104.82 107.844 105.253 108.005 105.945 108.328C106.753 108.714 107.232 108.93 107.383 108.977C108.909 109.471 110.211 110.237 111.289 111.273C112.576 112.508 113.219 113.872 113.219 115.367C113.219 116.268 112.997 117.125 112.555 117.938C112.112 118.766 111.505 119.43 110.734 119.93C109.87 120.492 108.654 120.773 107.086 120.773C106.706 120.773 106.268 120.719 105.773 120.609C105.174 120.474 104.703 120.297 104.359 120.078ZM108.75 112.047C108.245 111.729 107.161 111.229 105.5 110.547V118.281C105.703 118.411 105.935 118.51 106.195 118.578C106.461 118.641 106.755 118.672 107.078 118.672C108.203 118.672 109.01 118.516 109.5 118.203C109.964 117.906 110.331 117.503 110.602 116.992C110.878 116.482 111.016 115.951 111.016 115.398C111.016 114.107 110.26 112.99 108.75 112.047ZM122.367 109.984C122.263 109.984 122.154 109.969 122.039 109.938C121.195 109.708 120.375 109.594 119.578 109.594C119.188 109.594 118.768 109.625 118.32 109.688C117.872 109.75 117.396 109.844 116.891 109.969C116.891 110.661 116.867 111.69 116.82 113.055C117.112 113.034 118.13 112.938 119.875 112.766C120.87 112.667 121.5 112.617 121.766 112.617C122.073 112.617 122.336 112.716 122.555 112.914C122.773 113.107 122.883 113.365 122.883 113.688C122.883 114.307 122.552 114.659 121.891 114.742C121.474 114.773 120.852 114.826 120.023 114.898C119.284 114.982 118.169 115.083 116.68 115.203C116.643 115.865 116.625 116.398 116.625 116.805C116.625 117.826 116.685 118.406 116.805 118.547C116.862 118.615 117.19 118.648 117.789 118.648C118.112 118.648 118.599 118.641 119.25 118.625C119.901 118.609 120.388 118.602 120.711 118.602C120.815 118.602 120.969 118.586 121.172 118.555C121.375 118.523 121.526 118.508 121.625 118.508C121.927 118.508 122.185 118.594 122.398 118.766C122.643 118.958 122.766 119.229 122.766 119.578C122.766 120.161 122.461 120.51 121.852 120.625C121.331 120.724 120.25 120.773 118.609 120.773C116.911 120.773 115.805 120.544 115.289 120.086C114.721 119.581 114.438 118.487 114.438 116.805C114.438 116.107 114.487 115.06 114.586 113.664C114.69 112.263 114.742 111.216 114.742 110.523C114.742 110.341 114.716 110.073 114.664 109.719C114.612 109.359 114.586 109.089 114.586 108.906C114.586 108.115 114.951 107.719 115.68 107.719C115.909 107.719 116.12 107.784 116.312 107.914C116.917 107.763 117.49 107.651 118.031 107.578C118.578 107.5 119.094 107.461 119.578 107.461C120.891 107.461 121.94 107.612 122.727 107.914C123.206 108.096 123.445 108.427 123.445 108.906C123.445 109.177 123.352 109.417 123.164 109.625C122.956 109.865 122.69 109.984 122.367 109.984Z" fill="#E7C428"/>
<path d="M86.5 51L104 70L98.2727 70L86.5 56.2553L75.0455 70L69 70L86.5 51Z" fill="#57D62C"/>
<path d="M86.5 61L104 80L98.2727 80L86.5 66.2553L75.0455 80L69 80L86.5 61Z" fill="#57D62C"/>
<path d="M98.6416 85H89.8701V83.2598L94.0098 78.8477C94.5781 78.2266 94.9971 77.6846 95.2666 77.2217C95.542 76.7588 95.6797 76.3193 95.6797 75.9033C95.6797 75.335 95.5361 74.8896 95.249 74.5674C94.9619 74.2393 94.5518 74.0752 94.0186 74.0752C93.4443 74.0752 92.9902 74.2744 92.6562 74.6729C92.3281 75.0654 92.1641 75.584 92.1641 76.2285H89.6152C89.6152 75.4492 89.7998 74.7373 90.1689 74.0928C90.5439 73.4482 91.0713 72.9443 91.751 72.5811C92.4307 72.2119 93.2012 72.0273 94.0625 72.0273C95.3809 72.0273 96.4033 72.3438 97.1299 72.9766C97.8623 73.6094 98.2285 74.5029 98.2285 75.6572C98.2285 76.29 98.0645 76.9346 97.7363 77.5908C97.4082 78.2471 96.8457 79.0117 96.0488 79.8848L93.1396 82.9521H98.6416V85ZM105.058 76.6152L107.457 72.2031H110.489L106.763 78.5488L110.586 85H107.519L105.058 80.5176L102.597 85H99.5293L103.353 78.5488L99.626 72.2031H102.658L105.058 76.6152Z" fill="white"/>
<g style="mix-blend-mode:multiply">
<rect x="46" y="150" width="82" height="105" rx="5" fill="#800080" fill-opacity="0.6"/>
</g>
<g style="mix-blend-mode:multiply">
<rect x="46" y="229" width="82" height="19" fill="#800080" fill-opacity="0.6"/>
</g>
<path d="M52.4609 245.477C51.138 245.477 50.0964 245.182 49.3359 244.594C48.6953 244.104 48.375 243.539 48.375 242.898C48.375 242.57 48.474 242.299 48.6719 242.086C48.8698 241.867 49.1432 241.758 49.4922 241.758C49.9609 241.758 50.3047 241.997 50.5234 242.477C50.8203 243.117 51.4922 243.438 52.5391 243.438C53.4349 243.438 54.3021 243.242 55.1406 242.852C56.0104 242.451 56.4453 242.01 56.4453 241.531C56.4453 240.875 56.1745 240.443 55.6328 240.234C55.2474 240.083 54.474 239.995 53.3125 239.969C52.4115 239.948 51.6042 239.779 50.8906 239.461C49.9271 239.029 49.4531 238.409 49.4688 237.602C49.4844 236.586 50.026 235.656 51.0938 234.812C52.1615 233.964 53.3385 233.539 54.625 233.539C55.1354 233.539 55.7656 233.656 56.5156 233.891C57.4479 234.182 57.9141 234.518 57.9141 234.898C57.9141 235.169 57.8203 235.409 57.6328 235.617C57.4245 235.852 57.1562 235.969 56.8281 235.969C56.5833 235.969 56.2161 235.917 55.7266 235.812C55.2422 235.708 54.875 235.656 54.625 235.656C53.9531 235.661 53.3151 235.823 52.7109 236.141C52.0859 236.464 51.7734 236.815 51.7734 237.195C51.7734 237.393 51.8672 237.557 52.0547 237.688C52.2474 237.812 52.5339 237.901 52.9141 237.953C53.5807 237.99 54.2448 238.026 54.9062 238.062C56.0625 238.151 56.9766 238.477 57.6484 239.039C58.388 239.664 58.7578 240.529 58.7578 241.633C58.7578 242.977 57.9922 243.995 56.4609 244.688C55.2943 245.214 53.9609 245.477 52.4609 245.477ZM67.7578 234.984C67.6536 234.984 67.5443 234.969 67.4297 234.938C66.5859 234.708 65.7656 234.594 64.9688 234.594C64.5781 234.594 64.1589 234.625 63.7109 234.688C63.263 234.75 62.7865 234.844 62.2812 234.969C62.2812 235.661 62.2578 236.69 62.2109 238.055C62.5026 238.034 63.5208 237.938 65.2656 237.766C66.2604 237.667 66.8906 237.617 67.1562 237.617C67.4635 237.617 67.7266 237.716 67.9453 237.914C68.1641 238.107 68.2734 238.365 68.2734 238.688C68.2734 239.307 67.9427 239.659 67.2812 239.742C66.8646 239.773 66.2422 239.826 65.4141 239.898C64.6745 239.982 63.5599 240.083 62.0703 240.203C62.0339 240.865 62.0156 241.398 62.0156 241.805C62.0156 242.826 62.0755 243.406 62.1953 243.547C62.2526 243.615 62.5807 243.648 63.1797 243.648C63.5026 243.648 63.9896 243.641 64.6406 243.625C65.2917 243.609 65.7786 243.602 66.1016 243.602C66.2057 243.602 66.3594 243.586 66.5625 243.555C66.7656 243.523 66.9167 243.508 67.0156 243.508C67.3177 243.508 67.5755 243.594 67.7891 243.766C68.0339 243.958 68.1562 244.229 68.1562 244.578C68.1562 245.161 67.8516 245.51 67.2422 245.625C66.7214 245.724 65.6406 245.773 64 245.773C62.3021 245.773 61.1953 245.544 60.6797 245.086C60.112 244.581 59.8281 243.487 59.8281 241.805C59.8281 241.107 59.8776 240.06 59.9766 238.664C60.0807 237.263 60.1328 236.216 60.1328 235.523C60.1328 235.341 60.1068 235.073 60.0547 234.719C60.0026 234.359 59.9766 234.089 59.9766 233.906C59.9766 233.115 60.3411 232.719 61.0703 232.719C61.2995 232.719 61.5104 232.784 61.7031 232.914C62.3073 232.763 62.8802 232.651 63.4219 232.578C63.9688 232.5 64.4844 232.461 64.9688 232.461C66.2812 232.461 67.3307 232.612 68.1172 232.914C68.5964 233.096 68.8359 233.427 68.8359 233.906C68.8359 234.177 68.7422 234.417 68.5547 234.625C68.3464 234.865 68.0807 234.984 67.7578 234.984ZM79.5234 240.406C79.1693 241.958 78.4557 243.201 77.3828 244.133C76.2943 245.07 75.0182 245.539 73.5547 245.539C72.1693 245.539 71.1302 245.174 70.4375 244.445C69.7448 243.711 69.3984 242.612 69.3984 241.148C69.3984 239.815 69.7266 238.448 70.3828 237.047C71.0391 235.646 71.8828 234.51 72.9141 233.641C73.638 233.031 74.4141 232.727 75.2422 232.727C75.7474 232.727 76.4349 232.909 77.3047 233.273C78.3359 233.706 78.8516 234.167 78.8516 234.656C78.8516 234.938 78.7448 235.19 78.5312 235.414C78.3177 235.633 78.0547 235.742 77.7422 235.742C77.5859 235.742 77.2396 235.596 76.7031 235.305C76.1719 235.008 75.6849 234.859 75.2422 234.859C74.7734 234.859 74.1406 235.365 73.3438 236.375C72.1823 237.844 71.6016 239.435 71.6016 241.148C71.6016 242.018 71.7292 242.609 71.9844 242.922C72.2552 243.25 72.7786 243.414 73.5547 243.414C74.3516 243.414 75.0521 243.188 75.6562 242.734C76.2969 242.255 76.7708 241.557 77.0781 240.641C75.8698 240.734 74.8177 240.982 73.9219 241.383C73.7604 241.456 73.599 241.492 73.4375 241.492C73.1146 241.492 72.8464 241.372 72.6328 241.133C72.4401 240.919 72.3438 240.677 72.3438 240.406C72.3438 239.609 73.2865 239.052 75.1719 238.734C76.2344 238.557 77.474 238.469 78.8906 238.469C79.2031 238.469 79.4635 238.57 79.6719 238.773C79.8854 238.977 79.9922 239.227 79.9922 239.523C79.9922 239.904 79.8359 240.198 79.5234 240.406ZM88.7656 245.094C88.4844 245.094 88.2266 244.984 87.9922 244.766C86.4141 243.286 84.6797 242.26 82.7891 241.688C82.8464 243.203 82.875 244.044 82.875 244.211C82.875 244.508 82.7708 244.76 82.5625 244.969C82.3542 245.172 82.0938 245.273 81.7812 245.273C81.4688 245.273 81.2083 245.172 81 244.969C80.7917 244.76 80.6875 244.508 80.6875 244.211C80.6875 243.82 80.6927 243.237 80.7031 242.461C80.7135 241.68 80.7188 241.094 80.7188 240.703L80.7344 234.398C80.7344 234.06 80.8359 233.753 81.0391 233.477C81.3047 233.122 81.6719 232.964 82.1406 233C83.4062 233.094 84.0547 233.143 84.0859 233.148C84.8151 233.237 85.4349 233.411 85.9453 233.672C88.1693 234.792 89.2812 236.18 89.2812 237.836C89.2812 238.518 89.0469 239.122 88.5781 239.648C88.1146 240.169 87.4167 240.609 86.4844 240.969C87.8646 241.74 88.9036 242.526 89.6016 243.328C89.7839 243.536 89.875 243.768 89.875 244.023C89.875 244.315 89.7656 244.568 89.5469 244.781C89.3281 244.99 89.0677 245.094 88.7656 245.094ZM83.7578 235.266C83.7161 235.26 83.4115 235.24 82.8438 235.203V239.352C82.974 239.357 83.0885 239.359 83.1875 239.359C84.4635 239.359 85.4089 239.201 86.0234 238.883C86.2891 238.747 86.5312 238.568 86.75 238.344C86.974 238.12 87.0859 237.951 87.0859 237.836C87.0859 237.253 86.7161 236.69 85.9766 236.148C85.2734 235.638 84.5339 235.344 83.7578 235.266ZM98.8828 234.984C98.7786 234.984 98.6693 234.969 98.5547 234.938C97.7109 234.708 96.8906 234.594 96.0938 234.594C95.7031 234.594 95.2839 234.625 94.8359 234.688C94.388 234.75 93.9115 234.844 93.4062 234.969C93.4062 235.661 93.3828 236.69 93.3359 238.055C93.6276 238.034 94.6458 237.938 96.3906 237.766C97.3854 237.667 98.0156 237.617 98.2812 237.617C98.5885 237.617 98.8516 237.716 99.0703 237.914C99.2891 238.107 99.3984 238.365 99.3984 238.688C99.3984 239.307 99.0677 239.659 98.4062 239.742C97.9896 239.773 97.3672 239.826 96.5391 239.898C95.7995 239.982 94.6849 240.083 93.1953 240.203C93.1589 240.865 93.1406 241.398 93.1406 241.805C93.1406 242.826 93.2005 243.406 93.3203 243.547C93.3776 243.615 93.7057 243.648 94.3047 243.648C94.6276 243.648 95.1146 243.641 95.7656 243.625C96.4167 243.609 96.9036 243.602 97.2266 243.602C97.3307 243.602 97.4844 243.586 97.6875 243.555C97.8906 243.523 98.0417 243.508 98.1406 243.508C98.4427 243.508 98.7005 243.594 98.9141 243.766C99.1589 243.958 99.2812 244.229 99.2812 244.578C99.2812 245.161 98.9766 245.51 98.3672 245.625C97.8464 245.724 96.7656 245.773 95.125 245.773C93.4271 245.773 92.3203 245.544 91.8047 245.086C91.237 244.581 90.9531 243.487 90.9531 241.805C90.9531 241.107 91.0026 240.06 91.1016 238.664C91.2057 237.263 91.2578 236.216 91.2578 235.523C91.2578 235.341 91.2318 235.073 91.1797 234.719C91.1276 234.359 91.1016 234.089 91.1016 233.906C91.1016 233.115 91.4661 232.719 92.1953 232.719C92.4245 232.719 92.6354 232.784 92.8281 232.914C93.4323 232.763 94.0052 232.651 94.5469 232.578C95.0938 232.5 95.6094 232.461 96.0938 232.461C97.4062 232.461 98.4557 232.612 99.2422 232.914C99.7214 233.096 99.9609 233.427 99.9609 233.906C99.9609 234.177 99.8672 234.417 99.6797 234.625C99.4714 234.865 99.2057 234.984 98.8828 234.984ZM102.422 245.078C102.115 245.073 101.857 244.969 101.648 244.766C101.44 244.557 101.336 244.307 101.336 244.016C101.336 243.495 101.359 242.714 101.406 241.672C101.458 240.63 101.484 239.849 101.484 239.328C101.484 238.75 101.471 237.883 101.445 236.727C101.424 235.57 101.414 234.703 101.414 234.125C101.414 233.839 101.552 233.555 101.828 233.273C102.104 232.987 102.398 232.844 102.711 232.844C102.883 232.844 103.315 233.005 104.008 233.328C104.815 233.714 105.294 233.93 105.445 233.977C106.971 234.471 108.273 235.237 109.352 236.273C110.638 237.508 111.281 238.872 111.281 240.367C111.281 241.268 111.06 242.125 110.617 242.938C110.174 243.766 109.568 244.43 108.797 244.93C107.932 245.492 106.716 245.773 105.148 245.773C104.768 245.773 104.331 245.719 103.836 245.609C103.237 245.474 102.766 245.297 102.422 245.078ZM106.812 237.047C106.307 236.729 105.224 236.229 103.562 235.547V243.281C103.766 243.411 103.997 243.51 104.258 243.578C104.523 243.641 104.818 243.672 105.141 243.672C106.266 243.672 107.073 243.516 107.562 243.203C108.026 242.906 108.393 242.503 108.664 241.992C108.94 241.482 109.078 240.951 109.078 240.398C109.078 239.107 108.323 237.99 106.812 237.047ZM117.906 245.477C116.365 245.477 115.052 245.034 113.969 244.148C112.812 243.201 112.234 241.974 112.234 240.469C112.234 238.698 112.789 237.083 113.898 235.625C115.143 233.984 116.711 233.164 118.602 233.164C120.419 233.164 121.781 233.581 122.688 234.414C123.594 235.247 124.047 236.5 124.047 238.172C124.047 239.943 123.536 241.547 122.516 242.984C121.339 244.646 119.802 245.477 117.906 245.477ZM118.602 235.281C117.44 235.281 116.445 235.844 115.617 236.969C114.841 238.021 114.453 239.188 114.453 240.469C114.453 241.333 114.789 242.036 115.461 242.578C116.107 243.099 116.922 243.359 117.906 243.359C119.052 243.359 120.008 242.797 120.773 241.672C121.477 240.646 121.828 239.479 121.828 238.172C121.828 237.078 121.583 236.318 121.094 235.891C120.625 235.484 119.794 235.281 118.602 235.281Z" fill="#E7C428"/>
<circle cx="87" cy="190" r="14" fill="#110E4F"/>
<path d="M91.0498 193.071C91.0498 192.251 91.1494 191.598 91.3486 191.111C91.5479 190.625 91.9111 190.147 92.4385 189.679C92.9717 189.204 93.3262 188.82 93.502 188.527C93.6777 188.229 93.7656 187.915 93.7656 187.587C93.7656 186.597 93.3086 186.102 92.3945 186.102C91.9609 186.102 91.6123 186.236 91.3486 186.506C91.0908 186.77 90.9561 187.136 90.9443 187.604H88.3955C88.4072 186.485 88.7676 185.609 89.4766 184.977C90.1914 184.344 91.1641 184.027 92.3945 184.027C93.6367 184.027 94.6006 184.329 95.2861 184.933C95.9717 185.53 96.3145 186.377 96.3145 187.473C96.3145 187.971 96.2031 188.442 95.9805 188.888C95.7578 189.327 95.3682 189.816 94.8115 190.355L94.0996 191.032C93.6543 191.46 93.3994 191.961 93.335 192.535L93.2998 193.071H91.0498ZM90.7949 195.77C90.7949 195.377 90.9268 195.055 91.1904 194.803C91.46 194.545 91.8027 194.416 92.2188 194.416C92.6348 194.416 92.9746 194.545 93.2383 194.803C93.5078 195.055 93.6426 195.377 93.6426 195.77C93.6426 196.156 93.5107 196.476 93.2471 196.728C92.9893 196.979 92.6465 197.105 92.2188 197.105C91.791 197.105 91.4453 196.979 91.1816 196.728C90.9238 196.476 90.7949 196.156 90.7949 195.77Z" fill="#F7F7F7"/>
<g style="mix-blend-mode:multiply">
<path d="M91.0498 193.071C91.0498 192.251 91.1494 191.598 91.3486 191.111C91.5479 190.625 91.9111 190.147 92.4385 189.679C92.9717 189.204 93.3262 188.82 93.502 188.527C93.6777 188.229 93.7656 187.915 93.7656 187.587C93.7656 186.597 93.3086 186.102 92.3945 186.102C91.9609 186.102 91.6123 186.236 91.3486 186.506C91.0908 186.77 90.9561 187.136 90.9443 187.604H88.3955C88.4072 186.485 88.7676 185.609 89.4766 184.977C90.1914 184.344 91.1641 184.027 92.3945 184.027C93.6367 184.027 94.6006 184.329 95.2861 184.933C95.9717 185.53 96.3145 186.377 96.3145 187.473C96.3145 187.971 96.2031 188.442 95.9805 188.888C95.7578 189.327 95.3682 189.816 94.8115 190.355L94.0996 191.032C93.6543 191.46 93.3994 191.961 93.335 192.535L93.2998 193.071H91.0498ZM90.7949 195.77C90.7949 195.377 90.9268 195.055 91.1904 194.803C91.46 194.545 91.8027 194.416 92.2188 194.416C92.6348 194.416 92.9746 194.545 93.2383 194.803C93.5078 195.055 93.6426 195.377 93.6426 195.77C93.6426 196.156 93.5107 196.476 93.2471 196.728C92.9893 196.979 92.6465 197.105 92.2188 197.105C91.791 197.105 91.4453 196.979 91.1816 196.728C90.9238 196.476 90.7949 196.156 90.7949 195.77Z" fill="#800080" fill-opacity="0.3"/>
</g>
<path d="M79.0498 193.071C79.0498 192.251 79.1494 191.598 79.3486 191.111C79.5479 190.625 79.9111 190.147 80.4385 189.679C80.9717 189.204 81.3262 188.82 81.502 188.527C81.6777 188.229 81.7656 187.915 81.7656 187.587C81.7656 186.597 81.3086 186.102 80.3945 186.102C79.9609 186.102 79.6123 186.236 79.3486 186.506C79.0908 186.77 78.9561 187.136 78.9443 187.604H76.3955C76.4072 186.485 76.7676 185.609 77.4766 184.977C78.1914 184.344 79.1641 184.027 80.3945 184.027C81.6367 184.027 82.6006 184.329 83.2861 184.933C83.9717 185.53 84.3145 186.377 84.3145 187.473C84.3145 187.971 84.2031 188.442 83.9805 188.888C83.7578 189.327 83.3682 189.816 82.8115 190.355L82.0996 191.032C81.6543 191.46 81.3994 191.961 81.335 192.535L81.2998 193.071H79.0498ZM78.7949 195.77C78.7949 195.377 78.9268 195.055 79.1904 194.803C79.46 194.545 79.8027 194.416 80.2188 194.416C80.6348 194.416 80.9746 194.545 81.2383 194.803C81.5078 195.055 81.6426 195.377 81.6426 195.77C81.6426 196.156 81.5107 196.476 81.2471 196.728C80.9893 196.979 80.6465 197.105 80.2188 197.105C79.791 197.105 79.4453 196.979 79.1816 196.728C78.9238 196.476 78.7949 196.156 78.7949 195.77Z" fill="#F7F7F7"/>
<g style="mix-blend-mode:multiply">
<path d="M79.0498 193.071C79.0498 192.251 79.1494 191.598 79.3486 191.111C79.5479 190.625 79.9111 190.147 80.4385 189.679C80.9717 189.204 81.3262 188.82 81.502 188.527C81.6777 188.229 81.7656 187.915 81.7656 187.587C81.7656 186.597 81.3086 186.102 80.3945 186.102C79.9609 186.102 79.6123 186.236 79.3486 186.506C79.0908 186.77 78.9561 187.136 78.9443 187.604H76.3955C76.4072 186.485 76.7676 185.609 77.4766 184.977C78.1914 184.344 79.1641 184.027 80.3945 184.027C81.6367 184.027 82.6006 184.329 83.2861 184.933C83.9717 185.53 84.3145 186.377 84.3145 187.473C84.3145 187.971 84.2031 188.442 83.9805 188.888C83.7578 189.327 83.3682 189.816 82.8115 190.355L82.0996 191.032C81.6543 191.46 81.3994 191.961 81.335 192.535L81.2998 193.071H79.0498ZM78.7949 195.77C78.7949 195.377 78.9268 195.055 79.1904 194.803C79.46 194.545 79.8027 194.416 80.2188 194.416C80.6348 194.416 80.9746 194.545 81.2383 194.803C81.5078 195.055 81.6426 195.377 81.6426 195.77C81.6426 196.156 81.5107 196.476 81.2471 196.728C80.9893 196.979 80.6465 197.105 80.2188 197.105C79.791 197.105 79.4453 196.979 79.1816 196.728C78.9238 196.476 78.7949 196.156 78.7949 195.77Z" fill="#800080" fill-opacity="0.3"/>
</g>
<path d="M85.0498 191.071C85.0498 190.251 85.1494 189.598 85.3486 189.111C85.5479 188.625 85.9111 188.147 86.4385 187.679C86.9717 187.204 87.3262 186.82 87.502 186.527C87.6777 186.229 87.7656 185.915 87.7656 185.587C87.7656 184.597 87.3086 184.102 86.3945 184.102C85.9609 184.102 85.6123 184.236 85.3486 184.506C85.0908 184.77 84.9561 185.136 84.9443 185.604H82.3955C82.4072 184.485 82.7676 183.609 83.4766 182.977C84.1914 182.344 85.1641 182.027 86.3945 182.027C87.6367 182.027 88.6006 182.329 89.2861 182.933C89.9717 183.53 90.3145 184.377 90.3145 185.473C90.3145 185.971 90.2031 186.442 89.9805 186.888C89.7578 187.327 89.3682 187.816 88.8115 188.355L88.0996 189.032C87.6543 189.46 87.3994 189.961 87.335 190.535L87.2998 191.071H85.0498ZM84.7949 193.77C84.7949 193.377 84.9268 193.055 85.1904 192.803C85.46 192.545 85.8027 192.416 86.2188 192.416C86.6348 192.416 86.9746 192.545 87.2383 192.803C87.5078 193.055 87.6426 193.377 87.6426 193.77C87.6426 194.156 87.5107 194.476 87.2471 194.728C86.9893 194.979 86.6465 195.105 86.2188 195.105C85.791 195.105 85.4453 194.979 85.1816 194.728C84.9238 194.476 84.7949 194.156 84.7949 193.77Z" fill="#F7F7F7"/>
<g style="mix-blend-mode:multiply">
<rect x="46" y="275" width="82" height="105" rx="5" fill="#800080" fill-opacity="0.6"/>
</g>
<g style="mix-blend-mode:multiply">
<rect x="46" y="354" width="82" height="19" fill="#800080" fill-opacity="0.6"/>
</g>
<path d="M52.4609 370.477C51.138 370.477 50.0964 370.182 49.3359 369.594C48.6953 369.104 48.375 368.539 48.375 367.898C48.375 367.57 48.474 367.299 48.6719 367.086C48.8698 366.867 49.1432 366.758 49.4922 366.758C49.9609 366.758 50.3047 366.997 50.5234 367.477C50.8203 368.117 51.4922 368.438 52.5391 368.438C53.4349 368.438 54.3021 368.242 55.1406 367.852C56.0104 367.451 56.4453 367.01 56.4453 366.531C56.4453 365.875 56.1745 365.443 55.6328 365.234C55.2474 365.083 54.474 364.995 53.3125 364.969C52.4115 364.948 51.6042 364.779 50.8906 364.461C49.9271 364.029 49.4531 363.409 49.4688 362.602C49.4844 361.586 50.026 360.656 51.0938 359.812C52.1615 358.964 53.3385 358.539 54.625 358.539C55.1354 358.539 55.7656 358.656 56.5156 358.891C57.4479 359.182 57.9141 359.518 57.9141 359.898C57.9141 360.169 57.8203 360.409 57.6328 360.617C57.4245 360.852 57.1562 360.969 56.8281 360.969C56.5833 360.969 56.2161 360.917 55.7266 360.812C55.2422 360.708 54.875 360.656 54.625 360.656C53.9531 360.661 53.3151 360.823 52.7109 361.141C52.0859 361.464 51.7734 361.815 51.7734 362.195C51.7734 362.393 51.8672 362.557 52.0547 362.688C52.2474 362.812 52.5339 362.901 52.9141 362.953C53.5807 362.99 54.2448 363.026 54.9062 363.062C56.0625 363.151 56.9766 363.477 57.6484 364.039C58.388 364.664 58.7578 365.529 58.7578 366.633C58.7578 367.977 57.9922 368.995 56.4609 369.688C55.2943 370.214 53.9609 370.477 52.4609 370.477ZM67.7578 359.984C67.6536 359.984 67.5443 359.969 67.4297 359.938C66.5859 359.708 65.7656 359.594 64.9688 359.594C64.5781 359.594 64.1589 359.625 63.7109 359.688C63.263 359.75 62.7865 359.844 62.2812 359.969C62.2812 360.661 62.2578 361.69 62.2109 363.055C62.5026 363.034 63.5208 362.938 65.2656 362.766C66.2604 362.667 66.8906 362.617 67.1562 362.617C67.4635 362.617 67.7266 362.716 67.9453 362.914C68.1641 363.107 68.2734 363.365 68.2734 363.688C68.2734 364.307 67.9427 364.659 67.2812 364.742C66.8646 364.773 66.2422 364.826 65.4141 364.898C64.6745 364.982 63.5599 365.083 62.0703 365.203C62.0339 365.865 62.0156 366.398 62.0156 366.805C62.0156 367.826 62.0755 368.406 62.1953 368.547C62.2526 368.615 62.5807 368.648 63.1797 368.648C63.5026 368.648 63.9896 368.641 64.6406 368.625C65.2917 368.609 65.7786 368.602 66.1016 368.602C66.2057 368.602 66.3594 368.586 66.5625 368.555C66.7656 368.523 66.9167 368.508 67.0156 368.508C67.3177 368.508 67.5755 368.594 67.7891 368.766C68.0339 368.958 68.1562 369.229 68.1562 369.578C68.1562 370.161 67.8516 370.51 67.2422 370.625C66.7214 370.724 65.6406 370.773 64 370.773C62.3021 370.773 61.1953 370.544 60.6797 370.086C60.112 369.581 59.8281 368.487 59.8281 366.805C59.8281 366.107 59.8776 365.06 59.9766 363.664C60.0807 362.263 60.1328 361.216 60.1328 360.523C60.1328 360.341 60.1068 360.073 60.0547 359.719C60.0026 359.359 59.9766 359.089 59.9766 358.906C59.9766 358.115 60.3411 357.719 61.0703 357.719C61.2995 357.719 61.5104 357.784 61.7031 357.914C62.3073 357.763 62.8802 357.651 63.4219 357.578C63.9688 357.5 64.4844 357.461 64.9688 357.461C66.2812 357.461 67.3307 357.612 68.1172 357.914C68.5964 358.096 68.8359 358.427 68.8359 358.906C68.8359 359.177 68.7422 359.417 68.5547 359.625C68.3464 359.865 68.0807 359.984 67.7578 359.984ZM79.5234 365.406C79.1693 366.958 78.4557 368.201 77.3828 369.133C76.2943 370.07 75.0182 370.539 73.5547 370.539C72.1693 370.539 71.1302 370.174 70.4375 369.445C69.7448 368.711 69.3984 367.612 69.3984 366.148C69.3984 364.815 69.7266 363.448 70.3828 362.047C71.0391 360.646 71.8828 359.51 72.9141 358.641C73.638 358.031 74.4141 357.727 75.2422 357.727C75.7474 357.727 76.4349 357.909 77.3047 358.273C78.3359 358.706 78.8516 359.167 78.8516 359.656C78.8516 359.938 78.7448 360.19 78.5312 360.414C78.3177 360.633 78.0547 360.742 77.7422 360.742C77.5859 360.742 77.2396 360.596 76.7031 360.305C76.1719 360.008 75.6849 359.859 75.2422 359.859C74.7734 359.859 74.1406 360.365 73.3438 361.375C72.1823 362.844 71.6016 364.435 71.6016 366.148C71.6016 367.018 71.7292 367.609 71.9844 367.922C72.2552 368.25 72.7786 368.414 73.5547 368.414C74.3516 368.414 75.0521 368.188 75.6562 367.734C76.2969 367.255 76.7708 366.557 77.0781 365.641C75.8698 365.734 74.8177 365.982 73.9219 366.383C73.7604 366.456 73.599 366.492 73.4375 366.492C73.1146 366.492 72.8464 366.372 72.6328 366.133C72.4401 365.919 72.3438 365.677 72.3438 365.406C72.3438 364.609 73.2865 364.052 75.1719 363.734C76.2344 363.557 77.474 363.469 78.8906 363.469C79.2031 363.469 79.4635 363.57 79.6719 363.773C79.8854 363.977 79.9922 364.227 79.9922 364.523C79.9922 364.904 79.8359 365.198 79.5234 365.406ZM88.7656 370.094C88.4844 370.094 88.2266 369.984 87.9922 369.766C86.4141 368.286 84.6797 367.26 82.7891 366.688C82.8464 368.203 82.875 369.044 82.875 369.211C82.875 369.508 82.7708 369.76 82.5625 369.969C82.3542 370.172 82.0938 370.273 81.7812 370.273C81.4688 370.273 81.2083 370.172 81 369.969C80.7917 369.76 80.6875 369.508 80.6875 369.211C80.6875 368.82 80.6927 368.237 80.7031 367.461C80.7135 366.68 80.7188 366.094 80.7188 365.703L80.7344 359.398C80.7344 359.06 80.8359 358.753 81.0391 358.477C81.3047 358.122 81.6719 357.964 82.1406 358C83.4062 358.094 84.0547 358.143 84.0859 358.148C84.8151 358.237 85.4349 358.411 85.9453 358.672C88.1693 359.792 89.2812 361.18 89.2812 362.836C89.2812 363.518 89.0469 364.122 88.5781 364.648C88.1146 365.169 87.4167 365.609 86.4844 365.969C87.8646 366.74 88.9036 367.526 89.6016 368.328C89.7839 368.536 89.875 368.768 89.875 369.023C89.875 369.315 89.7656 369.568 89.5469 369.781C89.3281 369.99 89.0677 370.094 88.7656 370.094ZM83.7578 360.266C83.7161 360.26 83.4115 360.24 82.8438 360.203V364.352C82.974 364.357 83.0885 364.359 83.1875 364.359C84.4635 364.359 85.4089 364.201 86.0234 363.883C86.2891 363.747 86.5312 363.568 86.75 363.344C86.974 363.12 87.0859 362.951 87.0859 362.836C87.0859 362.253 86.7161 361.69 85.9766 361.148C85.2734 360.638 84.5339 360.344 83.7578 360.266ZM98.8828 359.984C98.7786 359.984 98.6693 359.969 98.5547 359.938C97.7109 359.708 96.8906 359.594 96.0938 359.594C95.7031 359.594 95.2839 359.625 94.8359 359.688C94.388 359.75 93.9115 359.844 93.4062 359.969C93.4062 360.661 93.3828 361.69 93.3359 363.055C93.6276 363.034 94.6458 362.938 96.3906 362.766C97.3854 362.667 98.0156 362.617 98.2812 362.617C98.5885 362.617 98.8516 362.716 99.0703 362.914C99.2891 363.107 99.3984 363.365 99.3984 363.688C99.3984 364.307 99.0677 364.659 98.4062 364.742C97.9896 364.773 97.3672 364.826 96.5391 364.898C95.7995 364.982 94.6849 365.083 93.1953 365.203C93.1589 365.865 93.1406 366.398 93.1406 366.805C93.1406 367.826 93.2005 368.406 93.3203 368.547C93.3776 368.615 93.7057 368.648 94.3047 368.648C94.6276 368.648 95.1146 368.641 95.7656 368.625C96.4167 368.609 96.9036 368.602 97.2266 368.602C97.3307 368.602 97.4844 368.586 97.6875 368.555C97.8906 368.523 98.0417 368.508 98.1406 368.508C98.4427 368.508 98.7005 368.594 98.9141 368.766C99.1589 368.958 99.2812 369.229 99.2812 369.578C99.2812 370.161 98.9766 370.51 98.3672 370.625C97.8464 370.724 96.7656 370.773 95.125 370.773C93.4271 370.773 92.3203 370.544 91.8047 370.086C91.237 369.581 90.9531 368.487 90.9531 366.805C90.9531 366.107 91.0026 365.06 91.1016 363.664C91.2057 362.263 91.2578 361.216 91.2578 360.523C91.2578 360.341 91.2318 360.073 91.1797 359.719C91.1276 359.359 91.1016 359.089 91.1016 358.906C91.1016 358.115 91.4661 357.719 92.1953 357.719C92.4245 357.719 92.6354 357.784 92.8281 357.914C93.4323 357.763 94.0052 357.651 94.5469 357.578C95.0938 357.5 95.6094 357.461 96.0938 357.461C97.4062 357.461 98.4557 357.612 99.2422 357.914C99.7214 358.096 99.9609 358.427 99.9609 358.906C99.9609 359.177 99.8672 359.417 99.6797 359.625C99.4714 359.865 99.2057 359.984 98.8828 359.984ZM102.422 370.078C102.115 370.073 101.857 369.969 101.648 369.766C101.44 369.557 101.336 369.307 101.336 369.016C101.336 368.495 101.359 367.714 101.406 366.672C101.458 365.63 101.484 364.849 101.484 364.328C101.484 363.75 101.471 362.883 101.445 361.727C101.424 360.57 101.414 359.703 101.414 359.125C101.414 358.839 101.552 358.555 101.828 358.273C102.104 357.987 102.398 357.844 102.711 357.844C102.883 357.844 103.315 358.005 104.008 358.328C104.815 358.714 105.294 358.93 105.445 358.977C106.971 359.471 108.273 360.237 109.352 361.273C110.638 362.508 111.281 363.872 111.281 365.367C111.281 366.268 111.06 367.125 110.617 367.938C110.174 368.766 109.568 369.43 108.797 369.93C107.932 370.492 106.716 370.773 105.148 370.773C104.768 370.773 104.331 370.719 103.836 370.609C103.237 370.474 102.766 370.297 102.422 370.078ZM106.812 362.047C106.307 361.729 105.224 361.229 103.562 360.547V368.281C103.766 368.411 103.997 368.51 104.258 368.578C104.523 368.641 104.818 368.672 105.141 368.672C106.266 368.672 107.073 368.516 107.562 368.203C108.026 367.906 108.393 367.503 108.664 366.992C108.94 366.482 109.078 365.951 109.078 365.398C109.078 364.107 108.323 362.99 106.812 362.047ZM117.906 370.477C116.365 370.477 115.052 370.034 113.969 369.148C112.812 368.201 112.234 366.974 112.234 365.469C112.234 363.698 112.789 362.083 113.898 360.625C115.143 358.984 116.711 358.164 118.602 358.164C120.419 358.164 121.781 358.581 122.688 359.414C123.594 360.247 124.047 361.5 124.047 363.172C124.047 364.943 123.536 366.547 122.516 367.984C121.339 369.646 119.802 370.477 117.906 370.477ZM118.602 360.281C117.44 360.281 116.445 360.844 115.617 361.969C114.841 363.021 114.453 364.188 114.453 365.469C114.453 366.333 114.789 367.036 115.461 367.578C116.107 368.099 116.922 368.359 117.906 368.359C119.052 368.359 120.008 367.797 120.773 366.672C121.477 365.646 121.828 364.479 121.828 363.172C121.828 362.078 121.583 361.318 121.094 360.891C120.625 360.484 119.794 360.281 118.602 360.281Z" fill="#E7C428"/>
<circle cx="87" cy="315" r="14" fill="#110E4F"/>
<path d="M91.0498 318.071C91.0498 317.251 91.1494 316.598 91.3486 316.111C91.5479 315.625 91.9111 315.147 92.4385 314.679C92.9717 314.204 93.3262 313.82 93.502 313.527C93.6777 313.229 93.7656 312.915 93.7656 312.587C93.7656 311.597 93.3086 311.102 92.3945 311.102C91.9609 311.102 91.6123 311.236 91.3486 311.506C91.0908 311.77 90.9561 312.136 90.9443 312.604H88.3955C88.4072 311.485 88.7676 310.609 89.4766 309.977C90.1914 309.344 91.1641 309.027 92.3945 309.027C93.6367 309.027 94.6006 309.329 95.2861 309.933C95.9717 310.53 96.3145 311.377 96.3145 312.473C96.3145 312.971 96.2031 313.442 95.9805 313.888C95.7578 314.327 95.3682 314.816 94.8115 315.355L94.0996 316.032C93.6543 316.46 93.3994 316.961 93.335 317.535L93.2998 318.071H91.0498ZM90.7949 320.77C90.7949 320.377 90.9268 320.055 91.1904 319.803C91.46 319.545 91.8027 319.416 92.2188 319.416C92.6348 319.416 92.9746 319.545 93.2383 319.803C93.5078 320.055 93.6426 320.377 93.6426 320.77C93.6426 321.156 93.5107 321.476 93.2471 321.728C92.9893 321.979 92.6465 322.105 92.2188 322.105C91.791 322.105 91.4453 321.979 91.1816 321.728C90.9238 321.476 90.7949 321.156 90.7949 320.77Z" fill="#F7F7F7"/>
<g style="mix-blend-mode:multiply">
<path d="M91.0498 318.071C91.0498 317.251 91.1494 316.598 91.3486 316.111C91.5479 315.625 91.9111 315.147 92.4385 314.679C92.9717 314.204 93.3262 313.82 93.502 313.527C93.6777 313.229 93.7656 312.915 93.7656 312.587C93.7656 311.597 93.3086 311.102 92.3945 311.102C91.9609 311.102 91.6123 311.236 91.3486 311.506C91.0908 311.77 90.9561 312.136 90.9443 312.604H88.3955C88.4072 311.485 88.7676 310.609 89.4766 309.977C90.1914 309.344 91.1641 309.027 92.3945 309.027C93.6367 309.027 94.6006 309.329 95.2861 309.933C95.9717 310.53 96.3145 311.377 96.3145 312.473C96.3145 312.971 96.2031 313.442 95.9805 313.888C95.7578 314.327 95.3682 314.816 94.8115 315.355L94.0996 316.032C93.6543 316.46 93.3994 316.961 93.335 317.535L93.2998 318.071H91.0498ZM90.7949 320.77C90.7949 320.377 90.9268 320.055 91.1904 319.803C91.46 319.545 91.8027 319.416 92.2188 319.416C92.6348 319.416 92.9746 319.545 93.2383 319.803C93.5078 320.055 93.6426 320.377 93.6426 320.77C93.6426 321.156 93.5107 321.476 93.2471 321.728C92.9893 321.979 92.6465 322.105 92.2188 322.105C91.791 322.105 91.4453 321.979 91.1816 321.728C90.9238 321.476 90.7949 321.156 90.7949 320.77Z" fill="#800080" fill-opacity="0.3"/>
</g>
<path d="M79.0498 318.071C79.0498 317.251 79.1494 316.598 79.3486 316.111C79.5479 315.625 79.9111 315.147 80.4385 314.679C80.9717 314.204 81.3262 313.82 81.502 313.527C81.6777 313.229 81.7656 312.915 81.7656 312.587C81.7656 311.597 81.3086 311.102 80.3945 311.102C79.9609 311.102 79.6123 311.236 79.3486 311.506C79.0908 311.77 78.9561 312.136 78.9443 312.604H76.3955C76.4072 311.485 76.7676 310.609 77.4766 309.977C78.1914 309.344 79.1641 309.027 80.3945 309.027C81.6367 309.027 82.6006 309.329 83.2861 309.933C83.9717 310.53 84.3145 311.377 84.3145 312.473C84.3145 312.971 84.2031 313.442 83.9805 313.888C83.7578 314.327 83.3682 314.816 82.8115 315.355L82.0996 316.032C81.6543 316.46 81.3994 316.961 81.335 317.535L81.2998 318.071H79.0498ZM78.7949 320.77C78.7949 320.377 78.9268 320.055 79.1904 319.803C79.46 319.545 79.8027 319.416 80.2188 319.416C80.6348 319.416 80.9746 319.545 81.2383 319.803C81.5078 320.055 81.6426 320.377 81.6426 320.77C81.6426 321.156 81.5107 321.476 81.2471 321.728C80.9893 321.979 80.6465 322.105 80.2188 322.105C79.791 322.105 79.4453 321.979 79.1816 321.728C78.9238 321.476 78.7949 321.156 78.7949 320.77Z" fill="#F7F7F7"/>
<g style="mix-blend-mode:multiply">
<path d="M79.0498 318.071C79.0498 317.251 79.1494 316.598 79.3486 316.111C79.5479 315.625 79.9111 315.147 80.4385 314.679C80.9717 314.204 81.3262 313.82 81.502 313.527C81.6777 313.229 81.7656 312.915 81.7656 312.587C81.7656 311.597 81.3086 311.102 80.3945 311.102C79.9609 311.102 79.6123 311.236 79.3486 311.506C79.0908 311.77 78.9561 312.136 78.9443 312.604H76.3955C76.4072 311.485 76.7676 310.609 77.4766 309.977C78.1914 309.344 79.1641 309.027 80.3945 309.027C81.6367 309.027 82.6006 309.329 83.2861 309.933C83.9717 310.53 84.3145 311.377 84.3145 312.473C84.3145 312.971 84.2031 313.442 83.9805 313.888C83.7578 314.327 83.3682 314.816 82.8115 315.355L82.0996 316.032C81.6543 316.46 81.3994 316.961 81.335 317.535L81.2998 318.071H79.0498ZM78.7949 320.77C78.7949 320.377 78.9268 320.055 79.1904 319.803C79.46 319.545 79.8027 319.416 80.2188 319.416C80.6348 319.416 80.9746 319.545 81.2383 319.803C81.5078 320.055 81.6426 320.377 81.6426 320.77C81.6426 321.156 81.5107 321.476 81.2471 321.728C80.9893 321.979 80.6465 322.105 80.2188 322.105C79.791 322.105 79.4453 321.979 79.1816 321.728C78.9238 321.476 78.7949 321.156 78.7949 320.77Z" fill="#800080" fill-opacity="0.3"/>
</g>
<path d="M85.0498 316.071C85.0498 315.251 85.1494 314.598 85.3486 314.111C85.5479 313.625 85.9111 313.147 86.4385 312.679C86.9717 312.204 87.3262 311.82 87.502 311.527C87.6777 311.229 87.7656 310.915 87.7656 310.587C87.7656 309.597 87.3086 309.102 86.3945 309.102C85.9609 309.102 85.6123 309.236 85.3486 309.506C85.0908 309.77 84.9561 310.136 84.9443 310.604H82.3955C82.4072 309.485 82.7676 308.609 83.4766 307.977C84.1914 307.344 85.1641 307.027 86.3945 307.027C87.6367 307.027 88.6006 307.329 89.2861 307.933C89.9717 308.53 90.3145 309.377 90.3145 310.473C90.3145 310.971 90.2031 311.442 89.9805 311.888C89.7578 312.327 89.3682 312.816 88.8115 313.355L88.0996 314.032C87.6543 314.46 87.3994 314.961 87.335 315.535L87.2998 316.071H85.0498ZM84.7949 318.77C84.7949 318.377 84.9268 318.055 85.1904 317.803C85.46 317.545 85.8027 317.416 86.2188 317.416C86.6348 317.416 86.9746 317.545 87.2383 317.803C87.5078 318.055 87.6426 318.377 87.6426 318.77C87.6426 319.156 87.5107 319.476 87.2471 319.728C86.9893 319.979 86.6465 320.105 86.2188 320.105C85.791 320.105 85.4453 319.979 85.1816 319.728C84.9238 319.476 84.7949 319.156 84.7949 318.77Z" fill="#F7F7F7"/>
<defs>
<filter id="filter0_d_435_43" x="0" y="0" width="184" height="507" filterUnits="userSpaceOnUse" color-interpolation-filters="sRGB">
<feFlood flood-opacity="0" result="BackgroundImageFix"/>
<feColorMatrix in="SourceAlpha" type="matrix" values="0 0 0 0 0 0 0 0 0 0 0 0 0 0 0 0 0 0 127 0" result="hardAlpha"/>
<feOffset dx="5" dy="5"/>
<feGaussianBlur stdDeviation="5"/>
<feColorMatrix type="matrix" values="0 0 0 0 0 0 0 0 0 0 0 0 0 0 0 0 0 0 0.25 0"/>
<feBlend mode="normal" in2="BackgroundImageFix" result="effect1_dropShadow_435_43"/>
<feBlend mode="normal" in="SourceGraphic" in2="effect1_dropShadow_435_43" result="shape"/>
</filter>
</defs>
</svg>
