<svg width="109" height="16" viewBox="0 0 109 16" fill="none" xmlns="http://www.w3.org/2000/svg">
<path d="M9.70312 5.63965C9.17578 5.63965 8.78613 5.36133 8.53418 4.80469C8.41699 4.54102 8.2998 4.38281 8.18262 4.33008C8.09473 4.28906 7.86328 4.26855 7.48828 4.26855C6.75 4.26855 5.89746 4.84277 4.93066 5.99121C3.57715 7.59668 2.90039 9.09961 2.90039 10.5C2.90039 11.1387 3.11426 11.6865 3.54199 12.1436C3.96973 12.6006 4.48242 12.8291 5.08008 12.8291C5.66016 12.8291 6.24902 12.6768 6.84668 12.3721C7.05762 12.2607 7.50293 11.9736 8.18262 11.5107C8.63965 11.2061 8.98535 11.0537 9.21973 11.0537C9.57129 11.0537 9.87012 11.1826 10.1162 11.4404C10.3447 11.6807 10.459 11.9561 10.459 12.2666C10.459 12.6123 10.3066 12.9141 10.002 13.1719C8.39062 14.5312 6.75 15.2109 5.08008 15.2109C3.76172 15.2109 2.64844 14.7305 1.74023 13.7695C0.873047 12.8438 0.439453 11.7539 0.439453 10.5C0.439453 8.53711 1.29785 6.5332 3.01465 4.48828C4.47363 2.75391 5.96484 1.88672 7.48828 1.88672C7.74609 1.88672 7.97754 1.89551 8.18262 1.91309C8.39355 1.93066 8.57812 1.95703 8.73633 1.99219C8.99414 1.74023 9.30469 1.61426 9.66797 1.61426C10.2656 1.61426 10.6348 1.95703 10.7754 2.64258C10.875 3.13477 10.9248 3.70898 10.9248 4.36523C10.9248 4.6582 10.8398 4.9248 10.6699 5.16504C10.4473 5.48145 10.125 5.63965 9.70312 5.63965ZM22.1309 15.2637C21.668 15.2461 21.2021 14.7012 20.7334 13.6289C20.4229 12.9375 20.1562 12.1406 19.9336 11.2383C19.5 11.3027 18.791 11.3672 17.8066 11.4316C16.8809 11.4961 16.1719 11.5723 15.6797 11.6602C15.4102 12.3047 14.9414 13.2744 14.2734 14.5693C14.0156 14.9912 13.6582 15.2021 13.2012 15.2021C12.8789 15.2021 12.5889 15.0938 12.3311 14.877C12.0732 14.6543 11.9443 14.373 11.9443 14.0332C11.9443 13.7344 12.3721 12.7207 13.2275 10.9922C13.1455 10.8105 13.1104 10.6406 13.1221 10.4824C13.1455 10.2012 13.4297 9.98145 13.9746 9.82324C14.8066 8.38184 15.7324 6.8877 16.752 5.34082C18.2168 3.12012 19.1191 2.00977 19.459 2.00977C20.1035 2.00977 20.5342 2.39941 20.751 3.17871C20.8682 3.80566 21.0527 4.74609 21.3047 6C21.6621 7.6875 22.0986 9.61816 22.6143 11.792C22.6553 11.9561 22.8047 12.3428 23.0625 12.9521C23.2734 13.4561 23.3789 13.834 23.3789 14.0859C23.3789 14.4258 23.25 14.71 22.9922 14.9385C22.7402 15.167 22.4531 15.2754 22.1309 15.2637ZM18.8525 6.24609C18.3955 7.03125 17.7656 8.10059 16.9629 9.4541C17.2266 9.39551 17.6367 9.34863 18.1934 9.31348C18.8496 9.27246 19.2627 9.24023 19.4326 9.2168C19.292 8.45508 19.0986 7.46484 18.8525 6.24609ZM35.7012 4.46191C35.2441 4.46191 34.5322 4.42969 33.5654 4.36523C32.6338 4.30078 31.9219 4.27148 31.4297 4.27734C31.4531 4.94531 31.5322 6.13477 31.667 7.8457C31.79 9.35742 31.8516 10.5527 31.8516 11.4316C31.8516 11.6309 31.8721 11.9268 31.9131 12.3193C31.9541 12.7119 31.9746 13.0078 31.9746 13.207C31.9746 13.6465 31.8809 14.042 31.6934 14.3936C31.4531 14.8447 31.1104 15.0703 30.665 15.0703C30.3428 15.0703 30.0586 14.9678 29.8125 14.7627C29.5371 14.5342 29.3994 14.2471 29.3994 13.9014C29.3994 13.8193 29.4141 13.6963 29.4434 13.5322C29.4727 13.3623 29.4873 13.2334 29.4873 13.1455C29.4873 12.876 29.4668 12.4688 29.4258 11.9238C29.3906 11.3789 29.373 10.9688 29.373 10.6934C29.373 9.9082 29.3115 8.84473 29.1885 7.50293C29.0479 5.96191 28.9658 4.89844 28.9424 4.3125H28.4854C27.1787 4.3125 26.1416 4.21875 25.374 4.03125C24.7236 3.87305 24.3984 3.48926 24.3984 2.87988C24.3984 2.58105 24.5039 2.31152 24.7148 2.07129C24.9609 1.78418 25.2832 1.65527 25.6816 1.68457C25.8867 1.69629 26.3525 1.74609 27.0791 1.83398C27.6592 1.89844 28.1279 1.93066 28.4854 1.93066C28.8428 1.93066 29.376 1.9248 30.085 1.91309C30.7998 1.90137 31.3359 1.89551 31.6934 1.89551C32.1387 1.89551 32.8066 1.92773 33.6973 1.99219C34.5879 2.05078 35.2559 2.08008 35.7012 2.08008C36.0527 2.08008 36.3457 2.19434 36.5801 2.42285C36.8203 2.65137 36.9404 2.93262 36.9404 3.2666C36.9404 3.60059 36.8203 3.88477 36.5801 4.11914C36.3457 4.34766 36.0527 4.46191 35.7012 4.46191ZM46.5908 3.73242C46.4736 3.73242 46.3506 3.71484 46.2217 3.67969C45.2725 3.42188 44.3496 3.29297 43.4531 3.29297C43.0137 3.29297 42.542 3.32812 42.0381 3.39844C41.5342 3.46875 40.998 3.57422 40.4297 3.71484C40.4297 4.49414 40.4033 5.65137 40.3506 7.18652C40.6787 7.16309 41.8242 7.05469 43.7871 6.86133C44.9062 6.75 45.6152 6.69434 45.9141 6.69434C46.2598 6.69434 46.5557 6.80566 46.8018 7.02832C47.0479 7.24512 47.1709 7.53516 47.1709 7.89844C47.1709 8.5957 46.7988 8.99121 46.0547 9.08496C45.5859 9.12012 44.8857 9.17871 43.9541 9.26074C43.1221 9.35449 41.8682 9.46875 40.1924 9.60352C40.1514 10.3477 40.1309 10.9482 40.1309 11.4053C40.1309 12.5537 40.1982 13.207 40.333 13.3652C40.3975 13.4414 40.7666 13.4795 41.4404 13.4795C41.8037 13.4795 42.3516 13.4707 43.084 13.4531C43.8164 13.4355 44.3643 13.4268 44.7275 13.4268C44.8447 13.4268 45.0176 13.4092 45.2461 13.374C45.4746 13.3389 45.6445 13.3213 45.7559 13.3213C46.0957 13.3213 46.3857 13.418 46.626 13.6113C46.9014 13.8281 47.0391 14.1328 47.0391 14.5254C47.0391 15.1816 46.6963 15.5742 46.0107 15.7031C45.4248 15.8145 44.209 15.8701 42.3633 15.8701C40.4531 15.8701 39.208 15.6123 38.6279 15.0967C37.9893 14.5283 37.6699 13.2979 37.6699 11.4053C37.6699 10.6201 37.7256 9.44238 37.8369 7.87207C37.9541 6.2959 38.0127 5.11816 38.0127 4.33887C38.0127 4.13379 37.9834 3.83203 37.9248 3.43359C37.8662 3.0293 37.8369 2.72461 37.8369 2.51953C37.8369 1.62891 38.2471 1.18359 39.0674 1.18359C39.3252 1.18359 39.5625 1.25684 39.7793 1.40332C40.459 1.2334 41.1035 1.10742 41.7129 1.02539C42.3281 0.9375 42.9082 0.893555 43.4531 0.893555C44.9297 0.893555 46.1104 1.06348 46.9951 1.40332C47.5342 1.6084 47.8037 1.98047 47.8037 2.51953C47.8037 2.82422 47.6982 3.09375 47.4873 3.32812C47.2529 3.59766 46.9541 3.73242 46.5908 3.73242ZM59.8271 9.83203C59.4287 11.5781 58.626 12.9756 57.4189 14.0244C56.1943 15.0791 54.7588 15.6064 53.1123 15.6064C51.5537 15.6064 50.3848 15.1963 49.6055 14.376C48.8262 13.5498 48.4365 12.3135 48.4365 10.667C48.4365 9.16699 48.8057 7.62891 49.5439 6.05273C50.2822 4.47656 51.2314 3.19922 52.3916 2.2207C53.2061 1.53516 54.0791 1.19238 55.0107 1.19238C55.5791 1.19238 56.3525 1.39746 57.3311 1.80762C58.4912 2.29395 59.0713 2.8125 59.0713 3.36328C59.0713 3.67969 58.9512 3.96387 58.7109 4.21582C58.4707 4.46191 58.1748 4.58496 57.8232 4.58496C57.6475 4.58496 57.2578 4.4209 56.6543 4.09277C56.0566 3.75879 55.5088 3.5918 55.0107 3.5918C54.4834 3.5918 53.7715 4.16016 52.875 5.29688C51.5684 6.94922 50.915 8.73926 50.915 10.667C50.915 11.6455 51.0586 12.3105 51.3457 12.6621C51.6504 13.0312 52.2393 13.2158 53.1123 13.2158C54.0088 13.2158 54.7969 12.9609 55.4766 12.4512C56.1973 11.9121 56.7305 11.127 57.0762 10.0957C55.7168 10.2012 54.5332 10.4795 53.5254 10.9307C53.3438 11.0127 53.1621 11.0537 52.9805 11.0537C52.6172 11.0537 52.3154 10.9189 52.0752 10.6494C51.8584 10.4092 51.75 10.1367 51.75 9.83203C51.75 8.93555 52.8105 8.30859 54.9316 7.95117C56.127 7.75195 57.5215 7.65234 59.1152 7.65234C59.4668 7.65234 59.7598 7.7666 59.9941 7.99512C60.2344 8.22363 60.3545 8.50488 60.3545 8.83887C60.3545 9.2666 60.1787 9.59766 59.8271 9.83203ZM67.2363 15.5361C65.502 15.5361 64.0254 15.0381 62.8066 14.042C61.5059 12.9756 60.8555 11.5957 60.8555 9.90234C60.8555 7.91016 61.4795 6.09375 62.7275 4.45312C64.1279 2.60742 65.8916 1.68457 68.0186 1.68457C70.0635 1.68457 71.5957 2.15332 72.6152 3.09082C73.6348 4.02832 74.1445 5.4375 74.1445 7.31836C74.1445 9.31055 73.5703 11.1152 72.4219 12.7324C71.0977 14.6016 69.3691 15.5361 67.2363 15.5361ZM68.0186 4.06641C66.7119 4.06641 65.5928 4.69922 64.6611 5.96484C63.7881 7.14844 63.3516 8.46094 63.3516 9.90234C63.3516 10.875 63.7295 11.666 64.4854 12.2754C65.2119 12.8613 66.1289 13.1543 67.2363 13.1543C68.5254 13.1543 69.6006 12.5215 70.4619 11.2559C71.2529 10.1016 71.6484 8.78906 71.6484 7.31836C71.6484 6.08789 71.373 5.23242 70.8223 4.75195C70.2949 4.29492 69.3604 4.06641 68.0186 4.06641ZM84.6035 15.1055C84.2871 15.1055 83.9971 14.9824 83.7334 14.7363C81.958 13.0723 80.0068 11.918 77.8799 11.2734C77.9443 12.9785 77.9766 13.9248 77.9766 14.1123C77.9766 14.4463 77.8594 14.7305 77.625 14.9648C77.3906 15.1934 77.0977 15.3076 76.7461 15.3076C76.3945 15.3076 76.1016 15.1934 75.8672 14.9648C75.6328 14.7305 75.5156 14.4463 75.5156 14.1123C75.5156 13.6729 75.5215 13.0166 75.5332 12.1436C75.5449 11.2646 75.5508 10.6055 75.5508 10.166L75.5684 3.07324C75.5684 2.69238 75.6826 2.34668 75.9111 2.03613C76.21 1.6377 76.623 1.45898 77.1504 1.5C78.5742 1.60547 79.3037 1.66113 79.3389 1.66699C80.1592 1.7666 80.8564 1.96289 81.4307 2.25586C83.9326 3.51562 85.1836 5.07715 85.1836 6.94043C85.1836 7.70801 84.9199 8.3877 84.3926 8.97949C83.8711 9.56543 83.0859 10.0605 82.0371 10.4648C83.5898 11.332 84.7588 12.2168 85.5439 13.1191C85.749 13.3535 85.8516 13.6143 85.8516 13.9014C85.8516 14.2295 85.7285 14.5137 85.4824 14.7539C85.2363 14.9883 84.9434 15.1055 84.6035 15.1055ZM78.9697 4.04883C78.9229 4.04297 78.5801 4.01953 77.9414 3.97852V8.64551C78.0879 8.65137 78.2168 8.6543 78.3281 8.6543C79.7637 8.6543 80.8271 8.47559 81.5186 8.11816C81.8174 7.96582 82.0898 7.76367 82.3359 7.51172C82.5879 7.25977 82.7139 7.06934 82.7139 6.94043C82.7139 6.28418 82.2979 5.65137 81.4658 5.04199C80.6748 4.46777 79.8428 4.13672 78.9697 4.04883ZM94.6494 4.61133C94.3447 4.61133 93.5098 4.5293 92.1445 4.36523C92.0625 5.44336 92.0215 6.87598 92.0215 8.66309L92.0127 12.6094C92.792 12.5918 93.5859 12.583 94.3945 12.583C94.7461 12.583 95.0361 12.7002 95.2646 12.9346C95.499 13.1689 95.6162 13.4502 95.6162 13.7783C95.6162 14.1064 95.499 14.3877 95.2646 14.6221C95.0361 14.8506 94.7461 14.9648 94.3945 14.9648C94.0664 14.9648 93.5742 14.9736 92.918 14.9912C92.2617 15.0029 91.7695 15.0088 91.4414 15.0088C91.0547 15.0088 90.4746 15.0586 89.7012 15.1582C88.9277 15.2637 88.3477 15.3164 87.9609 15.3164C87.6094 15.3164 87.3164 15.2021 87.082 14.9736C86.8535 14.7393 86.7393 14.458 86.7393 14.1299C86.7393 13.8018 86.8535 13.5205 87.082 13.2861C87.3164 13.0518 87.6094 12.9346 87.9609 12.9346C88.3594 12.9346 88.8838 12.8906 89.5342 12.8027C89.5225 12.1113 89.5166 10.7871 89.5166 8.83008C89.5166 7.23633 89.5752 5.71582 89.6924 4.26855L87.7852 4.32129C87.4336 4.32129 87.1377 4.20703 86.8975 3.97852C86.6631 3.75 86.5459 3.46582 86.5459 3.12598C86.5459 2.78027 86.6631 2.49902 86.8975 2.28223C87.1143 2.08301 87.3809 1.96875 87.6973 1.93945C88.2129 1.89258 89.1094 1.86914 90.3867 1.86914C91.5352 1.86914 93.0146 1.99219 94.8252 2.23828C95.5459 2.33789 95.9062 2.74219 95.9062 3.45117C95.9062 3.82617 95.7598 4.12207 95.4668 4.33887C95.2266 4.52051 94.9541 4.61133 94.6494 4.61133ZM107.068 15.2637C106.605 15.2461 106.14 14.7012 105.671 13.6289C105.36 12.9375 105.094 12.1406 104.871 11.2383C104.438 11.3027 103.729 11.3672 102.744 11.4316C101.818 11.4961 101.109 11.5723 100.617 11.6602C100.348 12.3047 99.8789 13.2744 99.2109 14.5693C98.9531 14.9912 98.5957 15.2021 98.1387 15.2021C97.8164 15.2021 97.5264 15.0938 97.2686 14.877C97.0107 14.6543 96.8818 14.373 96.8818 14.0332C96.8818 13.7344 97.3096 12.7207 98.165 10.9922C98.083 10.8105 98.0479 10.6406 98.0596 10.4824C98.083 10.2012 98.3672 9.98145 98.9121 9.82324C99.7441 8.38184 100.67 6.8877 101.689 5.34082C103.154 3.12012 104.057 2.00977 104.396 2.00977C105.041 2.00977 105.472 2.39941 105.688 3.17871C105.806 3.80566 105.99 4.74609 106.242 6C106.6 7.6875 107.036 9.61816 107.552 11.792C107.593 11.9561 107.742 12.3428 108 12.9521C108.211 13.4561 108.316 13.834 108.316 14.0859C108.316 14.4258 108.188 14.71 107.93 14.9385C107.678 15.167 107.391 15.2754 107.068 15.2637ZM103.79 6.24609C103.333 7.03125 102.703 8.10059 101.9 9.4541C102.164 9.39551 102.574 9.34863 103.131 9.31348C103.787 9.27246 104.2 9.24023 104.37 9.2168C104.229 8.45508 104.036 7.46484 103.79 6.24609Z" fill="white"/>
</svg>
