<svg width="14" height="15" viewBox="0 0 14 15" fill="none" xmlns="http://www.w3.org/2000/svg">
<path d="M3.14645 14.1464L0.353553 11.3536C0.158291 11.1583 0.158291 10.8417 0.353553 10.6464L3.14645 7.85355C3.34171 7.65829 3.34171 7.34171 3.14645 7.14645L0.353553 4.35355C0.158291 4.15829 0.158291 3.84171 0.353553 3.64645L3.14645 0.853553C3.34171 0.658291 3.65829 0.658291 3.85355 0.853553L6.64645 3.64645C6.84171 3.84171 7.15829 3.84171 7.35355 3.64645L10.1464 0.853553C10.3417 0.658291 10.6583 0.658291 10.8536 0.853553L13.6464 3.64645C13.8417 3.84171 13.8417 4.15829 13.6464 4.35355L10.8536 7.14645C10.6583 7.34171 10.6583 7.65829 10.8536 7.85355L13.6464 10.6464C13.8417 10.8417 13.8417 11.1583 13.6464 11.3536L10.8536 14.1464C10.6583 14.3417 10.3417 14.3417 10.1464 14.1464L7.35355 11.3536C7.15829 11.1583 6.84171 11.1583 6.64645 11.3536L3.85355 14.1464C3.65829 14.3417 3.34171 14.3417 3.14645 14.1464Z" fill="#E04463"/>
</svg>
