<svg width="130" height="166" viewBox="0 0 130 166" fill="none" xmlns="http://www.w3.org/2000/svg">
<g style="mix-blend-mode:multiply">
<rect width="130" height="166" rx="5" fill="#030158" fill-opacity="0.6"/>
</g>
<g style="mix-blend-mode:multiply">
<rect y="139" width="130" height="19" fill="#800080" fill-opacity="0.6"/>
</g>
<path d="M30.3906 155.492C28.7969 155.492 27.6224 154.924 26.8672 153.789C26.737 153.591 26.6719 153.401 26.6719 153.219C26.6719 152.938 26.7839 152.698 27.0078 152.5C27.2318 152.302 27.487 152.203 27.7734 152.203C28.0651 152.203 28.3151 152.312 28.5234 152.531C28.888 152.911 29.0859 153.115 29.1172 153.141C29.4245 153.359 29.849 153.469 30.3906 153.469C31.1927 153.469 31.862 153.174 32.3984 152.586C32.9141 152.018 33.1719 151.331 33.1719 150.523C33.1719 149.747 33.0417 149.167 32.7812 148.781C32.526 148.396 32.138 148.203 31.6172 148.203C30.7005 148.203 29.9635 148.5 29.4062 149.094C29.1875 149.344 28.9661 149.591 28.7422 149.836C28.4609 150.102 28.1615 150.234 27.8438 150.234C27.5469 150.234 27.2943 150.133 27.0859 149.93C26.8828 149.727 26.7812 149.487 26.7812 149.211C26.7812 149.091 26.8255 148.638 26.9141 147.852C27.0859 146.326 27.1719 145.31 27.1719 144.805C27.1719 144.68 27.125 144.508 27.0312 144.289C26.9427 144.07 26.8984 143.898 26.8984 143.773C26.8984 143.513 27.0312 143.315 27.2969 143.18C27.5052 143.076 27.75 143.023 28.0312 143.023C28.1354 143.023 28.2917 143.034 28.5 143.055C28.7135 143.07 28.8724 143.078 28.9766 143.078L32.7344 143.086C32.8281 143.086 33.0286 143.07 33.3359 143.039C33.6432 143.008 33.8464 142.992 33.9453 142.992C34.2266 142.992 34.4583 143.083 34.6406 143.266C34.8229 143.443 34.9141 143.672 34.9141 143.953C34.9141 144.729 34.125 145.117 32.5469 145.117C32.4219 145.117 32.263 145.115 32.0703 145.109C31.8828 145.104 31.7578 145.102 31.6953 145.102H29.3672C29.3516 145.419 29.2865 145.945 29.1719 146.68C29.8542 146.346 30.6693 146.18 31.6172 146.18C32.8828 146.18 33.8438 146.651 34.5 147.594C35.0469 148.37 35.3203 149.346 35.3203 150.523C35.3203 151.94 34.8828 153.112 34.0078 154.039C33.0964 155.008 31.8906 155.492 30.3906 155.492ZM40.5391 155.305C38.8151 155.305 37.5651 154.56 36.7891 153.07C36.2161 151.966 35.9297 150.542 35.9297 148.797C35.9297 147.307 36.3073 146 37.0625 144.875C37.9688 143.526 39.2083 142.852 40.7812 142.852C42.2708 142.852 43.4271 143.453 44.25 144.656C44.9427 145.672 45.2891 146.898 45.2891 148.336C45.2891 150.659 44.8932 152.401 44.1016 153.562C43.3099 154.724 42.1224 155.305 40.5391 155.305ZM40.7734 144.883C39.9297 144.883 39.2526 145.302 38.7422 146.141C38.2943 146.87 38.0703 147.716 38.0703 148.68C38.0703 149.951 38.1901 150.93 38.4297 151.617C38.8151 152.727 39.5182 153.281 40.5391 153.281C41.3932 153.281 42.0339 152.893 42.4609 152.117C42.888 151.336 43.1016 150.167 43.1016 148.609C43.1016 147.365 42.9062 146.432 42.5156 145.812C42.1302 145.193 41.5495 144.883 40.7734 144.883ZM61.2656 155.094C60.9844 155.094 60.7266 154.984 60.4922 154.766C58.9141 153.286 57.1797 152.26 55.2891 151.688C55.3464 153.203 55.375 154.044 55.375 154.211C55.375 154.508 55.2708 154.76 55.0625 154.969C54.8542 155.172 54.5938 155.273 54.2812 155.273C53.9688 155.273 53.7083 155.172 53.5 154.969C53.2917 154.76 53.1875 154.508 53.1875 154.211C53.1875 153.82 53.1927 153.237 53.2031 152.461C53.2135 151.68 53.2188 151.094 53.2188 150.703L53.2344 144.398C53.2344 144.06 53.3359 143.753 53.5391 143.477C53.8047 143.122 54.1719 142.964 54.6406 143C55.9062 143.094 56.5547 143.143 56.5859 143.148C57.3151 143.237 57.9349 143.411 58.4453 143.672C60.6693 144.792 61.7812 146.18 61.7812 147.836C61.7812 148.518 61.5469 149.122 61.0781 149.648C60.6146 150.169 59.9167 150.609 58.9844 150.969C60.3646 151.74 61.4036 152.526 62.1016 153.328C62.2839 153.536 62.375 153.768 62.375 154.023C62.375 154.315 62.2656 154.568 62.0469 154.781C61.8281 154.99 61.5677 155.094 61.2656 155.094ZM56.2578 145.266C56.2161 145.26 55.9115 145.24 55.3438 145.203V149.352C55.474 149.357 55.5885 149.359 55.6875 149.359C56.9635 149.359 57.9089 149.201 58.5234 148.883C58.7891 148.747 59.0312 148.568 59.25 148.344C59.474 148.12 59.5859 147.951 59.5859 147.836C59.5859 147.253 59.2161 146.69 58.4766 146.148C57.7734 145.638 57.0339 145.344 56.2578 145.266ZM71.3828 144.984C71.2786 144.984 71.1693 144.969 71.0547 144.938C70.2109 144.708 69.3906 144.594 68.5938 144.594C68.2031 144.594 67.7839 144.625 67.3359 144.688C66.888 144.75 66.4115 144.844 65.9062 144.969C65.9062 145.661 65.8828 146.69 65.8359 148.055C66.1276 148.034 67.1458 147.938 68.8906 147.766C69.8854 147.667 70.5156 147.617 70.7812 147.617C71.0885 147.617 71.3516 147.716 71.5703 147.914C71.7891 148.107 71.8984 148.365 71.8984 148.688C71.8984 149.307 71.5677 149.659 70.9062 149.742C70.4896 149.773 69.8672 149.826 69.0391 149.898C68.2995 149.982 67.1849 150.083 65.6953 150.203C65.6589 150.865 65.6406 151.398 65.6406 151.805C65.6406 152.826 65.7005 153.406 65.8203 153.547C65.8776 153.615 66.2057 153.648 66.8047 153.648C67.1276 153.648 67.6146 153.641 68.2656 153.625C68.9167 153.609 69.4036 153.602 69.7266 153.602C69.8307 153.602 69.9844 153.586 70.1875 153.555C70.3906 153.523 70.5417 153.508 70.6406 153.508C70.9427 153.508 71.2005 153.594 71.4141 153.766C71.6589 153.958 71.7812 154.229 71.7812 154.578C71.7812 155.161 71.4766 155.51 70.8672 155.625C70.3464 155.724 69.2656 155.773 67.625 155.773C65.9271 155.773 64.8203 155.544 64.3047 155.086C63.737 154.581 63.4531 153.487 63.4531 151.805C63.4531 151.107 63.5026 150.06 63.6016 148.664C63.7057 147.263 63.7578 146.216 63.7578 145.523C63.7578 145.341 63.7318 145.073 63.6797 144.719C63.6276 144.359 63.6016 144.089 63.6016 143.906C63.6016 143.115 63.9661 142.719 64.6953 142.719C64.9245 142.719 65.1354 142.784 65.3281 142.914C65.9323 142.763 66.5052 142.651 67.0469 142.578C67.5938 142.5 68.1094 142.461 68.5938 142.461C69.9062 142.461 70.9557 142.612 71.7422 142.914C72.2214 143.096 72.4609 143.427 72.4609 143.906C72.4609 144.177 72.3672 144.417 72.1797 144.625C71.9714 144.865 71.7057 144.984 71.3828 144.984ZM82.4844 155.234C82.0729 155.219 81.6589 154.734 81.2422 153.781C80.9661 153.167 80.7292 152.458 80.5312 151.656C80.1458 151.714 79.5156 151.771 78.6406 151.828C77.8177 151.885 77.1875 151.953 76.75 152.031C76.5104 152.604 76.0938 153.466 75.5 154.617C75.2708 154.992 74.9531 155.18 74.5469 155.18C74.2604 155.18 74.0026 155.083 73.7734 154.891C73.5443 154.693 73.4297 154.443 73.4297 154.141C73.4297 153.875 73.8099 152.974 74.5703 151.438C74.4974 151.276 74.4661 151.125 74.4766 150.984C74.4974 150.734 74.75 150.539 75.2344 150.398C75.974 149.117 76.7969 147.789 77.7031 146.414C79.0052 144.44 79.8073 143.453 80.1094 143.453C80.6823 143.453 81.0651 143.799 81.2578 144.492C81.362 145.049 81.526 145.885 81.75 147C82.0677 148.5 82.4557 150.216 82.9141 152.148C82.9505 152.294 83.0833 152.638 83.3125 153.18C83.5 153.628 83.5938 153.964 83.5938 154.188C83.5938 154.49 83.4792 154.742 83.25 154.945C83.026 155.148 82.7708 155.245 82.4844 155.234ZM79.5703 147.219C79.1641 147.917 78.6042 148.867 77.8906 150.07C78.125 150.018 78.4896 149.977 78.9844 149.945C79.5677 149.909 79.9349 149.88 80.0859 149.859C79.9609 149.182 79.7891 148.302 79.5703 147.219ZM91.8984 145.766C91.6276 145.766 90.8854 145.693 89.6719 145.547C89.599 146.505 89.5625 147.779 89.5625 149.367L89.5547 152.875C90.2474 152.859 90.9531 152.852 91.6719 152.852C91.9844 152.852 92.2422 152.956 92.4453 153.164C92.6536 153.372 92.7578 153.622 92.7578 153.914C92.7578 154.206 92.6536 154.456 92.4453 154.664C92.2422 154.867 91.9844 154.969 91.6719 154.969C91.3802 154.969 90.9427 154.977 90.3594 154.992C89.776 155.003 89.3385 155.008 89.0469 155.008C88.7031 155.008 88.1875 155.052 87.5 155.141C86.8125 155.234 86.2969 155.281 85.9531 155.281C85.6406 155.281 85.3802 155.18 85.1719 154.977C84.9688 154.768 84.8672 154.518 84.8672 154.227C84.8672 153.935 84.9688 153.685 85.1719 153.477C85.3802 153.268 85.6406 153.164 85.9531 153.164C86.3073 153.164 86.7734 153.125 87.3516 153.047C87.3411 152.432 87.3359 151.255 87.3359 149.516C87.3359 148.099 87.388 146.747 87.4922 145.461L85.7969 145.508C85.4844 145.508 85.2214 145.406 85.0078 145.203C84.7995 145 84.6953 144.747 84.6953 144.445C84.6953 144.138 84.7995 143.888 85.0078 143.695C85.2005 143.518 85.4375 143.417 85.7188 143.391C86.1771 143.349 86.974 143.328 88.1094 143.328C89.1302 143.328 90.4453 143.438 92.0547 143.656C92.6953 143.745 93.0156 144.104 93.0156 144.734C93.0156 145.068 92.8854 145.331 92.625 145.523C92.4115 145.685 92.1693 145.766 91.8984 145.766ZM97.6328 155.477C96.3099 155.477 95.2682 155.182 94.5078 154.594C93.8672 154.104 93.5469 153.539 93.5469 152.898C93.5469 152.57 93.6458 152.299 93.8438 152.086C94.0417 151.867 94.3151 151.758 94.6641 151.758C95.1328 151.758 95.4766 151.997 95.6953 152.477C95.9922 153.117 96.6641 153.438 97.7109 153.438C98.6068 153.438 99.474 153.242 100.312 152.852C101.182 152.451 101.617 152.01 101.617 151.531C101.617 150.875 101.346 150.443 100.805 150.234C100.419 150.083 99.6458 149.995 98.4844 149.969C97.5833 149.948 96.776 149.779 96.0625 149.461C95.099 149.029 94.625 148.409 94.6406 147.602C94.6562 146.586 95.1979 145.656 96.2656 144.812C97.3333 143.964 98.5104 143.539 99.7969 143.539C100.307 143.539 100.938 143.656 101.688 143.891C102.62 144.182 103.086 144.518 103.086 144.898C103.086 145.169 102.992 145.409 102.805 145.617C102.596 145.852 102.328 145.969 102 145.969C101.755 145.969 101.388 145.917 100.898 145.812C100.414 145.708 100.047 145.656 99.7969 145.656C99.125 145.661 98.487 145.823 97.8828 146.141C97.2578 146.464 96.9453 146.815 96.9453 147.195C96.9453 147.393 97.0391 147.557 97.2266 147.688C97.4193 147.812 97.7057 147.901 98.0859 147.953C98.7526 147.99 99.4167 148.026 100.078 148.062C101.234 148.151 102.148 148.477 102.82 149.039C103.56 149.664 103.93 150.529 103.93 151.633C103.93 152.977 103.164 153.995 101.633 154.688C100.466 155.214 99.1328 155.477 97.6328 155.477Z" fill="#E7C428"/>
<path d="M49.875 46.0156C49.7448 46.0156 49.5599 45.9766 49.3203 45.8984C49.0859 45.8151 48.9062 45.7734 48.7812 45.7734C48.5156 45.7734 48.1172 45.7891 47.5859 45.8203C47.0547 45.8516 46.6536 45.8672 46.3828 45.8672C46.1797 45.8672 45.8776 45.8932 45.4766 45.9453C45.0807 45.9974 44.7812 46.0234 44.5781 46.0234C44.5208 46.0234 44.4375 46.013 44.3281 45.9922C44.2188 45.9714 44.1354 45.9609 44.0781 45.9609C43.7188 45.9609 43.4844 45.7865 43.375 45.4375C43.3125 45.2552 43.2812 44.9427 43.2812 44.5C43.2812 43.2865 43.612 42.3099 44.2734 41.5703C44.5755 41.2318 45.3906 40.6068 46.7188 39.6953C47.4635 39.1849 47.9609 38.7865 48.2109 38.5C48.6589 38 48.8828 37.4141 48.8828 36.7422C48.8828 36.4089 48.6667 36.112 48.2344 35.8516C47.8542 35.6172 47.4818 35.5 47.1172 35.5C46.638 35.5 46.1823 35.638 45.75 35.9141L44.6328 36.7891C44.4089 36.9661 44.2292 37.0547 44.0938 37.0547C43.5573 37.0547 43.2891 36.8411 43.2891 36.4141C43.2891 36.1693 43.388 35.9583 43.5859 35.7812C44.1953 35.2083 44.724 34.7943 45.1719 34.5391C45.8021 34.1797 46.4505 34 47.1172 34C47.9609 34 48.7135 34.2292 49.375 34.6875C50.1146 35.2031 50.4844 35.8646 50.4844 36.6719C50.4844 37.2031 50.4089 37.6927 50.2578 38.1406C50.1068 38.5885 49.8776 38.9974 49.5703 39.3672C49.1797 39.8359 48.5182 40.3594 47.5859 40.9375C46.6068 41.5521 45.9635 42.0182 45.6562 42.3359C45.0781 42.9349 44.7943 43.6615 44.8047 44.5156L46.4141 44.3672C47.5182 44.3047 48.3073 44.2734 48.7812 44.2734C49.1771 44.2734 49.5521 44.3411 49.9062 44.4766C50.375 44.6589 50.6094 44.9115 50.6094 45.2344C50.6094 45.4375 50.5391 45.6198 50.3984 45.7812C50.2578 45.9375 50.0833 46.0156 49.875 46.0156ZM62.5391 35.4609C61.8411 36.3047 61.3047 37 60.9297 37.5469L59.9531 38.9844C59.5729 39.526 59.2161 39.9818 58.8828 40.3516L60.6016 42.8672C61.2839 43.862 61.8906 44.6745 62.4219 45.3047C62.5625 45.4766 62.6328 45.6562 62.6328 45.8438C62.6328 46.0625 62.5521 46.2526 62.3906 46.4141C62.2344 46.5755 62.0469 46.6562 61.8281 46.6562C61.6302 46.6562 61.4453 46.5755 61.2734 46.4141C60.888 46.0495 60.487 45.5547 60.0703 44.9297L59.0234 43.3203L57.7969 41.5625L55.1094 44.6719L53.6719 46.2812C53.5 46.4531 53.3099 46.5391 53.1016 46.5391C52.888 46.5391 52.7005 46.4583 52.5391 46.2969C52.3776 46.1354 52.2969 45.9453 52.2969 45.7266C52.2969 45.5391 52.3646 45.362 52.5 45.1953L53.9062 43.625L56.8359 40.2266C56.263 39.4609 55.6536 38.6927 55.0078 37.9219L54.1016 36.6953C53.737 36.2057 53.3984 35.8307 53.0859 35.5703C52.8672 35.388 52.7578 35.1771 52.7578 34.9375C52.7578 34.724 52.8333 34.5339 52.9844 34.3672C53.1354 34.2005 53.3229 34.1172 53.5469 34.1172C53.9896 34.1172 54.5547 34.5885 55.2422 35.5312C55.4557 35.849 55.7812 36.2995 56.2188 36.8828C56.8125 37.5911 57.3776 38.3021 57.9141 39.0156L59.6953 36.5312C60.8516 34.9219 61.6016 34.1172 61.9453 34.1172C62.1589 34.1172 62.3464 34.1979 62.5078 34.3594C62.6693 34.5208 62.75 34.7109 62.75 34.9297C62.75 35.112 62.6797 35.2891 62.5391 35.4609ZM76.75 37.2344C76.4167 37.2344 76.1667 37.0391 76 36.6484C75.8542 36.3151 75.7188 36.112 75.5938 36.0391C75.4844 35.9818 75.2135 35.9531 74.7812 35.9531C74.026 35.9531 73.1875 36.5312 72.2656 37.6875C71.0156 39.2396 70.3906 40.7109 70.3906 42.1016C70.3906 42.7734 70.6068 43.3516 71.0391 43.8359C71.4818 44.3359 72.0156 44.5859 72.6406 44.5859C73.1771 44.5859 73.7161 44.4479 74.2578 44.1719C74.5599 44.0156 75.0234 43.7083 75.6484 43.25C75.9453 43.0312 76.1693 42.9219 76.3203 42.9219C76.5443 42.9219 76.7318 43.0078 76.8828 43.1797C77.0339 43.3464 77.1094 43.5339 77.1094 43.7422C77.1094 43.9766 77.0104 44.1823 76.8125 44.3594C75.4375 45.5781 74.0469 46.1875 72.6406 46.1875C71.5625 46.1875 70.651 45.7734 69.9062 44.9453C69.1875 44.1432 68.8281 43.1953 68.8281 42.1016C68.8281 40.3359 69.5677 38.526 71.0469 36.6719C72.2812 35.125 73.526 34.3516 74.7812 34.3516C75.0365 34.3516 75.2656 34.3646 75.4688 34.3906C75.6719 34.4115 75.8516 34.4479 76.0078 34.5C76.1901 34.2344 76.4271 34.1016 76.7188 34.1016C77.0781 34.1016 77.3047 34.3385 77.3984 34.8125C77.4818 35.2344 77.5234 35.7526 77.5234 36.3672C77.5234 36.5807 77.4661 36.7682 77.3516 36.9297C77.2109 37.1328 77.0104 37.2344 76.75 37.2344ZM85.2969 39.6797C84.8333 40.237 84.2396 41.0443 83.5156 42.1016C82.6771 43.3307 82.0625 44.2005 81.6719 44.7109C82.2188 44.6849 82.6953 44.6719 83.1016 44.6719C83.3047 44.6719 83.6068 44.7109 84.0078 44.7891C84.4089 44.8672 84.7109 44.9062 84.9141 44.9062C85.1432 44.9062 85.3281 44.9818 85.4688 45.1328C85.6146 45.2786 85.6875 45.4661 85.6875 45.6953C85.6875 45.9297 85.6146 46.1198 85.4688 46.2656C85.3281 46.4115 85.1432 46.4844 84.9141 46.4844C84.7109 46.4844 84.4089 46.4453 84.0078 46.3672C83.6068 46.2891 83.3047 46.25 83.1016 46.25C81.9297 46.25 80.8177 46.3568 79.7656 46.5703C79.6562 46.5911 79.5599 46.6016 79.4766 46.6016C78.9714 46.6016 78.7188 46.3802 78.7188 45.9375C78.7188 45.6771 78.849 45.4271 79.1094 45.1875C80.4688 43.9583 81.9479 42.0443 83.5469 39.4453C82.8542 39.487 82.3516 39.5078 82.0391 39.5078C81.2682 39.5078 80.4766 39.4479 79.6641 39.3281C79.2005 39.2604 78.9688 39.0026 78.9688 38.5547C78.9688 38.3255 79.0391 38.1354 79.1797 37.9844C79.3203 37.8281 79.4974 37.75 79.7109 37.75C79.9661 37.75 80.3516 37.7812 80.8672 37.8438C81.3828 37.901 81.7734 37.9297 82.0391 37.9297C82.3932 37.9297 82.9245 37.9062 83.6328 37.8594C84.3411 37.8073 84.8724 37.7812 85.2266 37.7812C85.6693 37.7812 85.8906 37.9635 85.8906 38.3281C85.8906 38.75 85.6927 39.2005 85.2969 39.6797Z" fill="#F7F7F7"/>
<circle cx="62" cy="78" r="19" fill="#F5D358"/>
<circle cx="62" cy="78" r="19" fill="url(#paint0_linear_435_131)"/>
<g style="mix-blend-mode:multiply">
<circle cx="62" cy="78" r="19" fill="#800080" fill-opacity="0.3"/>
</g>
<circle cx="69" cy="78" r="19" fill="#F5D358"/>
<circle cx="69" cy="78" r="19" fill="url(#paint1_linear_435_131)"/>
<path d="M67.625 75.2344C67.2917 75.2344 67.0417 75.0391 66.875 74.6484C66.7292 74.3151 66.5938 74.112 66.4688 74.0391C66.3594 73.9818 66.0885 73.9531 65.6562 73.9531C64.901 73.9531 64.0625 74.5312 63.1406 75.6875C61.8906 77.2396 61.2656 78.7109 61.2656 80.1016C61.2656 80.7734 61.4818 81.3516 61.9141 81.8359C62.3568 82.3359 62.8906 82.5859 63.5156 82.5859C64.0521 82.5859 64.5911 82.4479 65.1328 82.1719C65.4349 82.0156 65.8984 81.7083 66.5234 81.25C66.8203 81.0312 67.0443 80.9219 67.1953 80.9219C67.4193 80.9219 67.6068 81.0078 67.7578 81.1797C67.9089 81.3464 67.9844 81.5339 67.9844 81.7422C67.9844 81.9766 67.8854 82.1823 67.6875 82.3594C66.3125 83.5781 64.9219 84.1875 63.5156 84.1875C62.4375 84.1875 61.526 83.7734 60.7812 82.9453C60.0625 82.1432 59.7031 81.1953 59.7031 80.1016C59.7031 78.3359 60.4427 76.526 61.9219 74.6719C63.1562 73.125 64.401 72.3516 65.6562 72.3516C65.9115 72.3516 66.1406 72.3646 66.3438 72.3906C66.5469 72.4115 66.7266 72.4479 66.8828 72.5C67.0651 72.2344 67.3021 72.1016 67.5938 72.1016C67.9531 72.1016 68.1797 72.3385 68.2734 72.8125C68.3568 73.2344 68.3984 73.7526 68.3984 74.3672C68.3984 74.5807 68.3411 74.7682 68.2266 74.9297C68.0859 75.1328 67.8854 75.2344 67.625 75.2344ZM76.1719 77.6797C75.7083 78.237 75.1146 79.0443 74.3906 80.1016C73.5521 81.3307 72.9375 82.2005 72.5469 82.7109C73.0938 82.6849 73.5703 82.6719 73.9766 82.6719C74.1797 82.6719 74.4818 82.7109 74.8828 82.7891C75.2839 82.8672 75.5859 82.9062 75.7891 82.9062C76.0182 82.9062 76.2031 82.9818 76.3438 83.1328C76.4896 83.2786 76.5625 83.4661 76.5625 83.6953C76.5625 83.9297 76.4896 84.1198 76.3438 84.2656C76.2031 84.4115 76.0182 84.4844 75.7891 84.4844C75.5859 84.4844 75.2839 84.4453 74.8828 84.3672C74.4818 84.2891 74.1797 84.25 73.9766 84.25C72.8047 84.25 71.6927 84.3568 70.6406 84.5703C70.5312 84.5911 70.4349 84.6016 70.3516 84.6016C69.8464 84.6016 69.5938 84.3802 69.5938 83.9375C69.5938 83.6771 69.724 83.4271 69.9844 83.1875C71.3438 81.9583 72.8229 80.0443 74.4219 77.4453C73.7292 77.487 73.2266 77.5078 72.9141 77.5078C72.1432 77.5078 71.3516 77.4479 70.5391 77.3281C70.0755 77.2604 69.8438 77.0026 69.8438 76.5547C69.8438 76.3255 69.9141 76.1354 70.0547 75.9844C70.1953 75.8281 70.3724 75.75 70.5859 75.75C70.8411 75.75 71.2266 75.7812 71.7422 75.8438C72.2578 75.901 72.6484 75.9297 72.9141 75.9297C73.2682 75.9297 73.7995 75.9062 74.5078 75.8594C75.2161 75.8073 75.7474 75.7812 76.1016 75.7812C76.5443 75.7812 76.7656 75.9635 76.7656 76.3281C76.7656 76.75 76.5677 77.2005 76.1719 77.6797Z" fill="white"/>
<defs>
<linearGradient id="paint0_linear_435_131" x1="84.7465" y1="56.0563" x2="36.5775" y2="102.352" gradientUnits="userSpaceOnUse">
<stop stop-color="#F1BF0B"/>
<stop offset="1" stop-color="white" stop-opacity="0"/>
</linearGradient>
<linearGradient id="paint1_linear_435_131" x1="91.7465" y1="56.0563" x2="43.5775" y2="102.352" gradientUnits="userSpaceOnUse">
<stop stop-color="#F1BF0B"/>
<stop offset="1" stop-color="white" stop-opacity="0"/>
</linearGradient>
</defs>
</svg>
