<svg width="130" height="166" viewBox="0 0 130 166" fill="none" xmlns="http://www.w3.org/2000/svg">
<g style="mix-blend-mode:multiply">
<rect width="130" height="166" rx="5" fill="#030158" fill-opacity="0.62"/>
</g>
<g style="mix-blend-mode:multiply">
<rect y="139" width="130" height="19" fill="#800080" fill-opacity="0.6"/>
</g>
<path d="M33.1641 148.672C34.237 149.271 34.7734 150.229 34.7734 151.547C34.7734 152.609 34.3802 153.51 33.5938 154.25C32.8073 154.99 31.8516 155.359 30.7266 155.359C29.888 155.359 29.1328 155.19 28.4609 154.852C27.6849 154.456 27.1615 153.893 26.8906 153.164C26.849 153.055 26.8281 152.938 26.8281 152.812C26.8281 152.521 26.9453 152.279 27.1797 152.086C27.3984 151.909 27.6484 151.82 27.9297 151.82C28.2578 151.82 28.5208 151.951 28.7188 152.211C29.0521 152.659 29.2448 152.904 29.2969 152.945C29.6198 153.206 30.0964 153.336 30.7266 153.336C31.2214 153.336 31.6536 153.188 32.0234 152.891C32.3984 152.594 32.5859 152.237 32.5859 151.82C32.5859 150.523 31.7135 149.789 29.9688 149.617C29.2031 149.544 28.8203 149.224 28.8203 148.656C28.8203 148.224 29.1172 147.909 29.7109 147.711C30.2734 147.586 30.8333 147.458 31.3906 147.328C31.7448 147.219 32.0104 147.076 32.1875 146.898C32.3646 146.721 32.4557 146.51 32.4609 146.266C32.4818 145.49 31.875 145.102 30.6406 145.102C30.2344 145.102 29.7891 145.258 29.3047 145.57C28.8203 145.878 28.4896 146.031 28.3125 146.031C28.0156 146.031 27.763 145.924 27.5547 145.711C27.3464 145.497 27.2422 145.255 27.2422 144.984C27.2422 144.542 27.6797 144.102 28.5547 143.664C29.3359 143.273 29.9714 143.078 30.4609 143.078C31.6432 143.078 32.5938 143.333 33.3125 143.844C34.099 144.406 34.4922 145.208 34.4922 146.25C34.4922 146.823 34.3802 147.312 34.1562 147.719C33.9375 148.12 33.6068 148.438 33.1641 148.672ZM40.1562 155.492C38.5625 155.492 37.388 154.924 36.6328 153.789C36.5026 153.591 36.4375 153.401 36.4375 153.219C36.4375 152.938 36.5495 152.698 36.7734 152.5C36.9974 152.302 37.2526 152.203 37.5391 152.203C37.8307 152.203 38.0807 152.312 38.2891 152.531C38.6536 152.911 38.8516 153.115 38.8828 153.141C39.1901 153.359 39.6146 153.469 40.1562 153.469C40.9583 153.469 41.6276 153.174 42.1641 152.586C42.6797 152.018 42.9375 151.331 42.9375 150.523C42.9375 149.747 42.8073 149.167 42.5469 148.781C42.2917 148.396 41.9036 148.203 41.3828 148.203C40.4661 148.203 39.7292 148.5 39.1719 149.094C38.9531 149.344 38.7318 149.591 38.5078 149.836C38.2266 150.102 37.9271 150.234 37.6094 150.234C37.3125 150.234 37.0599 150.133 36.8516 149.93C36.6484 149.727 36.5469 149.487 36.5469 149.211C36.5469 149.091 36.5911 148.638 36.6797 147.852C36.8516 146.326 36.9375 145.31 36.9375 144.805C36.9375 144.68 36.8906 144.508 36.7969 144.289C36.7083 144.07 36.6641 143.898 36.6641 143.773C36.6641 143.513 36.7969 143.315 37.0625 143.18C37.2708 143.076 37.5156 143.023 37.7969 143.023C37.901 143.023 38.0573 143.034 38.2656 143.055C38.4792 143.07 38.638 143.078 38.7422 143.078L42.5 143.086C42.5938 143.086 42.7943 143.07 43.1016 143.039C43.4089 143.008 43.612 142.992 43.7109 142.992C43.9922 142.992 44.224 143.083 44.4062 143.266C44.5885 143.443 44.6797 143.672 44.6797 143.953C44.6797 144.729 43.8906 145.117 42.3125 145.117C42.1875 145.117 42.0286 145.115 41.8359 145.109C41.6484 145.104 41.5234 145.102 41.4609 145.102H39.1328C39.1172 145.419 39.0521 145.945 38.9375 146.68C39.6198 146.346 40.4349 146.18 41.3828 146.18C42.6484 146.18 43.6094 146.651 44.2656 147.594C44.8125 148.37 45.0859 149.346 45.0859 150.523C45.0859 151.94 44.6484 153.112 43.7734 154.039C42.862 155.008 41.6562 155.492 40.1562 155.492ZM61.2656 155.094C60.9844 155.094 60.7266 154.984 60.4922 154.766C58.9141 153.286 57.1797 152.26 55.2891 151.688C55.3464 153.203 55.375 154.044 55.375 154.211C55.375 154.508 55.2708 154.76 55.0625 154.969C54.8542 155.172 54.5938 155.273 54.2812 155.273C53.9688 155.273 53.7083 155.172 53.5 154.969C53.2917 154.76 53.1875 154.508 53.1875 154.211C53.1875 153.82 53.1927 153.237 53.2031 152.461C53.2135 151.68 53.2188 151.094 53.2188 150.703L53.2344 144.398C53.2344 144.06 53.3359 143.753 53.5391 143.477C53.8047 143.122 54.1719 142.964 54.6406 143C55.9062 143.094 56.5547 143.143 56.5859 143.148C57.3151 143.237 57.9349 143.411 58.4453 143.672C60.6693 144.792 61.7812 146.18 61.7812 147.836C61.7812 148.518 61.5469 149.122 61.0781 149.648C60.6146 150.169 59.9167 150.609 58.9844 150.969C60.3646 151.74 61.4036 152.526 62.1016 153.328C62.2839 153.536 62.375 153.768 62.375 154.023C62.375 154.315 62.2656 154.568 62.0469 154.781C61.8281 154.99 61.5677 155.094 61.2656 155.094ZM56.2578 145.266C56.2161 145.26 55.9115 145.24 55.3438 145.203V149.352C55.474 149.357 55.5885 149.359 55.6875 149.359C56.9635 149.359 57.9089 149.201 58.5234 148.883C58.7891 148.747 59.0312 148.568 59.25 148.344C59.474 148.12 59.5859 147.951 59.5859 147.836C59.5859 147.253 59.2161 146.69 58.4766 146.148C57.7734 145.638 57.0339 145.344 56.2578 145.266ZM71.3828 144.984C71.2786 144.984 71.1693 144.969 71.0547 144.938C70.2109 144.708 69.3906 144.594 68.5938 144.594C68.2031 144.594 67.7839 144.625 67.3359 144.688C66.888 144.75 66.4115 144.844 65.9062 144.969C65.9062 145.661 65.8828 146.69 65.8359 148.055C66.1276 148.034 67.1458 147.938 68.8906 147.766C69.8854 147.667 70.5156 147.617 70.7812 147.617C71.0885 147.617 71.3516 147.716 71.5703 147.914C71.7891 148.107 71.8984 148.365 71.8984 148.688C71.8984 149.307 71.5677 149.659 70.9062 149.742C70.4896 149.773 69.8672 149.826 69.0391 149.898C68.2995 149.982 67.1849 150.083 65.6953 150.203C65.6589 150.865 65.6406 151.398 65.6406 151.805C65.6406 152.826 65.7005 153.406 65.8203 153.547C65.8776 153.615 66.2057 153.648 66.8047 153.648C67.1276 153.648 67.6146 153.641 68.2656 153.625C68.9167 153.609 69.4036 153.602 69.7266 153.602C69.8307 153.602 69.9844 153.586 70.1875 153.555C70.3906 153.523 70.5417 153.508 70.6406 153.508C70.9427 153.508 71.2005 153.594 71.4141 153.766C71.6589 153.958 71.7812 154.229 71.7812 154.578C71.7812 155.161 71.4766 155.51 70.8672 155.625C70.3464 155.724 69.2656 155.773 67.625 155.773C65.9271 155.773 64.8203 155.544 64.3047 155.086C63.737 154.581 63.4531 153.487 63.4531 151.805C63.4531 151.107 63.5026 150.06 63.6016 148.664C63.7057 147.263 63.7578 146.216 63.7578 145.523C63.7578 145.341 63.7318 145.073 63.6797 144.719C63.6276 144.359 63.6016 144.089 63.6016 143.906C63.6016 143.115 63.9661 142.719 64.6953 142.719C64.9245 142.719 65.1354 142.784 65.3281 142.914C65.9323 142.763 66.5052 142.651 67.0469 142.578C67.5938 142.5 68.1094 142.461 68.5938 142.461C69.9062 142.461 70.9557 142.612 71.7422 142.914C72.2214 143.096 72.4609 143.427 72.4609 143.906C72.4609 144.177 72.3672 144.417 72.1797 144.625C71.9714 144.865 71.7057 144.984 71.3828 144.984ZM82.4844 155.234C82.0729 155.219 81.6589 154.734 81.2422 153.781C80.9661 153.167 80.7292 152.458 80.5312 151.656C80.1458 151.714 79.5156 151.771 78.6406 151.828C77.8177 151.885 77.1875 151.953 76.75 152.031C76.5104 152.604 76.0938 153.466 75.5 154.617C75.2708 154.992 74.9531 155.18 74.5469 155.18C74.2604 155.18 74.0026 155.083 73.7734 154.891C73.5443 154.693 73.4297 154.443 73.4297 154.141C73.4297 153.875 73.8099 152.974 74.5703 151.438C74.4974 151.276 74.4661 151.125 74.4766 150.984C74.4974 150.734 74.75 150.539 75.2344 150.398C75.974 149.117 76.7969 147.789 77.7031 146.414C79.0052 144.44 79.8073 143.453 80.1094 143.453C80.6823 143.453 81.0651 143.799 81.2578 144.492C81.362 145.049 81.526 145.885 81.75 147C82.0677 148.5 82.4557 150.216 82.9141 152.148C82.9505 152.294 83.0833 152.638 83.3125 153.18C83.5 153.628 83.5938 153.964 83.5938 154.188C83.5938 154.49 83.4792 154.742 83.25 154.945C83.026 155.148 82.7708 155.245 82.4844 155.234ZM79.5703 147.219C79.1641 147.917 78.6042 148.867 77.8906 150.07C78.125 150.018 78.4896 149.977 78.9844 149.945C79.5677 149.909 79.9349 149.88 80.0859 149.859C79.9609 149.182 79.7891 148.302 79.5703 147.219ZM91.8984 145.766C91.6276 145.766 90.8854 145.693 89.6719 145.547C89.599 146.505 89.5625 147.779 89.5625 149.367L89.5547 152.875C90.2474 152.859 90.9531 152.852 91.6719 152.852C91.9844 152.852 92.2422 152.956 92.4453 153.164C92.6536 153.372 92.7578 153.622 92.7578 153.914C92.7578 154.206 92.6536 154.456 92.4453 154.664C92.2422 154.867 91.9844 154.969 91.6719 154.969C91.3802 154.969 90.9427 154.977 90.3594 154.992C89.776 155.003 89.3385 155.008 89.0469 155.008C88.7031 155.008 88.1875 155.052 87.5 155.141C86.8125 155.234 86.2969 155.281 85.9531 155.281C85.6406 155.281 85.3802 155.18 85.1719 154.977C84.9688 154.768 84.8672 154.518 84.8672 154.227C84.8672 153.935 84.9688 153.685 85.1719 153.477C85.3802 153.268 85.6406 153.164 85.9531 153.164C86.3073 153.164 86.7734 153.125 87.3516 153.047C87.3411 152.432 87.3359 151.255 87.3359 149.516C87.3359 148.099 87.388 146.747 87.4922 145.461L85.7969 145.508C85.4844 145.508 85.2214 145.406 85.0078 145.203C84.7995 145 84.6953 144.747 84.6953 144.445C84.6953 144.138 84.7995 143.888 85.0078 143.695C85.2005 143.518 85.4375 143.417 85.7188 143.391C86.1771 143.349 86.974 143.328 88.1094 143.328C89.1302 143.328 90.4453 143.438 92.0547 143.656C92.6953 143.745 93.0156 144.104 93.0156 144.734C93.0156 145.068 92.8854 145.331 92.625 145.523C92.4115 145.685 92.1693 145.766 91.8984 145.766ZM97.6328 155.477C96.3099 155.477 95.2682 155.182 94.5078 154.594C93.8672 154.104 93.5469 153.539 93.5469 152.898C93.5469 152.57 93.6458 152.299 93.8438 152.086C94.0417 151.867 94.3151 151.758 94.6641 151.758C95.1328 151.758 95.4766 151.997 95.6953 152.477C95.9922 153.117 96.6641 153.438 97.7109 153.438C98.6068 153.438 99.474 153.242 100.312 152.852C101.182 152.451 101.617 152.01 101.617 151.531C101.617 150.875 101.346 150.443 100.805 150.234C100.419 150.083 99.6458 149.995 98.4844 149.969C97.5833 149.948 96.776 149.779 96.0625 149.461C95.099 149.029 94.625 148.409 94.6406 147.602C94.6562 146.586 95.1979 145.656 96.2656 144.812C97.3333 143.964 98.5104 143.539 99.7969 143.539C100.307 143.539 100.938 143.656 101.688 143.891C102.62 144.182 103.086 144.518 103.086 144.898C103.086 145.169 102.992 145.409 102.805 145.617C102.596 145.852 102.328 145.969 102 145.969C101.755 145.969 101.388 145.917 100.898 145.812C100.414 145.708 100.047 145.656 99.7969 145.656C99.125 145.661 98.487 145.823 97.8828 146.141C97.2578 146.464 96.9453 146.815 96.9453 147.195C96.9453 147.393 97.0391 147.557 97.2266 147.688C97.4193 147.812 97.7057 147.901 98.0859 147.953C98.7526 147.99 99.4167 148.026 100.078 148.062C101.234 148.151 102.148 148.477 102.82 149.039C103.56 149.664 103.93 150.529 103.93 151.633C103.93 152.977 103.164 153.995 101.633 154.688C100.466 155.214 99.1328 155.477 97.6328 155.477Z" fill="#E7C428"/>
<rect x="61.25" y="59" width="25.8094" height="25.8094" transform="rotate(45 61.25 59)" fill="#3FCFC7"/>
<path d="M45.5 77.75L60.5 92.4213L60.5 77.75L45.5 77.75Z" fill="#0AB6AC"/>
<path d="M77 77.75L62 92.4213L62 77.75L77 77.75Z" fill="#3CE2D9"/>
<path d="M77 76.4214L62 61.7501L62 76.4214L77 76.4214Z" fill="#69F9F1"/>
<g style="mix-blend-mode:multiply">
<rect x="61.25" y="59" width="25.8094" height="25.8094" transform="rotate(45 61.25 59)" fill="#800080" fill-opacity="0.3"/>
</g>
<rect x="69.25" y="59" width="25.8094" height="25.8094" transform="rotate(45 69.25 59)" fill="#3FCFC7"/>
<path d="M53.5 77.75L68.5 92.4213L68.5 77.75L53.5 77.75Z" fill="#0AB6AC"/>
<path d="M85 77.75L70 92.4213L70 77.75L85 77.75Z" fill="#3CE2D9"/>
<path d="M85 76.4214L70 61.7501L70 76.4214L85 76.4214Z" fill="#69F9F1"/>
<path d="M64.2266 78.4141C64.0807 78.4141 63.763 78.3802 63.2734 78.3125C63.2318 79.099 63.2109 80.4766 63.2109 82.4453C63.2109 82.6536 63.1432 82.8307 63.0078 82.9766C62.8724 83.1172 62.7031 83.1875 62.5 83.1875C62.2917 83.1875 62.1198 83.1172 61.9844 82.9766C61.849 82.8307 61.7812 82.6536 61.7812 82.4453V80.1484C61.7812 79.3828 61.8281 78.3047 61.9219 76.9141C62.026 75.4089 62.0833 74.3307 62.0938 73.6797V72.6016C62.0938 72.0859 62.125 71.7109 62.1875 71.4766C62.3073 71.0182 62.5625 70.8203 62.9531 70.8828C63.1198 70.8307 63.3568 70.7917 63.6641 70.7656C63.9714 70.7396 64.349 70.7266 64.7969 70.7266C65.75 70.7266 66.6432 71.0521 67.4766 71.7031C68.3932 72.4219 68.8516 73.2865 68.8516 74.2969C68.8516 75.5885 68.362 76.6172 67.3828 77.3828C66.5078 78.0703 65.4557 78.4141 64.2266 78.4141ZM64.6172 72.2109C64.388 72.2109 64.1823 72.2161 64 72.2266C63.8229 72.237 63.6719 72.2526 63.5469 72.2734L63.5312 73.7109L63.3672 76.8203L64.2266 76.9219C65.1016 76.9219 65.8385 76.7005 66.4375 76.2578C67.0938 75.7734 67.4219 75.1198 67.4219 74.2969C67.4219 73.7135 67.1094 73.2109 66.4844 72.7891C65.9062 72.4036 65.2839 72.2109 64.6172 72.2109ZM76.8594 76.6797C76.3958 77.237 75.8021 78.0443 75.0781 79.1016C74.2396 80.3307 73.625 81.2005 73.2344 81.7109C73.7812 81.6849 74.2578 81.6719 74.6641 81.6719C74.8672 81.6719 75.1693 81.7109 75.5703 81.7891C75.9714 81.8672 76.2734 81.9062 76.4766 81.9062C76.7057 81.9062 76.8906 81.9818 77.0312 82.1328C77.1771 82.2786 77.25 82.4661 77.25 82.6953C77.25 82.9297 77.1771 83.1198 77.0312 83.2656C76.8906 83.4115 76.7057 83.4844 76.4766 83.4844C76.2734 83.4844 75.9714 83.4453 75.5703 83.3672C75.1693 83.2891 74.8672 83.25 74.6641 83.25C73.4922 83.25 72.3802 83.3568 71.3281 83.5703C71.2188 83.5911 71.1224 83.6016 71.0391 83.6016C70.5339 83.6016 70.2812 83.3802 70.2812 82.9375C70.2812 82.6771 70.4115 82.4271 70.6719 82.1875C72.0312 80.9583 73.5104 79.0443 75.1094 76.4453C74.4167 76.487 73.9141 76.5078 73.6016 76.5078C72.8307 76.5078 72.0391 76.4479 71.2266 76.3281C70.763 76.2604 70.5312 76.0026 70.5312 75.5547C70.5312 75.3255 70.6016 75.1354 70.7422 74.9844C70.8828 74.8281 71.0599 74.75 71.2734 74.75C71.5286 74.75 71.9141 74.7812 72.4297 74.8438C72.9453 74.901 73.3359 74.9297 73.6016 74.9297C73.9557 74.9297 74.487 74.9062 75.1953 74.8594C75.9036 74.8073 76.4349 74.7812 76.7891 74.7812C77.2318 74.7812 77.4531 74.9635 77.4531 75.3281C77.4531 75.75 77.2552 76.2005 76.8594 76.6797Z" fill="#F7F7F7"/>
<path d="M50.875 46.0156C50.7448 46.0156 50.5599 45.9766 50.3203 45.8984C50.0859 45.8151 49.9062 45.7734 49.7812 45.7734C49.5156 45.7734 49.1172 45.7891 48.5859 45.8203C48.0547 45.8516 47.6536 45.8672 47.3828 45.8672C47.1797 45.8672 46.8776 45.8932 46.4766 45.9453C46.0807 45.9974 45.7812 46.0234 45.5781 46.0234C45.5208 46.0234 45.4375 46.013 45.3281 45.9922C45.2188 45.9714 45.1354 45.9609 45.0781 45.9609C44.7188 45.9609 44.4844 45.7865 44.375 45.4375C44.3125 45.2552 44.2812 44.9427 44.2812 44.5C44.2812 43.2865 44.612 42.3099 45.2734 41.5703C45.5755 41.2318 46.3906 40.6068 47.7188 39.6953C48.4635 39.1849 48.9609 38.7865 49.2109 38.5C49.6589 38 49.8828 37.4141 49.8828 36.7422C49.8828 36.4089 49.6667 36.112 49.2344 35.8516C48.8542 35.6172 48.4818 35.5 48.1172 35.5C47.638 35.5 47.1823 35.638 46.75 35.9141L45.6328 36.7891C45.4089 36.9661 45.2292 37.0547 45.0938 37.0547C44.5573 37.0547 44.2891 36.8411 44.2891 36.4141C44.2891 36.1693 44.388 35.9583 44.5859 35.7812C45.1953 35.2083 45.724 34.7943 46.1719 34.5391C46.8021 34.1797 47.4505 34 48.1172 34C48.9609 34 49.7135 34.2292 50.375 34.6875C51.1146 35.2031 51.4844 35.8646 51.4844 36.6719C51.4844 37.2031 51.4089 37.6927 51.2578 38.1406C51.1068 38.5885 50.8776 38.9974 50.5703 39.3672C50.1797 39.8359 49.5182 40.3594 48.5859 40.9375C47.6068 41.5521 46.9635 42.0182 46.6562 42.3359C46.0781 42.9349 45.7943 43.6615 45.8047 44.5156L47.4141 44.3672C48.5182 44.3047 49.3073 44.2734 49.7812 44.2734C50.1771 44.2734 50.5521 44.3411 50.9062 44.4766C51.375 44.6589 51.6094 44.9115 51.6094 45.2344C51.6094 45.4375 51.5391 45.6198 51.3984 45.7812C51.2578 45.9375 51.0833 46.0156 50.875 46.0156ZM63.5391 35.4609C62.8411 36.3047 62.3047 37 61.9297 37.5469L60.9531 38.9844C60.5729 39.526 60.2161 39.9818 59.8828 40.3516L61.6016 42.8672C62.2839 43.862 62.8906 44.6745 63.4219 45.3047C63.5625 45.4766 63.6328 45.6562 63.6328 45.8438C63.6328 46.0625 63.5521 46.2526 63.3906 46.4141C63.2344 46.5755 63.0469 46.6562 62.8281 46.6562C62.6302 46.6562 62.4453 46.5755 62.2734 46.4141C61.888 46.0495 61.487 45.5547 61.0703 44.9297L60.0234 43.3203L58.7969 41.5625L56.1094 44.6719L54.6719 46.2812C54.5 46.4531 54.3099 46.5391 54.1016 46.5391C53.888 46.5391 53.7005 46.4583 53.5391 46.2969C53.3776 46.1354 53.2969 45.9453 53.2969 45.7266C53.2969 45.5391 53.3646 45.362 53.5 45.1953L54.9062 43.625L57.8359 40.2266C57.263 39.4609 56.6536 38.6927 56.0078 37.9219L55.1016 36.6953C54.737 36.2057 54.3984 35.8307 54.0859 35.5703C53.8672 35.388 53.7578 35.1771 53.7578 34.9375C53.7578 34.724 53.8333 34.5339 53.9844 34.3672C54.1354 34.2005 54.3229 34.1172 54.5469 34.1172C54.9896 34.1172 55.5547 34.5885 56.2422 35.5312C56.4557 35.849 56.7812 36.2995 57.2188 36.8828C57.8125 37.5911 58.3776 38.3021 58.9141 39.0156L60.6953 36.5312C61.8516 34.9219 62.6016 34.1172 62.9453 34.1172C63.1589 34.1172 63.3464 34.1979 63.5078 34.3594C63.6693 34.5208 63.75 34.7109 63.75 34.9297C63.75 35.112 63.6797 35.2891 63.5391 35.4609ZM72.3516 41.4141C72.2057 41.4141 71.888 41.3802 71.3984 41.3125C71.3568 42.099 71.3359 43.4766 71.3359 45.4453C71.3359 45.6536 71.2682 45.8307 71.1328 45.9766C70.9974 46.1172 70.8281 46.1875 70.625 46.1875C70.4167 46.1875 70.2448 46.1172 70.1094 45.9766C69.974 45.8307 69.9062 45.6536 69.9062 45.4453V43.1484C69.9062 42.3828 69.9531 41.3047 70.0469 39.9141C70.151 38.4089 70.2083 37.3307 70.2188 36.6797V35.6016C70.2188 35.0859 70.25 34.7109 70.3125 34.4766C70.4323 34.0182 70.6875 33.8203 71.0781 33.8828C71.2448 33.8307 71.4818 33.7917 71.7891 33.7656C72.0964 33.7396 72.474 33.7266 72.9219 33.7266C73.875 33.7266 74.7682 34.0521 75.6016 34.7031C76.5182 35.4219 76.9766 36.2865 76.9766 37.2969C76.9766 38.5885 76.487 39.6172 75.5078 40.3828C74.6328 41.0703 73.5807 41.4141 72.3516 41.4141ZM72.7422 35.2109C72.513 35.2109 72.3073 35.2161 72.125 35.2266C71.9479 35.237 71.7969 35.2526 71.6719 35.2734L71.6562 36.7109L71.4922 39.8203L72.3516 39.9219C73.2266 39.9219 73.9635 39.7005 74.5625 39.2578C75.2188 38.7734 75.5469 38.1198 75.5469 37.2969C75.5469 36.7135 75.2344 36.2109 74.6094 35.7891C74.0312 35.4036 73.4089 35.2109 72.7422 35.2109ZM84.9844 39.6797C84.5208 40.237 83.9271 41.0443 83.2031 42.1016C82.3646 43.3307 81.75 44.2005 81.3594 44.7109C81.9062 44.6849 82.3828 44.6719 82.7891 44.6719C82.9922 44.6719 83.2943 44.7109 83.6953 44.7891C84.0964 44.8672 84.3984 44.9062 84.6016 44.9062C84.8307 44.9062 85.0156 44.9818 85.1562 45.1328C85.3021 45.2786 85.375 45.4661 85.375 45.6953C85.375 45.9297 85.3021 46.1198 85.1562 46.2656C85.0156 46.4115 84.8307 46.4844 84.6016 46.4844C84.3984 46.4844 84.0964 46.4453 83.6953 46.3672C83.2943 46.2891 82.9922 46.25 82.7891 46.25C81.6172 46.25 80.5052 46.3568 79.4531 46.5703C79.3438 46.5911 79.2474 46.6016 79.1641 46.6016C78.6589 46.6016 78.4062 46.3802 78.4062 45.9375C78.4062 45.6771 78.5365 45.4271 78.7969 45.1875C80.1562 43.9583 81.6354 42.0443 83.2344 39.4453C82.5417 39.487 82.0391 39.5078 81.7266 39.5078C80.9557 39.5078 80.1641 39.4479 79.3516 39.3281C78.888 39.2604 78.6562 39.0026 78.6562 38.5547C78.6562 38.3255 78.7266 38.1354 78.8672 37.9844C79.0078 37.8281 79.1849 37.75 79.3984 37.75C79.6536 37.75 80.0391 37.7812 80.5547 37.8438C81.0703 37.901 81.4609 37.9297 81.7266 37.9297C82.0807 37.9297 82.612 37.9062 83.3203 37.8594C84.0286 37.8073 84.5599 37.7812 84.9141 37.7812C85.3568 37.7812 85.5781 37.9635 85.5781 38.3281C85.5781 38.75 85.3802 39.2005 84.9844 39.6797Z" fill="#F7F7F7"/>
</svg>
