<svg width="171" height="29" viewBox="0 0 171 29" fill="none" xmlns="http://www.w3.org/2000/svg">
<g filter="url(#filter0_d_341_342)">
<path d="M6.44922 19.1172C5.98828 19.1094 5.60156 18.9531 5.28906 18.6484C4.97656 18.3359 4.82031 17.9609 4.82031 17.5234C4.82031 16.7422 4.85547 15.5703 4.92578 14.0078C5.00391 12.4453 5.04297 11.2734 5.04297 10.4922C5.04297 9.625 5.02344 8.32422 4.98438 6.58984C4.95312 4.85547 4.9375 3.55469 4.9375 2.6875C4.9375 2.25781 5.14453 1.83203 5.55859 1.41016C5.97266 0.980469 6.41406 0.765625 6.88281 0.765625C7.14062 0.765625 7.78906 1.00781 8.82812 1.49219C10.0391 2.07031 10.7578 2.39453 10.9844 2.46484C13.2734 3.20703 15.2266 4.35547 16.8438 5.91016C18.7734 7.76172 19.7383 9.80859 19.7383 12.0508C19.7383 13.4023 19.4062 14.6875 18.7422 15.9062C18.0781 17.1484 17.168 18.1445 16.0117 18.8945C14.7148 19.7383 12.8906 20.1602 10.5391 20.1602C9.96875 20.1602 9.3125 20.0781 8.57031 19.9141C7.67188 19.7109 6.96484 19.4453 6.44922 19.1172ZM13.0352 7.07031C12.2773 6.59375 10.6523 5.84375 8.16016 4.82031V16.4219C8.46484 16.6172 8.8125 16.7656 9.20312 16.8672C9.60156 16.9609 10.043 17.0078 10.5273 17.0078C12.2148 17.0078 13.4258 16.7734 14.1602 16.3047C14.8555 15.8594 15.4062 15.2539 15.8125 14.4883C16.2266 13.7227 16.4336 12.9258 16.4336 12.0977C16.4336 10.1602 15.3008 8.48438 13.0352 7.07031ZM33.6602 19.1406C33.2383 19.1406 32.8516 18.9766 32.5 18.6484C30.1328 16.4297 27.5312 14.8906 24.6953 14.0312C24.7812 16.3047 24.8242 17.5664 24.8242 17.8164C24.8242 18.2617 24.668 18.6406 24.3555 18.9531C24.043 19.2578 23.6523 19.4102 23.1836 19.4102C22.7148 19.4102 22.3242 19.2578 22.0117 18.9531C21.6992 18.6406 21.543 18.2617 21.543 17.8164C21.543 17.2305 21.5508 16.3555 21.5664 15.1914C21.582 14.0195 21.5898 13.1406 21.5898 12.5547L21.6133 3.09766C21.6133 2.58984 21.7656 2.12891 22.0703 1.71484C22.4688 1.18359 23.0195 0.945312 23.7227 1C25.6211 1.14062 26.5938 1.21484 26.6406 1.22266C27.7344 1.35547 28.6641 1.61719 29.4297 2.00781C32.7656 3.6875 34.4336 5.76953 34.4336 8.25391C34.4336 9.27734 34.082 10.1836 33.3789 10.9727C32.6836 11.7539 31.6367 12.4141 30.2383 12.9531C32.3086 14.1094 33.8672 15.2891 34.9141 16.4922C35.1875 16.8047 35.3242 17.1523 35.3242 17.5352C35.3242 17.9727 35.1602 18.3516 34.832 18.6719C34.5039 18.9844 34.1133 19.1406 33.6602 19.1406ZM26.1484 4.39844C26.0859 4.39062 25.6289 4.35938 24.7773 4.30469V10.5273C24.9727 10.5352 25.1445 10.5391 25.293 10.5391C27.207 10.5391 28.625 10.3008 29.5469 9.82422C29.9453 9.62109 30.3086 9.35156 30.6367 9.01562C30.9727 8.67969 31.1406 8.42578 31.1406 8.25391C31.1406 7.37891 30.5859 6.53516 29.4766 5.72266C28.4219 4.95703 27.3125 4.51562 26.1484 4.39844ZM45.0508 19.7148C42.7383 19.7148 40.7695 19.0508 39.1445 17.7227C37.4102 16.3008 36.543 14.4609 36.543 12.2031C36.543 9.54688 37.375 7.125 39.0391 4.9375C40.9062 2.47656 43.2578 1.24609 46.0938 1.24609C48.8203 1.24609 50.8633 1.87109 52.2227 3.12109C53.582 4.37109 54.2617 6.25 54.2617 8.75781C54.2617 11.4141 53.4961 13.8203 51.9648 15.9766C50.1992 18.4688 47.8945 19.7148 45.0508 19.7148ZM46.0938 4.42188C44.3516 4.42188 42.8594 5.26562 41.6172 6.95312C40.4531 8.53125 39.8711 10.2812 39.8711 12.2031C39.8711 13.5 40.375 14.5547 41.3828 15.3672C42.3516 16.1484 43.5742 16.5391 45.0508 16.5391C46.7695 16.5391 48.2031 15.6953 49.3516 14.0078C50.4062 12.4688 50.9336 10.7188 50.9336 8.75781C50.9336 7.11719 50.5664 5.97656 49.832 5.33594C49.1289 4.72656 47.8828 4.42188 46.0938 4.42188ZM59.8516 12.4609C59.7188 12.4609 59.3906 12.4336 58.8672 12.3789C58.8203 13.4727 58.7969 15.2695 58.7969 17.7695C58.7969 18.1836 58.6523 18.5391 58.3633 18.8359C58.0742 19.1328 57.707 19.2812 57.2617 19.2812C56.8164 19.2812 56.4453 19.1328 56.1484 18.8359C55.8594 18.5391 55.7148 18.1836 55.7148 17.7695V14.5C55.7148 13.2891 55.793 11.4961 55.9492 9.12109C56.0977 6.70703 56.1758 4.90625 56.1836 3.71875C56.1914 1.6875 56.7617 0.714844 57.8945 0.800781C58.1602 0.730469 58.5273 0.679688 58.9961 0.648438C59.4648 0.609375 60.0352 0.589844 60.707 0.589844C62.2383 0.589844 63.6758 1.08594 65.0195 2.07812C66.5117 3.1875 67.2578 4.53906 67.2578 6.13281C67.2578 8.13281 66.4648 9.72266 64.8789 10.9023C63.4727 11.9414 61.7969 12.4609 59.8516 12.4609ZM60.4375 3.61328C60.1875 3.61328 59.9648 3.61719 59.7695 3.625C59.582 3.625 59.4219 3.63281 59.2891 3.64844C59.2891 4.01562 59.2852 4.56641 59.2773 5.30078C59.2617 6.16797 59.1875 7.51953 59.0547 9.35547C59.4531 9.41797 59.7188 9.44922 59.8516 9.44922C61.0703 9.44922 62.082 9.16016 62.8867 8.58203C63.7461 7.96484 64.1758 7.14844 64.1758 6.13281C64.1758 5.46875 63.7734 4.87891 62.9688 4.36328C62.1953 3.86328 61.3516 3.61328 60.4375 3.61328ZM80.0195 18.5547C79.0977 18.9609 77.6719 19.3242 75.7422 19.6445C73.9766 19.9414 72.5273 20.0898 71.3945 20.0898C69.4805 20.0898 68.5234 19.25 68.5234 17.5703C68.5234 17.7031 68.6016 16.4648 68.7578 13.8555C68.9609 10.4648 69.0625 6.69141 69.0625 2.53516C69.0625 2.08984 69.2148 1.71094 69.5195 1.39844C69.832 1.08594 70.2227 0.929688 70.6914 0.929688C71.1602 0.929688 71.5508 1.08594 71.8633 1.39844C72.1758 1.71094 72.332 2.08984 72.332 2.53516C72.332 6.69922 72.2266 10.5352 72.0156 14.043C71.9453 14.668 71.8711 15.625 71.793 16.9141C73.6445 16.8828 76.0195 16.4297 78.918 15.5547C79.0977 15.5 79.2695 15.4727 79.4336 15.4727C79.9258 15.4727 80.3242 15.6523 80.6289 16.0117C80.9023 16.332 81.0391 16.6914 81.0391 17.0898C81.0391 17.7617 80.6992 18.25 80.0195 18.5547ZM92.2422 5.14844C91.8359 5.14844 90.7227 5.03906 88.9023 4.82031C88.793 6.25781 88.7383 8.16797 88.7383 10.5508L88.7266 15.8125C89.7656 15.7891 90.8242 15.7773 91.9023 15.7773C92.3711 15.7773 92.7578 15.9336 93.0625 16.2461C93.375 16.5586 93.5312 16.9336 93.5312 17.3711C93.5312 17.8086 93.375 18.1836 93.0625 18.4961C92.7578 18.8008 92.3711 18.9531 91.9023 18.9531C91.4648 18.9531 90.8086 18.9648 89.9336 18.9883C89.0586 19.0039 88.4023 19.0117 87.9648 19.0117C87.4492 19.0117 86.6758 19.0781 85.6445 19.2109C84.6133 19.3516 83.8398 19.4219 83.3242 19.4219C82.8555 19.4219 82.4648 19.2695 82.1523 18.9648C81.8477 18.6523 81.6953 18.2773 81.6953 17.8398C81.6953 17.4023 81.8477 17.0273 82.1523 16.7148C82.4648 16.4023 82.8555 16.2461 83.3242 16.2461C83.8555 16.2461 84.5547 16.1875 85.4219 16.0703C85.4062 15.1484 85.3984 13.3828 85.3984 10.7734C85.3984 8.64844 85.4766 6.62109 85.6328 4.69141L83.0898 4.76172C82.6211 4.76172 82.2266 4.60938 81.9062 4.30469C81.5938 4 81.4375 3.62109 81.4375 3.16797C81.4375 2.70703 81.5938 2.33203 81.9062 2.04297C82.1953 1.77734 82.5508 1.625 82.9727 1.58594C83.6602 1.52344 84.8555 1.49219 86.5586 1.49219C88.0898 1.49219 90.0625 1.65625 92.4766 1.98438C93.4375 2.11719 93.918 2.65625 93.918 3.60156C93.918 4.10156 93.7227 4.49609 93.332 4.78516C93.0117 5.02734 92.6484 5.14844 92.2422 5.14844ZM112.68 16.1172C112.68 16.5078 112.613 17.125 112.48 17.9688C112.324 18.9766 111.754 19.4805 110.77 19.4805C110.223 19.4805 109.605 19.1719 108.918 18.5547C105.91 15.8438 102.516 12.043 98.7344 7.15234C98.6875 9.18359 98.6641 10.4297 98.6641 10.8906C98.6641 11.5078 98.6758 12.4375 98.6992 13.6797C98.7305 14.9219 98.7461 15.8516 98.7461 16.4688C98.7461 18.7734 98.1836 19.9258 97.0586 19.9258C96.4883 19.9258 96.0312 19.75 95.6875 19.3984C95.3828 19.0859 95.2305 18.707 95.2305 18.2617C95.2305 17.9492 95.2539 17.4766 95.3008 16.8438C95.3555 16.2109 95.3828 15.7383 95.3828 15.4258C95.3828 14.9648 95.3984 14.2734 95.4297 13.3516C95.4609 12.4297 95.4766 11.7383 95.4766 11.2773C95.4766 10.7852 95.4648 10.043 95.4414 9.05078C95.418 8.05859 95.4062 7.31641 95.4062 6.82422C95.4062 6.35547 95.3594 5.65625 95.2656 4.72656C95.1719 3.79688 95.125 3.09766 95.125 2.62891C95.125 2.16016 95.3242 1.74219 95.7227 1.375C96.1289 1.00781 96.5898 0.824219 97.1055 0.824219C97.6836 0.824219 98.3242 1.32422 99.0273 2.32422C102.574 7.38672 106.074 11.5156 109.527 14.7109C109.535 14.4609 109.539 13.8672 109.539 12.9297C109.539 9.07812 109.5 6.48047 109.422 5.13672C109.406 4.91016 109.355 4.48828 109.27 3.87109C109.191 3.32422 109.152 2.89453 109.152 2.58203C109.152 1.50391 109.723 0.964844 110.863 0.964844C112.137 0.964844 112.773 2.92969 112.773 6.85938C112.773 6.94531 112.766 7.5625 112.75 8.71094C112.703 12.6797 112.68 15.1484 112.68 16.1172ZM129.32 12.1094C128.789 14.4375 127.719 16.3008 126.109 17.6992C124.477 19.1055 122.562 19.8086 120.367 19.8086C118.289 19.8086 116.73 19.2617 115.691 18.168C114.652 17.0664 114.133 15.418 114.133 13.2227C114.133 11.2227 114.625 9.17188 115.609 7.07031C116.594 4.96875 117.859 3.26562 119.406 1.96094C120.492 1.04688 121.656 0.589844 122.898 0.589844C123.656 0.589844 124.688 0.863281 125.992 1.41016C127.539 2.05859 128.312 2.75 128.312 3.48438C128.312 3.90625 128.152 4.28516 127.832 4.62109C127.512 4.94922 127.117 5.11328 126.648 5.11328C126.414 5.11328 125.895 4.89453 125.09 4.45703C124.293 4.01172 123.562 3.78906 122.898 3.78906C122.195 3.78906 121.246 4.54688 120.051 6.0625C118.309 8.26562 117.438 10.6523 117.438 13.2227C117.438 14.5273 117.629 15.4141 118.012 15.8828C118.418 16.375 119.203 16.6211 120.367 16.6211C121.562 16.6211 122.613 16.2812 123.52 15.6016C124.48 14.8828 125.191 13.8359 125.652 12.4609C123.84 12.6016 122.262 12.9727 120.918 13.5742C120.676 13.6836 120.434 13.7383 120.191 13.7383C119.707 13.7383 119.305 13.5586 118.984 13.1992C118.695 12.8789 118.551 12.5156 118.551 12.1094C118.551 10.9141 119.965 10.0781 122.793 9.60156C124.387 9.33594 126.246 9.20312 128.371 9.20312C128.84 9.20312 129.23 9.35547 129.543 9.66016C129.863 9.96484 130.023 10.3398 130.023 10.7852C130.023 11.3555 129.789 11.7969 129.32 12.1094ZM143.512 16.9727C142.941 17.7461 142.254 18.3906 141.449 18.9062C140.465 19.5312 139.453 19.8438 138.414 19.8438C136.422 19.8438 134.941 19.4609 133.973 18.6953C131.926 17.0781 130.902 14.2695 130.902 10.2695C130.902 9.88672 130.922 9.31641 130.961 8.55859C131 7.80078 131.02 7.23047 131.02 6.84766C131.02 6.54297 131.027 6.08984 131.043 5.48828C131.059 4.87891 131.066 4.42188 131.066 4.11719C131.066 3.49219 131.18 2.90234 131.406 2.34766C131.711 1.61328 132.137 1.24609 132.684 1.24609C133.113 1.24609 133.492 1.38672 133.82 1.66797C134.18 1.96484 134.359 2.34766 134.359 2.81641C134.359 3.26172 134.352 3.9375 134.336 4.84375C134.328 5.74219 134.324 6.41797 134.324 6.87109C134.324 7.24609 134.305 7.8125 134.266 8.57031C134.227 9.32812 134.207 9.89453 134.207 10.2695C134.207 11.4805 134.348 12.6055 134.629 13.6445C134.957 14.8867 135.438 15.7539 136.07 16.2461C136.398 16.5039 137.18 16.6406 138.414 16.6562C140.477 16.6875 141.867 14.9297 142.586 11.3828C142.961 9.54688 143.148 6.96875 143.148 3.64844C143.148 3.21094 143.277 2.78906 143.535 2.38281C143.887 1.84375 144.387 1.57422 145.035 1.57422C145.566 1.57422 145.965 1.76953 146.23 2.16016C146.434 2.44922 146.535 2.76953 146.535 3.12109C146.535 6.20703 146.391 8.61328 146.102 10.3398C145.664 13.0039 144.801 15.2148 143.512 16.9727ZM156.895 19.7148C154.582 19.7148 152.613 19.0508 150.988 17.7227C149.254 16.3008 148.387 14.4609 148.387 12.2031C148.387 9.54688 149.219 7.125 150.883 4.9375C152.75 2.47656 155.102 1.24609 157.938 1.24609C160.664 1.24609 162.707 1.87109 164.066 3.12109C165.426 4.37109 166.105 6.25 166.105 8.75781C166.105 11.4141 165.34 13.8203 163.809 15.9766C162.043 18.4688 159.738 19.7148 156.895 19.7148ZM157.938 4.42188C156.195 4.42188 154.703 5.26562 153.461 6.95312C152.297 8.53125 151.715 10.2812 151.715 12.2031C151.715 13.5 152.219 14.5547 153.227 15.3672C154.195 16.1484 155.418 16.5391 156.895 16.5391C158.613 16.5391 160.047 15.6953 161.195 14.0078C162.25 12.4688 162.777 10.7188 162.777 8.75781C162.777 7.11719 162.41 5.97656 161.676 5.33594C160.973 4.72656 159.727 4.42188 157.938 4.42188Z" fill="#F9F9F9"/>
</g>
<defs>
<filter id="filter0_d_341_342" x="0.820312" y="0.589844" width="169.285" height="27.5703" filterUnits="userSpaceOnUse" color-interpolation-filters="sRGB">
<feFlood flood-opacity="0" result="BackgroundImageFix"/>
<feColorMatrix in="SourceAlpha" type="matrix" values="0 0 0 0 0 0 0 0 0 0 0 0 0 0 0 0 0 0 127 0" result="hardAlpha"/>
<feOffset dy="4"/>
<feGaussianBlur stdDeviation="2"/>
<feComposite in2="hardAlpha" operator="out"/>
<feColorMatrix type="matrix" values="0 0 0 0 0 0 0 0 0 0 0 0 0 0 0 0 0 0 0.25 0"/>
<feBlend mode="normal" in2="BackgroundImageFix" result="effect1_dropShadow_341_342"/>
<feBlend mode="normal" in="SourceGraphic" in2="effect1_dropShadow_341_342" result="shape"/>
</filter>
</defs>
</svg>
