<svg width="46" height="46" viewBox="0 0 46 46" fill="none" xmlns="http://www.w3.org/2000/svg">
<g filter="url(#filter0_d_341_333)">
<path d="M21.2046 23.1562C21.2235 22.0347 21.3507 21.1488 21.5863 20.4985C21.8219 19.8482 22.3026 19.1272 23.0283 18.3356L24.8802 16.4271C25.6719 15.5317 26.0677 14.5704 26.0677 13.5432C26.0677 12.5536 25.8085 11.7808 25.2902 11.2247C24.7718 10.6592 24.0179 10.3765 23.0283 10.3765C22.067 10.3765 21.2941 10.631 20.7098 11.1399C20.1255 11.6488 19.8333 12.3321 19.8333 13.1897H17.218C17.2369 11.6629 17.7788 10.433 18.8438 9.5C19.9182 8.55754 21.313 8.08631 23.0283 8.08631C24.8095 8.08631 26.1949 8.56696 27.1845 9.52827C28.1835 10.4802 28.683 11.7902 28.683 13.4583C28.683 15.1076 27.9196 16.7334 26.3929 18.3356L24.8519 19.8624C24.1639 20.6257 23.8199 21.7237 23.8199 23.1562H21.2046Z" fill="#F7F7F7"/>
<path d="M21.0915 27.6376C21.0915 27.2135 21.2188 26.8601 21.4732 26.5774C21.7371 26.2852 22.1235 26.1391 22.6324 26.1391C23.1414 26.1391 23.5278 26.2852 23.7917 26.5774C24.0556 26.8601 24.1875 27.2135 24.1875 27.6376C24.1875 28.0618 24.0556 28.4152 23.7917 28.6979C23.5278 28.9712 23.1414 29.1079 22.6324 29.1079C22.1235 29.1079 21.7371 28.9712 21.4732 28.6979C21.2188 28.4152 21.0915 28.0618 21.0915 27.6376Z" fill="#F7F7F7"/>
<path fill-rule="evenodd" clip-rule="evenodd" d="M42 19C42 29.4934 33.4934 38 23 38C12.5066 38 4 29.4934 4 19C4 8.50659 12.5066 0 23 0C33.4934 0 42 8.50659 42 19ZM21.2046 23.1562C21.2235 22.0347 21.3507 21.1488 21.5863 20.4985C21.8219 19.8482 22.3026 19.1272 23.0283 18.3356L24.8802 16.4271C25.6719 15.5317 26.0677 14.5704 26.0677 13.5432C26.0677 12.5536 25.8085 11.7808 25.2902 11.2247C24.7718 10.6592 24.0179 10.3765 23.0283 10.3765C22.067 10.3765 21.2941 10.631 20.7098 11.1399C20.1255 11.6488 19.8333 12.3321 19.8333 13.1897H17.218C17.2369 11.6629 17.7788 10.433 18.8438 9.5C19.9182 8.55754 21.313 8.08631 23.0283 8.08631C24.8095 8.08631 26.1949 8.56696 27.1845 9.52827C28.1835 10.4802 28.683 11.7902 28.683 13.4583C28.683 15.1076 27.9196 16.7334 26.3929 18.3356L24.8519 19.8624C24.1639 20.6257 23.8199 21.7237 23.8199 23.1562H21.2046ZM21.4732 26.5774C21.2188 26.8601 21.0915 27.2135 21.0915 27.6376C21.0915 28.0618 21.2188 28.4152 21.4732 28.6979C21.7371 28.9712 22.1235 29.1079 22.6324 29.1079C23.1414 29.1079 23.5278 28.9712 23.7917 28.6979C24.0556 28.4152 24.1875 28.0618 24.1875 27.6376C24.1875 27.2135 24.0556 26.8601 23.7917 26.5774C23.5278 26.2852 23.1414 26.1391 22.6324 26.1391C22.1235 26.1391 21.7371 26.2852 21.4732 26.5774Z" fill="#E04463"/>
</g>
<defs>
<filter id="filter0_d_341_333" x="0" y="0" width="46" height="46" filterUnits="userSpaceOnUse" color-interpolation-filters="sRGB">
<feFlood flood-opacity="0" result="BackgroundImageFix"/>
<feColorMatrix in="SourceAlpha" type="matrix" values="0 0 0 0 0 0 0 0 0 0 0 0 0 0 0 0 0 0 127 0" result="hardAlpha"/>
<feOffset dy="4"/>
<feGaussianBlur stdDeviation="2"/>
<feComposite in2="hardAlpha" operator="out"/>
<feColorMatrix type="matrix" values="0 0 0 0 0 0 0 0 0 0 0 0 0 0 0 0 0 0 0.25 0"/>
<feBlend mode="normal" in2="BackgroundImageFix" result="effect1_dropShadow_341_333"/>
<feBlend mode="normal" in="SourceGraphic" in2="effect1_dropShadow_341_333" result="shape"/>
</filter>
</defs>
</svg>
