<svg width="348" height="322" viewBox="0 0 348 322" fill="none" xmlns="http://www.w3.org/2000/svg">
<path d="M314 172.5C314 250.648 250.648 314 172.5 314C135.178 314 101.23 299.55 75.9471 275.94C48.29 250.114 31 213.326 31 172.5C31 143.749 39.5745 117.002 54.3059 94.6742C79.6165 56.3124 123.102 31 172.5 31C195.238 31 216.722 36.363 235.759 45.893C246.618 51.3292 256.68 58.1213 265.724 66.0474C295.315 91.9828 314 130.059 314 172.5Z" fill="#F7F7F7"/>
<path d="M306 172.5C306 246.23 246.23 306 172.5 306C137.288 306 105.26 292.367 81.4059 270.092C55.3125 245.726 39 211.018 39 172.5C39 145.375 47.0898 120.139 60.9882 99.0743C84.8679 62.8813 125.895 39 172.5 39C193.952 39 214.222 44.0598 232.182 53.051C242.427 58.1798 251.921 64.5879 260.453 72.0659C288.372 96.535 306 132.459 306 172.5Z" fill="#57D62C"/>
<path fill-rule="evenodd" clip-rule="evenodd" d="M172.5 306C246.23 306 306 246.23 306 172.5C306 132.459 288.372 96.535 260.453 72.0659C255.741 79.3675 249.145 95.5412 260.453 101.824C274.588 109.676 265.165 120.671 255.741 130.094C250.676 135.16 258.771 143.402 267.829 152.625C275.623 160.56 284.13 169.222 285.582 177.212C288.724 194.488 255.741 210.194 246.318 213.335C239.978 215.448 239.325 204.768 238.62 193.248C238.277 187.643 237.922 181.838 236.894 177.212C234.657 167.144 229.233 171.417 222.892 176.413C220.33 178.431 217.618 180.568 214.906 181.924C205.482 186.635 196.059 183.494 186.635 177.212C177.212 170.929 185.065 164.647 192.918 159.935C200.771 155.224 181.924 142.659 166.218 137.947C150.512 133.235 161.506 111.247 163.076 112.818C164.647 114.388 191.347 106.535 189.776 93.9706C188.715 85.4758 204.165 84.8779 216.226 84.4111C222.005 84.1875 227.006 83.9939 229.041 82.9765C234.067 80.4635 233.229 61.9791 232.182 53.051C214.222 44.0598 193.952 39 172.5 39C125.895 39 84.8679 62.8813 60.9882 99.0743C74.6 104.702 99.3106 119.728 89.2588 134.806C85.1515 140.967 81.3799 145.449 78.328 149.077C72.0437 156.546 68.8108 160.388 71.9824 167.788C72.5761 169.174 73.1947 170.534 73.8006 171.866C78.003 181.107 81.5912 188.997 71.9824 194.488C63.1871 199.514 74.6 246.985 81.4059 270.092C105.26 292.367 137.288 306 172.5 306ZM175.641 196.059C163.6 192.394 136.376 186.949 123.812 194.488C108.106 203.912 98.6824 213.335 101.824 219.618C104.965 225.9 119.1 229.041 131.665 230.612C144.229 232.182 144.229 263.594 137.947 273.018C131.665 282.441 137.947 295.006 144.229 295.006C145.512 295.006 146.795 295.071 148.051 295.135C152.946 295.385 157.435 295.614 159.935 291.865C160.995 290.274 161.34 287.074 161.754 283.23C162.566 275.683 163.646 265.655 170.929 260.453C174.505 257.899 178.081 256.176 181.278 254.635C187.912 251.437 192.918 249.024 192.918 241.606C192.918 236.536 187.573 233.804 182.584 231.253C176.754 228.274 171.41 225.542 175.641 219.618C177.553 216.942 180.022 214.465 182.303 212.178C189.392 205.068 194.654 199.791 175.641 196.059ZM159.935 59.4176C160.982 66.7471 159.307 81.72 144.229 82.9765C125.382 84.5471 119.1 71.9824 123.812 65.7C125.835 63.0026 131.043 63.4901 137.074 64.0547C145.089 64.805 154.558 65.6914 159.935 59.4176ZM271.447 137.947C275.216 135.434 279.3 128.524 280.871 125.382C296.576 131.791 298.147 155.224 293.435 159.935C288.724 164.647 266.735 141.088 271.447 137.947Z" fill="#005EB7"/>
<path d="M318 172.5C318 140.612 307.742 111.121 290.346 87.1447C296.916 80.7822 301 71.868 301 62C301 42.67 285.33 27 266 27C254.049 27 243.497 32.9901 237.182 42.1318C217.698 32.4463 195.735 27 172.5 27C92.1426 27 27 92.1426 27 172.5C27 201.11 35.2575 227.791 49.5192 250.291C36.3523 255.318 27 268.067 27 283C27 302.33 42.67 318 62 318C76.9332 318 89.6822 308.648 94.7092 295.481C117.209 309.742 143.89 318 172.5 318C223.254 318 267.938 292.013 293.974 252.619C298.527 254.787 303.622 256 309 256C328.33 256 344 240.33 344 221C344 204.525 332.617 190.709 317.288 186.987C317.759 182.222 318 177.389 318 172.5ZM39 74C58.33 74 74 58.33 74 39C74 19.67 58.33 4 39 4C19.67 4 4 19.67 4 39C4 58.33 19.67 74 39 74Z" fill="#303030" stroke="#F7F7F7" stroke-width="8"/>
<g style="mix-blend-mode:multiply">
<circle cx="173" cy="173" r="40" fill="#800080" fill-opacity="0.3"/>
</g>
<path d="M174.258 161.07C169.069 161.07 168.625 164.896 168.553 169.529C168.54 170.331 167.891 170.977 167.09 170.977C166.275 170.977 165.615 170.309 165.628 169.494C165.719 163.886 166.15 158 173.84 158C181.434 158 182.141 163.699 182.205 169.512C182.214 170.321 181.556 170.977 180.747 170.977C179.937 170.977 179.284 170.321 179.277 169.512C179.238 164.854 178.812 161.07 174.258 161.07Z" fill="#999999"/>
<path d="M162 172.79C162 170.941 163.499 169.441 165.349 169.441H181.953C184.188 169.441 186 171.253 186 173.488V178.511C186 183.52 181.939 187.581 176.93 187.581H171.07C166.061 187.581 162 183.52 162 178.511V172.79Z" fill="#E68833"/>
<circle cx="173.86" cy="177.116" r="4.04651" fill="#393939"/>
<rect x="171.768" y="178.093" width="4.46512" height="7.53488" fill="#393939"/>
</svg>
