<svg width="130" height="166" viewBox="0 0 130 166" fill="none" xmlns="http://www.w3.org/2000/svg">
<g style="mix-blend-mode:multiply">
<rect width="130" height="166" rx="5" fill="#030158" fill-opacity="0.6"/>
</g>
<g style="mix-blend-mode:multiply">
<rect y="139" width="130" height="19" fill="#800080" fill-opacity="0.6"/>
</g>
<path d="M28.7812 149.945C28.7448 149.971 28.3151 150.273 27.4922 150.852C26.9661 151.216 26.5651 151.552 26.2891 151.859C26.0391 152.135 25.763 152.273 25.4609 152.273C25.1641 152.273 24.9036 152.167 24.6797 151.953C24.4557 151.734 24.3438 151.484 24.3438 151.203C24.3438 150.786 24.6797 150.32 25.3516 149.805C25.9714 149.367 26.5911 148.927 27.2109 148.484C27.8828 147.974 28.2188 147.513 28.2188 147.102C28.2188 146.617 27.9714 146.164 27.4766 145.742C26.987 145.315 26.4766 145.102 25.9453 145.102C25.6641 145.102 25.2786 145.263 24.7891 145.586C24.2995 145.904 23.9531 146.062 23.75 146.062C23.4427 146.062 23.1823 145.951 22.9688 145.727C22.7604 145.497 22.6562 145.245 22.6562 144.969C22.6562 144.448 23.112 143.971 24.0234 143.539C24.7943 143.169 25.4349 142.984 25.9453 142.984C27.0755 142.984 28.0964 143.401 29.0078 144.234C29.9245 145.068 30.3828 146.023 30.3828 147.102C30.3828 148.169 29.849 149.117 28.7812 149.945ZM25.0312 155.562C24.7344 155.562 24.4635 155.469 24.2188 155.281C23.9531 155.073 23.8203 154.815 23.8203 154.508C23.8203 154.154 23.9245 153.826 24.1328 153.523C24.3828 153.154 24.7188 152.969 25.1406 152.969C25.4948 152.969 25.7708 153.102 25.9688 153.367C26.125 153.586 26.2031 153.844 26.2031 154.141C26.2031 154.458 26.1172 154.755 25.9453 155.031C25.7266 155.385 25.4219 155.562 25.0312 155.562ZM37.8438 149.945C37.8073 149.971 37.3776 150.273 36.5547 150.852C36.0286 151.216 35.6276 151.552 35.3516 151.859C35.1016 152.135 34.8255 152.273 34.5234 152.273C34.2266 152.273 33.9661 152.167 33.7422 151.953C33.5182 151.734 33.4062 151.484 33.4062 151.203C33.4062 150.786 33.7422 150.32 34.4141 149.805C35.0339 149.367 35.6536 148.927 36.2734 148.484C36.9453 147.974 37.2812 147.513 37.2812 147.102C37.2812 146.617 37.0339 146.164 36.5391 145.742C36.0495 145.315 35.5391 145.102 35.0078 145.102C34.7266 145.102 34.3411 145.263 33.8516 145.586C33.362 145.904 33.0156 146.062 32.8125 146.062C32.5052 146.062 32.2448 145.951 32.0312 145.727C31.8229 145.497 31.7188 145.245 31.7188 144.969C31.7188 144.448 32.1745 143.971 33.0859 143.539C33.8568 143.169 34.4974 142.984 35.0078 142.984C36.138 142.984 37.1589 143.401 38.0703 144.234C38.987 145.068 39.4453 146.023 39.4453 147.102C39.4453 148.169 38.9115 149.117 37.8438 149.945ZM34.0938 155.562C33.7969 155.562 33.526 155.469 33.2812 155.281C33.0156 155.073 32.8828 154.815 32.8828 154.508C32.8828 154.154 32.987 153.826 33.1953 153.523C33.4453 153.154 33.7812 152.969 34.2031 152.969C34.5573 152.969 34.8333 153.102 35.0312 153.367C35.1875 153.586 35.2656 153.844 35.2656 154.141C35.2656 154.458 35.1797 154.755 35.0078 155.031C34.7891 155.385 34.4844 155.562 34.0938 155.562ZM46.9062 149.945C46.8698 149.971 46.4401 150.273 45.6172 150.852C45.0911 151.216 44.6901 151.552 44.4141 151.859C44.1641 152.135 43.888 152.273 43.5859 152.273C43.2891 152.273 43.0286 152.167 42.8047 151.953C42.5807 151.734 42.4688 151.484 42.4688 151.203C42.4688 150.786 42.8047 150.32 43.4766 149.805C44.0964 149.367 44.7161 148.927 45.3359 148.484C46.0078 147.974 46.3438 147.513 46.3438 147.102C46.3438 146.617 46.0964 146.164 45.6016 145.742C45.112 145.315 44.6016 145.102 44.0703 145.102C43.7891 145.102 43.4036 145.263 42.9141 145.586C42.4245 145.904 42.0781 146.062 41.875 146.062C41.5677 146.062 41.3073 145.951 41.0938 145.727C40.8854 145.497 40.7812 145.245 40.7812 144.969C40.7812 144.448 41.237 143.971 42.1484 143.539C42.9193 143.169 43.5599 142.984 44.0703 142.984C45.2005 142.984 46.2214 143.401 47.1328 144.234C48.0495 145.068 48.5078 146.023 48.5078 147.102C48.5078 148.169 47.974 149.117 46.9062 149.945ZM43.1562 155.562C42.8594 155.562 42.5885 155.469 42.3438 155.281C42.0781 155.073 41.9453 154.815 41.9453 154.508C41.9453 154.154 42.0495 153.826 42.2578 153.523C42.5078 153.154 42.8438 152.969 43.2656 152.969C43.6198 152.969 43.8958 153.102 44.0938 153.367C44.25 153.586 44.3281 153.844 44.3281 154.141C44.3281 154.458 44.2422 154.755 44.0703 155.031C43.8516 155.385 43.5469 155.562 43.1562 155.562ZM64.9219 155.094C64.6406 155.094 64.3828 154.984 64.1484 154.766C62.5703 153.286 60.8359 152.26 58.9453 151.688C59.0026 153.203 59.0312 154.044 59.0312 154.211C59.0312 154.508 58.9271 154.76 58.7188 154.969C58.5104 155.172 58.25 155.273 57.9375 155.273C57.625 155.273 57.3646 155.172 57.1562 154.969C56.9479 154.76 56.8438 154.508 56.8438 154.211C56.8438 153.82 56.849 153.237 56.8594 152.461C56.8698 151.68 56.875 151.094 56.875 150.703L56.8906 144.398C56.8906 144.06 56.9922 143.753 57.1953 143.477C57.4609 143.122 57.8281 142.964 58.2969 143C59.5625 143.094 60.2109 143.143 60.2422 143.148C60.9714 143.237 61.5911 143.411 62.1016 143.672C64.3255 144.792 65.4375 146.18 65.4375 147.836C65.4375 148.518 65.2031 149.122 64.7344 149.648C64.2708 150.169 63.5729 150.609 62.6406 150.969C64.0208 151.74 65.0599 152.526 65.7578 153.328C65.9401 153.536 66.0312 153.768 66.0312 154.023C66.0312 154.315 65.9219 154.568 65.7031 154.781C65.4844 154.99 65.224 155.094 64.9219 155.094ZM59.9141 145.266C59.8724 145.26 59.5677 145.24 59 145.203V149.352C59.1302 149.357 59.2448 149.359 59.3438 149.359C60.6198 149.359 61.5651 149.201 62.1797 148.883C62.4453 148.747 62.6875 148.568 62.9062 148.344C63.1302 148.12 63.2422 147.951 63.2422 147.836C63.2422 147.253 62.8724 146.69 62.1328 146.148C61.4297 145.638 60.6901 145.344 59.9141 145.266ZM75.0391 144.984C74.9349 144.984 74.8255 144.969 74.7109 144.938C73.8672 144.708 73.0469 144.594 72.25 144.594C71.8594 144.594 71.4401 144.625 70.9922 144.688C70.5443 144.75 70.0677 144.844 69.5625 144.969C69.5625 145.661 69.5391 146.69 69.4922 148.055C69.7839 148.034 70.8021 147.938 72.5469 147.766C73.5417 147.667 74.1719 147.617 74.4375 147.617C74.7448 147.617 75.0078 147.716 75.2266 147.914C75.4453 148.107 75.5547 148.365 75.5547 148.688C75.5547 149.307 75.224 149.659 74.5625 149.742C74.1458 149.773 73.5234 149.826 72.6953 149.898C71.9557 149.982 70.8411 150.083 69.3516 150.203C69.3151 150.865 69.2969 151.398 69.2969 151.805C69.2969 152.826 69.3568 153.406 69.4766 153.547C69.5339 153.615 69.862 153.648 70.4609 153.648C70.7839 153.648 71.2708 153.641 71.9219 153.625C72.5729 153.609 73.0599 153.602 73.3828 153.602C73.487 153.602 73.6406 153.586 73.8438 153.555C74.0469 153.523 74.1979 153.508 74.2969 153.508C74.599 153.508 74.8568 153.594 75.0703 153.766C75.3151 153.958 75.4375 154.229 75.4375 154.578C75.4375 155.161 75.1328 155.51 74.5234 155.625C74.0026 155.724 72.9219 155.773 71.2812 155.773C69.5833 155.773 68.4766 155.544 67.9609 155.086C67.3932 154.581 67.1094 153.487 67.1094 151.805C67.1094 151.107 67.1589 150.06 67.2578 148.664C67.362 147.263 67.4141 146.216 67.4141 145.523C67.4141 145.341 67.388 145.073 67.3359 144.719C67.2839 144.359 67.2578 144.089 67.2578 143.906C67.2578 143.115 67.6224 142.719 68.3516 142.719C68.5807 142.719 68.7917 142.784 68.9844 142.914C69.5885 142.763 70.1615 142.651 70.7031 142.578C71.25 142.5 71.7656 142.461 72.25 142.461C73.5625 142.461 74.612 142.612 75.3984 142.914C75.8776 143.096 76.1172 143.427 76.1172 143.906C76.1172 144.177 76.0234 144.417 75.8359 144.625C75.6276 144.865 75.362 144.984 75.0391 144.984ZM86.1406 155.234C85.7292 155.219 85.3151 154.734 84.8984 153.781C84.6224 153.167 84.3854 152.458 84.1875 151.656C83.8021 151.714 83.1719 151.771 82.2969 151.828C81.474 151.885 80.8438 151.953 80.4062 152.031C80.1667 152.604 79.75 153.466 79.1562 154.617C78.9271 154.992 78.6094 155.18 78.2031 155.18C77.9167 155.18 77.6589 155.083 77.4297 154.891C77.2005 154.693 77.0859 154.443 77.0859 154.141C77.0859 153.875 77.4661 152.974 78.2266 151.438C78.1536 151.276 78.1224 151.125 78.1328 150.984C78.1536 150.734 78.4062 150.539 78.8906 150.398C79.6302 149.117 80.4531 147.789 81.3594 146.414C82.6615 144.44 83.4635 143.453 83.7656 143.453C84.3385 143.453 84.7214 143.799 84.9141 144.492C85.0182 145.049 85.1823 145.885 85.4062 147C85.724 148.5 86.112 150.216 86.5703 152.148C86.6068 152.294 86.7396 152.638 86.9688 153.18C87.1562 153.628 87.25 153.964 87.25 154.188C87.25 154.49 87.1354 154.742 86.9062 154.945C86.6823 155.148 86.4271 155.245 86.1406 155.234ZM83.2266 147.219C82.8203 147.917 82.2604 148.867 81.5469 150.07C81.7812 150.018 82.1458 149.977 82.6406 149.945C83.224 149.909 83.5911 149.88 83.7422 149.859C83.6172 149.182 83.4453 148.302 83.2266 147.219ZM95.5547 145.766C95.2839 145.766 94.5417 145.693 93.3281 145.547C93.2552 146.505 93.2188 147.779 93.2188 149.367L93.2109 152.875C93.9036 152.859 94.6094 152.852 95.3281 152.852C95.6406 152.852 95.8984 152.956 96.1016 153.164C96.3099 153.372 96.4141 153.622 96.4141 153.914C96.4141 154.206 96.3099 154.456 96.1016 154.664C95.8984 154.867 95.6406 154.969 95.3281 154.969C95.0365 154.969 94.599 154.977 94.0156 154.992C93.4323 155.003 92.9948 155.008 92.7031 155.008C92.3594 155.008 91.8438 155.052 91.1562 155.141C90.4688 155.234 89.9531 155.281 89.6094 155.281C89.2969 155.281 89.0365 155.18 88.8281 154.977C88.625 154.768 88.5234 154.518 88.5234 154.227C88.5234 153.935 88.625 153.685 88.8281 153.477C89.0365 153.268 89.2969 153.164 89.6094 153.164C89.9635 153.164 90.4297 153.125 91.0078 153.047C90.9974 152.432 90.9922 151.255 90.9922 149.516C90.9922 148.099 91.0443 146.747 91.1484 145.461L89.4531 145.508C89.1406 145.508 88.8776 145.406 88.6641 145.203C88.4557 145 88.3516 144.747 88.3516 144.445C88.3516 144.138 88.4557 143.888 88.6641 143.695C88.8568 143.518 89.0938 143.417 89.375 143.391C89.8333 143.349 90.6302 143.328 91.7656 143.328C92.7865 143.328 94.1016 143.438 95.7109 143.656C96.3516 143.745 96.6719 144.104 96.6719 144.734C96.6719 145.068 96.5417 145.331 96.2812 145.523C96.0677 145.685 95.8255 145.766 95.5547 145.766ZM101.289 155.477C99.9661 155.477 98.9245 155.182 98.1641 154.594C97.5234 154.104 97.2031 153.539 97.2031 152.898C97.2031 152.57 97.3021 152.299 97.5 152.086C97.6979 151.867 97.9714 151.758 98.3203 151.758C98.7891 151.758 99.1328 151.997 99.3516 152.477C99.6484 153.117 100.32 153.438 101.367 153.438C102.263 153.438 103.13 153.242 103.969 152.852C104.839 152.451 105.273 152.01 105.273 151.531C105.273 150.875 105.003 150.443 104.461 150.234C104.076 150.083 103.302 149.995 102.141 149.969C101.24 149.948 100.432 149.779 99.7188 149.461C98.7552 149.029 98.2812 148.409 98.2969 147.602C98.3125 146.586 98.8542 145.656 99.9219 144.812C100.99 143.964 102.167 143.539 103.453 143.539C103.964 143.539 104.594 143.656 105.344 143.891C106.276 144.182 106.742 144.518 106.742 144.898C106.742 145.169 106.648 145.409 106.461 145.617C106.253 145.852 105.984 145.969 105.656 145.969C105.411 145.969 105.044 145.917 104.555 145.812C104.07 145.708 103.703 145.656 103.453 145.656C102.781 145.661 102.143 145.823 101.539 146.141C100.914 146.464 100.602 146.815 100.602 147.195C100.602 147.393 100.695 147.557 100.883 147.688C101.076 147.812 101.362 147.901 101.742 147.953C102.409 147.99 103.073 148.026 103.734 148.062C104.891 148.151 105.805 148.477 106.477 149.039C107.216 149.664 107.586 150.529 107.586 151.633C107.586 152.977 106.82 153.995 105.289 154.688C104.122 155.214 102.789 155.477 101.289 155.477Z" fill="#E7C428"/>
<circle cx="65" cy="73" r="14" fill="#110E4F"/>
<path d="M69.0498 76.0713C69.0498 75.251 69.1494 74.5977 69.3486 74.1113C69.5479 73.625 69.9111 73.1475 70.4385 72.6787C70.9717 72.2041 71.3262 71.8203 71.502 71.5273C71.6777 71.2285 71.7656 70.915 71.7656 70.5869C71.7656 69.5967 71.3086 69.1016 70.3945 69.1016C69.9609 69.1016 69.6123 69.2363 69.3486 69.5059C69.0908 69.7695 68.9561 70.1357 68.9443 70.6045H66.3955C66.4072 69.4854 66.7676 68.6094 67.4766 67.9766C68.1914 67.3438 69.1641 67.0273 70.3945 67.0273C71.6367 67.0273 72.6006 67.3291 73.2861 67.9326C73.9717 68.5303 74.3145 69.377 74.3145 70.4727C74.3145 70.9707 74.2031 71.4424 73.9805 71.8877C73.7578 72.3271 73.3682 72.8164 72.8115 73.3555L72.0996 74.0322C71.6543 74.46 71.3994 74.9609 71.335 75.5352L71.2998 76.0713H69.0498ZM68.7949 78.7695C68.7949 78.377 68.9268 78.0547 69.1904 77.8027C69.46 77.5449 69.8027 77.416 70.2188 77.416C70.6348 77.416 70.9746 77.5449 71.2383 77.8027C71.5078 78.0547 71.6426 78.377 71.6426 78.7695C71.6426 79.1562 71.5107 79.4756 71.2471 79.7275C70.9893 79.9795 70.6465 80.1055 70.2188 80.1055C69.791 80.1055 69.4453 79.9795 69.1816 79.7275C68.9238 79.4756 68.7949 79.1562 68.7949 78.7695Z" fill="#F7F7F7"/>
<g style="mix-blend-mode:multiply">
<path d="M69.0498 76.0713C69.0498 75.251 69.1494 74.5977 69.3486 74.1113C69.5479 73.625 69.9111 73.1475 70.4385 72.6787C70.9717 72.2041 71.3262 71.8203 71.502 71.5273C71.6777 71.2285 71.7656 70.915 71.7656 70.5869C71.7656 69.5967 71.3086 69.1016 70.3945 69.1016C69.9609 69.1016 69.6123 69.2363 69.3486 69.5059C69.0908 69.7695 68.9561 70.1357 68.9443 70.6045H66.3955C66.4072 69.4854 66.7676 68.6094 67.4766 67.9766C68.1914 67.3438 69.1641 67.0273 70.3945 67.0273C71.6367 67.0273 72.6006 67.3291 73.2861 67.9326C73.9717 68.5303 74.3145 69.377 74.3145 70.4727C74.3145 70.9707 74.2031 71.4424 73.9805 71.8877C73.7578 72.3271 73.3682 72.8164 72.8115 73.3555L72.0996 74.0322C71.6543 74.46 71.3994 74.9609 71.335 75.5352L71.2998 76.0713H69.0498ZM68.7949 78.7695C68.7949 78.377 68.9268 78.0547 69.1904 77.8027C69.46 77.5449 69.8027 77.416 70.2188 77.416C70.6348 77.416 70.9746 77.5449 71.2383 77.8027C71.5078 78.0547 71.6426 78.377 71.6426 78.7695C71.6426 79.1562 71.5107 79.4756 71.2471 79.7275C70.9893 79.9795 70.6465 80.1055 70.2188 80.1055C69.791 80.1055 69.4453 79.9795 69.1816 79.7275C68.9238 79.4756 68.7949 79.1562 68.7949 78.7695Z" fill="#800080" fill-opacity="0.3"/>
</g>
<path d="M57.0498 76.0713C57.0498 75.251 57.1494 74.5977 57.3486 74.1113C57.5479 73.625 57.9111 73.1475 58.4385 72.6787C58.9717 72.2041 59.3262 71.8203 59.502 71.5273C59.6777 71.2285 59.7656 70.915 59.7656 70.5869C59.7656 69.5967 59.3086 69.1016 58.3945 69.1016C57.9609 69.1016 57.6123 69.2363 57.3486 69.5059C57.0908 69.7695 56.9561 70.1357 56.9443 70.6045H54.3955C54.4072 69.4854 54.7676 68.6094 55.4766 67.9766C56.1914 67.3438 57.1641 67.0273 58.3945 67.0273C59.6367 67.0273 60.6006 67.3291 61.2861 67.9326C61.9717 68.5303 62.3145 69.377 62.3145 70.4727C62.3145 70.9707 62.2031 71.4424 61.9805 71.8877C61.7578 72.3271 61.3682 72.8164 60.8115 73.3555L60.0996 74.0322C59.6543 74.46 59.3994 74.9609 59.335 75.5352L59.2998 76.0713H57.0498ZM56.7949 78.7695C56.7949 78.377 56.9268 78.0547 57.1904 77.8027C57.46 77.5449 57.8027 77.416 58.2188 77.416C58.6348 77.416 58.9746 77.5449 59.2383 77.8027C59.5078 78.0547 59.6426 78.377 59.6426 78.7695C59.6426 79.1562 59.5107 79.4756 59.2471 79.7275C58.9893 79.9795 58.6465 80.1055 58.2188 80.1055C57.791 80.1055 57.4453 79.9795 57.1816 79.7275C56.9238 79.4756 56.7949 79.1562 56.7949 78.7695Z" fill="#F7F7F7"/>
<g style="mix-blend-mode:multiply">
<path d="M57.0498 76.0713C57.0498 75.251 57.1494 74.5977 57.3486 74.1113C57.5479 73.625 57.9111 73.1475 58.4385 72.6787C58.9717 72.2041 59.3262 71.8203 59.502 71.5273C59.6777 71.2285 59.7656 70.915 59.7656 70.5869C59.7656 69.5967 59.3086 69.1016 58.3945 69.1016C57.9609 69.1016 57.6123 69.2363 57.3486 69.5059C57.0908 69.7695 56.9561 70.1357 56.9443 70.6045H54.3955C54.4072 69.4854 54.7676 68.6094 55.4766 67.9766C56.1914 67.3438 57.1641 67.0273 58.3945 67.0273C59.6367 67.0273 60.6006 67.3291 61.2861 67.9326C61.9717 68.5303 62.3145 69.377 62.3145 70.4727C62.3145 70.9707 62.2031 71.4424 61.9805 71.8877C61.7578 72.3271 61.3682 72.8164 60.8115 73.3555L60.0996 74.0322C59.6543 74.46 59.3994 74.9609 59.335 75.5352L59.2998 76.0713H57.0498ZM56.7949 78.7695C56.7949 78.377 56.9268 78.0547 57.1904 77.8027C57.46 77.5449 57.8027 77.416 58.2188 77.416C58.6348 77.416 58.9746 77.5449 59.2383 77.8027C59.5078 78.0547 59.6426 78.377 59.6426 78.7695C59.6426 79.1562 59.5107 79.4756 59.2471 79.7275C58.9893 79.9795 58.6465 80.1055 58.2188 80.1055C57.791 80.1055 57.4453 79.9795 57.1816 79.7275C56.9238 79.4756 56.7949 79.1562 56.7949 78.7695Z" fill="#800080" fill-opacity="0.3"/>
</g>
<path d="M63.0498 74.0713C63.0498 73.251 63.1494 72.5977 63.3486 72.1113C63.5479 71.625 63.9111 71.1475 64.4385 70.6787C64.9717 70.2041 65.3262 69.8203 65.502 69.5273C65.6777 69.2285 65.7656 68.915 65.7656 68.5869C65.7656 67.5967 65.3086 67.1016 64.3945 67.1016C63.9609 67.1016 63.6123 67.2363 63.3486 67.5059C63.0908 67.7695 62.9561 68.1357 62.9443 68.6045H60.3955C60.4072 67.4854 60.7676 66.6094 61.4766 65.9766C62.1914 65.3438 63.1641 65.0273 64.3945 65.0273C65.6367 65.0273 66.6006 65.3291 67.2861 65.9326C67.9717 66.5303 68.3145 67.377 68.3145 68.4727C68.3145 68.9707 68.2031 69.4424 67.9805 69.8877C67.7578 70.3271 67.3682 70.8164 66.8115 71.3555L66.0996 72.0322C65.6543 72.46 65.3994 72.9609 65.335 73.5352L65.2998 74.0713H63.0498ZM62.7949 76.7695C62.7949 76.377 62.9268 76.0547 63.1904 75.8027C63.46 75.5449 63.8027 75.416 64.2188 75.416C64.6348 75.416 64.9746 75.5449 65.2383 75.8027C65.5078 76.0547 65.6426 76.377 65.6426 76.7695C65.6426 77.1562 65.5107 77.4756 65.2471 77.7275C64.9893 77.9795 64.6465 78.1055 64.2188 78.1055C63.791 78.1055 63.4453 77.9795 63.1816 77.7275C62.9238 77.4756 62.7949 77.1562 62.7949 76.7695Z" fill="#F7F7F7"/>
<path d="M28.0469 44.0547C28.0417 43.8359 28.1146 43.6589 28.2656 43.5234C28.4219 43.3828 28.612 43.3125 28.8359 43.3125C29.0911 43.3125 29.3151 43.4583 29.5078 43.75C29.7734 44.1458 30.0104 44.4141 30.2188 44.5547C30.6615 44.8464 31.3047 44.9922 32.1484 44.9922C32.9557 44.9922 33.7057 44.8177 34.3984 44.4688C35.2839 44.0208 35.7266 43.3984 35.7266 42.6016C35.7266 41.9453 35.3542 41.4271 34.6094 41.0469C33.9792 40.7188 33.2005 40.5417 32.2734 40.5156C31.4505 40.4844 30.75 40.3047 30.1719 39.9766C29.4323 39.5547 29.0625 38.9505 29.0625 38.1641C29.0625 37.237 29.5885 36.3906 30.6406 35.625C31.6458 34.901 32.6849 34.5391 33.7578 34.5391C34.263 34.5391 34.8333 34.625 35.4688 34.7969C36.3125 35.0208 36.7344 35.3073 36.7344 35.6562C36.7344 36.1146 36.5 36.3438 36.0312 36.3438C35.8229 36.3438 35.4583 36.2891 34.9375 36.1797C34.4167 36.0651 34.013 36.0104 33.7266 36.0156C32.9141 36.026 32.224 36.2266 31.6562 36.6172C31.0729 37.0182 30.7812 37.5052 30.7812 38.0781C30.7812 38.5104 31.1667 38.8151 31.9375 38.9922C32.224 39.0599 32.7786 39.1224 33.6016 39.1797C34.7943 39.2682 35.7266 39.6432 36.3984 40.3047C37.013 40.9089 37.3203 41.6458 37.3203 42.5156C37.3203 43.7552 36.7474 44.7448 35.6016 45.4844C34.6068 46.125 33.4531 46.4453 32.1406 46.4453C31.1875 46.4453 30.3151 46.263 29.5234 45.8984C28.5547 45.4505 28.0625 44.8359 28.0469 44.0547ZM46.8047 35.4844C46.7318 35.4844 46.651 35.4714 46.5625 35.4453C45.6823 35.1953 44.8333 35.0703 44.0156 35.0703C43.5885 35.0703 43.1224 35.1094 42.6172 35.1875C42.112 35.2656 41.5677 35.3854 40.9844 35.5469C41.0312 35.8854 41.0547 36.1562 41.0547 36.3594C41.0547 37.0833 41.0104 38.0781 40.9219 39.3438L44.3438 39.0156C45.349 38.9115 45.9661 38.8594 46.1953 38.8594C46.4245 38.8594 46.6172 38.9323 46.7734 39.0781C46.9297 39.224 47.0078 39.4193 47.0078 39.6641C47.0078 40.138 46.7682 40.4036 46.2891 40.4609L44.4297 40.625L40.8203 40.9531C40.7995 41.3229 40.7812 41.6745 40.7656 42.0078C40.7552 42.3359 40.75 42.6432 40.75 42.9297C40.75 44.0807 40.8333 44.7578 41 44.9609C41.125 45.1068 41.5339 45.1797 42.2266 45.1797C42.5495 45.1797 43.0339 45.1719 43.6797 45.1562C44.3307 45.1354 44.8203 45.125 45.1484 45.125C45.2526 45.125 45.4062 45.1094 45.6094 45.0781C45.8125 45.0417 45.9635 45.0234 46.0625 45.0234C46.6146 45.0234 46.8906 45.2943 46.8906 45.8359C46.8906 46.2734 46.6693 46.5365 46.2266 46.625C45.737 46.724 44.6771 46.7734 43.0469 46.7734C41.4323 46.7734 40.3958 46.5599 39.9375 46.1328C39.4375 45.6693 39.1875 44.6016 39.1875 42.9297C39.1875 42.5964 39.1953 42.2318 39.2109 41.8359C39.2266 41.4401 39.2474 41.013 39.2734 40.5547C39.2161 40.4349 39.1875 40.3073 39.1875 40.1719C39.1875 39.9948 39.237 39.8359 39.3359 39.6953C39.4401 38.1901 39.4922 37.0781 39.4922 36.3594C39.4922 36.1667 39.4661 35.8854 39.4141 35.5156C39.362 35.1406 39.3359 34.8568 39.3359 34.6641C39.3359 34.0443 39.5964 33.7344 40.1172 33.7344C40.3359 33.7344 40.5234 33.8099 40.6797 33.9609C41.3047 33.7943 41.8932 33.6693 42.4453 33.5859C43.0026 33.5026 43.526 33.4609 44.0156 33.4609C45.2812 33.4609 46.2917 33.612 47.0469 33.9141C47.3958 34.0547 47.5703 34.3047 47.5703 34.6641C47.5703 34.8724 47.5026 35.0573 47.3672 35.2188C47.2161 35.3958 47.0286 35.4844 46.8047 35.4844ZM58.25 41.2734C57.9271 42.8724 57.2474 44.151 56.2109 45.1094C55.1797 46.0625 53.9609 46.5391 52.5547 46.5391C51.2734 46.5391 50.3125 46.1823 49.6719 45.4688C49.0312 44.75 48.7109 43.6745 48.7109 42.2422C48.7109 40.8932 49.0286 39.5052 49.6641 38.0781C50.3047 36.6458 51.125 35.4896 52.125 34.6094C52.7917 34.0208 53.4974 33.7266 54.2422 33.7266C54.7161 33.7266 55.3411 33.8828 56.1172 34.1953C57.0651 34.5703 57.5391 34.9844 57.5391 35.4375C57.5391 35.651 57.4609 35.8411 57.3047 36.0078C57.1484 36.1745 56.9609 36.2578 56.7422 36.2578C56.6276 36.2578 56.4661 36.1927 56.2578 36.0625C55.4609 35.5781 54.7891 35.3359 54.2422 35.3359C53.8516 35.3359 53.4427 35.5391 53.0156 35.9453C52.8021 36.1484 52.4948 36.5182 52.0938 37.0547C50.8906 38.6484 50.2891 40.3776 50.2891 42.2422C50.2891 43.2214 50.4401 43.9062 50.7422 44.2969C51.0703 44.724 51.6745 44.9375 52.5547 44.9375C53.487 44.9375 54.2969 44.6432 54.9844 44.0547C55.7083 43.4297 56.2135 42.5365 56.5 41.375C55.0573 41.4479 53.8203 41.7266 52.7891 42.2109C52.6693 42.2682 52.5521 42.2969 52.4375 42.2969C52.2083 42.2969 52.0182 42.2083 51.8672 42.0312C51.7266 41.8698 51.6562 41.6823 51.6562 41.4688C51.6562 41.1823 51.7943 40.9531 52.0703 40.7812C53.1953 40.0938 55.1354 39.75 57.8906 39.75C58.1146 39.75 58.3021 39.8255 58.4531 39.9766C58.6042 40.1276 58.6797 40.3177 58.6797 40.5469C58.6797 40.8854 58.5365 41.1276 58.25 41.2734ZM67.7656 46.0859C67.5677 46.0859 67.3828 46.0026 67.2109 45.8359C65.487 44.1328 63.5703 42.987 61.4609 42.3984L61.5234 43.9297L61.5625 45.4688C61.5625 45.6979 61.487 45.888 61.3359 46.0391C61.1901 46.1953 61.0052 46.2734 60.7812 46.2734C60.5573 46.2734 60.3698 46.1953 60.2188 46.0391C60.0729 45.888 60 45.6979 60 45.4688C60 45.0573 59.9792 44.4453 59.9375 43.6328C59.901 42.8151 59.8828 42.2005 59.8828 41.7891C59.8828 41.3099 59.9349 40.5964 60.0391 39.6484C60.1432 38.7005 60.1953 37.9896 60.1953 37.5156C60.1953 37.25 60.1693 36.8568 60.1172 36.3359C60.0703 35.8151 60.0469 35.4219 60.0469 35.1562C60.0469 34.8594 60.1302 34.599 60.2969 34.375C60.4948 34.099 60.7682 33.974 61.1172 34L63 34.1484C63.7135 34.237 64.3151 34.4115 64.8047 34.6719C66.9141 35.7917 67.9688 37.1589 67.9688 38.7734C67.9688 39.5651 67.6094 40.2656 66.8906 40.875C66.3125 41.3646 65.5911 41.737 64.7266 41.9922C66.3464 42.862 67.5573 43.7786 68.3594 44.7422C68.4948 44.9089 68.5625 45.0859 68.5625 45.2734C68.5625 45.4922 68.4818 45.6823 68.3203 45.8438C68.1641 46.0052 67.9792 46.0859 67.7656 46.0859ZM62.7891 35.7578L61.6328 35.6641L61.7109 36.6094C61.7474 36.9948 61.7656 37.3099 61.7656 37.5547C61.7656 37.9714 61.7318 38.4896 61.6641 39.1094L61.5 40.6641C61.5729 40.6641 61.6849 40.6667 61.8359 40.6719C61.9922 40.6771 62.1094 40.6797 62.1875 40.6797C63.5156 40.6797 64.5104 40.5026 65.1719 40.1484C65.4635 39.987 65.7344 39.776 65.9844 39.5156C66.2604 39.224 66.3984 38.9766 66.3984 38.7734C66.3984 38.0495 65.987 37.375 65.1641 36.75C64.4089 36.1771 63.6172 35.8464 62.7891 35.7578ZM77.7422 35.4844C77.6693 35.4844 77.5885 35.4714 77.5 35.4453C76.6198 35.1953 75.7708 35.0703 74.9531 35.0703C74.526 35.0703 74.0599 35.1094 73.5547 35.1875C73.0495 35.2656 72.5052 35.3854 71.9219 35.5469C71.9688 35.8854 71.9922 36.1562 71.9922 36.3594C71.9922 37.0833 71.9479 38.0781 71.8594 39.3438L75.2812 39.0156C76.2865 38.9115 76.9036 38.8594 77.1328 38.8594C77.362 38.8594 77.5547 38.9323 77.7109 39.0781C77.8672 39.224 77.9453 39.4193 77.9453 39.6641C77.9453 40.138 77.7057 40.4036 77.2266 40.4609L75.3672 40.625L71.7578 40.9531C71.737 41.3229 71.7188 41.6745 71.7031 42.0078C71.6927 42.3359 71.6875 42.6432 71.6875 42.9297C71.6875 44.0807 71.7708 44.7578 71.9375 44.9609C72.0625 45.1068 72.4714 45.1797 73.1641 45.1797C73.487 45.1797 73.9714 45.1719 74.6172 45.1562C75.2682 45.1354 75.7578 45.125 76.0859 45.125C76.1901 45.125 76.3438 45.1094 76.5469 45.0781C76.75 45.0417 76.901 45.0234 77 45.0234C77.5521 45.0234 77.8281 45.2943 77.8281 45.8359C77.8281 46.2734 77.6068 46.5365 77.1641 46.625C76.6745 46.724 75.6146 46.7734 73.9844 46.7734C72.3698 46.7734 71.3333 46.5599 70.875 46.1328C70.375 45.6693 70.125 44.6016 70.125 42.9297C70.125 42.5964 70.1328 42.2318 70.1484 41.8359C70.1641 41.4401 70.1849 41.013 70.2109 40.5547C70.1536 40.4349 70.125 40.3073 70.125 40.1719C70.125 39.9948 70.1745 39.8359 70.2734 39.6953C70.3776 38.1901 70.4297 37.0781 70.4297 36.3594C70.4297 36.1667 70.4036 35.8854 70.3516 35.5156C70.2995 35.1406 70.2734 34.8568 70.2734 34.6641C70.2734 34.0443 70.5339 33.7344 71.0547 33.7344C71.2734 33.7344 71.4609 33.8099 71.6172 33.9609C72.2422 33.7943 72.8307 33.6693 73.3828 33.5859C73.9401 33.5026 74.4635 33.4609 74.9531 33.4609C76.2188 33.4609 77.2292 33.612 77.9844 33.9141C78.3333 34.0547 78.5078 34.3047 78.5078 34.6641C78.5078 34.8724 78.4401 35.0573 78.3047 35.2188C78.1536 35.3958 77.9661 35.4844 77.7422 35.4844ZM87.4375 45.9453C86.6302 46.4974 85.4714 46.7734 83.9609 46.7734C83.5807 46.7734 83.1458 46.7135 82.6562 46.5938C82.0677 46.4531 81.625 46.2708 81.3281 46.0469H81.25C81.026 46.0469 80.8385 45.9688 80.6875 45.8125C80.5365 45.6562 80.4609 45.4661 80.4609 45.2422C80.4609 44.6953 80.4844 43.8776 80.5312 42.7891C80.5833 41.6953 80.6094 40.875 80.6094 40.3281C80.6094 39.7188 80.5964 38.8099 80.5703 37.6016C80.5495 36.388 80.5391 35.4766 80.5391 34.8672C80.5391 34.6536 80.6484 34.4297 80.8672 34.1953C81.0859 33.9609 81.3047 33.8438 81.5234 33.8438C81.6484 33.8438 82.0651 34.0182 82.7734 34.3672C83.5755 34.7578 84.0391 34.974 84.1641 35.0156C85.6432 35.5208 86.9036 36.2969 87.9453 37.3438C89.1693 38.5781 89.7812 39.9349 89.7812 41.4141C89.7812 42.3047 89.5703 43.1589 89.1484 43.9766C88.7318 44.7943 88.1615 45.4505 87.4375 45.9453ZM85.7969 37.6797C85.2656 37.3307 84.0391 36.7318 82.1172 35.8828L82.1562 38.1328L82.1797 40.375L82.0547 44.6406C82.0911 44.6562 82.1458 44.6901 82.2188 44.7422C82.6771 45.0495 83.2552 45.2031 83.9531 45.2031C85.1406 45.2031 86.0052 45.0208 86.5469 44.6562C87.0521 44.3125 87.4531 43.8516 87.75 43.2734C88.0521 42.6901 88.2031 42.0833 88.2031 41.4531C88.2031 39.9844 87.401 38.7266 85.7969 37.6797ZM96.8438 46.4766C95.375 46.4766 94.1302 46.0365 93.1094 45.1562C92.026 44.2188 91.4844 43.0104 91.4844 41.5312C91.4844 39.7292 92.0182 38.0911 93.0859 36.6172C94.2786 34.9818 95.7656 34.1641 97.5469 34.1641C99.2604 34.1641 100.534 34.5495 101.367 35.3203C102.237 36.1224 102.672 37.388 102.672 39.1172C102.672 40.9193 102.182 42.5443 101.203 43.9922C100.078 45.6484 98.625 46.4766 96.8438 46.4766ZM97.5469 35.7656C96.2708 35.7656 95.1901 36.401 94.3047 37.6719C93.487 38.8385 93.0781 40.125 93.0781 41.5312C93.0781 42.5365 93.4505 43.3542 94.1953 43.9844C94.9089 44.5781 95.7917 44.875 96.8438 44.875C98.1094 44.875 99.1536 44.237 99.9766 42.9609C100.711 41.8203 101.078 40.5391 101.078 39.1172C101.078 37.8724 100.799 36.9974 100.242 36.4922C99.7109 36.0078 98.8125 35.7656 97.5469 35.7656Z" fill="#F7F7F7"/>
</svg>
