<svg width="223" height="29" viewBox="0 0 223 29" fill="none" xmlns="http://www.w3.org/2000/svg">
<g filter="url(#filter0_d_341_342)">
<path d="M21.9141 16.1172C21.9141 16.5078 21.8477 17.125 21.7148 17.9688C21.5586 18.9766 20.9883 19.4805 20.0039 19.4805C19.457 19.4805 18.8398 19.1719 18.1523 18.5547C15.1445 15.8438 11.75 12.043 7.96875 7.15234C7.92188 9.18359 7.89844 10.4297 7.89844 10.8906C7.89844 11.5078 7.91016 12.4375 7.93359 13.6797C7.96484 14.9219 7.98047 15.8516 7.98047 16.4688C7.98047 18.7734 7.41797 19.9258 6.29297 19.9258C5.72266 19.9258 5.26562 19.75 4.92188 19.3984C4.61719 19.0859 4.46484 18.707 4.46484 18.2617C4.46484 17.9492 4.48828 17.4766 4.53516 16.8438C4.58984 16.2109 4.61719 15.7383 4.61719 15.4258C4.61719 14.9648 4.63281 14.2734 4.66406 13.3516C4.69531 12.4297 4.71094 11.7383 4.71094 11.2773C4.71094 10.7852 4.69922 10.043 4.67578 9.05078C4.65234 8.05859 4.64062 7.31641 4.64062 6.82422C4.64062 6.35547 4.59375 5.65625 4.5 4.72656C4.40625 3.79688 4.35938 3.09766 4.35938 2.62891C4.35938 2.16016 4.55859 1.74219 4.95703 1.375C5.36328 1.00781 5.82422 0.824219 6.33984 0.824219C6.91797 0.824219 7.55859 1.32422 8.26172 2.32422C11.8086 7.38672 15.3086 11.5156 18.7617 14.7109C18.7695 14.4609 18.7734 13.8672 18.7734 12.9297C18.7734 9.07812 18.7344 6.48047 18.6562 5.13672C18.6406 4.91016 18.5898 4.48828 18.5039 3.87109C18.4258 3.32422 18.3867 2.89453 18.3867 2.58203C18.3867 1.50391 18.957 0.964844 20.0977 0.964844C21.3711 0.964844 22.0078 2.92969 22.0078 6.85938C22.0078 6.94531 22 7.5625 21.9844 8.71094C21.9375 12.6797 21.9141 15.1484 21.9141 16.1172ZM37.5586 19.3516C36.9414 19.3281 36.3203 18.6016 35.6953 17.1719C35.2812 16.25 34.9258 15.1875 34.6289 13.9844C34.0508 14.0703 33.1055 14.1562 31.793 14.2422C30.5586 14.3281 29.6133 14.4297 28.957 14.5469C28.5977 15.4062 27.9727 16.6992 27.082 18.4258C26.7383 18.9883 26.2617 19.2695 25.6523 19.2695C25.2227 19.2695 24.8359 19.125 24.4922 18.8359C24.1484 18.5391 23.9766 18.1641 23.9766 17.7109C23.9766 17.3125 24.5469 15.9609 25.6875 13.6562C25.5781 13.4141 25.5312 13.1875 25.5469 12.9766C25.5781 12.6016 25.957 12.3086 26.6836 12.0977C27.793 10.1758 29.0273 8.18359 30.3867 6.12109C32.3398 3.16016 33.543 1.67969 33.9961 1.67969C34.8555 1.67969 35.4297 2.19922 35.7188 3.23828C35.875 4.07422 36.1211 5.32812 36.457 7C36.9336 9.25 37.5156 11.8242 38.2031 14.7227C38.2578 14.9414 38.457 15.457 38.8008 16.2695C39.082 16.9414 39.2227 17.4453 39.2227 17.7812C39.2227 18.2344 39.0508 18.6133 38.707 18.918C38.3711 19.2227 37.9883 19.3672 37.5586 19.3516ZM33.1875 7.32812C32.5781 8.375 31.7383 9.80078 30.668 11.6055C31.0195 11.5273 31.5664 11.4648 32.3086 11.418C33.1836 11.3633 33.7344 11.3203 33.9609 11.2891C33.7734 10.2734 33.5156 8.95312 33.1875 7.32812ZM46.6641 9.74219C46.3125 11.0078 45.8203 12.918 45.1875 15.4727C45.0391 16.3555 44.8945 17.2344 44.7539 18.1094C44.4336 19.2188 43.8438 19.7734 42.9844 19.7734C42.4453 19.7734 42.0195 19.5898 41.707 19.2227C41.4414 18.9102 41.3086 18.5391 41.3086 18.1094C41.3086 16.8438 41.5781 15.3008 42.1172 13.4805C42.9219 10.7539 43.3555 9.24219 43.418 8.94531C43.6445 7.74219 43.875 6.53906 44.1094 5.33594C44.4609 3.67969 44.8398 2.57812 45.2461 2.03125C45.6602 1.47656 46.1797 1.19922 46.8047 1.19922C47.5156 1.19922 48.0391 1.55859 48.375 2.27734C48.6875 2.95703 49.0234 4.34766 49.3828 6.44922C49.7266 8.48828 50.2383 10.6836 50.918 13.0352C51.8086 10.7148 52.6367 8.16797 53.4023 5.39453L54.0586 2.69922C54.4805 1.58203 55.1328 1.02344 56.0156 1.02344C56.8672 1.02344 57.5 1.67188 57.9141 2.96875C58.0859 3.49219 58.2695 4.46875 58.4648 5.89844C58.918 9.22656 59.4883 12.0781 60.1758 14.4531C60.8711 16.8672 61.2188 18.1797 61.2188 18.3906C61.2188 18.8516 61.0352 19.2383 60.668 19.5508C60.3242 19.832 59.9375 19.9727 59.5078 19.9727C58.6562 19.9727 58.0234 19.3633 57.6094 18.1445L56.9531 15.3086C56.5781 13.9023 56.1719 11.8828 55.7344 9.25C55.3828 10.2969 54.8008 11.9414 53.9883 14.1836L53.2852 16.3398C52.9961 17.1914 52.6953 17.8906 52.3828 18.4375C51.9688 19.1641 51.3906 19.5273 50.6484 19.5273C49.9141 19.5273 49.3516 19.0938 48.9609 18.2266L48.3047 16.0469C47.6953 14.0469 47.1484 11.9453 46.6641 9.74219ZM74.6484 3.97656C74.4922 3.97656 74.3281 3.95312 74.1562 3.90625C72.8906 3.5625 71.6602 3.39062 70.4648 3.39062C69.8789 3.39062 69.25 3.4375 68.5781 3.53125C67.9062 3.625 67.1914 3.76562 66.4336 3.95312C66.4336 4.99219 66.3984 6.53516 66.3281 8.58203C66.7656 8.55078 68.293 8.40625 70.9102 8.14844C72.4023 8 73.3477 7.92578 73.7461 7.92578C74.207 7.92578 74.6016 8.07422 74.9297 8.37109C75.2578 8.66016 75.4219 9.04688 75.4219 9.53125C75.4219 10.4609 74.9258 10.9883 73.9336 11.1133C73.3086 11.1602 72.375 11.2383 71.1328 11.3477C70.0234 11.4727 68.3516 11.625 66.1172 11.8047C66.0625 12.7969 66.0352 13.5977 66.0352 14.207C66.0352 15.7383 66.125 16.6094 66.3047 16.8203C66.3906 16.9219 66.8828 16.9727 67.7812 16.9727C68.2656 16.9727 68.9961 16.9609 69.9727 16.9375C70.9492 16.9141 71.6797 16.9023 72.1641 16.9023C72.3203 16.9023 72.5508 16.8789 72.8555 16.832C73.1602 16.7852 73.3867 16.7617 73.5352 16.7617C73.9883 16.7617 74.375 16.8906 74.6953 17.1484C75.0625 17.4375 75.2461 17.8438 75.2461 18.3672C75.2461 19.2422 74.7891 19.7656 73.875 19.9375C73.0938 20.0859 71.4727 20.1602 69.0117 20.1602C66.4648 20.1602 64.8047 19.8164 64.0312 19.1289C63.1797 18.3711 62.7539 16.7305 62.7539 14.207C62.7539 13.1602 62.8281 11.5898 62.9766 9.49609C63.1328 7.39453 63.2109 5.82422 63.2109 4.78516C63.2109 4.51172 63.1719 4.10938 63.0938 3.57812C63.0156 3.03906 62.9766 2.63281 62.9766 2.35938C62.9766 1.17188 63.5234 0.578125 64.6172 0.578125C64.9609 0.578125 65.2773 0.675781 65.5664 0.871094C66.4727 0.644531 67.332 0.476562 68.1445 0.367188C68.9648 0.25 69.7383 0.191406 70.4648 0.191406C72.4336 0.191406 74.0078 0.417969 75.1875 0.871094C75.9062 1.14453 76.2656 1.64062 76.2656 2.35938C76.2656 2.76562 76.125 3.125 75.8438 3.4375C75.5312 3.79688 75.1328 3.97656 74.6484 3.97656ZM88.8633 18.5547C87.9414 18.9609 86.5156 19.3242 84.5859 19.6445C82.8203 19.9414 81.3711 20.0898 80.2383 20.0898C78.3242 20.0898 77.3672 19.25 77.3672 17.5703C77.3672 17.7031 77.4453 16.4648 77.6016 13.8555C77.8047 10.4648 77.9062 6.69141 77.9062 2.53516C77.9062 2.08984 78.0586 1.71094 78.3633 1.39844C78.6758 1.08594 79.0664 0.929688 79.5352 0.929688C80.0039 0.929688 80.3945 1.08594 80.707 1.39844C81.0195 1.71094 81.1758 2.08984 81.1758 2.53516C81.1758 6.69922 81.0703 10.5352 80.8594 14.043C80.7891 14.668 80.7148 15.625 80.6367 16.9141C82.4883 16.8828 84.8633 16.4297 87.7617 15.5547C87.9414 15.5 88.1133 15.4727 88.2773 15.4727C88.7695 15.4727 89.168 15.6523 89.4727 16.0117C89.7461 16.332 89.8828 16.6914 89.8828 17.0898C89.8828 17.7617 89.543 18.25 88.8633 18.5547ZM102.867 3.97656C102.711 3.97656 102.547 3.95312 102.375 3.90625C101.109 3.5625 99.8789 3.39062 98.6836 3.39062C98.0977 3.39062 97.4688 3.4375 96.7969 3.53125C96.125 3.625 95.4102 3.76562 94.6523 3.95312C94.6523 4.99219 94.6172 6.53516 94.5469 8.58203C94.9844 8.55078 96.5117 8.40625 99.1289 8.14844C100.621 8 101.566 7.92578 101.965 7.92578C102.426 7.92578 102.82 8.07422 103.148 8.37109C103.477 8.66016 103.641 9.04688 103.641 9.53125C103.641 10.4609 103.145 10.9883 102.152 11.1133C101.527 11.1602 100.594 11.2383 99.3516 11.3477C98.2422 11.4727 96.5703 11.625 94.3359 11.8047C94.2812 12.7969 94.2539 13.5977 94.2539 14.207C94.2539 15.7383 94.3438 16.6094 94.5234 16.8203C94.6094 16.9219 95.1016 16.9727 96 16.9727C96.4844 16.9727 97.2148 16.9609 98.1914 16.9375C99.168 16.9141 99.8984 16.9023 100.383 16.9023C100.539 16.9023 100.77 16.8789 101.074 16.832C101.379 16.7852 101.605 16.7617 101.754 16.7617C102.207 16.7617 102.594 16.8906 102.914 17.1484C103.281 17.4375 103.465 17.8438 103.465 18.3672C103.465 19.2422 103.008 19.7656 102.094 19.9375C101.312 20.0859 99.6914 20.1602 97.2305 20.1602C94.6836 20.1602 93.0234 19.8164 92.25 19.1289C91.3984 18.3711 90.9727 16.7305 90.9727 14.207C90.9727 13.1602 91.0469 11.5898 91.1953 9.49609C91.3516 7.39453 91.4297 5.82422 91.4297 4.78516C91.4297 4.51172 91.3906 4.10938 91.3125 3.57812C91.2344 3.03906 91.1953 2.63281 91.1953 2.35938C91.1953 1.17188 91.7422 0.578125 92.8359 0.578125C93.1797 0.578125 93.4961 0.675781 93.7852 0.871094C94.6914 0.644531 95.5508 0.476562 96.3633 0.367188C97.1836 0.25 97.957 0.191406 98.6836 0.191406C100.652 0.191406 102.227 0.417969 103.406 0.871094C104.125 1.14453 104.484 1.64062 104.484 2.35938C104.484 2.76562 104.344 3.125 104.062 3.4375C103.75 3.79688 103.352 3.97656 102.867 3.97656ZM111.562 19.7148C109.578 19.7148 108.016 19.2734 106.875 18.3906C105.914 17.6562 105.434 16.8086 105.434 15.8477C105.434 15.3555 105.582 14.9492 105.879 14.6289C106.176 14.3008 106.586 14.1367 107.109 14.1367C107.812 14.1367 108.328 14.4961 108.656 15.2148C109.102 16.1758 110.109 16.6562 111.68 16.6562C113.023 16.6562 114.324 16.3633 115.582 15.7773C116.887 15.1758 117.539 14.5156 117.539 13.7969C117.539 12.8125 117.133 12.1641 116.32 11.8516C115.742 11.625 114.582 11.4922 112.84 11.4531C111.488 11.4219 110.277 11.168 109.207 10.6914C107.762 10.043 107.051 9.11328 107.074 7.90234C107.098 6.37891 107.91 4.98438 109.512 3.71875C111.113 2.44531 112.879 1.80859 114.809 1.80859C115.574 1.80859 116.52 1.98438 117.645 2.33594C119.043 2.77344 119.742 3.27734 119.742 3.84766C119.742 4.25391 119.602 4.61328 119.32 4.92578C119.008 5.27734 118.605 5.45312 118.113 5.45312C117.746 5.45312 117.195 5.375 116.461 5.21875C115.734 5.0625 115.184 4.98438 114.809 4.98438C113.801 4.99219 112.844 5.23438 111.938 5.71094C111 6.19531 110.531 6.72266 110.531 7.29297C110.531 7.58984 110.672 7.83594 110.953 8.03125C111.242 8.21875 111.672 8.35156 112.242 8.42969C113.242 8.48438 114.238 8.53906 115.23 8.59375C116.965 8.72656 118.336 9.21484 119.344 10.0586C120.453 10.9961 121.008 12.293 121.008 13.9492C121.008 15.9648 119.859 17.4922 117.562 18.5312C115.812 19.3203 113.812 19.7148 111.562 19.7148ZM128.203 19.7148C126.219 19.7148 124.656 19.2734 123.516 18.3906C122.555 17.6562 122.074 16.8086 122.074 15.8477C122.074 15.3555 122.223 14.9492 122.52 14.6289C122.816 14.3008 123.227 14.1367 123.75 14.1367C124.453 14.1367 124.969 14.4961 125.297 15.2148C125.742 16.1758 126.75 16.6562 128.32 16.6562C129.664 16.6562 130.965 16.3633 132.223 15.7773C133.527 15.1758 134.18 14.5156 134.18 13.7969C134.18 12.8125 133.773 12.1641 132.961 11.8516C132.383 11.625 131.223 11.4922 129.48 11.4531C128.129 11.4219 126.918 11.168 125.848 10.6914C124.402 10.043 123.691 9.11328 123.715 7.90234C123.738 6.37891 124.551 4.98438 126.152 3.71875C127.754 2.44531 129.52 1.80859 131.449 1.80859C132.215 1.80859 133.16 1.98438 134.285 2.33594C135.684 2.77344 136.383 3.27734 136.383 3.84766C136.383 4.25391 136.242 4.61328 135.961 4.92578C135.648 5.27734 135.246 5.45312 134.754 5.45312C134.387 5.45312 133.836 5.375 133.102 5.21875C132.375 5.0625 131.824 4.98438 131.449 4.98438C130.441 4.99219 129.484 5.23438 128.578 5.71094C127.641 6.19531 127.172 6.72266 127.172 7.29297C127.172 7.58984 127.312 7.83594 127.594 8.03125C127.883 8.21875 128.312 8.35156 128.883 8.42969C129.883 8.48438 130.879 8.53906 131.871 8.59375C133.605 8.72656 134.977 9.21484 135.984 10.0586C137.094 10.9961 137.648 12.293 137.648 13.9492C137.648 15.9648 136.5 17.4922 134.203 18.5312C132.453 19.3203 130.453 19.7148 128.203 19.7148ZM164.203 12.1094C163.672 14.4375 162.602 16.3008 160.992 17.6992C159.359 19.1055 157.445 19.8086 155.25 19.8086C153.172 19.8086 151.613 19.2617 150.574 18.168C149.535 17.0664 149.016 15.418 149.016 13.2227C149.016 11.2227 149.508 9.17188 150.492 7.07031C151.477 4.96875 152.742 3.26562 154.289 1.96094C155.375 1.04688 156.539 0.589844 157.781 0.589844C158.539 0.589844 159.57 0.863281 160.875 1.41016C162.422 2.05859 163.195 2.75 163.195 3.48438C163.195 3.90625 163.035 4.28516 162.715 4.62109C162.395 4.94922 162 5.11328 161.531 5.11328C161.297 5.11328 160.777 4.89453 159.973 4.45703C159.176 4.01172 158.445 3.78906 157.781 3.78906C157.078 3.78906 156.129 4.54688 154.934 6.0625C153.191 8.26562 152.32 10.6523 152.32 13.2227C152.32 14.5273 152.512 15.4141 152.895 15.8828C153.301 16.375 154.086 16.6211 155.25 16.6211C156.445 16.6211 157.496 16.2812 158.402 15.6016C159.363 14.8828 160.074 13.8359 160.535 12.4609C158.723 12.6016 157.145 12.9727 155.801 13.5742C155.559 13.6836 155.316 13.7383 155.074 13.7383C154.59 13.7383 154.188 13.5586 153.867 13.1992C153.578 12.8789 153.434 12.5156 153.434 12.1094C153.434 10.9141 154.848 10.0781 157.676 9.60156C159.27 9.33594 161.129 9.20312 163.254 9.20312C163.723 9.20312 164.113 9.35547 164.426 9.66016C164.746 9.96484 164.906 10.3398 164.906 10.7852C164.906 11.3555 164.672 11.7969 164.203 12.1094ZM179.52 19.3516C178.902 19.3281 178.281 18.6016 177.656 17.1719C177.242 16.25 176.887 15.1875 176.59 13.9844C176.012 14.0703 175.066 14.1562 173.754 14.2422C172.52 14.3281 171.574 14.4297 170.918 14.5469C170.559 15.4062 169.934 16.6992 169.043 18.4258C168.699 18.9883 168.223 19.2695 167.613 19.2695C167.184 19.2695 166.797 19.125 166.453 18.8359C166.109 18.5391 165.938 18.1641 165.938 17.7109C165.938 17.3125 166.508 15.9609 167.648 13.6562C167.539 13.4141 167.492 13.1875 167.508 12.9766C167.539 12.6016 167.918 12.3086 168.645 12.0977C169.754 10.1758 170.988 8.18359 172.348 6.12109C174.301 3.16016 175.504 1.67969 175.957 1.67969C176.816 1.67969 177.391 2.19922 177.68 3.23828C177.836 4.07422 178.082 5.32812 178.418 7C178.895 9.25 179.477 11.8242 180.164 14.7227C180.219 14.9414 180.418 15.457 180.762 16.2695C181.043 16.9414 181.184 17.4453 181.184 17.7812C181.184 18.2344 181.012 18.6133 180.668 18.918C180.332 19.2227 179.949 19.3672 179.52 19.3516ZM175.148 7.32812C174.539 8.375 173.699 9.80078 172.629 11.6055C172.98 11.5273 173.527 11.4648 174.27 11.418C175.145 11.3633 175.695 11.3203 175.922 11.2891C175.734 10.2734 175.477 8.95312 175.148 7.32812ZM188.625 9.74219C188.273 11.0078 187.781 12.918 187.148 15.4727C187 16.3555 186.855 17.2344 186.715 18.1094C186.395 19.2188 185.805 19.7734 184.945 19.7734C184.406 19.7734 183.98 19.5898 183.668 19.2227C183.402 18.9102 183.27 18.5391 183.27 18.1094C183.27 16.8438 183.539 15.3008 184.078 13.4805C184.883 10.7539 185.316 9.24219 185.379 8.94531C185.605 7.74219 185.836 6.53906 186.07 5.33594C186.422 3.67969 186.801 2.57812 187.207 2.03125C187.621 1.47656 188.141 1.19922 188.766 1.19922C189.477 1.19922 190 1.55859 190.336 2.27734C190.648 2.95703 190.984 4.34766 191.344 6.44922C191.688 8.48828 192.199 10.6836 192.879 13.0352C193.77 10.7148 194.598 8.16797 195.363 5.39453L196.02 2.69922C196.441 1.58203 197.094 1.02344 197.977 1.02344C198.828 1.02344 199.461 1.67188 199.875 2.96875C200.047 3.49219 200.23 4.46875 200.426 5.89844C200.879 9.22656 201.449 12.0781 202.137 14.4531C202.832 16.8672 203.18 18.1797 203.18 18.3906C203.18 18.8516 202.996 19.2383 202.629 19.5508C202.285 19.832 201.898 19.9727 201.469 19.9727C200.617 19.9727 199.984 19.3633 199.57 18.1445L198.914 15.3086C198.539 13.9023 198.133 11.8828 197.695 9.25C197.344 10.2969 196.762 11.9414 195.949 14.1836L195.246 16.3398C194.957 17.1914 194.656 17.8906 194.344 18.4375C193.93 19.1641 193.352 19.5273 192.609 19.5273C191.875 19.5273 191.312 19.0938 190.922 18.2266L190.266 16.0469C189.656 14.0469 189.109 11.9453 188.625 9.74219ZM216.609 3.97656C216.453 3.97656 216.289 3.95312 216.117 3.90625C214.852 3.5625 213.621 3.39062 212.426 3.39062C211.84 3.39062 211.211 3.4375 210.539 3.53125C209.867 3.625 209.152 3.76562 208.395 3.95312C208.395 4.99219 208.359 6.53516 208.289 8.58203C208.727 8.55078 210.254 8.40625 212.871 8.14844C214.363 8 215.309 7.92578 215.707 7.92578C216.168 7.92578 216.562 8.07422 216.891 8.37109C217.219 8.66016 217.383 9.04688 217.383 9.53125C217.383 10.4609 216.887 10.9883 215.895 11.1133C215.27 11.1602 214.336 11.2383 213.094 11.3477C211.984 11.4727 210.312 11.625 208.078 11.8047C208.023 12.7969 207.996 13.5977 207.996 14.207C207.996 15.7383 208.086 16.6094 208.266 16.8203C208.352 16.9219 208.844 16.9727 209.742 16.9727C210.227 16.9727 210.957 16.9609 211.934 16.9375C212.91 16.9141 213.641 16.9023 214.125 16.9023C214.281 16.9023 214.512 16.8789 214.816 16.832C215.121 16.7852 215.348 16.7617 215.496 16.7617C215.949 16.7617 216.336 16.8906 216.656 17.1484C217.023 17.4375 217.207 17.8438 217.207 18.3672C217.207 19.2422 216.75 19.7656 215.836 19.9375C215.055 20.0859 213.434 20.1602 210.973 20.1602C208.426 20.1602 206.766 19.8164 205.992 19.1289C205.141 18.3711 204.715 16.7305 204.715 14.207C204.715 13.1602 204.789 11.5898 204.938 9.49609C205.094 7.39453 205.172 5.82422 205.172 4.78516C205.172 4.51172 205.133 4.10938 205.055 3.57812C204.977 3.03906 204.938 2.63281 204.938 2.35938C204.938 1.17188 205.484 0.578125 206.578 0.578125C206.922 0.578125 207.238 0.675781 207.527 0.871094C208.434 0.644531 209.293 0.476562 210.105 0.367188C210.926 0.25 211.699 0.191406 212.426 0.191406C214.395 0.191406 215.969 0.417969 217.148 0.871094C217.867 1.14453 218.227 1.64062 218.227 2.35938C218.227 2.76562 218.086 3.125 217.805 3.4375C217.492 3.79688 217.094 3.97656 216.609 3.97656Z" fill="#F9F9F9"/>
</g>
<defs>
<filter id="filter0_d_341_342" x="0.359375" y="0.191406" width="221.867" height="27.9688" filterUnits="userSpaceOnUse" color-interpolation-filters="sRGB">
<feFlood flood-opacity="0" result="BackgroundImageFix"/>
<feColorMatrix in="SourceAlpha" type="matrix" values="0 0 0 0 0 0 0 0 0 0 0 0 0 0 0 0 0 0 127 0" result="hardAlpha"/>
<feOffset dy="4"/>
<feGaussianBlur stdDeviation="2"/>
<feComposite in2="hardAlpha" operator="out"/>
<feColorMatrix type="matrix" values="0 0 0 0 0 0 0 0 0 0 0 0 0 0 0 0 0 0 0.25 0"/>
<feBlend mode="normal" in2="BackgroundImageFix" result="effect1_dropShadow_341_342"/>
<feBlend mode="normal" in="SourceGraphic" in2="effect1_dropShadow_341_342" result="shape"/>
</filter>
</defs>
</svg>
