<svg width="61" height="46" viewBox="0 0 61 46" fill="none" xmlns="http://www.w3.org/2000/svg">
<g filter="url(#filter0_d_396_480)">
<path fill-rule="evenodd" clip-rule="evenodd" d="M4.5 18C4.22386 18 4 18.2239 4 18.5V37.5C4 37.7761 4.22386 38 4.5 38H20.5C20.7761 38 21 37.7761 21 37.5V18.5C21 18.2239 20.7761 18 20.5 18H4.5ZM9.82715 31H16.3486V29.9678H11.3516L14.0176 27.0762C15.2663 25.7227 15.8906 24.556 15.8906 23.5762C15.8906 22.7695 15.6217 22.1247 15.084 21.6416C14.5462 21.154 13.8148 20.9102 12.8896 20.9102C11.9007 20.9102 11.11 21.1927 10.5176 21.7578C9.92969 22.3229 9.63574 23.0635 9.63574 23.9795H10.9004C10.9004 23.3415 11.0736 22.8447 11.4199 22.4893C11.7708 22.1292 12.2607 21.9492 12.8896 21.9492C13.4137 21.9492 13.833 22.1156 14.1475 22.4482C14.4619 22.7809 14.6191 23.207 14.6191 23.7266C14.6191 24.1139 14.5212 24.4899 14.3252 24.8545C14.1338 25.2145 13.7829 25.6839 13.2725 26.2627L9.82715 30.0908V31Z" fill="#F7F7F7"/>
<path fill-rule="evenodd" clip-rule="evenodd" d="M22.5 11C22.2239 11 22 11.2239 22 11.5V37.5C22 37.7761 22.2239 38 22.5 38H38.5C38.7761 38 39 37.7761 39 37.5V11.5C39 11.2239 38.7761 11 38.5 11H22.5ZM30.7119 24H31.9834V13.999H31.7852L28.1621 15.3594V16.5078L30.7119 15.5713V24Z" fill="#F7F7F7"/>
<path fill-rule="evenodd" clip-rule="evenodd" d="M40.5 21C40.2239 21 40 21.2239 40 21.5V37.5C40 37.7761 40.2239 38 40.5 38H56.5C56.7761 38 57 37.7761 57 37.5V21.5C57 21.2239 56.7761 21 56.5 21H40.5ZM48.6162 28.4082H47.666V29.4404H48.6162C49.2861 29.4495 49.7988 29.609 50.1543 29.9189C50.5098 30.2288 50.6875 30.6732 50.6875 31.252C50.6875 31.849 50.5257 32.307 50.2021 32.626C49.8786 32.945 49.4115 33.1045 48.8008 33.1045C48.2266 33.1045 47.7686 32.9473 47.4268 32.6328C47.085 32.3184 46.9141 31.8991 46.9141 31.375H45.6426C45.6426 32.2044 45.9342 32.8721 46.5176 33.3779C47.1055 33.8838 47.8665 34.1367 48.8008 34.1367C49.735 34.1367 50.4938 33.8747 51.0771 33.3506C51.6605 32.8265 51.9521 32.1178 51.9521 31.2246C51.9521 30.6458 51.8018 30.1559 51.501 29.7549C51.2048 29.3538 50.7832 29.0667 50.2363 28.8936C50.7194 28.693 51.0999 28.39 51.3779 27.9844C51.6605 27.5788 51.8018 27.1595 51.8018 26.7266C51.8018 25.8424 51.5352 25.152 51.002 24.6553C50.4688 24.1585 49.7327 23.9102 48.7939 23.9102C47.9053 23.9102 47.1715 24.1722 46.5928 24.6963C46.0186 25.2158 45.7314 25.8698 45.7314 26.6582H46.9961C46.9961 26.1432 47.1579 25.7308 47.4814 25.4209C47.8096 25.1064 48.2471 24.9492 48.7939 24.9492C49.9561 24.9492 50.5371 25.5326 50.5371 26.6992C50.5371 27.2188 50.3662 27.6312 50.0244 27.9365C49.6826 28.2419 49.2132 28.3991 48.6162 28.4082Z" fill="#F7F7F7"/>
<path d="M38.5 9H22.5C22.2239 9 22 8.77614 22 8.5V1.65139C22 1.15668 22.6416 0.962418 22.916 1.37404L25.608 5.41199C25.7994 5.69903 26.217 5.71062 26.424 5.43464L30.1 0.533333C30.3 0.266667 30.7 0.266667 30.9 0.533333L34.576 5.43464C34.783 5.71062 35.2006 5.69903 35.392 5.41199L38.084 1.37404C38.3584 0.962419 39 1.15668 39 1.65139V8.5C39 8.77614 38.7761 9 38.5 9Z" fill="#E8C528"/>
</g>
<defs>
<filter id="filter0_d_396_480" x="0" y="0.333496" width="61" height="45.6665" filterUnits="userSpaceOnUse" color-interpolation-filters="sRGB">
<feFlood flood-opacity="0" result="BackgroundImageFix"/>
<feColorMatrix in="SourceAlpha" type="matrix" values="0 0 0 0 0 0 0 0 0 0 0 0 0 0 0 0 0 0 127 0" result="hardAlpha"/>
<feOffset dy="4"/>
<feGaussianBlur stdDeviation="2"/>
<feComposite in2="hardAlpha" operator="out"/>
<feColorMatrix type="matrix" values="0 0 0 0 0 0 0 0 0 0 0 0 0 0 0 0 0 0 0.25 0"/>
<feBlend mode="normal" in2="BackgroundImageFix" result="effect1_dropShadow_396_480"/>
<feBlend mode="normal" in="SourceGraphic" in2="effect1_dropShadow_396_480" result="shape"/>
</filter>
</defs>
</svg>
