<svg width="45" height="45" viewBox="0 0 45 45" fill="none" xmlns="http://www.w3.org/2000/svg">
<g filter="url(#filter0_d_422_2)">
<rect x="22.25" width="25.8094" height="25.8094" transform="rotate(45 22.25 0)" fill="#3FCFC7"/>
<path d="M6.5 18.75L21.5 33.4213L21.5 18.75L6.5 18.75Z" fill="#0AB6AC"/>
<path d="M38 18.75L23 33.4213L23 18.75L38 18.75Z" fill="#3CE2D9"/>
<path d="M38 17.4214L23 2.75012L23 17.4214L38 17.4214Z" fill="#69F9F1"/>
<path d="M17.2266 19.4141C17.0807 19.4141 16.763 19.3802 16.2734 19.3125C16.2318 20.099 16.2109 21.4766 16.2109 23.4453C16.2109 23.6536 16.1432 23.8307 16.0078 23.9766C15.8724 24.1172 15.7031 24.1875 15.5 24.1875C15.2917 24.1875 15.1198 24.1172 14.9844 23.9766C14.849 23.8307 14.7812 23.6536 14.7812 23.4453V21.1484C14.7812 20.3828 14.8281 19.3047 14.9219 17.9141C15.026 16.4089 15.0833 15.3307 15.0938 14.6797V13.6016C15.0938 13.0859 15.125 12.7109 15.1875 12.4766C15.3073 12.0182 15.5625 11.8203 15.9531 11.8828C16.1198 11.8307 16.3568 11.7917 16.6641 11.7656C16.9714 11.7396 17.349 11.7266 17.7969 11.7266C18.75 11.7266 19.6432 12.0521 20.4766 12.7031C21.3932 13.4219 21.8516 14.2865 21.8516 15.2969C21.8516 16.5885 21.362 17.6172 20.3828 18.3828C19.5078 19.0703 18.4557 19.4141 17.2266 19.4141ZM17.6172 13.2109C17.388 13.2109 17.1823 13.2161 17 13.2266C16.8229 13.237 16.6719 13.2526 16.5469 13.2734L16.5312 14.7109L16.3672 17.8203L17.2266 17.9219C18.1016 17.9219 18.8385 17.7005 19.4375 17.2578C20.0938 16.7734 20.4219 16.1198 20.4219 15.2969C20.4219 14.7135 20.1094 14.2109 19.4844 13.7891C18.9062 13.4036 18.2839 13.2109 17.6172 13.2109ZM29.8594 17.6797C29.3958 18.237 28.8021 19.0443 28.0781 20.1016C27.2396 21.3307 26.625 22.2005 26.2344 22.7109C26.7812 22.6849 27.2578 22.6719 27.6641 22.6719C27.8672 22.6719 28.1693 22.7109 28.5703 22.7891C28.9714 22.8672 29.2734 22.9062 29.4766 22.9062C29.7057 22.9062 29.8906 22.9818 30.0312 23.1328C30.1771 23.2786 30.25 23.4661 30.25 23.6953C30.25 23.9297 30.1771 24.1198 30.0312 24.2656C29.8906 24.4115 29.7057 24.4844 29.4766 24.4844C29.2734 24.4844 28.9714 24.4453 28.5703 24.3672C28.1693 24.2891 27.8672 24.25 27.6641 24.25C26.4922 24.25 25.3802 24.3568 24.3281 24.5703C24.2188 24.5911 24.1224 24.6016 24.0391 24.6016C23.5339 24.6016 23.2812 24.3802 23.2812 23.9375C23.2812 23.6771 23.4115 23.4271 23.6719 23.1875C25.0312 21.9583 26.5104 20.0443 28.1094 17.4453C27.4167 17.487 26.9141 17.5078 26.6016 17.5078C25.8307 17.5078 25.0391 17.4479 24.2266 17.3281C23.763 17.2604 23.5312 17.0026 23.5312 16.5547C23.5312 16.3255 23.6016 16.1354 23.7422 15.9844C23.8828 15.8281 24.0599 15.75 24.2734 15.75C24.5286 15.75 24.9141 15.7812 25.4297 15.8438C25.9453 15.901 26.3359 15.9297 26.6016 15.9297C26.9557 15.9297 27.487 15.9062 28.1953 15.8594C28.9036 15.8073 29.4349 15.7812 29.7891 15.7812C30.2318 15.7812 30.4531 15.9635 30.4531 16.3281C30.4531 16.75 30.2552 17.2005 29.8594 17.6797Z" fill="#F7F7F7"/>
</g>
<defs>
<filter id="filter0_d_422_2" x="0" y="0" width="44.5" height="44.5" filterUnits="userSpaceOnUse" color-interpolation-filters="sRGB">
<feFlood flood-opacity="0" result="BackgroundImageFix"/>
<feColorMatrix in="SourceAlpha" type="matrix" values="0 0 0 0 0 0 0 0 0 0 0 0 0 0 0 0 0 0 127 0" result="hardAlpha"/>
<feOffset dy="4"/>
<feGaussianBlur stdDeviation="2"/>
<feComposite in2="hardAlpha" operator="out"/>
<feColorMatrix type="matrix" values="0 0 0 0 0 0 0 0 0 0 0 0 0 0 0 0 0 0 0.25 0"/>
<feBlend mode="normal" in2="BackgroundImageFix" result="effect1_dropShadow_422_2"/>
<feBlend mode="normal" in="SourceGraphic" in2="effect1_dropShadow_422_2" result="shape"/>
</filter>
</defs>
</svg>
