<svg width="36" height="39" viewBox="0 0 36 39" fill="none" xmlns="http://www.w3.org/2000/svg">
<g filter="url(#filter0_d_360_18)">
<path fill-rule="evenodd" clip-rule="evenodd" d="M28.3144 2.27423L14.3143 7.87427C14.1245 7.95021 14 8.13407 14 8.33853L14.0005 22L29.0005 5L29.0001 2.73839C29.0001 2.38469 28.6428 2.14287 28.3144 2.27423ZM29.0004 7L14.6065 23.2426L28.3143 28.7257C28.6427 28.8571 29 28.6152 29 28.2615L29.0004 7Z" fill="#F7F7F7"/>
<path d="M12.2152 8.5V22.5C12.2152 22.7761 11.9914 23 11.7152 23H6.5C6.22386 23 6 22.7761 6 22.5V8.5C6 8.22386 6.22386 8 6.5 8H11.7152C11.9914 8 12.2152 8.22386 12.2152 8.5Z" fill="#F7F7F7"/>
<path d="M6.00002 29.0001L30.0002 2.00011" stroke="#E04463" stroke-width="3" stroke-linecap="round" stroke-linejoin="round"/>
</g>
<defs>
<filter id="filter0_d_360_18" x="0.5" y="0.5" width="35" height="38" filterUnits="userSpaceOnUse" color-interpolation-filters="sRGB">
<feFlood flood-opacity="0" result="BackgroundImageFix"/>
<feColorMatrix in="SourceAlpha" type="matrix" values="0 0 0 0 0 0 0 0 0 0 0 0 0 0 0 0 0 0 127 0" result="hardAlpha"/>
<feOffset dy="4"/>
<feGaussianBlur stdDeviation="2"/>
<feComposite in2="hardAlpha" operator="out"/>
<feColorMatrix type="matrix" values="0 0 0 0 0 0 0 0 0 0 0 0 0 0 0 0 0 0 0.25 0"/>
<feBlend mode="normal" in2="BackgroundImageFix" result="effect1_dropShadow_360_18"/>
<feBlend mode="normal" in="SourceGraphic" in2="effect1_dropShadow_360_18" result="shape"/>
</filter>
</defs>
</svg>
