<svg width="31" height="35" viewBox="0 0 31 35" fill="none" xmlns="http://www.w3.org/2000/svg">
<g filter="url(#filter0_d_360_4)">
<path d="M27 26.2615V0.738517C27 0.384784 26.6427 0.142906 26.3143 0.274278L12.3143 5.87428C12.1245 5.95021 12 6.13406 12 6.33852V20.6615C12 20.8659 12.1245 21.0498 12.3143 21.1257L26.3143 26.7257C26.6427 26.8571 27 26.6152 27 26.2615Z" fill="#F7F7F7"/>
<path d="M10.2152 6.5V20.5C10.2152 20.7761 9.99135 21 9.71521 21H4.5C4.22386 21 4 20.7761 4 20.5V6.5C4 6.22386 4.22386 6 4.5 6H9.71521C9.99135 6 10.2152 6.22386 10.2152 6.5Z" fill="#F7F7F7"/>
</g>
<defs>
<filter id="filter0_d_360_4" x="0" y="0.237793" width="31" height="34.5244" filterUnits="userSpaceOnUse" color-interpolation-filters="sRGB">
<feFlood flood-opacity="0" result="BackgroundImageFix"/>
<feColorMatrix in="SourceAlpha" type="matrix" values="0 0 0 0 0 0 0 0 0 0 0 0 0 0 0 0 0 0 127 0" result="hardAlpha"/>
<feOffset dy="4"/>
<feGaussianBlur stdDeviation="2"/>
<feComposite in2="hardAlpha" operator="out"/>
<feColorMatrix type="matrix" values="0 0 0 0 0 0 0 0 0 0 0 0 0 0 0 0 0 0 0.25 0"/>
<feBlend mode="normal" in2="BackgroundImageFix" result="effect1_dropShadow_360_4"/>
<feBlend mode="normal" in="SourceGraphic" in2="effect1_dropShadow_360_4" result="shape"/>
</filter>
</defs>
</svg>
