<svg width="49" height="16" viewBox="0 0 49 16" fill="none" xmlns="http://www.w3.org/2000/svg">
<path d="M9.1582 13.666C8.4668 13.9707 7.39746 14.2432 5.9502 14.4834C4.62598 14.7061 3.53906 14.8174 2.68945 14.8174C1.25391 14.8174 0.536133 14.1875 0.536133 12.9277C0.536133 13.0273 0.594727 12.0986 0.711914 10.1416C0.864258 7.59863 0.94043 4.76855 0.94043 1.65137C0.94043 1.31738 1.05469 1.0332 1.2832 0.798828C1.51758 0.564453 1.81055 0.447266 2.16211 0.447266C2.51367 0.447266 2.80664 0.564453 3.04102 0.798828C3.27539 1.0332 3.39258 1.31738 3.39258 1.65137C3.39258 4.77441 3.31348 7.65137 3.15527 10.2822C3.10254 10.751 3.04688 11.4688 2.98828 12.4355C4.37695 12.4121 6.1582 12.0723 8.33203 11.416C8.4668 11.375 8.5957 11.3545 8.71875 11.3545C9.08789 11.3545 9.38672 11.4893 9.61523 11.7588C9.82031 11.999 9.92285 12.2686 9.92285 12.5674C9.92285 13.0713 9.66797 13.4375 9.1582 13.666ZM16.8223 14.5361C15.0879 14.5361 13.6113 14.0381 12.3926 13.042C11.0918 11.9756 10.4414 10.5957 10.4414 8.90234C10.4414 6.91016 11.0654 5.09375 12.3135 3.45312C13.7139 1.60742 15.4775 0.68457 17.6045 0.68457C19.6494 0.68457 21.1816 1.15332 22.2012 2.09082C23.2207 3.02832 23.7305 4.4375 23.7305 6.31836C23.7305 8.31055 23.1562 10.1152 22.0078 11.7324C20.6836 13.6016 18.9551 14.5361 16.8223 14.5361ZM17.6045 3.06641C16.2979 3.06641 15.1787 3.69922 14.2471 4.96484C13.374 6.14844 12.9375 7.46094 12.9375 8.90234C12.9375 9.875 13.3154 10.666 14.0713 11.2754C14.7979 11.8613 15.7148 12.1543 16.8223 12.1543C18.1113 12.1543 19.1865 11.5215 20.0479 10.2559C20.8389 9.10156 21.2344 7.78906 21.2344 6.31836C21.2344 5.08789 20.959 4.23242 20.4082 3.75195C19.8809 3.29492 18.9463 3.06641 17.6045 3.06641ZM34.8135 3.20703C34.708 3.20703 34.541 3.19824 34.3125 3.18066C34.084 3.15723 33.8994 3.14551 33.7588 3.14551H33.0732C33.0674 3.0459 33.0645 3.25391 33.0645 3.76953C33.0645 7.96484 32.7686 11.0205 32.1768 12.9365C31.7432 14.3486 30.9551 15.0547 29.8125 15.0547C28.7227 15.0547 27.6445 14.6797 26.5781 13.9297C25.3711 13.0918 24.7676 12.1074 24.7676 10.9766C24.7676 10.0625 25.1807 9.60547 26.0068 9.60547C26.833 9.60547 27.2461 10.0566 27.2461 10.959C27.2461 11.3047 27.542 11.6768 28.1338 12.0752C28.7314 12.4678 29.291 12.6641 29.8125 12.6641C30.0234 12.6641 30.1758 12.2744 30.2695 11.4951C30.293 11.3076 30.3574 10.3965 30.4629 8.76172C30.5508 7.42578 30.5947 5.76172 30.5947 3.76953C30.5947 3.6875 30.5859 3.49707 30.5684 3.19824L30.3662 3.20703C30.1084 3.21875 29.7627 3.21582 29.3291 3.19824C28.8076 3.1748 28.4619 3.16309 28.292 3.16309C27.9463 3.16309 27.6533 3.05762 27.4131 2.84668C27.1553 2.61816 27.0264 2.32227 27.0264 1.95898C27.0264 1.16211 27.5508 0.763672 28.5996 0.763672C28.7988 0.763672 29.0947 0.772461 29.4873 0.790039C29.8799 0.801758 30.1729 0.807617 30.3662 0.807617C30.7354 0.807617 31.2861 0.787109 32.0186 0.746094C32.7568 0.705078 33.3105 0.68457 33.6797 0.68457C35.25 0.68457 36.0352 1.12109 36.0352 1.99414C36.0352 2.29883 35.9297 2.57129 35.7188 2.81152C35.4785 3.0752 35.1768 3.20703 34.8135 3.20703ZM47.25 14.2637C46.7871 14.2461 46.3213 13.7012 45.8525 12.6289C45.542 11.9375 45.2754 11.1406 45.0527 10.2383C44.6191 10.3027 43.9102 10.3672 42.9258 10.4316C42 10.4961 41.291 10.5723 40.7988 10.6602C40.5293 11.3047 40.0605 12.2744 39.3926 13.5693C39.1348 13.9912 38.7773 14.2021 38.3203 14.2021C37.998 14.2021 37.708 14.0938 37.4502 13.877C37.1924 13.6543 37.0635 13.373 37.0635 13.0332C37.0635 12.7344 37.4912 11.7207 38.3467 9.99219C38.2646 9.81055 38.2295 9.64062 38.2412 9.48242C38.2646 9.20117 38.5488 8.98145 39.0938 8.82324C39.9258 7.38184 40.8516 5.8877 41.8711 4.34082C43.3359 2.12012 44.2383 1.00977 44.5781 1.00977C45.2227 1.00977 45.6533 1.39941 45.8701 2.17871C45.9873 2.80566 46.1719 3.74609 46.4238 5C46.7812 6.6875 47.2178 8.61816 47.7334 10.792C47.7744 10.9561 47.9238 11.3428 48.1816 11.9521C48.3926 12.4561 48.498 12.834 48.498 13.0859C48.498 13.4258 48.3691 13.71 48.1113 13.9385C47.8594 14.167 47.5723 14.2754 47.25 14.2637ZM43.9717 5.24609C43.5146 6.03125 42.8848 7.10059 42.082 8.4541C42.3457 8.39551 42.7559 8.34863 43.3125 8.31348C43.9688 8.27246 44.3818 8.24023 44.5518 8.2168C44.4111 7.45508 44.2178 6.46484 43.9717 5.24609Z" fill="white"/>
</svg>
