<svg width="331" height="215" viewBox="0 0 331 215" fill="none" xmlns="http://www.w3.org/2000/svg">
<g filter="url(#filter0_d_381_106)">
<path d="M25.5 165.566C26.5402 166.023 27.3412 166.494 27.9307 166.938C28.7191 167.532 29 168.527 29 169.514V192V207H302V189.5V168.734C302 168.247 302.055 167.741 302.38 167.379C302.826 166.881 303.658 166.314 305 165.756C304 164.671 302 161 302 155V64V50C302.205 48.6165 302.908 46.8171 304.318 45C303.545 45.1667 302 43.4 302 35V1H28.5V37C28.5 43.4 26.8011 45 25.9517 45C27.6534 47.1716 28.3836 49.3704 28.5 51V69.5V149.5C28.5 161.9 26.5 165.377 25.5 165.566Z" fill="#5B934D"/>
<path fill-rule="evenodd" clip-rule="evenodd" d="M28.5 1H9C6.23858 1 4 3.23858 4 6V37V39V163V164V202C4 204.761 6.23858 207 9 207H29V192V169.514C29 168.527 28.7191 167.532 27.9307 166.938C27.3412 166.494 26.5402 166.023 25.5 165.566C26.5 165.377 28.5 161.9 28.5 149.5V69.5V51C28.3836 49.3704 27.6534 47.1716 25.9517 45C26.8011 45 28.5 43.4 28.5 37V1ZM302 207H322C324.761 207 327 204.761 327 202V164V163V38V37V6C327 3.23858 324.761 1 322 1H302V35C302 43.4 303.545 45.1667 304.318 45C302.908 46.8171 302.205 48.6165 302 50V64V155C302 161 304 164.671 305 165.756C303.658 166.314 302.826 166.881 302.38 167.379C302.055 167.741 302 168.247 302 168.734V189.5V207Z" fill="#46713B"/>
<path fill-rule="evenodd" clip-rule="evenodd" d="M28.5 1H9C6.23858 1 4 3.23858 4 6V37V39V163V164V202C4 204.761 6.23858 207 9 207H29V192V169.514C29 168.527 28.7191 167.532 27.9307 166.938C27.3412 166.494 26.5402 166.023 25.5 165.566C26.5 165.377 28.5 161.9 28.5 149.5V69.5V51C28.3836 49.3704 27.6534 47.1716 25.9517 45C26.8011 45 28.5 43.4 28.5 37V1ZM302 207H322C324.761 207 327 204.761 327 202V164V163V38V37V6C327 3.23858 324.761 1 322 1H302V35C302 43.4 303.545 45.1667 304.318 45C302.908 46.8171 302.205 48.6165 302 50V64V155C302 161 304 164.671 305 165.756C303.658 166.314 302.826 166.881 302.38 167.379C302.055 167.741 302 168.247 302 168.734V189.5V207Z" fill="url(#paint0_linear_381_106)" fill-opacity="0.3"/>
<path fill-rule="evenodd" clip-rule="evenodd" d="M4 37C16.2349 37 22.7803 40.9529 25.9517 45C27.6534 47.1716 28.3836 49.3704 28.5 51V69.5C28.5 68.5 28.3 63.6 27.5 52C26.7 40.4 11.5 38.5 4 39V37ZM4 163C15.0401 162.474 21.7906 163.935 25.5 165.566C26.5402 166.023 27.3412 166.494 27.9307 166.938C28.7191 167.532 29 168.527 29 169.514V192C28.5 186.333 27.4 173.9 27 169.5C26.6 165.1 11.5 164 4 164V163ZM302.38 167.379C302.055 167.741 302 168.247 302 168.734V189.5C302.167 184.667 302.6 173.9 303 169.5C303.4 165.1 319.167 164 327 164V163C315.05 163 308.393 164.347 305 165.756C303.658 166.314 302.826 166.881 302.38 167.379ZM327 37V38C319.5 37.8333 304.2 40.1 303 50.5C302.6 56.1 302.167 61.8333 302 64V50C302.205 48.6165 302.908 46.8171 304.318 45C307.493 40.9066 314.257 36.723 327 37Z" fill="#867B35"/>
<path d="M56.1895 5.44287V40.0501C56.1895 48.7859 61.6412 47.4419 66.5289 47.4419C70.4391 47.4419 71.0406 44.866 70.8527 43.578V40.0501V5.44287C70.8527 0.066997 66.1529 1.07497 61.0772 1.07497C57.0167 1.07497 56.1269 3.98691 56.1895 5.44287Z" fill="#2F772E"/>
<path d="M56.1895 5.44287V40.0501C56.1895 48.7859 61.6412 47.4419 66.5289 47.4419C70.4391 47.4419 71.0406 44.866 70.8527 43.578V40.0501V5.44287C70.8527 0.066997 66.1529 1.07497 61.0772 1.07497C57.0167 1.07497 56.1269 3.98691 56.1895 5.44287Z" fill="url(#paint1_linear_381_106)"/>
<path d="M56.1895 5.44287V40.0501C56.1895 48.7859 61.6412 47.4419 66.5289 47.4419C70.4391 47.4419 71.0406 44.866 70.8527 43.578V40.0501V5.44287C70.8527 0.066997 66.1529 1.07497 61.0772 1.07497C57.0167 1.07497 56.1269 3.98691 56.1895 5.44287Z" stroke="#2F772E"/>
<path d="M56.1895 49.3003V83.9075C56.1895 92.6433 61.6412 91.2993 66.5289 91.2993C70.4391 91.2993 71.0406 88.7234 70.8527 87.4354V83.9075V49.3003C70.8527 43.9244 66.1529 44.9324 61.0772 44.9324C57.0167 44.9324 56.1269 47.8443 56.1895 49.3003Z" fill="#2F772E"/>
<path d="M56.1895 49.3003V83.9075C56.1895 92.6433 61.6412 91.2993 66.5289 91.2993C70.4391 91.2993 71.0406 88.7234 70.8527 87.4354V83.9075V49.3003C70.8527 43.9244 66.1529 44.9324 61.0772 44.9324C57.0167 44.9324 56.1269 47.8443 56.1895 49.3003Z" fill="url(#paint2_linear_381_106)"/>
<path d="M56.1895 49.3003V83.9075C56.1895 92.6433 61.6412 91.2993 66.5289 91.2993C70.4391 91.2993 71.0406 88.7234 70.8527 87.4354V83.9075V49.3003C70.8527 43.9244 66.1529 44.9324 61.0772 44.9324C57.0167 44.9324 56.1269 47.8443 56.1895 49.3003Z" stroke="#2F772E"/>
<path d="M56.1895 93.8237V128.431C56.1895 137.167 61.6412 135.823 66.5289 135.823C70.4391 135.823 71.0406 133.247 70.8527 131.959V128.431V93.8237C70.8527 88.4479 66.1529 89.4558 61.0772 89.4558C57.0167 89.4558 56.1269 92.3678 56.1895 93.8237Z" fill="#2F772E"/>
<path d="M56.1895 93.8237V128.431C56.1895 137.167 61.6412 135.823 66.5289 135.823C70.4391 135.823 71.0406 133.247 70.8527 131.959V128.431V93.8237C70.8527 88.4479 66.1529 89.4558 61.0772 89.4558C57.0167 89.4558 56.1269 92.3678 56.1895 93.8237Z" fill="url(#paint3_linear_381_106)"/>
<path d="M56.1895 93.8237V128.431C56.1895 137.167 61.6412 135.823 66.5289 135.823C70.4391 135.823 71.0406 133.247 70.8527 131.959V128.431V93.8237C70.8527 88.4479 66.1529 89.4558 61.0772 89.4558C57.0167 89.4558 56.1269 92.3678 56.1895 93.8237Z" stroke="#2F772E"/>
<path d="M56.1895 138.948V173.061C56.1895 181.672 61.6412 180.347 66.5289 180.347C70.4391 180.347 71.0406 177.808 70.8527 176.539V173.061V138.948C70.8527 133.649 66.1529 134.643 61.0772 134.643C57.0167 134.643 56.1269 137.513 56.1895 138.948Z" fill="#2F772E"/>
<path d="M56.1895 138.948V173.061C56.1895 181.672 61.6412 180.347 66.5289 180.347C70.4391 180.347 71.0406 177.808 70.8527 176.539V173.061V138.948C70.8527 133.649 66.1529 134.643 61.0772 134.643C57.0167 134.643 56.1269 137.513 56.1895 138.948Z" fill="url(#paint4_linear_381_106)"/>
<path d="M56.1895 138.948V173.061C56.1895 181.672 61.6412 180.347 66.5289 180.347C70.4391 180.347 71.0406 177.808 70.8527 176.539V173.061V138.948C70.8527 133.649 66.1529 134.643 61.0772 134.643C57.0167 134.643 56.1269 137.513 56.1895 138.948Z" stroke="#2F772E"/>
<path d="M80.437 4.5543V32.2401C80.437 39.2287 84.7983 38.1535 88.7085 38.1535C91.8366 38.1535 92.3179 36.0928 92.1675 35.0624V32.2401V4.5543C92.1675 0.253598 88.4077 1.05998 84.3471 1.05998C81.0987 1.05998 80.3869 3.38952 80.437 4.5543Z" fill="#2F772E"/>
<path d="M80.437 4.5543V32.2401C80.437 39.2287 84.7983 38.1535 88.7085 38.1535C91.8366 38.1535 92.3179 36.0928 92.1675 35.0624V32.2401V4.5543C92.1675 0.253598 88.4077 1.05998 84.3471 1.05998C81.0987 1.05998 80.3869 3.38952 80.437 4.5543Z" fill="url(#paint5_linear_381_106)"/>
<path d="M80.437 4.5543V32.2401C80.437 39.2287 84.7983 38.1535 88.7085 38.1535C91.8366 38.1535 92.3179 36.0928 92.1675 35.0624V32.2401V4.5543C92.1675 0.253598 88.4077 1.05998 84.3471 1.05998C81.0987 1.05998 80.3869 3.38952 80.437 4.5543Z" stroke="#2F772E"/>
<path d="M80.437 39.6412V67.327C80.437 74.3156 84.7983 73.2404 88.7085 73.2404C91.8366 73.2404 92.3179 71.1797 92.1675 70.1493V67.327V39.6412C92.1675 35.3405 88.4077 36.1469 84.3471 36.1469C81.0987 36.1469 80.3869 38.4764 80.437 39.6412Z" fill="#2F772E"/>
<path d="M80.437 39.6412V67.327C80.437 74.3156 84.7983 73.2404 88.7085 73.2404C91.8366 73.2404 92.3179 71.1797 92.1675 70.1493V67.327V39.6412C92.1675 35.3405 88.4077 36.1469 84.3471 36.1469C81.0987 36.1469 80.3869 38.4764 80.437 39.6412Z" fill="url(#paint6_linear_381_106)"/>
<path d="M80.437 39.6412V67.327C80.437 74.3156 84.7983 73.2404 88.7085 73.2404C91.8366 73.2404 92.3179 71.1797 92.1675 70.1493V67.327V39.6412C92.1675 35.3405 88.4077 36.1469 84.3471 36.1469C81.0987 36.1469 80.3869 38.4764 80.437 39.6412Z" stroke="#2F772E"/>
<path d="M80.437 75.2589V102.945C80.437 109.933 84.7983 108.858 88.7085 108.858C91.8366 108.858 92.3179 106.797 92.1675 105.767V102.945V75.2589C92.1675 70.9582 88.4077 71.7646 84.3471 71.7646C81.0987 71.7646 80.3869 74.0941 80.437 75.2589Z" fill="#2F772E"/>
<path d="M80.437 75.2589V102.945C80.437 109.933 84.7983 108.858 88.7085 108.858C91.8366 108.858 92.3179 106.797 92.1675 105.767V102.945V75.2589C92.1675 70.9582 88.4077 71.7646 84.3471 71.7646C81.0987 71.7646 80.3869 74.0941 80.437 75.2589Z" fill="url(#paint7_linear_381_106)"/>
<path d="M80.437 75.2589V102.945C80.437 109.933 84.7983 108.858 88.7085 108.858C91.8366 108.858 92.3179 106.797 92.1675 105.767V102.945V75.2589C92.1675 70.9582 88.4077 71.7646 84.3471 71.7646C81.0987 71.7646 80.3869 74.0941 80.437 75.2589Z" stroke="#2F772E"/>
<path d="M80.437 111.357V138.647C80.437 145.536 84.7983 144.476 88.7085 144.476C91.8366 144.476 92.3179 142.445 92.1675 141.429V138.647V111.357C92.1675 107.118 88.4077 107.913 84.3471 107.913C81.0987 107.913 80.3869 110.209 80.437 111.357Z" fill="#2F772E"/>
<path d="M80.437 111.357V138.647C80.437 145.536 84.7983 144.476 88.7085 144.476C91.8366 144.476 92.3179 142.445 92.1675 141.429V138.647V111.357C92.1675 107.118 88.4077 107.913 84.3471 107.913C81.0987 107.913 80.3869 110.209 80.437 111.357Z" fill="url(#paint8_linear_381_106)"/>
<path d="M80.437 111.357V138.647C80.437 145.536 84.7983 144.476 88.7085 144.476C91.8366 144.476 92.3179 142.445 92.1675 141.429V138.647V111.357C92.1675 107.118 88.4077 107.913 84.3471 107.913C81.0987 107.913 80.3869 110.209 80.437 111.357Z" stroke="#2F772E"/>
<path d="M119.383 5.44287V40.0501C119.383 48.7859 124.835 47.4419 129.722 47.4419C133.632 47.4419 134.234 44.866 134.046 43.578V40.0501V5.44287C134.046 0.066997 129.346 1.07497 124.271 1.07497C120.21 1.07497 119.32 3.98691 119.383 5.44287Z" fill="#2F772E"/>
<path d="M119.383 5.44287V40.0501C119.383 48.7859 124.835 47.4419 129.722 47.4419C133.632 47.4419 134.234 44.866 134.046 43.578V40.0501V5.44287C134.046 0.066997 129.346 1.07497 124.271 1.07497C120.21 1.07497 119.32 3.98691 119.383 5.44287Z" fill="url(#paint9_linear_381_106)"/>
<path d="M119.383 5.44287V40.0501C119.383 48.7859 124.835 47.4419 129.722 47.4419C133.632 47.4419 134.234 44.866 134.046 43.578V40.0501V5.44287C134.046 0.066997 129.346 1.07497 124.271 1.07497C120.21 1.07497 119.32 3.98691 119.383 5.44287Z" stroke="#2F772E"/>
<path d="M119.383 49.3003V83.9075C119.383 92.6433 124.835 91.2993 129.722 91.2993C133.632 91.2993 134.234 88.7234 134.046 87.4354V83.9075V49.3003C134.046 43.9244 129.346 44.9324 124.271 44.9324C120.21 44.9324 119.32 47.8443 119.383 49.3003Z" fill="#2F772E"/>
<path d="M119.383 49.3003V83.9075C119.383 92.6433 124.835 91.2993 129.722 91.2993C133.632 91.2993 134.234 88.7234 134.046 87.4354V83.9075V49.3003C134.046 43.9244 129.346 44.9324 124.271 44.9324C120.21 44.9324 119.32 47.8443 119.383 49.3003Z" fill="url(#paint10_linear_381_106)"/>
<path d="M119.383 49.3003V83.9075C119.383 92.6433 124.835 91.2993 129.722 91.2993C133.632 91.2993 134.234 88.7234 134.046 87.4354V83.9075V49.3003C134.046 43.9244 129.346 44.9324 124.271 44.9324C120.21 44.9324 119.32 47.8443 119.383 49.3003Z" stroke="#2F772E"/>
<path d="M119.383 93.8237V128.431C119.383 137.167 124.835 135.823 129.722 135.823C133.632 135.823 134.234 133.247 134.046 131.959V128.431V93.8237C134.046 88.4479 129.346 89.4558 124.271 89.4558C120.21 89.4558 119.32 92.3678 119.383 93.8237Z" fill="#2F772E"/>
<path d="M119.383 93.8237V128.431C119.383 137.167 124.835 135.823 129.722 135.823C133.632 135.823 134.234 133.247 134.046 131.959V128.431V93.8237C134.046 88.4479 129.346 89.4558 124.271 89.4558C120.21 89.4558 119.32 92.3678 119.383 93.8237Z" fill="url(#paint11_linear_381_106)"/>
<path d="M119.383 93.8237V128.431C119.383 137.167 124.835 135.823 129.722 135.823C133.632 135.823 134.234 133.247 134.046 131.959V128.431V93.8237C134.046 88.4479 129.346 89.4558 124.271 89.4558C120.21 89.4558 119.32 92.3678 119.383 93.8237Z" stroke="#2F772E"/>
<path d="M119.383 138.948V173.061C119.383 181.672 124.835 180.347 129.722 180.347C133.632 180.347 134.234 177.808 134.046 176.539V173.061V138.948C134.046 133.649 129.346 134.643 124.271 134.643C120.21 134.643 119.32 137.513 119.383 138.948Z" fill="#2F772E"/>
<path d="M119.383 138.948V173.061C119.383 181.672 124.835 180.347 129.722 180.347C133.632 180.347 134.234 177.808 134.046 176.539V173.061V138.948C134.046 133.649 129.346 134.643 124.271 134.643C120.21 134.643 119.32 137.513 119.383 138.948Z" fill="url(#paint12_linear_381_106)"/>
<path d="M119.383 138.948V173.061C119.383 181.672 124.835 180.347 129.722 180.347C133.632 180.347 134.234 177.808 134.046 176.539V173.061V138.948C134.046 133.649 129.346 134.643 124.271 134.643C120.21 134.643 119.32 137.513 119.383 138.948Z" stroke="#2F772E"/>
<path d="M143.631 4.5543V32.2401C143.631 39.2287 147.993 38.1535 151.903 38.1535C155.031 38.1535 155.512 36.0928 155.362 35.0624V32.2401V4.5543C155.362 0.253598 151.602 1.05998 147.541 1.05998C144.293 1.05998 143.581 3.38952 143.631 4.5543Z" fill="#2F772E"/>
<path d="M143.631 4.5543V32.2401C143.631 39.2287 147.993 38.1535 151.903 38.1535C155.031 38.1535 155.512 36.0928 155.362 35.0624V32.2401V4.5543C155.362 0.253598 151.602 1.05998 147.541 1.05998C144.293 1.05998 143.581 3.38952 143.631 4.5543Z" fill="url(#paint13_linear_381_106)"/>
<path d="M143.631 4.5543V32.2401C143.631 39.2287 147.993 38.1535 151.903 38.1535C155.031 38.1535 155.512 36.0928 155.362 35.0624V32.2401V4.5543C155.362 0.253598 151.602 1.05998 147.541 1.05998C144.293 1.05998 143.581 3.38952 143.631 4.5543Z" stroke="#2F772E"/>
<path d="M143.631 39.6412V67.327C143.631 74.3156 147.993 73.2404 151.903 73.2404C155.031 73.2404 155.512 71.1797 155.362 70.1493V67.327V39.6412C155.362 35.3405 151.602 36.1469 147.541 36.1469C144.293 36.1469 143.581 38.4764 143.631 39.6412Z" fill="#2F772E"/>
<path d="M143.631 39.6412V67.327C143.631 74.3156 147.993 73.2404 151.903 73.2404C155.031 73.2404 155.512 71.1797 155.362 70.1493V67.327V39.6412C155.362 35.3405 151.602 36.1469 147.541 36.1469C144.293 36.1469 143.581 38.4764 143.631 39.6412Z" fill="url(#paint14_linear_381_106)"/>
<path d="M143.631 39.6412V67.327C143.631 74.3156 147.993 73.2404 151.903 73.2404C155.031 73.2404 155.512 71.1797 155.362 70.1493V67.327V39.6412C155.362 35.3405 151.602 36.1469 147.541 36.1469C144.293 36.1469 143.581 38.4764 143.631 39.6412Z" stroke="#2F772E"/>
<path d="M143.631 75.2589V102.945C143.631 109.933 147.993 108.858 151.903 108.858C155.031 108.858 155.512 106.797 155.362 105.767V102.945V75.2589C155.362 70.9582 151.602 71.7646 147.541 71.7646C144.293 71.7646 143.581 74.0941 143.631 75.2589Z" fill="#2F772E"/>
<path d="M143.631 75.2589V102.945C143.631 109.933 147.993 108.858 151.903 108.858C155.031 108.858 155.512 106.797 155.362 105.767V102.945V75.2589C155.362 70.9582 151.602 71.7646 147.541 71.7646C144.293 71.7646 143.581 74.0941 143.631 75.2589Z" fill="url(#paint15_linear_381_106)"/>
<path d="M143.631 75.2589V102.945C143.631 109.933 147.993 108.858 151.903 108.858C155.031 108.858 155.512 106.797 155.362 105.767V102.945V75.2589C155.362 70.9582 151.602 71.7646 147.541 71.7646C144.293 71.7646 143.581 74.0941 143.631 75.2589Z" stroke="#2F772E"/>
<path d="M143.631 111.357V138.647C143.631 145.536 147.993 144.476 151.903 144.476C155.031 144.476 155.512 142.445 155.362 141.429V138.647V111.357C155.362 107.118 151.602 107.913 147.541 107.913C144.293 107.913 143.581 110.209 143.631 111.357Z" fill="#2F772E"/>
<path d="M143.631 111.357V138.647C143.631 145.536 147.993 144.476 151.903 144.476C155.031 144.476 155.512 142.445 155.362 141.429V138.647V111.357C155.362 107.118 151.602 107.913 147.541 107.913C144.293 107.913 143.581 110.209 143.631 111.357Z" fill="url(#paint16_linear_381_106)"/>
<path d="M143.631 111.357V138.647C143.631 145.536 147.993 144.476 151.903 144.476C155.031 144.476 155.512 142.445 155.362 141.429V138.647V111.357C155.362 107.118 151.602 107.913 147.541 107.913C144.293 107.913 143.581 110.209 143.631 111.357Z" stroke="#2F772E"/>
<path d="M206.827 4.5543V32.2401C206.827 39.2287 211.188 38.1535 215.098 38.1535C218.226 38.1535 218.708 36.0928 218.557 35.0624V32.2401V4.5543C218.557 0.253598 214.797 1.05998 210.737 1.05998C207.488 1.05998 206.777 3.38952 206.827 4.5543Z" fill="#2F772E"/>
<path d="M206.827 4.5543V32.2401C206.827 39.2287 211.188 38.1535 215.098 38.1535C218.226 38.1535 218.708 36.0928 218.557 35.0624V32.2401V4.5543C218.557 0.253598 214.797 1.05998 210.737 1.05998C207.488 1.05998 206.777 3.38952 206.827 4.5543Z" fill="url(#paint17_linear_381_106)"/>
<path d="M206.827 4.5543V32.2401C206.827 39.2287 211.188 38.1535 215.098 38.1535C218.226 38.1535 218.708 36.0928 218.557 35.0624V32.2401V4.5543C218.557 0.253598 214.797 1.05998 210.737 1.05998C207.488 1.05998 206.777 3.38952 206.827 4.5543Z" stroke="#2F772E"/>
<path d="M206.826 39.6412V67.327C206.826 74.3156 211.187 73.2404 215.097 73.2404C218.225 73.2404 218.707 71.1797 218.556 70.1493V67.327V39.6412C218.556 35.3405 214.796 36.1469 210.736 36.1469C207.487 36.1469 206.776 38.4764 206.826 39.6412Z" fill="#2F772E"/>
<path d="M206.826 39.6412V67.327C206.826 74.3156 211.187 73.2404 215.097 73.2404C218.225 73.2404 218.707 71.1797 218.556 70.1493V67.327V39.6412C218.556 35.3405 214.796 36.1469 210.736 36.1469C207.487 36.1469 206.776 38.4764 206.826 39.6412Z" fill="url(#paint18_linear_381_106)"/>
<path d="M206.826 39.6412V67.327C206.826 74.3156 211.187 73.2404 215.097 73.2404C218.225 73.2404 218.707 71.1797 218.556 70.1493V67.327V39.6412C218.556 35.3405 214.796 36.1469 210.736 36.1469C207.487 36.1469 206.776 38.4764 206.826 39.6412Z" stroke="#2F772E"/>
<path d="M206.826 75.2589V102.945C206.826 109.933 211.187 108.858 215.097 108.858C218.225 108.858 218.707 106.797 218.556 105.767V102.945V75.2589C218.556 70.9582 214.796 71.7646 210.736 71.7646C207.487 71.7646 206.776 74.0941 206.826 75.2589Z" fill="#2F772E"/>
<path d="M206.826 75.2589V102.945C206.826 109.933 211.187 108.858 215.097 108.858C218.225 108.858 218.707 106.797 218.556 105.767V102.945V75.2589C218.556 70.9582 214.796 71.7646 210.736 71.7646C207.487 71.7646 206.776 74.0941 206.826 75.2589Z" fill="url(#paint19_linear_381_106)"/>
<path d="M206.826 75.2589V102.945C206.826 109.933 211.187 108.858 215.097 108.858C218.225 108.858 218.707 106.797 218.556 105.767V102.945V75.2589C218.556 70.9582 214.796 71.7646 210.736 71.7646C207.487 71.7646 206.776 74.0941 206.826 75.2589Z" stroke="#2F772E"/>
<path d="M206.826 111.357V138.647C206.826 145.536 211.187 144.476 215.097 144.476C218.225 144.476 218.707 142.445 218.556 141.429V138.647V111.357C218.556 107.118 214.796 107.913 210.736 107.913C207.487 107.913 206.776 110.209 206.826 111.357Z" fill="#2F772E"/>
<path d="M206.826 111.357V138.647C206.826 145.536 211.187 144.476 215.097 144.476C218.225 144.476 218.707 142.445 218.556 141.429V138.647V111.357C218.556 107.118 214.796 107.913 210.736 107.913C207.487 107.913 206.776 110.209 206.826 111.357Z" fill="url(#paint20_linear_381_106)"/>
<path d="M206.826 111.357V138.647C206.826 145.536 211.187 144.476 215.097 144.476C218.225 144.476 218.707 142.445 218.556 141.429V138.647V111.357C218.556 107.118 214.796 107.913 210.736 107.913C207.487 107.913 206.776 110.209 206.826 111.357Z" stroke="#2F772E"/>
<path d="M250.916 5.44287V40.0501C250.916 48.7859 256.368 47.4419 261.255 47.4419C265.166 47.4419 265.767 44.866 265.579 43.578V40.0501V5.44287C265.579 0.066997 260.879 1.07497 255.804 1.07497C251.743 1.07497 250.853 3.98691 250.916 5.44287Z" fill="#2F772E"/>
<path d="M250.916 5.44287V40.0501C250.916 48.7859 256.368 47.4419 261.255 47.4419C265.166 47.4419 265.767 44.866 265.579 43.578V40.0501V5.44287C265.579 0.066997 260.879 1.07497 255.804 1.07497C251.743 1.07497 250.853 3.98691 250.916 5.44287Z" fill="url(#paint21_linear_381_106)"/>
<path d="M250.916 5.44287V40.0501C250.916 48.7859 256.368 47.4419 261.255 47.4419C265.166 47.4419 265.767 44.866 265.579 43.578V40.0501V5.44287C265.579 0.066997 260.879 1.07497 255.804 1.07497C251.743 1.07497 250.853 3.98691 250.916 5.44287Z" stroke="#2F772E"/>
<path d="M250.916 49.3003V83.9075C250.916 92.6433 256.368 91.2993 261.255 91.2993C265.166 91.2993 265.767 88.7234 265.579 87.4354V83.9075V49.3003C265.579 43.9244 260.879 44.9324 255.804 44.9324C251.743 44.9324 250.853 47.8443 250.916 49.3003Z" fill="#2F772E"/>
<path d="M250.916 49.3003V83.9075C250.916 92.6433 256.368 91.2993 261.255 91.2993C265.166 91.2993 265.767 88.7234 265.579 87.4354V83.9075V49.3003C265.579 43.9244 260.879 44.9324 255.804 44.9324C251.743 44.9324 250.853 47.8443 250.916 49.3003Z" fill="url(#paint22_linear_381_106)"/>
<path d="M250.916 49.3003V83.9075C250.916 92.6433 256.368 91.2993 261.255 91.2993C265.166 91.2993 265.767 88.7234 265.579 87.4354V83.9075V49.3003C265.579 43.9244 260.879 44.9324 255.804 44.9324C251.743 44.9324 250.853 47.8443 250.916 49.3003Z" stroke="#2F772E"/>
<path d="M250.916 93.8237V128.431C250.916 137.167 256.368 135.823 261.255 135.823C265.166 135.823 265.767 133.247 265.579 131.959V128.431V93.8237C265.579 88.4479 260.879 89.4558 255.804 89.4558C251.743 89.4558 250.853 92.3678 250.916 93.8237Z" fill="#2F772E"/>
<path d="M250.916 93.8237V128.431C250.916 137.167 256.368 135.823 261.255 135.823C265.166 135.823 265.767 133.247 265.579 131.959V128.431V93.8237C265.579 88.4479 260.879 89.4558 255.804 89.4558C251.743 89.4558 250.853 92.3678 250.916 93.8237Z" fill="url(#paint23_linear_381_106)"/>
<path d="M250.916 93.8237V128.431C250.916 137.167 256.368 135.823 261.255 135.823C265.166 135.823 265.767 133.247 265.579 131.959V128.431V93.8237C265.579 88.4479 260.879 89.4558 255.804 89.4558C251.743 89.4558 250.853 92.3678 250.916 93.8237Z" stroke="#2F772E"/>
<path d="M250.916 138.948V173.061C250.916 181.672 256.368 180.347 261.255 180.347C265.166 180.347 265.767 177.808 265.579 176.539V173.061V138.948C265.579 133.649 260.879 134.643 255.804 134.643C251.743 134.643 250.853 137.513 250.916 138.948Z" fill="#2F772E"/>
<path d="M250.916 138.948V173.061C250.916 181.672 256.368 180.347 261.255 180.347C265.166 180.347 265.767 177.808 265.579 176.539V173.061V138.948C265.579 133.649 260.879 134.643 255.804 134.643C251.743 134.643 250.853 137.513 250.916 138.948Z" fill="url(#paint24_linear_381_106)"/>
<path d="M250.916 138.948V173.061C250.916 181.672 256.368 180.347 261.255 180.347C265.166 180.347 265.767 177.808 265.579 176.539V173.061V138.948C265.579 133.649 260.879 134.643 255.804 134.643C251.743 134.643 250.853 137.513 250.916 138.948Z" stroke="#2F772E"/>
<path d="M275.164 4.5543V32.2401C275.164 39.2287 279.525 38.1535 283.435 38.1535C286.563 38.1535 287.044 36.0928 286.894 35.0624V32.2401V4.5543C286.894 0.253598 283.134 1.05998 279.074 1.05998C275.825 1.05998 275.113 3.38952 275.164 4.5543Z" fill="#2F772E"/>
<path d="M275.164 4.5543V32.2401C275.164 39.2287 279.525 38.1535 283.435 38.1535C286.563 38.1535 287.044 36.0928 286.894 35.0624V32.2401V4.5543C286.894 0.253598 283.134 1.05998 279.074 1.05998C275.825 1.05998 275.113 3.38952 275.164 4.5543Z" fill="url(#paint25_linear_381_106)"/>
<path d="M275.164 4.5543V32.2401C275.164 39.2287 279.525 38.1535 283.435 38.1535C286.563 38.1535 287.044 36.0928 286.894 35.0624V32.2401V4.5543C286.894 0.253598 283.134 1.05998 279.074 1.05998C275.825 1.05998 275.113 3.38952 275.164 4.5543Z" stroke="#2F772E"/>
<path d="M275.164 39.6412V67.327C275.164 74.3156 279.525 73.2404 283.435 73.2404C286.563 73.2404 287.044 71.1797 286.894 70.1493V67.327V39.6412C286.894 35.3405 283.134 36.1469 279.074 36.1469C275.825 36.1469 275.113 38.4764 275.164 39.6412Z" fill="#2F772E"/>
<path d="M275.164 39.6412V67.327C275.164 74.3156 279.525 73.2404 283.435 73.2404C286.563 73.2404 287.044 71.1797 286.894 70.1493V67.327V39.6412C286.894 35.3405 283.134 36.1469 279.074 36.1469C275.825 36.1469 275.113 38.4764 275.164 39.6412Z" fill="url(#paint26_linear_381_106)"/>
<path d="M275.164 39.6412V67.327C275.164 74.3156 279.525 73.2404 283.435 73.2404C286.563 73.2404 287.044 71.1797 286.894 70.1493V67.327V39.6412C286.894 35.3405 283.134 36.1469 279.074 36.1469C275.825 36.1469 275.113 38.4764 275.164 39.6412Z" stroke="#2F772E"/>
<path d="M275.164 75.2589V102.945C275.164 109.933 279.525 108.858 283.435 108.858C286.563 108.858 287.044 106.797 286.894 105.767V102.945V75.2589C286.894 70.9582 283.134 71.7646 279.074 71.7646C275.825 71.7646 275.113 74.0941 275.164 75.2589Z" fill="#2F772E"/>
<path d="M275.164 75.2589V102.945C275.164 109.933 279.525 108.858 283.435 108.858C286.563 108.858 287.044 106.797 286.894 105.767V102.945V75.2589C286.894 70.9582 283.134 71.7646 279.074 71.7646C275.825 71.7646 275.113 74.0941 275.164 75.2589Z" fill="url(#paint27_linear_381_106)"/>
<path d="M275.164 75.2589V102.945C275.164 109.933 279.525 108.858 283.435 108.858C286.563 108.858 287.044 106.797 286.894 105.767V102.945V75.2589C286.894 70.9582 283.134 71.7646 279.074 71.7646C275.825 71.7646 275.113 74.0941 275.164 75.2589Z" stroke="#2F772E"/>
<path d="M275.164 111.357V138.647C275.164 145.536 279.525 144.476 283.435 144.476C286.563 144.476 287.044 142.445 286.894 141.429V138.647V111.357C286.894 107.118 283.134 107.913 279.074 107.913C275.825 107.913 275.113 110.209 275.164 111.357Z" fill="#2F772E"/>
<path d="M275.164 111.357V138.647C275.164 145.536 279.525 144.476 283.435 144.476C286.563 144.476 287.044 142.445 286.894 141.429V138.647V111.357C286.894 107.118 283.134 107.913 279.074 107.913C275.825 107.913 275.113 110.209 275.164 111.357Z" fill="url(#paint28_linear_381_106)"/>
<path d="M275.164 111.357V138.647C275.164 145.536 279.525 144.476 283.435 144.476C286.563 144.476 287.044 142.445 286.894 141.429V138.647V111.357C286.894 107.118 283.134 107.913 279.074 107.913C275.825 107.913 275.113 110.209 275.164 111.357Z" stroke="#2F772E"/>
<path d="M182.576 5.44287V40.0501C182.576 48.7859 188.028 47.4419 192.916 47.4419C196.826 47.4419 197.427 44.866 197.239 43.578V40.0501V5.44287C197.239 0.066997 192.54 1.07497 187.464 1.07497C183.403 1.07497 182.514 3.98691 182.576 5.44287Z" fill="#2F772E"/>
<path d="M182.576 5.44287V40.0501C182.576 48.7859 188.028 47.4419 192.916 47.4419C196.826 47.4419 197.427 44.866 197.239 43.578V40.0501V5.44287C197.239 0.066997 192.54 1.07497 187.464 1.07497C183.403 1.07497 182.514 3.98691 182.576 5.44287Z" fill="url(#paint29_linear_381_106)"/>
<path d="M182.576 5.44287V40.0501C182.576 48.7859 188.028 47.4419 192.916 47.4419C196.826 47.4419 197.427 44.866 197.239 43.578V40.0501V5.44287C197.239 0.066997 192.54 1.07497 187.464 1.07497C183.403 1.07497 182.514 3.98691 182.576 5.44287Z" stroke="#2F772E"/>
<path d="M182.576 49.3003V83.9075C182.576 92.6433 188.028 91.2993 192.916 91.2993C196.826 91.2993 197.427 88.7234 197.239 87.4354V83.9075V49.3003C197.239 43.9244 192.54 44.9324 187.464 44.9324C183.403 44.9324 182.514 47.8443 182.576 49.3003Z" fill="#2F772E"/>
<path d="M182.576 49.3003V83.9075C182.576 92.6433 188.028 91.2993 192.916 91.2993C196.826 91.2993 197.427 88.7234 197.239 87.4354V83.9075V49.3003C197.239 43.9244 192.54 44.9324 187.464 44.9324C183.403 44.9324 182.514 47.8443 182.576 49.3003Z" fill="url(#paint30_linear_381_106)"/>
<path d="M182.576 49.3003V83.9075C182.576 92.6433 188.028 91.2993 192.916 91.2993C196.826 91.2993 197.427 88.7234 197.239 87.4354V83.9075V49.3003C197.239 43.9244 192.54 44.9324 187.464 44.9324C183.403 44.9324 182.514 47.8443 182.576 49.3003Z" stroke="#2F772E"/>
<path d="M182.576 93.8237V128.431C182.576 137.167 188.028 135.823 192.916 135.823C196.826 135.823 197.427 133.247 197.239 131.959V128.431V93.8237C197.239 88.4479 192.54 89.4558 187.464 89.4558C183.403 89.4558 182.514 92.3678 182.576 93.8237Z" fill="#2F772E"/>
<path d="M182.576 93.8237V128.431C182.576 137.167 188.028 135.823 192.916 135.823C196.826 135.823 197.427 133.247 197.239 131.959V128.431V93.8237C197.239 88.4479 192.54 89.4558 187.464 89.4558C183.403 89.4558 182.514 92.3678 182.576 93.8237Z" fill="url(#paint31_linear_381_106)"/>
<path d="M182.576 93.8237V128.431C182.576 137.167 188.028 135.823 192.916 135.823C196.826 135.823 197.427 133.247 197.239 131.959V128.431V93.8237C197.239 88.4479 192.54 89.4558 187.464 89.4558C183.403 89.4558 182.514 92.3678 182.576 93.8237Z" stroke="#2F772E"/>
<path d="M182.576 138.949V173.062C182.576 181.673 188.028 180.348 192.916 180.348C196.826 180.348 197.427 177.809 197.239 176.539V173.062V138.949C197.239 133.65 192.54 134.643 187.464 134.643C183.403 134.643 182.514 137.514 182.576 138.949Z" fill="#2F772E"/>
<path d="M182.576 138.949V173.062C182.576 181.673 188.028 180.348 192.916 180.348C196.826 180.348 197.427 177.809 197.239 176.539V173.062V138.949C197.239 133.65 192.54 134.643 187.464 134.643C183.403 134.643 182.514 137.514 182.576 138.949Z" fill="url(#paint32_linear_381_106)"/>
<path d="M182.576 138.949V173.062C182.576 181.673 188.028 180.348 192.916 180.348C196.826 180.348 197.427 177.809 197.239 176.539V173.062V138.949C197.239 133.65 192.54 134.643 187.464 134.643C183.403 134.643 182.514 137.514 182.576 138.949Z" stroke="#2F772E"/>
<path d="M75.6577 69.445C43.9136 80.8747 23.9756 136.894 17.9746 163.474C51.4823 47.5823 112.521 59.8094 138.852 80.4095C131.014 71.9923 107.402 58.0152 75.6577 69.445Z" fill="#608E24" stroke="#225C21" stroke-width="0.5"/>
<path d="M77.8618 60.1413C46.1177 71.571 26.1797 127.59 20.1787 154.171C53.6864 38.2786 114.725 50.5057 141.056 71.1058C133.218 62.6886 109.606 48.7115 77.8618 60.1413Z" fill="#608E24" stroke="#225C21" stroke-width="0.5"/>
<path d="M45.6765 114.909C30.4317 120.933 20.8566 150.459 17.9746 164.469C34.0664 103.386 63.3799 109.83 76.0251 120.688C72.261 116.252 60.9214 108.885 45.6765 114.909Z" fill="#608E24" stroke="#225C21" stroke-width="0.5"/>
<path d="M46.1697 12.9972C34.5196 17.192 27.2024 37.7509 25 47.506C37.2973 4.97364 59.6986 9.461 69.362 17.0212C66.4854 13.9321 57.8198 8.80253 46.1697 12.9972Z" fill="#608E24" stroke="#225C21" stroke-width="0.5"/>
<path d="M46.9783 9.5822C35.3282 13.7769 28.011 34.3359 25.8086 44.091C38.1059 1.5586 60.5071 6.04597 70.1706 13.6062C67.294 10.5171 58.6284 5.38749 46.9783 9.5822Z" fill="#608E24" stroke="#225C21" stroke-width="0.5"/>
<path d="M35.1666 29.6826C29.5717 31.8935 26.0577 42.7295 25 47.8712C30.9057 25.4536 41.6637 27.8187 46.3046 31.8035C44.9231 30.1753 40.7615 27.4717 35.1666 29.6826Z" fill="#608E24" stroke="#225C21" stroke-width="0.5"/>
<path d="M164.882 57.2403C159.252 59.2678 155.715 69.2046 154.65 73.9196C160.594 53.3622 171.421 55.5311 176.092 59.1852C174.702 57.6922 170.513 55.2129 164.882 57.2403Z" fill="#608E24" stroke="#225C21" stroke-width="0.5"/>
<path d="M165.274 55.5899C159.643 57.6174 156.106 67.5542 155.042 72.2692C160.986 51.7119 171.813 53.8807 176.484 57.5349C175.093 56.0418 170.905 53.5625 165.274 55.5899Z" fill="#608E24" stroke="#225C21" stroke-width="0.5"/>
<path d="M159.564 65.3054C156.86 66.374 155.162 71.6114 154.65 74.0966C157.505 63.2614 162.705 64.4046 164.948 66.3305C164.28 65.5436 162.268 64.2368 159.564 65.3054Z" fill="#608E24" stroke="#225C21" stroke-width="0.5"/>
<path d="M206.767 76.5118C201.136 78.5392 197.6 88.4761 196.535 93.1911C202.479 72.6337 213.306 74.8026 217.977 78.4567C216.586 76.9637 212.398 74.4844 206.767 76.5118Z" fill="#608E24" stroke="#225C21" stroke-width="0.5"/>
<path d="M207.159 74.8614C201.528 76.8889 197.991 86.8257 196.927 91.5407C202.87 70.9833 213.698 73.1522 218.368 76.8063C216.978 75.3133 212.79 72.834 207.159 74.8614Z" fill="#608E24" stroke="#225C21" stroke-width="0.5"/>
<path d="M201.449 84.5769C198.745 85.6455 197.046 90.8829 196.535 93.368C199.39 82.5329 204.589 83.676 206.832 85.602C206.165 84.8151 204.153 83.5083 201.449 84.5769Z" fill="#608E24" stroke="#225C21" stroke-width="0.5"/>
<path d="M274.371 75.1827C268.74 77.2101 265.203 87.147 264.139 91.862C270.082 71.3046 280.91 73.4735 285.58 77.1276C284.19 75.6346 280.002 73.1553 274.371 75.1827Z" fill="#608E24" stroke="#225C21" stroke-width="0.5"/>
<path d="M274.762 73.5323C269.131 75.5598 265.595 85.4966 264.53 90.2116C270.474 69.6542 281.301 71.8231 285.972 75.4772C284.582 73.9842 280.393 71.5049 274.762 73.5323Z" fill="#608E24" stroke="#225C21" stroke-width="0.5"/>
<path d="M269.053 83.2478C266.348 84.3164 264.65 89.5538 264.139 92.0389C266.993 81.2038 272.193 82.3469 274.436 84.2729C273.768 83.486 271.757 82.1792 269.053 83.2478Z" fill="#608E24" stroke="#225C21" stroke-width="0.5"/>
<path d="M47.9467 31.3253C53.5776 33.3527 57.1142 43.2895 58.1787 48.0045C52.235 27.4472 41.4077 29.6161 36.7371 33.2702C38.1274 31.7771 42.3158 29.2978 47.9467 31.3253Z" fill="#608E24" stroke="#225C21" stroke-width="0.5"/>
<path d="M47.5551 29.6749C53.186 31.7023 56.7226 41.6392 57.7871 46.3541C51.8434 25.7968 41.0161 27.9657 36.3455 31.6198C37.7358 30.1267 41.9242 27.6474 47.5551 29.6749Z" fill="#608E24" stroke="#225C21" stroke-width="0.5"/>
<path d="M53.2648 39.3904C55.969 40.459 57.6675 45.6964 58.1787 48.1815C55.3243 37.3464 50.1246 38.4895 47.8815 40.4155C48.5492 39.6285 50.5607 38.3218 53.2648 39.3904Z" fill="#608E24" stroke="#225C21" stroke-width="0.5"/>
<path d="M111.141 75.1827C116.772 77.2101 120.309 87.147 121.373 91.862C115.429 71.3046 104.602 73.4735 99.9314 77.1276C101.322 75.6346 105.51 73.1553 111.141 75.1827Z" fill="#608E24" stroke="#225C21" stroke-width="0.5"/>
<path d="M110.749 73.5323C116.38 75.5598 119.917 85.4966 120.981 90.2116C115.038 69.6542 104.21 71.8231 99.5398 75.4772C100.93 73.9842 105.119 71.5049 110.749 73.5323Z" fill="#608E24" stroke="#225C21" stroke-width="0.5"/>
<path d="M116.459 83.2478C119.163 84.3164 120.862 89.5538 121.373 92.0389C118.519 81.2038 113.319 82.3469 111.076 84.2729C111.744 83.486 113.755 82.1792 116.459 83.2478Z" fill="#608E24" stroke="#225C21" stroke-width="0.5"/>
<path d="M110.406 28.6671C116.037 30.6945 119.573 40.6313 120.638 45.3463C114.694 24.789 103.867 26.9579 99.1961 30.612C100.586 29.1189 104.775 26.6396 110.406 28.6671Z" fill="#608E24" stroke="#225C21" stroke-width="0.5"/>
<path d="M110.014 27.0167C115.645 29.0441 119.182 38.981 120.246 43.6959C114.302 23.1386 103.475 25.3075 98.8044 28.9616C100.195 27.4685 104.383 24.9892 110.014 27.0167Z" fill="#608E24" stroke="#225C21" stroke-width="0.5"/>
<path d="M115.724 36.7322C118.428 37.8008 120.126 43.0382 120.638 45.5233C117.783 34.6881 112.584 35.8313 110.34 37.7573C111.008 36.9703 113.02 35.6636 115.724 36.7322Z" fill="#608E24" stroke="#225C21" stroke-width="0.5"/>
<path d="M174.333 119.042C179.964 121.07 183.501 131.006 184.565 135.721C178.622 115.164 167.794 117.333 163.124 120.987C164.514 119.494 168.703 117.015 174.333 119.042Z" fill="#608E24" stroke="#225C21" stroke-width="0.5"/>
<path d="M173.942 117.392C179.573 119.419 183.109 129.356 184.174 134.071C178.23 113.514 167.403 115.683 162.732 119.337C164.123 117.844 168.311 115.364 173.942 117.392Z" fill="#608E24" stroke="#225C21" stroke-width="0.5"/>
<path d="M179.652 127.107C182.356 128.176 184.054 133.413 184.565 135.898C181.711 125.063 176.511 126.206 174.268 128.132C174.936 127.345 176.947 126.039 179.652 127.107Z" fill="#608E24" stroke="#225C21" stroke-width="0.5"/>
<path d="M244.142 120.37C249.773 122.398 253.31 132.334 254.374 137.049C248.43 116.492 237.603 118.661 232.932 122.315C234.323 120.822 238.511 118.343 244.142 120.37Z" fill="#608E24" stroke="#225C21" stroke-width="0.5"/>
<path d="M243.75 118.72C249.381 120.747 252.918 130.684 253.982 135.399C248.039 114.842 237.211 117.011 232.541 120.665C233.931 119.172 238.12 116.692 243.75 118.72Z" fill="#608E24" stroke="#225C21" stroke-width="0.5"/>
<path d="M249.46 128.435C252.164 129.504 253.863 134.741 254.374 137.226C251.52 126.391 246.32 127.534 244.077 129.46C244.745 128.673 246.756 127.367 249.46 128.435Z" fill="#608E24" stroke="#225C21" stroke-width="0.5"/>
<path d="M273.994 116.285C290.979 122.4 301.647 152.374 304.857 166.596C286.929 104.587 254.27 111.129 240.181 122.151C244.375 117.648 257.009 110.169 273.994 116.285Z" fill="#608E24" stroke="#225C21" stroke-width="0.5"/>
<path d="M272.812 111.307C289.797 117.422 300.465 147.396 303.676 161.618C285.747 99.609 253.088 106.151 239 117.173C243.193 112.67 255.827 105.191 272.812 111.307Z" fill="#608E24" stroke="#225C21" stroke-width="0.5"/>
<path d="M290.035 140.612C298.192 143.836 303.315 159.634 304.857 167.13C296.247 134.447 280.563 137.895 273.797 143.704C275.811 141.331 281.878 137.389 290.035 140.612Z" fill="#608E24" stroke="#225C21" stroke-width="0.5"/>
<path d="M243.407 28.6671C249.038 30.6945 252.574 40.6313 253.639 45.3463C247.695 24.789 236.868 26.9579 232.197 30.612C233.587 29.1189 237.776 26.6396 243.407 28.6671Z" fill="#608E24" stroke="#225C21" stroke-width="0.5"/>
<path d="M243.015 27.0167C248.646 29.0441 252.183 38.981 253.247 43.6959C247.303 23.1386 236.476 25.3075 231.805 28.9616C233.196 27.4685 237.384 24.9892 243.015 27.0167Z" fill="#608E24" stroke="#225C21" stroke-width="0.5"/>
<path d="M248.725 36.7322C251.429 37.8008 253.127 43.0382 253.639 45.5233C250.784 34.6881 245.585 35.8313 243.341 37.7573C244.009 36.9703 246.021 35.6636 248.725 36.7322Z" fill="#608E24" stroke="#225C21" stroke-width="0.5"/>
</g>
<defs>
<filter id="filter0_d_381_106" x="0" y="0.5" width="331" height="214.5" filterUnits="userSpaceOnUse" color-interpolation-filters="sRGB">
<feFlood flood-opacity="0" result="BackgroundImageFix"/>
<feColorMatrix in="SourceAlpha" type="matrix" values="0 0 0 0 0 0 0 0 0 0 0 0 0 0 0 0 0 0 127 0" result="hardAlpha"/>
<feOffset dy="4"/>
<feGaussianBlur stdDeviation="2"/>
<feComposite in2="hardAlpha" operator="out"/>
<feColorMatrix type="matrix" values="0 0 0 0 0 0 0 0 0 0 0 0 0 0 0 0 0 0 0.25 0"/>
<feBlend mode="normal" in2="BackgroundImageFix" result="effect1_dropShadow_381_106"/>
<feBlend mode="normal" in="SourceGraphic" in2="effect1_dropShadow_381_106" result="shape"/>
</filter>
<linearGradient id="paint0_linear_381_106" x1="338" y1="-16" x2="4.00001" y2="219.5" gradientUnits="userSpaceOnUse">
<stop stop-color="#867B35"/>
<stop offset="1" stop-color="#867B35" stop-opacity="0"/>
</linearGradient>
<linearGradient id="paint1_linear_381_106" x1="53.7457" y1="-1.78096" x2="70.9799" y2="50.2201" gradientUnits="userSpaceOnUse">
<stop stop-color="#93EE91" stop-opacity="0.7"/>
<stop offset="1" stop-color="white" stop-opacity="0"/>
</linearGradient>
<linearGradient id="paint2_linear_381_106" x1="53.7457" y1="42.0765" x2="70.9799" y2="94.0775" gradientUnits="userSpaceOnUse">
<stop stop-color="#93EE91" stop-opacity="0.7"/>
<stop offset="1" stop-color="white" stop-opacity="0"/>
</linearGradient>
<linearGradient id="paint3_linear_381_106" x1="53.7457" y1="86.5999" x2="70.9799" y2="138.601" gradientUnits="userSpaceOnUse">
<stop stop-color="#93EE91" stop-opacity="0.7"/>
<stop offset="1" stop-color="white" stop-opacity="0"/>
</linearGradient>
<linearGradient id="paint4_linear_381_106" x1="53.7457" y1="131.828" x2="70.5382" y2="183.23" gradientUnits="userSpaceOnUse">
<stop stop-color="#93EE91" stop-opacity="0.7"/>
<stop offset="1" stop-color="white" stop-opacity="0"/>
</linearGradient>
<linearGradient id="paint5_linear_381_106" x1="78.4819" y1="-1.22477" x2="92.2693" y2="40.376" gradientUnits="userSpaceOnUse">
<stop stop-color="#93EE91" stop-opacity="0.7"/>
<stop offset="1" stop-color="white" stop-opacity="0"/>
</linearGradient>
<linearGradient id="paint6_linear_381_106" x1="78.4819" y1="33.8621" x2="92.2693" y2="75.463" gradientUnits="userSpaceOnUse">
<stop stop-color="#93EE91" stop-opacity="0.7"/>
<stop offset="1" stop-color="white" stop-opacity="0"/>
</linearGradient>
<linearGradient id="paint7_linear_381_106" x1="78.4819" y1="69.4798" x2="92.2693" y2="111.081" gradientUnits="userSpaceOnUse">
<stop stop-color="#93EE91" stop-opacity="0.7"/>
<stop offset="1" stop-color="white" stop-opacity="0"/>
</linearGradient>
<linearGradient id="paint8_linear_381_106" x1="78.4819" y1="105.661" x2="91.9159" y2="146.782" gradientUnits="userSpaceOnUse">
<stop stop-color="#93EE91" stop-opacity="0.7"/>
<stop offset="1" stop-color="white" stop-opacity="0"/>
</linearGradient>
<linearGradient id="paint9_linear_381_106" x1="116.939" y1="-1.78096" x2="134.173" y2="50.2201" gradientUnits="userSpaceOnUse">
<stop stop-color="#93EE91" stop-opacity="0.7"/>
<stop offset="1" stop-color="white" stop-opacity="0"/>
</linearGradient>
<linearGradient id="paint10_linear_381_106" x1="116.939" y1="42.0765" x2="134.173" y2="94.0775" gradientUnits="userSpaceOnUse">
<stop stop-color="#93EE91" stop-opacity="0.7"/>
<stop offset="1" stop-color="white" stop-opacity="0"/>
</linearGradient>
<linearGradient id="paint11_linear_381_106" x1="116.939" y1="86.5999" x2="134.173" y2="138.601" gradientUnits="userSpaceOnUse">
<stop stop-color="#93EE91" stop-opacity="0.7"/>
<stop offset="1" stop-color="white" stop-opacity="0"/>
</linearGradient>
<linearGradient id="paint12_linear_381_106" x1="116.939" y1="131.828" x2="133.732" y2="183.23" gradientUnits="userSpaceOnUse">
<stop stop-color="#93EE91" stop-opacity="0.7"/>
<stop offset="1" stop-color="white" stop-opacity="0"/>
</linearGradient>
<linearGradient id="paint13_linear_381_106" x1="141.676" y1="-1.22477" x2="155.464" y2="40.376" gradientUnits="userSpaceOnUse">
<stop stop-color="#93EE91" stop-opacity="0.7"/>
<stop offset="1" stop-color="white" stop-opacity="0"/>
</linearGradient>
<linearGradient id="paint14_linear_381_106" x1="141.676" y1="33.8621" x2="155.464" y2="75.463" gradientUnits="userSpaceOnUse">
<stop stop-color="#93EE91" stop-opacity="0.7"/>
<stop offset="1" stop-color="white" stop-opacity="0"/>
</linearGradient>
<linearGradient id="paint15_linear_381_106" x1="141.676" y1="69.4798" x2="155.464" y2="111.081" gradientUnits="userSpaceOnUse">
<stop stop-color="#93EE91" stop-opacity="0.7"/>
<stop offset="1" stop-color="white" stop-opacity="0"/>
</linearGradient>
<linearGradient id="paint16_linear_381_106" x1="141.676" y1="105.661" x2="155.11" y2="146.782" gradientUnits="userSpaceOnUse">
<stop stop-color="#93EE91" stop-opacity="0.7"/>
<stop offset="1" stop-color="white" stop-opacity="0"/>
</linearGradient>
<linearGradient id="paint17_linear_381_106" x1="204.872" y1="-1.22477" x2="218.659" y2="40.376" gradientUnits="userSpaceOnUse">
<stop stop-color="#93EE91" stop-opacity="0.7"/>
<stop offset="1" stop-color="white" stop-opacity="0"/>
</linearGradient>
<linearGradient id="paint18_linear_381_106" x1="204.871" y1="33.8621" x2="218.658" y2="75.463" gradientUnits="userSpaceOnUse">
<stop stop-color="#93EE91" stop-opacity="0.7"/>
<stop offset="1" stop-color="white" stop-opacity="0"/>
</linearGradient>
<linearGradient id="paint19_linear_381_106" x1="204.871" y1="69.4798" x2="218.658" y2="111.081" gradientUnits="userSpaceOnUse">
<stop stop-color="#93EE91" stop-opacity="0.7"/>
<stop offset="1" stop-color="white" stop-opacity="0"/>
</linearGradient>
<linearGradient id="paint20_linear_381_106" x1="204.871" y1="105.661" x2="218.305" y2="146.782" gradientUnits="userSpaceOnUse">
<stop stop-color="#93EE91" stop-opacity="0.7"/>
<stop offset="1" stop-color="white" stop-opacity="0"/>
</linearGradient>
<linearGradient id="paint21_linear_381_106" x1="248.472" y1="-1.78096" x2="265.706" y2="50.2201" gradientUnits="userSpaceOnUse">
<stop stop-color="#93EE91" stop-opacity="0.7"/>
<stop offset="1" stop-color="white" stop-opacity="0"/>
</linearGradient>
<linearGradient id="paint22_linear_381_106" x1="248.472" y1="42.0765" x2="265.706" y2="94.0775" gradientUnits="userSpaceOnUse">
<stop stop-color="#93EE91" stop-opacity="0.7"/>
<stop offset="1" stop-color="white" stop-opacity="0"/>
</linearGradient>
<linearGradient id="paint23_linear_381_106" x1="248.472" y1="86.5999" x2="265.706" y2="138.601" gradientUnits="userSpaceOnUse">
<stop stop-color="#93EE91" stop-opacity="0.7"/>
<stop offset="1" stop-color="white" stop-opacity="0"/>
</linearGradient>
<linearGradient id="paint24_linear_381_106" x1="248.472" y1="131.828" x2="265.265" y2="183.23" gradientUnits="userSpaceOnUse">
<stop stop-color="#93EE91" stop-opacity="0.7"/>
<stop offset="1" stop-color="white" stop-opacity="0"/>
</linearGradient>
<linearGradient id="paint25_linear_381_106" x1="273.208" y1="-1.22477" x2="286.996" y2="40.376" gradientUnits="userSpaceOnUse">
<stop stop-color="#93EE91" stop-opacity="0.7"/>
<stop offset="1" stop-color="white" stop-opacity="0"/>
</linearGradient>
<linearGradient id="paint26_linear_381_106" x1="273.208" y1="33.8621" x2="286.996" y2="75.463" gradientUnits="userSpaceOnUse">
<stop stop-color="#93EE91" stop-opacity="0.7"/>
<stop offset="1" stop-color="white" stop-opacity="0"/>
</linearGradient>
<linearGradient id="paint27_linear_381_106" x1="273.208" y1="69.4798" x2="286.996" y2="111.081" gradientUnits="userSpaceOnUse">
<stop stop-color="#93EE91" stop-opacity="0.7"/>
<stop offset="1" stop-color="white" stop-opacity="0"/>
</linearGradient>
<linearGradient id="paint28_linear_381_106" x1="273.208" y1="105.661" x2="286.642" y2="146.782" gradientUnits="userSpaceOnUse">
<stop stop-color="#93EE91" stop-opacity="0.7"/>
<stop offset="1" stop-color="white" stop-opacity="0"/>
</linearGradient>
<linearGradient id="paint29_linear_381_106" x1="180.132" y1="-1.78096" x2="197.367" y2="50.2201" gradientUnits="userSpaceOnUse">
<stop stop-color="#93EE91" stop-opacity="0.7"/>
<stop offset="1" stop-color="white" stop-opacity="0"/>
</linearGradient>
<linearGradient id="paint30_linear_381_106" x1="180.132" y1="42.0765" x2="197.367" y2="94.0775" gradientUnits="userSpaceOnUse">
<stop stop-color="#93EE91" stop-opacity="0.7"/>
<stop offset="1" stop-color="white" stop-opacity="0"/>
</linearGradient>
<linearGradient id="paint31_linear_381_106" x1="180.132" y1="86.5999" x2="197.367" y2="138.601" gradientUnits="userSpaceOnUse">
<stop stop-color="#93EE91" stop-opacity="0.7"/>
<stop offset="1" stop-color="white" stop-opacity="0"/>
</linearGradient>
<linearGradient id="paint32_linear_381_106" x1="180.132" y1="131.828" x2="196.925" y2="183.231" gradientUnits="userSpaceOnUse">
<stop stop-color="#93EE91" stop-opacity="0.7"/>
<stop offset="1" stop-color="white" stop-opacity="0"/>
</linearGradient>
</defs>
</svg>
