<svg width="291" height="291" viewBox="0 0 291 291" fill="none" xmlns="http://www.w3.org/2000/svg">
<g filter="url(#filter0_d_341_185)">
<path d="M287 141.5C287 219.648 223.648 283 145.5 283C108.178 283 74.2305 268.55 48.9471 244.94C21.29 219.114 4 182.326 4 141.5C4 112.749 12.5745 86.0016 27.3059 63.6742C52.6165 25.3124 96.1022 0 145.5 0C168.238 0 189.722 5.36296 208.759 14.893C219.618 20.3292 229.68 27.1213 238.724 35.0474C268.315 60.9828 287 99.0594 287 141.5Z" fill="#F7F7F7"/>
<path d="M279 141.5C279 215.23 219.23 275 145.5 275C110.288 275 78.2598 261.367 54.4059 239.092C28.3125 214.726 12 180.018 12 141.5C12 114.375 20.0898 89.1393 33.9882 68.0743C57.8679 31.8813 98.8951 8 145.5 8C166.952 8 187.222 13.0598 205.182 22.051C215.427 27.1798 224.921 33.5879 233.453 41.0659C261.372 65.535 279 101.459 279 141.5Z" fill="#57D62C"/>
<path fill-rule="evenodd" clip-rule="evenodd" d="M145.5 275C219.23 275 279 215.23 279 141.5C279 101.459 261.372 65.535 233.453 41.0659C228.741 48.3675 222.145 64.5412 233.453 70.8235C247.588 78.6765 238.165 89.6706 228.741 99.0941C223.676 104.16 231.771 112.402 240.829 121.625C248.623 129.56 257.13 138.222 258.582 146.212C261.724 163.488 228.741 179.194 219.318 182.335C212.978 184.448 212.325 173.768 211.62 162.248C211.277 156.643 210.922 150.838 209.894 146.212C207.657 136.144 202.233 140.417 195.892 145.413C193.33 147.431 190.618 149.568 187.906 150.924C178.482 155.635 169.059 152.494 159.635 146.212C150.212 139.929 158.065 133.647 165.918 128.935C173.771 124.224 154.924 111.659 139.218 106.947C123.512 102.235 134.506 80.2471 136.076 81.8176C137.647 83.3882 164.347 75.5353 162.776 62.9706C161.715 54.4758 177.165 53.8779 189.226 53.4111C195.005 53.1875 200.006 52.9939 202.041 51.9765C207.067 49.4635 206.229 30.9791 205.182 22.051C187.222 13.0598 166.952 8 145.5 8C98.8951 8 57.8679 31.8813 33.9882 68.0743C47.6 73.7025 72.3106 88.7282 62.2588 103.806C58.1515 109.967 54.3799 114.449 51.328 118.077C45.0437 125.546 41.8108 129.388 44.9824 136.788C45.5761 138.174 46.1947 139.534 46.8006 140.866C51.003 150.107 54.5912 157.997 44.9824 163.488C36.1871 168.514 47.6 215.985 54.4059 239.092C78.2598 261.367 110.288 275 145.5 275ZM148.641 165.059C136.6 161.394 109.376 155.949 96.8118 163.488C81.1059 172.912 71.6824 182.335 74.8235 188.618C77.9647 194.9 92.1 198.041 104.665 199.612C117.229 201.182 117.229 232.594 110.947 242.018C104.665 251.441 110.947 264.006 117.229 264.006C118.512 264.006 119.795 264.071 121.051 264.135C125.946 264.385 130.435 264.614 132.935 260.865C133.995 259.274 134.34 256.074 134.754 252.23C135.566 244.683 136.646 234.655 143.929 229.453C147.505 226.899 151.081 225.176 154.278 223.635C160.912 220.437 165.918 218.024 165.918 210.606C165.918 205.536 160.573 202.804 155.584 200.253C149.754 197.274 144.41 194.542 148.641 188.618C150.553 185.942 153.022 183.465 155.303 181.178C162.392 174.068 167.654 168.791 148.641 165.059ZM132.935 28.4176C133.982 35.7471 132.307 50.72 117.229 51.9765C98.3824 53.5471 92.1 40.9824 96.8118 34.7C98.8348 32.0026 104.043 32.4901 110.074 33.0547C118.089 33.805 127.558 34.6914 132.935 28.4176ZM244.447 106.947C248.216 104.434 252.3 97.5235 253.871 94.3824C269.576 100.791 271.147 124.224 266.435 128.935C261.724 133.647 239.735 110.088 244.447 106.947Z" fill="#005EB7"/>
<g style="mix-blend-mode:multiply">
<path d="M279 141.5C279 215.23 219.454 275 146 275C213.282 183.906 192.941 72.3941 146 8C219.454 8.00001 279 67.77 279 141.5Z" fill="#800080" fill-opacity="0.3"/>
</g>
</g>
<defs>
<filter id="filter0_d_341_185" x="0" y="0" width="291" height="291" filterUnits="userSpaceOnUse" color-interpolation-filters="sRGB">
<feFlood flood-opacity="0" result="BackgroundImageFix"/>
<feColorMatrix in="SourceAlpha" type="matrix" values="0 0 0 0 0 0 0 0 0 0 0 0 0 0 0 0 0 0 127 0" result="hardAlpha"/>
<feOffset dy="4"/>
<feGaussianBlur stdDeviation="2"/>
<feComposite in2="hardAlpha" operator="out"/>
<feColorMatrix type="matrix" values="0 0 0 0 0 0 0 0 0 0 0 0 0 0 0 0 0 0 0.25 0"/>
<feBlend mode="normal" in2="BackgroundImageFix" result="effect1_dropShadow_341_185"/>
<feBlend mode="normal" in="SourceGraphic" in2="effect1_dropShadow_341_185" result="shape"/>
</filter>
</defs>
</svg>
