<svg width="98" height="128" viewBox="0 0 98 128" fill="none" xmlns="http://www.w3.org/2000/svg">
<g filter="url(#filter0_d_450_187)">
<rect x="5" y="1" width="88" height="118" rx="11" fill="#EAA86B" stroke="#F7F7F7" stroke-width="2"/>
<g style="mix-blend-mode:multiply">
<rect x="5" y="1" width="88" height="118" rx="11" fill="#800080" fill-opacity="0.1"/>
<rect x="5" y="1" width="88" height="118" rx="11" stroke="#F7F7F7" stroke-width="2"/>
</g>
<path d="M40.625 43.6797C40.1562 43.6797 39.8099 43.4323 39.5859 42.9375C39.4818 42.7031 39.3776 42.5625 39.2734 42.5156C39.1953 42.4792 38.9896 42.4609 38.6562 42.4609C38 42.4609 37.2422 42.9714 36.3828 43.9922C35.1797 45.4193 34.5781 46.7552 34.5781 48C34.5781 48.5677 34.7682 49.0547 35.1484 49.4609C35.5286 49.8672 35.9844 50.0703 36.5156 50.0703C37.0312 50.0703 37.5547 49.9349 38.0859 49.6641C38.2734 49.5651 38.6693 49.3099 39.2734 48.8984C39.6797 48.6276 39.987 48.4922 40.1953 48.4922C40.5078 48.4922 40.7734 48.6068 40.9922 48.8359C41.1953 49.0495 41.2969 49.2943 41.2969 49.5703C41.2969 49.8776 41.1615 50.1458 40.8906 50.375C39.4583 51.5833 38 52.1875 36.5156 52.1875C35.3438 52.1875 34.3542 51.7604 33.5469 50.9062C32.776 50.0833 32.3906 49.1146 32.3906 48C32.3906 46.2552 33.1536 44.474 34.6797 42.6562C35.9766 41.1146 37.3021 40.3438 38.6562 40.3438C38.8854 40.3438 39.0911 40.3516 39.2734 40.3672C39.4609 40.3828 39.625 40.4062 39.7656 40.4375C39.9948 40.2135 40.2708 40.1016 40.5938 40.1016C41.125 40.1016 41.4531 40.4062 41.5781 41.0156C41.6667 41.4531 41.7109 41.9635 41.7109 42.5469C41.7109 42.8073 41.6354 43.0443 41.4844 43.2578C41.2865 43.5391 41 43.6797 40.625 43.6797ZM51.6719 52.2344C51.2604 52.2188 50.8464 51.7344 50.4297 50.7812C50.1536 50.1667 49.9167 49.4583 49.7188 48.6562C49.3333 48.7135 48.7031 48.7708 47.8281 48.8281C47.0052 48.8854 46.375 48.9531 45.9375 49.0312C45.6979 49.6042 45.2812 50.4661 44.6875 51.6172C44.4583 51.9922 44.1406 52.1797 43.7344 52.1797C43.4479 52.1797 43.1901 52.0833 42.9609 51.8906C42.7318 51.6927 42.6172 51.4427 42.6172 51.1406C42.6172 50.875 42.9974 49.974 43.7578 48.4375C43.6849 48.276 43.6536 48.125 43.6641 47.9844C43.6849 47.7344 43.9375 47.5391 44.4219 47.3984C45.1615 46.1172 45.9844 44.7891 46.8906 43.4141C48.1927 41.4401 48.9948 40.4531 49.2969 40.4531C49.8698 40.4531 50.2526 40.7995 50.4453 41.4922C50.5495 42.0495 50.7135 42.8854 50.9375 44C51.2552 45.5 51.6432 47.2161 52.1016 49.1484C52.138 49.2943 52.2708 49.638 52.5 50.1797C52.6875 50.6276 52.7812 50.9635 52.7812 51.1875C52.7812 51.4896 52.6667 51.7422 52.4375 51.9453C52.2135 52.1484 51.9583 52.2448 51.6719 52.2344ZM48.7578 44.2188C48.3516 44.9167 47.7917 45.8672 47.0781 47.0703C47.3125 47.0182 47.6771 46.9766 48.1719 46.9453C48.7552 46.9089 49.1224 46.8802 49.2734 46.8594C49.1484 46.1823 48.9766 45.3021 48.7578 44.2188ZM63.7344 42.6328C63.3281 42.6328 62.6953 42.6042 61.8359 42.5469C61.0078 42.4896 60.375 42.4635 59.9375 42.4688C59.9583 43.0625 60.0286 44.1198 60.1484 45.6406C60.2578 46.9844 60.3125 48.0469 60.3125 48.8281C60.3125 49.0052 60.3307 49.2682 60.3672 49.6172C60.4036 49.9661 60.4219 50.2292 60.4219 50.4062C60.4219 50.7969 60.3385 51.1484 60.1719 51.4609C59.9583 51.862 59.6536 52.0625 59.2578 52.0625C58.9714 52.0625 58.7188 51.9714 58.5 51.7891C58.2552 51.5859 58.1328 51.3307 58.1328 51.0234C58.1328 50.9505 58.1458 50.8411 58.1719 50.6953C58.1979 50.5443 58.2109 50.4297 58.2109 50.3516C58.2109 50.112 58.1927 49.75 58.1562 49.2656C58.125 48.7812 58.1094 48.4167 58.1094 48.1719C58.1094 47.474 58.0547 46.5286 57.9453 45.3359C57.8203 43.9661 57.7474 43.0208 57.7266 42.5H57.3203C56.1589 42.5 55.237 42.4167 54.5547 42.25C53.9766 42.1094 53.6875 41.7682 53.6875 41.2266C53.6875 40.9609 53.7812 40.7214 53.9688 40.5078C54.1875 40.2526 54.474 40.138 54.8281 40.1641C55.0104 40.1745 55.4245 40.2188 56.0703 40.2969C56.5859 40.3542 57.0026 40.3828 57.3203 40.3828C57.638 40.3828 58.112 40.3776 58.7422 40.3672C59.3776 40.3568 59.8542 40.3516 60.1719 40.3516C60.5677 40.3516 61.1615 40.3802 61.9531 40.4375C62.7448 40.4896 63.3385 40.5156 63.7344 40.5156C64.0469 40.5156 64.3073 40.6172 64.5156 40.8203C64.7292 41.0234 64.8359 41.2734 64.8359 41.5703C64.8359 41.8672 64.7292 42.1198 64.5156 42.3281C64.3073 42.5312 64.0469 42.6328 63.7344 42.6328Z" fill="#F7F7F7"/>
<path d="M36.8867 76.8643C36.6042 78.2633 36.0094 79.3822 35.1025 80.2207C34.2002 81.0547 33.1338 81.4717 31.9033 81.4717C30.7822 81.4717 29.9414 81.1595 29.3809 80.5352C28.8203 79.9062 28.54 78.9652 28.54 77.7119C28.54 76.5316 28.818 75.3171 29.374 74.0684C29.9346 72.8151 30.6523 71.8034 31.5273 71.0332C32.1107 70.5182 32.7282 70.2607 33.3799 70.2607C33.7946 70.2607 34.3415 70.3975 35.0205 70.6709C35.8499 70.999 36.2646 71.3613 36.2646 71.7578C36.2646 71.9447 36.1963 72.111 36.0596 72.2568C35.9229 72.4027 35.7588 72.4756 35.5674 72.4756C35.4671 72.4756 35.3258 72.4186 35.1436 72.3047C34.4463 71.8809 33.8584 71.6689 33.3799 71.6689C33.0381 71.6689 32.6803 71.8467 32.3066 72.2021C32.1198 72.3799 31.8509 72.7035 31.5 73.1729C30.4473 74.5674 29.9209 76.0804 29.9209 77.7119C29.9209 78.5687 30.0531 79.168 30.3174 79.5098C30.6045 79.8835 31.1331 80.0703 31.9033 80.0703C32.7191 80.0703 33.4277 79.8128 34.0293 79.2979C34.6628 78.751 35.1048 77.9694 35.3555 76.9531C34.0931 77.0169 33.0107 77.2607 32.1084 77.6846C32.0036 77.7347 31.901 77.7598 31.8008 77.7598C31.6003 77.7598 31.4339 77.6823 31.3018 77.5273C31.1787 77.3861 31.1172 77.222 31.1172 77.0352C31.1172 76.7845 31.238 76.584 31.4795 76.4336C32.4639 75.832 34.1615 75.5312 36.5723 75.5312C36.7682 75.5312 36.9323 75.5973 37.0645 75.7295C37.1966 75.8617 37.2627 76.028 37.2627 76.2285C37.2627 76.5247 37.1374 76.7367 36.8867 76.8643ZM46.0605 81.2051C45.6413 81.2051 45.2767 80.6673 44.9668 79.5918C44.8483 79.1816 44.7002 78.4639 44.5225 77.4385C44.0576 77.5023 43.4492 77.6162 42.6973 77.7803L40.8789 78.1562C40.651 78.7533 40.2614 79.626 39.71 80.7744C39.5641 81.0296 39.3659 81.1572 39.1152 81.1572C38.9329 81.1572 38.7689 81.0911 38.623 80.959C38.4818 80.8268 38.4111 80.6628 38.4111 80.4668C38.4111 80.248 38.7552 79.4163 39.4434 77.9717C39.3659 77.8532 39.3271 77.7165 39.3271 77.5615C39.3271 77.1924 39.5505 76.9554 39.9971 76.8506C40.5166 75.8753 41.1729 74.7542 41.9658 73.4873C43.0459 71.7601 43.7181 70.8965 43.9824 70.8965C44.3424 70.8965 44.5885 71.1471 44.7207 71.6484L45.1514 73.9453L46.1699 78.6963L46.5596 79.7764C46.6917 80.1455 46.7578 80.3916 46.7578 80.5146C46.7578 80.7106 46.6872 80.8747 46.5459 81.0068C46.4046 81.139 46.2428 81.2051 46.0605 81.2051ZM43.6475 73.3916L41.6924 76.543C42.2438 76.4017 43.0801 76.2308 44.2012 76.0303L43.6475 73.3916ZM57.0664 72.3662C56.7292 72.3662 56.2096 72.3389 55.5078 72.2842C54.8242 72.234 54.3047 72.2113 53.9492 72.2158H53.4639C53.4775 72.8447 53.5391 73.8656 53.6484 75.2783C53.7487 76.5954 53.7988 77.6185 53.7988 78.3477C53.7988 78.5072 53.8148 78.7487 53.8467 79.0723C53.8786 79.3958 53.8945 79.6396 53.8945 79.8037C53.8945 80.1136 53.8444 80.3802 53.7441 80.6035C53.6165 80.9043 53.4183 81.0547 53.1494 81.0547C52.9671 81.0547 52.8031 80.9909 52.6572 80.8633C52.5114 80.7357 52.4385 80.5716 52.4385 80.3711C52.4385 80.3027 52.4499 80.2002 52.4727 80.0635C52.4954 79.9268 52.5068 79.8242 52.5068 79.7559C52.5068 79.5326 52.4909 79.1976 52.459 78.751C52.4316 78.3044 52.418 77.9671 52.418 77.7393C52.418 77.0876 52.3656 76.1715 52.2607 74.9912C52.1514 73.7152 52.0898 72.7992 52.0762 72.2432L51.4541 72.25C50.4561 72.25 49.6722 72.1771 49.1025 72.0312C48.7334 71.9355 48.5488 71.71 48.5488 71.3545C48.5488 71.1676 48.6081 71.0036 48.7266 70.8623C48.8633 70.7028 49.0387 70.6299 49.2529 70.6436C49.4124 70.6527 49.777 70.6937 50.3467 70.7666C50.8024 70.8213 51.1715 70.8486 51.4541 70.8486C51.7275 70.8486 52.1423 70.8441 52.6982 70.835C53.2542 70.8213 53.6689 70.8145 53.9424 70.8145C54.2933 70.8145 54.8128 70.8395 55.501 70.8896C56.1937 70.9398 56.7155 70.9648 57.0664 70.9648C57.2624 70.9648 57.4264 71.0332 57.5586 71.1699C57.6908 71.3021 57.7568 71.4684 57.7568 71.6689C57.7568 71.8649 57.6908 72.0312 57.5586 72.168C57.4264 72.3001 57.2624 72.3662 57.0664 72.3662ZM62.7539 81.417C61.4688 81.417 60.3796 81.0319 59.4863 80.2617C58.5384 79.4414 58.0645 78.3841 58.0645 77.0898C58.0645 75.513 58.5316 74.0798 59.4658 72.79C60.5094 71.359 61.8105 70.6436 63.3691 70.6436C64.8685 70.6436 65.9827 70.9808 66.7119 71.6553C67.473 72.3571 67.8535 73.4645 67.8535 74.9775C67.8535 76.5544 67.4251 77.9762 66.5684 79.2432C65.584 80.6924 64.3125 81.417 62.7539 81.417ZM63.3691 72.0449C62.2526 72.0449 61.307 72.6009 60.5322 73.7129C59.8167 74.7337 59.459 75.8594 59.459 77.0898C59.459 77.9694 59.7848 78.6849 60.4365 79.2363C61.0609 79.7559 61.8333 80.0156 62.7539 80.0156C63.8613 80.0156 64.7751 79.4574 65.4951 78.3408C66.1377 77.3428 66.459 76.2217 66.459 74.9775C66.459 73.8883 66.2152 73.1227 65.7275 72.6807C65.2627 72.2568 64.4766 72.0449 63.3691 72.0449Z" fill="#F7F7F7"/>
</g>
<defs>
<filter id="filter0_d_450_187" x="0" y="0" width="98" height="128" filterUnits="userSpaceOnUse" color-interpolation-filters="sRGB">
<feFlood flood-opacity="0" result="BackgroundImageFix"/>
<feColorMatrix in="SourceAlpha" type="matrix" values="0 0 0 0 0 0 0 0 0 0 0 0 0 0 0 0 0 0 127 0" result="hardAlpha"/>
<feOffset dy="4"/>
<feGaussianBlur stdDeviation="2"/>
<feComposite in2="hardAlpha" operator="out"/>
<feColorMatrix type="matrix" values="0 0 0 0 0 0 0 0 0 0 0 0 0 0 0 0 0 0 0.25 0"/>
<feBlend mode="normal" in2="BackgroundImageFix" result="effect1_dropShadow_450_187"/>
<feBlend mode="normal" in="SourceGraphic" in2="effect1_dropShadow_450_187" result="shape"/>
</filter>
</defs>
</svg>
