<svg width="98" height="128" viewBox="0 0 98 128" fill="none" xmlns="http://www.w3.org/2000/svg">
<g filter="url(#filter0_d_450_51)">
<rect x="5" y="1" width="88" height="118" rx="11" fill="#EAA86B" stroke="#F7F7F7" stroke-width="2"/>
<g style="mix-blend-mode:multiply">
<rect x="5" y="1" width="88" height="118" rx="11" fill="#800080" fill-opacity="0.1"/>
<rect x="5" y="1" width="88" height="118" rx="11" stroke="#F7F7F7" stroke-width="2"/>
</g>
<mask id="path-3-inside-1_450_51" fill="white">
<path fill-rule="evenodd" clip-rule="evenodd" d="M40.4647 64.5554L39.5341 64.8129L38.4872 65.1991L37.3241 65.6496C37.3241 65.6496 37.2825 65.8047 37.2342 65.8427C36.4682 66.4122 36.4682 66.4122 36.4682 66.4122C36.1 66.6001 35.7537 66.9369 35.7537 66.9369L35.3497 67.7737L34.7904 68.6104C27.4644 62.8933 25.6448 49.5097 27.4726 36.8175C28.2023 31.7504 35.3853 29.5571 31.1551 24.4126C30.1554 23.1969 27.853 24.944 27.1929 26.0889C25.019 29.8603 23.8377 33.4648 23.8377 33.4648C23.8377 33.4648 21.5725 41.1023 22.4391 49.2224C23.295 57.2431 26.383 64.2944 28.5912 67.6621C28.608 67.6876 29.5119 69.1459 29.5307 69.1723C30.016 69.8512 31.108 71.35 31.108 71.35L32.5533 73.4528L32.4968 74.3389L32.3223 75.6906V76.5273L32.2642 78.7157L32.3223 80.0674L32.3805 81.8696L32.555 83.0281L32.6713 84.3154L32.7876 85.474L33.0203 86.7613L32.3223 86.5038L30.9265 86.0533H29.996L29.0073 86.1177L28.2512 86.5682L27.6114 87.2762L27.1462 87.9199L26.8554 88.821L26.7391 89.9795L26.6809 91.7174L26.7972 92.6829L27.3788 93.7771L27.8441 94.2276L28.4838 94.5494L29.5307 94.8713L31.0428 95L32.0897 94.9356L33.6019 94.8069L35.2303 94.4207L36.9169 93.9702L37.3072 94.2276H37.673H38.4257L39.8239 93.9058L41.9704 93.7127L43.4592 93.5689L45.8735 93.4552L51.0497 93.1978L52.1547 93.2622L53.6668 93.1978L55.1208 93.2622L60.297 93.7771L62.2162 94.0989L63.4376 94.292L64.1937 94.4207L65.0079 94.2276L65.4732 93.9058L67.4506 94.4207L68.8464 94.6782L70.4749 94.8713L71.8707 94.9356H73.092L74.2552 94.5494L75.0113 94.0989L75.5929 93.3265L75.8837 92.4898L76 91.5243L75.8837 89.4003L75.4766 87.8555L74.7787 86.8257L74.0807 86.3107L73.2665 86.0533H72.4523L71.4054 86.1177L70.6493 86.4395L69.6606 86.7613L69.8351 85.6027L70.2422 82.5776L70.3585 79.9386L70.4167 77.364L70.3004 75.4975L69.777 72.4723L68.9627 70.2195L68.3811 68.8679L67.1598 67.1944L66.2292 66.3576L64.4845 65.2634L62.1581 64.6841L61.8091 65.006L60.0062 65.9714L57.1564 66.422L57.0982 66.9369L56.7493 69.7046L56.2258 71.5068L55.5279 73.116L54.7137 74.2745L54.0739 74.9825L53.3179 75.5618L51.8639 75.948H50.9915L49.8865 75.7549L49.0722 75.24L47.7927 73.9527L47.0948 72.601L46.5714 70.9919L46.1061 68.6104L45.9316 66.422L44.4195 66.2933L42.3258 65.8427L40.9299 65.0703L40.4647 64.5554Z"/>
</mask>
<path fill-rule="evenodd" clip-rule="evenodd" d="M40.4647 64.5554L39.5341 64.8129L38.4872 65.1991L37.3241 65.6496C37.3241 65.6496 37.2825 65.8047 37.2342 65.8427C36.4682 66.4122 36.4682 66.4122 36.4682 66.4122C36.1 66.6001 35.7537 66.9369 35.7537 66.9369L35.3497 67.7737L34.7904 68.6104C27.4644 62.8933 25.6448 49.5097 27.4726 36.8175C28.2023 31.7504 35.3853 29.5571 31.1551 24.4126C30.1554 23.1969 27.853 24.944 27.1929 26.0889C25.019 29.8603 23.8377 33.4648 23.8377 33.4648C23.8377 33.4648 21.5725 41.1023 22.4391 49.2224C23.295 57.2431 26.383 64.2944 28.5912 67.6621C28.608 67.6876 29.5119 69.1459 29.5307 69.1723C30.016 69.8512 31.108 71.35 31.108 71.35L32.5533 73.4528L32.4968 74.3389L32.3223 75.6906V76.5273L32.2642 78.7157L32.3223 80.0674L32.3805 81.8696L32.555 83.0281L32.6713 84.3154L32.7876 85.474L33.0203 86.7613L32.3223 86.5038L30.9265 86.0533H29.996L29.0073 86.1177L28.2512 86.5682L27.6114 87.2762L27.1462 87.9199L26.8554 88.821L26.7391 89.9795L26.6809 91.7174L26.7972 92.6829L27.3788 93.7771L27.8441 94.2276L28.4838 94.5494L29.5307 94.8713L31.0428 95L32.0897 94.9356L33.6019 94.8069L35.2303 94.4207L36.9169 93.9702L37.3072 94.2276H37.673H38.4257L39.8239 93.9058L41.9704 93.7127L43.4592 93.5689L45.8735 93.4552L51.0497 93.1978L52.1547 93.2622L53.6668 93.1978L55.1208 93.2622L60.297 93.7771L62.2162 94.0989L63.4376 94.292L64.1937 94.4207L65.0079 94.2276L65.4732 93.9058L67.4506 94.4207L68.8464 94.6782L70.4749 94.8713L71.8707 94.9356H73.092L74.2552 94.5494L75.0113 94.0989L75.5929 93.3265L75.8837 92.4898L76 91.5243L75.8837 89.4003L75.4766 87.8555L74.7787 86.8257L74.0807 86.3107L73.2665 86.0533H72.4523L71.4054 86.1177L70.6493 86.4395L69.6606 86.7613L69.8351 85.6027L70.2422 82.5776L70.3585 79.9386L70.4167 77.364L70.3004 75.4975L69.777 72.4723L68.9627 70.2195L68.3811 68.8679L67.1598 67.1944L66.2292 66.3576L64.4845 65.2634L62.1581 64.6841L61.8091 65.006L60.0062 65.9714L57.1564 66.422L57.0982 66.9369L56.7493 69.7046L56.2258 71.5068L55.5279 73.116L54.7137 74.2745L54.0739 74.9825L53.3179 75.5618L51.8639 75.948H50.9915L49.8865 75.7549L49.0722 75.24L47.7927 73.9527L47.0948 72.601L46.5714 70.9919L46.1061 68.6104L45.9316 66.422L44.4195 66.2933L42.3258 65.8427L40.9299 65.0703L40.4647 64.5554Z" fill="#E3954F"/>
<path d="M23.8377 33.4648C23.3989 33.2251 23.3988 33.2252 23.3987 33.2254C23.3987 33.2255 23.3985 33.2258 23.3984 33.226C23.3982 33.2264 23.3978 33.2271 23.3974 33.2278C23.3966 33.2293 23.3955 33.2314 23.394 33.2341C23.3911 33.2395 23.387 33.2472 23.3816 33.2572C23.371 33.2771 23.3555 33.3062 23.3358 33.344C23.2963 33.4196 23.2395 33.5302 23.169 33.6723C23.0281 33.9565 22.8323 34.3676 22.61 34.8791C22.166 35.901 21.6145 37.3296 21.1868 38.9532C20.3393 42.1704 19.9418 46.2916 22.0196 49.4945L22.8585 48.9503C21.0214 46.1183 21.3233 42.3608 22.1538 39.2079C22.5651 37.6465 23.0973 36.2672 23.5272 35.2775C23.742 34.7833 23.9306 34.3875 24.065 34.1165C24.1322 33.981 24.1857 33.8767 24.2222 33.807C24.2404 33.7721 24.2543 33.7459 24.2635 33.7287C24.2681 33.7201 24.2715 33.7137 24.2737 33.7097C24.2748 33.7077 24.2755 33.7063 24.276 33.7054C24.2762 33.705 24.2764 33.7047 24.2765 33.7046C24.2765 33.7045 24.2765 33.7045 24.2765 33.7045C24.2765 33.7045 24.2764 33.7046 23.8377 33.4648ZM40.4647 64.5554L41.2066 63.885L40.7928 63.427L40.198 63.5916L40.4647 64.5554ZM39.5341 64.8129L39.2675 63.8491L39.2272 63.8602L39.188 63.8747L39.5341 64.8129ZM38.4872 65.1991L38.1411 64.2609L38.1336 64.2637L38.126 64.2666L38.4872 65.1991ZM37.3241 65.6496L36.9629 64.7171L36.4895 64.9005L36.3581 65.3909L37.3241 65.6496ZM37.2342 65.8427L37.8309 66.6452L37.8418 66.6371L37.8525 66.6287L37.2342 65.8427ZM36.4682 66.4122V65.4122H36.2279L36.0138 65.5214L36.4682 66.4122ZM35.7537 66.9369L35.0564 66.2201L34.93 66.3432L34.8532 66.5021L35.7537 66.9369ZM35.3497 67.7737L36.1811 68.3294L36.2198 68.2713L36.2502 68.2085L35.3497 67.7737ZM34.7904 68.6104L34.1752 69.3988L35.0237 70.0609L35.6218 69.1661L34.7904 68.6104ZM27.4726 36.8175L28.4624 36.96L27.4726 36.8175ZM31.1551 24.4126L30.3827 25.0478L31.1551 24.4126ZM27.1929 26.0889L28.0593 26.5883L27.1929 26.0889ZM23.8377 33.4648L22.8874 33.1534L22.883 33.1669L22.879 33.1805L23.8377 33.4648ZM28.5912 67.6621L29.4275 67.1137L29.4275 67.1137L28.5912 67.6621ZM31.108 71.35L31.9321 70.7836L31.9243 70.7723L31.9162 70.7611L31.108 71.35ZM32.5533 73.4528L33.5512 73.5164L33.5732 73.1714L33.3774 72.8864L32.5533 73.4528ZM32.4968 74.3389L33.4886 74.4669L33.4927 74.4348L33.4948 74.4025L32.4968 74.3389ZM32.3223 75.6906L31.3306 75.5625L31.3223 75.6263V75.6906H32.3223ZM32.3223 76.5273L33.322 76.5539L33.3223 76.5406V76.5273H32.3223ZM32.2642 78.7157L31.2645 78.6891L31.2636 78.7239L31.2651 78.7587L32.2642 78.7157ZM32.3223 80.0674L33.3219 80.0351L33.3214 80.0244L32.3223 80.0674ZM32.3805 81.8696L31.381 81.9018L31.3829 81.9605L31.3917 82.0185L32.3805 81.8696ZM32.555 83.0281L33.5509 82.9382L33.5483 82.9086L33.5438 82.8792L32.555 83.0281ZM32.6713 84.3154L31.6753 84.4054L31.6763 84.4153L32.6713 84.3154ZM32.7876 85.474L31.7926 85.5739L31.7966 85.6131L31.8036 85.6518L32.7876 85.474ZM33.0203 86.7613L32.6742 87.6995L34.3154 88.305L34.0043 86.5835L33.0203 86.7613ZM32.3223 86.5038L32.6685 85.5656L32.6491 85.5585L32.6295 85.5522L32.3223 86.5038ZM30.9265 86.0533L31.2337 85.1016L31.0839 85.0533H30.9265V86.0533ZM29.996 86.0533V85.0533H29.9635L29.931 85.0554L29.996 86.0533ZM29.0073 86.1177L28.9423 85.1198L28.7021 85.1354L28.4954 85.2586L29.0073 86.1177ZM28.2512 86.5682L27.7393 85.7092L27.6101 85.7862L27.5092 85.8978L28.2512 86.5682ZM27.6114 87.2762L26.8695 86.6058L26.8329 86.6462L26.801 86.6904L27.6114 87.2762ZM27.1462 87.9199L26.3357 87.334L26.2431 87.4622L26.1945 87.6128L27.1462 87.9199ZM26.8554 88.821L25.9037 88.5139L25.871 88.6152L25.8604 88.7211L26.8554 88.821ZM26.7391 89.9795L25.7441 89.8796L25.7407 89.9128L25.7396 89.9461L26.7391 89.9795ZM26.6809 91.7174L25.6815 91.6839L25.6789 91.7607L25.6881 91.837L26.6809 91.7174ZM26.7972 92.6829L25.8044 92.8025L25.8267 92.9876L25.9142 93.1522L26.7972 92.6829ZM27.3788 93.7771L26.4958 94.2464L26.5698 94.3857L26.6832 94.4954L27.3788 93.7771ZM27.8441 94.2276L27.1484 94.946L27.2582 95.0523L27.3947 95.121L27.8441 94.2276ZM28.4838 94.5494L28.0344 95.4428L28.1096 95.4806L28.19 95.5053L28.4838 94.5494ZM29.5307 94.8713L29.2369 95.8271L29.3392 95.8586L29.4459 95.8677L29.5307 94.8713ZM31.0428 95L30.958 95.9964L31.0311 96.0026L31.1042 95.9981L31.0428 95ZM32.0897 94.9356L32.1511 95.9337L32.1628 95.933L32.1745 95.932L32.0897 94.9356ZM33.6019 94.8069L33.6867 95.8033L33.7605 95.797L33.8326 95.7799L33.6019 94.8069ZM35.2303 94.4207L35.4611 95.3937L35.4748 95.3905L35.4884 95.3868L35.2303 94.4207ZM36.9169 93.9702L37.4676 93.1355L37.0928 92.8881L36.6589 93.004L36.9169 93.9702ZM37.3072 94.2276L36.7565 95.0623L37.007 95.2276H37.3072V94.2276ZM38.4257 94.2276V95.2276H38.5393L38.65 95.2021L38.4257 94.2276ZM39.8239 93.9058L39.7343 92.9098L39.6662 92.9159L39.5996 92.9313L39.8239 93.9058ZM41.9704 93.7127L42.06 94.7087L42.0666 94.7081L41.9704 93.7127ZM43.4592 93.5689L43.4122 92.57L43.3876 92.5711L43.3631 92.5735L43.4592 93.5689ZM45.8735 93.4552L45.9205 94.4541L45.9231 94.454L45.8735 93.4552ZM51.0497 93.1978L51.1078 92.1995L51.0539 92.1963L51 92.199L51.0497 93.1978ZM52.1547 93.2622L52.0965 94.2605L52.1469 94.2634L52.1972 94.2612L52.1547 93.2622ZM53.6668 93.1978L53.7111 92.1988L53.6677 92.1968L53.6243 92.1987L53.6668 93.1978ZM55.1208 93.2622L55.2198 92.2671L55.1925 92.2643L55.165 92.2631L55.1208 93.2622ZM60.297 93.7771L60.4624 92.7908L60.4293 92.7853L60.396 92.782L60.297 93.7771ZM62.2162 94.0989L62.0509 95.0852L62.0601 95.0866L62.2162 94.0989ZM63.4376 94.292L63.6054 93.3061L63.5937 93.3043L63.4376 94.292ZM64.1937 94.4207L64.0258 95.4065L64.2264 95.4407L64.4244 95.3937L64.1937 94.4207ZM65.0079 94.2276L65.2386 95.2006L65.4219 95.1572L65.5768 95.0501L65.0079 94.2276ZM65.4732 93.9058L65.7252 92.9381L65.2814 92.8225L64.9043 93.0834L65.4732 93.9058ZM67.4506 94.4207L67.1986 95.3884L67.2336 95.3976L67.2692 95.4041L67.4506 94.4207ZM68.8464 94.6782L68.665 95.6616L68.6967 95.6674L68.7287 95.6712L68.8464 94.6782ZM70.4749 94.8713L70.3571 95.8643L70.3929 95.8686L70.4288 95.8702L70.4749 94.8713ZM71.8707 94.9356L71.8246 95.9346L71.8476 95.9356H71.8707V94.9356ZM73.092 94.9356V95.9356H73.2537L73.4071 95.8847L73.092 94.9356ZM74.2552 94.5494L74.5703 95.4985L74.6736 95.4642L74.7671 95.4085L74.2552 94.5494ZM75.0113 94.0989L75.5232 94.9579L75.692 94.8574L75.8101 94.7004L75.0113 94.0989ZM75.5929 93.3265L76.3917 93.928L76.486 93.8028L76.5375 93.6548L75.5929 93.3265ZM75.8837 92.4898L76.8283 92.818L76.8636 92.7163L76.8765 92.6094L75.8837 92.4898ZM76 91.5243L76.9928 91.6439L77.0033 91.557L76.9985 91.4696L76 91.5243ZM75.8837 89.4003L76.8822 89.3456L76.8766 89.2439L76.8507 89.1454L75.8837 89.4003ZM75.4766 87.8555L76.4435 87.6007L76.4001 87.4357L76.3044 87.2945L75.4766 87.8555ZM74.7787 86.8257L75.6065 86.2647L75.5103 86.1228L75.3723 86.021L74.7787 86.8257ZM74.0807 86.3107L74.6744 85.5061L74.5407 85.4074L74.3822 85.3573L74.0807 86.3107ZM73.2665 86.0533L73.568 85.0998L73.4208 85.0533H73.2665V86.0533ZM72.4523 86.0533V85.0533H72.4216L72.3909 85.0552L72.4523 86.0533ZM71.4054 86.1177L71.344 85.1195L71.1722 85.1301L71.0138 85.1975L71.4054 86.1177ZM70.6493 86.4395L70.9589 87.3904L71.0006 87.3768L71.041 87.3596L70.6493 86.4395ZM69.6606 86.7613L68.6718 86.6124L68.4307 88.2133L69.9701 87.7122L69.6606 86.7613ZM69.8351 85.6027L70.824 85.7517L70.8251 85.7439L70.8262 85.7361L69.8351 85.6027ZM70.2422 82.5776L71.2333 82.711L71.2393 82.6665L71.2413 82.6216L70.2422 82.5776ZM70.3585 79.9386L71.3576 79.9827L71.358 79.9719L71.3583 79.9612L70.3585 79.9386ZM70.4167 77.364L71.4165 77.3866L71.4174 77.3442L71.4148 77.3018L70.4167 77.364ZM70.3004 75.4975L71.2984 75.4353L71.2951 75.3808L71.2857 75.327L70.3004 75.4975ZM69.777 72.4723L70.7623 72.3018L70.7473 72.2151L70.7174 72.1324L69.777 72.4723ZM68.9627 70.2195L69.9032 69.8796L69.8931 69.8516L69.8813 69.8243L68.9627 70.2195ZM68.3811 68.8679L69.2997 68.4726L69.2552 68.3693L69.1889 68.2784L68.3811 68.8679ZM67.1598 67.1944L67.9675 66.6049L67.906 66.5206L67.8284 66.4508L67.1598 67.1944ZM66.2292 66.3576L66.8979 65.614L66.8337 65.5563L66.7605 65.5104L66.2292 66.3576ZM64.4845 65.2634L65.0158 64.4162L64.8807 64.3316L64.7261 64.2931L64.4845 65.2634ZM62.1581 64.6841L62.3997 63.7138L61.8765 63.5835L61.4801 63.949L62.1581 64.6841ZM61.8091 65.006L62.2812 65.8875L62.3935 65.8274L62.4871 65.7411L61.8091 65.006ZM60.0062 65.9714L60.1623 66.9592L60.3293 66.9328L60.4783 66.853L60.0062 65.9714ZM57.1564 66.422L57.0002 65.4343L56.2482 65.5532L56.1627 66.3097L57.1564 66.422ZM57.0982 66.9369L58.0905 67.062L58.0919 67.0492L57.0982 66.9369ZM56.7493 69.7046L57.7096 69.9835L57.7316 69.9079L57.7414 69.8297L56.7493 69.7046ZM56.2258 71.5068L57.1433 71.9048L57.1685 71.8466L57.1862 71.7858L56.2258 71.5068ZM55.5279 73.116L56.3461 73.691L56.4047 73.6075L56.4453 73.5139L55.5279 73.116ZM54.7137 74.2745L55.4557 74.945L55.4967 74.8996L55.5319 74.8495L54.7137 74.2745ZM54.0739 74.9825L54.6821 75.7763L54.7547 75.7208L54.8159 75.653L54.0739 74.9825ZM53.3179 75.5618L53.5746 76.5283L53.7676 76.4771L53.9261 76.3556L53.3179 75.5618ZM51.8639 75.948V76.948H51.9944L52.1206 76.9145L51.8639 75.948ZM50.9915 75.948L50.8194 76.9331L50.9048 76.948H50.9915V75.948ZM49.8865 75.7549L49.352 76.6001L49.5193 76.7059L49.7143 76.74L49.8865 75.7549ZM49.0722 75.24L48.363 75.945L48.4425 76.0249L48.5378 76.0852L49.0722 75.24ZM47.7927 73.9527L46.9042 74.4115L46.9749 74.5484L47.0835 74.6577L47.7927 73.9527ZM47.0948 72.601L46.1439 72.9104L46.169 72.9876L46.2063 73.0598L47.0948 72.601ZM46.5714 70.9919L45.5899 71.1837L45.6016 71.2434L45.6204 71.3013L46.5714 70.9919ZM46.1061 68.6104L45.1093 68.6899L45.1138 68.7465L45.1247 68.8022L46.1061 68.6104ZM45.9316 66.422L46.9285 66.3425L46.8611 65.4975L46.0165 65.4256L45.9316 66.422ZM44.4195 66.2933L44.2091 67.2709L44.2713 67.2843L44.3347 67.2897L44.4195 66.2933ZM42.3258 65.8427L41.8416 66.7177L41.9709 66.7892L42.1154 66.8203L42.3258 65.8427ZM40.9299 65.0703L40.188 65.7408L40.2998 65.8645L40.4458 65.9453L40.9299 65.0703ZM29.5307 69.1723L30.3443 68.5908L30.3443 68.5908L29.5307 69.1723ZM22.4391 49.2224L21.4447 49.3285L22.4391 49.2224ZM40.198 63.5916L39.2675 63.8491L39.8008 65.7767L40.7313 65.5192L40.198 63.5916ZM39.188 63.8747L38.1411 64.2609L38.8333 66.1373L39.8802 65.7511L39.188 63.8747ZM38.126 64.2666L36.9629 64.7171L37.6852 66.5821L38.8484 66.1315L38.126 64.2666ZM37.3241 65.6496C36.3581 65.3909 36.3581 65.3908 36.3582 65.3907C36.3582 65.3906 36.3582 65.3905 36.3582 65.3904C36.3583 65.3903 36.3583 65.3902 36.3583 65.39C36.3584 65.3898 36.3585 65.3895 36.3585 65.3892C36.3587 65.3887 36.3588 65.3882 36.3589 65.3878C36.3592 65.3868 36.3594 65.386 36.3596 65.3853C36.36 65.3839 36.3603 65.3829 36.3605 65.3822C36.3609 65.3808 36.361 65.3805 36.3609 65.3808C36.3604 65.3825 36.3604 65.3823 36.3616 65.3789C36.3624 65.3769 36.3644 65.3717 36.3678 65.3638C36.3711 65.3564 36.3776 65.3421 36.3877 65.3232C36.3972 65.3056 36.4157 65.273 36.4446 65.2335C36.4707 65.1978 36.526 65.1275 36.6159 65.0568L37.8525 66.6287C38.0332 66.4865 38.1243 66.3168 38.1495 66.2698C38.1891 66.1962 38.2165 66.1283 38.2329 66.0849C38.2506 66.038 38.264 65.9966 38.2727 65.9681C38.2773 65.9533 38.281 65.9405 38.2839 65.9305C38.2853 65.9255 38.2865 65.9211 38.2875 65.9174C38.288 65.9155 38.2885 65.9139 38.2889 65.9123C38.2891 65.9116 38.2893 65.9109 38.2895 65.9102C38.2896 65.9099 38.2897 65.9096 38.2898 65.9092C38.2898 65.9091 38.2898 65.9089 38.2899 65.9088C38.2899 65.9087 38.2899 65.9086 38.2899 65.9086C38.29 65.9085 38.29 65.9084 37.3241 65.6496ZM36.6376 65.0402C36.2546 65.3249 36.0631 65.4673 35.9673 65.5385C35.9195 65.5741 35.8955 65.5919 35.8836 65.6008C35.8776 65.6052 35.8746 65.6075 35.8731 65.6086C35.8724 65.6091 35.872 65.6094 35.8718 65.6095C35.8717 65.6096 35.8717 65.6096 35.8717 65.6096C35.8717 65.6096 35.8717 65.6096 35.8717 65.6096C35.8717 65.6096 35.8718 65.6095 35.8719 65.6095C35.8719 65.6095 35.872 65.6094 35.8721 65.6093C35.8723 65.6092 35.8725 65.609 35.8727 65.6089C36.1546 65.4626 36.4682 65.4122 36.4682 66.4122C36.4682 67.4122 36.7818 67.3618 37.0638 67.2155C37.0639 67.2154 37.0642 67.2152 37.0643 67.2151C37.0645 67.215 37.0646 67.2149 37.0646 67.2149C37.0647 67.2149 37.0647 67.2148 37.0647 67.2148C37.0648 67.2148 37.0648 67.2148 37.0648 67.2147C37.0649 67.2147 37.0649 67.2147 37.065 67.2146C37.0652 67.2144 37.0656 67.2142 37.0664 67.2136C37.0679 67.2125 37.0709 67.2103 37.0768 67.2058C37.0888 67.1969 37.1127 67.1791 37.1606 67.1435C37.2564 67.0723 37.4479 66.93 37.8309 66.6452L36.6376 65.0402ZM36.0138 65.5214C35.7399 65.6611 35.4992 65.8415 35.3424 65.9688C35.2602 66.0356 35.192 66.0953 35.1433 66.1392C35.1189 66.1613 35.099 66.1797 35.0844 66.1935C35.077 66.2004 35.071 66.2061 35.0663 66.2106C35.064 66.2128 35.062 66.2148 35.0603 66.2164C35.0595 66.2172 35.0588 66.2179 35.0581 66.2185C35.0578 66.2188 35.0575 66.2191 35.0572 66.2194C35.0571 66.2195 35.0569 66.2196 35.0568 66.2198C35.0568 66.2198 35.0567 66.2199 35.0566 66.22C35.0565 66.22 35.0564 66.2201 35.7537 66.9369C36.451 67.6537 36.451 67.6538 36.4509 67.6539C36.4508 67.6539 36.4508 67.654 36.4507 67.654C36.4506 67.6541 36.4505 67.6542 36.4504 67.6543C36.4502 67.6545 36.45 67.6547 36.4499 67.6548C36.4496 67.6551 36.4493 67.6554 36.4492 67.6555C36.4488 67.6558 36.4488 67.6558 36.4491 67.6556C36.4497 67.655 36.4515 67.6533 36.4543 67.6506C36.4601 67.6452 36.4701 67.6359 36.4839 67.6235C36.5116 67.5984 36.553 67.5621 36.6034 67.5212C36.7118 67.4331 36.8283 67.3511 36.9227 67.303L36.0138 65.5214ZM34.8532 66.5021L34.4492 67.3388L36.2502 68.2085L36.6542 67.3718L34.8532 66.5021ZM34.5183 67.218L33.959 68.0547L35.6218 69.1661L36.1811 68.3294L34.5183 67.218ZM28.4624 36.96C28.6127 35.9165 29.0997 34.9813 29.7657 34.0444C30.0989 33.5758 30.4654 33.122 30.8473 32.656C31.2221 32.1987 31.619 31.7208 31.976 31.2411C32.6827 30.2917 33.3476 29.1911 33.463 27.8975C33.5826 26.5566 33.0999 25.2032 31.9275 23.7775L30.3827 25.0478C31.3254 26.1942 31.5311 27.0442 31.4709 27.7198C31.4064 28.4427 31.0231 29.1717 30.3716 30.047C30.0495 30.4797 29.6898 30.9131 29.3003 31.3884C28.9179 31.8551 28.5124 32.3556 28.1357 32.8856C27.3819 33.9459 26.6974 35.185 26.4828 36.675L28.4624 36.96ZM31.9275 23.7775C31.4506 23.1976 30.8024 22.9828 30.1779 23.0011C29.5944 23.0181 29.0336 23.2331 28.5671 23.488C27.6453 23.9917 26.7603 24.837 26.3266 25.5895L28.0593 26.5883C28.2855 26.1959 28.8818 25.5952 29.5262 25.2431C29.8428 25.07 30.0863 25.0046 30.2363 25.0002C30.3452 24.9971 30.3597 25.0198 30.3827 25.0478L31.9275 23.7775ZM26.3266 25.5895C25.2115 27.5239 24.354 29.4098 23.7758 30.8093C23.4863 31.5102 23.2656 32.0918 23.1167 32.5001C23.0423 32.7043 22.9857 32.8653 22.9474 32.9764C22.9282 33.032 22.9136 33.0751 22.9036 33.1048C22.8986 33.1197 22.8947 33.1313 22.892 33.1394C22.8907 33.1435 22.8896 33.1467 22.8889 33.149C22.8885 33.1502 22.8882 33.1511 22.8879 33.1519C22.8878 33.1522 22.8877 33.1526 22.8876 33.1528C22.8876 33.1529 22.8875 33.1531 22.8875 33.1531C22.8875 33.1533 22.8874 33.1534 23.8377 33.4648C24.788 33.7763 24.7879 33.7764 24.7879 33.7764C24.7879 33.7764 24.7879 33.7765 24.7879 33.7765C24.7879 33.7766 24.7879 33.7765 24.7879 33.7765C24.7879 33.7763 24.7881 33.776 24.7882 33.7754C24.7886 33.7742 24.7893 33.7722 24.7902 33.7693C24.7921 33.7636 24.7952 33.7545 24.7994 33.742C24.8077 33.7172 24.8206 33.6791 24.838 33.6287C24.8728 33.528 24.9255 33.3779 24.9957 33.1853C25.1363 32.7999 25.3468 32.2447 25.6243 31.573C26.1802 30.2274 27.0004 28.4253 28.0593 26.5883L26.3266 25.5895ZM30.2839 71.9164L31.7292 74.0193L33.3774 72.8864L31.9321 70.7836L30.2839 71.9164ZM31.5553 73.3893L31.4988 74.2753L33.4948 74.4025L33.5512 73.5164L31.5553 73.3893ZM31.5051 74.2109L31.3306 75.5625L33.3141 75.8186L33.4886 74.4669L31.5051 74.2109ZM31.3223 75.6906V76.5273H33.3223V75.6906H31.3223ZM31.3227 76.5007L31.2645 78.6891L33.2638 78.7423L33.322 76.5539L31.3227 76.5007ZM31.2651 78.7587L31.3233 80.1104L33.3214 80.0244L33.2633 78.6727L31.2651 78.7587ZM31.3229 80.0996L31.381 81.9018L33.38 81.8373L33.3218 80.0351L31.3229 80.0996ZM31.3917 82.0185L31.5661 83.1771L33.5438 82.8792L33.3694 81.7207L31.3917 82.0185ZM31.559 83.1181L31.6754 84.4054L33.6672 84.2255L33.5509 82.9382L31.559 83.1181ZM31.6763 84.4153L31.7926 85.5739L33.7826 85.3741L33.6663 84.2155L31.6763 84.4153ZM31.8036 85.6518L32.0362 86.9391L34.0043 86.5835L33.7717 85.2962L31.8036 85.6518ZM33.3664 85.8231L32.6685 85.5656L31.9762 87.442L32.6742 87.6995L33.3664 85.8231ZM32.6295 85.5522L31.2337 85.1016L30.6193 87.0049L32.0152 87.4555L32.6295 85.5522ZM30.9265 85.0533H29.996V87.0533H30.9265V85.0533ZM29.931 85.0554L28.9423 85.1198L29.0722 87.1155L30.0609 87.0512L29.931 85.0554ZM28.4954 85.2586L27.7393 85.7092L28.7631 87.4272L29.5192 86.9767L28.4954 85.2586ZM27.5092 85.8978L26.8695 86.6058L28.3534 87.9467L28.9932 87.2386L27.5092 85.8978ZM26.801 86.6904L26.3357 87.334L27.9566 88.5057L28.4219 87.8621L26.801 86.6904ZM26.1945 87.6128L25.9037 88.5139L27.807 89.1281L28.0978 88.227L26.1945 87.6128ZM25.8604 88.7211L25.7441 89.8796L27.7341 90.0794L27.8504 88.9209L25.8604 88.7211ZM25.7396 89.9461L25.6815 91.6839L27.6803 91.7508L27.7385 90.013L25.7396 89.9461ZM25.6881 91.837L25.8044 92.8025L27.79 92.5632L27.6737 91.5978L25.6881 91.837ZM25.9142 93.1522L26.4958 94.2464L28.2618 93.3077L27.6802 92.2135L25.9142 93.1522ZM26.6832 94.4954L27.1484 94.946L28.5397 93.5092L28.0745 93.0587L26.6832 94.4954ZM27.3947 95.121L28.0344 95.4428L28.9332 93.6561L28.2935 93.3343L27.3947 95.121ZM28.19 95.5053L29.2369 95.8271L29.8246 93.9154L28.7777 93.5936L28.19 95.5053ZM29.4459 95.8677L30.958 95.9964L31.1277 94.0036L29.6155 93.8749L29.4459 95.8677ZM31.1042 95.9981L32.1511 95.9337L32.0283 93.9375L30.9815 94.0019L31.1042 95.9981ZM32.1745 95.932L33.6867 95.8033L33.517 93.8105L32.0049 93.9392L32.1745 95.932ZM33.8326 95.7799L35.4611 95.3937L34.9996 93.4477L33.3711 93.8339L33.8326 95.7799ZM35.4884 95.3868L37.175 94.9363L36.6589 93.004L34.9722 93.4546L35.4884 95.3868ZM36.3662 94.8049L36.7565 95.0623L37.8579 93.3929L37.4676 93.1355L36.3662 94.8049ZM37.3072 95.2276H37.673V93.2276H37.3072V95.2276ZM37.673 95.2276H38.4257V93.2276H37.673V95.2276ZM38.65 95.2021L40.0482 94.8803L39.5996 92.9313L38.2014 93.2531L38.65 95.2021ZM39.9135 94.9018L42.06 94.7087L41.8808 92.7167L39.7343 92.9098L39.9135 94.9018ZM42.0666 94.7081L43.5554 94.5642L43.3631 92.5735L41.8743 92.7173L42.0666 94.7081ZM43.5062 94.5678L45.9205 94.4541L45.8265 92.4563L43.4122 92.57L43.5062 94.5678ZM45.9231 94.454L51.0993 94.1966L51 92.199L45.8238 92.4565L45.9231 94.454ZM50.9915 94.1961L52.0965 94.2605L52.2128 92.2638L51.1078 92.1995L50.9915 94.1961ZM52.1972 94.2612L53.7094 94.1969L53.6243 92.1987L52.1122 92.2631L52.1972 94.2612ZM53.6226 94.1968L55.0766 94.2612L55.165 92.2631L53.7111 92.1988L53.6226 94.1968ZM55.0218 94.2572L60.198 94.7722L60.396 92.782L55.2198 92.2671L55.0218 94.2572ZM60.1316 94.7633L62.0509 95.0851L62.3816 93.1127L60.4624 92.7908L60.1316 94.7633ZM62.0601 95.0866L63.2814 95.2797L63.5937 93.3043L62.3724 93.1112L62.0601 95.0866ZM63.2697 95.2778L64.0258 95.4065L64.3615 93.4349L63.6054 93.3062L63.2697 95.2778ZM64.4244 95.3937L65.2386 95.2006L64.7771 93.2546L63.9629 93.4477L64.4244 95.3937ZM65.5768 95.0501L66.042 94.7282L64.9043 93.0834L64.439 93.4052L65.5768 95.0501ZM65.2212 94.8735L67.1986 95.3884L67.7026 93.453L65.7252 92.9381L65.2212 94.8735ZM67.2692 95.4041L68.665 95.6616L69.0278 93.6948L67.632 93.4373L67.2692 95.4041ZM68.7287 95.6712L70.3571 95.8643L70.5926 93.8782L68.9642 93.6851L68.7287 95.6712ZM70.4288 95.8702L71.8246 95.9346L71.9168 93.9367L70.5209 93.8723L70.4288 95.8702ZM71.8707 95.9356H73.092V93.9356H71.8707V95.9356ZM73.4071 95.8847L74.5703 95.4985L73.9401 93.6004L72.7769 93.9866L73.4071 95.8847ZM74.7671 95.4085L75.5232 94.9579L74.4994 93.2398L73.7433 93.6904L74.7671 95.4085ZM75.8101 94.7004L76.3917 93.928L74.794 92.725L74.2124 93.4974L75.8101 94.7004ZM76.5375 93.6548L76.8283 92.818L74.9391 92.1615L74.6483 92.9982L76.5375 93.6548ZM76.8765 92.6094L76.9928 91.6439L75.0072 91.4047L74.8909 92.3702L76.8765 92.6094ZM76.9985 91.4696L76.8822 89.3456L74.8852 89.4549L75.0015 91.579L76.9985 91.4696ZM76.8507 89.1454L76.4435 87.6007L74.5096 88.1103L74.9167 89.6551L76.8507 89.1454ZM76.3044 87.2945L75.6065 86.2647L73.9508 87.3867L74.6488 88.4165L76.3044 87.2945ZM75.3723 86.021L74.6744 85.5061L73.487 87.1154L74.185 87.6304L75.3723 86.021ZM74.3822 85.3573L73.568 85.0998L72.965 87.0068L73.7793 87.2642L74.3822 85.3573ZM73.2665 85.0533H72.4523V87.0533H73.2665V85.0533ZM72.3909 85.0552L71.344 85.1195L71.4668 87.1158L72.5136 87.0514L72.3909 85.0552ZM71.0138 85.1975L70.2577 85.5194L71.041 87.3596L71.7971 87.0378L71.0138 85.1975ZM70.3398 85.4886L69.3511 85.8104L69.9701 87.7122L70.9589 87.3904L70.3398 85.4886ZM70.6495 86.9102L70.824 85.7517L68.8463 85.4538L68.6718 86.6124L70.6495 86.9102ZM70.8262 85.7361L71.2333 82.711L69.2512 82.4442L68.844 85.4694L70.8262 85.7361ZM71.2413 82.6216L71.3576 79.9827L69.3595 79.8946L69.2432 82.5336L71.2413 82.6216ZM71.3583 79.9612L71.4165 77.3866L69.417 77.3415L69.3588 79.916L71.3583 79.9612ZM71.4148 77.3018L71.2984 75.4353L69.3023 75.5597L69.4186 77.4262L71.4148 77.3018ZM71.2857 75.327L70.7623 72.3018L68.7916 72.6428L69.315 75.668L71.2857 75.327ZM70.7174 72.1324L69.9032 69.8796L68.0223 70.5595L68.8365 72.8122L70.7174 72.1324ZM69.8813 69.8243L69.2997 68.4726L67.4626 69.2631L68.0441 70.6148L69.8813 69.8243ZM69.1889 68.2784L67.9675 66.6049L66.352 67.7839L67.5734 69.4574L69.1889 68.2784ZM67.8284 66.4508L66.8979 65.614L65.5606 67.1012L66.4912 67.938L67.8284 66.4508ZM66.7605 65.5104L65.0158 64.4162L63.9532 66.1106L65.6979 67.2048L66.7605 65.5104ZM64.7261 64.2931L62.3997 63.7138L61.9165 65.6545L64.2428 66.2338L64.7261 64.2931ZM61.4801 63.949L61.1312 64.2708L62.4871 65.7411L62.836 65.4193L61.4801 63.949ZM61.337 64.1244L59.5341 65.0899L60.4783 66.853L62.2812 65.8875L61.337 64.1244ZM59.85 64.9837L57.0002 65.4343L57.3125 67.4097L60.1623 66.9592L59.85 64.9837ZM56.1627 66.3097L56.1045 66.8247L58.0919 67.0492L58.1501 66.5342L56.1627 66.3097ZM56.1061 66.8118L55.7571 69.5795L57.7414 69.8297L58.0904 67.062L56.1061 66.8118ZM55.789 69.4257L55.2655 71.2279L57.1862 71.7858L57.7096 69.9835L55.789 69.4257ZM55.3084 71.1089L54.6105 72.718L56.4453 73.5139L57.1433 71.9048L55.3084 71.1089ZM54.7098 72.541L53.8955 73.6995L55.5319 74.8495L56.3461 73.691L54.7098 72.541ZM53.9717 73.6041L53.332 74.3121L54.8159 75.653L55.4557 74.945L53.9717 73.6041ZM53.4658 74.1887L52.7097 74.768L53.9261 76.3556L54.6821 75.7763L53.4658 74.1887ZM53.0612 74.5953L51.6072 74.9815L52.1206 76.9145L53.5746 76.5283L53.0612 74.5953ZM51.8639 74.948H50.9915V76.948H51.8639V74.948ZM51.1636 74.9629L50.0586 74.7698L49.7143 76.74L50.8194 76.9331L51.1636 74.9629ZM50.421 74.9097L49.6067 74.3948L48.5378 76.0852L49.352 76.6001L50.421 74.9097ZM49.7815 74.535L48.502 73.2477L47.0835 74.6577L48.363 75.945L49.7815 74.535ZM48.6813 73.4939L47.9834 72.1423L46.2063 73.0598L46.9042 74.4115L48.6813 73.4939ZM48.0458 72.2917L47.5223 70.6826L45.6204 71.3013L46.1439 72.9104L48.0458 72.2917ZM47.5528 70.8002L47.0876 68.4187L45.1247 68.8022L45.5899 71.1837L47.5528 70.8002ZM47.1029 68.5309L46.9285 66.3425L44.9348 66.5015L45.1093 68.6899L47.1029 68.5309ZM46.0165 65.4256L44.5043 65.2969L44.3347 67.2897L45.8468 67.4184L46.0165 65.4256ZM44.6299 65.3156L42.5361 64.8651L42.1154 66.8203L44.2091 67.2709L44.6299 65.3156ZM42.8099 64.9677L41.4141 64.1954L40.4458 65.9453L41.8416 66.7177L42.8099 64.9677ZM41.6719 64.3999L41.2066 63.885L39.7227 65.2258L40.188 65.7408L41.6719 64.3999ZM27.755 68.2104C27.7543 68.2094 27.9716 68.5594 28.2107 68.9444C28.3259 69.13 28.4414 69.3159 28.5293 69.4572C28.5976 69.5668 28.6877 69.7126 28.7171 69.7538L30.3443 68.5908C30.3656 68.6206 30.3762 68.639 30.3334 68.5706C30.3075 68.5291 30.271 68.4706 30.2273 68.4004C30.14 68.26 30.0249 68.0749 29.9097 67.8894C29.688 67.5322 29.4449 67.1403 29.4275 67.1137L27.755 68.2104ZM28.7171 69.7538C28.9623 70.0967 29.3587 70.644 29.6921 71.1033C29.8592 71.3334 30.0111 71.5423 30.1212 71.6936C30.1763 71.7693 30.2209 71.8305 30.2517 71.8729C30.2672 71.8941 30.2792 71.9106 30.2873 71.9218C30.2914 71.9274 30.2945 71.9316 30.2966 71.9345C30.2976 71.936 30.2984 71.937 30.299 71.9378C30.2992 71.9381 30.2994 71.9384 30.2996 71.9386C30.2996 71.9387 30.2997 71.9388 30.2997 71.9388C30.2997 71.9388 30.2998 71.9389 30.2998 71.9389C30.2998 71.9389 30.2998 71.9389 31.108 71.35C31.9162 70.7611 31.9162 70.7611 31.9162 70.7611C31.9162 70.7611 31.9162 70.7611 31.9162 70.7611C31.9161 70.761 31.9161 70.761 31.916 70.7609C31.9159 70.7607 31.9157 70.7604 31.9155 70.7601C31.9149 70.7594 31.9142 70.7583 31.9131 70.7569C31.9111 70.754 31.908 70.7498 31.9039 70.7442C31.8958 70.7331 31.8839 70.7167 31.8685 70.6956C31.8378 70.6534 31.7933 70.5923 31.7384 70.5169C31.6286 70.3659 31.4771 70.1577 31.3105 69.9282C30.9767 69.4684 30.5844 68.9268 30.3443 68.5908L28.7171 69.7538ZM35.4056 67.8221C32.0061 65.1691 29.797 60.6592 28.679 55.1314C27.5644 49.6207 27.5609 43.2201 28.4624 36.96L26.4828 36.675C25.5565 43.1071 25.5489 49.7444 26.7187 55.5279C27.885 61.2942 30.2487 66.3346 34.1752 69.3988L35.4056 67.8221ZM23.8377 33.4648C22.879 33.1805 22.8789 33.1807 22.8788 33.1809C22.8788 33.1811 22.8787 33.1813 22.8786 33.1816C22.8785 33.1821 22.8783 33.1827 22.8781 33.1834C22.8777 33.1848 22.8771 33.1867 22.8764 33.189C22.8751 33.1937 22.8732 33.2003 22.8707 33.2087C22.8659 33.2254 22.859 33.2494 22.8502 33.2805C22.8326 33.3426 22.8075 33.433 22.7762 33.5499C22.7135 33.7836 22.6259 34.1235 22.524 34.5555C22.3203 35.4191 22.059 36.6527 21.8255 38.1438C21.3594 41.1195 20.999 45.1523 21.4447 49.3285L23.4334 49.1163C23.0125 45.1724 23.3514 41.3264 23.8014 38.4533C24.0258 37.02 24.2766 35.8368 24.4706 35.0146C24.5675 34.6037 24.6501 34.2835 24.7079 34.0678C24.7368 33.96 24.7595 33.8784 24.7747 33.8247C24.7823 33.7979 24.788 33.778 24.7917 33.7653C24.7935 33.759 24.7949 33.7545 24.7956 33.7518C24.796 33.7504 24.7963 33.7495 24.7964 33.7491C24.7965 33.7489 24.7965 33.7488 24.7965 33.7488C24.7965 33.7488 24.7965 33.7489 24.7965 33.7489C24.7965 33.749 24.7964 33.7492 23.8377 33.4648ZM21.4447 49.3285C22.3181 57.5131 25.463 64.7151 27.755 68.2104L29.4275 67.1137C27.303 63.8737 24.2719 56.9732 23.4334 49.1163L21.4447 49.3285Z" fill="#282828" mask="url(#path-3-inside-1_450_51)"/>
<path d="M61.0052 70.0909C61.0052 70.0909 60.8051 84.5576 57.693 88.9376C59.2558 87.5808 66.2675 85.3634 66.1192 90.5454C65.9708 95.7274 63.5936 93.5682 62.1954 93.5682C60.054 93.1472 51.7509 92.585 51.2903 92.9841V76.4592" stroke="#282828" stroke-linecap="round" stroke-linejoin="round"/>
<path d="M41.305 70.0909C41.305 70.0909 41.5051 84.5576 44.6172 88.9376C43.0544 87.5808 36.0428 85.3634 36.1911 90.5454C36.3394 95.7274 38.7166 93.5682 40.1148 93.5682C42.2562 93.1472 50.5593 92.585 51.0199 92.9841V76.4592" stroke="#282828" stroke-linecap="round" stroke-linejoin="round"/>
<path d="M33.9519 32.2146C37.3076 31.41 43.18 36.1261 45.6968 38.5847C43.5529 41.7139 38.7617 48.2404 36.7483 49.3133C34.2315 50.6543 29.7573 33.2204 33.9519 32.2146Z" fill="#E3954F" stroke="#282828"/>
<path d="M69.1864 32.2146C65.8307 31.41 59.9583 36.1261 57.4415 38.5847C59.5854 41.7139 64.3766 48.2404 66.39 49.3133C68.9068 50.6543 73.381 33.2204 69.1864 32.2146Z" fill="#E3954F" stroke="#282828"/>
<path d="M67.5676 56.6888C67.5676 67.4261 60.3236 75.9696 51.5688 75.9696C42.814 75.9696 35.57 67.4261 35.57 56.6888C35.57 45.9516 42.814 37.4081 51.5688 37.4081C60.3236 37.4081 67.5676 45.9516 67.5676 56.6888Z" fill="#E3964F" stroke="#282828"/>
<ellipse cx="45.4165" cy="52.6661" rx="2.51676" ry="3.0174" fill="#282828"/>
<ellipse cx="58.2803" cy="52.6661" rx="2.51676" ry="3.0174" fill="#282828"/>
<path d="M55.1485 69.0942C55.8196 68.9479 56.2111 67.6922 56.323 67.0826C55.6519 67.6678 54.9248 67.3265 54.6452 67.0826C54.8129 67.4484 55.1485 68.3628 55.1485 69.0942Z" fill="white"/>
<path d="M48.5488 69.0942C47.8777 68.9479 47.4862 67.6922 47.3743 67.0826C48.0454 67.6678 48.7725 67.3265 49.0521 67.0826C48.8844 67.4484 48.5488 68.3628 48.5488 69.0942Z" fill="white"/>
<path d="M51.8484 63.7297C52.788 66.167 55.6694 69.6605 59.6784 64.136" stroke="#282828"/>
<path d="M51.8484 63.7297C50.9088 66.167 48.0274 69.6605 44.0185 64.136" stroke="#282828"/>
<path d="M52.5349 63.7526C52.1496 64.1163 51.5474 64.1163 51.1621 63.7526L48.3505 61.0987C47.6924 60.4776 48.132 59.3715 49.0369 59.3715L54.6601 59.3715C55.565 59.3715 56.0045 60.4776 55.3465 61.0987L52.5349 63.7526Z" fill="#282828"/>
<path d="M33.9515 35.5675C35.7226 36.0145 39.8799 37.6462 42.3407 40.5965" stroke="#282828"/>
<path d="M69.1859 35.5675C67.4148 36.0145 63.2575 37.6462 60.7967 40.5965" stroke="#282828"/>
<path d="M39.5444 38.2496C38.4258 38.3614 36.0209 39.3225 35.3498 42.2728" stroke="#282828"/>
<path d="M63.593 38.2496C64.7116 38.3614 67.1165 39.3225 67.7876 42.2728" stroke="#282828"/>
<path d="M48.4926 63.0588C46.3966 61.306 41.6724 58.3262 39.5442 60.4296" stroke="#454545" stroke-width="0.5"/>
<path d="M47.1718 63.5543C45.2865 62.9143 41.2679 62.1975 40.2754 64.4509" stroke="#454545" stroke-width="0.5"/>
<path d="M48.5436 64.8964C46.7506 64.7033 42.9073 64.8001 41.8781 66.732" stroke="#454545" stroke-width="0.5"/>
<path d="M54.6953 63.0588C56.7914 61.306 61.5155 58.3262 63.6438 60.4296" stroke="#454545" stroke-width="0.5"/>
<path d="M56.0161 63.5543C57.9014 62.9143 61.9201 62.1975 62.9126 64.4509" stroke="#454545" stroke-width="0.5"/>
<path d="M54.6448 64.8964C56.4378 64.7033 60.2811 64.8001 61.3103 66.732" stroke="#454545" stroke-width="0.5"/>
<path d="M32.833 73.7874C33.4855 71.8875 34.9023 68.6913 35.3497 68.4231" stroke="#282828"/>
</g>
<defs>
<filter id="filter0_d_450_51" x="0" y="0" width="98" height="128" filterUnits="userSpaceOnUse" color-interpolation-filters="sRGB">
<feFlood flood-opacity="0" result="BackgroundImageFix"/>
<feColorMatrix in="SourceAlpha" type="matrix" values="0 0 0 0 0 0 0 0 0 0 0 0 0 0 0 0 0 0 127 0" result="hardAlpha"/>
<feOffset dy="4"/>
<feGaussianBlur stdDeviation="2"/>
<feComposite in2="hardAlpha" operator="out"/>
<feColorMatrix type="matrix" values="0 0 0 0 0 0 0 0 0 0 0 0 0 0 0 0 0 0 0.25 0"/>
<feBlend mode="normal" in2="BackgroundImageFix" result="effect1_dropShadow_450_51"/>
<feBlend mode="normal" in="SourceGraphic" in2="effect1_dropShadow_450_51" result="shape"/>
</filter>
</defs>
</svg>
