<svg width="55" height="71" viewBox="0 0 55 71" fill="none" xmlns="http://www.w3.org/2000/svg">
<mask id="path-1-inside-1_450_54" fill="white">
<path fill-rule="evenodd" clip-rule="evenodd" d="M19.4647 40.5554L18.5341 40.8129L17.4872 41.1991L16.3241 41.6496C16.3241 41.6496 16.2825 41.8047 16.2342 41.8427C15.4682 42.4122 15.4682 42.4122 15.4682 42.4122C15.1 42.6001 14.7537 42.9369 14.7537 42.9369L14.3497 43.7737L13.7904 44.6104C6.46438 38.8933 4.6448 25.5097 6.47258 12.8175C7.20229 7.75038 14.3853 5.5571 10.1551 0.412621C9.15542 -0.803076 6.85295 0.943966 6.19294 2.08894C4.01896 5.86033 2.83768 9.46483 2.83768 9.46483C2.83768 9.46483 0.572496 17.1023 1.43905 25.2224C2.29501 33.2431 5.38301 40.2944 7.59125 43.6621C7.60801 43.6876 8.51186 45.1459 8.5307 45.1723C9.01598 45.8512 10.108 47.35 10.108 47.35L11.5533 49.4528L11.4968 50.3389L11.3223 51.6906V52.5273L11.2642 54.7157L11.3223 56.0674L11.3805 57.8696L11.555 59.0281L11.6713 60.3154L11.7876 61.474L12.0203 62.7613L11.3223 62.5038L9.92652 62.0533H8.99598L8.00727 62.1177L7.2512 62.5682L6.61145 63.2762L6.14617 63.9199L5.85538 64.821L5.73906 65.9795L5.6809 67.7174L5.79722 68.6829L6.37881 69.7771L6.84408 70.2276L7.48384 70.5494L8.5307 70.8713L10.0428 71L11.0897 70.9356L12.6019 70.8069L14.2303 70.4207L15.9169 69.9702L16.3072 70.2276H16.673H17.4257L18.8239 69.9058L20.9704 69.7127L22.4592 69.5689L24.8735 69.4552L30.0497 69.1978L31.1547 69.2622L32.6668 69.1978L34.1208 69.2622L39.297 69.7771L41.2162 70.0989L42.4376 70.292L43.1937 70.4207L44.0079 70.2276L44.4732 69.9058L46.4506 70.4207L47.8464 70.6782L49.4749 70.8713L50.8707 70.9356H52.092L53.2552 70.5494L54.0113 70.0989L54.5929 69.3265L54.8837 68.4898L55 67.5243L54.8837 65.4003L54.4766 63.8555L53.7787 62.8257L53.0807 62.3107L52.2665 62.0533H51.4523L50.4054 62.1177L49.6493 62.4395L48.6606 62.7613L48.8351 61.6027L49.2422 58.5776L49.3585 55.9386L49.4167 53.364L49.3004 51.4975L48.777 48.4723L47.9627 46.2195L47.3811 44.8679L46.1598 43.1944L45.2292 42.3576L43.4845 41.2634L41.1581 40.6841L40.8091 41.006L39.0062 41.9714L36.1564 42.422L36.0982 42.9369L35.7493 45.7046L35.2258 47.5068L34.5279 49.116L33.7137 50.2745L33.0739 50.9825L32.3179 51.5618L30.8639 51.948H29.9915L28.8865 51.7549L28.0722 51.24L26.7927 49.9527L26.0948 48.601L25.5714 46.9919L25.1061 44.6104L24.9316 42.422L23.4195 42.2933L21.3258 41.8427L19.9299 41.0703L19.4647 40.5554Z"/>
</mask>
<path fill-rule="evenodd" clip-rule="evenodd" d="M19.4647 40.5554L18.5341 40.8129L17.4872 41.1991L16.3241 41.6496C16.3241 41.6496 16.2825 41.8047 16.2342 41.8427C15.4682 42.4122 15.4682 42.4122 15.4682 42.4122C15.1 42.6001 14.7537 42.9369 14.7537 42.9369L14.3497 43.7737L13.7904 44.6104C6.46438 38.8933 4.6448 25.5097 6.47258 12.8175C7.20229 7.75038 14.3853 5.5571 10.1551 0.412621C9.15542 -0.803076 6.85295 0.943966 6.19294 2.08894C4.01896 5.86033 2.83768 9.46483 2.83768 9.46483C2.83768 9.46483 0.572496 17.1023 1.43905 25.2224C2.29501 33.2431 5.38301 40.2944 7.59125 43.6621C7.60801 43.6876 8.51186 45.1459 8.5307 45.1723C9.01598 45.8512 10.108 47.35 10.108 47.35L11.5533 49.4528L11.4968 50.3389L11.3223 51.6906V52.5273L11.2642 54.7157L11.3223 56.0674L11.3805 57.8696L11.555 59.0281L11.6713 60.3154L11.7876 61.474L12.0203 62.7613L11.3223 62.5038L9.92652 62.0533H8.99598L8.00727 62.1177L7.2512 62.5682L6.61145 63.2762L6.14617 63.9199L5.85538 64.821L5.73906 65.9795L5.6809 67.7174L5.79722 68.6829L6.37881 69.7771L6.84408 70.2276L7.48384 70.5494L8.5307 70.8713L10.0428 71L11.0897 70.9356L12.6019 70.8069L14.2303 70.4207L15.9169 69.9702L16.3072 70.2276H16.673H17.4257L18.8239 69.9058L20.9704 69.7127L22.4592 69.5689L24.8735 69.4552L30.0497 69.1978L31.1547 69.2622L32.6668 69.1978L34.1208 69.2622L39.297 69.7771L41.2162 70.0989L42.4376 70.292L43.1937 70.4207L44.0079 70.2276L44.4732 69.9058L46.4506 70.4207L47.8464 70.6782L49.4749 70.8713L50.8707 70.9356H52.092L53.2552 70.5494L54.0113 70.0989L54.5929 69.3265L54.8837 68.4898L55 67.5243L54.8837 65.4003L54.4766 63.8555L53.7787 62.8257L53.0807 62.3107L52.2665 62.0533H51.4523L50.4054 62.1177L49.6493 62.4395L48.6606 62.7613L48.8351 61.6027L49.2422 58.5776L49.3585 55.9386L49.4167 53.364L49.3004 51.4975L48.777 48.4723L47.9627 46.2195L47.3811 44.8679L46.1598 43.1944L45.2292 42.3576L43.4845 41.2634L41.1581 40.6841L40.8091 41.006L39.0062 41.9714L36.1564 42.422L36.0982 42.9369L35.7493 45.7046L35.2258 47.5068L34.5279 49.116L33.7137 50.2745L33.0739 50.9825L32.3179 51.5618L30.8639 51.948H29.9915L28.8865 51.7549L28.0722 51.24L26.7927 49.9527L26.0948 48.601L25.5714 46.9919L25.1061 44.6104L24.9316 42.422L23.4195 42.2933L21.3258 41.8427L19.9299 41.0703L19.4647 40.5554Z" fill="#E3954F"/>
<path d="M2.83768 9.46483C2.39893 9.22505 2.39884 9.22521 2.39873 9.22541C2.39867 9.22552 2.39854 9.22576 2.39842 9.22599C2.39817 9.22645 2.39784 9.22706 2.39743 9.22781C2.3966 9.22933 2.39546 9.23143 2.39401 9.23411C2.39111 9.23948 2.38696 9.24718 2.38163 9.25716C2.37095 9.27713 2.35552 9.30622 2.33577 9.34403C2.29628 9.41965 2.23951 9.53017 2.16905 9.67231C2.02814 9.95653 1.83226 10.3676 1.61003 10.8791C1.16604 11.901 0.614486 13.3296 0.186793 14.9532C-0.660685 18.1704 -1.05815 22.2916 1.01958 25.4945L1.85852 24.9503C0.021409 22.1183 0.323256 18.3608 1.1538 15.2079C1.56513 13.6465 2.09726 12.2672 2.52721 11.2775C2.74195 10.7833 2.9306 10.3875 3.06499 10.1165C3.13216 9.98098 3.18573 9.87672 3.22216 9.80697C3.24038 9.77209 3.2543 9.74585 3.26349 9.72866C3.26809 9.72006 3.27151 9.71372 3.27368 9.7097C3.27477 9.70768 3.27555 9.70625 3.27601 9.7054C3.27624 9.70498 3.27639 9.7047 3.27646 9.70457C3.2765 9.7045 3.27649 9.70451 3.27651 9.70448C3.27648 9.70453 3.27644 9.70461 2.83768 9.46483ZM19.4647 40.5554L20.2066 39.885L19.7928 39.427L19.198 39.5916L19.4647 40.5554ZM18.5341 40.8129L18.2675 39.8491L18.2272 39.8602L18.188 39.8747L18.5341 40.8129ZM17.4872 41.1991L17.1411 40.2609L17.1336 40.2637L17.126 40.2666L17.4872 41.1991ZM16.3241 41.6496L15.9629 40.7171L15.4895 40.9005L15.3581 41.3909L16.3241 41.6496ZM16.2342 41.8427L16.8309 42.6452L16.8418 42.6371L16.8525 42.6287L16.2342 41.8427ZM15.4682 42.4122V41.4122H15.2279L15.0138 41.5214L15.4682 42.4122ZM14.7537 42.9369L14.0564 42.2201L13.93 42.3432L13.8532 42.5021L14.7537 42.9369ZM14.3497 43.7737L15.1811 44.3294L15.2198 44.2713L15.2502 44.2085L14.3497 43.7737ZM13.7904 44.6104L13.1752 45.3988L14.0237 46.0609L14.6218 45.1661L13.7904 44.6104ZM6.47258 12.8175L7.46237 12.96L6.47258 12.8175ZM10.1551 0.412621L9.38267 1.04776L10.1551 0.412621ZM6.19294 2.08894L7.05931 2.58835L6.19294 2.08894ZM2.83768 9.46483L1.88741 9.15341L1.883 9.16689L1.87896 9.18049L2.83768 9.46483ZM7.59125 43.6621L8.4275 43.1137L7.59125 43.6621ZM10.108 47.35L10.9321 46.7836L10.9243 46.7723L10.9162 46.7611L10.108 47.35ZM11.5533 49.4528L12.5512 49.5164L12.5732 49.1714L12.3774 48.8864L11.5533 49.4528ZM11.4968 50.3389L12.4886 50.4669L12.4927 50.4348L12.4948 50.4025L11.4968 50.3389ZM11.3223 51.6906L10.3306 51.5625L10.3223 51.6263V51.6906H11.3223ZM11.3223 52.5273L12.322 52.5539L12.3223 52.5406V52.5273H11.3223ZM11.2642 54.7157L10.2645 54.6891L10.2636 54.7239L10.2651 54.7587L11.2642 54.7157ZM11.3223 56.0674L12.3219 56.0351L12.3214 56.0244L11.3223 56.0674ZM11.3805 57.8696L10.381 57.9018L10.3829 57.9605L10.3917 58.0185L11.3805 57.8696ZM11.555 59.0281L12.5509 58.9382L12.5483 58.9086L12.5438 58.8792L11.555 59.0281ZM11.6713 60.3154L10.6753 60.4054L10.6763 60.4153L11.6713 60.3154ZM11.7876 61.474L10.7926 61.5739L10.7966 61.6131L10.8036 61.6518L11.7876 61.474ZM12.0203 62.7613L11.6742 63.6995L13.3154 64.305L13.0043 62.5835L12.0203 62.7613ZM11.3223 62.5038L11.6685 61.5656L11.6491 61.5585L11.6295 61.5522L11.3223 62.5038ZM9.92652 62.0533L10.2337 61.1016L10.0839 61.0533H9.92652V62.0533ZM8.99598 62.0533V61.0533H8.96346L8.93101 61.0554L8.99598 62.0533ZM8.00727 62.1177L7.9423 61.1198L7.70212 61.1354L7.49535 61.2586L8.00727 62.1177ZM7.2512 62.5682L6.73929 61.7092L6.61007 61.7862L6.50923 61.8978L7.2512 62.5682ZM6.61145 63.2762L5.86948 62.6058L5.83294 62.6462L5.80102 62.6904L6.61145 63.2762ZM6.14617 63.9199L5.33574 63.334L5.24308 63.4622L5.1945 63.6128L6.14617 63.9199ZM5.85538 64.821L4.9037 64.5139L4.87101 64.6152L4.86038 64.7211L5.85538 64.821ZM5.73906 65.9795L4.74406 65.8796L4.74073 65.9128L4.73962 65.9461L5.73906 65.9795ZM5.6809 67.7174L4.68146 67.6839L4.67889 67.7607L4.68808 67.837L5.6809 67.7174ZM5.79722 68.6829L4.8044 68.8025L4.8267 68.9876L4.9142 69.1522L5.79722 68.6829ZM6.37881 69.7771L5.49579 70.2464L5.56983 70.3857L5.68316 70.4954L6.37881 69.7771ZM6.84408 70.2276L6.14843 70.946L6.2582 71.0523L6.3947 71.121L6.84408 70.2276ZM7.48384 70.5494L7.03445 71.4428L7.10959 71.4806L7.18999 71.5053L7.48384 70.5494ZM8.5307 70.8713L8.23685 71.8271L8.3392 71.8586L8.44588 71.8677L8.5307 70.8713ZM10.0428 71L9.95802 71.9964L10.0311 72.0026L10.1042 71.9981L10.0428 71ZM11.0897 70.9356L11.1511 71.9337L11.1628 71.933L11.1745 71.932L11.0897 70.9356ZM12.6019 70.8069L12.6867 71.8033L12.7605 71.797L12.8326 71.7799L12.6019 70.8069ZM14.2303 70.4207L14.4611 71.3937L14.4748 71.3905L14.4884 71.3868L14.2303 70.4207ZM15.9169 69.9702L16.4676 69.1355L16.0928 68.8881L15.6589 69.004L15.9169 69.9702ZM16.3072 70.2276L15.7565 71.0623L16.007 71.2276H16.3072V70.2276ZM17.4257 70.2276V71.2276H17.5393L17.65 71.2021L17.4257 70.2276ZM18.8239 69.9058L18.7343 68.9098L18.6662 68.9159L18.5996 68.9313L18.8239 69.9058ZM20.9704 69.7127L21.06 70.7087L21.0666 70.7081L20.9704 69.7127ZM22.4592 69.5689L22.4122 68.57L22.3876 68.5711L22.3631 68.5735L22.4592 69.5689ZM24.8735 69.4552L24.9205 70.4541L24.9231 70.454L24.8735 69.4552ZM30.0497 69.1978L30.1078 68.1995L30.0539 68.1963L30 68.199L30.0497 69.1978ZM31.1547 69.2622L31.0965 70.2605L31.1469 70.2634L31.1972 70.2612L31.1547 69.2622ZM32.6668 69.1978L32.7111 68.1988L32.6677 68.1968L32.6243 68.1987L32.6668 69.1978ZM34.1208 69.2622L34.2198 68.2671L34.1925 68.2643L34.165 68.2631L34.1208 69.2622ZM39.297 69.7771L39.4624 68.7908L39.4293 68.7853L39.396 68.782L39.297 69.7771ZM41.2162 70.0989L41.0509 71.0852L41.0601 71.0866L41.2162 70.0989ZM42.4376 70.292L42.6054 69.3061L42.5938 69.3043L42.4376 70.292ZM43.1937 70.4207L43.0258 71.4065L43.2264 71.4407L43.4244 71.3937L43.1937 70.4207ZM44.0079 70.2276L44.2386 71.2006L44.4219 71.1572L44.5768 71.0501L44.0079 70.2276ZM44.4732 69.9058L44.7252 68.9381L44.2814 68.8225L43.9043 69.0834L44.4732 69.9058ZM46.4506 70.4207L46.1986 71.3884L46.2336 71.3976L46.2692 71.4041L46.4506 70.4207ZM47.8464 70.6782L47.665 71.6616L47.6967 71.6674L47.7287 71.6712L47.8464 70.6782ZM49.4749 70.8713L49.3571 71.8643L49.3928 71.8686L49.4288 71.8702L49.4749 70.8713ZM50.8707 70.9356L50.8246 71.9346L50.8476 71.9356H50.8707V70.9356ZM52.092 70.9356V71.9356H52.2537L52.4071 71.8847L52.092 70.9356ZM53.2552 70.5494L53.5703 71.4985L53.6736 71.4642L53.7671 71.4085L53.2552 70.5494ZM54.0113 70.0989L54.5232 70.9579L54.692 70.8574L54.8101 70.7004L54.0113 70.0989ZM54.5929 69.3265L55.3917 69.928L55.486 69.8028L55.5375 69.6548L54.5929 69.3265ZM54.8837 68.4898L55.8283 68.818L55.8636 68.7163L55.8765 68.6094L54.8837 68.4898ZM55 67.5243L55.9928 67.6439L56.0033 67.557L55.9985 67.4696L55 67.5243ZM54.8837 65.4003L55.8822 65.3456L55.8766 65.2439L55.8507 65.1454L54.8837 65.4003ZM54.4766 63.8555L55.4435 63.6007L55.4001 63.4357L55.3044 63.2945L54.4766 63.8555ZM53.7787 62.8257L54.6065 62.2647L54.5103 62.1228L54.3723 62.021L53.7787 62.8257ZM53.0807 62.3107L53.6744 61.5061L53.5407 61.4074L53.3822 61.3573L53.0807 62.3107ZM52.2665 62.0533L52.568 61.0998L52.4208 61.0533H52.2665V62.0533ZM51.4523 62.0533V61.0533H51.4216L51.3909 61.0552L51.4523 62.0533ZM50.4054 62.1177L50.344 61.1195L50.1722 61.1301L50.0138 61.1975L50.4054 62.1177ZM49.6493 62.4395L49.9589 63.3904L50.0006 63.3768L50.041 63.3596L49.6493 62.4395ZM48.6606 62.7613L47.6718 62.6124L47.4307 64.2133L48.9701 63.7122L48.6606 62.7613ZM48.8351 61.6027L49.824 61.7517L49.8251 61.7439L49.8262 61.7361L48.8351 61.6027ZM49.2422 58.5776L50.2333 58.711L50.2393 58.6665L50.2413 58.6216L49.2422 58.5776ZM49.3585 55.9386L50.3576 55.9827L50.358 55.9719L50.3583 55.9612L49.3585 55.9386ZM49.4167 53.364L50.4165 53.3866L50.4174 53.3442L50.4148 53.3018L49.4167 53.364ZM49.3004 51.4975L50.2985 51.4353L50.2951 51.3808L50.2857 51.327L49.3004 51.4975ZM48.777 48.4723L49.7623 48.3018L49.7473 48.2151L49.7174 48.1324L48.777 48.4723ZM47.9627 46.2195L48.9032 45.8796L48.8931 45.8516L48.8813 45.8243L47.9627 46.2195ZM47.3811 44.8679L48.2997 44.4726L48.2552 44.3693L48.1889 44.2784L47.3811 44.8679ZM46.1598 43.1944L46.9675 42.6049L46.906 42.5206L46.8284 42.4508L46.1598 43.1944ZM45.2292 42.3576L45.8979 41.614L45.8337 41.5563L45.7605 41.5104L45.2292 42.3576ZM43.4845 41.2634L44.0158 40.4162L43.8807 40.3316L43.7261 40.2931L43.4845 41.2634ZM41.1581 40.6841L41.3997 39.7138L40.8765 39.5835L40.4801 39.949L41.1581 40.6841ZM40.8091 41.006L41.2812 41.8875L41.3935 41.8274L41.4871 41.7411L40.8091 41.006ZM39.0062 41.9714L39.1623 42.9592L39.3293 42.9328L39.4783 42.853L39.0062 41.9714ZM36.1564 42.422L36.0002 41.4343L35.2482 41.5532L35.1627 42.3097L36.1564 42.422ZM36.0982 42.9369L37.0905 43.062L37.0919 43.0492L36.0982 42.9369ZM35.7493 45.7046L36.7096 45.9835L36.7316 45.9079L36.7414 45.8297L35.7493 45.7046ZM35.2258 47.5068L36.1433 47.9048L36.1685 47.8466L36.1862 47.7858L35.2258 47.5068ZM34.5279 49.116L35.3461 49.691L35.4047 49.6075L35.4453 49.5139L34.5279 49.116ZM33.7137 50.2745L34.4557 50.945L34.4967 50.8996L34.5319 50.8495L33.7137 50.2745ZM33.0739 50.9825L33.6821 51.7763L33.7547 51.7208L33.8159 51.653L33.0739 50.9825ZM32.3179 51.5618L32.5746 52.5283L32.7676 52.4771L32.9261 52.3556L32.3179 51.5618ZM30.8639 51.948V52.948H30.9944L31.1206 52.9145L30.8639 51.948ZM29.9915 51.948L29.8194 52.9331L29.9048 52.948H29.9915V51.948ZM28.8865 51.7549L28.352 52.6001L28.5193 52.7059L28.7143 52.74L28.8865 51.7549ZM28.0722 51.24L27.363 51.945L27.4425 52.0249L27.5378 52.0852L28.0722 51.24ZM26.7927 49.9527L25.9042 50.4115L25.9749 50.5484L26.0835 50.6577L26.7927 49.9527ZM26.0948 48.601L25.1439 48.9104L25.169 48.9876L25.2063 49.0598L26.0948 48.601ZM25.5714 46.9919L24.5899 47.1837L24.6016 47.2434L24.6204 47.3013L25.5714 46.9919ZM25.1061 44.6104L24.1093 44.6899L24.1138 44.7465L24.1247 44.8022L25.1061 44.6104ZM24.9316 42.422L25.9285 42.3425L25.8611 41.4975L25.0165 41.4256L24.9316 42.422ZM23.4195 42.2933L23.2091 43.2709L23.2713 43.2843L23.3347 43.2897L23.4195 42.2933ZM21.3258 41.8427L20.8416 42.7177L20.9709 42.7892L21.1154 42.8203L21.3258 41.8427ZM19.9299 41.0703L19.188 41.7408L19.2998 41.8645L19.4458 41.9453L19.9299 41.0703ZM8.5307 45.1723L9.34426 44.5908L8.5307 45.1723ZM1.43905 25.2224L0.4447 25.3285L1.43905 25.2224ZM19.198 39.5916L18.2675 39.8491L18.8008 41.7767L19.7313 41.5192L19.198 39.5916ZM18.188 39.8747L17.1411 40.2609L17.8333 42.1373L18.8802 41.7511L18.188 39.8747ZM17.126 40.2666L15.9629 40.7171L16.6852 42.5821L17.8484 42.1315L17.126 40.2666ZM16.3241 41.6496C15.3581 41.3909 15.3581 41.3908 15.3582 41.3907C15.3582 41.3906 15.3582 41.3905 15.3582 41.3904C15.3583 41.3903 15.3583 41.3902 15.3583 41.39C15.3584 41.3898 15.3585 41.3895 15.3585 41.3892C15.3587 41.3887 15.3588 41.3882 15.3589 41.3878C15.3592 41.3868 15.3594 41.386 15.3596 41.3853C15.36 41.3839 15.3603 41.3829 15.3605 41.3822C15.3609 41.3808 15.361 41.3805 15.3609 41.3808C15.3604 41.3825 15.3604 41.3823 15.3616 41.3789C15.3624 41.3769 15.3644 41.3717 15.3678 41.3638C15.3711 41.3564 15.3776 41.3421 15.3877 41.3232C15.3972 41.3056 15.4157 41.273 15.4446 41.2335C15.4707 41.1978 15.526 41.1275 15.6159 41.0568L16.8525 42.6287C17.0332 42.4865 17.1243 42.3168 17.1495 42.2698C17.1891 42.1962 17.2165 42.1283 17.2329 42.0849C17.2505 42.038 17.264 41.9966 17.2727 41.9681C17.2773 41.9533 17.281 41.9405 17.2839 41.9305C17.2853 41.9255 17.2865 41.9211 17.2875 41.9174C17.288 41.9155 17.2885 41.9139 17.2889 41.9123C17.2891 41.9116 17.2893 41.9109 17.2895 41.9102C17.2896 41.9099 17.2897 41.9096 17.2898 41.9092C17.2898 41.9091 17.2898 41.9089 17.2899 41.9088C17.2899 41.9087 17.2899 41.9086 17.2899 41.9086C17.29 41.9085 17.29 41.9084 16.3241 41.6496ZM15.6376 41.0402C15.2546 41.3249 15.0631 41.4673 14.9673 41.5385C14.9195 41.5741 14.8955 41.5919 14.8836 41.6008C14.8776 41.6052 14.8746 41.6075 14.8731 41.6086C14.8724 41.6091 14.872 41.6094 14.8718 41.6095C14.8717 41.6096 14.8717 41.6096 14.8717 41.6096C14.8717 41.6096 14.8717 41.6096 14.8717 41.6096C14.8717 41.6096 14.8718 41.6095 14.8719 41.6095C14.8719 41.6095 14.872 41.6094 14.8721 41.6093C14.8723 41.6092 14.8725 41.609 14.8727 41.6089C15.1546 41.4626 15.4682 41.4122 15.4682 42.4122C15.4682 43.4122 15.7818 43.3618 16.0638 43.2155C16.0639 43.2154 16.0642 43.2152 16.0643 43.2151C16.0645 43.215 16.0646 43.2149 16.0646 43.2149C16.0647 43.2149 16.0647 43.2148 16.0647 43.2148C16.0648 43.2148 16.0648 43.2148 16.0648 43.2147C16.0649 43.2147 16.0649 43.2147 16.065 43.2146C16.0652 43.2144 16.0656 43.2142 16.0664 43.2136C16.0679 43.2125 16.0709 43.2103 16.0768 43.2058C16.0888 43.1969 16.1127 43.1791 16.1606 43.1435C16.2564 43.0723 16.4479 42.93 16.8309 42.6452L15.6376 41.0402ZM15.0138 41.5214C14.7399 41.6611 14.4992 41.8415 14.3424 41.9688C14.2602 42.0356 14.192 42.0953 14.1433 42.1392C14.1189 42.1613 14.099 42.1797 14.0844 42.1935C14.077 42.2004 14.071 42.2061 14.0663 42.2106C14.064 42.2128 14.062 42.2148 14.0603 42.2164C14.0595 42.2172 14.0588 42.2179 14.0581 42.2185C14.0578 42.2188 14.0575 42.2191 14.0572 42.2194C14.0571 42.2195 14.0569 42.2196 14.0568 42.2198C14.0568 42.2198 14.0567 42.2199 14.0566 42.22C14.0565 42.22 14.0564 42.2201 14.7537 42.9369C15.451 43.6537 15.451 43.6538 15.4509 43.6539C15.4508 43.6539 15.4508 43.654 15.4507 43.654C15.4506 43.6541 15.4505 43.6542 15.4504 43.6543C15.4502 43.6545 15.45 43.6547 15.4499 43.6548C15.4496 43.6551 15.4493 43.6554 15.4492 43.6555C15.4488 43.6558 15.4488 43.6558 15.4491 43.6556C15.4497 43.655 15.4515 43.6533 15.4543 43.6506C15.4601 43.6452 15.4701 43.6359 15.4839 43.6235C15.5116 43.5984 15.553 43.5621 15.6034 43.5212C15.7118 43.4331 15.8283 43.3511 15.9227 43.303L15.0138 41.5214ZM13.8532 42.5021L13.4492 43.3388L15.2502 44.2085L15.6542 43.3718L13.8532 42.5021ZM13.5183 43.218L12.959 44.0547L14.6218 45.1661L15.1811 44.3294L13.5183 43.218ZM7.46237 12.96C7.61265 11.9165 8.09967 10.9813 8.76571 10.0444C9.09888 9.57579 9.46545 9.12202 9.84729 8.65603C10.2221 8.19865 10.619 7.72082 10.976 7.24115C11.6827 6.2917 12.3476 5.19107 12.463 3.89749C12.5826 2.5566 12.0999 1.20324 10.9275 -0.222514L9.38267 1.04776C10.3254 2.19424 10.5311 3.04423 10.4709 3.7198C10.4064 4.4427 10.0231 5.17167 9.37162 6.047C9.04955 6.47971 8.68984 6.91305 8.30033 7.3884C7.91787 7.85513 7.51243 8.35563 7.13567 8.88556C6.38186 9.94585 5.69737 11.185 5.48279 12.675L7.46237 12.96ZM10.9275 -0.222514C10.4506 -0.802431 9.80243 -1.01716 9.17787 -0.998912C8.59436 -0.981859 8.03359 -0.76691 7.56711 -0.511995C6.6453 -0.0082597 5.76035 0.837027 5.32658 1.58953L7.05931 2.58835C7.28555 2.19588 7.88184 1.59516 8.52618 1.24305C8.84277 1.07005 9.0863 1.00462 9.23629 1.00023C9.34521 0.997051 9.3597 1.01982 9.38267 1.04776L10.9275 -0.222514ZM5.32658 1.58953C4.21151 3.52392 3.35404 5.40982 2.77584 6.80931C2.48628 7.51018 2.26562 8.09183 2.11674 8.50011C2.04228 8.70432 1.9857 8.86534 1.94737 8.97643C1.9282 9.03199 1.91359 9.07507 1.90359 9.10484C1.89858 9.11973 1.89473 9.13129 1.89203 9.13942C1.89068 9.14348 1.88962 9.14669 1.88885 9.14903C1.88847 9.15019 1.88816 9.15114 1.88792 9.15188C1.8878 9.15224 1.88769 9.15255 1.88761 9.15281C1.88757 9.15294 1.88752 9.15309 1.8875 9.15315C1.88745 9.15329 1.88741 9.15341 2.83768 9.46483C3.78795 9.77626 3.78792 9.77635 3.7879 9.77643C3.78789 9.77644 3.78787 9.77651 3.78787 9.77653C3.78785 9.77657 3.78786 9.77655 3.78788 9.77647C3.78793 9.77633 3.78805 9.77597 3.78824 9.77539C3.78862 9.77423 3.78929 9.77221 3.79024 9.76934C3.79215 9.7636 3.79519 9.75446 3.79937 9.74202C3.80773 9.71715 3.82062 9.67911 3.83801 9.62874C3.87277 9.52798 3.92546 9.37793 3.99571 9.18529C4.13626 8.79987 4.34679 8.24468 4.6243 7.573C5.18023 6.22739 6.00039 4.42534 7.05931 2.58835L5.32658 1.58953ZM9.28389 47.9164L10.7292 50.0193L12.3774 48.8864L10.9321 46.7836L9.28389 47.9164ZM10.5553 49.3893L10.4988 50.2753L12.4948 50.4025L12.5512 49.5164L10.5553 49.3893ZM10.5051 50.2109L10.3306 51.5625L12.3141 51.8186L12.4886 50.4669L10.5051 50.2109ZM10.3223 51.6906V52.5273H12.3223V51.6906H10.3223ZM10.3227 52.5007L10.2645 54.6891L12.2638 54.7423L12.322 52.5539L10.3227 52.5007ZM10.2651 54.7587L10.3233 56.1104L12.3214 56.0244L12.2633 54.6727L10.2651 54.7587ZM10.3229 56.0996L10.381 57.9018L12.38 57.8373L12.3218 56.0351L10.3229 56.0996ZM10.3917 58.0185L10.5661 59.1771L12.5438 58.8792L12.3694 57.7207L10.3917 58.0185ZM10.559 59.1181L10.6754 60.4054L12.6672 60.2255L12.5509 58.9382L10.559 59.1181ZM10.6763 60.4153L10.7926 61.5739L12.7826 61.3741L12.6663 60.2155L10.6763 60.4153ZM10.8036 61.6518L11.0362 62.9391L13.0043 62.5835L12.7717 61.2962L10.8036 61.6518ZM12.3664 61.8231L11.6685 61.5656L10.9762 63.442L11.6742 63.6995L12.3664 61.8231ZM11.6295 61.5522L10.2337 61.1016L9.61934 63.0049L11.0152 63.4555L11.6295 61.5522ZM9.92652 61.0533H8.99598V63.0533H9.92652V61.0533ZM8.93101 61.0554L7.9423 61.1198L8.07223 63.1155L9.06094 63.0512L8.93101 61.0554ZM7.49535 61.2586L6.73929 61.7092L7.76311 63.4272L8.51918 62.9767L7.49535 61.2586ZM6.50923 61.8978L5.86948 62.6058L7.35342 63.9467L7.99317 63.2386L6.50923 61.8978ZM5.80102 62.6904L5.33574 63.334L6.9566 64.5057L7.42188 63.8621L5.80102 62.6904ZM5.1945 63.6128L4.9037 64.5139L6.80705 65.1281L7.09785 64.227L5.1945 63.6128ZM4.86038 64.7211L4.74406 65.8796L6.73405 66.0794L6.85037 64.9209L4.86038 64.7211ZM4.73962 65.9461L4.68146 67.6839L6.68034 67.7508L6.7385 66.013L4.73962 65.9461ZM4.68808 67.837L4.8044 68.8025L6.79004 68.5632L6.67372 67.5978L4.68808 67.837ZM4.9142 69.1522L5.49579 70.2464L7.26183 69.3077L6.68023 68.2135L4.9142 69.1522ZM5.68316 70.4954L6.14843 70.946L7.53974 69.5092L7.07446 69.0587L5.68316 70.4954ZM6.3947 71.121L7.03445 71.4428L7.93322 69.6561L7.29347 69.3343L6.3947 71.121ZM7.18999 71.5053L8.23685 71.8271L8.82455 69.9154L7.77768 69.5936L7.18999 71.5053ZM8.44588 71.8677L9.95802 71.9964L10.1277 70.0036L8.61553 69.8749L8.44588 71.8677ZM10.1042 71.9981L11.1511 71.9337L11.0283 69.9375L9.98147 70.0019L10.1042 71.9981ZM11.1745 71.932L12.6867 71.8033L12.517 69.8105L11.0049 69.9392L11.1745 71.932ZM12.8326 71.7799L14.4611 71.3937L13.9996 69.4477L12.3711 69.8339L12.8326 71.7799ZM14.4884 71.3868L16.175 70.9363L15.6589 69.004L13.9722 69.4546L14.4884 71.3868ZM15.3662 70.8049L15.7565 71.0623L16.8579 69.3929L16.4676 69.1355L15.3662 70.8049ZM16.3072 71.2276H16.673V69.2276H16.3072V71.2276ZM16.673 71.2276H17.4257V69.2276H16.673V71.2276ZM17.65 71.2021L19.0482 70.8803L18.5996 68.9313L17.2014 69.2531L17.65 71.2021ZM18.9135 70.9018L21.06 70.7087L20.8808 68.7167L18.7343 68.9098L18.9135 70.9018ZM21.0666 70.7081L22.5554 70.5642L22.3631 68.5735L20.8743 68.7173L21.0666 70.7081ZM22.5062 70.5677L24.9205 70.4541L24.8265 68.4563L22.4122 68.57L22.5062 70.5677ZM24.9231 70.454L30.0993 70.1965L30 68.199L24.8238 68.4565L24.9231 70.454ZM29.9915 70.1961L31.0965 70.2605L31.2128 68.2638L30.1078 68.1995L29.9915 70.1961ZM31.1972 70.2612L32.7094 70.1969L32.6243 68.1987L31.1122 68.2631L31.1972 70.2612ZM32.6226 70.1968L34.0766 70.2612L34.165 68.2631L32.7111 68.1988L32.6226 70.1968ZM34.0218 70.2572L39.198 70.7722L39.396 68.782L34.2198 68.2671L34.0218 70.2572ZM39.1316 70.7633L41.0509 71.0851L41.3816 69.1127L39.4624 68.7908L39.1316 70.7633ZM41.0601 71.0866L42.2814 71.2797L42.5938 69.3043L41.3724 69.1112L41.0601 71.0866ZM42.2697 71.2778L43.0258 71.4065L43.3615 69.4349L42.6054 69.3062L42.2697 71.2778ZM43.4244 71.3937L44.2386 71.2006L43.7771 69.2546L42.9629 69.4477L43.4244 71.3937ZM44.5768 71.0501L45.042 70.7282L43.9043 69.0834L43.439 69.4052L44.5768 71.0501ZM44.2212 70.8735L46.1986 71.3884L46.7026 69.453L44.7252 68.9381L44.2212 70.8735ZM46.2692 71.4041L47.665 71.6616L48.0278 69.6948L46.632 69.4373L46.2692 71.4041ZM47.7287 71.6712L49.3571 71.8643L49.5926 69.8782L47.9642 69.6851L47.7287 71.6712ZM49.4288 71.8702L50.8246 71.9346L50.9168 69.9367L49.5209 69.8723L49.4288 71.8702ZM50.8707 71.9356H52.092V69.9356H50.8707V71.9356ZM52.4071 71.8847L53.5703 71.4985L52.9401 69.6004L51.7769 69.9866L52.4071 71.8847ZM53.7671 71.4085L54.5232 70.9579L53.4994 69.2399L52.7433 69.6904L53.7671 71.4085ZM54.8101 70.7004L55.3917 69.928L53.794 68.725L53.2124 69.4974L54.8101 70.7004ZM55.5375 69.6548L55.8283 68.818L53.9391 68.1615L53.6483 68.9982L55.5375 69.6548ZM55.8765 68.6094L55.9928 67.6439L54.0072 67.4047L53.8909 68.3702L55.8765 68.6094ZM55.9985 67.4696L55.8822 65.3456L53.8852 65.4549L54.0015 67.579L55.9985 67.4696ZM55.8507 65.1454L55.4435 63.6007L53.5096 64.1103L53.9167 65.6551L55.8507 65.1454ZM55.3044 63.2945L54.6065 62.2647L52.9508 63.3867L53.6488 64.4165L55.3044 63.2945ZM54.3723 62.021L53.6744 61.5061L52.487 63.1154L53.185 63.6304L54.3723 62.021ZM53.3822 61.3573L52.568 61.0998L51.965 63.0068L52.7793 63.2642L53.3822 61.3573ZM52.2665 61.0533H51.4523V63.0533H52.2665V61.0533ZM51.3909 61.0552L50.344 61.1195L50.4668 63.1158L51.5136 63.0514L51.3909 61.0552ZM50.0138 61.1975L49.2577 61.5194L50.041 63.3596L50.7971 63.0378L50.0138 61.1975ZM49.3398 61.4886L48.3511 61.8104L48.9701 63.7122L49.9589 63.3904L49.3398 61.4886ZM49.6495 62.9102L49.824 61.7517L47.8463 61.4538L47.6718 62.6124L49.6495 62.9102ZM49.8262 61.7361L50.2333 58.711L48.2512 58.4442L47.844 61.4694L49.8262 61.7361ZM50.2413 58.6216L50.3576 55.9827L48.3595 55.8946L48.2432 58.5336L50.2413 58.6216ZM50.3583 55.9612L50.4165 53.3866L48.417 53.3415L48.3588 55.916L50.3583 55.9612ZM50.4148 53.3018L50.2985 51.4353L48.3023 51.5597L48.4186 53.4262L50.4148 53.3018ZM50.2857 51.327L49.7623 48.3018L47.7916 48.6428L48.315 51.668L50.2857 51.327ZM49.7174 48.1324L48.9032 45.8796L47.0223 46.5595L47.8365 48.8122L49.7174 48.1324ZM48.8813 45.8243L48.2997 44.4726L46.4626 45.2631L47.0441 46.6148L48.8813 45.8243ZM48.1889 44.2784L46.9675 42.6049L45.352 43.7839L46.5734 45.4574L48.1889 44.2784ZM46.8284 42.4508L45.8979 41.614L44.5606 43.1012L45.4912 43.938L46.8284 42.4508ZM45.7605 41.5104L44.0158 40.4162L42.9532 42.1106L44.6979 43.2048L45.7605 41.5104ZM43.7261 40.2931L41.3997 39.7138L40.9165 41.6545L43.2428 42.2338L43.7261 40.2931ZM40.4801 39.949L40.1312 40.2708L41.4871 41.7411L41.836 41.4193L40.4801 39.949ZM40.337 40.1244L38.5341 41.0899L39.4783 42.853L41.2812 41.8875L40.337 40.1244ZM38.85 40.9837L36.0002 41.4343L36.3125 43.4097L39.1623 42.9592L38.85 40.9837ZM35.1627 42.3097L35.1045 42.8247L37.0919 43.0492L37.1501 42.5342L35.1627 42.3097ZM35.1061 42.8118L34.7571 45.5795L36.7414 45.8297L37.0904 43.062L35.1061 42.8118ZM34.789 45.4257L34.2655 47.2279L36.1862 47.7858L36.7096 45.9835L34.789 45.4257ZM34.3084 47.1089L33.6105 48.718L35.4453 49.5139L36.1433 47.9048L34.3084 47.1089ZM33.7098 48.541L32.8955 49.6995L34.5319 50.8495L35.3461 49.691L33.7098 48.541ZM32.9717 49.6041L32.332 50.3121L33.8159 51.653L34.4557 50.945L32.9717 49.6041ZM32.4658 50.1888L31.7097 50.768L32.9261 52.3556L33.6821 51.7763L32.4658 50.1888ZM32.0612 50.5953L30.6072 50.9815L31.1206 52.9145L32.5746 52.5283L32.0612 50.5953ZM30.8639 50.948H29.9915V52.948H30.8639V50.948ZM30.1636 50.9629L29.0586 50.7698L28.7143 52.74L29.8194 52.9331L30.1636 50.9629ZM29.421 50.9097L28.6067 50.3948L27.5378 52.0852L28.352 52.6001L29.421 50.9097ZM28.7815 50.535L27.502 49.2477L26.0835 50.6577L27.363 51.945L28.7815 50.535ZM27.6813 49.4939L26.9834 48.1423L25.2063 49.0598L25.9042 50.4115L27.6813 49.4939ZM27.0458 48.2917L26.5223 46.6826L24.6204 47.3013L25.1439 48.9104L27.0458 48.2917ZM26.5528 46.8002L26.0876 44.4187L24.1247 44.8022L24.5899 47.1837L26.5528 46.8002ZM26.1029 44.5309L25.9285 42.3425L23.9348 42.5015L24.1093 44.6899L26.1029 44.5309ZM25.0165 41.4256L23.5043 41.2969L23.3347 43.2897L24.8468 43.4184L25.0165 41.4256ZM23.6299 41.3156L21.5361 40.8651L21.1154 42.8203L23.2091 43.2709L23.6299 41.3156ZM21.8099 40.9677L20.4141 40.1954L19.4458 41.9453L20.8416 42.7177L21.8099 40.9677ZM20.6719 40.3999L20.2066 39.885L18.7227 41.2258L19.188 41.7408L20.6719 40.3999ZM6.75499 44.2104C6.75435 44.2094 6.9716 44.5594 7.21066 44.9444C7.32587 45.13 7.44138 45.3159 7.52933 45.4572C7.59756 45.5668 7.68775 45.7126 7.71715 45.7538L9.34426 44.5908C9.36558 44.6206 9.37621 44.639 9.33343 44.5706C9.30748 44.5291 9.27104 44.4706 9.22731 44.4004C9.13996 44.26 9.02493 44.0749 8.90974 43.8894C8.68797 43.5322 8.44491 43.1403 8.4275 43.1137L6.75499 44.2104ZM7.71715 45.7538C7.96226 46.0967 8.35867 46.644 8.69213 47.1033C8.85922 47.3334 9.0111 47.5423 9.1212 47.6936C9.17626 47.7693 9.22088 47.8305 9.25175 47.8729C9.26718 47.8941 9.27918 47.9106 9.28732 47.9218C9.2914 47.9274 9.29451 47.9316 9.2966 47.9345C9.29765 47.936 9.29844 47.937 9.29897 47.9378C9.29924 47.9381 9.29944 47.9384 9.29958 47.9386C9.29965 47.9387 9.2997 47.9388 9.29973 47.9388C9.29975 47.9388 9.29976 47.9389 9.29977 47.9389C9.29978 47.9389 9.29979 47.9389 10.108 47.35C10.9162 46.7611 10.9162 46.7611 10.9162 46.7611C10.9162 46.7611 10.9162 46.7611 10.9162 46.7611C10.9162 46.761 10.9161 46.761 10.916 46.7609C10.9159 46.7607 10.9157 46.7604 10.9155 46.7601C10.9149 46.7594 10.9142 46.7583 10.9131 46.7569C10.911 46.754 10.908 46.7498 10.9039 46.7442C10.8958 46.7331 10.8839 46.7167 10.8685 46.6956C10.8378 46.6534 10.7933 46.5923 10.7384 46.5169C10.6286 46.3659 10.4771 46.1577 10.3105 45.9282C9.97667 45.4684 9.58443 44.9268 9.34426 44.5908L7.71715 45.7538ZM14.4056 43.8221C11.0061 41.1691 8.79702 36.6592 7.67897 31.1314C6.56438 25.6207 6.56087 19.2201 7.46237 12.96L5.48279 12.675C4.55652 19.1071 4.5489 25.7444 5.71866 31.5279C6.88496 37.2942 9.2487 42.3346 13.1752 45.3988L14.4056 43.8221ZM2.83768 9.46483C1.87896 9.18049 1.8789 9.1807 1.87883 9.18094C1.87879 9.18106 1.87871 9.18134 1.87864 9.18157C1.8785 9.18205 1.87832 9.18265 1.87811 9.18336C1.87769 9.18479 1.87713 9.18668 1.87645 9.18903C1.87507 9.19373 1.87315 9.20028 1.87073 9.20865C1.86588 9.22539 1.85898 9.2494 1.85019 9.28047C1.83262 9.34261 1.8075 9.433 1.77616 9.54989C1.71349 9.78363 1.62589 10.1235 1.524 10.5555C1.32029 11.4191 1.05897 12.6527 0.825451 14.1438C0.359447 17.1195 -0.000978693 21.1523 0.4447 25.3285L2.43341 25.1163C2.01253 21.1724 2.35142 17.3264 2.80137 14.4533C3.02583 13.02 3.27664 11.8368 3.47058 11.0146C3.5675 10.6037 3.65011 10.2835 3.70793 10.0678C3.73683 9.96003 3.75953 9.8784 3.77472 9.8247C3.78231 9.79785 3.78803 9.77799 3.79169 9.76533C3.79353 9.759 3.79485 9.75447 3.79564 9.75177C3.79604 9.75042 3.7963 9.74953 3.79643 9.74909C3.79649 9.74888 3.79652 9.74878 3.79652 9.74879C3.79652 9.7488 3.79649 9.74889 3.79649 9.7489C3.79645 9.74902 3.7964 9.74918 2.83768 9.46483ZM0.4447 25.3285C1.31814 33.5131 4.46304 40.7151 6.75499 44.2104L8.4275 43.1137C6.30297 39.8737 3.27188 32.9732 2.43341 25.1163L0.4447 25.3285Z" fill="#282828" mask="url(#path-1-inside-1_450_54)"/>
<path d="M40.0052 46.0909C40.0052 46.0909 39.8051 60.5576 36.693 64.9376C38.2558 63.5808 45.2675 61.3634 45.1192 66.5454C44.9708 71.7274 42.5936 69.5682 41.1954 69.5682C39.054 69.1472 30.7509 68.585 30.2903 68.9841V52.4592" stroke="#282828" stroke-linecap="round" stroke-linejoin="round"/>
<path d="M20.305 46.0909C20.305 46.0909 20.5051 60.5576 23.6172 64.9376C22.0544 63.5808 15.0428 61.3634 15.1911 66.5454C15.3394 71.7274 17.7166 69.5682 19.1148 69.5682C21.2562 69.1472 29.5593 68.585 30.0199 68.9841V52.4592" stroke="#282828" stroke-linecap="round" stroke-linejoin="round"/>
<path d="M12.9519 8.21464C16.3076 7.41 22.18 12.1261 24.6968 14.5847C22.5529 17.7139 17.7617 24.2404 15.7483 25.3133C13.2315 26.6543 8.75727 9.22044 12.9519 8.21464Z" fill="#E3954F" stroke="#282828"/>
<path d="M48.1864 8.21464C44.8307 7.41 38.9583 12.1261 36.4415 14.5847C38.5854 17.7139 43.3766 24.2404 45.39 25.3133C47.9068 26.6543 52.381 9.22044 48.1864 8.21464Z" fill="#E3954F" stroke="#282828"/>
<path d="M46.5676 32.6888C46.5676 43.4261 39.3236 51.9696 30.5688 51.9696C21.814 51.9696 14.57 43.4261 14.57 32.6888C14.57 21.9516 21.814 13.4081 30.5688 13.4081C39.3236 13.4081 46.5676 21.9516 46.5676 32.6888Z" fill="#E3964F" stroke="#282828"/>
<ellipse cx="24.4165" cy="28.6661" rx="2.51676" ry="3.0174" fill="#282828"/>
<ellipse cx="37.2803" cy="28.6661" rx="2.51676" ry="3.0174" fill="#282828"/>
<path d="M34.1485 45.0942C34.8196 44.9479 35.2111 43.6922 35.323 43.0826C34.6519 43.6678 33.9248 43.3265 33.6452 43.0826C33.8129 43.4484 34.1485 44.3628 34.1485 45.0942Z" fill="white"/>
<path d="M27.5488 45.0942C26.8777 44.9479 26.4862 43.6922 26.3743 43.0826C27.0454 43.6678 27.7725 43.3265 28.0521 43.0826C27.8844 43.4484 27.5488 44.3628 27.5488 45.0942Z" fill="white"/>
<path d="M30.8484 39.7297C31.788 42.167 34.6694 45.6605 38.6784 40.136" stroke="#282828"/>
<path d="M30.8484 39.7297C29.9088 42.167 27.0274 45.6605 23.0185 40.136" stroke="#282828"/>
<path d="M31.5349 39.7526C31.1496 40.1163 30.5474 40.1163 30.1621 39.7526L27.3505 37.0987C26.6924 36.4776 27.132 35.3715 28.0369 35.3715L33.6601 35.3715C34.565 35.3715 35.0045 36.4776 34.3465 37.0987L31.5349 39.7526Z" fill="#282828"/>
<path d="M12.9515 11.5675C14.7226 12.0145 18.8799 13.6462 21.3407 16.5965" stroke="#282828"/>
<path d="M48.1859 11.5675C46.4148 12.0145 42.2575 13.6462 39.7967 16.5965" stroke="#282828"/>
<path d="M18.5444 14.2496C17.4258 14.3614 15.0209 15.3225 14.3498 18.2728" stroke="#282828"/>
<path d="M42.593 14.2496C43.7116 14.3614 46.1165 15.3225 46.7876 18.2728" stroke="#282828"/>
<path d="M27.4926 39.0588C25.3966 37.306 20.6724 34.3262 18.5442 36.4296" stroke="#454545" stroke-width="0.5"/>
<path d="M26.1718 39.5543C24.2865 38.9143 20.2679 38.1975 19.2754 40.4509" stroke="#454545" stroke-width="0.5"/>
<path d="M27.5436 40.8964C25.7506 40.7033 21.9073 40.8001 20.8781 42.732" stroke="#454545" stroke-width="0.5"/>
<path d="M33.6953 39.0588C35.7914 37.306 40.5155 34.3262 42.6438 36.4296" stroke="#454545" stroke-width="0.5"/>
<path d="M35.0161 39.5543C36.9014 38.9143 40.9201 38.1975 41.9126 40.4509" stroke="#454545" stroke-width="0.5"/>
<path d="M33.6448 40.8964C35.4378 40.7033 39.2811 40.8001 40.3103 42.732" stroke="#454545" stroke-width="0.5"/>
<path d="M11.833 49.7874C12.4855 47.8875 13.9023 44.6913 14.3497 44.4231" stroke="#282828"/>
</svg>
