<svg width="51" height="54" viewBox="0 0 51 54" fill="none" xmlns="http://www.w3.org/2000/svg">
<path d="M12.2976 25.7891C14.2739 26.1752 20.4925 24.7577 23.3548 24.0007C23.8327 23.5551 20.38 19.3788 18.5938 17.3464C21.6202 13.0775 29.2248 7.17871 35.4324 17.7347C43.1919 30.9297 42.0298 32.5904 41.6796 40.9231C41.3994 47.5892 35.13 49.8656 32.0302 50.1705C24.2022 52.2863 19.2067 45.838 19.3188 45.4198C17.8565 46.1934 7.88267 42.2659 9.07926 39.8076C10.0365 37.8409 14.1121 38.676 16.0303 39.3393C16.3503 37.1938 17.298 35.0312 17.9158 33.9281C17.0122 33.9549 12.0091 29.2079 11.1831 29.6141C10.3571 30.0202 6.34524 31.276 5.46404 31.2192C4.75907 31.1737 5.08316 30.4102 5.33333 30.0342C4.92711 30.1906 4.54122 30.1887 4.31111 29.8345C3.67642 28.8577 5.47926 27.8168 5.50618 27.7163C3.77424 28.2392 4.30186 27.4818 4.40395 26.8115C4.52201 26.0363 9.82728 25.3064 12.2976 25.7891Z" fill="#A5A9A3"/>
<path d="M6.49494 27.3718C6.10323 27.5214 5.77707 27.6345 5.50618 27.7163M5.50618 27.7163C3.77424 28.2392 4.30186 27.4818 4.40395 26.8115C4.52201 26.0363 9.82728 25.3064 12.2976 25.7891C14.2739 26.1752 20.4925 24.7577 23.3548 24.0007C23.8327 23.5551 20.38 19.3788 18.5938 17.3464C21.6202 13.0775 29.2248 7.17871 35.4324 17.7347C43.1919 30.9297 42.0298 32.5904 41.6796 40.9231C41.3994 47.5892 35.13 49.8656 32.0302 50.1705C24.2022 52.2863 19.2067 45.838 19.3188 45.4198M5.50618 27.7163C5.47926 27.8168 3.67642 28.8577 4.31111 29.8345C4.54122 30.1887 4.92711 30.1906 5.33333 30.0342M6.6546 29.1178C6.34315 29.4265 5.82344 29.8455 5.33333 30.0342M5.33333 30.0342C5.08316 30.4102 4.75907 31.1737 5.46404 31.2192C6.34524 31.276 10.3571 30.0202 11.1831 29.6141C12.0091 29.2079 17.0122 33.9549 17.9158 33.9281M17.9158 33.9281C18.602 33.9077 22.5235 28.7579 26.5066 31.642M17.9158 33.9281C17.298 35.0312 16.3503 37.1938 16.0303 39.3393M30.2107 37.2225C29.0371 34.2764 27.7688 32.5559 26.5066 31.642M26.5066 31.642C28.3346 30.2845 32.0053 27.1792 32.0652 25.6175M16.1153 42.3204C15.8676 41.412 15.8754 40.3777 16.0303 39.3393M16.0303 39.3393C14.1121 38.676 10.0365 37.8409 9.07926 39.8076C7.88267 42.2659 17.8565 46.1934 19.3188 45.4198M19.3188 45.4198C20.7811 44.6463 21.7956 40.5256 21.6567 40.0402" stroke="#282828"/>
<path d="M14.7845 7.80975C12.5434 16.1736 16.3355 16.7415 18.5118 15.98C18.5384 18.5569 19.8667 23.8372 24.9663 24.3431C31.3409 24.9754 33.9237 20.0199 34.4167 18.1799C35.8506 17.8469 42.336 14.3854 40.0438 9.5579C37.7516 4.73044 31.0168 6.78053 30.7091 7.59453C28.6134 6.31583 25.0027 6.36433 23.4593 6.54842C21.512 2.4409 15.3896 5.5515 14.7845 7.80975Z" fill="#A5A9A3"/>
<path d="M19.5379 11.1455C17.6116 13.7848 16.2072 11.8666 15.7458 10.5776C17.126 8.43743 16.0251 10.2042 17.3769 8.50466C19.61 6.86191 21.0855 9.05013 21.2691 9.36828C19.9249 9.36667 19.4723 10.0522 19.299 10.3643C19.1257 10.6765 19.3542 10.8273 19.5379 11.1455Z" fill="#C97A7A" fill-opacity="0.65"/>
<path d="M34.78 12.8089C36.602 14.3728 36.8977 14.2728 37.9418 13.3872C38.753 11.3635 38.6246 11.5083 38.5049 10.6166C37.4508 8.86309 35.2582 9.35133 34.2393 9.4737C35.279 10.6119 35.261 11.6828 35.255 12.0398C35.249 12.3967 35.0981 12.6252 34.78 12.8089Z" fill="#C97A7A" fill-opacity="0.65"/>
<path d="M23.4593 6.54842C21.512 2.4409 15.3896 5.5515 14.7845 7.80975C12.5434 16.1736 16.3355 16.7415 18.5118 15.98C18.5384 18.5569 19.8667 23.8372 24.9663 24.3431C31.3409 24.9754 33.9237 20.0199 34.4167 18.1799C35.8506 17.8469 42.336 14.3854 40.0438 9.5579C37.7516 4.73044 31.0168 6.78053 30.7091 7.59453M23.4593 6.54842C25.4066 10.6559 19.5038 11.9429 19.2934 10.7211C19.125 9.74369 20.5406 9.41184 21.2695 9.36809C20.4178 7.97451 18.1117 6.29881 15.7013 10.7447M23.4593 6.54842C25.0027 6.36433 28.6134 6.31583 30.7091 7.59453M30.7091 7.59453C30.4013 8.40852 32.4815 13.3584 34.4844 12.909C36.0867 12.5495 34.9949 10.4462 34.2487 9.43942C36.249 9.07895 39.8316 9.26797 38.1601 12.9078" stroke="#282828"/>
<path d="M23.7043 20.6884C23.4162 22.8344 24.4564 23.0115 25.0125 22.8318C26.4177 23.2083 26.8666 22.492 26.9154 22.0867C26.9961 21.4509 27.1811 20.0244 27.2756 19.4043C27.3937 18.6291 26.759 17.6522 25.6493 17.4445C24.7615 17.2784 24.0734 18.3072 23.8404 18.8424C23.7861 19.1565 23.6829 19.9655 23.7043 20.6884Z" fill="#282828"/>
<circle cx="22.2976" cy="16.9054" r="0.606124" transform="rotate(15 22.2976 16.9054)" fill="#392821"/>
<circle cx="29.7926" cy="18.3753" r="0.606124" transform="rotate(15 29.7926 18.3753)" fill="#392821"/>
</svg>
