<svg width="98" height="128" viewBox="0 0 98 128" fill="none" xmlns="http://www.w3.org/2000/svg">
<g filter="url(#filter0_d_450_79)">
<rect x="5.00001" y="1" width="88" height="118" rx="11" fill="#5B934D" stroke="#F7F7F7" stroke-width="2"/>
<g style="mix-blend-mode:multiply">
<rect x="5" y="1" width="88" height="118" rx="11" fill="#800080" fill-opacity="0.1"/>
<rect x="5" y="1" width="88" height="118" rx="11" stroke="#F7F7F7" stroke-width="2"/>
</g>
<path d="M36.2976 58.7891C38.2739 59.1752 44.4925 57.7577 47.3548 57.0007C47.8327 56.5551 44.38 52.3788 42.5938 50.3464C45.6202 46.0775 53.2248 40.1787 59.4324 50.7347C67.1919 63.9297 66.0298 65.5904 65.6796 73.9231C65.3994 80.5892 59.13 82.8656 56.0302 83.1705C48.2022 85.2863 43.2067 78.838 43.3188 78.4198C41.8565 79.1934 31.8827 75.2659 33.0793 72.8076C34.0365 70.8409 38.1121 71.676 40.0303 72.3393C40.3503 70.1938 41.298 68.0312 41.9158 66.9281C41.0122 66.9549 36.0091 62.2079 35.1831 62.6141C34.3571 63.0202 30.3452 64.276 29.464 64.2192C28.7591 64.1737 29.0832 63.4102 29.3333 63.0342C28.9271 63.1906 28.5412 63.1887 28.3111 62.8345C27.6764 61.8577 29.4793 60.8168 29.5062 60.7163C27.7742 61.2392 28.3019 60.4818 28.404 59.8115C28.522 59.0363 33.8273 58.3064 36.2976 58.7891Z" fill="#A5A9A3"/>
<path d="M30.4949 60.3718C30.1032 60.5214 29.7771 60.6345 29.5062 60.7163M29.5062 60.7163C27.7742 61.2392 28.3019 60.4818 28.404 59.8115C28.522 59.0363 33.8273 58.3064 36.2976 58.7891C38.2739 59.1752 44.4925 57.7577 47.3548 57.0007C47.8327 56.5551 44.38 52.3788 42.5938 50.3464C45.6202 46.0775 53.2248 40.1787 59.4324 50.7347C67.1919 63.9297 66.0298 65.5904 65.6796 73.9231C65.3994 80.5892 59.13 82.8656 56.0302 83.1705C48.2022 85.2863 43.2067 78.838 43.3188 78.4198M29.5062 60.7163C29.4793 60.8168 27.6764 61.8577 28.3111 62.8345C28.5412 63.1887 28.9271 63.1906 29.3333 63.0342M30.6546 62.1178C30.3431 62.4265 29.8234 62.8455 29.3333 63.0342M29.3333 63.0342C29.0832 63.4102 28.7591 64.1737 29.464 64.2192C30.3452 64.276 34.3571 63.0202 35.1831 62.6141C36.0091 62.2079 41.0122 66.9549 41.9158 66.9281M41.9158 66.9281C42.602 66.9077 46.5235 61.7579 50.5066 64.642M41.9158 66.9281C41.298 68.0312 40.3503 70.1938 40.0303 72.3393M54.2107 70.2225C53.0371 67.2764 51.7688 65.5559 50.5066 64.642M50.5066 64.642C52.3346 63.2845 56.0053 60.1792 56.0652 58.6175M40.1153 75.3204C39.8676 74.412 39.8754 73.3777 40.0303 72.3393M40.0303 72.3393C38.1121 71.676 34.0365 70.8409 33.0793 72.8076C31.8827 75.2659 41.8565 79.1934 43.3188 78.4198M43.3188 78.4198C44.7811 77.6463 45.7956 73.5256 45.6567 73.0402" stroke="#282828"/>
<path d="M38.7845 40.8097C36.5434 49.1736 40.3355 49.7415 42.5118 48.98C42.5384 51.5569 43.8667 56.8372 48.9663 57.3431C55.3409 57.9754 57.9237 53.0199 58.4167 51.1799C59.8506 50.8469 66.336 47.3854 64.0438 42.5579C61.7516 37.7304 55.0168 39.7805 54.7091 40.5945C52.6134 39.3158 49.0027 39.3643 47.4593 39.5484C45.512 35.4409 39.3896 38.5515 38.7845 40.8097Z" fill="#A5A9A3"/>
<path d="M43.5379 44.1455C41.6116 46.7848 40.2072 44.8666 39.7458 43.5776C41.126 41.4374 40.0251 43.2042 41.3769 41.5047C43.61 39.8619 45.0855 42.0501 45.2691 42.3683C43.9249 42.3667 43.4723 43.0522 43.299 43.3643C43.1257 43.6765 43.3542 43.8273 43.5379 44.1455Z" fill="#C97A7A" fill-opacity="0.65"/>
<path d="M58.78 45.8089C60.602 47.3728 60.8977 47.2728 61.9418 46.3872C62.753 44.3635 62.6246 44.5083 62.5049 43.6166C61.4508 41.8631 59.2582 42.3513 58.2393 42.4737C59.279 43.6119 59.261 44.6828 59.255 45.0398C59.249 45.3967 59.0981 45.6252 58.78 45.8089Z" fill="#C97A7A" fill-opacity="0.65"/>
<path d="M47.4593 39.5484C45.512 35.4409 39.3896 38.5515 38.7845 40.8097C36.5434 49.1736 40.3355 49.7415 42.5118 48.98C42.5384 51.5569 43.8667 56.8372 48.9663 57.3431C55.3409 57.9754 57.9237 53.0199 58.4167 51.1799C59.8506 50.8469 66.336 47.3854 64.0438 42.5579C61.7516 37.7304 55.0168 39.7805 54.7091 40.5945M47.4593 39.5484C49.4066 43.6559 43.5038 44.9429 43.2934 43.7211C43.125 42.7437 44.5406 42.4118 45.2695 42.3681C44.4178 40.9745 42.1117 39.2988 39.7013 43.7447M47.4593 39.5484C49.0027 39.3643 52.6134 39.3158 54.7091 40.5945M54.7091 40.5945C54.4013 41.4085 56.4815 46.3584 58.4844 45.909C60.0867 45.5495 58.9949 43.4462 58.2487 42.4394C60.249 42.0789 63.8316 42.268 62.1601 45.9078" stroke="#282828"/>
<path d="M47.7043 53.6884C47.4162 55.8344 48.4564 56.0115 49.0125 55.8318C50.4177 56.2083 50.8666 55.492 50.9154 55.0867C50.9961 54.4509 51.1811 53.0244 51.2756 52.4043C51.3937 51.6291 50.759 50.6522 49.6493 50.4445C48.7615 50.2784 48.0734 51.3072 47.8404 51.8424C47.7861 52.1565 47.6829 52.9655 47.7043 53.6884Z" fill="#282828"/>
<circle cx="46.2976" cy="49.9054" r="0.606124" transform="rotate(15 46.2976 49.9054)" fill="#392821"/>
<circle cx="53.7926" cy="51.3753" r="0.606124" transform="rotate(15 53.7926 51.3753)" fill="#392821"/>
</g>
<defs>
<filter id="filter0_d_450_79" x="0" y="0" width="98" height="128" filterUnits="userSpaceOnUse" color-interpolation-filters="sRGB">
<feFlood flood-opacity="0" result="BackgroundImageFix"/>
<feColorMatrix in="SourceAlpha" type="matrix" values="0 0 0 0 0 0 0 0 0 0 0 0 0 0 0 0 0 0 127 0" result="hardAlpha"/>
<feOffset dy="4"/>
<feGaussianBlur stdDeviation="2"/>
<feComposite in2="hardAlpha" operator="out"/>
<feColorMatrix type="matrix" values="0 0 0 0 0 0 0 0 0 0 0 0 0 0 0 0 0 0 0.25 0"/>
<feBlend mode="normal" in2="BackgroundImageFix" result="effect1_dropShadow_450_79"/>
<feBlend mode="normal" in="SourceGraphic" in2="effect1_dropShadow_450_79" result="shape"/>
</filter>
</defs>
</svg>
