<svg width="98" height="128" viewBox="0 0 98 128" fill="none" xmlns="http://www.w3.org/2000/svg">
<g filter="url(#filter0_d_450_215)">
<rect x="5" y="1" width="88" height="118" rx="11" fill="#5B934D" stroke="#F7F7F7" stroke-width="2"/>
<g style="mix-blend-mode:multiply">
<rect x="5" y="1" width="88" height="118" rx="11" fill="#800080" fill-opacity="0.1"/>
<rect x="5" y="1" width="88" height="118" rx="11" stroke="#F7F7F7" stroke-width="2"/>
</g>
<path d="M24.0859 48.5391L24.0781 51.8281C24.0781 52.0573 24.013 52.2682 23.8828 52.4609C23.7005 52.7266 23.4349 52.8594 23.0859 52.8594C22.6745 52.8594 22.3516 52.6927 22.1172 52.3594C21.9349 52.099 21.8438 51.8203 21.8438 51.5234C21.8438 50.3672 21.8802 48.6302 21.9531 46.3125C22.026 43.9948 22.0625 42.2578 22.0625 41.1016C22.0625 40.8099 22.1667 40.5599 22.375 40.3516C22.5833 40.1432 22.8438 40.0391 23.1562 40.0391C23.4688 40.0391 23.7266 40.1432 23.9297 40.3516C24.138 40.5599 24.2422 40.8099 24.2422 41.1016C24.2422 41.5703 24.2188 42.2031 24.1719 43C24.1146 43.9271 24.0807 44.5599 24.0703 44.8984C24.4349 44.5547 25.7865 43.1068 28.125 40.5547C28.3646 40.2943 28.6406 40.1641 28.9531 40.1641C29.25 40.1641 29.5078 40.2682 29.7266 40.4766C29.9505 40.6849 30.0625 40.9375 30.0625 41.2344C30.0625 41.5573 29.4427 42.3958 28.2031 43.75C27.2865 44.7448 26.3203 45.7266 25.3047 46.6953C25.8724 47.2318 26.4427 47.7682 27.0156 48.3047C27.6823 48.9193 28.2812 49.4245 28.8125 49.8203C29.0781 50.013 29.3646 50.1589 29.6719 50.2578C30.2292 50.4349 30.5078 50.776 30.5078 51.2812C30.5078 51.5052 30.4375 51.7214 30.2969 51.9297C30.1042 52.2109 29.8359 52.3516 29.4922 52.3516C28.7474 52.3516 27.7812 51.8646 26.5938 50.8906C26.2396 50.599 25.4036 49.8151 24.0859 48.5391ZM36.9219 52.4766C35.3802 52.4766 34.0677 52.0339 32.9844 51.1484C31.8281 50.2005 31.25 48.974 31.25 47.4688C31.25 45.6979 31.8047 44.0833 32.9141 42.625C34.1589 40.9844 35.7266 40.1641 37.6172 40.1641C39.4349 40.1641 40.7969 40.5807 41.7031 41.4141C42.6094 42.2474 43.0625 43.5 43.0625 45.1719C43.0625 46.9427 42.5521 48.5469 41.5312 49.9844C40.3542 51.6458 38.8177 52.4766 36.9219 52.4766ZM37.6172 42.2812C36.4557 42.2812 35.4609 42.8438 34.6328 43.9688C33.8568 45.0208 33.4688 46.1875 33.4688 47.4688C33.4688 48.3333 33.8047 49.0365 34.4766 49.5781C35.1224 50.099 35.9375 50.3594 36.9219 50.3594C38.0677 50.3594 39.0234 49.7969 39.7891 48.6719C40.4922 47.6458 40.8438 46.4792 40.8438 45.1719C40.8438 44.0781 40.599 43.3177 40.1094 42.8906C39.6406 42.4844 38.8099 42.2812 37.6172 42.2812ZM53.3281 52.2344C52.9167 52.2188 52.5026 51.7344 52.0859 50.7812C51.8099 50.1667 51.5729 49.4583 51.375 48.6562C50.9896 48.7135 50.3594 48.7708 49.4844 48.8281C48.6615 48.8854 48.0312 48.9531 47.5938 49.0312C47.3542 49.6042 46.9375 50.4661 46.3438 51.6172C46.1146 51.9922 45.7969 52.1797 45.3906 52.1797C45.1042 52.1797 44.8464 52.0833 44.6172 51.8906C44.388 51.6927 44.2734 51.4427 44.2734 51.1406C44.2734 50.875 44.6536 49.974 45.4141 48.4375C45.3411 48.276 45.3099 48.125 45.3203 47.9844C45.3411 47.7344 45.5938 47.5391 46.0781 47.3984C46.8177 46.1172 47.6406 44.7891 48.5469 43.4141C49.849 41.4401 50.651 40.4531 50.9531 40.4531C51.526 40.4531 51.9089 40.7995 52.1016 41.4922C52.2057 42.0495 52.3698 42.8854 52.5938 44C52.9115 45.5 53.2995 47.2161 53.7578 49.1484C53.7943 49.2943 53.9271 49.638 54.1562 50.1797C54.3438 50.6276 54.4375 50.9635 54.4375 51.1875C54.4375 51.4896 54.3229 51.7422 54.0938 51.9453C53.8698 52.1484 53.6146 52.2448 53.3281 52.2344ZM50.4141 44.2188C50.0078 44.9167 49.4479 45.8672 48.7344 47.0703C48.9688 47.0182 49.3333 46.9766 49.8281 46.9453C50.4115 46.9089 50.7786 46.8802 50.9297 46.8594C50.8047 46.1823 50.6328 45.3021 50.4141 44.2188ZM63.4062 51.7031C62.7917 51.974 61.8411 52.2161 60.5547 52.4297C59.3776 52.6276 58.4115 52.7266 57.6562 52.7266C56.3802 52.7266 55.7422 52.1667 55.7422 51.0469C55.7422 51.1354 55.7943 50.3099 55.8984 48.5703C56.0339 46.3099 56.1016 43.7943 56.1016 41.0234C56.1016 40.7266 56.2031 40.474 56.4062 40.2656C56.6146 40.0573 56.875 39.9531 57.1875 39.9531C57.5 39.9531 57.7604 40.0573 57.9688 40.2656C58.1771 40.474 58.2812 40.7266 58.2812 41.0234C58.2812 43.7995 58.2109 46.3568 58.0703 48.6953C58.0234 49.112 57.974 49.75 57.9219 50.6094C59.1562 50.5885 60.7396 50.2865 62.6719 49.7031C62.7917 49.6667 62.9062 49.6484 63.0156 49.6484C63.3438 49.6484 63.6094 49.7682 63.8125 50.0078C63.9948 50.2214 64.0859 50.4609 64.0859 50.7266C64.0859 51.1745 63.8594 51.5 63.4062 51.7031ZM73.8438 52.2344C73.4323 52.2188 73.0182 51.7344 72.6016 50.7812C72.3255 50.1667 72.0885 49.4583 71.8906 48.6562C71.5052 48.7135 70.875 48.7708 70 48.8281C69.1771 48.8854 68.5469 48.9531 68.1094 49.0312C67.8698 49.6042 67.4531 50.4661 66.8594 51.6172C66.6302 51.9922 66.3125 52.1797 65.9062 52.1797C65.6198 52.1797 65.362 52.0833 65.1328 51.8906C64.9036 51.6927 64.7891 51.4427 64.7891 51.1406C64.7891 50.875 65.1693 49.974 65.9297 48.4375C65.8568 48.276 65.8255 48.125 65.8359 47.9844C65.8568 47.7344 66.1094 47.5391 66.5938 47.3984C67.3333 46.1172 68.1562 44.7891 69.0625 43.4141C70.3646 41.4401 71.1667 40.4531 71.4688 40.4531C72.0417 40.4531 72.4245 40.7995 72.6172 41.4922C72.7214 42.0495 72.8854 42.8854 73.1094 44C73.4271 45.5 73.8151 47.2161 74.2734 49.1484C74.3099 49.2943 74.4427 49.638 74.6719 50.1797C74.8594 50.6276 74.9531 50.9635 74.9531 51.1875C74.9531 51.4896 74.8385 51.7422 74.6094 51.9453C74.3854 52.1484 74.1302 52.2448 73.8438 52.2344ZM70.9297 44.2188C70.5234 44.9167 69.9635 45.8672 69.25 47.0703C69.4844 47.0182 69.849 46.9766 70.3438 46.9453C70.9271 46.9089 71.2943 46.8802 71.4453 46.8594C71.3203 46.1823 71.1484 45.3021 70.9297 44.2188Z" fill="#F7F7F7"/>
<path d="M32.5469 73.3301C32.2552 73.3301 32.0365 73.1592 31.8906 72.8174C31.763 72.5257 31.6445 72.348 31.5352 72.2842C31.4395 72.234 31.2025 72.209 30.8242 72.209C30.1634 72.209 29.4297 72.7148 28.623 73.7266C27.5293 75.0846 26.9824 76.3721 26.9824 77.5889C26.9824 78.1768 27.1715 78.6826 27.5498 79.1064C27.9372 79.5439 28.4043 79.7627 28.9512 79.7627C29.4206 79.7627 29.8923 79.6419 30.3662 79.4004C30.6305 79.2637 31.0361 78.9948 31.583 78.5938C31.8428 78.4023 32.0387 78.3066 32.1709 78.3066C32.3669 78.3066 32.5309 78.3818 32.6631 78.5322C32.7952 78.6781 32.8613 78.8421 32.8613 79.0244C32.8613 79.2295 32.7747 79.4095 32.6016 79.5645C31.3984 80.6309 30.1816 81.1641 28.9512 81.1641C28.0078 81.1641 27.2103 80.8018 26.5586 80.0771C25.9297 79.3753 25.6152 78.5459 25.6152 77.5889C25.6152 76.0439 26.2624 74.4603 27.5566 72.8379C28.6367 71.4844 29.7259 70.8076 30.8242 70.8076C31.0475 70.8076 31.248 70.819 31.4258 70.8418C31.6035 70.86 31.7607 70.8919 31.8975 70.9375C32.057 70.7051 32.2643 70.5889 32.5195 70.5889C32.834 70.5889 33.0322 70.7962 33.1143 71.2109C33.1872 71.5801 33.2236 72.0335 33.2236 72.5713C33.2236 72.7581 33.1735 72.9222 33.0732 73.0635C32.9502 73.2412 32.7747 73.3301 32.5469 73.3301ZM38.918 81.417C37.6328 81.417 36.5436 81.0319 35.6504 80.2617C34.7025 79.4414 34.2285 78.3841 34.2285 77.0898C34.2285 75.513 34.6956 74.0798 35.6299 72.79C36.6735 71.359 37.9746 70.6436 39.5332 70.6436C41.0326 70.6436 42.1468 70.9808 42.876 71.6553C43.637 72.3571 44.0176 73.4645 44.0176 74.9775C44.0176 76.5544 43.5892 77.9762 42.7324 79.2432C41.748 80.6924 40.4766 81.417 38.918 81.417ZM39.5332 72.0449C38.4167 72.0449 37.471 72.6009 36.6963 73.7129C35.9808 74.7337 35.623 75.8594 35.623 77.0898C35.623 77.9694 35.9489 78.6849 36.6006 79.2363C37.2249 79.7559 37.9974 80.0156 38.918 80.0156C40.0254 80.0156 40.9391 79.4574 41.6592 78.3408C42.3018 77.3428 42.623 76.2217 42.623 74.9775C42.623 73.8883 42.3792 73.1227 41.8916 72.6807C41.4268 72.2568 40.6406 72.0449 39.5332 72.0449ZM53.1641 81.2051C52.7448 81.2051 52.3802 80.6673 52.0703 79.5918C51.9518 79.1816 51.8037 78.4639 51.626 77.4385C51.1611 77.5023 50.5527 77.6162 49.8008 77.7803L47.9824 78.1562C47.7546 78.7533 47.3649 79.626 46.8135 80.7744C46.6676 81.0296 46.4694 81.1572 46.2188 81.1572C46.0365 81.1572 45.8724 81.0911 45.7266 80.959C45.5853 80.8268 45.5146 80.6628 45.5146 80.4668C45.5146 80.248 45.8587 79.4163 46.5469 77.9717C46.4694 77.8532 46.4307 77.7165 46.4307 77.5615C46.4307 77.1924 46.654 76.9554 47.1006 76.8506C47.6201 75.8753 48.2764 74.7542 49.0693 73.4873C50.1494 71.7601 50.8216 70.8965 51.0859 70.8965C51.446 70.8965 51.6921 71.1471 51.8242 71.6484L52.2549 73.9453L53.2734 78.6963L53.6631 79.7764C53.7952 80.1455 53.8613 80.3916 53.8613 80.5146C53.8613 80.7106 53.7907 80.8747 53.6494 81.0068C53.5081 81.139 53.3464 81.2051 53.1641 81.2051ZM50.751 73.3916L48.7959 76.543C49.3473 76.4017 50.1836 76.2308 51.3047 76.0303L50.751 73.3916ZM61.8662 80.7197C61.3512 80.9613 60.5423 81.1777 59.4395 81.3691C58.4232 81.5469 57.5938 81.6357 56.9512 81.6357C56.4909 81.6357 56.1605 81.5651 55.96 81.4238C55.6865 81.2324 55.5498 80.8815 55.5498 80.3711L55.6865 78.1084C55.805 76.0212 55.8643 73.7061 55.8643 71.1631C55.8643 70.9671 55.9281 70.8008 56.0557 70.6641C56.1878 70.5273 56.3496 70.459 56.541 70.459C56.737 70.459 56.8988 70.5273 57.0264 70.6641C57.1585 70.8008 57.2246 70.9671 57.2246 71.1631C57.2246 73.738 57.1631 76.0804 57.04 78.1904L56.9512 79.2295C56.9147 79.6077 56.901 79.9427 56.9102 80.2344C58.0996 80.248 59.6035 79.9678 61.4219 79.3936C61.4993 79.3708 61.5723 79.3594 61.6406 79.3594C61.8366 79.3594 62.0007 79.4368 62.1328 79.5918C62.2467 79.7331 62.3037 79.8949 62.3037 80.0771C62.3037 80.3688 62.1579 80.583 61.8662 80.7197ZM71.1152 81.2051C70.696 81.2051 70.3314 80.6673 70.0215 79.5918C69.903 79.1816 69.7549 78.4639 69.5771 77.4385C69.1123 77.5023 68.5039 77.6162 67.752 77.7803L65.9336 78.1562C65.7057 78.7533 65.3161 79.626 64.7646 80.7744C64.6188 81.0296 64.4206 81.1572 64.1699 81.1572C63.9876 81.1572 63.8236 81.0911 63.6777 80.959C63.5365 80.8268 63.4658 80.6628 63.4658 80.4668C63.4658 80.248 63.8099 79.4163 64.498 77.9717C64.4206 77.8532 64.3818 77.7165 64.3818 77.5615C64.3818 77.1924 64.6051 76.9554 65.0518 76.8506C65.5713 75.8753 66.2275 74.7542 67.0205 73.4873C68.1006 71.7601 68.7728 70.8965 69.0371 70.8965C69.3971 70.8965 69.6432 71.1471 69.7754 71.6484L70.2061 73.9453L71.2246 78.6963L71.6143 79.7764C71.7464 80.1455 71.8125 80.3916 71.8125 80.5146C71.8125 80.7106 71.7419 80.8747 71.6006 81.0068C71.4593 81.139 71.2975 81.2051 71.1152 81.2051ZM68.7021 73.3916L66.7471 76.543C67.2985 76.4017 68.1348 76.2308 69.2559 76.0303L68.7021 73.3916Z" fill="#F7F7F7"/>
</g>
<defs>
<filter id="filter0_d_450_215" x="0" y="0" width="98" height="128" filterUnits="userSpaceOnUse" color-interpolation-filters="sRGB">
<feFlood flood-opacity="0" result="BackgroundImageFix"/>
<feColorMatrix in="SourceAlpha" type="matrix" values="0 0 0 0 0 0 0 0 0 0 0 0 0 0 0 0 0 0 127 0" result="hardAlpha"/>
<feOffset dy="4"/>
<feGaussianBlur stdDeviation="2"/>
<feComposite in2="hardAlpha" operator="out"/>
<feColorMatrix type="matrix" values="0 0 0 0 0 0 0 0 0 0 0 0 0 0 0 0 0 0 0.25 0"/>
<feBlend mode="normal" in2="BackgroundImageFix" result="effect1_dropShadow_450_215"/>
<feBlend mode="normal" in="SourceGraphic" in2="effect1_dropShadow_450_215" result="shape"/>
</filter>
</defs>
</svg>
