<svg width="98" height="128" viewBox="0 0 98 128" fill="none" xmlns="http://www.w3.org/2000/svg">
<g filter="url(#filter0_d_450_123)">
<rect x="5" y="1" width="88" height="118" rx="11" fill="#578549" stroke="#F7F7F7" stroke-width="2"/>
<ellipse cx="49.0394" cy="65.7938" rx="20.2723" ry="24.2239" fill="white"/>
<path d="M29.3947 77.3953C16.1129 66.8869 26.5694 49.9871 33.4142 42.8507H66.0786C79.2731 64.9422 76.04 75.5188 67.9136 79.6983C59.7872 83.8778 54.7192 79.6983 54.8065 72.5335C54.8764 66.8016 61.7679 65.4824 65.2048 65.5393C65.1349 56.1227 60.677 53.6264 58.4051 53.5126C50.0166 58.7156 46.1718 53.0862 40.3173 53.5126C35.6337 53.8538 34.3463 61.7863 34.288 65.7099C42.5368 66.8016 44.4824 70.7139 44.4242 72.5335C44.9485 78.5326 42.6766 87.9037 29.3947 77.3953Z" fill="#282828"/>
<ellipse cx="38.0294" cy="30.4824" rx="6.64093" ry="6.48245" fill="#282828"/>
<ellipse cx="61.0982" cy="30.4824" rx="6.64093" ry="6.48245" fill="#282828"/>
<path d="M65.4912 43.0209C65.4912 51.5425 58.4108 58.4711 49.651 58.4711C40.8913 58.4711 33.8109 51.5425 33.8109 43.0209C33.8109 34.4993 40.8913 27.5707 49.651 27.5707C58.4108 27.5707 65.4912 34.4993 65.4912 43.0209Z" fill="white" stroke="#282828"/>
<path d="M49.7386 52.6592C50.5145 54.3954 52.8941 56.8839 56.2048 52.9485" stroke="#282828"/>
<path d="M49.7386 52.6592C48.9207 54.3954 46.4125 56.8839 42.9229 52.9485" stroke="#282828"/>
<path d="M51.0092 51.9545C50.2708 52.5623 49.2055 52.5623 48.4671 51.9545L48.2928 51.811C46.8438 50.6184 47.6872 48.2668 49.5638 48.2668L49.9125 48.2668C51.7891 48.2668 52.6325 50.6184 51.1835 51.811L51.0092 51.9545Z" fill="#282828"/>
<ellipse cx="43.7097" cy="41.4845" rx="3.23308" ry="3.15593" fill="#282828"/>
<ellipse cx="55.5931" cy="41.4845" rx="3.23308" ry="3.15593" fill="#282828"/>
<path d="M41.4457 82.2402C42.962 84.0891 43.8246 86.132 44.0139 87.9234C44.2037 89.7206 43.7154 91.1952 42.6315 92.0423C41.5475 92.8893 39.9666 93.0316 38.2117 92.4574C36.4624 91.885 34.6091 90.6162 33.0928 88.7674C31.5766 86.9185 30.714 84.8756 30.5247 83.0842C30.3349 81.287 30.8231 79.8124 31.9071 78.9653C32.9911 78.1183 34.572 77.976 36.3269 78.5502C38.0762 79.1226 39.9295 80.3914 41.4457 82.2402Z" fill="#282828" stroke="white"/>
<path d="M57.5592 82.2402C56.043 84.0891 55.1803 86.132 54.9911 87.9234C54.8012 89.7206 55.2895 91.1952 56.3734 92.0423C57.4574 92.8893 59.0383 93.0316 60.7932 92.4574C62.5425 91.885 64.3958 90.6162 65.9121 88.7674C67.4283 86.9185 68.291 84.8756 68.4802 83.0842C68.67 81.287 68.1818 79.8124 67.0978 78.9653C66.0138 78.1183 64.4329 77.976 62.678 78.5502C60.9287 79.1226 59.0754 80.3914 57.5592 82.2402Z" fill="#282828" stroke="white"/>
</g>
<defs>
<filter id="filter0_d_450_123" x="0" y="0" width="98" height="128" filterUnits="userSpaceOnUse" color-interpolation-filters="sRGB">
<feFlood flood-opacity="0" result="BackgroundImageFix"/>
<feColorMatrix in="SourceAlpha" type="matrix" values="0 0 0 0 0 0 0 0 0 0 0 0 0 0 0 0 0 0 127 0" result="hardAlpha"/>
<feOffset dy="4"/>
<feGaussianBlur stdDeviation="2"/>
<feComposite in2="hardAlpha" operator="out"/>
<feColorMatrix type="matrix" values="0 0 0 0 0 0 0 0 0 0 0 0 0 0 0 0 0 0 0.25 0"/>
<feBlend mode="normal" in2="BackgroundImageFix" result="effect1_dropShadow_450_123"/>
<feBlend mode="normal" in="SourceGraphic" in2="effect1_dropShadow_450_123" result="shape"/>
</filter>
</defs>
</svg>
