<svg width="98" height="128" viewBox="0 0 98 128" fill="none" xmlns="http://www.w3.org/2000/svg">
<g filter="url(#filter0_d_450_259)">
<rect x="5" y="1" width="88" height="118" rx="11" fill="#578549" stroke="#F7F7F7" stroke-width="2"/>
<path d="M24.2266 47.6406C24.138 47.6406 23.9193 47.6224 23.5703 47.5859C23.5391 48.3151 23.5234 49.513 23.5234 51.1797C23.5234 51.4557 23.4271 51.6927 23.2344 51.8906C23.0417 52.0885 22.7969 52.1875 22.5 52.1875C22.2031 52.1875 21.9557 52.0885 21.7578 51.8906C21.5651 51.6927 21.4688 51.4557 21.4688 51.1797V49C21.4688 48.1927 21.5208 46.9974 21.625 45.4141C21.724 43.8047 21.776 42.6042 21.7812 41.8125C21.7865 40.4583 22.1667 39.8099 22.9219 39.8672C23.099 39.8203 23.3438 39.7865 23.6562 39.7656C23.9688 39.7396 24.349 39.7266 24.7969 39.7266C25.8177 39.7266 26.776 40.0573 27.6719 40.7188C28.6667 41.4583 29.1641 42.3594 29.1641 43.4219C29.1641 44.7552 28.6354 45.8151 27.5781 46.6016C26.6406 47.2943 25.5234 47.6406 24.2266 47.6406ZM24.6172 41.7422C24.4505 41.7422 24.3021 41.7448 24.1719 41.75C24.0469 41.75 23.9401 41.7552 23.8516 41.7656C23.8516 42.0104 23.849 42.3776 23.8438 42.8672C23.8333 43.4453 23.7839 44.3464 23.6953 45.5703C23.9609 45.612 24.138 45.6328 24.2266 45.6328C25.0391 45.6328 25.7135 45.4401 26.25 45.0547C26.8229 44.6432 27.1094 44.099 27.1094 43.4219C27.1094 42.9792 26.8411 42.5859 26.3047 42.2422C25.7891 41.9089 25.2266 41.7422 24.6172 41.7422ZM39.2969 52.2344C38.8854 52.2188 38.4714 51.7344 38.0547 50.7812C37.7786 50.1667 37.5417 49.4583 37.3438 48.6562C36.9583 48.7135 36.3281 48.7708 35.4531 48.8281C34.6302 48.8854 34 48.9531 33.5625 49.0312C33.3229 49.6042 32.9062 50.4661 32.3125 51.6172C32.0833 51.9922 31.7656 52.1797 31.3594 52.1797C31.0729 52.1797 30.8151 52.0833 30.5859 51.8906C30.3568 51.6927 30.2422 51.4427 30.2422 51.1406C30.2422 50.875 30.6224 49.974 31.3828 48.4375C31.3099 48.276 31.2786 48.125 31.2891 47.9844C31.3099 47.7344 31.5625 47.5391 32.0469 47.3984C32.7865 46.1172 33.6094 44.7891 34.5156 43.4141C35.8177 41.4401 36.6198 40.4531 36.9219 40.4531C37.4948 40.4531 37.8776 40.7995 38.0703 41.4922C38.1745 42.0495 38.3385 42.8854 38.5625 44C38.8802 45.5 39.2682 47.2161 39.7266 49.1484C39.763 49.2943 39.8958 49.638 40.125 50.1797C40.3125 50.6276 40.4062 50.9635 40.4062 51.1875C40.4062 51.4896 40.2917 51.7422 40.0625 51.9453C39.8385 52.1484 39.5833 52.2448 39.2969 52.2344ZM36.3828 44.2188C35.9766 44.9167 35.4167 45.8672 34.7031 47.0703C34.9375 47.0182 35.3021 46.9766 35.7969 46.9453C36.3802 46.9089 36.7474 46.8802 36.8984 46.8594C36.7734 46.1823 36.6016 45.3021 36.3828 44.2188ZM53.5859 50.0781C53.5859 50.3385 53.5417 50.75 53.4531 51.3125C53.349 51.9844 52.9688 52.3203 52.3125 52.3203C51.9479 52.3203 51.5365 52.1146 51.0781 51.7031C49.0729 49.8958 46.8099 47.362 44.2891 44.1016C44.2578 45.4557 44.2422 46.2865 44.2422 46.5938C44.2422 47.0052 44.25 47.625 44.2656 48.4531C44.2865 49.2812 44.2969 49.901 44.2969 50.3125C44.2969 51.849 43.9219 52.6172 43.1719 52.6172C42.7917 52.6172 42.487 52.5 42.2578 52.2656C42.0547 52.0573 41.9531 51.8047 41.9531 51.5078C41.9531 51.2995 41.9688 50.9844 42 50.5625C42.0365 50.1406 42.0547 49.8255 42.0547 49.6172C42.0547 49.3099 42.0651 48.849 42.0859 48.2344C42.1068 47.6198 42.1172 47.1589 42.1172 46.8516C42.1172 46.5234 42.1094 46.0286 42.0938 45.3672C42.0781 44.7057 42.0703 44.2109 42.0703 43.8828C42.0703 43.5703 42.0391 43.1042 41.9766 42.4844C41.9141 41.8646 41.8828 41.3984 41.8828 41.0859C41.8828 40.7734 42.0156 40.4948 42.2812 40.25C42.5521 40.0052 42.8594 39.8828 43.2031 39.8828C43.5885 39.8828 44.0156 40.2161 44.4844 40.8828C46.849 44.2578 49.1823 47.0104 51.4844 49.1406C51.4896 48.974 51.4922 48.5781 51.4922 47.9531C51.4922 45.3854 51.4661 43.6536 51.4141 42.7578C51.4036 42.6068 51.3698 42.3255 51.3125 41.9141C51.2604 41.5495 51.2344 41.263 51.2344 41.0547C51.2344 40.3359 51.6146 39.9766 52.375 39.9766C53.224 39.9766 53.6484 41.2865 53.6484 43.9062C53.6484 43.9635 53.6432 44.375 53.6328 45.1406C53.6016 47.7865 53.5859 49.4323 53.5859 50.0781ZM56.4531 52.0781C56.1458 52.0729 55.888 51.9688 55.6797 51.7656C55.4714 51.5573 55.3672 51.3073 55.3672 51.0156C55.3672 50.4948 55.3906 49.7135 55.4375 48.6719C55.4896 47.6302 55.5156 46.849 55.5156 46.3281C55.5156 45.75 55.5026 44.8828 55.4766 43.7266C55.4557 42.5703 55.4453 41.7031 55.4453 41.125C55.4453 40.8385 55.5833 40.5547 55.8594 40.2734C56.1354 39.987 56.4297 39.8438 56.7422 39.8438C56.9141 39.8438 57.3464 40.0052 58.0391 40.3281C58.8464 40.7135 59.3255 40.9297 59.4766 40.9766C61.0026 41.4714 62.3047 42.237 63.3828 43.2734C64.6693 44.5078 65.3125 45.8724 65.3125 47.3672C65.3125 48.2682 65.0911 49.125 64.6484 49.9375C64.2057 50.7656 63.599 51.4297 62.8281 51.9297C61.9635 52.4922 60.7474 52.7734 59.1797 52.7734C58.7995 52.7734 58.362 52.7188 57.8672 52.6094C57.2682 52.474 56.7969 52.2969 56.4531 52.0781ZM60.8438 44.0469C60.3385 43.7292 59.2552 43.2292 57.5938 42.5469V50.2812C57.7969 50.4115 58.0286 50.5104 58.2891 50.5781C58.5547 50.6406 58.849 50.6719 59.1719 50.6719C60.2969 50.6719 61.1042 50.5156 61.5938 50.2031C62.0573 49.9062 62.4245 49.5026 62.6953 48.9922C62.9714 48.4818 63.1094 47.9505 63.1094 47.3984C63.1094 46.1068 62.3542 44.9896 60.8438 44.0469ZM75.5625 52.2344C75.151 52.2188 74.737 51.7344 74.3203 50.7812C74.0443 50.1667 73.8073 49.4583 73.6094 48.6562C73.224 48.7135 72.5938 48.7708 71.7188 48.8281C70.8958 48.8854 70.2656 48.9531 69.8281 49.0312C69.5885 49.6042 69.1719 50.4661 68.5781 51.6172C68.349 51.9922 68.0312 52.1797 67.625 52.1797C67.3385 52.1797 67.0807 52.0833 66.8516 51.8906C66.6224 51.6927 66.5078 51.4427 66.5078 51.1406C66.5078 50.875 66.888 49.974 67.6484 48.4375C67.5755 48.276 67.5443 48.125 67.5547 47.9844C67.5755 47.7344 67.8281 47.5391 68.3125 47.3984C69.0521 46.1172 69.875 44.7891 70.7812 43.4141C72.0833 41.4401 72.8854 40.4531 73.1875 40.4531C73.7604 40.4531 74.1432 40.7995 74.3359 41.4922C74.4401 42.0495 74.6042 42.8854 74.8281 44C75.1458 45.5 75.5339 47.2161 75.9922 49.1484C76.0286 49.2943 76.1615 49.638 76.3906 50.1797C76.5781 50.6276 76.6719 50.9635 76.6719 51.1875C76.6719 51.4896 76.5573 51.7422 76.3281 51.9453C76.1042 52.1484 75.849 52.2448 75.5625 52.2344ZM72.6484 44.2188C72.2422 44.9167 71.6823 45.8672 70.9688 47.0703C71.2031 47.0182 71.5677 46.9766 72.0625 46.9453C72.6458 46.9089 73.013 46.8802 73.1641 46.8594C73.0391 46.1823 72.8672 45.3021 72.6484 44.2188Z" fill="#F7F7F7"/>
<path d="M26.8232 76.9873C26.6956 76.9873 26.4176 76.9577 25.9893 76.8984C25.9528 77.5866 25.9346 78.792 25.9346 80.5146C25.9346 80.6969 25.8753 80.8519 25.7568 80.9795C25.6383 81.1025 25.4902 81.1641 25.3125 81.1641C25.1302 81.1641 24.9798 81.1025 24.8613 80.9795C24.7428 80.8519 24.6836 80.6969 24.6836 80.5146V78.5049C24.6836 77.835 24.7246 76.8916 24.8066 75.6748C24.8978 74.3577 24.9479 73.4144 24.957 72.8447V71.9014C24.957 71.4502 24.9844 71.1221 25.0391 70.917C25.1439 70.516 25.3672 70.3428 25.709 70.3975C25.8548 70.3519 26.0622 70.3177 26.3311 70.2949C26.5999 70.2721 26.9303 70.2607 27.3223 70.2607C28.1562 70.2607 28.9378 70.5456 29.667 71.1152C30.4691 71.7441 30.8701 72.5007 30.8701 73.3848C30.8701 74.515 30.4417 75.415 29.585 76.085C28.8193 76.6865 27.8988 76.9873 26.8232 76.9873ZM27.165 71.5596C26.9645 71.5596 26.7845 71.5641 26.625 71.5732C26.4701 71.5824 26.3379 71.596 26.2285 71.6143L26.2148 72.8721L26.0713 75.5928L26.8232 75.6816C27.5889 75.6816 28.2337 75.488 28.7578 75.1006C29.332 74.6768 29.6191 74.1048 29.6191 73.3848C29.6191 72.8743 29.3457 72.4346 28.7988 72.0654C28.293 71.7282 27.7484 71.5596 27.165 71.5596ZM39.832 81.2051C39.4128 81.2051 39.0482 80.6673 38.7383 79.5918C38.6198 79.1816 38.4717 78.4639 38.2939 77.4385C37.8291 77.5023 37.2207 77.6162 36.4688 77.7803L34.6504 78.1562C34.4225 78.7533 34.0329 79.626 33.4814 80.7744C33.3356 81.0296 33.1374 81.1572 32.8867 81.1572C32.7044 81.1572 32.5404 81.0911 32.3945 80.959C32.2533 80.8268 32.1826 80.6628 32.1826 80.4668C32.1826 80.248 32.5267 79.4163 33.2148 77.9717C33.1374 77.8532 33.0986 77.7165 33.0986 77.5615C33.0986 77.1924 33.3219 76.9554 33.7686 76.8506C34.2881 75.8753 34.9443 74.7542 35.7373 73.4873C36.8174 71.7601 37.4896 70.8965 37.7539 70.8965C38.1139 70.8965 38.36 71.1471 38.4922 71.6484L38.9229 73.9453L39.9414 78.6963L40.3311 79.7764C40.4632 80.1455 40.5293 80.3916 40.5293 80.5146C40.5293 80.7106 40.4587 80.8747 40.3174 81.0068C40.1761 81.139 40.0143 81.2051 39.832 81.2051ZM37.4189 73.3916L35.4639 76.543C36.0153 76.4017 36.8516 76.2308 37.9727 76.0303L37.4189 73.3916ZM52.0615 79.4824C52.0615 79.7012 52.0251 80.0658 51.9521 80.5762C51.8792 81.0365 51.6354 81.2666 51.2207 81.2666C50.9701 81.2666 50.6715 81.1025 50.3252 80.7744C48.4704 79.0199 46.3421 76.4883 43.9404 73.1797L43.9062 74.7314L43.8857 76.29C43.8857 76.6683 43.8926 77.2357 43.9062 77.9922C43.9245 78.7487 43.9336 79.3184 43.9336 79.7012C43.9336 80.9271 43.6966 81.54 43.2227 81.54C42.972 81.54 42.7738 81.4603 42.6279 81.3008C42.4958 81.1595 42.4297 80.9909 42.4297 80.7949C42.4297 80.6035 42.4434 80.3141 42.4707 79.9268C42.5026 79.5394 42.5186 79.25 42.5186 79.0586C42.5186 78.776 42.5277 78.3545 42.5459 77.7939C42.5641 77.2288 42.5732 76.805 42.5732 76.5225C42.5732 76.2217 42.5664 75.7682 42.5527 75.1621C42.5391 74.5514 42.5322 74.0957 42.5322 73.7949C42.5322 73.5078 42.5049 73.0817 42.4502 72.5166C42.3955 71.9469 42.3682 71.5186 42.3682 71.2314C42.3682 71.0218 42.457 70.8304 42.6348 70.6572C42.8171 70.484 43.0221 70.3975 43.25 70.3975C43.4915 70.3975 43.79 70.6618 44.1455 71.1904C45.2803 72.8903 46.3011 74.3031 47.208 75.4287C48.2881 76.764 49.473 78.04 50.7627 79.2568C50.7764 79.0609 50.7764 78.7715 50.7627 78.3887L50.7422 77.5273C50.7422 75.5267 50.6647 73.9339 50.5098 72.749C50.4915 72.6305 50.43 72.3913 50.3252 72.0312C50.234 71.7214 50.1885 71.4798 50.1885 71.3066C50.1885 70.778 50.43 70.5137 50.9131 70.5137C51.7061 70.5137 52.1025 71.9925 52.1025 74.9502C52.1025 75.4561 52.0957 76.2126 52.082 77.2197C52.0684 78.2223 52.0615 78.9766 52.0615 79.4824ZM60.0391 80.9521C59.3327 81.4352 58.3187 81.6768 56.9971 81.6768C56.6644 81.6768 56.2839 81.6243 55.8555 81.5195C55.3405 81.3965 54.9531 81.237 54.6934 81.041H54.625C54.429 81.041 54.265 80.9727 54.1328 80.8359C54.0007 80.6992 53.9346 80.5329 53.9346 80.3369C53.9346 79.8584 53.9551 79.1429 53.9961 78.1904C54.0417 77.2334 54.0645 76.5156 54.0645 76.0371C54.0645 75.5039 54.0531 74.7087 54.0303 73.6514C54.012 72.5895 54.0029 71.792 54.0029 71.2588C54.0029 71.0719 54.0986 70.876 54.29 70.6709C54.4814 70.4658 54.6729 70.3633 54.8643 70.3633C54.9736 70.3633 55.3382 70.516 55.958 70.8213C56.6598 71.1631 57.0654 71.3522 57.1748 71.3887C58.4691 71.8307 59.5719 72.5098 60.4834 73.4258C61.5544 74.5059 62.0898 75.693 62.0898 76.9873C62.0898 77.7666 61.9053 78.514 61.5361 79.2295C61.1715 79.945 60.6725 80.5192 60.0391 80.9521ZM58.6035 73.7197C58.1387 73.4144 57.0654 72.8903 55.3838 72.1475L55.418 74.1162L55.4385 76.0781L55.3291 79.8105C55.361 79.8242 55.4089 79.8538 55.4727 79.8994C55.8737 80.1683 56.3796 80.3027 56.9902 80.3027C58.0293 80.3027 58.7858 80.1432 59.2598 79.8242C59.7018 79.5234 60.0527 79.1201 60.3125 78.6143C60.5768 78.1038 60.709 77.5729 60.709 77.0215C60.709 75.7363 60.0072 74.6357 58.6035 73.7197ZM71.332 81.2051C70.9128 81.2051 70.5482 80.6673 70.2383 79.5918C70.1198 79.1816 69.9717 78.4639 69.7939 77.4385C69.3291 77.5023 68.7207 77.6162 67.9688 77.7803L66.1504 78.1562C65.9225 78.7533 65.5329 79.626 64.9814 80.7744C64.8356 81.0296 64.6374 81.1572 64.3867 81.1572C64.2044 81.1572 64.0404 81.0911 63.8945 80.959C63.7533 80.8268 63.6826 80.6628 63.6826 80.4668C63.6826 80.248 64.0267 79.4163 64.7148 77.9717C64.6374 77.8532 64.5986 77.7165 64.5986 77.5615C64.5986 77.1924 64.8219 76.9554 65.2686 76.8506C65.7881 75.8753 66.4443 74.7542 67.2373 73.4873C68.3174 71.7601 68.9896 70.8965 69.2539 70.8965C69.6139 70.8965 69.86 71.1471 69.9922 71.6484L70.4229 73.9453L71.4414 78.6963L71.8311 79.7764C71.9632 80.1455 72.0293 80.3916 72.0293 80.5146C72.0293 80.7106 71.9587 80.8747 71.8174 81.0068C71.6761 81.139 71.5143 81.2051 71.332 81.2051ZM68.9189 73.3916L66.9639 76.543C67.5153 76.4017 68.3516 76.2308 69.4727 76.0303L68.9189 73.3916Z" fill="#F7F7F7"/>
</g>
<defs>
<filter id="filter0_d_450_259" x="0" y="0" width="98" height="128" filterUnits="userSpaceOnUse" color-interpolation-filters="sRGB">
<feFlood flood-opacity="0" result="BackgroundImageFix"/>
<feColorMatrix in="SourceAlpha" type="matrix" values="0 0 0 0 0 0 0 0 0 0 0 0 0 0 0 0 0 0 127 0" result="hardAlpha"/>
<feOffset dy="4"/>
<feGaussianBlur stdDeviation="2"/>
<feComposite in2="hardAlpha" operator="out"/>
<feColorMatrix type="matrix" values="0 0 0 0 0 0 0 0 0 0 0 0 0 0 0 0 0 0 0.25 0"/>
<feBlend mode="normal" in2="BackgroundImageFix" result="effect1_dropShadow_450_259"/>
<feBlend mode="normal" in="SourceGraphic" in2="effect1_dropShadow_450_259" result="shape"/>
</filter>
</defs>
</svg>
