<svg width="52" height="72" viewBox="0 0 52 72" fill="none" xmlns="http://www.w3.org/2000/svg">
<ellipse cx="26.0394" cy="41.7938" rx="20.2723" ry="24.2239" fill="white"/>
<path d="M6.39473 53.3953C-6.88712 42.8869 3.56943 25.9871 10.4142 18.8507H43.0786C56.2731 40.9422 53.04 51.5188 44.9136 55.6983C36.7872 59.8778 31.7192 55.6983 31.8065 48.5335C31.8764 42.8016 38.7679 41.4824 42.2048 41.5393C42.1349 32.1227 37.677 29.6264 35.4051 29.5126C27.0166 34.7156 23.1718 29.0862 17.3173 29.5126C12.6337 29.8538 11.3463 37.7863 11.288 41.7099C19.5368 42.8016 21.4824 46.7139 21.4242 48.5335C21.9485 54.5326 19.6766 63.9037 6.39473 53.3953Z" fill="#282828"/>
<ellipse cx="15.0294" cy="6.48245" rx="6.64093" ry="6.48245" fill="#282828"/>
<ellipse cx="38.0982" cy="6.48245" rx="6.64093" ry="6.48245" fill="#282828"/>
<path d="M42.4912 19.0209C42.4912 27.5425 35.4108 34.4711 26.651 34.4711C17.8913 34.4711 10.8109 27.5425 10.8109 19.0209C10.8109 10.4993 17.8913 3.57068 26.651 3.57068C35.4108 3.57068 42.4912 10.4993 42.4912 19.0209Z" fill="white" stroke="#282828"/>
<path d="M26.7386 28.6592C27.5145 30.3954 29.8941 32.8839 33.2048 28.9485" stroke="#282828"/>
<path d="M26.7386 28.6592C25.9207 30.3954 23.4125 32.8839 19.9229 28.9485" stroke="#282828"/>
<path d="M28.0092 27.9545C27.2708 28.5623 26.2055 28.5623 25.4671 27.9545L25.2928 27.811C23.8438 26.6184 24.6872 24.2668 26.5638 24.2668L26.9125 24.2668C28.7891 24.2668 29.6325 26.6184 28.1835 27.811L28.0092 27.9545Z" fill="#282828"/>
<ellipse cx="20.7097" cy="17.4845" rx="3.23308" ry="3.15593" fill="#282828"/>
<ellipse cx="32.5931" cy="17.4845" rx="3.23308" ry="3.15593" fill="#282828"/>
<path d="M18.4457 58.2402C19.962 60.0891 20.8246 62.132 21.0139 63.9234C21.2037 65.7206 20.7154 67.1952 19.6315 68.0423C18.5475 68.8893 16.9666 69.0316 15.2117 68.4574C13.4624 67.885 11.6091 66.6162 10.0928 64.7674C8.57661 62.9185 7.71395 60.8756 7.52471 59.0842C7.33486 57.287 7.82312 55.8124 8.9071 54.9653C9.99108 54.1183 11.572 53.976 13.3269 54.5502C15.0762 55.1226 16.9295 56.3914 18.4457 58.2402Z" fill="#282828" stroke="white"/>
<path d="M34.5592 58.2402C33.043 60.0891 32.1803 62.132 31.9911 63.9234C31.8012 65.7206 32.2895 67.1952 33.3734 68.0423C34.4574 68.8893 36.0383 69.0316 37.7932 68.4574C39.5425 67.885 41.3958 66.6162 42.9121 64.7674C44.4283 62.9185 45.291 60.8756 45.4802 59.0842C45.67 57.287 45.1818 55.8124 44.0978 54.9653C43.0138 54.1183 41.4329 53.976 39.678 54.5502C37.9287 55.1226 36.0754 56.3914 34.5592 58.2402Z" fill="#282828" stroke="white"/>
</svg>
