<svg width="98" height="128" viewBox="0 0 98 128" fill="none" xmlns="http://www.w3.org/2000/svg">
<g filter="url(#filter0_d_398_2)">
<rect x="5" y="1" width="88" height="118" rx="11" fill="#F0F0F0" stroke="#F7F7F7" stroke-width="2"/>
<g style="mix-blend-mode:multiply">
<rect x="5" y="1" width="88" height="118" rx="11" fill="#800080" fill-opacity="0.1"/>
<rect x="5" y="1" width="88" height="118" rx="11" stroke="#F7F7F7" stroke-width="2"/>
</g>
<path d="M40.8995 95.1907C41.5249 95.1907 47.4217 87.4195 47.5111 87.2409C45.0809 87.0265 41.9121 85.9308 40.6315 85.3651C38.2192 86.8836 33.198 90.3672 32.4117 92.1537C31.4289 94.3867 40.2741 95.1907 40.8995 95.1907Z" fill="#FCA352"/>
<path d="M57.34 95.1908C56.7145 95.1908 50.8178 87.4197 50.7284 87.241C53.1586 87.0266 56.3274 85.9309 57.608 85.3652C60.0203 86.8837 65.0415 90.3673 65.8278 92.1538C66.8106 94.3869 57.9654 95.1908 57.34 95.1908Z" fill="#FCA352"/>
<path d="M62.1639 82.0599C51.7999 91.421 40.185 86.139 35.7177 82.2386L36.6404 47.6057L59.6987 46.6836L62.1639 82.0599Z" fill="white"/>
<ellipse cx="49.0304" cy="38.0237" rx="14.0272" ry="14.0237" fill="#272727"/>
<ellipse cx="43.9381" cy="35.6124" rx="2.50167" ry="2.50105" fill="white"/>
<path d="M44.6956 34.8535C44.8795 35.0373 44.9903 35.2818 45.0073 35.5412C45.0243 35.8007 44.9464 36.0575 44.7881 36.2638C44.6297 36.47 44.4018 36.6118 44.1467 36.6625C43.8916 36.7132 43.6268 36.6695 43.4016 36.5395C43.1763 36.4095 43.0061 36.202 42.9225 35.9558C42.8389 35.7096 42.8476 35.4414 42.9472 35.2012C43.0467 34.961 43.2302 34.7651 43.4634 34.6501C43.6967 34.5351 43.9638 34.5088 44.215 34.5761L43.9376 35.6113L44.6956 34.8535Z" fill="#272727"/>
<ellipse cx="54.1232" cy="35.6124" rx="2.50167" ry="2.50105" fill="white"/>
<path d="M55.0516 35.0763C55.1824 35.3028 55.2259 35.5693 55.1738 35.8256C55.1217 36.0819 54.9777 36.3104 54.7688 36.4678C54.56 36.6253 54.3007 36.701 54.0399 36.6806C53.7791 36.6602 53.5347 36.5452 53.3528 36.3572C53.1709 36.1692 53.0641 35.9212 53.0524 35.6599C53.0407 35.3986 53.125 35.142 53.2894 34.9386C53.4537 34.7351 53.6869 34.5988 53.9448 34.5553C54.2028 34.5117 54.4678 34.564 54.6898 34.7023L54.1233 35.6121L55.0516 35.0763Z" fill="#272727"/>
<path d="M48.7625 36.5059L53.405 38.9176H44.1199L48.7625 36.5059Z" fill="#FCA352"/>
<path d="M48.7624 41.3281L44.1199 38.9164L53.405 38.9164L48.7624 41.3281Z" fill="#E09149"/>
<path d="M31.5472 80.0054C27.4016 65.7852 32.5598 48.5339 35.6571 41.6858C39.2512 44.4846 45.9392 50.1179 43.9379 50.2608C41.9365 50.4037 40.3234 54.2506 39.7669 56.1561C38.7544 70.031 35.6928 94.2257 31.5472 80.0054Z" fill="#272727"/>
<path d="M66.344 80.0052C70.4896 65.7849 65.3314 48.5337 62.2341 41.6855C58.64 44.4843 51.952 50.1177 53.9533 50.2606C55.9547 50.4035 57.5678 54.2503 58.1243 56.1559C59.1368 70.0308 62.1984 94.2254 66.344 80.0052Z" fill="#272727"/>
</g>
<defs>
<filter id="filter0_d_398_2" x="0" y="0" width="98" height="128" filterUnits="userSpaceOnUse" color-interpolation-filters="sRGB">
<feFlood flood-opacity="0" result="BackgroundImageFix"/>
<feColorMatrix in="SourceAlpha" type="matrix" values="0 0 0 0 0 0 0 0 0 0 0 0 0 0 0 0 0 0 127 0" result="hardAlpha"/>
<feOffset dy="4"/>
<feGaussianBlur stdDeviation="2"/>
<feComposite in2="hardAlpha" operator="out"/>
<feColorMatrix type="matrix" values="0 0 0 0 0 0 0 0 0 0 0 0 0 0 0 0 0 0 0.25 0"/>
<feBlend mode="normal" in2="BackgroundImageFix" result="effect1_dropShadow_398_2"/>
<feBlend mode="normal" in="SourceGraphic" in2="effect1_dropShadow_398_2" result="shape"/>
</filter>
</defs>
</svg>
