<svg width="98" height="128" viewBox="0 0 98 128" fill="none" xmlns="http://www.w3.org/2000/svg">
<g filter="url(#filter0_d_398_20)">
<rect x="5" y="1" width="88" height="118" rx="11" fill="#F0F0F0" stroke="#F7F7F7" stroke-width="2"/>
<g style="mix-blend-mode:multiply">
<rect x="5" y="1" width="88" height="118" rx="11" fill="#800080" fill-opacity="0.1"/>
<rect x="5" y="1" width="88" height="118" rx="11" stroke="#F7F7F7" stroke-width="2"/>
</g>
<path d="M14.2266 47.6406C14.138 47.6406 13.9193 47.6224 13.5703 47.5859C13.5391 48.3151 13.5234 49.513 13.5234 51.1797C13.5234 51.4557 13.4271 51.6927 13.2344 51.8906C13.0417 52.0885 12.7969 52.1875 12.5 52.1875C12.2031 52.1875 11.9557 52.0885 11.7578 51.8906C11.5651 51.6927 11.4688 51.4557 11.4688 51.1797V49C11.4688 48.1927 11.5208 46.9974 11.625 45.4141C11.724 43.8047 11.776 42.6042 11.7812 41.8125C11.7865 40.4583 12.1667 39.8099 12.9219 39.8672C13.099 39.8203 13.3438 39.7865 13.6562 39.7656C13.9688 39.7396 14.349 39.7266 14.7969 39.7266C15.8177 39.7266 16.776 40.0573 17.6719 40.7188C18.6667 41.4583 19.1641 42.3594 19.1641 43.4219C19.1641 44.7552 18.6354 45.8151 17.5781 46.6016C16.6406 47.2943 15.5234 47.6406 14.2266 47.6406ZM14.6172 41.7422C14.4505 41.7422 14.3021 41.7448 14.1719 41.75C14.0469 41.75 13.9401 41.7552 13.8516 41.7656C13.8516 42.0104 13.849 42.3776 13.8438 42.8672C13.8333 43.4453 13.7839 44.3464 13.6953 45.5703C13.9609 45.612 14.138 45.6328 14.2266 45.6328C15.0391 45.6328 15.7135 45.4401 16.25 45.0547C16.8229 44.6432 17.1094 44.099 17.1094 43.4219C17.1094 42.9792 16.8411 42.5859 16.3047 42.2422C15.7891 41.9089 15.2266 41.7422 14.6172 41.7422ZM28.1953 41.9844C28.0911 41.9844 27.9818 41.9688 27.8672 41.9375C27.0234 41.7083 26.2031 41.5938 25.4062 41.5938C25.0156 41.5938 24.5964 41.625 24.1484 41.6875C23.7005 41.75 23.224 41.8438 22.7188 41.9688C22.7188 42.6615 22.6953 43.6901 22.6484 45.0547C22.9401 45.0339 23.9583 44.9375 25.7031 44.7656C26.6979 44.6667 27.3281 44.6172 27.5938 44.6172C27.901 44.6172 28.1641 44.7161 28.3828 44.9141C28.6016 45.1068 28.7109 45.3646 28.7109 45.6875C28.7109 46.3073 28.3802 46.6589 27.7188 46.7422C27.3021 46.7734 26.6797 46.8255 25.8516 46.8984C25.112 46.9818 23.9974 47.0833 22.5078 47.2031C22.4714 47.8646 22.4531 48.3984 22.4531 48.8047C22.4531 49.8255 22.513 50.4062 22.6328 50.5469C22.6901 50.6146 23.0182 50.6484 23.6172 50.6484C23.9401 50.6484 24.4271 50.6406 25.0781 50.625C25.7292 50.6094 26.2161 50.6016 26.5391 50.6016C26.6432 50.6016 26.7969 50.5859 27 50.5547C27.2031 50.5234 27.3542 50.5078 27.4531 50.5078C27.7552 50.5078 28.013 50.5938 28.2266 50.7656C28.4714 50.9583 28.5938 51.2292 28.5938 51.5781C28.5938 52.1615 28.2891 52.5104 27.6797 52.625C27.1589 52.724 26.0781 52.7734 24.4375 52.7734C22.7396 52.7734 21.6328 52.5443 21.1172 52.0859C20.5495 51.5807 20.2656 50.487 20.2656 48.8047C20.2656 48.1068 20.3151 47.0599 20.4141 45.6641C20.5182 44.263 20.5703 43.2161 20.5703 42.5234C20.5703 42.3411 20.5443 42.0729 20.4922 41.7188C20.4401 41.3594 20.4141 41.0885 20.4141 40.9062C20.4141 40.1146 20.7786 39.7188 21.5078 39.7188C21.737 39.7188 21.9479 39.7839 22.1406 39.9141C22.7448 39.763 23.3177 39.651 23.8594 39.5781C24.4062 39.5 24.9219 39.4609 25.4062 39.4609C26.7188 39.4609 27.7682 39.612 28.5547 39.9141C29.0339 40.0964 29.2734 40.4271 29.2734 40.9062C29.2734 41.1771 29.1797 41.4167 28.9922 41.625C28.7839 41.8646 28.5182 41.9844 28.1953 41.9844ZM41.8828 50.0781C41.8828 50.3385 41.8385 50.75 41.75 51.3125C41.6458 51.9844 41.2656 52.3203 40.6094 52.3203C40.2448 52.3203 39.8333 52.1146 39.375 51.7031C37.3698 49.8958 35.1068 47.362 32.5859 44.1016C32.5547 45.4557 32.5391 46.2865 32.5391 46.5938C32.5391 47.0052 32.5469 47.625 32.5625 48.4531C32.5833 49.2812 32.5938 49.901 32.5938 50.3125C32.5938 51.849 32.2188 52.6172 31.4688 52.6172C31.0885 52.6172 30.7839 52.5 30.5547 52.2656C30.3516 52.0573 30.25 51.8047 30.25 51.5078C30.25 51.2995 30.2656 50.9844 30.2969 50.5625C30.3333 50.1406 30.3516 49.8255 30.3516 49.6172C30.3516 49.3099 30.362 48.849 30.3828 48.2344C30.4036 47.6198 30.4141 47.1589 30.4141 46.8516C30.4141 46.5234 30.4062 46.0286 30.3906 45.3672C30.375 44.7057 30.3672 44.2109 30.3672 43.8828C30.3672 43.5703 30.3359 43.1042 30.2734 42.4844C30.2109 41.8646 30.1797 41.3984 30.1797 41.0859C30.1797 40.7734 30.3125 40.4948 30.5781 40.25C30.849 40.0052 31.1562 39.8828 31.5 39.8828C31.8854 39.8828 32.3125 40.2161 32.7812 40.8828C35.1458 44.2578 37.4792 47.0104 39.7812 49.1406C39.7865 48.974 39.7891 48.5781 39.7891 47.9531C39.7891 45.3854 39.763 43.6536 39.7109 42.7578C39.7005 42.6068 39.6667 42.3255 39.6094 41.9141C39.5573 41.5495 39.5312 41.263 39.5312 41.0547C39.5312 40.3359 39.9115 39.9766 40.6719 39.9766C41.5208 39.9766 41.9453 41.2865 41.9453 43.9062C41.9453 43.9635 41.9401 44.375 41.9297 45.1406C41.8984 47.7865 41.8828 49.4323 41.8828 50.0781ZM52.9766 47.4062C52.6224 48.9583 51.9089 50.2005 50.8359 51.1328C49.7474 52.0703 48.4714 52.5391 47.0078 52.5391C45.6224 52.5391 44.5833 52.1745 43.8906 51.4453C43.1979 50.7109 42.8516 49.612 42.8516 48.1484C42.8516 46.8151 43.1797 45.4479 43.8359 44.0469C44.4922 42.6458 45.3359 41.5104 46.3672 40.6406C47.0911 40.0312 47.8672 39.7266 48.6953 39.7266C49.2005 39.7266 49.888 39.9089 50.7578 40.2734C51.7891 40.7057 52.3047 41.1667 52.3047 41.6562C52.3047 41.9375 52.1979 42.1901 51.9844 42.4141C51.7708 42.6328 51.5078 42.7422 51.1953 42.7422C51.0391 42.7422 50.6927 42.5964 50.1562 42.3047C49.625 42.0078 49.138 41.8594 48.6953 41.8594C48.2266 41.8594 47.5938 42.3646 46.7969 43.375C45.6354 44.8438 45.0547 46.4349 45.0547 48.1484C45.0547 49.0182 45.1823 49.6094 45.4375 49.9219C45.7083 50.25 46.2318 50.4141 47.0078 50.4141C47.8047 50.4141 48.5052 50.1875 49.1094 49.7344C49.75 49.2552 50.224 48.5573 50.5312 47.6406C49.3229 47.7344 48.2708 47.9818 47.375 48.3828C47.2135 48.4557 47.0521 48.4922 46.8906 48.4922C46.5677 48.4922 46.2995 48.3724 46.0859 48.1328C45.8932 47.9193 45.7969 47.6771 45.7969 47.4062C45.7969 46.6094 46.7396 46.0521 48.625 45.7344C49.6875 45.5573 50.9271 45.4688 52.3438 45.4688C52.6562 45.4688 52.9167 45.5703 53.125 45.7734C53.3385 45.9766 53.4453 46.2266 53.4453 46.5234C53.4453 46.9036 53.2891 47.1979 52.9766 47.4062ZM62.4375 50.6484C62.0573 51.1641 61.599 51.5938 61.0625 51.9375C60.4062 52.3542 59.7318 52.5625 59.0391 52.5625C57.7109 52.5625 56.724 52.3073 56.0781 51.7969C54.7135 50.7188 54.0312 48.8464 54.0312 46.1797C54.0312 45.9245 54.0443 45.5443 54.0703 45.0391C54.0964 44.5339 54.1094 44.1536 54.1094 43.8984C54.1094 43.6953 54.1146 43.3932 54.125 42.9922C54.1354 42.5859 54.1406 42.2812 54.1406 42.0781C54.1406 41.6615 54.2161 41.2682 54.3672 40.8984C54.5703 40.4089 54.8542 40.1641 55.2188 40.1641C55.5052 40.1641 55.7578 40.2578 55.9766 40.4453C56.2161 40.6432 56.3359 40.8984 56.3359 41.2109C56.3359 41.5078 56.3307 41.9583 56.3203 42.5625C56.3151 43.1615 56.3125 43.612 56.3125 43.9141C56.3125 44.1641 56.2995 44.5417 56.2734 45.0469C56.2474 45.5521 56.2344 45.9297 56.2344 46.1797C56.2344 46.987 56.3281 47.737 56.5156 48.4297C56.7344 49.2578 57.0547 49.8359 57.4766 50.1641C57.6953 50.3359 58.2161 50.4271 59.0391 50.4375C60.4141 50.4583 61.3411 49.2865 61.8203 46.9219C62.0703 45.6979 62.1953 43.9792 62.1953 41.7656C62.1953 41.474 62.2812 41.1927 62.4531 40.9219C62.6875 40.5625 63.0208 40.3828 63.4531 40.3828C63.8073 40.3828 64.0729 40.513 64.25 40.7734C64.3854 40.9661 64.4531 41.1797 64.4531 41.4141C64.4531 43.4714 64.3568 45.0755 64.1641 46.2266C63.8724 48.0026 63.2969 49.4766 62.4375 50.6484ZM72.6953 42.7656C72.4245 42.7656 71.6823 42.6927 70.4688 42.5469C70.3958 43.5052 70.3594 44.7786 70.3594 46.3672L70.3516 49.875C71.0443 49.8594 71.75 49.8516 72.4688 49.8516C72.7812 49.8516 73.0391 49.9557 73.2422 50.1641C73.4505 50.3724 73.5547 50.6224 73.5547 50.9141C73.5547 51.2057 73.4505 51.4557 73.2422 51.6641C73.0391 51.8672 72.7812 51.9688 72.4688 51.9688C72.1771 51.9688 71.7396 51.9766 71.1562 51.9922C70.5729 52.0026 70.1354 52.0078 69.8438 52.0078C69.5 52.0078 68.9844 52.0521 68.2969 52.1406C67.6094 52.2344 67.0938 52.2812 66.75 52.2812C66.4375 52.2812 66.1771 52.1797 65.9688 51.9766C65.7656 51.7682 65.6641 51.5182 65.6641 51.2266C65.6641 50.9349 65.7656 50.6849 65.9688 50.4766C66.1771 50.2682 66.4375 50.1641 66.75 50.1641C67.1042 50.1641 67.5703 50.125 68.1484 50.0469C68.138 49.4323 68.1328 48.2552 68.1328 46.5156C68.1328 45.099 68.1849 43.7474 68.2891 42.4609L66.5938 42.5078C66.2812 42.5078 66.0182 42.4062 65.8047 42.2031C65.5964 42 65.4922 41.7474 65.4922 41.4453C65.4922 41.138 65.5964 40.888 65.8047 40.6953C65.9974 40.5182 66.2344 40.4167 66.5156 40.3906C66.974 40.349 67.7708 40.3281 68.9062 40.3281C69.9271 40.3281 71.2422 40.4375 72.8516 40.6562C73.4922 40.7448 73.8125 41.1042 73.8125 41.7344C73.8125 42.0677 73.6823 42.3307 73.4219 42.5234C73.2083 42.6849 72.9661 42.7656 72.6953 42.7656ZM86.3203 50.0781C86.3203 50.3385 86.276 50.75 86.1875 51.3125C86.0833 51.9844 85.7031 52.3203 85.0469 52.3203C84.6823 52.3203 84.2708 52.1146 83.8125 51.7031C81.8073 49.8958 79.5443 47.362 77.0234 44.1016C76.9922 45.4557 76.9766 46.2865 76.9766 46.5938C76.9766 47.0052 76.9844 47.625 77 48.4531C77.0208 49.2812 77.0312 49.901 77.0312 50.3125C77.0312 51.849 76.6562 52.6172 75.9062 52.6172C75.526 52.6172 75.2214 52.5 74.9922 52.2656C74.7891 52.0573 74.6875 51.8047 74.6875 51.5078C74.6875 51.2995 74.7031 50.9844 74.7344 50.5625C74.7708 50.1406 74.7891 49.8255 74.7891 49.6172C74.7891 49.3099 74.7995 48.849 74.8203 48.2344C74.8411 47.6198 74.8516 47.1589 74.8516 46.8516C74.8516 46.5234 74.8438 46.0286 74.8281 45.3672C74.8125 44.7057 74.8047 44.2109 74.8047 43.8828C74.8047 43.5703 74.7734 43.1042 74.7109 42.4844C74.6484 41.8646 74.6172 41.3984 74.6172 41.0859C74.6172 40.7734 74.75 40.4948 75.0156 40.25C75.2865 40.0052 75.5938 39.8828 75.9375 39.8828C76.3229 39.8828 76.75 40.2161 77.2188 40.8828C79.5833 44.2578 81.9167 47.0104 84.2188 49.1406C84.224 48.974 84.2266 48.5781 84.2266 47.9531C84.2266 45.3854 84.2005 43.6536 84.1484 42.7578C84.138 42.6068 84.1042 42.3255 84.0469 41.9141C83.9948 41.5495 83.9688 41.263 83.9688 41.0547C83.9688 40.3359 84.349 39.9766 85.1094 39.9766C85.9583 39.9766 86.3828 41.2865 86.3828 43.9062C86.3828 43.9635 86.3776 44.375 86.3672 45.1406C86.3359 47.7865 86.3203 49.4323 86.3203 50.0781Z" fill="#F7F7F7"/>
<path d="M18.8232 76.9873C18.6956 76.9873 18.4176 76.9577 17.9893 76.8984C17.9528 77.5866 17.9346 78.792 17.9346 80.5146C17.9346 80.6969 17.8753 80.8519 17.7568 80.9795C17.6383 81.1025 17.4902 81.1641 17.3125 81.1641C17.1302 81.1641 16.9798 81.1025 16.8613 80.9795C16.7428 80.8519 16.6836 80.6969 16.6836 80.5146V78.5049C16.6836 77.835 16.7246 76.8916 16.8066 75.6748C16.8978 74.3577 16.9479 73.4144 16.957 72.8447V71.9014C16.957 71.4502 16.9844 71.1221 17.0391 70.917C17.1439 70.516 17.3672 70.3428 17.709 70.3975C17.8548 70.3519 18.0622 70.3177 18.3311 70.2949C18.5999 70.2721 18.9303 70.2607 19.3223 70.2607C20.1562 70.2607 20.9378 70.5456 21.667 71.1152C22.4691 71.7441 22.8701 72.5007 22.8701 73.3848C22.8701 74.515 22.4417 75.415 21.585 76.085C20.8193 76.6865 19.8988 76.9873 18.8232 76.9873ZM19.165 71.5596C18.9645 71.5596 18.7845 71.5641 18.625 71.5732C18.4701 71.5824 18.3379 71.596 18.2285 71.6143L18.2148 72.8721L18.0713 75.5928L18.8232 75.6816C19.5889 75.6816 20.2337 75.488 20.7578 75.1006C21.332 74.6768 21.6191 74.1048 21.6191 73.3848C21.6191 72.8743 21.3457 72.4346 20.7988 72.0654C20.293 71.7282 19.7484 71.5596 19.165 71.5596ZM29.8291 72.4824C29.5374 72.4824 29.1706 72.4528 28.7285 72.3936L27.6279 72.25C27.5231 73.5762 27.4707 74.8431 27.4707 76.0508C27.4707 76.3698 27.4798 76.764 27.498 77.2334C27.5163 77.7028 27.5254 78.097 27.5254 78.416C27.5254 78.8444 27.5094 79.234 27.4775 79.585L29.6309 79.5576C29.8223 79.5576 29.9818 79.626 30.1094 79.7627C30.2415 79.8949 30.3076 80.0589 30.3076 80.2549C30.3076 80.4554 30.2415 80.624 30.1094 80.7607C29.9818 80.8929 29.8223 80.959 29.6309 80.959C29.3757 80.959 28.9928 80.9658 28.4824 80.9795C27.972 80.9886 27.5892 80.9932 27.334 80.9932C27.0332 80.9932 26.582 81.0342 25.9805 81.1162C25.3835 81.2028 24.9323 81.2461 24.627 81.2461C24.4355 81.2461 24.2738 81.1777 24.1416 81.041C24.014 80.9089 23.9502 80.7448 23.9502 80.5488C23.9502 80.3529 24.014 80.1865 24.1416 80.0498C24.2738 79.9131 24.4355 79.8447 24.627 79.8447C24.9232 79.8447 25.4131 79.7969 26.0967 79.7012C26.1423 79.332 26.165 78.9105 26.165 78.4365C26.165 78.1221 26.1491 77.7393 26.1172 77.2881C26.0898 76.8324 26.0762 76.4495 26.0762 76.1396C26.0762 75.0869 26.14 73.7721 26.2676 72.1953L25.3789 72.2227L24.4902 72.2432C24.2943 72.2432 24.1302 72.1771 23.998 72.0449C23.8659 71.9128 23.7998 71.7441 23.7998 71.5391C23.7998 71.1152 24.014 70.8828 24.4424 70.8418C24.8115 70.8053 25.502 70.7871 26.5137 70.7871C27.4206 70.7871 28.5576 70.8851 29.9248 71.0811C30.3304 71.1403 30.5332 71.3841 30.5332 71.8125C30.5332 72.0267 30.4557 72.1976 30.3008 72.3252C30.1641 72.43 30.0068 72.4824 29.8291 72.4824ZM41.4775 79.4824C41.4775 79.7012 41.4411 80.0658 41.3682 80.5762C41.2952 81.0365 41.0514 81.2666 40.6367 81.2666C40.3861 81.2666 40.0876 81.1025 39.7412 80.7744C37.8864 79.0199 35.7581 76.4883 33.3564 73.1797L33.3223 74.7314L33.3018 76.29C33.3018 76.6683 33.3086 77.2357 33.3223 77.9922C33.3405 78.7487 33.3496 79.3184 33.3496 79.7012C33.3496 80.9271 33.1126 81.54 32.6387 81.54C32.388 81.54 32.1898 81.4603 32.0439 81.3008C31.9118 81.1595 31.8457 80.9909 31.8457 80.7949C31.8457 80.6035 31.8594 80.3141 31.8867 79.9268C31.9186 79.5394 31.9346 79.25 31.9346 79.0586C31.9346 78.776 31.9437 78.3545 31.9619 77.7939C31.9801 77.2288 31.9893 76.805 31.9893 76.5225C31.9893 76.2217 31.9824 75.7682 31.9688 75.1621C31.9551 74.5514 31.9482 74.0957 31.9482 73.7949C31.9482 73.5078 31.9209 73.0817 31.8662 72.5166C31.8115 71.9469 31.7842 71.5186 31.7842 71.2314C31.7842 71.0218 31.873 70.8304 32.0508 70.6572C32.2331 70.484 32.4382 70.3975 32.666 70.3975C32.9076 70.3975 33.2061 70.6618 33.5615 71.1904C34.6963 72.8903 35.7171 74.3031 36.624 75.4287C37.7041 76.764 38.889 78.04 40.1787 79.2568C40.1924 79.0609 40.1924 78.7715 40.1787 78.3887L40.1582 77.5273C40.1582 75.5267 40.0807 73.9339 39.9258 72.749C39.9076 72.6305 39.846 72.3913 39.7412 72.0312C39.6501 71.7214 39.6045 71.4798 39.6045 71.3066C39.6045 70.778 39.846 70.5137 40.3291 70.5137C41.1221 70.5137 41.5186 71.9925 41.5186 74.9502C41.5186 75.4561 41.5117 76.2126 41.498 77.2197C41.4844 78.2223 41.4775 78.9766 41.4775 79.4824ZM50.9863 76.8643C50.7038 78.2633 50.109 79.3822 49.2021 80.2207C48.2998 81.0547 47.2334 81.4717 46.0029 81.4717C44.8818 81.4717 44.041 81.1595 43.4805 80.5352C42.9199 79.9062 42.6396 78.9652 42.6396 77.7119C42.6396 76.5316 42.9176 75.3171 43.4736 74.0684C44.0342 72.8151 44.752 71.8034 45.627 71.0332C46.2103 70.5182 46.8278 70.2607 47.4795 70.2607C47.8942 70.2607 48.4411 70.3975 49.1201 70.6709C49.9495 70.999 50.3643 71.3613 50.3643 71.7578C50.3643 71.9447 50.2959 72.111 50.1592 72.2568C50.0225 72.4027 49.8584 72.4756 49.667 72.4756C49.5667 72.4756 49.4255 72.4186 49.2432 72.3047C48.5459 71.8809 47.958 71.6689 47.4795 71.6689C47.1377 71.6689 46.7799 71.8467 46.4062 72.2021C46.2194 72.3799 45.9505 72.7035 45.5996 73.1729C44.5469 74.5674 44.0205 76.0804 44.0205 77.7119C44.0205 78.5687 44.1527 79.168 44.417 79.5098C44.7041 79.8835 45.2327 80.0703 46.0029 80.0703C46.8187 80.0703 47.5273 79.8128 48.1289 79.2979C48.7624 78.751 49.2044 77.9694 49.4551 76.9531C48.1927 77.0169 47.1104 77.2607 46.208 77.6846C46.1032 77.7347 46.0007 77.7598 45.9004 77.7598C45.6999 77.7598 45.5335 77.6823 45.4014 77.5273C45.2783 77.3861 45.2168 77.222 45.2168 77.0352C45.2168 76.7845 45.3376 76.584 45.5791 76.4336C46.5635 75.832 48.2611 75.5312 50.6719 75.5312C50.8678 75.5312 51.0319 75.5973 51.1641 75.7295C51.2962 75.8617 51.3623 76.028 51.3623 76.2285C51.3623 76.5247 51.237 76.7367 50.9863 76.8643ZM57.0156 81.2734C55.5983 81.2734 54.541 80.8656 53.8438 80.0498C53.2786 79.3936 52.9232 78.4229 52.7773 77.1377C52.709 76.5589 52.6748 75.4036 52.6748 73.6719C52.6748 73.0339 52.6885 72.5189 52.7158 72.127C52.7432 71.7122 52.7842 71.4229 52.8389 71.2588C52.9528 70.9261 53.1579 70.7598 53.4541 70.7598C53.8734 70.7598 54.083 71.1449 54.083 71.915V75.9277C54.083 78.6895 55.0492 80.0703 56.9814 80.0703C58.7998 80.0703 59.709 77.7461 59.709 73.0977C59.709 72.9245 59.709 72.7012 59.709 72.4277C59.7044 72.1543 59.7021 71.972 59.7021 71.8809C59.7021 71.5983 59.7523 71.3499 59.8525 71.1357C59.9801 70.8623 60.1693 70.7256 60.4199 70.7256C60.8757 70.7256 61.1035 71.0378 61.1035 71.6621C61.1035 71.849 61.1058 72.1315 61.1104 72.5098C61.1104 72.888 61.1104 73.1706 61.1104 73.3574C61.1104 78.6348 59.7454 81.2734 57.0156 81.2734ZM68.4795 72.4824C68.1878 72.4824 67.821 72.4528 67.3789 72.3936L66.2783 72.25C66.1735 73.5762 66.1211 74.8431 66.1211 76.0508C66.1211 76.3698 66.1302 76.764 66.1484 77.2334C66.1667 77.7028 66.1758 78.097 66.1758 78.416C66.1758 78.8444 66.1598 79.234 66.1279 79.585L68.2812 79.5576C68.4727 79.5576 68.6322 79.626 68.7598 79.7627C68.8919 79.8949 68.958 80.0589 68.958 80.2549C68.958 80.4554 68.8919 80.624 68.7598 80.7607C68.6322 80.8929 68.4727 80.959 68.2812 80.959C68.026 80.959 67.6432 80.9658 67.1328 80.9795C66.6224 80.9886 66.2396 80.9932 65.9844 80.9932C65.6836 80.9932 65.2324 81.0342 64.6309 81.1162C64.0339 81.2028 63.5827 81.2461 63.2773 81.2461C63.0859 81.2461 62.9242 81.1777 62.792 81.041C62.6644 80.9089 62.6006 80.7448 62.6006 80.5488C62.6006 80.3529 62.6644 80.1865 62.792 80.0498C62.9242 79.9131 63.0859 79.8447 63.2773 79.8447C63.5736 79.8447 64.0635 79.7969 64.7471 79.7012C64.7926 79.332 64.8154 78.9105 64.8154 78.4365C64.8154 78.1221 64.7995 77.7393 64.7676 77.2881C64.7402 76.8324 64.7266 76.4495 64.7266 76.1396C64.7266 75.0869 64.7904 73.7721 64.918 72.1953L64.0293 72.2227L63.1406 72.2432C62.9447 72.2432 62.7806 72.1771 62.6484 72.0449C62.5163 71.9128 62.4502 71.7441 62.4502 71.5391C62.4502 71.1152 62.6644 70.8828 63.0928 70.8418C63.4619 70.8053 64.1523 70.7871 65.1641 70.7871C66.071 70.7871 67.208 70.8851 68.5752 71.0811C68.9808 71.1403 69.1836 71.3841 69.1836 71.8125C69.1836 72.0267 69.1061 72.1976 68.9512 72.3252C68.8145 72.43 68.6572 72.4824 68.4795 72.4824ZM80.7021 81.5674C80.4561 81.5674 80.2533 81.4398 80.0938 81.1846C79.957 80.9658 79.834 80.6012 79.7246 80.0908L79.4785 78.915C79.2917 78.1859 78.9954 76.5771 78.5898 74.0889L77.2227 78.2109L76.8193 79.5098C76.6553 80.0247 76.4844 80.4463 76.3066 80.7744C76.1152 81.1208 75.8577 81.2939 75.5342 81.2939C75.2653 81.2939 75.0534 81.1481 74.8984 80.8564C74.7982 80.665 74.707 80.4212 74.625 80.125L74.4268 79.3662C73.9665 77.7575 73.5609 76.0348 73.21 74.1982L72.9639 75.4219L72.082 79.0312C72.0456 79.4551 71.9316 80.0817 71.7402 80.9111C71.6035 81.2666 71.3779 81.4443 71.0635 81.4443C70.8402 81.4443 70.6624 81.3646 70.5303 81.2051C70.4163 81.0684 70.3594 80.8997 70.3594 80.6992C70.3594 79.9382 70.5166 79.0039 70.8311 77.8965L71.583 75.1416L71.9795 72.9883C72.18 71.9811 72.3919 71.3226 72.6152 71.0127C72.7975 70.7484 73.0231 70.6162 73.292 70.6162C73.5882 70.6162 73.8092 70.7848 73.9551 71.1221C74.1328 71.5277 74.3242 72.3548 74.5293 73.6035C74.7708 75.1029 75.1468 76.7253 75.6572 78.4707C76.3317 76.7161 76.915 74.8887 77.4072 72.9883L77.6123 71.9902C77.6943 71.5892 77.8014 71.2656 77.9336 71.0195C78.1113 70.6823 78.3551 70.5137 78.665 70.5137C79.057 70.5137 79.3555 70.8919 79.5605 71.6484C79.6335 71.9082 79.7223 72.446 79.8271 73.2617C80.096 75.3216 80.431 77.0807 80.832 78.5391L81.167 79.7148C81.3402 80.3438 81.4268 80.7311 81.4268 80.877C81.4268 81.0729 81.3516 81.237 81.2012 81.3691C81.0553 81.5013 80.889 81.5674 80.7021 81.5674Z" fill="#F7F7F7"/>
</g>
<defs>
<filter id="filter0_d_398_20" x="0" y="0" width="98" height="128" filterUnits="userSpaceOnUse" color-interpolation-filters="sRGB">
<feFlood flood-opacity="0" result="BackgroundImageFix"/>
<feColorMatrix in="SourceAlpha" type="matrix" values="0 0 0 0 0 0 0 0 0 0 0 0 0 0 0 0 0 0 127 0" result="hardAlpha"/>
<feOffset dy="4"/>
<feGaussianBlur stdDeviation="2"/>
<feComposite in2="hardAlpha" operator="out"/>
<feColorMatrix type="matrix" values="0 0 0 0 0 0 0 0 0 0 0 0 0 0 0 0 0 0 0.25 0"/>
<feBlend mode="normal" in2="BackgroundImageFix" result="effect1_dropShadow_398_20"/>
<feBlend mode="normal" in="SourceGraphic" in2="effect1_dropShadow_398_20" result="shape"/>
</filter>
</defs>
</svg>
