<svg width="38" height="72" viewBox="0 0 38 72" fill="none" xmlns="http://www.w3.org/2000/svg">
<path d="M10.8995 71.1907C11.5249 71.1907 17.4217 63.4195 17.5111 63.2409C15.0809 63.0265 11.9121 61.9308 10.6315 61.3651C8.21917 62.8836 3.19797 66.3672 2.41173 68.1537C1.42893 70.3867 10.2741 71.1907 10.8995 71.1907Z" fill="#FCA352"/>
<path d="M27.34 71.1908C26.7145 71.1908 20.8178 63.4197 20.7284 63.241C23.1586 63.0266 26.3274 61.9309 27.608 61.3652C30.0203 62.8837 35.0415 66.3673 35.8278 68.1538C36.8106 70.3869 27.9654 71.1908 27.34 71.1908Z" fill="#FCA352"/>
<path d="M32.1639 58.0599C21.7999 67.421 10.185 62.139 5.71772 58.2386L6.64041 23.6057L29.6987 22.6836L32.1639 58.0599Z" fill="white"/>
<ellipse cx="19.0304" cy="14.0237" rx="14.0272" ry="14.0237" fill="#272727"/>
<ellipse cx="13.9381" cy="11.6124" rx="2.50167" ry="2.50105" fill="white"/>
<path d="M14.6956 10.8535C14.8795 11.0373 14.9903 11.2818 15.0073 11.5412C15.0243 11.8007 14.9464 12.0575 14.7881 12.2638C14.6297 12.47 14.4018 12.6118 14.1467 12.6625C13.8916 12.7132 13.6268 12.6695 13.4016 12.5395C13.1763 12.4095 13.0061 12.202 12.9225 11.9558C12.8389 11.7096 12.8476 11.4414 12.9472 11.2012C13.0467 10.961 13.2302 10.7651 13.4634 10.6501C13.6967 10.5351 13.9638 10.5088 14.215 10.5761L13.9376 11.6113L14.6956 10.8535Z" fill="#272727"/>
<ellipse cx="24.1232" cy="11.6124" rx="2.50167" ry="2.50105" fill="white"/>
<path d="M25.0516 11.0763C25.1824 11.3028 25.2259 11.5693 25.1738 11.8256C25.1217 12.0819 24.9777 12.3104 24.7688 12.4678C24.56 12.6253 24.3007 12.701 24.0399 12.6806C23.7791 12.6602 23.5347 12.5452 23.3528 12.3572C23.1709 12.1692 23.0641 11.9212 23.0524 11.6599C23.0407 11.3986 23.125 11.142 23.2894 10.9386C23.4537 10.7351 23.6869 10.5988 23.9448 10.5553C24.2028 10.5117 24.4678 10.564 24.6898 10.7023L24.1233 11.6121L25.0516 11.0763Z" fill="#272727"/>
<path d="M18.7625 12.5059L23.405 14.9176H14.1199L18.7625 12.5059Z" fill="#FCA352"/>
<path d="M18.7624 17.3281L14.1199 14.9164L23.405 14.9164L18.7624 17.3281Z" fill="#E09149"/>
<path d="M1.5472 56.0054C-2.59842 41.7852 2.55978 24.5339 5.65708 17.6858C9.25123 20.4846 15.9392 26.1179 13.9379 26.2608C11.9365 26.4037 10.3234 30.2506 9.76694 32.1561C8.75437 46.031 5.69282 70.2257 1.5472 56.0054Z" fill="#272727"/>
<path d="M36.344 56.0052C40.4896 41.7849 35.3314 24.5337 32.2341 17.6855C28.64 20.4843 21.952 26.1177 23.9533 26.2606C25.9547 26.4035 27.5678 30.2503 28.1243 32.1559C29.1368 46.0308 32.1984 70.2254 36.344 56.0052Z" fill="#272727"/>
</svg>
