<svg width="98" height="128" viewBox="0 0 98 128" fill="none" xmlns="http://www.w3.org/2000/svg">
<g filter="url(#filter0_d_450_227)">
<rect x="5" y="1" width="88" height="118" rx="11" fill="#E5D8E5" stroke="#F7F7F7" stroke-width="2"/>
<path d="M26.6875 26.6406C26.599 26.6406 26.3802 26.6224 26.0312 26.5859C26 27.3151 25.9844 28.513 25.9844 30.1797C25.9844 30.4557 25.888 30.6927 25.6953 30.8906C25.5026 31.0885 25.2578 31.1875 24.9609 31.1875C24.6641 31.1875 24.4167 31.0885 24.2188 30.8906C24.026 30.6927 23.9297 30.4557 23.9297 30.1797V28C23.9297 27.1927 23.9818 25.9974 24.0859 24.4141C24.1849 22.8047 24.237 21.6042 24.2422 20.8125C24.2474 19.4583 24.6276 18.8099 25.3828 18.8672C25.5599 18.8203 25.8047 18.7865 26.1172 18.7656C26.4297 18.7396 26.8099 18.7266 27.2578 18.7266C28.2786 18.7266 29.237 19.0573 30.1328 19.7188C31.1276 20.4583 31.625 21.3594 31.625 22.4219C31.625 23.7552 31.0964 24.8151 30.0391 25.6016C29.1016 26.2943 27.9844 26.6406 26.6875 26.6406ZM27.0781 20.7422C26.9115 20.7422 26.763 20.7448 26.6328 20.75C26.5078 20.75 26.401 20.7552 26.3125 20.7656C26.3125 21.0104 26.3099 21.3776 26.3047 21.8672C26.2943 22.4453 26.2448 23.3464 26.1562 24.5703C26.4219 24.612 26.599 24.6328 26.6875 24.6328C27.5 24.6328 28.1745 24.4401 28.7109 24.0547C29.2839 23.6432 29.5703 23.099 29.5703 22.4219C29.5703 21.9792 29.3021 21.5859 28.7656 21.2422C28.25 20.9089 27.6875 20.7422 27.0781 20.7422ZM38.1328 31.4766C36.5911 31.4766 35.2786 31.0339 34.1953 30.1484C33.0391 29.2005 32.4609 27.974 32.4609 26.4688C32.4609 24.6979 33.0156 23.0833 34.125 21.625C35.3698 19.9844 36.9375 19.1641 38.8281 19.1641C40.6458 19.1641 42.0078 19.5807 42.9141 20.4141C43.8203 21.2474 44.2734 22.5 44.2734 24.1719C44.2734 25.9427 43.763 27.5469 42.7422 28.9844C41.5651 30.6458 40.0286 31.4766 38.1328 31.4766ZM38.8281 21.2812C37.6667 21.2812 36.6719 21.8438 35.8438 22.9688C35.0677 24.0208 34.6797 25.1875 34.6797 26.4688C34.6797 27.3333 35.0156 28.0365 35.6875 28.5781C36.3333 29.099 37.1484 29.3594 38.1328 29.3594C39.2786 29.3594 40.2344 28.7969 41 27.6719C41.7031 26.6458 42.0547 25.4792 42.0547 24.1719C42.0547 23.0781 41.8099 22.3177 41.3203 21.8906C40.8516 21.4844 40.0208 21.2812 38.8281 21.2812ZM52.9141 30.7031C52.2995 30.974 51.349 31.2161 50.0625 31.4297C48.8854 31.6276 47.9193 31.7266 47.1641 31.7266C45.888 31.7266 45.25 31.1667 45.25 30.0469C45.25 30.1354 45.3021 29.3099 45.4062 27.5703C45.5417 25.3099 45.6094 22.7943 45.6094 20.0234C45.6094 19.7266 45.7109 19.474 45.9141 19.2656C46.1224 19.0573 46.3828 18.9531 46.6953 18.9531C47.0078 18.9531 47.2682 19.0573 47.4766 19.2656C47.6849 19.474 47.7891 19.7266 47.7891 20.0234C47.7891 22.7995 47.7188 25.3568 47.5781 27.6953C47.5312 28.112 47.4818 28.75 47.4297 29.6094C48.6641 29.5885 50.2474 29.2865 52.1797 28.7031C52.2995 28.6667 52.4141 28.6484 52.5234 28.6484C52.8516 28.6484 53.1172 28.7682 53.3203 29.0078C53.5026 29.2214 53.5938 29.4609 53.5938 29.7266C53.5938 30.1745 53.3672 30.5 52.9141 30.7031ZM63.3516 31.2344C62.9401 31.2188 62.526 30.7344 62.1094 29.7812C61.8333 29.1667 61.5964 28.4583 61.3984 27.6562C61.013 27.7135 60.3828 27.7708 59.5078 27.8281C58.6849 27.8854 58.0547 27.9531 57.6172 28.0312C57.3776 28.6042 56.9609 29.4661 56.3672 30.6172C56.138 30.9922 55.8203 31.1797 55.4141 31.1797C55.1276 31.1797 54.8698 31.0833 54.6406 30.8906C54.4115 30.6927 54.2969 30.4427 54.2969 30.1406C54.2969 29.875 54.6771 28.974 55.4375 27.4375C55.3646 27.276 55.3333 27.125 55.3438 26.9844C55.3646 26.7344 55.6172 26.5391 56.1016 26.3984C56.8411 25.1172 57.6641 23.7891 58.5703 22.4141C59.8724 20.4401 60.6745 19.4531 60.9766 19.4531C61.5495 19.4531 61.9323 19.7995 62.125 20.4922C62.2292 21.0495 62.3932 21.8854 62.6172 23C62.9349 24.5 63.3229 26.2161 63.7812 28.1484C63.8177 28.2943 63.9505 28.638 64.1797 29.1797C64.3672 29.6276 64.4609 29.9635 64.4609 30.1875C64.4609 30.4896 64.3464 30.7422 64.1172 30.9453C63.8932 31.1484 63.638 31.2448 63.3516 31.2344ZM60.4375 23.2188C60.0312 23.9167 59.4714 24.8672 58.7578 26.0703C58.9922 26.0182 59.3568 25.9766 59.8516 25.9453C60.4349 25.9089 60.8021 25.8802 60.9531 25.8594C60.8281 25.1823 60.6562 24.3021 60.4375 23.2188ZM74.0859 31.0938C73.8047 31.0938 73.5469 30.9844 73.3125 30.7656C71.7344 29.2865 70 28.2604 68.1094 27.6875C68.1667 29.2031 68.1953 30.0443 68.1953 30.2109C68.1953 30.5078 68.0911 30.7604 67.8828 30.9688C67.6745 31.1719 67.4141 31.2734 67.1016 31.2734C66.7891 31.2734 66.5286 31.1719 66.3203 30.9688C66.112 30.7604 66.0078 30.5078 66.0078 30.2109C66.0078 29.8203 66.013 29.237 66.0234 28.4609C66.0339 27.6797 66.0391 27.0938 66.0391 26.7031L66.0547 20.3984C66.0547 20.0599 66.1562 19.7526 66.3594 19.4766C66.625 19.1224 66.9922 18.9635 67.4609 19C68.7266 19.0938 69.375 19.1432 69.4062 19.1484C70.1354 19.237 70.7552 19.4115 71.2656 19.6719C73.4896 20.7917 74.6016 22.1797 74.6016 23.8359C74.6016 24.5182 74.3672 25.1224 73.8984 25.6484C73.4349 26.1693 72.737 26.6094 71.8047 26.9688C73.1849 27.7396 74.224 28.526 74.9219 29.3281C75.1042 29.5365 75.1953 29.7682 75.1953 30.0234C75.1953 30.3151 75.0859 30.5677 74.8672 30.7812C74.6484 30.9896 74.388 31.0938 74.0859 31.0938ZM69.0781 21.2656C69.0365 21.2604 68.7318 21.2396 68.1641 21.2031V25.3516C68.2943 25.3568 68.4089 25.3594 68.5078 25.3594C69.7839 25.3594 70.7292 25.2005 71.3438 24.8828C71.6094 24.7474 71.8516 24.5677 72.0703 24.3438C72.2943 24.1198 72.4062 23.9505 72.4062 23.8359C72.4062 23.2526 72.0365 22.6901 71.2969 22.1484C70.5938 21.638 69.8542 21.3438 69.0781 21.2656ZM35.3828 52.6953C34.1693 53.1484 32.6354 53.375 30.7812 53.375C30.4688 53.375 30.1875 53.2448 29.9375 52.9844C29.6927 52.724 29.5703 52.4453 29.5703 52.1484V43.8672C29.5547 43.513 29.5417 43.1589 29.5312 42.8047C29.5156 42.4036 29.5286 42.0651 29.5703 41.7891C29.6432 41.2995 30.099 41.0026 30.9375 40.8984C31.3333 40.7839 31.9896 40.7266 32.9062 40.7266C33.8906 40.7266 34.8333 41.0443 35.7344 41.6797C36.7917 42.4193 37.3203 43.3438 37.3203 44.4531C37.3203 45.0521 37.2109 45.5573 36.9922 45.9688C36.8203 46.3021 36.5208 46.6589 36.0938 47.0391C36.599 47.2839 37.0469 47.6536 37.4375 48.1484C37.8802 48.7005 38.1016 49.25 38.1016 49.7969C38.1016 50.4896 37.724 51.1458 36.9688 51.7656C36.4635 52.1771 35.9349 52.487 35.3828 52.6953ZM32.9062 42.8438C32.2344 42.8438 31.8307 42.849 31.6953 42.8594L31.7031 44.5156L31.6953 46.1562C32.1693 46.2135 32.526 46.2318 32.7656 46.2109C34.3594 46.0859 35.1562 45.5 35.1562 44.4531C35.1562 44.0833 34.9219 43.7266 34.4531 43.3828C33.9688 43.0234 33.4531 42.8438 32.9062 42.8438ZM33.8203 48.3672C33.3464 48.3672 32.638 48.349 31.6953 48.3125V51.2344C32.5911 51.1875 33.5625 51.0156 34.6094 50.7188C35.526 50.4583 35.9792 50.1771 35.9688 49.875C35.9531 49.474 35.6589 49.1172 35.0859 48.8047C34.638 48.5547 34.2161 48.4089 33.8203 48.3672ZM47.2344 42.9844C47.1302 42.9844 47.0208 42.9688 46.9062 42.9375C46.0625 42.7083 45.2422 42.5938 44.4453 42.5938C44.0547 42.5938 43.6354 42.625 43.1875 42.6875C42.7396 42.75 42.263 42.8438 41.7578 42.9688C41.7578 43.6615 41.7344 44.6901 41.6875 46.0547C41.9792 46.0339 42.9974 45.9375 44.7422 45.7656C45.737 45.6667 46.3672 45.6172 46.6328 45.6172C46.9401 45.6172 47.2031 45.7161 47.4219 45.9141C47.6406 46.1068 47.75 46.3646 47.75 46.6875C47.75 47.3073 47.4193 47.6589 46.7578 47.7422C46.3411 47.7734 45.7188 47.8255 44.8906 47.8984C44.151 47.9818 43.0365 48.0833 41.5469 48.2031C41.5104 48.8646 41.4922 49.3984 41.4922 49.8047C41.4922 50.8255 41.5521 51.4062 41.6719 51.5469C41.7292 51.6146 42.0573 51.6484 42.6562 51.6484C42.9792 51.6484 43.4661 51.6406 44.1172 51.625C44.7682 51.6094 45.2552 51.6016 45.5781 51.6016C45.6823 51.6016 45.8359 51.5859 46.0391 51.5547C46.2422 51.5234 46.3932 51.5078 46.4922 51.5078C46.7943 51.5078 47.0521 51.5938 47.2656 51.7656C47.5104 51.9583 47.6328 52.2292 47.6328 52.5781C47.6328 53.1615 47.3281 53.5104 46.7188 53.625C46.1979 53.724 45.1172 53.7734 43.4766 53.7734C41.7786 53.7734 40.6719 53.5443 40.1562 53.0859C39.5885 52.5807 39.3047 51.487 39.3047 49.8047C39.3047 49.1068 39.3542 48.0599 39.4531 46.6641C39.5573 45.263 39.6094 44.2161 39.6094 43.5234C39.6094 43.3411 39.5833 43.0729 39.5312 42.7188C39.4792 42.3594 39.4531 42.0885 39.4531 41.9062C39.4531 41.1146 39.8177 40.7188 40.5469 40.7188C40.776 40.7188 40.987 40.7839 41.1797 40.9141C41.7839 40.763 42.3568 40.651 42.8984 40.5781C43.4453 40.5 43.9609 40.4609 44.4453 40.4609C45.7578 40.4609 46.8073 40.612 47.5938 40.9141C48.0729 41.0964 48.3125 41.4271 48.3125 41.9062C48.3125 42.1771 48.2188 42.4167 48.0312 42.625C47.8229 42.8646 47.5573 42.9844 47.2344 42.9844ZM58.3359 53.2344C57.9245 53.2188 57.5104 52.7344 57.0938 51.7812C56.8177 51.1667 56.5807 50.4583 56.3828 49.6562C55.9974 49.7135 55.3672 49.7708 54.4922 49.8281C53.6693 49.8854 53.0391 49.9531 52.6016 50.0312C52.362 50.6042 51.9453 51.4661 51.3516 52.6172C51.1224 52.9922 50.8047 53.1797 50.3984 53.1797C50.112 53.1797 49.8542 53.0833 49.625 52.8906C49.3958 52.6927 49.2812 52.4427 49.2812 52.1406C49.2812 51.875 49.6615 50.974 50.4219 49.4375C50.349 49.276 50.3177 49.125 50.3281 48.9844C50.349 48.7344 50.6016 48.5391 51.0859 48.3984C51.8255 47.1172 52.6484 45.7891 53.5547 44.4141C54.8568 42.4401 55.6589 41.4531 55.9609 41.4531C56.5339 41.4531 56.9167 41.7995 57.1094 42.4922C57.2135 43.0495 57.3776 43.8854 57.6016 45C57.9193 46.5 58.3073 48.2161 58.7656 50.1484C58.8021 50.2943 58.9349 50.638 59.1641 51.1797C59.3516 51.6276 59.4453 51.9635 59.4453 52.1875C59.4453 52.4896 59.3307 52.7422 59.1016 52.9453C58.8776 53.1484 58.6224 53.2448 58.3359 53.2344ZM55.4219 45.2188C55.0156 45.9167 54.4557 46.8672 53.7422 48.0703C53.9766 48.0182 54.3411 47.9766 54.8359 47.9453C55.4193 47.9089 55.7865 47.8802 55.9375 47.8594C55.8125 47.1823 55.6406 46.3021 55.4219 45.2188ZM69.0703 53.0938C68.7891 53.0938 68.5312 52.9844 68.2969 52.7656C66.7188 51.2865 64.9844 50.2604 63.0938 49.6875C63.151 51.2031 63.1797 52.0443 63.1797 52.2109C63.1797 52.5078 63.0755 52.7604 62.8672 52.9688C62.6589 53.1719 62.3984 53.2734 62.0859 53.2734C61.7734 53.2734 61.513 53.1719 61.3047 52.9688C61.0964 52.7604 60.9922 52.5078 60.9922 52.2109C60.9922 51.8203 60.9974 51.237 61.0078 50.4609C61.0182 49.6797 61.0234 49.0938 61.0234 48.7031L61.0391 42.3984C61.0391 42.0599 61.1406 41.7526 61.3438 41.4766C61.6094 41.1224 61.9766 40.9635 62.4453 41C63.7109 41.0938 64.3594 41.1432 64.3906 41.1484C65.1198 41.237 65.7396 41.4115 66.25 41.6719C68.474 42.7917 69.5859 44.1797 69.5859 45.8359C69.5859 46.5182 69.3516 47.1224 68.8828 47.6484C68.4193 48.1693 67.7214 48.6094 66.7891 48.9688C68.1693 49.7396 69.2083 50.526 69.9062 51.3281C70.0885 51.5365 70.1797 51.7682 70.1797 52.0234C70.1797 52.3151 70.0703 52.5677 69.8516 52.7812C69.6328 52.9896 69.3724 53.0938 69.0703 53.0938ZM64.0625 43.2656C64.0208 43.2604 63.7161 43.2396 63.1484 43.2031V47.3516C63.2786 47.3568 63.3932 47.3594 63.4922 47.3594C64.7682 47.3594 65.7135 47.2005 66.3281 46.8828C66.5938 46.7474 66.8359 46.5677 67.0547 46.3438C67.2786 46.1198 67.3906 45.9505 67.3906 45.8359C67.3906 45.2526 67.0208 44.6901 66.2812 44.1484C65.5781 43.638 64.8385 43.3438 64.0625 43.2656Z" fill="#F7F7F7"/>
<path d="M34.8916 82.2734C33.4743 82.2734 32.417 81.8656 31.7197 81.0498C31.1546 80.3936 30.7992 79.4229 30.6533 78.1377C30.585 77.5589 30.5508 76.4036 30.5508 74.6719C30.5508 74.0339 30.5645 73.5189 30.5918 73.127C30.6191 72.7122 30.6602 72.4229 30.7148 72.2588C30.8288 71.9261 31.0339 71.7598 31.3301 71.7598C31.7493 71.7598 31.959 72.1449 31.959 72.915V76.9277C31.959 79.6895 32.9251 81.0703 34.8574 81.0703C36.6758 81.0703 37.585 78.7461 37.585 74.0977C37.585 73.9245 37.585 73.7012 37.585 73.4277C37.5804 73.1543 37.5781 72.972 37.5781 72.8809C37.5781 72.5983 37.6283 72.3499 37.7285 72.1357C37.8561 71.8623 38.0452 71.7256 38.2959 71.7256C38.7516 71.7256 38.9795 72.0378 38.9795 72.6621C38.9795 72.849 38.9818 73.1315 38.9863 73.5098C38.9863 73.888 38.9863 74.1706 38.9863 74.3574C38.9863 79.6348 37.6214 82.2734 34.8916 82.2734ZM47.5107 82.0752C47.3376 82.0752 47.1758 82.0023 47.0254 81.8564C45.5169 80.3662 43.8398 79.3636 41.9941 78.8486L42.0488 80.1885L42.083 81.5352C42.083 81.7357 42.0169 81.902 41.8848 82.0342C41.7572 82.1709 41.5954 82.2393 41.3994 82.2393C41.2035 82.2393 41.0394 82.1709 40.9072 82.0342C40.7796 81.902 40.7158 81.7357 40.7158 81.5352C40.7158 81.1751 40.6976 80.6396 40.6611 79.9287C40.6292 79.2132 40.6133 78.6755 40.6133 78.3154C40.6133 77.8962 40.6589 77.2718 40.75 76.4424C40.8411 75.613 40.8867 74.9909 40.8867 74.5762C40.8867 74.3438 40.8639 73.9997 40.8184 73.5439C40.7773 73.0882 40.7568 72.7441 40.7568 72.5117C40.7568 72.252 40.8298 72.0241 40.9756 71.8281C41.1488 71.5866 41.388 71.4772 41.6934 71.5L43.3408 71.6299C43.9652 71.7074 44.4915 71.86 44.9199 72.0879C46.7656 73.0677 47.6885 74.264 47.6885 75.6768C47.6885 76.3695 47.374 76.9824 46.7451 77.5156C46.2393 77.944 45.6081 78.2699 44.8516 78.4932C46.2689 79.2542 47.3285 80.0563 48.0303 80.8994C48.1488 81.0452 48.208 81.2002 48.208 81.3643C48.208 81.5557 48.1374 81.722 47.9961 81.8633C47.8594 82.0046 47.6976 82.0752 47.5107 82.0752ZM43.1562 73.0381L42.1445 72.9561L42.2129 73.7832C42.2448 74.1204 42.2607 74.3962 42.2607 74.6104C42.2607 74.9749 42.2311 75.4284 42.1719 75.9707L42.0283 77.3311C42.0921 77.3311 42.1901 77.3333 42.3223 77.3379C42.459 77.3424 42.5615 77.3447 42.6299 77.3447C43.792 77.3447 44.6624 77.1898 45.2412 76.8799C45.4964 76.7386 45.7334 76.554 45.9521 76.3262C46.1937 76.071 46.3145 75.8545 46.3145 75.6768C46.3145 75.0433 45.9544 74.4531 45.2344 73.9062C44.5736 73.4049 43.8809 73.1156 43.1562 73.0381ZM49.5342 80.2979C49.5296 80.1064 49.5934 79.9515 49.7256 79.833C49.8623 79.71 50.0286 79.6484 50.2246 79.6484C50.4479 79.6484 50.6439 79.776 50.8125 80.0312C51.0449 80.3776 51.2523 80.6123 51.4346 80.7354C51.8219 80.9906 52.3848 81.1182 53.123 81.1182C53.8294 81.1182 54.4857 80.9655 55.0918 80.6602C55.8665 80.2682 56.2539 79.7236 56.2539 79.0264C56.2539 78.4521 55.9281 77.9987 55.2764 77.666C54.7249 77.3789 54.0436 77.224 53.2324 77.2012C52.5124 77.1738 51.8994 77.0166 51.3936 76.7295C50.7464 76.3604 50.4229 75.8317 50.4229 75.1436C50.4229 74.3324 50.8831 73.5918 51.8037 72.9219C52.6833 72.2884 53.5924 71.9717 54.5312 71.9717C54.9733 71.9717 55.4723 72.0469 56.0283 72.1973C56.7666 72.3932 57.1357 72.6439 57.1357 72.9492C57.1357 73.3503 56.9307 73.5508 56.5205 73.5508C56.3382 73.5508 56.0192 73.5029 55.5635 73.4072C55.1077 73.307 54.7546 73.2591 54.5039 73.2637C53.793 73.2728 53.1891 73.4482 52.6924 73.79C52.182 74.141 51.9268 74.5671 51.9268 75.0684C51.9268 75.4466 52.264 75.7132 52.9385 75.8682C53.1891 75.9274 53.6745 75.9821 54.3945 76.0322C55.4382 76.1097 56.2539 76.4378 56.8418 77.0166C57.3796 77.5452 57.6484 78.1901 57.6484 78.9512C57.6484 80.0358 57.1471 80.9017 56.1445 81.5488C55.2741 82.1094 54.2646 82.3896 53.1162 82.3896C52.2822 82.3896 51.5189 82.2301 50.8262 81.9111C49.9785 81.5192 49.5479 80.9814 49.5342 80.2979ZM63.8076 82.417C62.5225 82.417 61.4333 82.0319 60.54 81.2617C59.5921 80.4414 59.1182 79.3841 59.1182 78.0898C59.1182 76.513 59.5853 75.0798 60.5195 73.79C61.5632 72.359 62.8643 71.6436 64.4229 71.6436C65.9222 71.6436 67.0365 71.9808 67.7656 72.6553C68.5267 73.3571 68.9072 74.4645 68.9072 75.9775C68.9072 77.5544 68.4788 78.9762 67.6221 80.2432C66.6377 81.6924 65.3662 82.417 63.8076 82.417ZM64.4229 73.0449C63.3063 73.0449 62.3607 73.6009 61.5859 74.7129C60.8704 75.7337 60.5127 76.8594 60.5127 78.0898C60.5127 78.9694 60.8385 79.6849 61.4902 80.2363C62.1146 80.7559 62.887 81.0156 63.8076 81.0156C64.915 81.0156 65.8288 80.4574 66.5488 79.3408C67.1914 78.3428 67.5127 77.2217 67.5127 75.9775C67.5127 74.8883 67.2689 74.1227 66.7812 73.6807C66.3164 73.2568 65.5303 73.0449 64.4229 73.0449ZM29.71 97.9873C29.5824 97.9873 29.3044 97.9577 28.876 97.8984C28.8395 98.5866 28.8213 99.792 28.8213 101.515C28.8213 101.697 28.762 101.852 28.6436 101.979C28.5251 102.103 28.377 102.164 28.1992 102.164C28.0169 102.164 27.8665 102.103 27.748 101.979C27.6296 101.852 27.5703 101.697 27.5703 101.515V99.5049C27.5703 98.835 27.6113 97.8916 27.6934 96.6748C27.7845 95.3577 27.8346 94.4144 27.8438 93.8447V92.9014C27.8438 92.4502 27.8711 92.1221 27.9258 91.917C28.0306 91.516 28.2539 91.3428 28.5957 91.3975C28.7415 91.3519 28.9489 91.3177 29.2178 91.2949C29.4867 91.2721 29.8171 91.2607 30.209 91.2607C31.043 91.2607 31.8245 91.5456 32.5537 92.1152C33.3558 92.7441 33.7568 93.5007 33.7568 94.3848C33.7568 95.515 33.3285 96.415 32.4717 97.085C31.7061 97.6865 30.7855 97.9873 29.71 97.9873ZM30.0518 92.5596C29.8512 92.5596 29.6712 92.5641 29.5117 92.5732C29.3568 92.5824 29.2246 92.596 29.1152 92.6143L29.1016 93.8721L28.958 96.5928L29.71 96.6816C30.4756 96.6816 31.1204 96.488 31.6445 96.1006C32.2188 95.6768 32.5059 95.1048 32.5059 94.3848C32.5059 93.8743 32.2324 93.4346 31.6855 93.0654C31.1797 92.7282 30.6351 92.5596 30.0518 92.5596ZM39.6562 102.417C38.3711 102.417 37.2819 102.032 36.3887 101.262C35.4408 100.441 34.9668 99.3841 34.9668 98.0898C34.9668 96.513 35.4339 95.0798 36.3682 93.79C37.4118 92.359 38.7129 91.6436 40.2715 91.6436C41.7708 91.6436 42.8851 91.9808 43.6143 92.6553C44.3753 93.3571 44.7559 94.4645 44.7559 95.9775C44.7559 97.5544 44.3275 98.9762 43.4707 100.243C42.4863 101.692 41.2148 102.417 39.6562 102.417ZM40.2715 93.0449C39.1549 93.0449 38.2093 93.6009 37.4346 94.7129C36.7191 95.7337 36.3613 96.8594 36.3613 98.0898C36.3613 98.9694 36.6872 99.6849 37.3389 100.236C37.9632 100.756 38.7357 101.016 39.6562 101.016C40.7637 101.016 41.6774 100.457 42.3975 99.3408C43.04 98.3428 43.3613 97.2217 43.3613 95.9775C43.3613 94.8883 43.1175 94.1227 42.6299 93.6807C42.165 93.2568 41.3789 93.0449 40.2715 93.0449ZM52.3643 101.72C51.8493 101.961 51.0404 102.178 49.9375 102.369C48.9212 102.547 48.0918 102.636 47.4492 102.636C46.9889 102.636 46.6585 102.565 46.458 102.424C46.1846 102.232 46.0479 101.882 46.0479 101.371L46.1846 99.1084C46.3031 97.0212 46.3623 94.7061 46.3623 92.1631C46.3623 91.9671 46.4261 91.8008 46.5537 91.6641C46.6859 91.5273 46.8477 91.459 47.0391 91.459C47.235 91.459 47.3968 91.5273 47.5244 91.6641C47.6566 91.8008 47.7227 91.9671 47.7227 92.1631C47.7227 94.738 47.6611 97.0804 47.5381 99.1904L47.4492 100.229C47.4128 100.608 47.3991 100.943 47.4082 101.234C48.5977 101.248 50.1016 100.968 51.9199 100.394C51.9974 100.371 52.0703 100.359 52.1387 100.359C52.3346 100.359 52.4987 100.437 52.6309 100.592C52.7448 100.733 52.8018 100.895 52.8018 101.077C52.8018 101.369 52.6559 101.583 52.3643 101.72ZM61.6133 102.205C61.194 102.205 60.8294 101.667 60.5195 100.592C60.401 100.182 60.2529 99.4639 60.0752 98.4385C59.6104 98.5023 59.002 98.6162 58.25 98.7803L56.4316 99.1562C56.2038 99.7533 55.8141 100.626 55.2627 101.774C55.1169 102.03 54.9186 102.157 54.668 102.157C54.4857 102.157 54.3216 102.091 54.1758 101.959C54.0345 101.827 53.9639 101.663 53.9639 101.467C53.9639 101.248 54.3079 100.416 54.9961 98.9717C54.9186 98.8532 54.8799 98.7165 54.8799 98.5615C54.8799 98.1924 55.1032 97.9554 55.5498 97.8506C56.0693 96.8753 56.7256 95.7542 57.5186 94.4873C58.5986 92.7601 59.2708 91.8965 59.5352 91.8965C59.8952 91.8965 60.1413 92.1471 60.2734 92.6484L60.7041 94.9453L61.7227 99.6963L62.1123 100.776C62.2445 101.146 62.3105 101.392 62.3105 101.515C62.3105 101.711 62.2399 101.875 62.0986 102.007C61.9574 102.139 61.7956 102.205 61.6133 102.205ZM59.2002 94.3916L57.2451 97.543C57.7965 97.4017 58.6328 97.2308 59.7539 97.0303L59.2002 94.3916ZM71.0059 102.075C70.8327 102.075 70.6709 102.002 70.5205 101.856C69.012 100.366 67.335 99.3636 65.4893 98.8486L65.5439 100.188L65.5781 101.535C65.5781 101.736 65.512 101.902 65.3799 102.034C65.2523 102.171 65.0905 102.239 64.8945 102.239C64.6986 102.239 64.5345 102.171 64.4023 102.034C64.2747 101.902 64.2109 101.736 64.2109 101.535C64.2109 101.175 64.1927 100.64 64.1562 99.9287C64.1243 99.2132 64.1084 98.6755 64.1084 98.3154C64.1084 97.8962 64.154 97.2718 64.2451 96.4424C64.3363 95.613 64.3818 94.9909 64.3818 94.5762C64.3818 94.3438 64.359 93.9997 64.3135 93.5439C64.2725 93.0882 64.252 92.7441 64.252 92.5117C64.252 92.252 64.3249 92.0241 64.4707 91.8281C64.6439 91.5866 64.8831 91.4772 65.1885 91.5L66.8359 91.6299C67.4603 91.7074 67.9867 91.86 68.415 92.0879C70.2607 93.0677 71.1836 94.264 71.1836 95.6768C71.1836 96.3695 70.8691 96.9824 70.2402 97.5156C69.7344 97.944 69.1032 98.2699 68.3467 98.4932C69.764 99.2542 70.8236 100.056 71.5254 100.899C71.6439 101.045 71.7031 101.2 71.7031 101.364C71.7031 101.556 71.6325 101.722 71.4912 101.863C71.3545 102.005 71.1927 102.075 71.0059 102.075ZM66.6514 93.0381L65.6396 92.9561L65.708 93.7832C65.7399 94.1204 65.7559 94.3962 65.7559 94.6104C65.7559 94.9749 65.7262 95.4284 65.667 95.9707L65.5234 97.3311C65.5872 97.3311 65.6852 97.3333 65.8174 97.3379C65.9541 97.3424 66.0566 97.3447 66.125 97.3447C67.2871 97.3447 68.1576 97.1898 68.7363 96.8799C68.9915 96.7386 69.2285 96.554 69.4473 96.3262C69.6888 96.071 69.8096 95.8545 69.8096 95.6768C69.8096 95.0433 69.4495 94.4531 68.7295 93.9062C68.0687 93.4049 67.376 93.1156 66.6514 93.0381Z" fill="#F7F7F7"/>
</g>
<defs>
<filter id="filter0_d_450_227" x="0" y="0" width="98" height="128" filterUnits="userSpaceOnUse" color-interpolation-filters="sRGB">
<feFlood flood-opacity="0" result="BackgroundImageFix"/>
<feColorMatrix in="SourceAlpha" type="matrix" values="0 0 0 0 0 0 0 0 0 0 0 0 0 0 0 0 0 0 127 0" result="hardAlpha"/>
<feOffset dy="4"/>
<feGaussianBlur stdDeviation="2"/>
<feComposite in2="hardAlpha" operator="out"/>
<feColorMatrix type="matrix" values="0 0 0 0 0 0 0 0 0 0 0 0 0 0 0 0 0 0 0.25 0"/>
<feBlend mode="normal" in2="BackgroundImageFix" result="effect1_dropShadow_450_227"/>
<feBlend mode="normal" in="SourceGraphic" in2="effect1_dropShadow_450_227" result="shape"/>
</filter>
</defs>
</svg>
