<svg width="51" height="71" viewBox="0 0 51 71" fill="none" xmlns="http://www.w3.org/2000/svg">
<path d="M5.55093 52.5757L3.56166 53.0258L4.14652 51.2325L5.55093 52.5757Z" fill="white" stroke="#393939" stroke-width="0.2"/>
<path d="M4.78833 51.5271L2.57653 51.5208L3.84574 49.867L4.78833 51.5271Z" fill="white" stroke="#393939" stroke-width="0.2"/>
<path d="M7.24573 53.1101L5.7329 54.3599L5.31283 52.5371L7.24573 53.1101Z" fill="white" stroke="#393939" stroke-width="0.2"/>
<path d="M9.16649 52.3514L8.54915 54.1336L7.1797 52.7441L9.16649 52.3514Z" fill="white" stroke="#393939" stroke-width="0.2"/>
<path d="M13.924 68.4027L12.4233 69.1585L12.1339 67.6162L13.924 68.4027Z" fill="white" stroke="#393939" stroke-width="0.2"/>
<path d="M16.943 69.3588L15.6064 70.2068L15.0705 68.8037L16.943 69.3588Z" fill="white" stroke="#393939" stroke-width="0.2"/>
<path d="M20.5298 69.5215L19.5519 70.8221L18.5424 69.5418L20.5298 69.5215Z" fill="white" stroke="#393939" stroke-width="0.2"/>
<path d="M36.0362 68.4027L37.5369 69.1585L37.8263 67.6162L36.0362 68.4027Z" fill="white" stroke="#393939" stroke-width="0.2"/>
<path d="M33.0173 69.3588L34.3538 70.2068L34.8897 68.8037L33.0173 69.3588Z" fill="white" stroke="#393939" stroke-width="0.2"/>
<path d="M29.43 69.5215L30.4079 70.8221L31.4173 69.5418L29.43 69.5215Z" fill="white" stroke="#393939" stroke-width="0.2"/>
<path d="M43.0361 40.3806C43.0361 52.0292 34.9897 61.3325 25.2231 61.3325C15.4564 61.3325 7.41 52.0292 7.41 40.3806C7.41 28.7321 15.4564 19.4287 25.2231 19.4287C34.9897 19.4287 43.0361 28.7321 43.0361 40.3806Z" fill="white" stroke="#C2E2F0"/>
<path d="M10.6299 50.6281L11.1247 52.5109L9.11924 51.8811L10.6299 50.6281Z" fill="white" stroke="#393939" stroke-width="0.2"/>
<path d="M45.1524 52.6127L47.2507 53.1501L46.5653 51.2613L45.1524 52.6127Z" fill="white" stroke="#393939" stroke-width="0.2"/>
<path d="M45.9366 51.5597L48.3115 51.6245L46.8847 49.8899L45.9366 51.5597Z" fill="white" stroke="#393939" stroke-width="0.2"/>
<path d="M43.4298 53.1385L44.9733 54.4625L45.3704 52.5632L43.4298 53.1385Z" fill="white" stroke="#393939" stroke-width="0.2"/>
<path d="M41.7505 52.2145L41.9739 54.046L43.6074 52.9635L41.7505 52.2145Z" fill="white" stroke="#393939" stroke-width="0.2"/>
<path d="M40.0457 50.6236L39.5652 52.4907L41.5549 51.8755L40.0457 50.6236Z" fill="white" stroke="#393939" stroke-width="0.2"/>
<path d="M15.9522 40.1608C14.8182 44.1617 13.1177 47.6005 11.3045 49.9264C10.3971 51.0904 9.47763 51.9549 8.60688 52.4785C7.73817 53.0008 6.95571 53.1634 6.27827 53.0033C5.60082 52.8433 5.00297 52.3546 4.52079 51.5131C4.03748 50.6697 3.69272 49.5064 3.51763 48.0867C3.16774 45.2497 3.50761 41.4894 4.64156 37.4886C5.7755 33.4878 7.47606 30.049 9.28927 27.723C10.1966 26.5591 11.1161 25.6945 11.9869 25.171C12.8556 24.6487 13.638 24.4861 14.3155 24.6461C14.9929 24.8062 15.5908 25.2949 16.073 26.1363C16.5563 26.9798 16.901 28.143 17.0761 29.5627C17.426 32.3997 17.0861 36.16 15.9522 40.1608Z" fill="white" stroke="#C2E2F0"/>
<path d="M35.0476 40.1608C36.1815 44.1617 37.8821 47.6005 39.6953 49.9264C40.6027 51.0904 41.5221 51.9549 42.3929 52.4785C43.2616 53.0008 44.0441 53.1634 44.7215 53.0033C45.3989 52.8433 45.9968 52.3546 46.479 51.5131C46.9623 50.6697 47.307 49.5064 47.4821 48.0867C47.832 45.2497 47.4922 41.4894 46.3582 37.4886C45.2243 33.4878 43.5237 30.049 41.7105 27.723C40.8031 26.5591 39.8837 25.6945 39.0129 25.171C38.1442 24.6487 37.3617 24.4861 36.6843 24.6461C36.0068 24.8062 35.409 25.2949 34.9268 26.1363C34.4435 26.9798 34.0987 28.143 33.9236 29.5627C33.5738 32.3997 33.9136 36.16 35.0476 40.1608Z" fill="white" stroke="#C2E2F0"/>
<path d="M19.5399 5.99392C19.5399 8.98626 16.8683 11.4878 13.4749 11.4878C10.0814 11.4878 7.40982 8.98626 7.40982 5.99392C7.40982 3.00157 10.0814 0.5 13.4749 0.5C16.8683 0.5 19.5399 3.00157 19.5399 5.99392Z" fill="white" stroke="#C2E2F0"/>
<path d="M43.727 5.99392C43.727 8.98626 41.0554 11.4878 37.662 11.4878C34.2685 11.4878 31.5969 8.98626 31.5969 5.99392C31.5969 3.00157 34.2685 0.5 37.662 0.5C41.0554 0.5 43.727 3.00157 43.727 5.99392Z" fill="white" stroke="#C2E2F0"/>
<path d="M39.581 17.6657C39.581 24.6653 33.3513 30.4154 25.5687 30.4154C17.7862 30.4154 11.5565 24.6653 11.5565 17.6657C11.5565 10.6661 17.7862 4.91602 25.5687 4.91602C33.3513 4.91602 39.581 10.6661 39.581 17.6657Z" fill="white" stroke="#C2E2F0"/>
<ellipse cx="20.1714" cy="14.0735" rx="1.903" ry="1.5637" fill="#282828"/>
<ellipse cx="31.3991" cy="14.0735" rx="1.7127" ry="1.5637" fill="#282828"/>
<path d="M25.8807 21.5441C26.7485 23.3124 29.4097 25.8469 33.1121 21.8388" stroke="#282828"/>
<path d="M25.8807 21.5441C24.9673 23.3124 22.1661 25.8469 18.2688 21.8388" stroke="#282828"/>
<path d="M26.9106 21.299C26.1913 21.8532 25.1888 21.8532 24.4694 21.299L23.9152 20.872C22.403 19.707 23.2268 17.2877 25.1358 17.2877L26.2443 17.2877C28.1532 17.2877 28.9771 19.707 27.4649 20.872L26.9106 21.299Z" fill="#282828"/>
<path d="M12.4387 67.8255C9.67451 66.3112 13.3602 61.0955 15.5485 58.6769C17.2071 60.4435 21.714 61.4684 23.7871 61.6788C23.5568 63.887 23.0119 68.3302 22.4591 69.0874C21.768 70.0338 15.894 69.7183 12.4387 67.8255Z" fill="white" stroke="#C2E2F0"/>
<path d="M37.6621 67.8255C40.4263 66.3112 36.7407 61.0955 34.5523 58.6769C32.8937 60.4435 28.3339 61.4684 26.2608 61.6788C26.4911 63.887 27.0889 68.3302 27.6418 69.0874C28.3328 70.0338 34.2068 69.7183 37.6621 67.8255Z" fill="white" stroke="#C2E2F0"/>
</svg>
