<svg width="98" height="128" viewBox="0 0 98 128" fill="none" xmlns="http://www.w3.org/2000/svg">
<g filter="url(#filter0_d_398_61)">
<rect x="5" y="1" width="88" height="118" rx="11" fill="#578549" stroke="#F7F7F7" stroke-width="2"/>
<path d="M37.9297 31.0938C37.6484 31.0938 37.3906 30.9844 37.1562 30.7656C35.5781 29.2865 33.8438 28.2604 31.9531 27.6875C32.0104 29.2031 32.0391 30.0443 32.0391 30.2109C32.0391 30.5078 31.9349 30.7604 31.7266 30.9688C31.5182 31.1719 31.2578 31.2734 30.9453 31.2734C30.6328 31.2734 30.3724 31.1719 30.1641 30.9688C29.9557 30.7604 29.8516 30.5078 29.8516 30.2109C29.8516 29.8203 29.8568 29.237 29.8672 28.4609C29.8776 27.6797 29.8828 27.0938 29.8828 26.7031L29.8984 20.3984C29.8984 20.0599 30 19.7526 30.2031 19.4766C30.4688 19.1224 30.8359 18.9635 31.3047 19C32.5703 19.0938 33.2188 19.1432 33.25 19.1484C33.9792 19.237 34.599 19.4115 35.1094 19.6719C37.3333 20.7917 38.4453 22.1797 38.4453 23.8359C38.4453 24.5182 38.2109 25.1224 37.7422 25.6484C37.2786 26.1693 36.5807 26.6094 35.6484 26.9688C37.0286 27.7396 38.0677 28.526 38.7656 29.3281C38.9479 29.5365 39.0391 29.7682 39.0391 30.0234C39.0391 30.3151 38.9297 30.5677 38.7109 30.7812C38.4922 30.9896 38.2318 31.0938 37.9297 31.0938ZM32.9219 21.2656C32.8802 21.2604 32.5755 21.2396 32.0078 21.2031V25.3516C32.138 25.3568 32.2526 25.3594 32.3516 25.3594C33.6276 25.3594 34.5729 25.2005 35.1875 24.8828C35.4531 24.7474 35.6953 24.5677 35.9141 24.3438C36.138 24.1198 36.25 23.9505 36.25 23.8359C36.25 23.2526 35.8802 22.6901 35.1406 22.1484C34.4375 21.638 33.6979 21.3438 32.9219 21.2656ZM48.0469 20.9844C47.9427 20.9844 47.8333 20.9688 47.7188 20.9375C46.875 20.7083 46.0547 20.5938 45.2578 20.5938C44.8672 20.5938 44.4479 20.625 44 20.6875C43.5521 20.75 43.0755 20.8438 42.5703 20.9688C42.5703 21.6615 42.5469 22.6901 42.5 24.0547C42.7917 24.0339 43.8099 23.9375 45.5547 23.7656C46.5495 23.6667 47.1797 23.6172 47.4453 23.6172C47.7526 23.6172 48.0156 23.7161 48.2344 23.9141C48.4531 24.1068 48.5625 24.3646 48.5625 24.6875C48.5625 25.3073 48.2318 25.6589 47.5703 25.7422C47.1536 25.7734 46.5312 25.8255 45.7031 25.8984C44.9635 25.9818 43.849 26.0833 42.3594 26.2031C42.3229 26.8646 42.3047 27.3984 42.3047 27.8047C42.3047 28.8255 42.3646 29.4062 42.4844 29.5469C42.5417 29.6146 42.8698 29.6484 43.4688 29.6484C43.7917 29.6484 44.2786 29.6406 44.9297 29.625C45.5807 29.6094 46.0677 29.6016 46.3906 29.6016C46.4948 29.6016 46.6484 29.5859 46.8516 29.5547C47.0547 29.5234 47.2057 29.5078 47.3047 29.5078C47.6068 29.5078 47.8646 29.5938 48.0781 29.7656C48.3229 29.9583 48.4453 30.2292 48.4453 30.5781C48.4453 31.1615 48.1406 31.5104 47.5312 31.625C47.0104 31.724 45.9297 31.7734 44.2891 31.7734C42.5911 31.7734 41.4844 31.5443 40.9688 31.0859C40.401 30.5807 40.1172 29.487 40.1172 27.8047C40.1172 27.1068 40.1667 26.0599 40.2656 24.6641C40.3698 23.263 40.4219 22.2161 40.4219 21.5234C40.4219 21.3411 40.3958 21.0729 40.3438 20.7188C40.2917 20.3594 40.2656 20.0885 40.2656 19.9062C40.2656 19.1146 40.6302 18.7188 41.3594 18.7188C41.5885 18.7188 41.7995 18.7839 41.9922 18.9141C42.5964 18.763 43.1693 18.651 43.7109 18.5781C44.2578 18.5 44.7734 18.4609 45.2578 18.4609C46.5703 18.4609 47.6198 18.612 48.4062 18.9141C48.8854 19.0964 49.125 19.4271 49.125 19.9062C49.125 20.1771 49.0312 20.4167 48.8438 20.625C48.6354 20.8646 48.3698 20.9844 48.0469 20.9844ZM51.5859 31.0781C51.2786 31.0729 51.0208 30.9688 50.8125 30.7656C50.6042 30.5573 50.5 30.3073 50.5 30.0156C50.5 29.4948 50.5234 28.7135 50.5703 27.6719C50.6224 26.6302 50.6484 25.849 50.6484 25.3281C50.6484 24.75 50.6354 23.8828 50.6094 22.7266C50.5885 21.5703 50.5781 20.7031 50.5781 20.125C50.5781 19.8385 50.7161 19.5547 50.9922 19.2734C51.2682 18.987 51.5625 18.8438 51.875 18.8438C52.0469 18.8438 52.4792 19.0052 53.1719 19.3281C53.9792 19.7135 54.4583 19.9297 54.6094 19.9766C56.1354 20.4714 57.4375 21.237 58.5156 22.2734C59.8021 23.5078 60.4453 24.8724 60.4453 26.3672C60.4453 27.2682 60.224 28.125 59.7812 28.9375C59.3385 29.7656 58.7318 30.4297 57.9609 30.9297C57.0964 31.4922 55.8802 31.7734 54.3125 31.7734C53.9323 31.7734 53.4948 31.7188 53 31.6094C52.401 31.474 51.9297 31.2969 51.5859 31.0781ZM55.9766 23.0469C55.4714 22.7292 54.388 22.2292 52.7266 21.5469V29.2812C52.9297 29.4115 53.1615 29.5104 53.4219 29.5781C53.6875 29.6406 53.9818 29.6719 54.3047 29.6719C55.4297 29.6719 56.237 29.5156 56.7266 29.2031C57.1901 28.9062 57.5573 28.5026 57.8281 27.9922C58.1042 27.4818 58.2422 26.9505 58.2422 26.3984C58.2422 25.1068 57.487 23.9896 55.9766 23.0469ZM23.4766 48.6406C23.388 48.6406 23.1693 48.6224 22.8203 48.5859C22.7891 49.3151 22.7734 50.513 22.7734 52.1797C22.7734 52.4557 22.6771 52.6927 22.4844 52.8906C22.2917 53.0885 22.0469 53.1875 21.75 53.1875C21.4531 53.1875 21.2057 53.0885 21.0078 52.8906C20.8151 52.6927 20.7188 52.4557 20.7188 52.1797V50C20.7188 49.1927 20.7708 47.9974 20.875 46.4141C20.974 44.8047 21.026 43.6042 21.0312 42.8125C21.0365 41.4583 21.4167 40.8099 22.1719 40.8672C22.349 40.8203 22.5938 40.7865 22.9062 40.7656C23.2188 40.7396 23.599 40.7266 24.0469 40.7266C25.0677 40.7266 26.026 41.0573 26.9219 41.7188C27.9167 42.4583 28.4141 43.3594 28.4141 44.4219C28.4141 45.7552 27.8854 46.8151 26.8281 47.6016C25.8906 48.2943 24.7734 48.6406 23.4766 48.6406ZM23.8672 42.7422C23.7005 42.7422 23.5521 42.7448 23.4219 42.75C23.2969 42.75 23.1901 42.7552 23.1016 42.7656C23.1016 43.0104 23.099 43.3776 23.0938 43.8672C23.0833 44.4453 23.0339 45.3464 22.9453 46.5703C23.2109 46.612 23.388 46.6328 23.4766 46.6328C24.2891 46.6328 24.9635 46.4401 25.5 46.0547C26.0729 45.6432 26.3594 45.099 26.3594 44.4219C26.3594 43.9792 26.0911 43.5859 25.5547 43.2422C25.0391 42.9089 24.4766 42.7422 23.8672 42.7422ZM38.5469 53.2344C38.1354 53.2188 37.7214 52.7344 37.3047 51.7812C37.0286 51.1667 36.7917 50.4583 36.5938 49.6562C36.2083 49.7135 35.5781 49.7708 34.7031 49.8281C33.8802 49.8854 33.25 49.9531 32.8125 50.0312C32.5729 50.6042 32.1562 51.4661 31.5625 52.6172C31.3333 52.9922 31.0156 53.1797 30.6094 53.1797C30.3229 53.1797 30.0651 53.0833 29.8359 52.8906C29.6068 52.6927 29.4922 52.4427 29.4922 52.1406C29.4922 51.875 29.8724 50.974 30.6328 49.4375C30.5599 49.276 30.5286 49.125 30.5391 48.9844C30.5599 48.7344 30.8125 48.5391 31.2969 48.3984C32.0365 47.1172 32.8594 45.7891 33.7656 44.4141C35.0677 42.4401 35.8698 41.4531 36.1719 41.4531C36.7448 41.4531 37.1276 41.7995 37.3203 42.4922C37.4245 43.0495 37.5885 43.8854 37.8125 45C38.1302 46.5 38.5182 48.2161 38.9766 50.1484C39.013 50.2943 39.1458 50.638 39.375 51.1797C39.5625 51.6276 39.6562 51.9635 39.6562 52.1875C39.6562 52.4896 39.5417 52.7422 39.3125 52.9453C39.0885 53.1484 38.8333 53.2448 38.5469 53.2344ZM35.6328 45.2188C35.2266 45.9167 34.6667 46.8672 33.9531 48.0703C34.1875 48.0182 34.5521 47.9766 35.0469 47.9453C35.6302 47.9089 35.9974 47.8802 36.1484 47.8594C36.0234 47.1823 35.8516 46.3021 35.6328 45.2188ZM52.8359 51.0781C52.8359 51.3385 52.7917 51.75 52.7031 52.3125C52.599 52.9844 52.2188 53.3203 51.5625 53.3203C51.1979 53.3203 50.7865 53.1146 50.3281 52.7031C48.3229 50.8958 46.0599 48.362 43.5391 45.1016C43.5078 46.4557 43.4922 47.2865 43.4922 47.5938C43.4922 48.0052 43.5 48.625 43.5156 49.4531C43.5365 50.2812 43.5469 50.901 43.5469 51.3125C43.5469 52.849 43.1719 53.6172 42.4219 53.6172C42.0417 53.6172 41.737 53.5 41.5078 53.2656C41.3047 53.0573 41.2031 52.8047 41.2031 52.5078C41.2031 52.2995 41.2188 51.9844 41.25 51.5625C41.2865 51.1406 41.3047 50.8255 41.3047 50.6172C41.3047 50.3099 41.3151 49.849 41.3359 49.2344C41.3568 48.6198 41.3672 48.1589 41.3672 47.8516C41.3672 47.5234 41.3594 47.0286 41.3438 46.3672C41.3281 45.7057 41.3203 45.2109 41.3203 44.8828C41.3203 44.5703 41.2891 44.1042 41.2266 43.4844C41.1641 42.8646 41.1328 42.3984 41.1328 42.0859C41.1328 41.7734 41.2656 41.4948 41.5312 41.25C41.8021 41.0052 42.1094 40.8828 42.4531 40.8828C42.8385 40.8828 43.2656 41.2161 43.7344 41.8828C46.099 45.2578 48.4323 48.0104 50.7344 50.1406C50.7396 49.974 50.7422 49.5781 50.7422 48.9531C50.7422 46.3854 50.7161 44.6536 50.6641 43.7578C50.6536 43.6068 50.6198 43.3255 50.5625 42.9141C50.5104 42.5495 50.4844 42.263 50.4844 42.0547C50.4844 41.3359 50.8646 40.9766 51.625 40.9766C52.474 40.9766 52.8984 42.2865 52.8984 44.9062C52.8984 44.9635 52.8932 45.375 52.8828 46.1406C52.8516 48.7865 52.8359 50.4323 52.8359 51.0781ZM55.7031 53.0781C55.3958 53.0729 55.138 52.9688 54.9297 52.7656C54.7214 52.5573 54.6172 52.3073 54.6172 52.0156C54.6172 51.4948 54.6406 50.7135 54.6875 49.6719C54.7396 48.6302 54.7656 47.849 54.7656 47.3281C54.7656 46.75 54.7526 45.8828 54.7266 44.7266C54.7057 43.5703 54.6953 42.7031 54.6953 42.125C54.6953 41.8385 54.8333 41.5547 55.1094 41.2734C55.3854 40.987 55.6797 40.8438 55.9922 40.8438C56.1641 40.8438 56.5964 41.0052 57.2891 41.3281C58.0964 41.7135 58.5755 41.9297 58.7266 41.9766C60.2526 42.4714 61.5547 43.237 62.6328 44.2734C63.9193 45.5078 64.5625 46.8724 64.5625 48.3672C64.5625 49.2682 64.3411 50.125 63.8984 50.9375C63.4557 51.7656 62.849 52.4297 62.0781 52.9297C61.2135 53.4922 59.9974 53.7734 58.4297 53.7734C58.0495 53.7734 57.612 53.7188 57.1172 53.6094C56.5182 53.474 56.0469 53.2969 55.7031 53.0781ZM60.0938 45.0469C59.5885 44.7292 58.5052 44.2292 56.8438 43.5469V51.2812C57.0469 51.4115 57.2786 51.5104 57.5391 51.5781C57.8047 51.6406 58.099 51.6719 58.4219 51.6719C59.5469 51.6719 60.3542 51.5156 60.8438 51.2031C61.3073 50.9062 61.6745 50.5026 61.9453 49.9922C62.2214 49.4818 62.3594 48.9505 62.3594 48.3984C62.3594 47.1068 61.6042 45.9896 60.0938 45.0469ZM74.8125 53.2344C74.401 53.2188 73.987 52.7344 73.5703 51.7812C73.2943 51.1667 73.0573 50.4583 72.8594 49.6562C72.474 49.7135 71.8438 49.7708 70.9688 49.8281C70.1458 49.8854 69.5156 49.9531 69.0781 50.0312C68.8385 50.6042 68.4219 51.4661 67.8281 52.6172C67.599 52.9922 67.2812 53.1797 66.875 53.1797C66.5885 53.1797 66.3307 53.0833 66.1016 52.8906C65.8724 52.6927 65.7578 52.4427 65.7578 52.1406C65.7578 51.875 66.138 50.974 66.8984 49.4375C66.8255 49.276 66.7943 49.125 66.8047 48.9844C66.8255 48.7344 67.0781 48.5391 67.5625 48.3984C68.3021 47.1172 69.125 45.7891 70.0312 44.4141C71.3333 42.4401 72.1354 41.4531 72.4375 41.4531C73.0104 41.4531 73.3932 41.7995 73.5859 42.4922C73.6901 43.0495 73.8542 43.8854 74.0781 45C74.3958 46.5 74.7839 48.2161 75.2422 50.1484C75.2786 50.2943 75.4115 50.638 75.6406 51.1797C75.8281 51.6276 75.9219 51.9635 75.9219 52.1875C75.9219 52.4896 75.8073 52.7422 75.5781 52.9453C75.3542 53.1484 75.099 53.2448 74.8125 53.2344ZM71.8984 45.2188C71.4922 45.9167 70.9323 46.8672 70.2188 48.0703C70.4531 48.0182 70.8177 47.9766 71.3125 47.9453C71.8958 47.9089 72.263 47.8802 72.4141 47.8594C72.2891 47.1823 72.1172 46.3021 71.8984 45.2188Z" fill="#F7F7F7"/>
<path d="M27.3096 77.9873C27.182 77.9873 26.904 77.9577 26.4756 77.8984C26.4391 78.5866 26.4209 79.792 26.4209 81.5146C26.4209 81.6969 26.3617 81.8519 26.2432 81.9795C26.1247 82.1025 25.9766 82.1641 25.7988 82.1641C25.6165 82.1641 25.4661 82.1025 25.3477 81.9795C25.2292 81.8519 25.1699 81.6969 25.1699 81.5146V79.5049C25.1699 78.835 25.2109 77.8916 25.293 76.6748C25.3841 75.3577 25.4342 74.4144 25.4434 73.8447V72.9014C25.4434 72.4502 25.4707 72.1221 25.5254 71.917C25.6302 71.516 25.8535 71.3428 26.1953 71.3975C26.3411 71.3519 26.5485 71.3177 26.8174 71.2949C27.0863 71.2721 27.4167 71.2607 27.8086 71.2607C28.6426 71.2607 29.4242 71.5456 30.1533 72.1152C30.9554 72.7441 31.3564 73.5007 31.3564 74.3848C31.3564 75.515 30.9281 76.415 30.0713 77.085C29.3057 77.6865 28.3851 77.9873 27.3096 77.9873ZM27.6514 72.5596C27.4508 72.5596 27.2708 72.5641 27.1113 72.5732C26.9564 72.5824 26.8242 72.596 26.7148 72.6143L26.7012 73.8721L26.5576 76.5928L27.3096 76.6816C28.0752 76.6816 28.7201 76.488 29.2441 76.1006C29.8184 75.6768 30.1055 75.1048 30.1055 74.3848C30.1055 73.8743 29.832 73.4346 29.2852 73.0654C28.7793 72.7282 28.2347 72.5596 27.6514 72.5596ZM40.3184 82.2051C39.8991 82.2051 39.5345 81.6673 39.2246 80.5918C39.1061 80.1816 38.958 79.4639 38.7803 78.4385C38.3154 78.5023 37.707 78.6162 36.9551 78.7803L35.1367 79.1562C34.9089 79.7533 34.5192 80.626 33.9678 81.7744C33.8219 82.0296 33.6237 82.1572 33.373 82.1572C33.1908 82.1572 33.0267 82.0911 32.8809 81.959C32.7396 81.8268 32.6689 81.6628 32.6689 81.4668C32.6689 81.248 33.013 80.4163 33.7012 78.9717C33.6237 78.8532 33.585 78.7165 33.585 78.5615C33.585 78.1924 33.8083 77.9554 34.2549 77.8506C34.7744 76.8753 35.4307 75.7542 36.2236 74.4873C37.3037 72.7601 37.9759 71.8965 38.2402 71.8965C38.6003 71.8965 38.8464 72.1471 38.9785 72.6484L39.4092 74.9453L40.4277 79.6963L40.8174 80.7764C40.9495 81.1455 41.0156 81.3916 41.0156 81.5146C41.0156 81.7106 40.945 81.8747 40.8037 82.0068C40.6624 82.139 40.5007 82.2051 40.3184 82.2051ZM37.9053 74.3916L35.9502 77.543C36.5016 77.4017 37.3379 77.2308 38.459 77.0303L37.9053 74.3916ZM52.5479 80.4824C52.5479 80.7012 52.5114 81.0658 52.4385 81.5762C52.3656 82.0365 52.1217 82.2666 51.707 82.2666C51.4564 82.2666 51.1579 82.1025 50.8115 81.7744C48.9567 80.0199 46.8285 77.4883 44.4268 74.1797L44.3926 75.7314L44.3721 77.29C44.3721 77.6683 44.3789 78.2357 44.3926 78.9922C44.4108 79.7487 44.4199 80.3184 44.4199 80.7012C44.4199 81.9271 44.1829 82.54 43.709 82.54C43.4583 82.54 43.2601 82.4603 43.1143 82.3008C42.9821 82.1595 42.916 81.9909 42.916 81.7949C42.916 81.6035 42.9297 81.3141 42.957 80.9268C42.9889 80.5394 43.0049 80.25 43.0049 80.0586C43.0049 79.776 43.014 79.3545 43.0322 78.7939C43.0505 78.2288 43.0596 77.805 43.0596 77.5225C43.0596 77.2217 43.0527 76.7682 43.0391 76.1621C43.0254 75.5514 43.0186 75.0957 43.0186 74.7949C43.0186 74.5078 42.9912 74.0817 42.9365 73.5166C42.8818 72.9469 42.8545 72.5186 42.8545 72.2314C42.8545 72.0218 42.9434 71.8304 43.1211 71.6572C43.3034 71.484 43.5085 71.3975 43.7363 71.3975C43.9779 71.3975 44.2764 71.6618 44.6318 72.1904C45.7666 73.8903 46.7874 75.3031 47.6943 76.4287C48.7744 77.764 49.9593 79.04 51.249 80.2568C51.2627 80.0609 51.2627 79.7715 51.249 79.3887L51.2285 78.5273C51.2285 76.5267 51.151 74.9339 50.9961 73.749C50.9779 73.6305 50.9163 73.3913 50.8115 73.0312C50.7204 72.7214 50.6748 72.4798 50.6748 72.3066C50.6748 71.778 50.9163 71.5137 51.3994 71.5137C52.1924 71.5137 52.5889 72.9925 52.5889 75.9502C52.5889 76.4561 52.582 77.2126 52.5684 78.2197C52.5547 79.2223 52.5479 79.9766 52.5479 80.4824ZM60.5254 81.9521C59.819 82.4352 58.805 82.6768 57.4834 82.6768C57.1507 82.6768 56.7702 82.6243 56.3418 82.5195C55.8268 82.3965 55.4395 82.237 55.1797 82.041H55.1113C54.9154 82.041 54.7513 81.9727 54.6191 81.8359C54.487 81.6992 54.4209 81.5329 54.4209 81.3369C54.4209 80.8584 54.4414 80.1429 54.4824 79.1904C54.528 78.2334 54.5508 77.5156 54.5508 77.0371C54.5508 76.5039 54.5394 75.7087 54.5166 74.6514C54.4984 73.5895 54.4893 72.792 54.4893 72.2588C54.4893 72.0719 54.585 71.876 54.7764 71.6709C54.9678 71.4658 55.1592 71.3633 55.3506 71.3633C55.46 71.3633 55.8245 71.516 56.4443 71.8213C57.1462 72.1631 57.5518 72.3522 57.6611 72.3887C58.9554 72.8307 60.0583 73.5098 60.9697 74.4258C62.0407 75.5059 62.5762 76.693 62.5762 77.9873C62.5762 78.7666 62.3916 79.514 62.0225 80.2295C61.6579 80.945 61.1589 81.5192 60.5254 81.9521ZM59.0898 74.7197C58.625 74.4144 57.5518 73.8903 55.8701 73.1475L55.9043 75.1162L55.9248 77.0781L55.8154 80.8105C55.8473 80.8242 55.8952 80.8538 55.959 80.8994C56.36 81.1683 56.8659 81.3027 57.4766 81.3027C58.5156 81.3027 59.2721 81.1432 59.7461 80.8242C60.1882 80.5234 60.5391 80.1201 60.7988 79.6143C61.0632 79.1038 61.1953 78.5729 61.1953 78.0215C61.1953 76.7363 60.4935 75.6357 59.0898 74.7197ZM71.8184 82.2051C71.3991 82.2051 71.0345 81.6673 70.7246 80.5918C70.6061 80.1816 70.458 79.4639 70.2803 78.4385C69.8154 78.5023 69.207 78.6162 68.4551 78.7803L66.6367 79.1562C66.4089 79.7533 66.0192 80.626 65.4678 81.7744C65.3219 82.0296 65.1237 82.1572 64.873 82.1572C64.6908 82.1572 64.5267 82.0911 64.3809 81.959C64.2396 81.8268 64.1689 81.6628 64.1689 81.4668C64.1689 81.248 64.513 80.4163 65.2012 78.9717C65.1237 78.8532 65.085 78.7165 65.085 78.5615C65.085 78.1924 65.3083 77.9554 65.7549 77.8506C66.2744 76.8753 66.9307 75.7542 67.7236 74.4873C68.8037 72.7601 69.4759 71.8965 69.7402 71.8965C70.1003 71.8965 70.3464 72.1471 70.4785 72.6484L70.9092 74.9453L71.9277 79.6963L72.3174 80.7764C72.4495 81.1455 72.5156 81.3916 72.5156 81.5146C72.5156 81.7106 72.445 81.8747 72.3037 82.0068C72.1624 82.139 72.0007 82.2051 71.8184 82.2051ZM69.4053 74.3916L67.4502 77.543C68.0016 77.4017 68.8379 77.2308 69.959 77.0303L69.4053 74.3916ZM19.2158 92.6279C18.9333 93.0518 18.7031 93.4961 18.5254 93.9609L18.0059 95.458L16.167 100.428C15.9528 101.011 15.7021 101.581 15.415 102.137C15.2692 102.41 15.0641 102.547 14.7998 102.547C14.4489 102.547 14.2028 102.369 14.0615 102.014C13.5101 100.628 12.8971 98.6344 12.2227 96.0322L11.6826 94.1523C11.4137 93.2044 11.2793 92.5846 11.2793 92.293C11.2793 92.0879 11.3522 91.9193 11.498 91.7871C11.6302 91.6641 11.7897 91.6025 11.9766 91.6025C12.3229 91.6025 12.5462 91.7894 12.6465 92.1631L12.8994 93.3525L13.5557 95.6768C13.9932 97.3721 14.4193 98.8327 14.834 100.059L14.875 99.9492L16.707 94.9863L17.2881 93.3115C17.5479 92.637 17.8236 92.1266 18.1152 91.7803C18.2656 91.598 18.4434 91.5068 18.6484 91.5068C18.8307 91.5068 18.9925 91.5775 19.1338 91.7188C19.2796 91.8555 19.3525 92.0218 19.3525 92.2178C19.3525 92.3545 19.307 92.4912 19.2158 92.6279ZM27.0156 92.7988C26.9518 92.7988 26.8812 92.7874 26.8037 92.7646C26.0335 92.5459 25.2907 92.4365 24.5752 92.4365C24.2015 92.4365 23.7936 92.4707 23.3516 92.5391C22.9095 92.6074 22.4333 92.7122 21.9229 92.8535C21.9639 93.1497 21.9844 93.3867 21.9844 93.5645C21.9844 94.1979 21.9456 95.0684 21.8682 96.1758L24.8623 95.8887C25.7419 95.7975 26.2819 95.752 26.4824 95.752C26.6829 95.752 26.8516 95.8158 26.9883 95.9434C27.125 96.071 27.1934 96.2419 27.1934 96.4561C27.1934 96.8708 26.9837 97.1032 26.5645 97.1533L24.9375 97.2969L21.7793 97.584C21.7611 97.9076 21.7451 98.2152 21.7314 98.5068C21.7223 98.7939 21.7178 99.0628 21.7178 99.3135C21.7178 100.321 21.7907 100.913 21.9365 101.091C22.0459 101.218 22.4036 101.282 23.0098 101.282C23.2923 101.282 23.7161 101.275 24.2812 101.262C24.8509 101.243 25.2793 101.234 25.5664 101.234C25.6576 101.234 25.792 101.221 25.9697 101.193C26.1475 101.161 26.2796 101.146 26.3662 101.146C26.8493 101.146 27.0908 101.382 27.0908 101.856C27.0908 102.239 26.8971 102.469 26.5098 102.547C26.0814 102.633 25.154 102.677 23.7275 102.677C22.3148 102.677 21.4079 102.49 21.0068 102.116C20.5693 101.711 20.3506 100.776 20.3506 99.3135C20.3506 99.0218 20.3574 98.7028 20.3711 98.3564C20.3848 98.0101 20.403 97.6364 20.4258 97.2354C20.3757 97.1305 20.3506 97.0189 20.3506 96.9004C20.3506 96.7454 20.3939 96.6064 20.4805 96.4834C20.5716 95.1663 20.6172 94.1934 20.6172 93.5645C20.6172 93.3958 20.5944 93.1497 20.5488 92.8262C20.5033 92.498 20.4805 92.2497 20.4805 92.0811C20.4805 91.5387 20.7083 91.2676 21.1641 91.2676C21.3555 91.2676 21.5195 91.3337 21.6562 91.4658C22.2031 91.32 22.7181 91.2106 23.2012 91.1377C23.6888 91.0648 24.1468 91.0283 24.5752 91.0283C25.6826 91.0283 26.5667 91.1605 27.2275 91.4248C27.5329 91.5479 27.6855 91.7666 27.6855 92.0811C27.6855 92.2633 27.6263 92.4251 27.5078 92.5664C27.3757 92.7214 27.2116 92.7988 27.0156 92.7988ZM35.8408 102.075C35.6676 102.075 35.5059 102.002 35.3555 101.856C33.847 100.366 32.1699 99.3636 30.3242 98.8486L30.3789 100.188L30.4131 101.535C30.4131 101.736 30.347 101.902 30.2148 102.034C30.0872 102.171 29.9255 102.239 29.7295 102.239C29.5335 102.239 29.3695 102.171 29.2373 102.034C29.1097 101.902 29.0459 101.736 29.0459 101.535C29.0459 101.175 29.0277 100.64 28.9912 99.9287C28.9593 99.2132 28.9434 98.6755 28.9434 98.3154C28.9434 97.8962 28.9889 97.2718 29.0801 96.4424C29.1712 95.613 29.2168 94.9909 29.2168 94.5762C29.2168 94.3438 29.194 93.9997 29.1484 93.5439C29.1074 93.0882 29.0869 92.7441 29.0869 92.5117C29.0869 92.252 29.1598 92.0241 29.3057 91.8281C29.4788 91.5866 29.7181 91.4772 30.0234 91.5L31.6709 91.6299C32.2952 91.7074 32.8216 91.86 33.25 92.0879C35.0957 93.0677 36.0186 94.264 36.0186 95.6768C36.0186 96.3695 35.7041 96.9824 35.0752 97.5156C34.5693 97.944 33.9382 98.2699 33.1816 98.4932C34.599 99.2542 35.6585 100.056 36.3604 100.899C36.4788 101.045 36.5381 101.2 36.5381 101.364C36.5381 101.556 36.4674 101.722 36.3262 101.863C36.1895 102.005 36.0277 102.075 35.8408 102.075ZM31.4863 93.0381L30.4746 92.9561L30.543 93.7832C30.5749 94.1204 30.5908 94.3962 30.5908 94.6104C30.5908 94.9749 30.5612 95.4284 30.502 95.9707L30.3584 97.3311C30.4222 97.3311 30.5202 97.3333 30.6523 97.3379C30.7891 97.3424 30.8916 97.3447 30.96 97.3447C32.1221 97.3447 32.9925 97.1898 33.5713 96.8799C33.8265 96.7386 34.0635 96.554 34.2822 96.3262C34.5238 96.071 34.6445 95.8545 34.6445 95.6768C34.6445 95.0433 34.2845 94.4531 33.5645 93.9062C32.9036 93.4049 32.2109 93.1156 31.4863 93.0381ZM48.0566 102.567C47.8105 102.567 47.6077 102.44 47.4482 102.185C47.3115 101.966 47.1885 101.601 47.0791 101.091L46.833 99.915C46.6462 99.1859 46.3499 97.5771 45.9443 95.0889L44.5771 99.2109L44.1738 100.51C44.0098 101.025 43.8389 101.446 43.6611 101.774C43.4697 102.121 43.2122 102.294 42.8887 102.294C42.6198 102.294 42.4079 102.148 42.2529 101.856C42.1527 101.665 42.0615 101.421 41.9795 101.125L41.7812 100.366C41.321 98.7575 40.9154 97.0348 40.5645 95.1982L40.3184 96.4219L39.4365 100.031C39.4001 100.455 39.2861 101.082 39.0947 101.911C38.958 102.267 38.7324 102.444 38.418 102.444C38.1947 102.444 38.0169 102.365 37.8848 102.205C37.7708 102.068 37.7139 101.9 37.7139 101.699C37.7139 100.938 37.8711 100.004 38.1855 98.8965L38.9375 96.1416L39.334 93.9883C39.5345 92.9811 39.7464 92.3226 39.9697 92.0127C40.152 91.7484 40.3776 91.6162 40.6465 91.6162C40.9427 91.6162 41.1637 91.7848 41.3096 92.1221C41.4873 92.5277 41.6787 93.3548 41.8838 94.6035C42.1253 96.1029 42.5013 97.7253 43.0117 99.4707C43.6862 97.7161 44.2695 95.8887 44.7617 93.9883L44.9668 92.9902C45.0488 92.5892 45.1559 92.2656 45.2881 92.0195C45.4658 91.6823 45.7096 91.5137 46.0195 91.5137C46.4115 91.5137 46.71 91.8919 46.915 92.6484C46.988 92.9082 47.0768 93.446 47.1816 94.2617C47.4505 96.3216 47.7855 98.0807 48.1865 99.5391L48.5215 100.715C48.6947 101.344 48.7812 101.731 48.7812 101.877C48.7812 102.073 48.7061 102.237 48.5557 102.369C48.4098 102.501 48.2435 102.567 48.0566 102.567ZM56.9297 92.7988C56.8659 92.7988 56.7952 92.7874 56.7178 92.7646C55.9476 92.5459 55.2048 92.4365 54.4893 92.4365C54.1156 92.4365 53.7077 92.4707 53.2656 92.5391C52.8236 92.6074 52.3473 92.7122 51.8369 92.8535C51.8779 93.1497 51.8984 93.3867 51.8984 93.5645C51.8984 94.1979 51.8597 95.0684 51.7822 96.1758L54.7764 95.8887C55.6559 95.7975 56.196 95.752 56.3965 95.752C56.597 95.752 56.7656 95.8158 56.9023 95.9434C57.0391 96.071 57.1074 96.2419 57.1074 96.4561C57.1074 96.8708 56.8978 97.1032 56.4785 97.1533L54.8516 97.2969L51.6934 97.584C51.6751 97.9076 51.6592 98.2152 51.6455 98.5068C51.6364 98.7939 51.6318 99.0628 51.6318 99.3135C51.6318 100.321 51.7048 100.913 51.8506 101.091C51.96 101.218 52.3177 101.282 52.9238 101.282C53.2064 101.282 53.6302 101.275 54.1953 101.262C54.765 101.243 55.1934 101.234 55.4805 101.234C55.5716 101.234 55.7061 101.221 55.8838 101.193C56.0615 101.161 56.1937 101.146 56.2803 101.146C56.7633 101.146 57.0049 101.382 57.0049 101.856C57.0049 102.239 56.8112 102.469 56.4238 102.547C55.9954 102.633 55.068 102.677 53.6416 102.677C52.2288 102.677 51.3219 102.49 50.9209 102.116C50.4834 101.711 50.2646 100.776 50.2646 99.3135C50.2646 99.0218 50.2715 98.7028 50.2852 98.3564C50.2988 98.0101 50.3171 97.6364 50.3398 97.2354C50.2897 97.1305 50.2646 97.0189 50.2646 96.9004C50.2646 96.7454 50.3079 96.6064 50.3945 96.4834C50.4857 95.1663 50.5312 94.1934 50.5312 93.5645C50.5312 93.3958 50.5085 93.1497 50.4629 92.8262C50.4173 92.498 50.3945 92.2497 50.3945 92.0811C50.3945 91.5387 50.6224 91.2676 51.0781 91.2676C51.2695 91.2676 51.4336 91.3337 51.5703 91.4658C52.1172 91.32 52.6322 91.2106 53.1152 91.1377C53.6029 91.0648 54.0609 91.0283 54.4893 91.0283C55.5967 91.0283 56.4808 91.1605 57.1416 91.4248C57.4469 91.5479 57.5996 91.7666 57.5996 92.0811C57.5996 92.2633 57.5404 92.4251 57.4219 92.5664C57.2897 92.7214 57.1257 92.7988 56.9297 92.7988ZM65.0645 101.72C64.5495 101.961 63.7406 102.178 62.6377 102.369C61.6214 102.547 60.792 102.636 60.1494 102.636C59.6891 102.636 59.3587 102.565 59.1582 102.424C58.8848 102.232 58.748 101.882 58.748 101.371L58.8848 99.1084C59.0033 97.0212 59.0625 94.7061 59.0625 92.1631C59.0625 91.9671 59.1263 91.8008 59.2539 91.6641C59.3861 91.5273 59.5479 91.459 59.7393 91.459C59.9352 91.459 60.097 91.5273 60.2246 91.6641C60.3568 91.8008 60.4229 91.9671 60.4229 92.1631C60.4229 94.738 60.3613 97.0804 60.2383 99.1904L60.1494 100.229C60.113 100.608 60.0993 100.943 60.1084 101.234C61.2979 101.248 62.8018 100.968 64.6201 100.394C64.6976 100.371 64.7705 100.359 64.8389 100.359C65.0348 100.359 65.1989 100.437 65.3311 100.592C65.445 100.733 65.502 100.895 65.502 101.077C65.502 101.369 65.3561 101.583 65.0645 101.72ZM75.7217 92.3682C75.6533 92.5596 75.6191 92.8398 75.6191 93.209C75.6191 93.3457 75.6237 93.5485 75.6328 93.8174C75.6419 94.0863 75.6465 94.2891 75.6465 94.4258C75.6465 94.8815 75.6055 95.5605 75.5234 96.4629C75.446 97.3652 75.4072 98.0443 75.4072 98.5C75.4072 98.8464 75.4323 99.3659 75.4824 100.059C75.5326 100.751 75.5576 101.273 75.5576 101.624C75.5576 101.811 75.4938 101.968 75.3662 102.096C75.2432 102.223 75.0882 102.287 74.9014 102.287C74.7191 102.287 74.5641 102.223 74.4365 102.096C74.3089 101.968 74.2451 101.811 74.2451 101.624C74.2451 101.273 74.2201 100.751 74.1699 100.059C74.1198 99.3659 74.0947 98.8464 74.0947 98.5C74.0947 98.1673 74.1061 97.8301 74.1289 97.4883C73.3496 97.502 72.3857 97.6182 71.2373 97.8369L68.3662 98.3975C68.3662 98.8076 68.3252 99.391 68.2432 100.147C68.1611 100.899 68.1201 101.483 68.1201 101.897C68.1201 102.084 68.0563 102.242 67.9287 102.369C67.8057 102.501 67.6507 102.567 67.4639 102.567C67.277 102.567 67.1198 102.501 66.9922 102.369C66.8691 102.242 66.8076 102.084 66.8076 101.897C66.8076 101.414 66.8464 100.694 66.9238 99.7373C67.0059 98.7757 67.0469 98.0534 67.0469 97.5703C67.0469 97.3197 67.0378 96.9414 67.0195 96.4355C67.0013 95.9297 66.9922 95.5492 66.9922 95.2939C66.9922 94.9339 67.015 94.3939 67.0605 93.6738C67.1061 92.9492 67.1289 92.4069 67.1289 92.0469C67.1289 91.8555 67.1904 91.696 67.3135 91.5684C67.4411 91.4408 67.5983 91.377 67.7852 91.377C67.972 91.377 68.127 91.4408 68.25 91.5684C68.3776 91.696 68.4414 91.8555 68.4414 92.0469C68.4414 92.4115 68.4163 92.9583 68.3662 93.6875C68.3206 94.4121 68.2979 94.9567 68.2979 95.3213L68.3389 97.0508L71.2715 96.4971C72.4427 96.2783 73.4294 96.1644 74.2314 96.1553C74.2816 95.5036 74.3066 94.5215 74.3066 93.209C74.3066 92.8626 74.3636 92.5117 74.4775 92.1562C74.6279 91.6686 74.8398 91.4248 75.1133 91.4248C75.2865 91.4248 75.4414 91.4886 75.5781 91.6162C75.7148 91.7393 75.7832 91.8965 75.7832 92.0879C75.7832 92.1562 75.7627 92.2497 75.7217 92.3682ZM82.0107 102.417C80.7256 102.417 79.6364 102.032 78.7432 101.262C77.7952 100.441 77.3213 99.3841 77.3213 98.0898C77.3213 96.513 77.7884 95.0798 78.7227 93.79C79.7663 92.359 81.0674 91.6436 82.626 91.6436C84.1253 91.6436 85.2396 91.9808 85.9688 92.6553C86.7298 93.3571 87.1104 94.4645 87.1104 95.9775C87.1104 97.5544 86.682 98.9762 85.8252 100.243C84.8408 101.692 83.5693 102.417 82.0107 102.417ZM82.626 93.0449C81.5094 93.0449 80.5638 93.6009 79.7891 94.7129C79.0736 95.7337 78.7158 96.8594 78.7158 98.0898C78.7158 98.9694 79.0417 99.6849 79.6934 100.236C80.3177 100.756 81.0902 101.016 82.0107 101.016C83.1182 101.016 84.0319 100.457 84.752 99.3408C85.3945 98.3428 85.7158 97.2217 85.7158 95.9775C85.7158 94.8883 85.472 94.1227 84.9844 93.6807C84.5195 93.2568 83.7334 93.0449 82.626 93.0449Z" fill="#F7F7F7"/>
</g>
<defs>
<filter id="filter0_d_398_61" x="0" y="0" width="98" height="128" filterUnits="userSpaceOnUse" color-interpolation-filters="sRGB">
<feFlood flood-opacity="0" result="BackgroundImageFix"/>
<feColorMatrix in="SourceAlpha" type="matrix" values="0 0 0 0 0 0 0 0 0 0 0 0 0 0 0 0 0 0 127 0" result="hardAlpha"/>
<feOffset dy="4"/>
<feGaussianBlur stdDeviation="2"/>
<feComposite in2="hardAlpha" operator="out"/>
<feColorMatrix type="matrix" values="0 0 0 0 0 0 0 0 0 0 0 0 0 0 0 0 0 0 0.25 0"/>
<feBlend mode="normal" in2="BackgroundImageFix" result="effect1_dropShadow_398_61"/>
<feBlend mode="normal" in="SourceGraphic" in2="effect1_dropShadow_398_61" result="shape"/>
</filter>
</defs>
</svg>
