<svg width="98" height="128" viewBox="0 0 98 128" fill="none" xmlns="http://www.w3.org/2000/svg">
<g filter="url(#filter0_d_450_21)">
<rect x="5" y="1" width="88" height="118" rx="11" fill="#E5D8E5" stroke="#F7F7F7" stroke-width="2"/>
<path d="M62.2041 87.5567C61.6274 87.0005 58.2255 86.9077 56.5967 86.9309H55.5554C54.7009 87.2322 53.3925 87.7235 54.9946 87.2786C56.9973 86.7223 60.4418 87.5567 62.2041 87.5567Z" fill="#683A0F" stroke="#282828"/>
<path d="M45.6417 54.9565C47.7382 54.621 48.8213 49.5056 49.1009 46.9899C57.2422 47.5489 73.5877 48.7719 73.8392 49.1912C74.1537 49.7153 74.0489 52.1262 74.0489 53.3841C74.3634 54.5372 73.5248 62.3989 73.0006 65.1244C72.5814 69.2125 70.0656 74.6633 68.8077 77.1791C65.2856 83.4685 60.1423 85.9493 58.0109 86.4036C57.4868 86.5783 56.4523 86.9277 56.3337 86.9277C56.124 86.9277 54.5517 87.2421 51.9311 87.347C43.4404 87.2421 31.805 81.5817 30.8616 81.0576C33.6918 79.3804 33.9014 78.2273 33.7966 78.2273C32.6436 78.8563 30.5471 79.3804 29.1844 79.1707C27.8217 78.9611 27.4024 77.7032 27.2975 77.3887C26.5638 78.0177 23.9432 78.8563 23.2094 79.0659C25.83 77.3887 26.3541 75.1874 26.6686 74.1392C26.5848 72.6297 28.1012 70.4354 28.8699 69.527C37.9896 59.3591 44.279 55.6902 45.6417 54.9565Z" fill="#FFFEFE"/>
<circle cx="61.8896" cy="45.103" r="12.603" fill="white" stroke="#C2E2F0"/>
<path d="M61.8895 53.0878L61.0725 50.2575L62.7065 50.2575L61.8895 53.0878Z" fill="#282828"/>
<path d="M52.5626 45.8589C52.8203 45.1717 52.3908 45.0858 52.8203 44.9999C52.9436 44.9752 53.5197 45.1699 54.2806 45.4784C54.919 45.7372 55.6877 46.0761 56.428 46.4327C57.4523 46.9261 57.2199 46.7514 57.7164 47.1473C55.2254 48.1929 55.1394 47.9204 54.5382 47.9204C53.5587 47.9204 52.5053 46.9469 52.5626 45.8589Z" fill="#B7A92D"/>
<path d="M54.2799 45.515C54.6521 46.6889 55.6027 48.5214 56.4273 46.4599C55.8089 46.1163 54.738 45.6868 54.2799 45.515Z" fill="#282828"/>
<path d="M58.5754 49.2089C58.8331 49.1516 59.3313 48.8825 59.2626 48.264C59.2507 48.1566 57.9234 47.3124 57.7164 47.1473M57.7164 47.1473C55.2254 48.1929 55.1394 47.9204 54.5382 47.9204C53.5587 47.9204 52.5053 46.9469 52.5626 45.8589C52.8203 45.1717 52.3908 45.0858 52.8203 44.9999C52.9436 44.9752 53.5197 45.1699 54.2806 45.4784M57.7164 47.1473C57.2199 46.7514 57.4523 46.9261 56.428 46.4327M54.2806 45.4784C54.919 45.7372 55.6877 46.0761 56.428 46.4327M54.2806 45.4784C54.6528 46.6749 55.6034 48.541 56.428 46.4327" stroke="#282828"/>
<path d="M70.7974 45.8589C70.5397 45.1717 70.9691 45.0858 70.5396 44.9999C70.4163 44.9752 69.8402 45.1699 69.0794 45.4784C68.4409 45.7372 67.6723 46.0761 66.9319 46.4327C65.9076 46.9261 66.14 46.7514 65.6435 47.1473C68.1345 48.1929 68.2205 47.9204 68.8217 47.9204C69.8012 47.9204 70.8546 46.9469 70.7974 45.8589Z" fill="#B7A92D"/>
<path d="M69.0791 45.515C68.7069 46.6889 67.7563 48.5214 66.9317 46.4599C67.5502 46.1163 68.621 45.6868 69.0791 45.515Z" fill="#282828"/>
<path d="M64.7845 49.2089C64.5268 49.1516 64.0286 48.8825 64.0973 48.264C64.1093 48.1566 65.4365 47.3124 65.6435 47.1473M65.6435 47.1473C68.1345 48.1929 68.2205 47.9204 68.8217 47.9204C69.8012 47.9204 70.8546 46.9469 70.7974 45.8589C70.5397 45.1717 70.9691 45.0858 70.5396 44.9999C70.4163 44.9752 69.8402 45.1699 69.0794 45.4784M65.6435 47.1473C66.14 46.7514 65.9076 46.9261 66.9319 46.4327M69.0794 45.4784C68.4409 45.7372 67.6723 46.0761 66.9319 46.4327M69.0794 45.4784C68.7071 46.6749 67.7565 48.541 66.9319 46.4327" stroke="#282828"/>
<line x1="52.9702" y1="43.5778" x2="52.3412" y2="42.5296" stroke="#C2E2F0"/>
<line y1="-0.5" x2="1.22244" y2="-0.5" transform="matrix(0.514496 -0.857493 -0.857493 -0.514496 69.3318 43.3206)" stroke="#C2E2F0"/>
<line x1="54.2564" y1="41.5246" x2="53.6274" y2="40.686" stroke="#C2E2F0"/>
<line x1="61.4943" y1="48.1432" x2="61.4943" y2="47.095" stroke="#C2E2F0"/>
<line x1="68.647" y1="41.0177" x2="68.9717" y2="40.021" stroke="#C2E2F0"/>
<path d="M49.1011 46.9899C48.8914 49.4358 47.7593 54.5372 45.7467 54.9565C43.7897 55.3642 33.4594 63.9548 28.9181 69.5269M43.5454 61.5604C42.3903 63.5284 41.15 65.3061 39.8673 66.9064M27.2978 77.4268C25.5655 78.3253 24.0773 78.8897 23 79.1707C24.2229 78.4719 26.6898 76.3195 26.7737 73.3006C26.7969 72.4625 27.6216 71.1177 28.9181 69.5269M27.2978 77.4268C27.6791 78.8718 29.4907 80.2687 33.7968 78.1908M27.2978 77.4268C29.3727 76.3504 31.7978 74.7946 34.2863 72.6717M41.3889 72.5936C40.0549 73.772 38.8626 74.7723 37.7801 75.6084M33.7968 78.1908C35.7575 79.4625 40.5631 80.3739 46.795 76.6141M33.7968 78.1908C34.9674 77.6259 36.2663 76.7777 37.7801 75.6084M52.7699 71.8331C52.2478 72.3552 51.7312 72.8438 51.2209 73.3006M46.795 76.6141C50.3939 77.2566 58.3465 76.8436 61.3655 70.0511M46.795 76.6141C48.2029 75.7646 49.6837 74.6767 51.2209 73.3006M28.9181 69.5269C28.8672 71.309 30.1909 73.4054 35.8933 67.5353M34.2863 72.6717C34.5774 74.1392 37.277 75.6696 45.7467 70.0511M34.2863 72.6717C36.1513 71.0807 38.0518 69.1712 39.8673 66.9064M37.7801 75.6084C38.4091 77.5995 40.8829 80.0303 45.7467 73.8247M51.2209 73.3006C51.7023 74.4187 53.7762 75.3342 58.2207 70.0511M39.8673 66.9064C39.9403 68.7233 41.428 71.0783 46.795 65.9629" stroke="#C2E2F0"/>
<path d="M73.9441 49.6106C74.8526 63.7618 70.9881 91.0369 47.4238 86.9278C41.1343 85.5861 33.6919 82.4553 30.7568 81.0577C31.6653 80.5685 33.5661 79.3176 33.9015 78.2275" stroke="#C2E2F0"/>
<path d="M60.8411 88.2903C60.0864 87.4517 55.6349 87.3119 53.5035 87.3468H52.1408C51.0227 87.8011 49.3105 88.5418 51.407 87.871C54.0276 87.0324 58.535 88.2903 60.8411 88.2903Z" fill="#683A0F" stroke="#282828"/>
<path d="M53.6084 39.6521C52.9445 38.4991 52.2876 36.6122 54.9711 38.2894" stroke="#C2E2F0"/>
<path d="M54.5194 51.5935C53.4487 52.3834 51.6481 53.2491 53.0116 50.3934" stroke="#C2E2F0"/>
<path d="M69.6042 39.5713C70.0617 38.3219 70.3871 36.3507 68.0291 38.461" stroke="#C2E2F0"/>
<path d="M68.2472 51.8484C69.4752 52.3607 71.4301 52.7729 69.426 50.3238" stroke="#C2E2F0"/>
<path d="M62.7148 36.5746C62.3689 35.2898 61.4992 33.4912 60.7876 36.5746" stroke="#C2E2F0"/>
<path d="M60.9646 36.0506C60.0302 35.0886 58.3856 33.9421 59.2823 37.0519" stroke="#C2E2F0"/>
<path d="M64.4994 36.8295C64.6799 35.5006 64.5176 33.464 62.6235 36.0884" stroke="#C2E2F0"/>
</g>
<defs>
<filter id="filter0_d_450_21" x="0" y="0" width="98" height="128" filterUnits="userSpaceOnUse" color-interpolation-filters="sRGB">
<feFlood flood-opacity="0" result="BackgroundImageFix"/>
<feColorMatrix in="SourceAlpha" type="matrix" values="0 0 0 0 0 0 0 0 0 0 0 0 0 0 0 0 0 0 127 0" result="hardAlpha"/>
<feOffset dy="4"/>
<feGaussianBlur stdDeviation="2"/>
<feComposite in2="hardAlpha" operator="out"/>
<feColorMatrix type="matrix" values="0 0 0 0 0 0 0 0 0 0 0 0 0 0 0 0 0 0 0.25 0"/>
<feBlend mode="normal" in2="BackgroundImageFix" result="effect1_dropShadow_450_21"/>
<feBlend mode="normal" in="SourceGraphic" in2="effect1_dropShadow_450_21" result="shape"/>
</filter>
</defs>
</svg>
