<svg width="53" height="57" viewBox="0 0 53 57" fill="none" xmlns="http://www.w3.org/2000/svg">
<path d="M40.2041 55.5567C39.6274 55.0005 36.2255 54.9077 34.5967 54.9309H33.5554C32.7009 55.2322 31.3925 55.7235 32.9946 55.2786C34.9973 54.7223 38.4418 55.5567 40.2041 55.5567Z" fill="#683A0F" stroke="#282828"/>
<path d="M23.6417 22.9565C25.7382 22.621 26.8213 17.5056 27.1009 14.9899C35.2422 15.5489 51.5877 16.7719 51.8392 17.1912C52.1537 17.7153 52.0489 20.1262 52.0489 21.3841C52.3634 22.5372 51.5248 30.3989 51.0006 33.1244C50.5814 37.2125 48.0656 42.6633 46.8077 45.1791C43.2856 51.4685 38.1423 53.9493 36.0109 54.4036C35.4868 54.5783 34.4523 54.9277 34.3337 54.9277C34.124 54.9277 32.5517 55.2421 29.9311 55.347C21.4404 55.2421 9.80496 49.5817 8.86155 49.0576C11.6918 47.3804 11.9014 46.2273 11.7966 46.2273C10.6436 46.8563 8.54708 47.3804 7.18437 47.1707C5.82167 46.9611 5.40237 45.7032 5.29755 45.3887C4.56378 46.0177 1.94319 46.8563 1.20943 47.0659C3.83002 45.3887 4.35414 43.1874 4.66862 42.1392C4.58476 40.6297 6.10121 38.4354 6.86992 37.527C15.9896 27.3591 22.279 23.6902 23.6417 22.9565Z" fill="#FFFEFE"/>
<circle cx="39.8896" cy="13.103" r="12.603" fill="white" stroke="#C2E2F0"/>
<path d="M39.8895 21.0878L39.0725 18.2575L40.7065 18.2575L39.8895 21.0878Z" fill="#282828"/>
<path d="M30.5626 13.8589C30.8203 13.1717 30.3908 13.0858 30.8203 12.9999C30.9436 12.9752 31.5197 13.1699 32.2806 13.4784C32.919 13.7372 33.6877 14.0761 34.428 14.4327C35.4523 14.9261 35.2199 14.7514 35.7164 15.1473C33.2254 16.1929 33.1394 15.9204 32.5382 15.9204C31.5587 15.9204 30.5053 14.9469 30.5626 13.8589Z" fill="#B7A92D"/>
<path d="M32.2799 13.515C32.6521 14.6889 33.6027 16.5214 34.4273 14.4599C33.8089 14.1163 32.738 13.6868 32.2799 13.515Z" fill="#282828"/>
<path d="M36.5754 17.2089C36.8331 17.1516 37.3313 16.8825 37.2626 16.264C37.2507 16.1566 35.9234 15.3124 35.7164 15.1473M35.7164 15.1473C33.2254 16.1929 33.1394 15.9204 32.5382 15.9204C31.5587 15.9204 30.5053 14.9469 30.5626 13.8589C30.8203 13.1717 30.3908 13.0858 30.8203 12.9999C30.9436 12.9752 31.5197 13.1699 32.2806 13.4784M35.7164 15.1473C35.2199 14.7514 35.4523 14.9261 34.428 14.4327M32.2806 13.4784C32.919 13.7372 33.6877 14.0761 34.428 14.4327M32.2806 13.4784C32.6528 14.6749 33.6034 16.541 34.428 14.4327" stroke="#282828"/>
<path d="M48.7974 13.8589C48.5397 13.1717 48.9691 13.0858 48.5396 12.9999C48.4163 12.9752 47.8402 13.1699 47.0794 13.4784C46.4409 13.7372 45.6723 14.0761 44.9319 14.4327C43.9076 14.9261 44.14 14.7514 43.6435 15.1473C46.1345 16.1929 46.2205 15.9204 46.8217 15.9204C47.8012 15.9204 48.8546 14.9469 48.7974 13.8589Z" fill="#B7A92D"/>
<path d="M47.0791 13.515C46.7069 14.6889 45.7563 16.5214 44.9317 14.4599C45.5502 14.1163 46.621 13.6868 47.0791 13.515Z" fill="#282828"/>
<path d="M42.7845 17.2089C42.5268 17.1516 42.0286 16.8825 42.0973 16.264C42.1093 16.1566 43.4365 15.3124 43.6435 15.1473M43.6435 15.1473C46.1345 16.1929 46.2205 15.9204 46.8217 15.9204C47.8012 15.9204 48.8546 14.9469 48.7974 13.8589C48.5397 13.1717 48.9691 13.0858 48.5396 12.9999C48.4163 12.9752 47.8402 13.1699 47.0794 13.4784M43.6435 15.1473C44.14 14.7514 43.9076 14.9261 44.9319 14.4327M47.0794 13.4784C46.4409 13.7372 45.6723 14.0761 44.9319 14.4327M47.0794 13.4784C46.7071 14.6749 45.7565 16.541 44.9319 14.4327" stroke="#282828"/>
<line x1="30.9702" y1="11.5778" x2="30.3412" y2="10.5296" stroke="#C2E2F0"/>
<line y1="-0.5" x2="1.22244" y2="-0.5" transform="matrix(0.514496 -0.857493 -0.857493 -0.514496 47.3318 11.3206)" stroke="#C2E2F0"/>
<line x1="32.2564" y1="9.52461" x2="31.6274" y2="8.68602" stroke="#C2E2F0"/>
<line x1="39.4943" y1="16.1432" x2="39.4943" y2="15.095" stroke="#C2E2F0"/>
<line x1="46.647" y1="9.01773" x2="46.9717" y2="8.02105" stroke="#C2E2F0"/>
<path d="M27.1011 14.9899C26.8914 17.4358 25.7593 22.5372 23.7467 22.9565C21.7897 23.3642 11.4594 31.9548 6.91811 37.5269M21.5454 29.5604C20.3903 31.5284 19.15 33.3061 17.8673 34.9064M5.29777 45.4268C3.56552 46.3253 2.07731 46.8897 1 47.1707C2.22294 46.4719 4.68979 44.3195 4.77365 41.3006C4.79693 40.4625 5.6216 39.1177 6.91811 37.5269M5.29777 45.4268C5.67907 46.8718 7.49068 48.2687 11.7968 46.1908M5.29777 45.4268C7.37273 44.3504 9.79783 42.7946 12.2863 40.6717M19.3889 40.5936C18.0549 41.772 16.8626 42.7723 15.7801 43.6084M11.7968 46.1908C13.7575 47.4625 18.5631 48.3739 24.795 44.6141M11.7968 46.1908C12.9674 45.6259 14.2663 44.7777 15.7801 43.6084M30.7699 39.8331C30.2478 40.3552 29.7312 40.8438 29.2209 41.3006M24.795 44.6141C28.3939 45.2566 36.3465 44.8436 39.3655 38.0511M24.795 44.6141C26.2029 43.7646 27.6837 42.6767 29.2209 41.3006M6.91811 37.5269C6.86717 39.309 8.1909 41.4054 13.8933 35.5353M12.2863 40.6717C12.5774 42.1392 15.277 43.6696 23.7467 38.0511M12.2863 40.6717C14.1513 39.0807 16.0518 37.1712 17.8673 34.9064M15.7801 43.6084C16.4091 45.5995 18.8829 48.0303 23.7467 41.8247M29.2209 41.3006C29.7023 42.4187 31.7762 43.3342 36.2207 38.0511M17.8673 34.9064C17.9403 36.7233 19.428 39.0783 24.795 33.9629" stroke="#C2E2F0"/>
<path d="M51.9441 17.6106C52.8526 31.7618 48.9881 59.0369 25.4238 54.9278C19.1343 53.5861 11.6919 50.4553 8.7568 49.0577C9.66527 48.5685 11.5661 47.3176 11.9015 46.2275" stroke="#C2E2F0"/>
<path d="M38.8411 56.2903C38.0864 55.4517 33.6349 55.3119 31.5035 55.3468H30.1408C29.0227 55.8011 27.3105 56.5418 29.407 55.871C32.0276 55.0324 36.535 56.2903 38.8411 56.2903Z" fill="#683A0F" stroke="#282828"/>
<path d="M31.6084 7.65212C30.9445 6.49906 30.2876 4.61224 32.9711 6.28942" stroke="#C2E2F0"/>
<path d="M32.5194 19.5935C31.4487 20.3834 29.6481 21.2491 31.0116 18.3934" stroke="#C2E2F0"/>
<path d="M47.6042 7.57128C48.0617 6.32188 48.3871 4.35065 46.0291 6.461" stroke="#C2E2F0"/>
<path d="M46.2472 19.8484C47.4752 20.3607 49.4301 20.7729 47.426 18.3238" stroke="#C2E2F0"/>
<path d="M40.7148 4.57461C40.3689 3.28984 39.4992 1.49116 38.7876 4.57461" stroke="#C2E2F0"/>
<path d="M38.9646 4.05061C38.0302 3.08864 36.3856 1.94214 37.2823 5.0519" stroke="#C2E2F0"/>
<path d="M42.4994 4.82948C42.6799 3.50061 42.5176 1.464 40.6235 4.08838" stroke="#C2E2F0"/>
</svg>
