<svg width="98" height="128" viewBox="0 0 98 128" fill="none" xmlns="http://www.w3.org/2000/svg">
<g filter="url(#filter0_d_398_103)">
<rect x="5" y="1" width="88" height="118" rx="11" fill="#DF9766" stroke="#F7F7F7" stroke-width="2"/>
<path d="M27.125 42.6328C26.7188 42.6328 26.0859 42.6042 25.2266 42.5469C24.3984 42.4896 23.7656 42.4635 23.3281 42.4688C23.349 43.0625 23.4193 44.1198 23.5391 45.6406C23.6484 46.9844 23.7031 48.0469 23.7031 48.8281C23.7031 49.0052 23.7214 49.2682 23.7578 49.6172C23.7943 49.9661 23.8125 50.2292 23.8125 50.4062C23.8125 50.7969 23.7292 51.1484 23.5625 51.4609C23.349 51.862 23.0443 52.0625 22.6484 52.0625C22.362 52.0625 22.1094 51.9714 21.8906 51.7891C21.6458 51.5859 21.5234 51.3307 21.5234 51.0234C21.5234 50.9505 21.5365 50.8411 21.5625 50.6953C21.5885 50.5443 21.6016 50.4297 21.6016 50.3516C21.6016 50.112 21.5833 49.75 21.5469 49.2656C21.5156 48.7812 21.5 48.4167 21.5 48.1719C21.5 47.474 21.4453 46.5286 21.3359 45.3359C21.2109 43.9661 21.138 43.0208 21.1172 42.5H20.7109C19.5495 42.5 18.6276 42.4167 17.9453 42.25C17.3672 42.1094 17.0781 41.7682 17.0781 41.2266C17.0781 40.9609 17.1719 40.7214 17.3594 40.5078C17.5781 40.2526 17.8646 40.138 18.2188 40.1641C18.401 40.1745 18.8151 40.2188 19.4609 40.2969C19.9766 40.3542 20.3932 40.3828 20.7109 40.3828C21.0286 40.3828 21.5026 40.3776 22.1328 40.3672C22.7682 40.3568 23.2448 40.3516 23.5625 40.3516C23.9583 40.3516 24.5521 40.3802 25.3438 40.4375C26.1354 40.4896 26.7292 40.5156 27.125 40.5156C27.4375 40.5156 27.6979 40.6172 27.9062 40.8203C28.1198 41.0234 28.2266 41.2734 28.2266 41.5703C28.2266 41.8672 28.1198 42.1198 27.9062 42.3281C27.6979 42.5312 27.4375 42.6328 27.125 42.6328ZM37.1562 50.6484C36.776 51.1641 36.3177 51.5938 35.7812 51.9375C35.125 52.3542 34.4505 52.5625 33.7578 52.5625C32.4297 52.5625 31.4427 52.3073 30.7969 51.7969C29.4323 50.7188 28.75 48.8464 28.75 46.1797C28.75 45.9245 28.763 45.5443 28.7891 45.0391C28.8151 44.5339 28.8281 44.1536 28.8281 43.8984C28.8281 43.6953 28.8333 43.3932 28.8438 42.9922C28.8542 42.5859 28.8594 42.2812 28.8594 42.0781C28.8594 41.6615 28.9349 41.2682 29.0859 40.8984C29.2891 40.4089 29.5729 40.1641 29.9375 40.1641C30.224 40.1641 30.4766 40.2578 30.6953 40.4453C30.9349 40.6432 31.0547 40.8984 31.0547 41.2109C31.0547 41.5078 31.0495 41.9583 31.0391 42.5625C31.0339 43.1615 31.0312 43.612 31.0312 43.9141C31.0312 44.1641 31.0182 44.5417 30.9922 45.0469C30.9661 45.5521 30.9531 45.9297 30.9531 46.1797C30.9531 46.987 31.0469 47.737 31.2344 48.4297C31.4531 49.2578 31.7734 49.8359 32.1953 50.1641C32.4141 50.3359 32.9349 50.4271 33.7578 50.4375C35.1328 50.4583 36.0599 49.2865 36.5391 46.9219C36.7891 45.6979 36.9141 43.9792 36.9141 41.7656C36.9141 41.474 37 41.1927 37.1719 40.9219C37.4062 40.5625 37.7396 40.3828 38.1719 40.3828C38.526 40.3828 38.7917 40.513 38.9688 40.7734C39.1042 40.9661 39.1719 41.1797 39.1719 41.4141C39.1719 43.4714 39.0755 45.0755 38.8828 46.2266C38.5911 48.0026 38.0156 49.4766 37.1562 50.6484ZM48.7344 52.0938C48.4531 52.0938 48.1953 51.9844 47.9609 51.7656C46.3828 50.2865 44.6484 49.2604 42.7578 48.6875C42.8151 50.2031 42.8438 51.0443 42.8438 51.2109C42.8438 51.5078 42.7396 51.7604 42.5312 51.9688C42.3229 52.1719 42.0625 52.2734 41.75 52.2734C41.4375 52.2734 41.1771 52.1719 40.9688 51.9688C40.7604 51.7604 40.6562 51.5078 40.6562 51.2109C40.6562 50.8203 40.6615 50.237 40.6719 49.4609C40.6823 48.6797 40.6875 48.0938 40.6875 47.7031L40.7031 41.3984C40.7031 41.0599 40.8047 40.7526 41.0078 40.4766C41.2734 40.1224 41.6406 39.9635 42.1094 40C43.375 40.0938 44.0234 40.1432 44.0547 40.1484C44.7839 40.237 45.4036 40.4115 45.9141 40.6719C48.138 41.7917 49.25 43.1797 49.25 44.8359C49.25 45.5182 49.0156 46.1224 48.5469 46.6484C48.0833 47.1693 47.3854 47.6094 46.4531 47.9688C47.8333 48.7396 48.8724 49.526 49.5703 50.3281C49.7526 50.5365 49.8438 50.7682 49.8438 51.0234C49.8438 51.3151 49.7344 51.5677 49.5156 51.7812C49.2969 51.9896 49.0365 52.0938 48.7344 52.0938ZM43.7266 42.2656C43.6849 42.2604 43.3802 42.2396 42.8125 42.2031V46.3516C42.9427 46.3568 43.0573 46.3594 43.1562 46.3594C44.4323 46.3594 45.3776 46.2005 45.9922 45.8828C46.2578 45.7474 46.5 45.5677 46.7188 45.3438C46.9427 45.1198 47.0547 44.9505 47.0547 44.8359C47.0547 44.2526 46.6849 43.6901 45.9453 43.1484C45.2422 42.638 44.5026 42.3438 43.7266 42.2656ZM60.3125 42.6328C59.9062 42.6328 59.2734 42.6042 58.4141 42.5469C57.5859 42.4896 56.9531 42.4635 56.5156 42.4688C56.5365 43.0625 56.6068 44.1198 56.7266 45.6406C56.8359 46.9844 56.8906 48.0469 56.8906 48.8281C56.8906 49.0052 56.9089 49.2682 56.9453 49.6172C56.9818 49.9661 57 50.2292 57 50.4062C57 50.7969 56.9167 51.1484 56.75 51.4609C56.5365 51.862 56.2318 52.0625 55.8359 52.0625C55.5495 52.0625 55.2969 51.9714 55.0781 51.7891C54.8333 51.5859 54.7109 51.3307 54.7109 51.0234C54.7109 50.9505 54.724 50.8411 54.75 50.6953C54.776 50.5443 54.7891 50.4297 54.7891 50.3516C54.7891 50.112 54.7708 49.75 54.7344 49.2656C54.7031 48.7812 54.6875 48.4167 54.6875 48.1719C54.6875 47.474 54.6328 46.5286 54.5234 45.3359C54.3984 43.9661 54.3255 43.0208 54.3047 42.5H53.8984C52.737 42.5 51.8151 42.4167 51.1328 42.25C50.5547 42.1094 50.2656 41.7682 50.2656 41.2266C50.2656 40.9609 50.3594 40.7214 50.5469 40.5078C50.7656 40.2526 51.0521 40.138 51.4062 40.1641C51.5885 40.1745 52.0026 40.2188 52.6484 40.2969C53.1641 40.3542 53.5807 40.3828 53.8984 40.3828C54.2161 40.3828 54.6901 40.3776 55.3203 40.3672C55.9557 40.3568 56.4323 40.3516 56.75 40.3516C57.1458 40.3516 57.7396 40.3802 58.5312 40.4375C59.3229 40.4896 59.9167 40.5156 60.3125 40.5156C60.625 40.5156 60.8854 40.6172 61.0938 40.8203C61.3073 41.0234 61.4141 41.2734 61.4141 41.5703C61.4141 41.8672 61.3073 42.1198 61.0938 42.3281C60.8854 42.5312 60.625 42.6328 60.3125 42.6328ZM69.4688 51.7031C68.8542 51.974 67.9036 52.2161 66.6172 52.4297C65.4401 52.6276 64.474 52.7266 63.7188 52.7266C62.4427 52.7266 61.8047 52.1667 61.8047 51.0469C61.8047 51.1354 61.8568 50.3099 61.9609 48.5703C62.0964 46.3099 62.1641 43.7943 62.1641 41.0234C62.1641 40.7266 62.2656 40.474 62.4688 40.2656C62.6771 40.0573 62.9375 39.9531 63.25 39.9531C63.5625 39.9531 63.8229 40.0573 64.0312 40.2656C64.2396 40.474 64.3438 40.7266 64.3438 41.0234C64.3438 43.7995 64.2734 46.3568 64.1328 48.6953C64.0859 49.112 64.0365 49.75 63.9844 50.6094C65.2188 50.5885 66.8021 50.2865 68.7344 49.7031C68.8542 49.6667 68.9688 49.6484 69.0781 49.6484C69.4062 49.6484 69.6719 49.7682 69.875 50.0078C70.0573 50.2214 70.1484 50.4609 70.1484 50.7266C70.1484 51.1745 69.9219 51.5 69.4688 51.7031ZM78.8047 41.9844C78.7005 41.9844 78.5911 41.9688 78.4766 41.9375C77.6328 41.7083 76.8125 41.5938 76.0156 41.5938C75.625 41.5938 75.2057 41.625 74.7578 41.6875C74.3099 41.75 73.8333 41.8438 73.3281 41.9688C73.3281 42.6615 73.3047 43.6901 73.2578 45.0547C73.5495 45.0339 74.5677 44.9375 76.3125 44.7656C77.3073 44.6667 77.9375 44.6172 78.2031 44.6172C78.5104 44.6172 78.7734 44.7161 78.9922 44.9141C79.2109 45.1068 79.3203 45.3646 79.3203 45.6875C79.3203 46.3073 78.9896 46.6589 78.3281 46.7422C77.9115 46.7734 77.2891 46.8255 76.4609 46.8984C75.7214 46.9818 74.6068 47.0833 73.1172 47.2031C73.0807 47.8646 73.0625 48.3984 73.0625 48.8047C73.0625 49.8255 73.1224 50.4062 73.2422 50.5469C73.2995 50.6146 73.6276 50.6484 74.2266 50.6484C74.5495 50.6484 75.0365 50.6406 75.6875 50.625C76.3385 50.6094 76.8255 50.6016 77.1484 50.6016C77.2526 50.6016 77.4062 50.5859 77.6094 50.5547C77.8125 50.5234 77.9635 50.5078 78.0625 50.5078C78.3646 50.5078 78.6224 50.5938 78.8359 50.7656C79.0807 50.9583 79.2031 51.2292 79.2031 51.5781C79.2031 52.1615 78.8984 52.5104 78.2891 52.625C77.7682 52.724 76.6875 52.7734 75.0469 52.7734C73.349 52.7734 72.2422 52.5443 71.7266 52.0859C71.1589 51.5807 70.875 50.487 70.875 48.8047C70.875 48.1068 70.9245 47.0599 71.0234 45.6641C71.1276 44.263 71.1797 43.2161 71.1797 42.5234C71.1797 42.3411 71.1536 42.0729 71.1016 41.7188C71.0495 41.3594 71.0234 41.0885 71.0234 40.9062C71.0234 40.1146 71.388 39.7188 72.1172 39.7188C72.3464 39.7188 72.5573 39.7839 72.75 39.9141C73.3542 39.763 73.9271 39.651 74.4688 39.5781C75.0156 39.5 75.5312 39.4609 76.0156 39.4609C77.3281 39.4609 78.3776 39.612 79.1641 39.9141C79.6432 40.0964 79.8828 40.4271 79.8828 40.9062C79.8828 41.1771 79.7891 41.4167 79.6016 41.625C79.3932 41.8646 79.1276 41.9844 78.8047 41.9844Z" fill="#F7F7F7"/>
<path d="M14.3105 72.3662C13.9733 72.3662 13.4538 72.3389 12.752 72.2842C12.0684 72.234 11.5488 72.2113 11.1934 72.2158H10.708C10.7217 72.8447 10.7832 73.8656 10.8926 75.2783C10.9928 76.5954 11.043 77.6185 11.043 78.3477C11.043 78.5072 11.0589 78.7487 11.0908 79.0723C11.1227 79.3958 11.1387 79.6396 11.1387 79.8037C11.1387 80.1136 11.0885 80.3802 10.9883 80.6035C10.8607 80.9043 10.6624 81.0547 10.3936 81.0547C10.2113 81.0547 10.0472 80.9909 9.90137 80.8633C9.75553 80.7357 9.68262 80.5716 9.68262 80.3711C9.68262 80.3027 9.69401 80.2002 9.7168 80.0635C9.73958 79.9268 9.75098 79.8242 9.75098 79.7559C9.75098 79.5326 9.73503 79.1976 9.70312 78.751C9.67578 78.3044 9.66211 77.9671 9.66211 77.7393C9.66211 77.0876 9.6097 76.1715 9.50488 74.9912C9.39551 73.7152 9.33398 72.7992 9.32031 72.2432L8.69824 72.25C7.7002 72.25 6.91634 72.1771 6.34668 72.0312C5.97754 71.9355 5.79297 71.71 5.79297 71.3545C5.79297 71.1676 5.85221 71.0036 5.9707 70.8623C6.10742 70.7028 6.28288 70.6299 6.49707 70.6436C6.65658 70.6527 7.02116 70.6937 7.59082 70.7666C8.04655 70.8213 8.41569 70.8486 8.69824 70.8486C8.97168 70.8486 9.38639 70.8441 9.94238 70.835C10.4984 70.8213 10.9131 70.8145 11.1865 70.8145C11.5374 70.8145 12.057 70.8395 12.7451 70.8896C13.4378 70.9398 13.9596 70.9648 14.3105 70.9648C14.5065 70.9648 14.6706 71.0332 14.8027 71.1699C14.9349 71.3021 15.001 71.4684 15.001 71.6689C15.001 71.8649 14.9349 72.0312 14.8027 72.168C14.6706 72.3001 14.5065 72.3662 14.3105 72.3662ZM23.0605 81.2051C22.6413 81.2051 22.2767 80.6673 21.9668 79.5918C21.8483 79.1816 21.7002 78.4639 21.5225 77.4385C21.0576 77.5023 20.4492 77.6162 19.6973 77.7803L17.8789 78.1562C17.651 78.7533 17.2614 79.626 16.71 80.7744C16.5641 81.0296 16.3659 81.1572 16.1152 81.1572C15.9329 81.1572 15.7689 81.0911 15.623 80.959C15.4818 80.8268 15.4111 80.6628 15.4111 80.4668C15.4111 80.248 15.7552 79.4163 16.4434 77.9717C16.3659 77.8532 16.3271 77.7165 16.3271 77.5615C16.3271 77.1924 16.5505 76.9554 16.9971 76.8506C17.5166 75.8753 18.1729 74.7542 18.9658 73.4873C20.0459 71.7601 20.7181 70.8965 20.9824 70.8965C21.3424 70.8965 21.5885 71.1471 21.7207 71.6484L22.1514 73.9453L23.1699 78.6963L23.5596 79.7764C23.6917 80.1455 23.7578 80.3916 23.7578 80.5146C23.7578 80.7106 23.6872 80.8747 23.5459 81.0068C23.4046 81.139 23.2428 81.2051 23.0605 81.2051ZM20.6475 73.3916L18.6924 76.543C19.2438 76.4017 20.0801 76.2308 21.2012 76.0303L20.6475 73.3916ZM32.4531 81.0752C32.2799 81.0752 32.1182 81.0023 31.9678 80.8564C30.4593 79.3662 28.7822 78.3636 26.9365 77.8486L26.9912 79.1885L27.0254 80.5352C27.0254 80.7357 26.9593 80.902 26.8271 81.0342C26.6995 81.1709 26.5378 81.2393 26.3418 81.2393C26.1458 81.2393 25.9818 81.1709 25.8496 81.0342C25.722 80.902 25.6582 80.7357 25.6582 80.5352C25.6582 80.1751 25.64 79.6396 25.6035 78.9287C25.5716 78.2132 25.5557 77.6755 25.5557 77.3154C25.5557 76.8962 25.6012 76.2718 25.6924 75.4424C25.7835 74.613 25.8291 73.9909 25.8291 73.5762C25.8291 73.3438 25.8063 72.9997 25.7607 72.5439C25.7197 72.0882 25.6992 71.7441 25.6992 71.5117C25.6992 71.252 25.7721 71.0241 25.918 70.8281C26.0911 70.5866 26.3304 70.4772 26.6357 70.5L28.2832 70.6299C28.9076 70.7074 29.4339 70.86 29.8623 71.0879C31.708 72.0677 32.6309 73.264 32.6309 74.6768C32.6309 75.3695 32.3164 75.9824 31.6875 76.5156C31.1816 76.944 30.5505 77.2699 29.7939 77.4932C31.2113 78.2542 32.2708 79.0563 32.9727 79.8994C33.0911 80.0452 33.1504 80.2002 33.1504 80.3643C33.1504 80.5557 33.0798 80.722 32.9385 80.8633C32.8018 81.0046 32.64 81.0752 32.4531 81.0752ZM28.0986 72.0381L27.0869 71.9561L27.1553 72.7832C27.1872 73.1204 27.2031 73.3962 27.2031 73.6104C27.2031 73.9749 27.1735 74.4284 27.1143 74.9707L26.9707 76.3311C27.0345 76.3311 27.1325 76.3333 27.2646 76.3379C27.4014 76.3424 27.5039 76.3447 27.5723 76.3447C28.7344 76.3447 29.6048 76.1898 30.1836 75.8799C30.4388 75.7386 30.6758 75.554 30.8945 75.3262C31.1361 75.071 31.2568 74.8545 31.2568 74.6768C31.2568 74.0433 30.8968 73.4531 30.1768 72.9062C29.516 72.4049 28.8232 72.1156 28.0986 72.0381ZM42.8711 72.3662C42.5339 72.3662 42.0143 72.3389 41.3125 72.2842C40.6289 72.234 40.1094 72.2113 39.7539 72.2158H39.2686C39.2822 72.8447 39.3438 73.8656 39.4531 75.2783C39.5534 76.5954 39.6035 77.6185 39.6035 78.3477C39.6035 78.5072 39.6195 78.7487 39.6514 79.0723C39.6833 79.3958 39.6992 79.6396 39.6992 79.8037C39.6992 80.1136 39.6491 80.3802 39.5488 80.6035C39.4212 80.9043 39.223 81.0547 38.9541 81.0547C38.7718 81.0547 38.6077 80.9909 38.4619 80.8633C38.3161 80.7357 38.2432 80.5716 38.2432 80.3711C38.2432 80.3027 38.2546 80.2002 38.2773 80.0635C38.3001 79.9268 38.3115 79.8242 38.3115 79.7559C38.3115 79.5326 38.2956 79.1976 38.2637 78.751C38.2363 78.3044 38.2227 77.9671 38.2227 77.7393C38.2227 77.0876 38.1702 76.1715 38.0654 74.9912C37.9561 73.7152 37.8945 72.7992 37.8809 72.2432L37.2588 72.25C36.2607 72.25 35.4769 72.1771 34.9072 72.0312C34.5381 71.9355 34.3535 71.71 34.3535 71.3545C34.3535 71.1676 34.4128 71.0036 34.5312 70.8623C34.668 70.7028 34.8434 70.6299 35.0576 70.6436C35.2171 70.6527 35.5817 70.6937 36.1514 70.7666C36.6071 70.8213 36.9762 70.8486 37.2588 70.8486C37.5322 70.8486 37.9469 70.8441 38.5029 70.835C39.0589 70.8213 39.4736 70.8145 39.7471 70.8145C40.098 70.8145 40.6175 70.8395 41.3057 70.8896C41.9984 70.9398 42.5202 70.9648 42.8711 70.9648C43.0671 70.9648 43.2311 71.0332 43.3633 71.1699C43.4954 71.3021 43.5615 71.4684 43.5615 71.6689C43.5615 71.8649 43.4954 72.0312 43.3633 72.168C43.2311 72.3001 43.0671 72.3662 42.8711 72.3662ZM51.6211 81.2051C51.2018 81.2051 50.8372 80.6673 50.5273 79.5918C50.4089 79.1816 50.2607 78.4639 50.083 77.4385C49.6182 77.5023 49.0098 77.6162 48.2578 77.7803L46.4395 78.1562C46.2116 78.7533 45.8219 79.626 45.2705 80.7744C45.1247 81.0296 44.9264 81.1572 44.6758 81.1572C44.4935 81.1572 44.3294 81.0911 44.1836 80.959C44.0423 80.8268 43.9717 80.6628 43.9717 80.4668C43.9717 80.248 44.3158 79.4163 45.0039 77.9717C44.9264 77.8532 44.8877 77.7165 44.8877 77.5615C44.8877 77.1924 45.111 76.9554 45.5576 76.8506C46.0771 75.8753 46.7334 74.7542 47.5264 73.4873C48.6064 71.7601 49.2786 70.8965 49.543 70.8965C49.903 70.8965 50.1491 71.1471 50.2812 71.6484L50.7119 73.9453L51.7305 78.6963L52.1201 79.7764C52.2523 80.1455 52.3184 80.3916 52.3184 80.5146C52.3184 80.7106 52.2477 80.8747 52.1064 81.0068C51.9652 81.139 51.8034 81.2051 51.6211 81.2051ZM49.208 73.3916L47.2529 76.543C47.8044 76.4017 48.6406 76.2308 49.7617 76.0303L49.208 73.3916ZM61.0137 81.0752C60.8405 81.0752 60.6787 81.0023 60.5283 80.8564C59.0199 79.3662 57.3428 78.3636 55.4971 77.8486L55.5518 79.1885L55.5859 80.5352C55.5859 80.7357 55.5199 80.902 55.3877 81.0342C55.2601 81.1709 55.0983 81.2393 54.9023 81.2393C54.7064 81.2393 54.5423 81.1709 54.4102 81.0342C54.2826 80.902 54.2188 80.7357 54.2188 80.5352C54.2188 80.1751 54.2005 79.6396 54.1641 78.9287C54.1322 78.2132 54.1162 77.6755 54.1162 77.3154C54.1162 76.8962 54.1618 76.2718 54.2529 75.4424C54.3441 74.613 54.3896 73.9909 54.3896 73.5762C54.3896 73.3438 54.3669 72.9997 54.3213 72.5439C54.2803 72.0882 54.2598 71.7441 54.2598 71.5117C54.2598 71.252 54.3327 71.0241 54.4785 70.8281C54.6517 70.5866 54.891 70.4772 55.1963 70.5L56.8438 70.6299C57.4681 70.7074 57.9945 70.86 58.4229 71.0879C60.2686 72.0677 61.1914 73.264 61.1914 74.6768C61.1914 75.3695 60.877 75.9824 60.248 76.5156C59.7422 76.944 59.111 77.2699 58.3545 77.4932C59.7718 78.2542 60.8314 79.0563 61.5332 79.8994C61.6517 80.0452 61.7109 80.2002 61.7109 80.3643C61.7109 80.5557 61.6403 80.722 61.499 80.8633C61.3623 81.0046 61.2005 81.0752 61.0137 81.0752ZM56.6592 72.0381L55.6475 71.9561L55.7158 72.7832C55.7477 73.1204 55.7637 73.3962 55.7637 73.6104C55.7637 73.9749 55.734 74.4284 55.6748 74.9707L55.5312 76.3311C55.5951 76.3311 55.693 76.3333 55.8252 76.3379C55.9619 76.3424 56.0645 76.3447 56.1328 76.3447C57.2949 76.3447 58.1654 76.1898 58.7441 75.8799C58.9993 75.7386 59.2363 75.554 59.4551 75.3262C59.6966 75.071 59.8174 74.8545 59.8174 74.6768C59.8174 74.0433 59.4574 73.4531 58.7373 72.9062C58.0765 72.4049 57.3838 72.1156 56.6592 72.0381ZM67.5215 81.2734C66.1042 81.2734 65.0469 80.8656 64.3496 80.0498C63.7845 79.3936 63.429 78.4229 63.2832 77.1377C63.2148 76.5589 63.1807 75.4036 63.1807 73.6719C63.1807 73.0339 63.1943 72.5189 63.2217 72.127C63.249 71.7122 63.29 71.4229 63.3447 71.2588C63.4587 70.9261 63.6637 70.7598 63.96 70.7598C64.3792 70.7598 64.5889 71.1449 64.5889 71.915V75.9277C64.5889 78.6895 65.555 80.0703 67.4873 80.0703C69.3057 80.0703 70.2148 77.7461 70.2148 73.0977C70.2148 72.9245 70.2148 72.7012 70.2148 72.4277C70.2103 72.1543 70.208 71.972 70.208 71.8809C70.208 71.5983 70.2581 71.3499 70.3584 71.1357C70.486 70.8623 70.6751 70.7256 70.9258 70.7256C71.3815 70.7256 71.6094 71.0378 71.6094 71.6621C71.6094 71.849 71.6117 72.1315 71.6162 72.5098C71.6162 72.888 71.6162 73.1706 71.6162 73.3574C71.6162 78.6348 70.2513 81.2734 67.5215 81.2734ZM81.3301 76.8643C81.0475 78.2633 80.4528 79.3822 79.5459 80.2207C78.6436 81.0547 77.5771 81.4717 76.3467 81.4717C75.2256 81.4717 74.3848 81.1595 73.8242 80.5352C73.2637 79.9062 72.9834 78.9652 72.9834 77.7119C72.9834 76.5316 73.2614 75.3171 73.8174 74.0684C74.3779 72.8151 75.0957 71.8034 75.9707 71.0332C76.554 70.5182 77.1715 70.2607 77.8232 70.2607C78.238 70.2607 78.7848 70.3975 79.4639 70.6709C80.2933 70.999 80.708 71.3613 80.708 71.7578C80.708 71.9447 80.6396 72.111 80.5029 72.2568C80.3662 72.4027 80.2021 72.4756 80.0107 72.4756C79.9105 72.4756 79.7692 72.4186 79.5869 72.3047C78.8896 71.8809 78.3018 71.6689 77.8232 71.6689C77.4814 71.6689 77.1237 71.8467 76.75 72.2021C76.5632 72.3799 76.2943 72.7035 75.9434 73.1729C74.8906 74.5674 74.3643 76.0804 74.3643 77.7119C74.3643 78.5687 74.4964 79.168 74.7607 79.5098C75.0479 79.8835 75.5765 80.0703 76.3467 80.0703C77.1624 80.0703 77.8711 79.8128 78.4727 79.2979C79.1061 78.751 79.5482 77.9694 79.7988 76.9531C78.5365 77.0169 77.4541 77.2607 76.5518 77.6846C76.4469 77.7347 76.3444 77.7598 76.2441 77.7598C76.0436 77.7598 75.8773 77.6823 75.7451 77.5273C75.6221 77.3861 75.5605 77.222 75.5605 77.0352C75.5605 76.7845 75.6813 76.584 75.9229 76.4336C76.9072 75.832 78.6048 75.5312 81.0156 75.5312C81.2116 75.5312 81.3757 75.5973 81.5078 75.7295C81.64 75.8617 81.7061 76.028 81.7061 76.2285C81.7061 76.5247 81.5807 76.7367 81.3301 76.8643ZM90.5039 81.2051C90.0846 81.2051 89.7201 80.6673 89.4102 79.5918C89.2917 79.1816 89.1436 78.4639 88.9658 77.4385C88.501 77.5023 87.8926 77.6162 87.1406 77.7803L85.3223 78.1562C85.0944 78.7533 84.7048 79.626 84.1533 80.7744C84.0075 81.0296 83.8092 81.1572 83.5586 81.1572C83.3763 81.1572 83.2122 81.0911 83.0664 80.959C82.9251 80.8268 82.8545 80.6628 82.8545 80.4668C82.8545 80.248 83.1986 79.4163 83.8867 77.9717C83.8092 77.8532 83.7705 77.7165 83.7705 77.5615C83.7705 77.1924 83.9938 76.9554 84.4404 76.8506C84.96 75.8753 85.6162 74.7542 86.4092 73.4873C87.4893 71.7601 88.1615 70.8965 88.4258 70.8965C88.7858 70.8965 89.0319 71.1471 89.1641 71.6484L89.5947 73.9453L90.6133 78.6963L91.0029 79.7764C91.1351 80.1455 91.2012 80.3916 91.2012 80.5146C91.2012 80.7106 91.1305 80.8747 90.9893 81.0068C90.848 81.139 90.6862 81.2051 90.5039 81.2051ZM88.0908 73.3916L86.1357 76.543C86.6872 76.4017 87.5234 76.2308 88.6445 76.0303L88.0908 73.3916Z" fill="#F7F7F7"/>
</g>
<defs>
<filter id="filter0_d_398_103" x="0" y="0" width="98" height="128" filterUnits="userSpaceOnUse" color-interpolation-filters="sRGB">
<feFlood flood-opacity="0" result="BackgroundImageFix"/>
<feColorMatrix in="SourceAlpha" type="matrix" values="0 0 0 0 0 0 0 0 0 0 0 0 0 0 0 0 0 0 127 0" result="hardAlpha"/>
<feOffset dy="4"/>
<feGaussianBlur stdDeviation="2"/>
<feComposite in2="hardAlpha" operator="out"/>
<feColorMatrix type="matrix" values="0 0 0 0 0 0 0 0 0 0 0 0 0 0 0 0 0 0 0.25 0"/>
<feBlend mode="normal" in2="BackgroundImageFix" result="effect1_dropShadow_398_103"/>
<feBlend mode="normal" in="SourceGraphic" in2="effect1_dropShadow_398_103" result="shape"/>
</filter>
</defs>
</svg>
