<svg width="46" height="46" viewBox="0 0 46 46" fill="none" xmlns="http://www.w3.org/2000/svg">
<g filter="url(#filter0_d_322_423)">
<circle cx="23" cy="19" r="19" fill="#F5D358"/>
<circle cx="23" cy="19" r="19" fill="url(#paint0_linear_322_423)"/>
<path d="M22.6875 20.3906C22.5469 21.5938 22.1016 22.5234 21.3516 23.1797C20.6068 23.8307 19.6146 24.1562 18.375 24.1562C17.0312 24.1562 15.9531 23.6745 15.1406 22.7109C14.3333 21.7474 13.9297 20.4583 13.9297 18.8438V17.75C13.9297 16.6927 14.1172 15.763 14.4922 14.9609C14.8724 14.1589 15.4089 13.5443 16.1016 13.1172C16.7943 12.6849 17.5964 12.4688 18.5078 12.4688C19.7161 12.4688 20.6849 12.8073 21.4141 13.4844C22.1432 14.1562 22.5677 15.0885 22.6875 16.2812H21.1797C21.0495 15.375 20.7656 14.7188 20.3281 14.3125C19.8958 13.9062 19.2891 13.7031 18.5078 13.7031C17.5495 13.7031 16.7969 14.0573 16.25 14.7656C15.7083 15.474 15.4375 16.4818 15.4375 17.7891V18.8906C15.4375 20.125 15.6953 21.1068 16.2109 21.8359C16.7266 22.5651 17.4479 22.9297 18.375 22.9297C19.2083 22.9297 19.8464 22.7422 20.2891 22.3672C20.737 21.987 21.0339 21.3281 21.1797 20.3906H22.6875ZM25.875 22.8203H30.8203V24H24.1094V22.9375L28.7734 16.7422H24.1797V15.5469H30.5859V16.5703L25.875 22.8203Z" fill="white"/>
</g>
<defs>
<filter id="filter0_d_322_423" x="0" y="0" width="46" height="46" filterUnits="userSpaceOnUse" color-interpolation-filters="sRGB">
<feFlood flood-opacity="0" result="BackgroundImageFix"/>
<feColorMatrix in="SourceAlpha" type="matrix" values="0 0 0 0 0 0 0 0 0 0 0 0 0 0 0 0 0 0 127 0" result="hardAlpha"/>
<feOffset dy="4"/>
<feGaussianBlur stdDeviation="2"/>
<feComposite in2="hardAlpha" operator="out"/>
<feColorMatrix type="matrix" values="0 0 0 0 0 0 0 0 0 0 0 0 0 0 0 0 0 0 0.25 0"/>
<feBlend mode="normal" in2="BackgroundImageFix" result="effect1_dropShadow_322_423"/>
<feBlend mode="normal" in="SourceGraphic" in2="effect1_dropShadow_322_423" result="shape"/>
</filter>
<linearGradient id="paint0_linear_322_423" x1="45.7465" y1="-2.94366" x2="-2.42254" y2="43.3521" gradientUnits="userSpaceOnUse">
<stop stop-color="#F1BF0B"/>
<stop offset="1" stop-color="white" stop-opacity="0"/>
</linearGradient>
</defs>
</svg>
