<svg width="331" height="214" viewBox="0 0 331 214" fill="none" xmlns="http://www.w3.org/2000/svg">
<g filter="url(#filter0_d_381_105)">
<path d="M322 206C324.761 206 327 203.761 327 201V5C327 2.23858 324.761 0 322 0H156L133.473 2.9383C133.158 2.97934 132.851 2.99087 132.534 2.97209C115.862 1.9837 82.0478 1.14098 76.5 5.5C71.6234 9.33159 60.923 22.627 54.0345 31.1859C51.0351 34.9128 48.7584 37.7416 48 38.5C46.7104 39.7896 47.1532 41.2872 47.988 42.4564C48.7919 43.5825 50.2732 43.8633 51.6356 43.6224L131.5 29.5L76.7129 43.9439C76.6317 43.9653 76.6149 44.0731 76.6858 44.1182L91.2443 53.3827C92.368 54.0978 93.7307 54.335 95.03 54.0416L108.5 51L93.2216 56.6748C91.8155 57.1971 90.2492 57.0605 88.9548 56.3028L71.9953 46.3753C71.0267 45.8083 69.9023 45.5799 68.7925 45.7472C57.4692 47.4535 37.0401 51.7999 34 57.5C30 65 69.5 69.5 91 63.5C86.0877 65.3893 80.1938 67.7249 77.449 68.8206C77.1521 68.9391 76.8345 68.9897 76.5154 68.9697L69.154 68.5096C69.1097 68.5069 69.0895 68.5638 69.1258 68.5894C71.5246 70.2863 76.8562 73.607 80 74C77.9712 74 76.3449 73.825 75.3494 73.6652C74.7835 73.5744 74.2562 73.3375 73.7794 73.0196L68.2596 69.3397C67.4383 68.7922 66.4732 68.5 65.4861 68.5H43.1877C42.0929 68.5 41.0284 68.1407 40.1575 67.4772L31 60.5L30.8978 60.6529C29.1695 63.2295 25.1364 68.8636 22 72C18.8195 75.1805 14.7169 92.1255 13.0307 100.35C13.0179 100.413 13.0836 100.458 13.1406 100.43L13.2812 100.359L13.5625 100.219L14.125 99.9375L15.25 99.375L17.5 98.25L20.8596 96.5702C21.6079 96.196 22.2503 95.6401 22.7281 94.9534L26 90.25L28 87.375L29 85.9375C29.1135 85.7743 29.365 85.9165 29.2837 86.0979L23.7393 98.4662C23.5859 98.8083 23.3044 99.0765 22.9552 99.2132L13.6363 102.86C12.6184 103.258 11.8776 104.153 11.6762 105.227C11.1934 107.802 13.8654 109.817 16.2085 108.646L55.7528 88.8736C56.2475 88.6262 56.7798 88.4627 57.3281 88.3896L131.5 78.5C113.565 82.3778 74.8594 90.297 59.3913 91.8705C58.4809 91.9631 57.6171 92.286 56.851 92.7866C51.5241 96.2677 38.8627 102.815 32.6422 105.929L32.5 106L73.5 103.5C59.6667 105.167 31 108.5 27 108.5C23.5177 108.5 16.4986 113.047 12.2108 116.204C11.1065 117.017 10.4261 118.273 10.2956 119.638L4 185.5V201C4 203.761 6.23857 206 9 206H322Z" fill="#F0F0F0"/>
<path d="M45.5 0C34 0.666667 10.6 4.9 9 16.5C7.53676 27.1085 7.35593 30.9982 7.46319 31.8407C7.47513 31.9344 7.56711 31.9752 7.6558 31.9425L49.5 16.5L15.5 31C13.8333 31.8333 10.2 35.1 9 41.5C7.84914 47.6379 6.91289 58.8654 6.5441 64.3321C6.5368 64.4404 6.68852 64.4677 6.72475 64.3654L14.4311 42.6064C14.7999 41.5649 15.5034 40.6749 16.4316 40.0754L39 25.5L16.9548 40.5095C16.0133 41.1505 15.3188 42.0939 14.9864 43.1834L6.69656 70.3557C6.64135 70.5367 6.85955 70.6754 7 70.5486L42.2198 38.753C42.4063 38.5846 42.5799 38.4023 42.7391 38.2078L74 0H45.5Z" fill="#F0F0F0"/>
<path d="M25.5 0H9C6.23858 0 4 2.23858 4 5V20C4 6.4 18.3333 1 25.5 0Z" fill="#F0F0F0"/>
<path d="M58.0694 36L4 130.341V140H327V138.712L273.875 54.3529L211.069 130.341L159.125 89.4489L99.625 130.341L58.0694 36Z" fill="#078EC8" fill-opacity="0.5"/>
<path d="M58.0694 36L4 130.341V140H327V138.712L273.875 54.3529L211.069 130.341L159.125 89.4489L99.625 130.341L58.0694 36Z" fill="url(#paint0_linear_381_105)"/>
<ellipse cx="270.062" cy="173.04" rx="36.7342" ry="32.96" fill="white"/>
<ellipse cx="270.062" cy="173.04" rx="36.7342" ry="32.96" fill="url(#paint1_linear_381_105)"/>
<path d="M306.297 173.04C306.297 190.918 290.126 205.5 270.062 205.5C249.998 205.5 233.828 190.918 233.828 173.04C233.828 155.163 249.998 140.58 270.062 140.58C290.126 140.58 306.297 155.163 306.297 173.04Z" stroke="#078EC8" stroke-opacity="0.15"/>
<ellipse cx="269.827" cy="118.319" rx="27.5507" ry="24.72" fill="white"/>
<ellipse cx="269.827" cy="118.319" rx="27.5507" ry="24.72" fill="url(#paint2_linear_381_105)"/>
<path d="M296.878 118.319C296.878 131.645 284.819 142.539 269.827 142.539C254.835 142.539 242.776 131.645 242.776 118.319C242.776 104.992 254.835 94.0986 269.827 94.0986C284.819 94.0986 296.878 104.992 296.878 118.319Z" stroke="#078EC8" stroke-opacity="0.15"/>
<path d="M244.161 140.081C240.393 136.7 243.768 131.982 245.809 130.15C246.986 132.686 252.308 138.602 265.118 141.137C281.13 144.306 288.666 136.7 292.198 132.897C293.972 137.142 294.39 139.661 294.015 141.137C296.684 143.884 301.57 149.969 298.556 152.335C297.567 153.111 296.044 153.393 294.317 153.372C294.317 153.372 294.317 153.372 294.317 153.372C302.559 167.106 293.14 187.408 292.669 188.253C292.198 189.098 272.653 193.112 275.714 187.408C278.163 182.844 278.305 160.409 278.069 149.762C269.93 148.335 257.716 147.528 247.928 151.067C235.307 155.631 240.158 145.644 244.161 140.081Z" fill="#860808"/>
<path d="M244.161 140.081C240.393 136.7 243.768 131.982 245.809 130.15C246.986 132.686 252.308 138.602 265.118 141.137C281.13 144.306 288.666 136.7 292.198 132.897C296.719 143.715 292.433 143.32 288.666 143.039M244.161 140.081C247.928 143.461 253.423 143.461 255.699 143.039M244.161 140.081C240.158 145.644 235.307 155.631 247.928 151.067C257.716 147.528 269.93 148.335 278.069 149.762M294.015 141.137C296.684 143.884 301.57 149.969 298.556 152.335C295.541 154.701 287.567 152.476 283.956 151.067C282.441 150.64 280.426 150.175 278.069 149.762M278.069 149.762C278.305 160.409 278.163 182.844 275.714 187.408C272.653 193.112 292.198 189.098 292.669 188.253C293.14 187.408 302.559 167.106 294.317 153.372C291.66 153.297 284.898 151.509 283.25 150.875C281.601 150.241 278.985 150.069 278.069 149.762Z" stroke="#222222"/>
<rect width="53.418" height="5.95271" rx="2" transform="matrix(0.978812 0.20476 -0.251492 0.967859 249.896 88.5273)" fill="#202020"/>
<rect width="28.8372" height="23.5035" rx="2" transform="matrix(0.978812 0.20476 -0.251492 0.967859 267.968 69.5117)" fill="#202020"/>
<ellipse rx="3.74914" ry="5.95173" transform="matrix(0.979389 0.201985 -0.248159 0.968719 256.844 111.953)" fill="#202020"/>
<ellipse rx="3.74914" ry="5.95173" transform="matrix(0.979389 0.201985 -0.248159 0.968719 275.211 113.643)" fill="#202020"/>
<path d="M234.348 113.199L264.122 114.5L261.795 125.222L234.348 113.199Z" fill="#FA9334"/>
<path d="M266.531 74.7939C266.342 74.2868 266.609 74.0192 266.766 73.9487C266.766 73.9487 266.13 70.6333 267.708 69.7231C268.125 69.4828 268.421 69.455 268.885 69.3005C272.418 68.6667 288.43 69.3005 295.73 75.0052C296.029 75.4893 296.229 75.7514 296.436 76.2728C297.431 78.7822 294.679 85.4661 294.317 82.8226C294.205 82.0036 294.754 81.4359 294.317 80.7098C293.486 79.3283 291.488 81.4546 289.843 80.9211C288.37 80.4435 288.273 79.0243 286.782 78.5969C285.195 78.1425 284.166 79.3539 282.543 79.0195C280.678 78.6353 280.36 77.0153 278.54 76.4841C276.963 76.024 275.903 76.6558 274.301 76.2728C272.712 75.8929 271.79 74.3009 270.534 74.5826C269.278 74.8643 266.719 75.3009 266.531 74.7939Z" fill="white"/>
<path d="M266.531 74.7939C266.342 74.2868 266.609 74.0192 266.766 73.9487C266.766 73.9487 266.13 70.6333 267.708 69.7231C268.125 69.4828 268.421 69.455 268.885 69.3005C272.418 68.6667 288.43 69.3005 295.73 75.0052C296.029 75.4893 296.229 75.7514 296.436 76.2728C297.431 78.7822 294.679 85.4661 294.317 82.8226C294.205 82.0036 294.754 81.4359 294.317 80.7098C293.486 79.3283 291.488 81.4546 289.843 80.9211C288.37 80.4435 288.273 79.0243 286.782 78.5969C285.195 78.1425 284.166 79.3539 282.543 79.0195C280.678 78.6353 280.36 77.0153 278.54 76.4841C276.963 76.024 275.903 76.6558 274.301 76.2728C272.712 75.8929 271.79 74.3009 270.534 74.5826C269.278 74.8643 266.719 75.3009 266.531 74.7939Z" fill="url(#paint3_linear_381_105)"/>
<path d="M266.531 74.7939C266.342 74.2868 266.609 74.0192 266.766 73.9487C266.766 73.9487 266.13 70.6333 267.708 69.7231C268.125 69.4828 268.421 69.455 268.885 69.3005C272.418 68.6667 288.43 69.3005 295.73 75.0052C296.029 75.4893 296.229 75.7514 296.436 76.2728C297.431 78.7822 294.679 85.4661 294.317 82.8226C294.205 82.0036 294.754 81.4359 294.317 80.7098C293.486 79.3283 291.488 81.4546 289.843 80.9211C288.37 80.4435 288.273 79.0243 286.782 78.5969C285.195 78.1425 284.166 79.3539 282.543 79.0195C280.678 78.6353 280.36 77.0153 278.54 76.4841C276.963 76.024 275.903 76.6558 274.301 76.2728C272.712 75.8929 271.79 74.3009 270.534 74.5826C269.278 74.8643 266.719 75.3009 266.531 74.7939Z" stroke="#078EC8" stroke-opacity="0.15"/>
<path d="M248.87 91.2734C248.207 90.5444 248.877 89.6504 249.576 88.9493C249.883 88.6418 250.518 88.3154 250.518 88.3154L301.852 98.8795C301.852 98.8795 302.575 99.5854 302.794 100.147C303.339 101.552 302.963 104.184 301.381 103.739C300.281 103.43 301.044 101.784 299.968 101.415C298.989 101.079 298.426 102.075 297.378 102.049C295.69 102.007 295.258 100.478 293.61 100.147C291.618 99.747 290.414 101.212 288.43 100.781C286.32 100.323 286.125 97.7683 283.956 97.8231C283.198 97.8423 282.83 98.2323 282.072 98.2457C280.791 98.2683 280.237 97.5209 279.011 97.1893C274.256 95.9037 270.93 98.7892 266.295 97.1893C263.272 96.1455 262.655 93.4758 259.466 92.9636C258.108 92.7456 257.282 93.2251 255.934 92.9636C254.083 92.6047 253.583 90.9889 251.696 90.8508C250.58 90.7692 249.577 92.0512 248.87 91.2734Z" fill="white"/>
<path d="M248.87 91.2734C248.207 90.5444 248.877 89.6504 249.576 88.9493C249.883 88.6418 250.518 88.3154 250.518 88.3154L301.852 98.8795C301.852 98.8795 302.575 99.5854 302.794 100.147C303.339 101.552 302.963 104.184 301.381 103.739C300.281 103.43 301.044 101.784 299.968 101.415C298.989 101.079 298.426 102.075 297.378 102.049C295.69 102.007 295.258 100.478 293.61 100.147C291.618 99.747 290.414 101.212 288.43 100.781C286.32 100.323 286.125 97.7683 283.956 97.8231C283.198 97.8423 282.83 98.2323 282.072 98.2457C280.791 98.2683 280.237 97.5209 279.011 97.1893C274.256 95.9037 270.93 98.7892 266.295 97.1893C263.272 96.1455 262.655 93.4758 259.466 92.9636C258.108 92.7456 257.282 93.2251 255.934 92.9636C254.083 92.6047 253.583 90.9889 251.696 90.8508C250.58 90.7692 249.577 92.0512 248.87 91.2734Z" fill="url(#paint4_linear_381_105)"/>
<path d="M248.87 91.2734C248.207 90.5444 248.877 89.6504 249.576 88.9493C249.883 88.6418 250.518 88.3154 250.518 88.3154L301.852 98.8795C301.852 98.8795 302.575 99.5854 302.794 100.147C303.339 101.552 302.963 104.184 301.381 103.739C300.281 103.43 301.044 101.784 299.968 101.415C298.989 101.079 298.426 102.075 297.378 102.049C295.69 102.007 295.258 100.478 293.61 100.147C291.618 99.747 290.414 101.212 288.43 100.781C286.32 100.323 286.125 97.7683 283.956 97.8231C283.198 97.8423 282.83 98.2323 282.072 98.2457C280.791 98.2683 280.237 97.5209 279.011 97.1893C274.256 95.9037 270.93 98.7892 266.295 97.1893C263.272 96.1455 262.655 93.4758 259.466 92.9636C258.108 92.7456 257.282 93.2251 255.934 92.9636C254.083 92.6047 253.583 90.9889 251.696 90.8508C250.58 90.7692 249.577 92.0512 248.87 91.2734Z" stroke="#078EC8" stroke-opacity="0.15"/>
<path d="M237.095 114.515C236.44 114.251 235.918 113.247 235.918 113.247L264.411 114.303C264.411 114.303 264.498 115.21 264.411 115.782C264.319 116.378 264.537 116.99 263.94 117.261C263.315 117.546 262.991 116.602 262.291 116.628C261.372 116.662 261.295 118.111 260.407 117.895C259.533 117.683 260.146 116.53 259.466 115.994C258.205 115 256.751 115.998 255.227 116.628C254.091 117.097 253.826 117.971 252.637 118.318C249.859 119.129 248.929 115.556 246.043 115.149C244.681 114.956 243.877 115.323 242.511 115.149C241.186 114.979 240.553 114.349 239.215 114.303C238.383 114.275 237.855 114.821 237.095 114.515Z" fill="white"/>
<path d="M237.095 114.515C236.44 114.251 235.918 113.247 235.918 113.247L264.411 114.303C264.411 114.303 264.498 115.21 264.411 115.782C264.319 116.378 264.537 116.99 263.94 117.261C263.315 117.546 262.991 116.602 262.291 116.628C261.372 116.662 261.295 118.111 260.407 117.895C259.533 117.683 260.146 116.53 259.466 115.994C258.205 115 256.751 115.998 255.227 116.628C254.091 117.097 253.826 117.971 252.637 118.318C249.859 119.129 248.929 115.556 246.043 115.149C244.681 114.956 243.877 115.323 242.511 115.149C241.186 114.979 240.553 114.349 239.215 114.303C238.383 114.275 237.855 114.821 237.095 114.515Z" fill="url(#paint5_linear_381_105)"/>
<path d="M237.095 114.515C236.44 114.251 235.918 113.247 235.918 113.247L264.411 114.303C264.411 114.303 264.498 115.21 264.411 115.782C264.319 116.378 264.537 116.99 263.94 117.261C263.315 117.546 262.991 116.602 262.291 116.628C261.372 116.662 261.295 118.111 260.407 117.895C259.533 117.683 260.146 116.53 259.466 115.994C258.205 115 256.751 115.998 255.227 116.628C254.091 117.097 253.826 117.971 252.637 118.318C249.859 119.129 248.929 115.556 246.043 115.149C244.681 114.956 243.877 115.323 242.511 115.149C241.186 114.979 240.553 114.349 239.215 114.303C238.383 114.275 237.855 114.821 237.095 114.515Z" stroke="#078EC8" stroke-opacity="0.15"/>
<ellipse cx="197.561" cy="25.1418" rx="2.82571" ry="2.53538" fill="white"/>
<path d="M199.887 25.1418C199.887 26.2163 198.898 27.1772 197.561 27.1772C196.224 27.1772 195.235 26.2163 195.235 25.1418C195.235 24.0673 196.224 23.1064 197.561 23.1064C198.898 23.1064 199.887 24.0673 199.887 25.1418Z" stroke="#078EC8" stroke-opacity="0.15"/>
<ellipse cx="260.198" cy="49.2278" rx="2.82571" ry="2.53538" fill="white"/>
<path d="M262.523 49.2278C262.523 50.3023 261.535 51.2632 260.198 51.2632C258.861 51.2632 257.872 50.3023 257.872 49.2278C257.872 48.1533 258.861 47.1924 260.198 47.1924C261.535 47.1924 262.523 48.1533 262.523 49.2278Z" stroke="#078EC8" stroke-opacity="0.15"/>
<ellipse cx="117.029" cy="68.6662" rx="2.82571" ry="2.53538" fill="white"/>
<path d="M119.355 68.6662C119.355 69.7408 118.366 70.7016 117.029 70.7016C115.692 70.7016 114.703 69.7408 114.703 68.6662C114.703 67.5917 115.692 66.6309 117.029 66.6309C118.366 66.6309 119.355 67.5917 119.355 68.6662Z" stroke="#078EC8" stroke-opacity="0.15"/>
<ellipse cx="312.002" cy="96.5549" rx="2.82571" ry="2.53538" fill="white"/>
<path d="M314.328 96.5549C314.328 97.6294 313.339 98.5903 312.002 98.5903C310.666 98.5903 309.677 97.6294 309.677 96.5549C309.677 95.4804 310.666 94.5195 312.002 94.5195C313.339 94.5195 314.328 95.4804 314.328 96.5549Z" stroke="#078EC8" stroke-opacity="0.15"/>
<ellipse cx="303.525" cy="125.289" rx="2.82571" ry="2.53538" fill="white"/>
<path d="M305.851 125.289C305.851 126.364 304.862 127.325 303.525 127.325C302.188 127.325 301.199 126.364 301.199 125.289C301.199 124.215 302.188 123.254 303.525 123.254C304.862 123.254 305.851 124.215 305.851 125.289Z" stroke="#078EC8" stroke-opacity="0.15"/>
<ellipse cx="188.142" cy="99.091" rx="2.82571" ry="2.53538" fill="white"/>
<path d="M190.468 99.091C190.468 100.166 189.479 101.126 188.142 101.126C186.805 101.126 185.816 100.166 185.816 99.091C185.816 98.0165 186.805 97.0557 188.142 97.0557C189.479 97.0557 190.468 98.0165 190.468 99.091Z" stroke="#078EC8" stroke-opacity="0.15"/>
<ellipse cx="79.8228" cy="22.6067" rx="2.82571" ry="2.53538" fill="white"/>
<path d="M82.1485 22.6067C82.1485 23.6812 81.1596 24.6421 79.8228 24.6421C78.486 24.6421 77.4971 23.6812 77.4971 22.6067C77.4971 21.5322 78.486 20.5713 79.8228 20.5713C81.1596 20.5713 82.1485 21.5322 82.1485 22.6067Z" stroke="#078EC8" stroke-opacity="0.15"/>
<ellipse cx="51.5669" cy="81.343" rx="2.82571" ry="2.53538" fill="white"/>
<path d="M53.8926 81.343C53.8926 82.4175 52.9037 83.3784 51.5669 83.3784C50.2301 83.3784 49.2412 82.4175 49.2412 81.343C49.2412 80.2685 50.2301 79.3076 51.5669 79.3076C52.9037 79.3076 53.8926 80.2685 53.8926 81.343Z" stroke="#078EC8" stroke-opacity="0.15"/>
<ellipse cx="25.1929" cy="130.36" rx="2.82571" ry="2.53538" fill="white"/>
<path d="M27.5186 130.36C27.5186 131.434 26.5297 132.395 25.1929 132.395C23.8561 132.395 22.8672 131.434 22.8672 130.36C22.8672 129.285 23.8561 128.324 25.1929 128.324C26.5297 128.324 27.5186 129.285 27.5186 130.36Z" stroke="#078EC8" stroke-opacity="0.15"/>
<ellipse cx="86.4165" cy="157.827" rx="2.82571" ry="2.53538" fill="white"/>
<path d="M88.7422 157.827C88.7422 158.902 87.7533 159.863 86.4165 159.863C85.0797 159.863 84.0908 158.902 84.0908 157.827C84.0908 156.753 85.0797 155.792 86.4165 155.792C87.7533 155.792 88.7422 156.753 88.7422 157.827Z" stroke="#078EC8" stroke-opacity="0.15"/>
<ellipse cx="145.286" cy="122.754" rx="2.82571" ry="2.53538" fill="white"/>
<path d="M147.611 122.754C147.611 123.829 146.622 124.79 145.286 124.79C143.949 124.79 142.96 123.829 142.96 122.754C142.96 121.68 143.949 120.719 145.286 120.719C146.622 120.719 147.611 121.68 147.611 122.754Z" stroke="#078EC8" stroke-opacity="0.15"/>
<ellipse cx="162.71" cy="46.6936" rx="2.82571" ry="2.53538" fill="white"/>
<path d="M165.036 46.6936C165.036 47.7681 164.047 48.729 162.71 48.729C161.374 48.729 160.385 47.7681 160.385 46.6936C160.385 45.6191 161.374 44.6582 162.71 44.6582C164.047 44.6582 165.036 45.6191 165.036 46.6936Z" stroke="#078EC8" stroke-opacity="0.15"/>
<ellipse cx="262.552" cy="13.7326" rx="2.82571" ry="2.53538" fill="white"/>
<path d="M264.878 13.7326C264.878 14.8072 263.889 15.768 262.552 15.768C261.215 15.768 260.227 14.8072 260.227 13.7326C260.227 12.6581 261.215 11.6973 262.552 11.6973C263.889 11.6973 264.878 12.6581 264.878 13.7326Z" stroke="#078EC8" stroke-opacity="0.15"/>
<ellipse cx="190.967" cy="157.827" rx="2.82571" ry="2.53538" fill="white"/>
<path d="M193.293 157.827C193.293 158.902 192.304 159.863 190.967 159.863C189.63 159.863 188.642 158.902 188.642 157.827C188.642 156.753 189.63 155.792 190.967 155.792C192.304 155.792 193.293 156.753 193.293 157.827Z" stroke="#078EC8" stroke-opacity="0.15"/>
<ellipse cx="290.809" cy="165.856" rx="2.82571" ry="2.53538" fill="white"/>
<path d="M293.135 165.856C293.135 166.93 292.146 167.891 290.809 167.891C289.472 167.891 288.483 166.93 288.483 165.856C288.483 164.781 289.472 163.82 290.809 163.82C292.146 163.82 293.135 164.781 293.135 165.856Z" stroke="#078EC8" stroke-opacity="0.15"/>
<ellipse cx="214.987" cy="63.1731" rx="2.82571" ry="2.53538" fill="white"/>
<path d="M217.313 63.1731C217.313 64.2476 216.324 65.2085 214.987 65.2085C213.65 65.2085 212.661 64.2476 212.661 63.1731C212.661 62.0986 213.65 61.1377 214.987 61.1377C216.324 61.1377 217.313 62.0986 217.313 63.1731Z" stroke="#078EC8" stroke-opacity="0.15"/>
<path d="M25.5 0C18.3333 1 4 6.4 4 20V185.5L10.2956 119.638C10.4261 118.273 11.1065 117.017 12.2108 116.204C16.4986 113.047 23.5177 108.5 27 108.5C31 108.5 59.6667 105.167 73.5 103.5L32.6587 105.99C32.6234 105.992 32.6106 105.945 32.6422 105.929C38.8627 102.815 51.5241 96.2677 56.851 92.7866C57.6171 92.286 58.4809 91.9631 59.3913 91.8705C74.8594 90.297 113.565 82.3778 131.5 78.5L57.3281 88.3896C56.7798 88.4627 56.2475 88.6262 55.7528 88.8736L16.2085 108.646C13.8654 109.817 11.1934 107.802 11.6762 105.227C11.8776 104.153 12.6184 103.258 13.6363 102.86L22.9552 99.2132C23.3044 99.0765 23.5859 98.8083 23.7393 98.4662L29.2837 86.0979C29.365 85.9165 29.1135 85.7743 29 85.9375L28 87.375L26 90.25L22.7281 94.9534C22.2503 95.6401 21.6079 96.196 20.8596 96.5702L17.5 98.25L15.25 99.375L14.125 99.9375L13.5625 100.219L13.2812 100.359L13.1406 100.43C13.0836 100.458 13.0179 100.413 13.0307 100.35C14.7169 92.1255 18.8195 75.1805 22 72C25.1364 68.8636 29.1695 63.2295 30.8978 60.6529C30.9533 60.5701 31.067 60.5511 31.1463 60.6115L40.1575 67.4772C41.0284 68.1407 42.0929 68.5 43.1877 68.5H65.4861C66.4732 68.5 67.4383 68.7922 68.2596 69.3397L73.7794 73.0196C74.2562 73.3375 74.7835 73.5744 75.3494 73.6652C76.3449 73.825 77.9712 74 80 74C76.8562 73.607 71.5246 70.2863 69.1258 68.5894C69.0895 68.5638 69.1097 68.5069 69.154 68.5096L76.5154 68.9697C76.8345 68.9897 77.1521 68.9391 77.449 68.8206C80.1938 67.7249 86.0877 65.3893 91 63.5C69.5 69.5 30 65 34 57.5C37.0401 51.7999 57.4692 47.4535 68.7925 45.7472C69.9023 45.5799 71.0267 45.8083 71.9953 46.3753L88.9548 56.3028C90.2492 57.0605 91.8155 57.1971 93.2216 56.6748L108.5 51L95.03 54.0416C93.7307 54.335 92.368 54.0978 91.2443 53.3827L76.6858 44.1182C76.6149 44.0731 76.6317 43.9653 76.7129 43.9439L131.5 29.5L51.6356 43.6224C50.2732 43.8633 48.7919 43.5825 47.988 42.4564C47.1532 41.2872 46.7104 39.7896 48 38.5C48.7584 37.7416 51.0351 34.9128 54.0345 31.1859C60.923 22.627 71.6234 9.33159 76.5 5.5C82.0478 1.14098 115.862 1.9837 132.534 2.97209C132.851 2.99087 133.158 2.97934 133.473 2.9383L156 0H74L42.7391 38.2078C42.5799 38.4023 42.4063 38.5846 42.2198 38.753L7 70.5486C6.85955 70.6754 6.64135 70.5367 6.69656 70.3557L14.9864 43.1834C15.3188 42.0939 16.0133 41.1505 16.9548 40.5095L39 25.5L16.4316 40.0754C15.5034 40.6749 14.7999 41.5649 14.4311 42.6064L6.72475 64.3654C6.68852 64.4677 6.5368 64.4404 6.5441 64.3321C6.91289 58.8654 7.84914 47.6379 9 41.5C10.2 35.1 13.8333 31.8333 15.5 31L49.5 16.5L7.6558 31.9425C7.56711 31.9752 7.47513 31.9344 7.46319 31.8407C7.35593 30.9982 7.53676 27.1085 9 16.5C10.6 4.9 34 0.666667 45.5 0H25.5Z" fill="#202020"/>
<path d="M10.3577 112.692C8.80646 114.463 12 104 12 104C12.5518 104.99 11.8517 108.211 13.5 108C15.1483 107.789 56.9819 86.9159 56.9819 86.9159L103.371 81C103.371 81 105.179 81.3394 106.196 81.8451C109.809 83.6408 99.9563 83.5014 95.8354 83.7467C93.8167 83.8668 92.6722 83.6091 90.6549 83.7467C86.6068 84.0227 84.5321 85.2505 80.5294 85.8595C75.8834 86.5664 73.0656 85.8004 68.5202 86.9159C66.6406 87.3771 65.7564 88.3 63.8107 88.3949C62.2256 88.4722 61.2991 87.2734 59.8076 87.761C58.9436 88.0435 58.705 88.5935 57.9238 89.0287C56.0949 90.0476 54.6982 89.9102 52.7433 90.719C49.2459 92.1659 48.1673 94.5185 44.5017 95.5785C43.3339 95.9161 42.604 95.863 41.4405 96.2123C38.1751 97.1925 37.2192 99.2653 34.1407 100.649C31.8504 101.679 30.0005 101.306 28.0184 102.762C27.0611 103.465 26.8414 104.156 25.8991 104.875C23.6359 106.602 21.1236 105.71 18.8348 107.41C18.1336 107.931 17.89 108.371 17.1865 108.889C15.2454 110.319 12.8398 109.433 11.2996 111.213C10.845 111.739 10.8159 112.169 10.3577 112.692Z" fill="white"/>
<path d="M10.3577 112.692C8.80646 114.463 12 104 12 104C12.5518 104.99 11.8517 108.211 13.5 108C15.1483 107.789 56.9819 86.9159 56.9819 86.9159L103.371 81C103.371 81 105.179 81.3394 106.196 81.8451C109.809 83.6408 99.9563 83.5014 95.8354 83.7467C93.8167 83.8668 92.6722 83.6091 90.6549 83.7467C86.6068 84.0227 84.5321 85.2505 80.5294 85.8595C75.8834 86.5664 73.0656 85.8004 68.5202 86.9159C66.6406 87.3771 65.7564 88.3 63.8107 88.3949C62.2256 88.4722 61.2991 87.2734 59.8076 87.761C58.9436 88.0435 58.705 88.5935 57.9238 89.0287C56.0949 90.0476 54.6982 89.9102 52.7433 90.719C49.2459 92.1659 48.1673 94.5185 44.5017 95.5785C43.3339 95.9161 42.604 95.863 41.4405 96.2123C38.1751 97.1925 37.2192 99.2653 34.1407 100.649C31.8504 101.679 30.0005 101.306 28.0184 102.762C27.0611 103.465 26.8414 104.156 25.8991 104.875C23.6359 106.602 21.1236 105.71 18.8348 107.41C18.1336 107.931 17.89 108.371 17.1865 108.889C15.2454 110.319 12.8398 109.433 11.2996 111.213C10.845 111.739 10.8159 112.169 10.3577 112.692Z" fill="url(#paint6_linear_381_105)"/>
<path d="M10.3577 112.692C8.80646 114.463 12 104 12 104C12.5518 104.99 11.8517 108.211 13.5 108C15.1483 107.789 56.9819 86.9159 56.9819 86.9159L103.371 81C103.371 81 105.179 81.3394 106.196 81.8451C109.809 83.6408 99.9563 83.5014 95.8354 83.7467C93.8167 83.8668 92.6722 83.6091 90.6549 83.7467C86.6068 84.0227 84.5321 85.2505 80.5294 85.8595C75.8834 86.5664 73.0656 85.8004 68.5202 86.9159C66.6406 87.3771 65.7564 88.3 63.8107 88.3949C62.2256 88.4722 61.2991 87.2734 59.8076 87.761C58.9436 88.0435 58.705 88.5935 57.9238 89.0287C56.0949 90.0476 54.6982 89.9102 52.7433 90.719C49.2459 92.1659 48.1673 94.5185 44.5017 95.5785C43.3339 95.9161 42.604 95.863 41.4405 96.2123C38.1751 97.1925 37.2192 99.2653 34.1407 100.649C31.8504 101.679 30.0005 101.306 28.0184 102.762C27.0611 103.465 26.8414 104.156 25.8991 104.875C23.6359 106.602 21.1236 105.71 18.8348 107.41C18.1336 107.931 17.89 108.371 17.1865 108.889C15.2454 110.319 12.8398 109.433 11.2996 111.213C10.845 111.739 10.8159 112.169 10.3577 112.692Z" stroke="#078EC8" stroke-opacity="0.15"/>
<path d="M33.9995 107C33.5178 106.654 31.7863 106.266 31.9995 105.747C32.1585 105.36 51.9995 103.5 51.9995 103.5L71.5476 103C71.5476 103 72.648 103.242 73.1959 103.634C74.6419 104.667 70.3328 103.981 68.4864 104.056C66.9247 104.12 66.0345 103.882 64.4833 104.056C62.9784 104.225 62.2305 104.836 60.7157 104.902C59.3257 104.961 58.575 104.497 57.1835 104.479C54.5505 104.445 53.2152 105.934 50.5902 105.747C49.0784 105.639 42.0055 105.839 40.4995 106C39.1921 106.14 35.0276 107.738 33.9995 107Z" fill="white"/>
<path d="M33.9995 107C33.5178 106.654 31.7863 106.266 31.9995 105.747C32.1585 105.36 51.9995 103.5 51.9995 103.5L71.5476 103C71.5476 103 72.648 103.242 73.1959 103.634C74.6419 104.667 70.3328 103.981 68.4864 104.056C66.9247 104.12 66.0345 103.882 64.4833 104.056C62.9784 104.225 62.2305 104.836 60.7157 104.902C59.3257 104.961 58.575 104.497 57.1835 104.479C54.5505 104.445 53.2152 105.934 50.5902 105.747C49.0784 105.639 42.0055 105.839 40.4995 106C39.1921 106.14 35.0276 107.738 33.9995 107Z" fill="url(#paint7_linear_381_105)"/>
<path d="M33.9995 107C33.5178 106.654 31.7863 106.266 31.9995 105.747C32.1585 105.36 51.9995 103.5 51.9995 103.5L71.5476 103C71.5476 103 72.648 103.242 73.1959 103.634C74.6419 104.667 70.3328 103.981 68.4864 104.056C66.9247 104.12 66.0345 103.882 64.4833 104.056C62.9784 104.225 62.2305 104.836 60.7157 104.902C59.3257 104.961 58.575 104.497 57.1835 104.479C54.5505 104.445 53.2152 105.934 50.5902 105.747C49.0784 105.639 42.0055 105.839 40.4995 106C39.1921 106.14 35.0276 107.738 33.9995 107Z" stroke="#078EC8" stroke-opacity="0.15"/>
<path d="M32.964 60.0044C32.5472 59.2689 32.7285 57.8916 32.964 57.8916H34.6123C38.1916 68.0331 66.4016 66.9063 80.0592 65.0752C80.0592 65.0752 80.8037 65.6338 81.0011 66.1316C81.5996 67.641 78.3008 66.7933 76.527 66.9767C74.3345 67.2034 73.076 66.824 70.8756 66.9767C68.5543 67.1378 67.3148 67.7327 64.9887 67.8219C62.5929 67.9137 61.2624 67.3125 58.8663 67.3993C57.2935 67.4562 56.4338 67.9169 54.8632 67.8219C53.3501 67.7303 52.607 67.0896 51.0956 66.9767C49.3448 66.846 48.332 67.7594 46.6216 67.3993C45.4205 67.1464 45.0201 66.2689 43.7959 66.1316C42.1509 65.9471 41.3223 67.973 39.7928 67.3993C38.3505 66.8582 39.2092 65.0089 37.909 64.2301C37.1834 63.7955 36.4196 64.1378 35.7897 63.5962C35.0327 62.9453 35.7047 62.0298 35.0833 61.2721C34.4938 60.5533 33.4148 60.8 32.964 60.0044Z" fill="white"/>
<path d="M32.964 60.0044C32.5472 59.2689 32.7285 57.8916 32.964 57.8916H34.6123C38.1916 68.0331 66.4016 66.9063 80.0592 65.0752C80.0592 65.0752 80.8037 65.6338 81.0011 66.1316C81.5996 67.641 78.3008 66.7933 76.527 66.9767C74.3345 67.2034 73.076 66.824 70.8756 66.9767C68.5543 67.1378 67.3148 67.7327 64.9887 67.8219C62.5929 67.9137 61.2624 67.3125 58.8663 67.3993C57.2935 67.4562 56.4338 67.9169 54.8632 67.8219C53.3501 67.7303 52.607 67.0896 51.0956 66.9767C49.3448 66.846 48.332 67.7594 46.6216 67.3993C45.4205 67.1464 45.0201 66.2689 43.7959 66.1316C42.1509 65.9471 41.3223 67.973 39.7928 67.3993C38.3505 66.8582 39.2092 65.0089 37.909 64.2301C37.1834 63.7955 36.4196 64.1378 35.7897 63.5962C35.0327 62.9453 35.7047 62.0298 35.0833 61.2721C34.4938 60.5533 33.4148 60.8 32.964 60.0044Z" fill="url(#paint8_linear_381_105)"/>
<path d="M32.964 60.0044C32.5472 59.2689 32.7285 57.8916 32.964 57.8916H34.6123C38.1916 68.0331 66.4016 66.9063 80.0592 65.0752C80.0592 65.0752 80.8037 65.6338 81.0011 66.1316C81.5996 67.641 78.3008 66.7933 76.527 66.9767C74.3345 67.2034 73.076 66.824 70.8756 66.9767C68.5543 67.1378 67.3148 67.7327 64.9887 67.8219C62.5929 67.9137 61.2624 67.3125 58.8663 67.3993C57.2935 67.4562 56.4338 67.9169 54.8632 67.8219C53.3501 67.7303 52.607 67.0896 51.0956 66.9767C49.3448 66.846 48.332 67.7594 46.6216 67.3993C45.4205 67.1464 45.0201 66.2689 43.7959 66.1316C42.1509 65.9471 41.3223 67.973 39.7928 67.3993C38.3505 66.8582 39.2092 65.0089 37.909 64.2301C37.1834 63.7955 36.4196 64.1378 35.7897 63.5962C35.0327 62.9453 35.7047 62.0298 35.0833 61.2721C34.4938 60.5533 33.4148 60.8 32.964 60.0044Z" stroke="#078EC8" stroke-opacity="0.15"/>
<path d="M48.5049 48.5954C46.7297 47.6904 47.7985 43.9472 47.7985 43.9472L103.606 34.017C103.606 34.017 105.363 33.7521 105.726 34.4395C106.174 35.2898 104.528 35.4697 103.606 35.9185C101.257 37.0628 99.3443 35.6715 96.7774 36.3411C94.6055 36.9076 93.7208 37.967 91.597 38.6652C87.2487 40.0947 83.6651 37.6129 79.8232 39.9329C77.6055 41.272 77.7534 43.5326 75.3491 44.5811C71.7317 46.1586 69.2186 42.4717 65.2237 42.8908C61.899 43.2397 60.5649 45.6468 57.2175 45.6375C55.6301 45.6331 54.7795 44.7654 53.2144 45.0036C50.8346 45.366 50.6036 49.6654 48.5049 48.5954Z" fill="white"/>
<path d="M48.5049 48.5954C46.7297 47.6904 47.7985 43.9472 47.7985 43.9472L103.606 34.017C103.606 34.017 105.363 33.7521 105.726 34.4395C106.174 35.2898 104.528 35.4697 103.606 35.9185C101.257 37.0628 99.3443 35.6715 96.7774 36.3411C94.6055 36.9076 93.7208 37.967 91.597 38.6652C87.2487 40.0947 83.6651 37.6129 79.8232 39.9329C77.6055 41.272 77.7534 43.5326 75.3491 44.5811C71.7317 46.1586 69.2186 42.4717 65.2237 42.8908C61.899 43.2397 60.5649 45.6468 57.2175 45.6375C55.6301 45.6331 54.7795 44.7654 53.2144 45.0036C50.8346 45.366 50.6036 49.6654 48.5049 48.5954Z" fill="url(#paint9_linear_381_105)"/>
<path d="M48.5049 48.5954C46.7297 47.6904 47.7985 43.9472 47.7985 43.9472L103.606 34.017C103.606 34.017 105.363 33.7521 105.726 34.4395C106.174 35.2898 104.528 35.4697 103.606 35.9185C101.257 37.0628 99.3443 35.6715 96.7774 36.3411C94.6055 36.9076 93.7208 37.967 91.597 38.6652C87.2487 40.0947 83.6651 37.6129 79.8232 39.9329C77.6055 41.272 77.7534 43.5326 75.3491 44.5811C71.7317 46.1586 69.2186 42.4717 65.2237 42.8908C61.899 43.2397 60.5649 45.6468 57.2175 45.6375C55.6301 45.6331 54.7795 44.7654 53.2144 45.0036C50.8346 45.366 50.6036 49.6654 48.5049 48.5954Z" stroke="#078EC8" stroke-opacity="0.15"/>
</g>
<defs>
<filter id="filter0_d_381_105" x="0" y="0" width="331" height="214" filterUnits="userSpaceOnUse" color-interpolation-filters="sRGB">
<feFlood flood-opacity="0" result="BackgroundImageFix"/>
<feColorMatrix in="SourceAlpha" type="matrix" values="0 0 0 0 0 0 0 0 0 0 0 0 0 0 0 0 0 0 127 0" result="hardAlpha"/>
<feOffset dy="4"/>
<feGaussianBlur stdDeviation="2"/>
<feComposite in2="hardAlpha" operator="out"/>
<feColorMatrix type="matrix" values="0 0 0 0 0 0 0 0 0 0 0 0 0 0 0 0 0 0 0.25 0"/>
<feBlend mode="normal" in2="BackgroundImageFix" result="effect1_dropShadow_381_105"/>
<feBlend mode="normal" in="SourceGraphic" in2="effect1_dropShadow_381_105" result="shape"/>
</filter>
<linearGradient id="paint0_linear_381_105" x1="-0.0138882" y1="20.5449" x2="343.12" y2="91.3361" gradientUnits="userSpaceOnUse">
<stop stop-color="white"/>
<stop offset="1" stop-color="white" stop-opacity="0"/>
</linearGradient>
<linearGradient id="paint1_linear_381_105" x1="233.328" y1="140.08" x2="298.863" y2="213.119" gradientUnits="userSpaceOnUse">
<stop stop-color="#C6E9F8"/>
<stop offset="1" stop-color="#F0F0F0"/>
</linearGradient>
<linearGradient id="paint2_linear_381_105" x1="242.276" y1="93.5986" x2="291.427" y2="148.378" gradientUnits="userSpaceOnUse">
<stop stop-color="#C6E9F8"/>
<stop offset="1" stop-color="#F0F0F0"/>
</linearGradient>
<linearGradient id="paint3_linear_381_105" x1="266.295" y1="65.92" x2="294.14" y2="88.2248" gradientUnits="userSpaceOnUse">
<stop stop-color="#CDEAF7"/>
<stop offset="1" stop-color="white" stop-opacity="0"/>
</linearGradient>
<linearGradient id="paint4_linear_381_105" x1="248.399" y1="83.4559" x2="300.639" y2="111.563" gradientUnits="userSpaceOnUse">
<stop stop-color="#CDEAF7"/>
<stop offset="1" stop-color="white" stop-opacity="0"/>
</linearGradient>
<linearGradient id="paint5_linear_381_105" x1="235.212" y1="111.768" x2="265.406" y2="120.052" gradientUnits="userSpaceOnUse">
<stop stop-color="#C9E7F4"/>
<stop offset="1" stop-color="white" stop-opacity="0"/>
</linearGradient>
<linearGradient id="paint6_linear_381_105" x1="9.65113" y1="81" x2="104.413" y2="119.776" gradientUnits="userSpaceOnUse">
<stop stop-color="#CDEAF7"/>
<stop offset="1" stop-color="white" stop-opacity="0"/>
</linearGradient>
<linearGradient id="paint7_linear_381_105" x1="43.0549" y1="103" x2="73.5566" y2="107.184" gradientUnits="userSpaceOnUse">
<stop stop-color="#CDEAF7"/>
<stop offset="1" stop-color="white" stop-opacity="0"/>
</linearGradient>
<linearGradient id="paint8_linear_381_105" x1="32.7285" y1="55.1449" x2="79.3917" y2="78.1187" gradientUnits="userSpaceOnUse">
<stop stop-color="#CDEAF7"/>
<stop offset="1" stop-color="white" stop-opacity="0"/>
</linearGradient>
<linearGradient id="paint9_linear_381_105" x1="47.3275" y1="39.5103" x2="105.692" y2="42.6578" gradientUnits="userSpaceOnUse">
<stop stop-color="#CDEAF7"/>
<stop offset="1" stop-color="white" stop-opacity="0"/>
</linearGradient>
</defs>
</svg>
