<svg width="51" height="50" viewBox="0 0 51 50" fill="none" xmlns="http://www.w3.org/2000/svg">
<ellipse cx="25.5" cy="25" rx="25.5" ry="25" fill="#F9F9F9"/>
<ellipse cx="25.5" cy="27.9997" rx="23.46" ry="20.6667" fill="#078EC8" fill-opacity="0.37"/>
<path d="M35.0201 9.66634C33.3201 11.333 30.7223 12.6663 25.8401 12.6663C20.9579 12.6663 16.6603 11.3232 16.6603 9.66634C13.9402 8.99967 20.9579 7.33301 25.8401 7.33301C30.7223 7.33301 37.7401 9.33301 35.0201 9.66634Z" fill="#D5E9F2"/>
<path d="M36.2198 6.99935C36.2198 8.49606 35.1739 9.94405 33.2816 11.0456C31.4018 12.1398 28.7718 12.8327 25.8398 12.8327C22.9078 12.8327 20.2779 12.1398 18.398 11.0456C16.5058 9.94405 15.4598 8.49606 15.4598 6.99935C15.4598 5.50264 16.5058 4.05464 18.398 2.95313C20.2779 1.85886 22.9078 1.16602 25.8398 1.16602C28.7718 1.16602 31.4018 1.85886 33.2816 2.95313C35.1739 4.05464 36.2198 5.50264 36.2198 6.99935Z" stroke="#E7E7E7"/>
<path d="M19.7203 33.3333C15.6403 35.7333 12.5803 34.3333 11.5603 33.3333C11.3336 33 11.0843 32.1333 11.9003 31.3333C15.7083 28.1333 18.9269 30 20.0603 31.3333C20.4003 31.1111 21.3523 30.5333 22.4403 30C23.5283 31.3333 22.8936 34.1111 22.4403 35.3333C21.8736 34.8888 20.5363 33.8666 19.7203 33.3333Z" fill="#EC6D25"/>
<path d="M15.98 33.6663C16.66 33.4441 17.68 32.8663 16.32 32.333C17 31.9997 17.68 31.333 15.98 31.333" stroke="#A34A18" stroke-width="0.5"/>
<ellipse cx="13.2605" cy="31.6663" rx="0.34" ry="0.333333" fill="#282828"/>
<path d="M35.5816 39.7669C31.5016 42.1669 28.4416 40.7669 27.4216 39.7669C27.1949 39.4336 26.9456 38.5669 27.7616 37.7669C31.5696 34.5669 34.7883 36.4336 35.9216 37.7669C36.2616 37.5447 37.2136 36.9669 38.3016 36.4336C39.3896 37.7669 38.7549 40.5447 38.3016 41.7669C37.7349 41.3224 36.3976 40.3002 35.5816 39.7669Z" fill="#86AD73"/>
<path d="M31.8418 40.0999C32.5218 39.8777 33.5418 39.2999 32.1818 38.7666C32.8618 38.4333 33.5418 37.7666 31.8418 37.7666" stroke="#416B2C" stroke-width="0.5"/>
<ellipse cx="29.1218" cy="38.0999" rx="0.34" ry="0.333333" fill="#282828"/>
<path d="M29.161 25.0999C33.241 27.4999 36.301 26.0999 37.321 25.0999C37.5477 24.7666 37.797 23.8999 36.981 23.0999C33.173 19.8999 29.9544 21.7666 28.821 23.0999C28.481 22.8777 27.529 22.2999 26.441 21.7666C25.353 23.0999 25.9877 25.8777 26.441 27.0999C27.0077 26.6554 28.345 25.6332 29.161 25.0999Z" fill="#EAAECE"/>
<path d="M32.9003 25.4339C32.2203 25.2117 31.2003 24.6339 32.5603 24.1006C31.8803 23.7673 31.2003 23.1006 32.9003 23.1006" stroke="#B8608F" stroke-width="0.5"/>
<ellipse rx="0.34" ry="0.333333" transform="matrix(-1 0 0 1 35.6208 23.4339)" fill="#282828"/>
</svg>
