<svg width="98" height="128" viewBox="0 0 98 128" fill="none" xmlns="http://www.w3.org/2000/svg">
<g filter="url(#filter0_d_450_2)">
<rect x="5" y="1" width="88" height="118" rx="11" fill="#DF9766" stroke="#F7F7F7" stroke-width="2"/>
<ellipse cx="48.5" cy="60" rx="25.5" ry="25" fill="#F9F9F9"/>
<ellipse cx="48.5" cy="62.9997" rx="23.46" ry="20.6667" fill="#078EC8" fill-opacity="0.37"/>
<path d="M58.0201 44.6663C56.3201 46.333 53.7223 47.6663 48.8401 47.6663C43.9579 47.6663 39.6603 46.3232 39.6603 44.6663C36.9402 43.9997 43.9579 42.333 48.8401 42.333C53.7223 42.333 60.7401 44.333 58.0201 44.6663Z" fill="#D5E9F2"/>
<path d="M59.2198 41.9993C59.2198 43.4961 58.1739 44.9441 56.2816 46.0456C54.4018 47.1398 51.7718 47.8327 48.8398 47.8327C45.9078 47.8327 43.2779 47.1398 41.398 46.0456C39.5058 44.9441 38.4598 43.4961 38.4598 41.9993C38.4598 40.5026 39.5058 39.0546 41.398 37.9531C43.2779 36.8589 45.9078 36.166 48.8398 36.166C51.7718 36.166 54.4018 36.8589 56.2816 37.9531C58.1739 39.0546 59.2198 40.5026 59.2198 41.9993Z" stroke="#E7E7E7"/>
<path d="M42.7203 68.3333C38.6403 70.7333 35.5803 69.3333 34.5603 68.3333C34.3336 68 34.0843 67.1333 34.9003 66.3333C38.7083 63.1333 41.9269 65 43.0603 66.3333C43.4003 66.1111 44.3523 65.5333 45.4403 65C46.5283 66.3333 45.8936 69.1111 45.4403 70.3333C44.8736 69.8888 43.5363 68.8666 42.7203 68.3333Z" fill="#EC6D25"/>
<path d="M38.98 68.6663C39.66 68.4441 40.68 67.8663 39.32 67.333C40 66.9997 40.68 66.333 38.98 66.333" stroke="#A34A18" stroke-width="0.5"/>
<ellipse cx="36.2605" cy="66.6663" rx="0.34" ry="0.333333" fill="#282828"/>
<path d="M58.5816 74.7669C54.5016 77.1669 51.4416 75.7669 50.4216 74.7669C50.1949 74.4336 49.9456 73.5669 50.7616 72.7669C54.5696 69.5669 57.7883 71.4336 58.9216 72.7669C59.2616 72.5447 60.2136 71.9669 61.3016 71.4336C62.3896 72.7669 61.7549 75.5447 61.3016 76.7669C60.7349 76.3224 59.3976 75.3002 58.5816 74.7669Z" fill="#86AD73"/>
<path d="M54.8418 75.0999C55.5218 74.8777 56.5418 74.2999 55.1818 73.7666C55.8618 73.4333 56.5418 72.7666 54.8418 72.7666" stroke="#416B2C" stroke-width="0.5"/>
<ellipse cx="52.1218" cy="73.0999" rx="0.34" ry="0.333333" fill="#282828"/>
<path d="M52.161 60.0999C56.241 62.4999 59.301 61.0999 60.321 60.0999C60.5477 59.7666 60.797 58.8999 59.981 58.0999C56.173 54.8999 52.9544 56.7666 51.821 58.0999C51.481 57.8777 50.529 57.2999 49.441 56.7666C48.353 58.0999 48.9877 60.8777 49.441 62.0999C50.0077 61.6554 51.345 60.6332 52.161 60.0999Z" fill="#EAAECE"/>
<path d="M55.9003 60.4339C55.2203 60.2117 54.2003 59.6339 55.5603 59.1006C54.8803 58.7673 54.2003 58.1006 55.9003 58.1006" stroke="#B8608F" stroke-width="0.5"/>
<ellipse rx="0.34" ry="0.333333" transform="matrix(-1 0 0 1 58.6208 58.4339)" fill="#282828"/>
</g>
<defs>
<filter id="filter0_d_450_2" x="0" y="0" width="98" height="128" filterUnits="userSpaceOnUse" color-interpolation-filters="sRGB">
<feFlood flood-opacity="0" result="BackgroundImageFix"/>
<feColorMatrix in="SourceAlpha" type="matrix" values="0 0 0 0 0 0 0 0 0 0 0 0 0 0 0 0 0 0 127 0" result="hardAlpha"/>
<feOffset dy="4"/>
<feGaussianBlur stdDeviation="2"/>
<feComposite in2="hardAlpha" operator="out"/>
<feColorMatrix type="matrix" values="0 0 0 0 0 0 0 0 0 0 0 0 0 0 0 0 0 0 0.25 0"/>
<feBlend mode="normal" in2="BackgroundImageFix" result="effect1_dropShadow_450_2"/>
<feBlend mode="normal" in="SourceGraphic" in2="effect1_dropShadow_450_2" result="shape"/>
</filter>
</defs>
</svg>
