<svg width="98" height="128" viewBox="0 0 98 128" fill="none" xmlns="http://www.w3.org/2000/svg">
<g filter="url(#filter0_d_450_138)">
<rect x="5" y="1" width="88" height="118" rx="11" fill="#DF9766" stroke="#F7F7F7" stroke-width="2"/>
<path d="M36.25 42.2344C36.1302 42.2344 35.9974 42.2109 35.8516 42.1641C35.1797 41.9453 34.3594 41.8359 33.3906 41.8359C33.0729 41.8359 32.7057 41.8568 32.2891 41.8984C31.8776 41.9401 31.4193 42.0026 30.9141 42.0859C30.9245 43.0859 30.9245 43.9453 30.9141 44.6641C31.7057 44.4714 32.362 44.375 32.8828 44.375C33.8516 44.375 34.6953 44.4193 35.4141 44.5078C36.0859 44.5911 36.4219 44.9453 36.4219 45.5703C36.4219 45.8724 36.3151 46.125 36.1016 46.3281C35.888 46.5312 35.6276 46.6328 35.3203 46.6328C35.0495 46.6328 34.6432 46.612 34.1016 46.5703C33.5599 46.5286 33.1536 46.5078 32.8828 46.5078C32.5026 46.5078 31.8464 46.6276 30.9141 46.8672V51.7656C30.9141 52.0677 30.7943 52.3203 30.5547 52.5234C30.3203 52.7266 30.0495 52.8281 29.7422 52.8281C29.4401 52.8281 29.1953 52.7266 29.0078 52.5234C28.8203 52.3255 28.7266 52.0729 28.7266 51.7656V42.8125C28.7266 42.6094 28.7292 42.3021 28.7344 41.8906C28.7448 41.4792 28.75 41.1719 28.75 40.9688C28.75 40.6615 28.8516 40.4062 29.0547 40.2031C29.263 40 29.5234 39.8984 29.8359 39.8984C30.0339 39.8984 30.2083 39.9375 30.3594 40.0156C30.9635 39.9115 31.5182 39.8359 32.0234 39.7891C32.5286 39.737 32.9844 39.7109 33.3906 39.7109C33.9844 39.7109 34.7318 39.8333 35.6328 40.0781C36.763 40.3854 37.3281 40.7422 37.3281 41.1484C37.3281 41.4453 37.2214 41.7005 37.0078 41.9141C36.7995 42.1276 36.5469 42.2344 36.25 42.2344ZM45.1953 42.7656C44.9245 42.7656 44.1823 42.6927 42.9688 42.5469C42.8958 43.5052 42.8594 44.7786 42.8594 46.3672L42.8516 49.875C43.5443 49.8594 44.25 49.8516 44.9688 49.8516C45.2812 49.8516 45.5391 49.9557 45.7422 50.1641C45.9505 50.3724 46.0547 50.6224 46.0547 50.9141C46.0547 51.2057 45.9505 51.4557 45.7422 51.6641C45.5391 51.8672 45.2812 51.9688 44.9688 51.9688C44.6771 51.9688 44.2396 51.9766 43.6562 51.9922C43.0729 52.0026 42.6354 52.0078 42.3438 52.0078C42 52.0078 41.4844 52.0521 40.7969 52.1406C40.1094 52.2344 39.5938 52.2812 39.25 52.2812C38.9375 52.2812 38.6771 52.1797 38.4688 51.9766C38.2656 51.7682 38.1641 51.5182 38.1641 51.2266C38.1641 50.9349 38.2656 50.6849 38.4688 50.4766C38.6771 50.2682 38.9375 50.1641 39.25 50.1641C39.6042 50.1641 40.0703 50.125 40.6484 50.0469C40.638 49.4323 40.6328 48.2552 40.6328 46.5156C40.6328 45.099 40.6849 43.7474 40.7891 42.4609L39.0938 42.5078C38.7812 42.5078 38.5182 42.4062 38.3047 42.2031C38.0964 42 37.9922 41.7474 37.9922 41.4453C37.9922 41.138 38.0964 40.888 38.3047 40.6953C38.4974 40.5182 38.7344 40.4167 39.0156 40.3906C39.474 40.349 40.2708 40.3281 41.4062 40.3281C42.4271 40.3281 43.7422 40.4375 45.3516 40.6562C45.9922 40.7448 46.3125 41.1042 46.3125 41.7344C46.3125 42.0677 46.1823 42.3307 45.9219 42.5234C45.7083 42.6849 45.4661 42.7656 45.1953 42.7656ZM50.9297 52.4766C49.6068 52.4766 48.5651 52.1823 47.8047 51.5938C47.1641 51.1042 46.8438 50.5391 46.8438 49.8984C46.8438 49.5703 46.9427 49.2995 47.1406 49.0859C47.3385 48.8672 47.612 48.7578 47.9609 48.7578C48.4297 48.7578 48.7734 48.9974 48.9922 49.4766C49.2891 50.1172 49.9609 50.4375 51.0078 50.4375C51.9036 50.4375 52.7708 50.2422 53.6094 49.8516C54.4792 49.4505 54.9141 49.0104 54.9141 48.5312C54.9141 47.875 54.6432 47.4427 54.1016 47.2344C53.7161 47.0833 52.9427 46.9948 51.7812 46.9688C50.8802 46.9479 50.0729 46.7786 49.3594 46.4609C48.3958 46.0286 47.9219 45.4089 47.9375 44.6016C47.9531 43.5859 48.4948 42.6562 49.5625 41.8125C50.6302 40.9635 51.8073 40.5391 53.0938 40.5391C53.6042 40.5391 54.2344 40.6562 54.9844 40.8906C55.9167 41.1823 56.3828 41.5182 56.3828 41.8984C56.3828 42.1693 56.2891 42.4089 56.1016 42.6172C55.8932 42.8516 55.625 42.9688 55.2969 42.9688C55.0521 42.9688 54.6849 42.9167 54.1953 42.8125C53.7109 42.7083 53.3438 42.6562 53.0938 42.6562C52.4219 42.6615 51.7839 42.8229 51.1797 43.1406C50.5547 43.4635 50.2422 43.8151 50.2422 44.1953C50.2422 44.3932 50.3359 44.5573 50.5234 44.6875C50.7161 44.8125 51.0026 44.901 51.3828 44.9531C52.0495 44.9896 52.7135 45.026 53.375 45.0625C54.5312 45.151 55.4453 45.4766 56.1172 46.0391C56.8568 46.6641 57.2266 47.5286 57.2266 48.6328C57.2266 49.9766 56.4609 50.9948 54.9297 51.6875C53.763 52.2135 52.4297 52.4766 50.9297 52.4766ZM69.2891 41.1641C69.1849 41.5443 69.1328 41.875 69.1328 42.1562C69.1328 42.3021 69.1172 42.5286 69.0859 42.8359C69.0599 43.138 69.0469 43.362 69.0469 43.5078C69.0469 44.0026 69.0208 44.737 68.9688 45.7109C68.9167 46.6849 68.8906 47.4193 68.8906 47.9141C68.8906 48.2943 68.9193 48.862 68.9766 49.6172C69.0339 50.3724 69.0625 50.9401 69.0625 51.3203C69.0625 51.6068 68.9609 51.849 68.7578 52.0469C68.5547 52.2448 68.3021 52.3438 68 52.3438C67.6927 52.3438 67.4271 52.2448 67.2031 52.0469C66.9792 51.8542 66.8672 51.6172 66.8672 51.3359C66.8672 50.9557 66.849 50.3854 66.8125 49.625C66.7812 48.8646 66.7656 48.2943 66.7656 47.9141C66.7656 47.6172 66.7708 47.3542 66.7812 47.125C65.9635 47.1615 64.9531 47.2891 63.75 47.5078C62.75 47.6901 61.75 47.875 60.75 48.0625C60.7396 48.4167 60.7031 49.0078 60.6406 49.8359C60.5885 50.5651 60.5625 51.1615 60.5625 51.625C60.5625 51.9115 60.4609 52.1536 60.2578 52.3516C60.0547 52.5495 59.8021 52.6484 59.5 52.6484C59.1979 52.6484 58.9453 52.5495 58.7422 52.3516C58.5391 52.1536 58.4375 51.9115 58.4375 51.625C58.4375 51.099 58.4818 50.3125 58.5703 49.2656C58.6641 48.2188 58.7109 47.4323 58.7109 46.9062C58.7109 46.2396 58.7266 45.237 58.7578 43.8984C58.7891 42.5547 58.8047 41.5495 58.8047 40.8828C58.8047 40.5964 58.9062 40.3542 59.1094 40.1562C59.3125 39.9583 59.5651 39.8594 59.8672 39.8594C60.1693 39.8594 60.4219 39.9583 60.625 40.1562C60.8281 40.3542 60.9297 40.5964 60.9297 40.8828C60.9297 41.2786 60.9141 41.875 60.8828 42.6719C60.8568 43.4635 60.8438 44.0573 60.8438 44.4531C60.8438 44.5833 60.8255 44.8333 60.7891 45.2031C60.7578 45.5469 60.7448 45.8099 60.75 45.9922L63.75 45.4297C64.9219 45.2214 65.9323 45.1016 66.7812 45.0703C66.8021 44.7214 66.8359 43.7839 66.8828 42.2578C66.8932 41.8568 67.0156 41.3958 67.25 40.875C67.5417 40.2344 67.8724 39.9141 68.2422 39.9141C68.5182 39.9141 68.763 40.0052 68.9766 40.1875C69.2057 40.3854 69.3203 40.6328 69.3203 40.9297C69.3203 41.0078 69.3099 41.0859 69.2891 41.1641Z" fill="#F7F7F7"/>
<path d="M29.8232 76.9873C29.6956 76.9873 29.4176 76.9577 28.9893 76.8984C28.9528 77.5866 28.9346 78.792 28.9346 80.5146C28.9346 80.6969 28.8753 80.8519 28.7568 80.9795C28.6383 81.1025 28.4902 81.1641 28.3125 81.1641C28.1302 81.1641 27.9798 81.1025 27.8613 80.9795C27.7428 80.8519 27.6836 80.6969 27.6836 80.5146V78.5049C27.6836 77.835 27.7246 76.8916 27.8066 75.6748C27.8978 74.3577 27.9479 73.4144 27.957 72.8447V71.9014C27.957 71.4502 27.9844 71.1221 28.0391 70.917C28.1439 70.516 28.3672 70.3428 28.709 70.3975C28.8548 70.3519 29.0622 70.3177 29.3311 70.2949C29.5999 70.2721 29.9303 70.2607 30.3223 70.2607C31.1562 70.2607 31.9378 70.5456 32.667 71.1152C33.4691 71.7441 33.8701 72.5007 33.8701 73.3848C33.8701 74.515 33.4417 75.415 32.585 76.085C31.8193 76.6865 30.8988 76.9873 29.8232 76.9873ZM30.165 71.5596C29.9645 71.5596 29.7845 71.5641 29.625 71.5732C29.4701 71.5824 29.3379 71.596 29.2285 71.6143L29.2148 72.8721L29.0713 75.5928L29.8232 75.6816C30.5889 75.6816 31.2337 75.488 31.7578 75.1006C32.332 74.6768 32.6191 74.1048 32.6191 73.3848C32.6191 72.8743 32.3457 72.4346 31.7988 72.0654C31.293 71.7282 30.7484 71.5596 30.165 71.5596ZM41.9092 71.7988C41.8454 71.7988 41.7747 71.7874 41.6973 71.7646C40.9271 71.5459 40.1842 71.4365 39.4688 71.4365C39.0951 71.4365 38.6872 71.4707 38.2451 71.5391C37.8031 71.6074 37.3268 71.7122 36.8164 71.8535C36.8574 72.1497 36.8779 72.3867 36.8779 72.5645C36.8779 73.1979 36.8392 74.0684 36.7617 75.1758L39.7559 74.8887C40.6354 74.7975 41.1755 74.752 41.376 74.752C41.5765 74.752 41.7451 74.8158 41.8818 74.9434C42.0186 75.071 42.0869 75.2419 42.0869 75.4561C42.0869 75.8708 41.8773 76.1032 41.458 76.1533L39.8311 76.2969L36.6729 76.584C36.6546 76.9076 36.6387 77.2152 36.625 77.5068C36.6159 77.7939 36.6113 78.0628 36.6113 78.3135C36.6113 79.3206 36.6842 79.9131 36.8301 80.0908C36.9395 80.2184 37.2972 80.2822 37.9033 80.2822C38.1859 80.2822 38.6097 80.2754 39.1748 80.2617C39.7445 80.2435 40.1729 80.2344 40.46 80.2344C40.5511 80.2344 40.6855 80.2207 40.8633 80.1934C41.041 80.1615 41.1732 80.1455 41.2598 80.1455C41.7428 80.1455 41.9844 80.3825 41.9844 80.8564C41.9844 81.2393 41.7907 81.4694 41.4033 81.5469C40.9749 81.6335 40.0475 81.6768 38.6211 81.6768C37.2083 81.6768 36.3014 81.4899 35.9004 81.1162C35.4629 80.7106 35.2441 79.7764 35.2441 78.3135C35.2441 78.0218 35.251 77.7028 35.2646 77.3564C35.2783 77.0101 35.2965 76.6364 35.3193 76.2354C35.2692 76.1305 35.2441 76.0189 35.2441 75.9004C35.2441 75.7454 35.2874 75.6064 35.374 75.4834C35.4652 74.1663 35.5107 73.1934 35.5107 72.5645C35.5107 72.3958 35.488 72.1497 35.4424 71.8262C35.3968 71.498 35.374 71.2497 35.374 71.0811C35.374 70.5387 35.6019 70.2676 36.0576 70.2676C36.249 70.2676 36.4131 70.3337 36.5498 70.4658C37.0967 70.32 37.6117 70.2106 38.0947 70.1377C38.5824 70.0648 39.0404 70.0283 39.4688 70.0283C40.5762 70.0283 41.4603 70.1605 42.1211 70.4248C42.4264 70.5479 42.5791 70.7666 42.5791 71.0811C42.5791 71.2633 42.5199 71.4251 42.4014 71.5664C42.2692 71.7214 42.1051 71.7988 41.9092 71.7988ZM49.5791 72.4824C49.2874 72.4824 48.9206 72.4528 48.4785 72.3936L47.3779 72.25C47.2731 73.5762 47.2207 74.8431 47.2207 76.0508C47.2207 76.3698 47.2298 76.764 47.248 77.2334C47.2663 77.7028 47.2754 78.097 47.2754 78.416C47.2754 78.8444 47.2594 79.234 47.2275 79.585L49.3809 79.5576C49.5723 79.5576 49.7318 79.626 49.8594 79.7627C49.9915 79.8949 50.0576 80.0589 50.0576 80.2549C50.0576 80.4554 49.9915 80.624 49.8594 80.7607C49.7318 80.8929 49.5723 80.959 49.3809 80.959C49.1257 80.959 48.7428 80.9658 48.2324 80.9795C47.722 80.9886 47.3392 80.9932 47.084 80.9932C46.7832 80.9932 46.332 81.0342 45.7305 81.1162C45.1335 81.2028 44.6823 81.2461 44.377 81.2461C44.1855 81.2461 44.0238 81.1777 43.8916 81.041C43.764 80.9089 43.7002 80.7448 43.7002 80.5488C43.7002 80.3529 43.764 80.1865 43.8916 80.0498C44.0238 79.9131 44.1855 79.8447 44.377 79.8447C44.6732 79.8447 45.1631 79.7969 45.8467 79.7012C45.8923 79.332 45.915 78.9105 45.915 78.4365C45.915 78.1221 45.8991 77.7393 45.8672 77.2881C45.8398 76.8324 45.8262 76.4495 45.8262 76.1396C45.8262 75.0869 45.89 73.7721 46.0176 72.1953L45.1289 72.2227L44.2402 72.2432C44.0443 72.2432 43.8802 72.1771 43.748 72.0449C43.6159 71.9128 43.5498 71.7441 43.5498 71.5391C43.5498 71.1152 43.764 70.8828 44.1924 70.8418C44.5615 70.8053 45.252 70.7871 46.2637 70.7871C47.1706 70.7871 48.3076 70.8851 49.6748 71.0811C50.0804 71.1403 50.2832 71.3841 50.2832 71.8125C50.2832 72.0267 50.2057 72.1976 50.0508 72.3252C49.9141 72.43 49.7568 72.4824 49.5791 72.4824ZM60.1201 71.7783C59.5094 72.5166 59.04 73.125 58.7119 73.6035L57.8574 74.8613C57.5247 75.3353 57.2126 75.734 56.9209 76.0576L58.4248 78.2588C59.0218 79.1292 59.5527 79.8402 60.0176 80.3916C60.1406 80.542 60.2021 80.6992 60.2021 80.8633C60.2021 81.0547 60.1315 81.221 59.9902 81.3623C59.8535 81.5036 59.6895 81.5742 59.498 81.5742C59.3249 81.5742 59.1631 81.5036 59.0127 81.3623C58.6755 81.0433 58.3245 80.6104 57.96 80.0635L57.0439 78.6553L55.9707 77.1172L53.6191 79.8379L52.3613 81.2461C52.2109 81.3965 52.0446 81.4717 51.8623 81.4717C51.6755 81.4717 51.5114 81.401 51.3701 81.2598C51.2288 81.1185 51.1582 80.9521 51.1582 80.7607C51.1582 80.5967 51.2174 80.4417 51.3359 80.2959L52.5664 78.9219L55.1299 75.9482C54.6286 75.2783 54.0954 74.6061 53.5303 73.9316L52.7373 72.8584C52.4183 72.43 52.1221 72.1019 51.8486 71.874C51.6572 71.7145 51.5615 71.5299 51.5615 71.3203C51.5615 71.1335 51.6276 70.9671 51.7598 70.8213C51.8919 70.6755 52.056 70.6025 52.252 70.6025C52.6393 70.6025 53.1338 71.015 53.7354 71.8398C53.9222 72.1178 54.207 72.512 54.5898 73.0225C55.1094 73.6423 55.6038 74.2643 56.0732 74.8887L57.6318 72.7148C58.6436 71.3066 59.2998 70.6025 59.6006 70.6025C59.7874 70.6025 59.9515 70.6732 60.0928 70.8145C60.234 70.9557 60.3047 71.1221 60.3047 71.3135C60.3047 71.473 60.2432 71.6279 60.1201 71.7783ZM68.4463 71.7988C68.3825 71.7988 68.3118 71.7874 68.2344 71.7646C67.4642 71.5459 66.7214 71.4365 66.0059 71.4365C65.6322 71.4365 65.2243 71.4707 64.7822 71.5391C64.3402 71.6074 63.8639 71.7122 63.3535 71.8535C63.3945 72.1497 63.415 72.3867 63.415 72.5645C63.415 73.1979 63.3763 74.0684 63.2988 75.1758L66.293 74.8887C67.1725 74.7975 67.7126 74.752 67.9131 74.752C68.1136 74.752 68.2822 74.8158 68.4189 74.9434C68.5557 75.071 68.624 75.2419 68.624 75.4561C68.624 75.8708 68.4144 76.1032 67.9951 76.1533L66.3682 76.2969L63.21 76.584C63.1917 76.9076 63.1758 77.2152 63.1621 77.5068C63.153 77.7939 63.1484 78.0628 63.1484 78.3135C63.1484 79.3206 63.2214 79.9131 63.3672 80.0908C63.4766 80.2184 63.8343 80.2822 64.4404 80.2822C64.723 80.2822 65.1468 80.2754 65.7119 80.2617C66.2816 80.2435 66.71 80.2344 66.9971 80.2344C67.0882 80.2344 67.2227 80.2207 67.4004 80.1934C67.5781 80.1615 67.7103 80.1455 67.7969 80.1455C68.2799 80.1455 68.5215 80.3825 68.5215 80.8564C68.5215 81.2393 68.3278 81.4694 67.9404 81.5469C67.512 81.6335 66.5846 81.6768 65.1582 81.6768C63.7454 81.6768 62.8385 81.4899 62.4375 81.1162C62 80.7106 61.7812 79.7764 61.7812 78.3135C61.7812 78.0218 61.7881 77.7028 61.8018 77.3564C61.8154 77.0101 61.8337 76.6364 61.8564 76.2354C61.8063 76.1305 61.7812 76.0189 61.7812 75.9004C61.7812 75.7454 61.8245 75.6064 61.9111 75.4834C62.0023 74.1663 62.0479 73.1934 62.0479 72.5645C62.0479 72.3958 62.0251 72.1497 61.9795 71.8262C61.9339 71.498 61.9111 71.2497 61.9111 71.0811C61.9111 70.5387 62.139 70.2676 62.5947 70.2676C62.7861 70.2676 62.9502 70.3337 63.0869 70.4658C63.6338 70.32 64.1488 70.2106 64.6318 70.1377C65.1195 70.0648 65.5775 70.0283 66.0059 70.0283C67.1133 70.0283 67.9974 70.1605 68.6582 70.4248C68.9635 70.5479 69.1162 70.7666 69.1162 71.0811C69.1162 71.2633 69.057 71.4251 68.9385 71.5664C68.8063 71.7214 68.6423 71.7988 68.4463 71.7988Z" fill="#F7F7F7"/>
</g>
<defs>
<filter id="filter0_d_450_138" x="0" y="0" width="98" height="128" filterUnits="userSpaceOnUse" color-interpolation-filters="sRGB">
<feFlood flood-opacity="0" result="BackgroundImageFix"/>
<feColorMatrix in="SourceAlpha" type="matrix" values="0 0 0 0 0 0 0 0 0 0 0 0 0 0 0 0 0 0 127 0" result="hardAlpha"/>
<feOffset dy="4"/>
<feGaussianBlur stdDeviation="2"/>
<feComposite in2="hardAlpha" operator="out"/>
<feColorMatrix type="matrix" values="0 0 0 0 0 0 0 0 0 0 0 0 0 0 0 0 0 0 0.25 0"/>
<feBlend mode="normal" in2="BackgroundImageFix" result="effect1_dropShadow_450_138"/>
<feBlend mode="normal" in="SourceGraphic" in2="effect1_dropShadow_450_138" result="shape"/>
</filter>
</defs>
</svg>
