<svg width="267" height="16" viewBox="0 0 267 16" fill="none" xmlns="http://www.w3.org/2000/svg">
<path d="M4.64941 8.05664C4.38574 9.00586 4.0166 10.4385 3.54199 12.3545C3.43066 13.0166 3.32227 13.6758 3.2168 14.332C2.97656 15.1641 2.53418 15.5801 1.88965 15.5801C1.48535 15.5801 1.16602 15.4424 0.931641 15.167C0.732422 14.9326 0.632812 14.6543 0.632812 14.332C0.632812 13.3828 0.834961 12.2256 1.23926 10.8604C1.84277 8.81543 2.16797 7.68164 2.21484 7.45898C2.38477 6.55664 2.55762 5.6543 2.7334 4.75195C2.99707 3.50977 3.28125 2.68359 3.58594 2.27344C3.89648 1.85742 4.28613 1.64941 4.75488 1.64941C5.28809 1.64941 5.68066 1.91895 5.93262 2.45801C6.16699 2.96777 6.41895 4.01074 6.68848 5.58691C6.94629 7.11621 7.33008 8.7627 7.83984 10.5264C8.50781 8.78613 9.12891 6.87598 9.70312 4.7959L10.1953 2.77441C10.5117 1.93652 11.001 1.51758 11.6631 1.51758C12.3018 1.51758 12.7764 2.00391 13.0869 2.97656C13.2158 3.36914 13.3535 4.10156 13.5 5.17383C13.8398 7.66992 14.2676 9.80859 14.7832 11.5898C15.3047 13.4004 15.5654 14.3848 15.5654 14.543C15.5654 14.8887 15.4277 15.1787 15.1523 15.4131C14.8945 15.624 14.6045 15.7295 14.2822 15.7295C13.6436 15.7295 13.1689 15.2725 12.8584 14.3584L12.3662 12.2314C12.085 11.1768 11.7803 9.66211 11.4521 7.6875C11.1885 8.47266 10.752 9.70605 10.1426 11.3877L9.61523 13.0049C9.39844 13.6436 9.17285 14.168 8.93848 14.5781C8.62793 15.123 8.19434 15.3955 7.6377 15.3955C7.08691 15.3955 6.66504 15.0703 6.37207 14.4199L5.87988 12.7852C5.42285 11.2852 5.0127 9.70898 4.64941 8.05664ZM26.0332 13.4795C25.6055 14.0596 25.0898 14.543 24.4863 14.9297C23.748 15.3984 22.9893 15.6328 22.21 15.6328C20.7158 15.6328 19.6055 15.3457 18.8789 14.7715C17.3438 13.5586 16.5762 11.4521 16.5762 8.45215C16.5762 8.16504 16.5908 7.7373 16.6201 7.16895C16.6494 6.60059 16.6641 6.17285 16.6641 5.88574C16.6641 5.65723 16.6699 5.31738 16.6816 4.86621C16.6934 4.40918 16.6992 4.06641 16.6992 3.83789C16.6992 3.36914 16.7842 2.92676 16.9541 2.51074C17.1826 1.95996 17.502 1.68457 17.9121 1.68457C18.2344 1.68457 18.5186 1.79004 18.7646 2.00098C19.0342 2.22363 19.1689 2.51074 19.1689 2.8623C19.1689 3.19629 19.1631 3.70312 19.1514 4.38281C19.1455 5.05664 19.1426 5.56348 19.1426 5.90332C19.1426 6.18457 19.1279 6.60938 19.0986 7.17773C19.0693 7.74609 19.0547 8.1709 19.0547 8.45215C19.0547 9.36035 19.1602 10.2041 19.3711 10.9834C19.6172 11.915 19.9775 12.5654 20.4521 12.9346C20.6982 13.1279 21.2842 13.2305 22.21 13.2422C23.7568 13.2656 24.7998 11.9473 25.3389 9.28711C25.6201 7.91016 25.7607 5.97656 25.7607 3.48633C25.7607 3.1582 25.8574 2.8418 26.0508 2.53711C26.3145 2.13281 26.6895 1.93066 27.1758 1.93066C27.5742 1.93066 27.873 2.07715 28.0723 2.37012C28.2246 2.58691 28.3008 2.82715 28.3008 3.09082C28.3008 5.40527 28.1924 7.20996 27.9756 8.50488C27.6475 10.5029 27 12.1611 26.0332 13.4795ZM43.0576 12.8379C43.0576 13.1309 43.0078 13.5938 42.9082 14.2266C42.791 14.9824 42.3633 15.3604 41.625 15.3604C41.2148 15.3604 40.752 15.1289 40.2363 14.666C37.9805 12.6328 35.4346 9.78223 32.5986 6.11426C32.5635 7.6377 32.5459 8.57227 32.5459 8.91797C32.5459 9.38086 32.5547 10.0781 32.5723 11.0098C32.5957 11.9414 32.6074 12.6387 32.6074 13.1016C32.6074 14.8301 32.1855 15.6943 31.3418 15.6943C30.9141 15.6943 30.5713 15.5625 30.3135 15.2988C30.085 15.0645 29.9707 14.7803 29.9707 14.4463C29.9707 14.2119 29.9883 13.8574 30.0234 13.3828C30.0645 12.9082 30.085 12.5537 30.085 12.3193C30.085 11.9736 30.0967 11.4551 30.1201 10.7637C30.1436 10.0723 30.1553 9.55371 30.1553 9.20801C30.1553 8.83887 30.1465 8.28223 30.1289 7.53809C30.1113 6.79395 30.1025 6.2373 30.1025 5.86816C30.1025 5.5166 30.0674 4.99219 29.9971 4.29492C29.9268 3.59766 29.8916 3.07324 29.8916 2.72168C29.8916 2.37012 30.041 2.05664 30.3398 1.78125C30.6445 1.50586 30.9902 1.36816 31.377 1.36816C31.8105 1.36816 32.291 1.74316 32.8184 2.49316C35.4785 6.29004 38.1035 9.38672 40.6934 11.7832C40.6992 11.5957 40.7021 11.1504 40.7021 10.4473C40.7021 7.55859 40.6729 5.61035 40.6143 4.60254C40.6025 4.43262 40.5645 4.11621 40.5 3.65332C40.4414 3.24316 40.4121 2.9209 40.4121 2.68652C40.4121 1.87793 40.8398 1.47363 41.6953 1.47363C42.6504 1.47363 43.1279 2.94727 43.1279 5.89453C43.1279 5.95898 43.1221 6.42188 43.1104 7.2832C43.0752 10.2598 43.0576 12.1113 43.0576 12.8379ZM46.2832 15.0879C45.9375 15.082 45.6475 14.9648 45.4131 14.7363C45.1787 14.502 45.0615 14.2207 45.0615 13.8926C45.0615 13.3066 45.0879 12.4277 45.1406 11.2559C45.1992 10.084 45.2285 9.20508 45.2285 8.61914C45.2285 7.96875 45.2139 6.99316 45.1846 5.69238C45.1611 4.3916 45.1494 3.41602 45.1494 2.76562C45.1494 2.44336 45.3047 2.12402 45.6152 1.80762C45.9258 1.48535 46.2568 1.32422 46.6084 1.32422C46.8018 1.32422 47.2881 1.50586 48.0674 1.86914C48.9756 2.30273 49.5146 2.5459 49.6846 2.59863C51.4014 3.15527 52.8662 4.0166 54.0791 5.18262C55.5264 6.57129 56.25 8.10645 56.25 9.78809C56.25 10.8018 56.001 11.7656 55.5029 12.6797C55.0049 13.6113 54.3223 14.3584 53.4551 14.9209C52.4824 15.5537 51.1143 15.8701 49.3506 15.8701C48.9229 15.8701 48.4307 15.8086 47.874 15.6855C47.2002 15.5332 46.6699 15.334 46.2832 15.0879ZM51.2227 6.05273C50.6543 5.69531 49.4355 5.13281 47.5664 4.36523V13.0664C47.7949 13.2129 48.0557 13.3242 48.3486 13.4004C48.6475 13.4707 48.9785 13.5059 49.3418 13.5059C50.6074 13.5059 51.5156 13.3301 52.0664 12.9785C52.5879 12.6445 53.001 12.1904 53.3057 11.6162C53.6162 11.042 53.7715 10.4443 53.7715 9.82324C53.7715 8.37012 52.9219 7.11328 51.2227 6.05273ZM63.7031 15.5361C61.9688 15.5361 60.4922 15.0381 59.2734 14.042C57.9727 12.9756 57.3223 11.5957 57.3223 9.90234C57.3223 7.91016 57.9463 6.09375 59.1943 4.45312C60.5947 2.60742 62.3584 1.68457 64.4854 1.68457C66.5303 1.68457 68.0625 2.15332 69.082 3.09082C70.1016 4.02832 70.6113 5.4375 70.6113 7.31836C70.6113 9.31055 70.0371 11.1152 68.8887 12.7324C67.5645 14.6016 65.8359 15.5361 63.7031 15.5361ZM64.4854 4.06641C63.1787 4.06641 62.0596 4.69922 61.1279 5.96484C60.2549 7.14844 59.8184 8.46094 59.8184 9.90234C59.8184 10.875 60.1963 11.666 60.9521 12.2754C61.6787 12.8613 62.5957 13.1543 63.7031 13.1543C64.9922 13.1543 66.0674 12.5215 66.9287 11.2559C67.7197 10.1016 68.1152 8.78906 68.1152 7.31836C68.1152 6.08789 67.8398 5.23242 67.2891 4.75195C66.7617 4.29492 65.8271 4.06641 64.4854 4.06641ZM87.8379 15.0176C87.6914 15.0176 87.4629 14.9941 87.1523 14.9473C86.8477 14.8945 86.6279 14.8682 86.4932 14.8682L83.9092 14.8594C83.6865 14.8594 83.3496 14.8887 82.8984 14.9473C82.4473 15 82.1074 15.0264 81.8789 15.0264C81.8145 15.0264 81.7207 15.0146 81.5977 14.9912C81.4746 14.9678 81.3809 14.9561 81.3164 14.9561C80.7891 14.9561 80.4316 14.7422 80.2441 14.3145C80.127 14.0449 80.0684 13.6289 80.0684 13.0664C80.0684 11.9707 80.3115 11.0537 80.7979 10.3154C81.1729 9.74707 81.7793 9.17871 82.6172 8.61035C83.4082 8.08887 84.1963 7.57031 84.9814 7.05469C85.9072 6.38086 86.3701 5.61621 86.3701 4.76074C86.3701 4.53809 86.1855 4.31836 85.8164 4.10156C85.4473 3.87891 85.0869 3.76758 84.7354 3.76758C84.1143 3.76758 83.4551 4.0459 82.7578 4.60254C82.0664 5.15332 81.5918 5.42871 81.334 5.42871C81.0234 5.42871 80.751 5.35254 80.5166 5.2002C80.2236 5.0127 80.0771 4.75195 80.0771 4.41797C80.0771 4.06055 80.2236 3.75293 80.5166 3.49512C81.2256 2.86816 81.8438 2.41113 82.3711 2.12402C83.1328 1.70801 83.9209 1.5 84.7354 1.5C85.749 1.5 86.6631 1.7666 87.4775 2.2998C88.4092 2.90918 88.875 3.70605 88.875 4.69043C88.875 5.68652 88.6465 6.5332 88.1895 7.23047C87.832 7.78711 87.2666 8.3291 86.4932 8.85645C85.7607 9.31934 85.0283 9.7793 84.2959 10.2363C83.1826 10.9629 82.585 11.792 82.5029 12.7236C82.8252 12.6826 83.2998 12.6357 83.9268 12.583C85.1748 12.5186 86.0684 12.4863 86.6074 12.4863C87.1113 12.4863 87.6094 12.5947 88.1016 12.8115C88.7109 13.0811 89.0156 13.4268 89.0156 13.8486C89.0156 14.1533 88.9072 14.4199 88.6904 14.6484C88.4619 14.8945 88.1777 15.0176 87.8379 15.0176ZM105.451 11.2119C104.643 11.2705 103.204 11.2998 101.136 11.2998C100.772 11.2998 100.453 11.2178 100.178 11.0537C99.8555 10.8545 99.6943 10.585 99.6943 10.2451C99.6943 9.90527 99.8555 9.63574 100.178 9.43652C100.453 9.2666 100.772 9.18164 101.136 9.18164C101.599 9.18164 102.293 9.16992 103.219 9.14648C104.145 9.11719 104.839 9.10254 105.302 9.10254C105.665 9.10254 105.984 9.17578 106.26 9.32227C106.611 9.50977 106.787 9.78809 106.787 10.1572C106.787 10.7959 106.342 11.1475 105.451 11.2119ZM119.039 15.0879C118.693 15.082 118.403 14.9648 118.169 14.7363C117.935 14.502 117.817 14.2207 117.817 13.8926C117.817 13.3066 117.844 12.4277 117.896 11.2559C117.955 10.084 117.984 9.20508 117.984 8.61914C117.984 7.96875 117.97 6.99316 117.94 5.69238C117.917 4.3916 117.905 3.41602 117.905 2.76562C117.905 2.44336 118.061 2.12402 118.371 1.80762C118.682 1.48535 119.013 1.32422 119.364 1.32422C119.558 1.32422 120.044 1.50586 120.823 1.86914C121.731 2.30273 122.271 2.5459 122.44 2.59863C124.157 3.15527 125.622 4.0166 126.835 5.18262C128.282 6.57129 129.006 8.10645 129.006 9.78809C129.006 10.8018 128.757 11.7656 128.259 12.6797C127.761 13.6113 127.078 14.3584 126.211 14.9209C125.238 15.5537 123.87 15.8701 122.106 15.8701C121.679 15.8701 121.187 15.8086 120.63 15.6855C119.956 15.5332 119.426 15.334 119.039 15.0879ZM123.979 6.05273C123.41 5.69531 122.191 5.13281 120.322 4.36523V13.0664C120.551 13.2129 120.812 13.3242 121.104 13.4004C121.403 13.4707 121.734 13.5059 122.098 13.5059C123.363 13.5059 124.271 13.3301 124.822 12.9785C125.344 12.6445 125.757 12.1904 126.062 11.6162C126.372 11.042 126.527 10.4443 126.527 9.82324C126.527 8.37012 125.678 7.11328 123.979 6.05273ZM139.298 3.73242C139.181 3.73242 139.058 3.71484 138.929 3.67969C137.979 3.42188 137.057 3.29297 136.16 3.29297C135.721 3.29297 135.249 3.32812 134.745 3.39844C134.241 3.46875 133.705 3.57422 133.137 3.71484C133.137 4.49414 133.11 5.65137 133.058 7.18652C133.386 7.16309 134.531 7.05469 136.494 6.86133C137.613 6.75 138.322 6.69434 138.621 6.69434C138.967 6.69434 139.263 6.80566 139.509 7.02832C139.755 7.24512 139.878 7.53516 139.878 7.89844C139.878 8.5957 139.506 8.99121 138.762 9.08496C138.293 9.12012 137.593 9.17871 136.661 9.26074C135.829 9.35449 134.575 9.46875 132.899 9.60352C132.858 10.3477 132.838 10.9482 132.838 11.4053C132.838 12.5537 132.905 13.207 133.04 13.3652C133.104 13.4414 133.474 13.4795 134.147 13.4795C134.511 13.4795 135.059 13.4707 135.791 13.4531C136.523 13.4355 137.071 13.4268 137.435 13.4268C137.552 13.4268 137.725 13.4092 137.953 13.374C138.182 13.3389 138.352 13.3213 138.463 13.3213C138.803 13.3213 139.093 13.418 139.333 13.6113C139.608 13.8281 139.746 14.1328 139.746 14.5254C139.746 15.1816 139.403 15.5742 138.718 15.7031C138.132 15.8145 136.916 15.8701 135.07 15.8701C133.16 15.8701 131.915 15.6123 131.335 15.0967C130.696 14.5283 130.377 13.2979 130.377 11.4053C130.377 10.6201 130.433 9.44238 130.544 7.87207C130.661 6.2959 130.72 5.11816 130.72 4.33887C130.72 4.13379 130.69 3.83203 130.632 3.43359C130.573 3.0293 130.544 2.72461 130.544 2.51953C130.544 1.62891 130.954 1.18359 131.774 1.18359C132.032 1.18359 132.27 1.25684 132.486 1.40332C133.166 1.2334 133.811 1.10742 134.42 1.02539C135.035 0.9375 135.615 0.893555 136.16 0.893555C137.637 0.893555 138.817 1.06348 139.702 1.40332C140.241 1.6084 140.511 1.98047 140.511 2.51953C140.511 2.82422 140.405 3.09375 140.194 3.32812C139.96 3.59766 139.661 3.73242 139.298 3.73242ZM145.819 15.5361C144.331 15.5361 143.159 15.2051 142.304 14.543C141.583 13.9922 141.223 13.3564 141.223 12.6357C141.223 12.2666 141.334 11.9619 141.557 11.7217C141.779 11.4756 142.087 11.3525 142.479 11.3525C143.007 11.3525 143.394 11.6221 143.64 12.1611C143.974 12.8818 144.729 13.2422 145.907 13.2422C146.915 13.2422 147.891 13.0225 148.834 12.583C149.812 12.1318 150.302 11.6367 150.302 11.0977C150.302 10.3594 149.997 9.87305 149.388 9.63867C148.954 9.46875 148.084 9.36914 146.777 9.33984C145.764 9.31641 144.855 9.12598 144.053 8.76855C142.969 8.28223 142.436 7.58496 142.453 6.67676C142.471 5.53418 143.08 4.48828 144.281 3.53906C145.482 2.58398 146.807 2.10645 148.254 2.10645C148.828 2.10645 149.537 2.23828 150.381 2.50195C151.43 2.83008 151.954 3.20801 151.954 3.63574C151.954 3.94043 151.849 4.20996 151.638 4.44434C151.403 4.70801 151.102 4.83984 150.732 4.83984C150.457 4.83984 150.044 4.78125 149.493 4.66406C148.948 4.54688 148.535 4.48828 148.254 4.48828C147.498 4.49414 146.78 4.67578 146.101 5.0332C145.397 5.39648 145.046 5.79199 145.046 6.21973C145.046 6.44238 145.151 6.62695 145.362 6.77344C145.579 6.91406 145.901 7.01367 146.329 7.07227C147.079 7.11328 147.826 7.1543 148.57 7.19531C149.871 7.29492 150.899 7.66113 151.655 8.29395C152.487 8.99707 152.903 9.96973 152.903 11.2119C152.903 12.7236 152.042 13.8691 150.319 14.6484C149.007 15.2402 147.507 15.5361 145.819 15.5361ZM162.984 5.63965C162.457 5.63965 162.067 5.36133 161.815 4.80469C161.698 4.54102 161.581 4.38281 161.464 4.33008C161.376 4.28906 161.145 4.26855 160.77 4.26855C160.031 4.26855 159.179 4.84277 158.212 5.99121C156.858 7.59668 156.182 9.09961 156.182 10.5C156.182 11.1387 156.396 11.6865 156.823 12.1436C157.251 12.6006 157.764 12.8291 158.361 12.8291C158.941 12.8291 159.53 12.6768 160.128 12.3721C160.339 12.2607 160.784 11.9736 161.464 11.5107C161.921 11.2061 162.267 11.0537 162.501 11.0537C162.853 11.0537 163.151 11.1826 163.397 11.4404C163.626 11.6807 163.74 11.9561 163.74 12.2666C163.74 12.6123 163.588 12.9141 163.283 13.1719C161.672 14.5312 160.031 15.2109 158.361 15.2109C157.043 15.2109 155.93 14.7305 155.021 13.7695C154.154 12.8438 153.721 11.7539 153.721 10.5C153.721 8.53711 154.579 6.5332 156.296 4.48828C157.755 2.75391 159.246 1.88672 160.77 1.88672C161.027 1.88672 161.259 1.89551 161.464 1.91309C161.675 1.93066 161.859 1.95703 162.018 1.99219C162.275 1.74023 162.586 1.61426 162.949 1.61426C163.547 1.61426 163.916 1.95703 164.057 2.64258C164.156 3.13477 164.206 3.70898 164.206 4.36523C164.206 4.6582 164.121 4.9248 163.951 5.16504C163.729 5.48145 163.406 5.63965 162.984 5.63965ZM171.334 15.5361C169.6 15.5361 168.123 15.0381 166.904 14.042C165.604 12.9756 164.953 11.5957 164.953 9.90234C164.953 7.91016 165.577 6.09375 166.825 4.45312C168.226 2.60742 169.989 1.68457 172.116 1.68457C174.161 1.68457 175.693 2.15332 176.713 3.09082C177.732 4.02832 178.242 5.4375 178.242 7.31836C178.242 9.31055 177.668 11.1152 176.52 12.7324C175.195 14.6016 173.467 15.5361 171.334 15.5361ZM172.116 4.06641C170.81 4.06641 169.69 4.69922 168.759 5.96484C167.886 7.14844 167.449 8.46094 167.449 9.90234C167.449 10.875 167.827 11.666 168.583 12.2754C169.31 12.8613 170.227 13.1543 171.334 13.1543C172.623 13.1543 173.698 12.5215 174.56 11.2559C175.351 10.1016 175.746 8.78906 175.746 7.31836C175.746 6.08789 175.471 5.23242 174.92 4.75195C174.393 4.29492 173.458 4.06641 172.116 4.06641ZM192.7 12.8379C192.7 13.1309 192.65 13.5938 192.551 14.2266C192.434 14.9824 192.006 15.3604 191.268 15.3604C190.857 15.3604 190.395 15.1289 189.879 14.666C187.623 12.6328 185.077 9.78223 182.241 6.11426C182.206 7.6377 182.188 8.57227 182.188 8.91797C182.188 9.38086 182.197 10.0781 182.215 11.0098C182.238 11.9414 182.25 12.6387 182.25 13.1016C182.25 14.8301 181.828 15.6943 180.984 15.6943C180.557 15.6943 180.214 15.5625 179.956 15.2988C179.728 15.0645 179.613 14.7803 179.613 14.4463C179.613 14.2119 179.631 13.8574 179.666 13.3828C179.707 12.9082 179.728 12.5537 179.728 12.3193C179.728 11.9736 179.739 11.4551 179.763 10.7637C179.786 10.0723 179.798 9.55371 179.798 9.20801C179.798 8.83887 179.789 8.28223 179.771 7.53809C179.754 6.79395 179.745 6.2373 179.745 5.86816C179.745 5.5166 179.71 4.99219 179.64 4.29492C179.569 3.59766 179.534 3.07324 179.534 2.72168C179.534 2.37012 179.684 2.05664 179.982 1.78125C180.287 1.50586 180.633 1.36816 181.02 1.36816C181.453 1.36816 181.934 1.74316 182.461 2.49316C185.121 6.29004 187.746 9.38672 190.336 11.7832C190.342 11.5957 190.345 11.1504 190.345 10.4473C190.345 7.55859 190.315 5.61035 190.257 4.60254C190.245 4.43262 190.207 4.11621 190.143 3.65332C190.084 3.24316 190.055 2.9209 190.055 2.68652C190.055 1.87793 190.482 1.47363 191.338 1.47363C192.293 1.47363 192.771 2.94727 192.771 5.89453C192.771 5.95898 192.765 6.42188 192.753 7.2832C192.718 10.2598 192.7 12.1113 192.7 12.8379ZM206.64 2.80957C206.522 3.2373 206.464 3.60938 206.464 3.92578C206.464 4.08984 206.446 4.34473 206.411 4.69043C206.382 5.03027 206.367 5.28223 206.367 5.44629C206.367 6.00293 206.338 6.8291 206.279 7.9248C206.221 9.02051 206.191 9.84668 206.191 10.4033C206.191 10.8311 206.224 11.4697 206.288 12.3193C206.353 13.1689 206.385 13.8076 206.385 14.2354C206.385 14.5576 206.271 14.8301 206.042 15.0527C205.813 15.2754 205.529 15.3867 205.189 15.3867C204.844 15.3867 204.545 15.2754 204.293 15.0527C204.041 14.8359 203.915 14.5693 203.915 14.2529C203.915 13.8252 203.895 13.1836 203.854 12.3281C203.818 11.4727 203.801 10.8311 203.801 10.4033C203.801 10.0693 203.807 9.77344 203.818 9.51562C202.898 9.55664 201.762 9.7002 200.408 9.94629C199.283 10.1514 198.158 10.3594 197.033 10.5703C197.021 10.9688 196.98 11.6338 196.91 12.5654C196.852 13.3857 196.822 14.0566 196.822 14.5781C196.822 14.9004 196.708 15.1729 196.479 15.3955C196.251 15.6182 195.967 15.7295 195.627 15.7295C195.287 15.7295 195.003 15.6182 194.774 15.3955C194.546 15.1729 194.432 14.9004 194.432 14.5781C194.432 13.9863 194.481 13.1016 194.581 11.9238C194.687 10.7461 194.739 9.86133 194.739 9.26953C194.739 8.51953 194.757 7.3916 194.792 5.88574C194.827 4.37402 194.845 3.24316 194.845 2.49316C194.845 2.1709 194.959 1.89844 195.188 1.67578C195.416 1.45313 195.7 1.3418 196.04 1.3418C196.38 1.3418 196.664 1.45313 196.893 1.67578C197.121 1.89844 197.235 2.1709 197.235 2.49316C197.235 2.93848 197.218 3.60938 197.183 4.50586C197.153 5.39648 197.139 6.06445 197.139 6.50977C197.139 6.65625 197.118 6.9375 197.077 7.35352C197.042 7.74023 197.027 8.03613 197.033 8.24121L200.408 7.6084C201.727 7.37402 202.863 7.23926 203.818 7.2041C203.842 6.81152 203.88 5.75684 203.933 4.04004C203.944 3.58887 204.082 3.07031 204.346 2.48438C204.674 1.76367 205.046 1.40332 205.462 1.40332C205.772 1.40332 206.048 1.50586 206.288 1.71094C206.546 1.93359 206.675 2.21191 206.675 2.5459C206.675 2.63379 206.663 2.72168 206.64 2.80957ZM217.028 3.73242C216.911 3.73242 216.788 3.71484 216.659 3.67969C215.71 3.42188 214.787 3.29297 213.891 3.29297C213.451 3.29297 212.979 3.32812 212.476 3.39844C211.972 3.46875 211.436 3.57422 210.867 3.71484C210.867 4.49414 210.841 5.65137 210.788 7.18652C211.116 7.16309 212.262 7.05469 214.225 6.86133C215.344 6.75 216.053 6.69434 216.352 6.69434C216.697 6.69434 216.993 6.80566 217.239 7.02832C217.485 7.24512 217.608 7.53516 217.608 7.89844C217.608 8.5957 217.236 8.99121 216.492 9.08496C216.023 9.12012 215.323 9.17871 214.392 9.26074C213.56 9.35449 212.306 9.46875 210.63 9.60352C210.589 10.3477 210.568 10.9482 210.568 11.4053C210.568 12.5537 210.636 13.207 210.771 13.3652C210.835 13.4414 211.204 13.4795 211.878 13.4795C212.241 13.4795 212.789 13.4707 213.521 13.4531C214.254 13.4355 214.802 13.4268 215.165 13.4268C215.282 13.4268 215.455 13.4092 215.684 13.374C215.912 13.3389 216.082 13.3213 216.193 13.3213C216.533 13.3213 216.823 13.418 217.063 13.6113C217.339 13.8281 217.477 14.1328 217.477 14.5254C217.477 15.1816 217.134 15.5742 216.448 15.7031C215.862 15.8145 214.646 15.8701 212.801 15.8701C210.891 15.8701 209.646 15.6123 209.065 15.0967C208.427 14.5283 208.107 13.2979 208.107 11.4053C208.107 10.6201 208.163 9.44238 208.274 7.87207C208.392 6.2959 208.45 5.11816 208.45 4.33887C208.45 4.13379 208.421 3.83203 208.362 3.43359C208.304 3.0293 208.274 2.72461 208.274 2.51953C208.274 1.62891 208.685 1.18359 209.505 1.18359C209.763 1.18359 210 1.25684 210.217 1.40332C210.896 1.2334 211.541 1.10742 212.15 1.02539C212.766 0.9375 213.346 0.893555 213.891 0.893555C215.367 0.893555 216.548 1.06348 217.433 1.40332C217.972 1.6084 218.241 1.98047 218.241 2.51953C218.241 2.82422 218.136 3.09375 217.925 3.32812C217.69 3.59766 217.392 3.73242 217.028 3.73242ZM228.234 5.63965C227.707 5.63965 227.317 5.36133 227.065 4.80469C226.948 4.54102 226.831 4.38281 226.714 4.33008C226.626 4.28906 226.395 4.26855 226.02 4.26855C225.281 4.26855 224.429 4.84277 223.462 5.99121C222.108 7.59668 221.432 9.09961 221.432 10.5C221.432 11.1387 221.646 11.6865 222.073 12.1436C222.501 12.6006 223.014 12.8291 223.611 12.8291C224.191 12.8291 224.78 12.6768 225.378 12.3721C225.589 12.2607 226.034 11.9736 226.714 11.5107C227.171 11.2061 227.517 11.0537 227.751 11.0537C228.103 11.0537 228.401 11.1826 228.647 11.4404C228.876 11.6807 228.99 11.9561 228.99 12.2666C228.99 12.6123 228.838 12.9141 228.533 13.1719C226.922 14.5312 225.281 15.2109 223.611 15.2109C222.293 15.2109 221.18 14.7305 220.271 13.7695C219.404 12.8438 218.971 11.7539 218.971 10.5C218.971 8.53711 219.829 6.5332 221.546 4.48828C223.005 2.75391 224.496 1.88672 226.02 1.88672C226.277 1.88672 226.509 1.89551 226.714 1.91309C226.925 1.93066 227.109 1.95703 227.268 1.99219C227.525 1.74023 227.836 1.61426 228.199 1.61426C228.797 1.61426 229.166 1.95703 229.307 2.64258C229.406 3.13477 229.456 3.70898 229.456 4.36523C229.456 4.6582 229.371 4.9248 229.201 5.16504C228.979 5.48145 228.656 5.63965 228.234 5.63965ZM238.087 4.61133C237.782 4.61133 236.947 4.5293 235.582 4.36523C235.5 5.44336 235.459 6.87598 235.459 8.66309L235.45 12.6094C236.229 12.5918 237.023 12.583 237.832 12.583C238.184 12.583 238.474 12.7002 238.702 12.9346C238.937 13.1689 239.054 13.4502 239.054 13.7783C239.054 14.1064 238.937 14.3877 238.702 14.6221C238.474 14.8506 238.184 14.9648 237.832 14.9648C237.504 14.9648 237.012 14.9736 236.355 14.9912C235.699 15.0029 235.207 15.0088 234.879 15.0088C234.492 15.0088 233.912 15.0586 233.139 15.1582C232.365 15.2637 231.785 15.3164 231.398 15.3164C231.047 15.3164 230.754 15.2021 230.52 14.9736C230.291 14.7393 230.177 14.458 230.177 14.1299C230.177 13.8018 230.291 13.5205 230.52 13.2861C230.754 13.0518 231.047 12.9346 231.398 12.9346C231.797 12.9346 232.321 12.8906 232.972 12.8027C232.96 12.1113 232.954 10.7871 232.954 8.83008C232.954 7.23633 233.013 5.71582 233.13 4.26855L231.223 4.32129C230.871 4.32129 230.575 4.20703 230.335 3.97852C230.101 3.75 229.983 3.46582 229.983 3.12598C229.983 2.78027 230.101 2.49902 230.335 2.28223C230.552 2.08301 230.818 1.96875 231.135 1.93945C231.65 1.89258 232.547 1.86914 233.824 1.86914C234.973 1.86914 236.452 1.99219 238.263 2.23828C238.983 2.33789 239.344 2.74219 239.344 3.45117C239.344 3.82617 239.197 4.12207 238.904 4.33887C238.664 4.52051 238.392 4.61133 238.087 4.61133ZM241.998 15.0879C241.652 15.082 241.362 14.9648 241.128 14.7363C240.894 14.502 240.776 14.2207 240.776 13.8926C240.776 13.3066 240.803 12.4277 240.855 11.2559C240.914 10.084 240.943 9.20508 240.943 8.61914C240.943 7.96875 240.929 6.99316 240.899 5.69238C240.876 4.3916 240.864 3.41602 240.864 2.76562C240.864 2.44336 241.02 2.12402 241.33 1.80762C241.641 1.48535 241.972 1.32422 242.323 1.32422C242.517 1.32422 243.003 1.50586 243.782 1.86914C244.69 2.30273 245.229 2.5459 245.399 2.59863C247.116 3.15527 248.581 4.0166 249.794 5.18262C251.241 6.57129 251.965 8.10645 251.965 9.78809C251.965 10.8018 251.716 11.7656 251.218 12.6797C250.72 13.6113 250.037 14.3584 249.17 14.9209C248.197 15.5537 246.829 15.8701 245.065 15.8701C244.638 15.8701 244.146 15.8086 243.589 15.6855C242.915 15.5332 242.385 15.334 241.998 15.0879ZM246.938 6.05273C246.369 5.69531 245.15 5.13281 243.281 4.36523V13.0664C243.51 13.2129 243.771 13.3242 244.063 13.4004C244.362 13.4707 244.693 13.5059 245.057 13.5059C246.322 13.5059 247.23 13.3301 247.781 12.9785C248.303 12.6445 248.716 12.1904 249.021 11.6162C249.331 11.042 249.486 10.4443 249.486 9.82324C249.486 8.37012 248.637 7.11328 246.938 6.05273ZM259.418 15.5361C257.684 15.5361 256.207 15.0381 254.988 14.042C253.688 12.9756 253.037 11.5957 253.037 9.90234C253.037 7.91016 253.661 6.09375 254.909 4.45312C256.31 2.60742 258.073 1.68457 260.2 1.68457C262.245 1.68457 263.777 2.15332 264.797 3.09082C265.816 4.02832 266.326 5.4375 266.326 7.31836C266.326 9.31055 265.752 11.1152 264.604 12.7324C263.279 14.6016 261.551 15.5361 259.418 15.5361ZM260.2 4.06641C258.894 4.06641 257.774 4.69922 256.843 5.96484C255.97 7.14844 255.533 8.46094 255.533 9.90234C255.533 10.875 255.911 11.666 256.667 12.2754C257.394 12.8613 258.311 13.1543 259.418 13.1543C260.707 13.1543 261.782 12.5215 262.644 11.2559C263.435 10.1016 263.83 8.78906 263.83 7.31836C263.83 6.08789 263.555 5.23242 263.004 4.75195C262.477 4.29492 261.542 4.06641 260.2 4.06641Z" fill="white"/>
</svg>
