<svg width="176" height="16" viewBox="0 0 176 16" fill="none" xmlns="http://www.w3.org/2000/svg">
<path d="M4.64941 8.05664C4.38574 9.00586 4.0166 10.4385 3.54199 12.3545C3.43066 13.0166 3.32227 13.6758 3.2168 14.332C2.97656 15.1641 2.53418 15.5801 1.88965 15.5801C1.48535 15.5801 1.16602 15.4424 0.931641 15.167C0.732422 14.9326 0.632812 14.6543 0.632812 14.332C0.632812 13.3828 0.834961 12.2256 1.23926 10.8604C1.84277 8.81543 2.16797 7.68164 2.21484 7.45898C2.38477 6.55664 2.55762 5.6543 2.7334 4.75195C2.99707 3.50977 3.28125 2.68359 3.58594 2.27344C3.89648 1.85742 4.28613 1.64941 4.75488 1.64941C5.28809 1.64941 5.68066 1.91895 5.93262 2.45801C6.16699 2.96777 6.41895 4.01074 6.68848 5.58691C6.94629 7.11621 7.33008 8.7627 7.83984 10.5264C8.50781 8.78613 9.12891 6.87598 9.70312 4.7959L10.1953 2.77441C10.5117 1.93652 11.001 1.51758 11.6631 1.51758C12.3018 1.51758 12.7764 2.00391 13.0869 2.97656C13.2158 3.36914 13.3535 4.10156 13.5 5.17383C13.8398 7.66992 14.2676 9.80859 14.7832 11.5898C15.3047 13.4004 15.5654 14.3848 15.5654 14.543C15.5654 14.8887 15.4277 15.1787 15.1523 15.4131C14.8945 15.624 14.6045 15.7295 14.2822 15.7295C13.6436 15.7295 13.1689 15.2725 12.8584 14.3584L12.3662 12.2314C12.085 11.1768 11.7803 9.66211 11.4521 7.6875C11.1885 8.47266 10.752 9.70605 10.1426 11.3877L9.61523 13.0049C9.39844 13.6436 9.17285 14.168 8.93848 14.5781C8.62793 15.123 8.19434 15.3955 7.6377 15.3955C7.08691 15.3955 6.66504 15.0703 6.37207 14.4199L5.87988 12.7852C5.42285 11.2852 5.0127 9.70898 4.64941 8.05664ZM26.0332 13.4795C25.6055 14.0596 25.0898 14.543 24.4863 14.9297C23.748 15.3984 22.9893 15.6328 22.21 15.6328C20.7158 15.6328 19.6055 15.3457 18.8789 14.7715C17.3438 13.5586 16.5762 11.4521 16.5762 8.45215C16.5762 8.16504 16.5908 7.7373 16.6201 7.16895C16.6494 6.60059 16.6641 6.17285 16.6641 5.88574C16.6641 5.65723 16.6699 5.31738 16.6816 4.86621C16.6934 4.40918 16.6992 4.06641 16.6992 3.83789C16.6992 3.36914 16.7842 2.92676 16.9541 2.51074C17.1826 1.95996 17.502 1.68457 17.9121 1.68457C18.2344 1.68457 18.5186 1.79004 18.7646 2.00098C19.0342 2.22363 19.1689 2.51074 19.1689 2.8623C19.1689 3.19629 19.1631 3.70312 19.1514 4.38281C19.1455 5.05664 19.1426 5.56348 19.1426 5.90332C19.1426 6.18457 19.1279 6.60938 19.0986 7.17773C19.0693 7.74609 19.0547 8.1709 19.0547 8.45215C19.0547 9.36035 19.1602 10.2041 19.3711 10.9834C19.6172 11.915 19.9775 12.5654 20.4521 12.9346C20.6982 13.1279 21.2842 13.2305 22.21 13.2422C23.7568 13.2656 24.7998 11.9473 25.3389 9.28711C25.6201 7.91016 25.7607 5.97656 25.7607 3.48633C25.7607 3.1582 25.8574 2.8418 26.0508 2.53711C26.3145 2.13281 26.6895 1.93066 27.1758 1.93066C27.5742 1.93066 27.873 2.07715 28.0723 2.37012C28.2246 2.58691 28.3008 2.82715 28.3008 3.09082C28.3008 5.40527 28.1924 7.20996 27.9756 8.50488C27.6475 10.5029 27 12.1611 26.0332 13.4795ZM43.0576 12.8379C43.0576 13.1309 43.0078 13.5938 42.9082 14.2266C42.791 14.9824 42.3633 15.3604 41.625 15.3604C41.2148 15.3604 40.752 15.1289 40.2363 14.666C37.9805 12.6328 35.4346 9.78223 32.5986 6.11426C32.5635 7.6377 32.5459 8.57227 32.5459 8.91797C32.5459 9.38086 32.5547 10.0781 32.5723 11.0098C32.5957 11.9414 32.6074 12.6387 32.6074 13.1016C32.6074 14.8301 32.1855 15.6943 31.3418 15.6943C30.9141 15.6943 30.5713 15.5625 30.3135 15.2988C30.085 15.0645 29.9707 14.7803 29.9707 14.4463C29.9707 14.2119 29.9883 13.8574 30.0234 13.3828C30.0645 12.9082 30.085 12.5537 30.085 12.3193C30.085 11.9736 30.0967 11.4551 30.1201 10.7637C30.1436 10.0723 30.1553 9.55371 30.1553 9.20801C30.1553 8.83887 30.1465 8.28223 30.1289 7.53809C30.1113 6.79395 30.1025 6.2373 30.1025 5.86816C30.1025 5.5166 30.0674 4.99219 29.9971 4.29492C29.9268 3.59766 29.8916 3.07324 29.8916 2.72168C29.8916 2.37012 30.041 2.05664 30.3398 1.78125C30.6445 1.50586 30.9902 1.36816 31.377 1.36816C31.8105 1.36816 32.291 1.74316 32.8184 2.49316C35.4785 6.29004 38.1035 9.38672 40.6934 11.7832C40.6992 11.5957 40.7021 11.1504 40.7021 10.4473C40.7021 7.55859 40.6729 5.61035 40.6143 4.60254C40.6025 4.43262 40.5645 4.11621 40.5 3.65332C40.4414 3.24316 40.4121 2.9209 40.4121 2.68652C40.4121 1.87793 40.8398 1.47363 41.6953 1.47363C42.6504 1.47363 43.1279 2.94727 43.1279 5.89453C43.1279 5.95898 43.1221 6.42188 43.1104 7.2832C43.0752 10.2598 43.0576 12.1113 43.0576 12.8379ZM46.2832 15.0879C45.9375 15.082 45.6475 14.9648 45.4131 14.7363C45.1787 14.502 45.0615 14.2207 45.0615 13.8926C45.0615 13.3066 45.0879 12.4277 45.1406 11.2559C45.1992 10.084 45.2285 9.20508 45.2285 8.61914C45.2285 7.96875 45.2139 6.99316 45.1846 5.69238C45.1611 4.3916 45.1494 3.41602 45.1494 2.76562C45.1494 2.44336 45.3047 2.12402 45.6152 1.80762C45.9258 1.48535 46.2568 1.32422 46.6084 1.32422C46.8018 1.32422 47.2881 1.50586 48.0674 1.86914C48.9756 2.30273 49.5146 2.5459 49.6846 2.59863C51.4014 3.15527 52.8662 4.0166 54.0791 5.18262C55.5264 6.57129 56.25 8.10645 56.25 9.78809C56.25 10.8018 56.001 11.7656 55.5029 12.6797C55.0049 13.6113 54.3223 14.3584 53.4551 14.9209C52.4824 15.5537 51.1143 15.8701 49.3506 15.8701C48.9229 15.8701 48.4307 15.8086 47.874 15.6855C47.2002 15.5332 46.6699 15.334 46.2832 15.0879ZM51.2227 6.05273C50.6543 5.69531 49.4355 5.13281 47.5664 4.36523V13.0664C47.7949 13.2129 48.0557 13.3242 48.3486 13.4004C48.6475 13.4707 48.9785 13.5059 49.3418 13.5059C50.6074 13.5059 51.5156 13.3301 52.0664 12.9785C52.5879 12.6445 53.001 12.1904 53.3057 11.6162C53.6162 11.042 53.7715 10.4443 53.7715 9.82324C53.7715 8.37012 52.9219 7.11328 51.2227 6.05273ZM63.7031 15.5361C61.9688 15.5361 60.4922 15.0381 59.2734 14.042C57.9727 12.9756 57.3223 11.5957 57.3223 9.90234C57.3223 7.91016 57.9463 6.09375 59.1943 4.45312C60.5947 2.60742 62.3584 1.68457 64.4854 1.68457C66.5303 1.68457 68.0625 2.15332 69.082 3.09082C70.1016 4.02832 70.6113 5.4375 70.6113 7.31836C70.6113 9.31055 70.0371 11.1152 68.8887 12.7324C67.5645 14.6016 65.8359 15.5361 63.7031 15.5361ZM64.4854 4.06641C63.1787 4.06641 62.0596 4.69922 61.1279 5.96484C60.2549 7.14844 59.8184 8.46094 59.8184 9.90234C59.8184 10.875 60.1963 11.666 60.9521 12.2754C61.6787 12.8613 62.5957 13.1543 63.7031 13.1543C64.9922 13.1543 66.0674 12.5215 66.9287 11.2559C67.7197 10.1016 68.1152 8.78906 68.1152 7.31836C68.1152 6.08789 67.8398 5.23242 67.2891 4.75195C66.7617 4.29492 65.8271 4.06641 64.4854 4.06641ZM86.2031 15.0088L82.7139 15C81.6064 15 81.0527 14.6514 81.0527 13.9541C81.0527 13.1689 81.6709 12.7764 82.9072 12.7764C83.0244 12.7764 83.1533 12.7793 83.2939 12.7852V4.98926C82.7842 5.34082 82.4531 5.5166 82.3008 5.5166C81.9727 5.5166 81.6855 5.39941 81.4395 5.16504C81.1992 4.93066 81.0791 4.6582 81.0791 4.34766C81.0791 4.02539 81.2754 3.69434 81.668 3.35449L82.6611 2.63379L83.7334 1.77246C84.1729 1.45605 84.5977 1.29785 85.0078 1.29785C85.5352 1.29785 85.7988 1.61426 85.7988 2.24707C85.7988 2.94434 85.7695 3.92578 85.7109 5.19141C85.6523 6.45703 85.623 8.26465 85.623 10.6143V12.7412H86.2031C86.543 12.7412 86.8271 12.8496 87.0557 13.0664C87.29 13.2832 87.4072 13.5527 87.4072 13.875C87.4072 14.1973 87.29 14.4668 87.0557 14.6836C86.8271 14.9004 86.543 15.0088 86.2031 15.0088ZM105.451 11.2119C104.643 11.2705 103.204 11.2998 101.136 11.2998C100.772 11.2998 100.453 11.2178 100.178 11.0537C99.8555 10.8545 99.6943 10.585 99.6943 10.2451C99.6943 9.90527 99.8555 9.63574 100.178 9.43652C100.453 9.2666 100.772 9.18164 101.136 9.18164C101.599 9.18164 102.293 9.16992 103.219 9.14648C104.145 9.11719 104.839 9.10254 105.302 9.10254C105.665 9.10254 105.984 9.17578 106.26 9.32227C106.611 9.50977 106.787 9.78809 106.787 10.1572C106.787 10.7959 106.342 11.1475 105.451 11.2119ZM127.951 4.46191C127.494 4.46191 126.782 4.42969 125.815 4.36523C124.884 4.30078 124.172 4.27148 123.68 4.27734C123.703 4.94531 123.782 6.13477 123.917 7.8457C124.04 9.35742 124.102 10.5527 124.102 11.4316C124.102 11.6309 124.122 11.9268 124.163 12.3193C124.204 12.7119 124.225 13.0078 124.225 13.207C124.225 13.6465 124.131 14.042 123.943 14.3936C123.703 14.8447 123.36 15.0703 122.915 15.0703C122.593 15.0703 122.309 14.9678 122.062 14.7627C121.787 14.5342 121.649 14.2471 121.649 13.9014C121.649 13.8193 121.664 13.6963 121.693 13.5322C121.723 13.3623 121.737 13.2334 121.737 13.1455C121.737 12.876 121.717 12.4688 121.676 11.9238C121.641 11.3789 121.623 10.9688 121.623 10.6934C121.623 9.9082 121.562 8.84473 121.438 7.50293C121.298 5.96191 121.216 4.89844 121.192 4.3125H120.735C119.429 4.3125 118.392 4.21875 117.624 4.03125C116.974 3.87305 116.648 3.48926 116.648 2.87988C116.648 2.58105 116.754 2.31152 116.965 2.07129C117.211 1.78418 117.533 1.65527 117.932 1.68457C118.137 1.69629 118.603 1.74609 119.329 1.83398C119.909 1.89844 120.378 1.93066 120.735 1.93066C121.093 1.93066 121.626 1.9248 122.335 1.91309C123.05 1.90137 123.586 1.89551 123.943 1.89551C124.389 1.89551 125.057 1.92773 125.947 1.99219C126.838 2.05078 127.506 2.08008 127.951 2.08008C128.303 2.08008 128.596 2.19434 128.83 2.42285C129.07 2.65137 129.19 2.93262 129.19 3.2666C129.19 3.60059 129.07 3.88477 128.83 4.11914C128.596 4.34766 128.303 4.46191 127.951 4.46191ZM138.841 3.73242C138.724 3.73242 138.601 3.71484 138.472 3.67969C137.522 3.42188 136.6 3.29297 135.703 3.29297C135.264 3.29297 134.792 3.32812 134.288 3.39844C133.784 3.46875 133.248 3.57422 132.68 3.71484C132.68 4.49414 132.653 5.65137 132.601 7.18652C132.929 7.16309 134.074 7.05469 136.037 6.86133C137.156 6.75 137.865 6.69434 138.164 6.69434C138.51 6.69434 138.806 6.80566 139.052 7.02832C139.298 7.24512 139.421 7.53516 139.421 7.89844C139.421 8.5957 139.049 8.99121 138.305 9.08496C137.836 9.12012 137.136 9.17871 136.204 9.26074C135.372 9.35449 134.118 9.46875 132.442 9.60352C132.401 10.3477 132.381 10.9482 132.381 11.4053C132.381 12.5537 132.448 13.207 132.583 13.3652C132.647 13.4414 133.017 13.4795 133.69 13.4795C134.054 13.4795 134.602 13.4707 135.334 13.4531C136.066 13.4355 136.614 13.4268 136.978 13.4268C137.095 13.4268 137.268 13.4092 137.496 13.374C137.725 13.3389 137.895 13.3213 138.006 13.3213C138.346 13.3213 138.636 13.418 138.876 13.6113C139.151 13.8281 139.289 14.1328 139.289 14.5254C139.289 15.1816 138.946 15.5742 138.261 15.7031C137.675 15.8145 136.459 15.8701 134.613 15.8701C132.703 15.8701 131.458 15.6123 130.878 15.0967C130.239 14.5283 129.92 13.2979 129.92 11.4053C129.92 10.6201 129.976 9.44238 130.087 7.87207C130.204 6.2959 130.263 5.11816 130.263 4.33887C130.263 4.13379 130.233 3.83203 130.175 3.43359C130.116 3.0293 130.087 2.72461 130.087 2.51953C130.087 1.62891 130.497 1.18359 131.317 1.18359C131.575 1.18359 131.812 1.25684 132.029 1.40332C132.709 1.2334 133.354 1.10742 133.963 1.02539C134.578 0.9375 135.158 0.893555 135.703 0.893555C137.18 0.893555 138.36 1.06348 139.245 1.40332C139.784 1.6084 140.054 1.98047 140.054 2.51953C140.054 2.82422 139.948 3.09375 139.737 3.32812C139.503 3.59766 139.204 3.73242 138.841 3.73242ZM150.24 15.1055C149.924 15.1055 149.634 14.9824 149.37 14.7363C147.595 13.0723 145.644 11.918 143.517 11.2734C143.581 12.9785 143.613 13.9248 143.613 14.1123C143.613 14.4463 143.496 14.7305 143.262 14.9648C143.027 15.1934 142.734 15.3076 142.383 15.3076C142.031 15.3076 141.738 15.1934 141.504 14.9648C141.27 14.7305 141.152 14.4463 141.152 14.1123C141.152 13.6729 141.158 13.0166 141.17 12.1436C141.182 11.2646 141.188 10.6055 141.188 10.166L141.205 3.07324C141.205 2.69238 141.319 2.34668 141.548 2.03613C141.847 1.6377 142.26 1.45898 142.787 1.5C144.211 1.60547 144.94 1.66113 144.976 1.66699C145.796 1.7666 146.493 1.96289 147.067 2.25586C149.569 3.51562 150.82 5.07715 150.82 6.94043C150.82 7.70801 150.557 8.3877 150.029 8.97949C149.508 9.56543 148.723 10.0605 147.674 10.4648C149.227 11.332 150.396 12.2168 151.181 13.1191C151.386 13.3535 151.488 13.6143 151.488 13.9014C151.488 14.2295 151.365 14.5137 151.119 14.7539C150.873 14.9883 150.58 15.1055 150.24 15.1055ZM144.606 4.04883C144.56 4.04297 144.217 4.01953 143.578 3.97852V8.64551C143.725 8.65137 143.854 8.6543 143.965 8.6543C145.4 8.6543 146.464 8.47559 147.155 8.11816C147.454 7.96582 147.727 7.76367 147.973 7.51172C148.225 7.25977 148.351 7.06934 148.351 6.94043C148.351 6.28418 147.935 5.65137 147.103 5.04199C146.312 4.46777 145.479 4.13672 144.606 4.04883ZM161.771 15.1055C161.455 15.1055 161.165 14.9824 160.901 14.7363C159.126 13.0723 157.175 11.918 155.048 11.2734C155.112 12.9785 155.145 13.9248 155.145 14.1123C155.145 14.4463 155.027 14.7305 154.793 14.9648C154.559 15.1934 154.266 15.3076 153.914 15.3076C153.562 15.3076 153.27 15.1934 153.035 14.9648C152.801 14.7305 152.684 14.4463 152.684 14.1123C152.684 13.6729 152.689 13.0166 152.701 12.1436C152.713 11.2646 152.719 10.6055 152.719 10.166L152.736 3.07324C152.736 2.69238 152.851 2.34668 153.079 2.03613C153.378 1.6377 153.791 1.45898 154.318 1.5C155.742 1.60547 156.472 1.66113 156.507 1.66699C157.327 1.7666 158.024 1.96289 158.599 2.25586C161.101 3.51562 162.352 5.07715 162.352 6.94043C162.352 7.70801 162.088 8.3877 161.561 8.97949C161.039 9.56543 160.254 10.0605 159.205 10.4648C160.758 11.332 161.927 12.2168 162.712 13.1191C162.917 13.3535 163.02 13.6143 163.02 13.9014C163.02 14.2295 162.896 14.5137 162.65 14.7539C162.404 14.9883 162.111 15.1055 161.771 15.1055ZM156.138 4.04883C156.091 4.04297 155.748 4.01953 155.109 3.97852V8.64551C155.256 8.65137 155.385 8.6543 155.496 8.6543C156.932 8.6543 157.995 8.47559 158.687 8.11816C158.985 7.96582 159.258 7.76367 159.504 7.51172C159.756 7.25977 159.882 7.06934 159.882 6.94043C159.882 6.28418 159.466 5.65137 158.634 5.04199C157.843 4.46777 157.011 4.13672 156.138 4.04883ZM174.393 15.2637C173.93 15.2461 173.464 14.7012 172.995 13.6289C172.685 12.9375 172.418 12.1406 172.195 11.2383C171.762 11.3027 171.053 11.3672 170.068 11.4316C169.143 11.4961 168.434 11.5723 167.941 11.6602C167.672 12.3047 167.203 13.2744 166.535 14.5693C166.277 14.9912 165.92 15.2021 165.463 15.2021C165.141 15.2021 164.851 15.0938 164.593 14.877C164.335 14.6543 164.206 14.373 164.206 14.0332C164.206 13.7344 164.634 12.7207 165.489 10.9922C165.407 10.8105 165.372 10.6406 165.384 10.4824C165.407 10.2012 165.691 9.98145 166.236 9.82324C167.068 8.38184 167.994 6.8877 169.014 5.34082C170.479 3.12012 171.381 2.00977 171.721 2.00977C172.365 2.00977 172.796 2.39941 173.013 3.17871C173.13 3.80566 173.314 4.74609 173.566 6C173.924 7.6875 174.36 9.61816 174.876 11.792C174.917 11.9561 175.066 12.3428 175.324 12.9521C175.535 13.4561 175.641 13.834 175.641 14.0859C175.641 14.4258 175.512 14.71 175.254 14.9385C175.002 15.167 174.715 15.2754 174.393 15.2637ZM171.114 6.24609C170.657 7.03125 170.027 8.10059 169.225 9.4541C169.488 9.39551 169.898 9.34863 170.455 9.31348C171.111 9.27246 171.524 9.24023 171.694 9.2168C171.554 8.45508 171.36 7.46484 171.114 6.24609Z" fill="white"/>
</svg>
