<svg width="98" height="128" viewBox="0 0 98 128" fill="none" xmlns="http://www.w3.org/2000/svg">
<g filter="url(#filter0_d_450_91)">
<rect x="5.00001" y="1" width="88" height="118" rx="11" fill="#E5D8E5" stroke="#F7F7F7" stroke-width="2"/>
<path d="M29.5509 76.5757L27.5617 77.0258L28.1465 75.2325L29.5509 76.5757Z" fill="white" stroke="#393939" stroke-width="0.2"/>
<path d="M28.7883 75.5271L26.5765 75.5208L27.8457 73.867L28.7883 75.5271Z" fill="white" stroke="#393939" stroke-width="0.2"/>
<path d="M31.2457 77.1101L29.7329 78.3599L29.3128 76.5371L31.2457 77.1101Z" fill="white" stroke="#393939" stroke-width="0.2"/>
<path d="M33.1665 76.3514L32.5492 78.1336L31.1797 76.7441L33.1665 76.3514Z" fill="white" stroke="#393939" stroke-width="0.2"/>
<path d="M37.924 92.4027L36.4233 93.1585L36.1339 91.6162L37.924 92.4027Z" fill="white" stroke="#393939" stroke-width="0.2"/>
<path d="M40.943 93.3588L39.6064 94.2068L39.0705 92.8037L40.943 93.3588Z" fill="white" stroke="#393939" stroke-width="0.2"/>
<path d="M44.5298 93.5215L43.5519 94.8221L42.5424 93.5418L44.5298 93.5215Z" fill="white" stroke="#393939" stroke-width="0.2"/>
<path d="M60.0362 92.4027L61.5369 93.1585L61.8263 91.6162L60.0362 92.4027Z" fill="white" stroke="#393939" stroke-width="0.2"/>
<path d="M57.0173 93.3588L58.3538 94.2068L58.8897 92.8037L57.0173 93.3588Z" fill="white" stroke="#393939" stroke-width="0.2"/>
<path d="M53.43 93.5215L54.4079 94.8221L55.4173 93.5418L53.43 93.5215Z" fill="white" stroke="#393939" stroke-width="0.2"/>
<path d="M67.0361 64.3806C67.0361 76.0292 58.9897 85.3325 49.2231 85.3325C39.4564 85.3325 31.41 76.0292 31.41 64.3806C31.41 52.7321 39.4564 43.4287 49.2231 43.4287C58.9897 43.4287 67.0361 52.7321 67.0361 64.3806Z" fill="white" stroke="#C2E2F0"/>
<path d="M34.6299 74.6281L35.1247 76.5109L33.1192 75.8811L34.6299 74.6281Z" fill="white" stroke="#393939" stroke-width="0.2"/>
<path d="M69.1524 76.6127L71.2507 77.1501L70.5653 75.2613L69.1524 76.6127Z" fill="white" stroke="#393939" stroke-width="0.2"/>
<path d="M69.9366 75.5597L72.3115 75.6245L70.8847 73.8899L69.9366 75.5597Z" fill="white" stroke="#393939" stroke-width="0.2"/>
<path d="M67.4298 77.1385L68.9733 78.4625L69.3704 76.5632L67.4298 77.1385Z" fill="white" stroke="#393939" stroke-width="0.2"/>
<path d="M65.7505 76.2145L65.9739 78.046L67.6074 76.9635L65.7505 76.2145Z" fill="white" stroke="#393939" stroke-width="0.2"/>
<path d="M64.0457 74.6236L63.5652 76.4907L65.5549 75.8755L64.0457 74.6236Z" fill="white" stroke="#393939" stroke-width="0.2"/>
<path d="M39.9522 64.1608C38.8182 68.1617 37.1177 71.6005 35.3045 73.9264C34.3971 75.0904 33.4776 75.9549 32.6069 76.4785C31.7382 77.0008 30.9557 77.1634 30.2783 77.0033C29.6008 76.8433 29.003 76.3546 28.5208 75.5131C28.0375 74.6697 27.6927 73.5064 27.5176 72.0867C27.1677 69.2497 27.5076 65.4894 28.6416 61.4886C29.7755 57.4878 31.4761 54.049 33.2893 51.723C34.1966 50.5591 35.1161 49.6945 35.9869 49.171C36.8556 48.6487 37.638 48.4861 38.3155 48.6461C38.9929 48.8062 39.5908 49.2949 40.073 50.1363C40.5563 50.9798 40.901 52.143 41.0761 53.5627C41.426 56.3997 41.0861 60.16 39.9522 64.1608Z" fill="white" stroke="#C2E2F0"/>
<path d="M59.0476 64.1608C60.1815 68.1617 61.8821 71.6005 63.6953 73.9264C64.6027 75.0904 65.5221 75.9549 66.3929 76.4785C67.2616 77.0008 68.0441 77.1634 68.7215 77.0033C69.3989 76.8433 69.9968 76.3546 70.479 75.5131C70.9623 74.6697 71.307 73.5064 71.4821 72.0867C71.832 69.2497 71.4922 65.4894 70.3582 61.4886C69.2243 57.4878 67.5237 54.049 65.7105 51.723C64.8031 50.5591 63.8837 49.6945 63.0129 49.171C62.1442 48.6487 61.3617 48.4861 60.6843 48.6461C60.0068 48.8062 59.409 49.2949 58.9268 50.1363C58.4435 50.9798 58.0987 52.143 57.9236 53.5627C57.5738 56.3997 57.9136 60.16 59.0476 64.1608Z" fill="white" stroke="#C2E2F0"/>
<path d="M43.5399 29.9939C43.5399 32.9863 40.8683 35.4878 37.4749 35.4878C34.0814 35.4878 31.4098 32.9863 31.4098 29.9939C31.4098 27.0016 34.0814 24.5 37.4749 24.5C40.8683 24.5 43.5399 27.0016 43.5399 29.9939Z" fill="white" stroke="#C2E2F0"/>
<path d="M67.727 29.9939C67.727 32.9863 65.0554 35.4878 61.662 35.4878C58.2685 35.4878 55.5969 32.9863 55.5969 29.9939C55.5969 27.0016 58.2685 24.5 61.662 24.5C65.0554 24.5 67.727 27.0016 67.727 29.9939Z" fill="white" stroke="#C2E2F0"/>
<path d="M63.581 41.6657C63.581 48.6653 57.3513 54.4154 49.5687 54.4154C41.7862 54.4154 35.5565 48.6653 35.5565 41.6657C35.5565 34.6661 41.7862 28.916 49.5687 28.916C57.3513 28.916 63.581 34.6661 63.581 41.6657Z" fill="white" stroke="#C2E2F0"/>
<ellipse cx="44.1714" cy="38.0735" rx="1.903" ry="1.5637" fill="#282828"/>
<ellipse cx="55.3991" cy="38.0735" rx="1.7127" ry="1.5637" fill="#282828"/>
<path d="M49.8807 45.5441C50.7485 47.3124 53.4097 49.8469 57.1121 45.8388" stroke="#282828"/>
<path d="M49.8807 45.5441C48.9673 47.3124 46.1661 49.8469 42.2688 45.8388" stroke="#282828"/>
<path d="M50.9106 45.299C50.1913 45.8532 49.1888 45.8532 48.4694 45.299L47.9152 44.872C46.403 43.707 47.2268 41.2877 49.1358 41.2877L50.2443 41.2877C52.1532 41.2877 52.9771 43.707 51.4649 44.872L50.9106 45.299Z" fill="#282828"/>
<path d="M36.4387 91.8255C33.6745 90.3112 37.3602 85.0955 39.5485 82.6769C41.2071 84.4435 45.714 85.4684 47.7871 85.6788C47.5568 87.887 47.0119 92.3302 46.4591 93.0874C45.768 94.0338 39.894 93.7183 36.4387 91.8255Z" fill="white" stroke="#C2E2F0"/>
<path d="M61.6621 91.8255C64.4263 90.3112 60.7407 85.0955 58.5523 82.6769C56.8937 84.4435 52.3339 85.4684 50.2608 85.6788C50.4911 87.887 51.0889 92.3302 51.6418 93.0874C52.3328 94.0338 58.2068 93.7183 61.6621 91.8255Z" fill="white" stroke="#C2E2F0"/>
</g>
<defs>
<filter id="filter0_d_450_91" x="7.62939e-06" y="0" width="98" height="128" filterUnits="userSpaceOnUse" color-interpolation-filters="sRGB">
<feFlood flood-opacity="0" result="BackgroundImageFix"/>
<feColorMatrix in="SourceAlpha" type="matrix" values="0 0 0 0 0 0 0 0 0 0 0 0 0 0 0 0 0 0 127 0" result="hardAlpha"/>
<feOffset dy="4"/>
<feGaussianBlur stdDeviation="2"/>
<feComposite in2="hardAlpha" operator="out"/>
<feColorMatrix type="matrix" values="0 0 0 0 0 0 0 0 0 0 0 0 0 0 0 0 0 0 0.25 0"/>
<feBlend mode="normal" in2="BackgroundImageFix" result="effect1_dropShadow_450_91"/>
<feBlend mode="normal" in="SourceGraphic" in2="effect1_dropShadow_450_91" result="shape"/>
</filter>
</defs>
</svg>
