<svg width="52" height="71" viewBox="0 0 52 71" fill="none" xmlns="http://www.w3.org/2000/svg">
<path d="M2.86704 12.4998C4.36696 19.9998 10.0186 21.9662 11.3669 24.9998C11.292 25.4211 6.91352 35.5424 6.37421 39.1827C5.8349 47.07 10.9433 52.4125 13.565 54.0978C-0.81654 63.1986 -2.63322 20.9998 2.86704 12.4998Z" fill="#B75800"/>
<ellipse cx="28.6543" cy="41.2147" rx="17.3456" ry="23.8875" fill="#282828"/>
<path d="M11.8456 52.6538C0.481235 42.2913 9.42817 25.6262 15.2848 18.5889L43.2334 18.5889C54.523 40.3736 51.7567 50.8034 44.8035 54.9248C37.8503 59.0463 33.5139 54.9248 33.5887 47.8595C33.6485 42.2072 39.545 40.9063 42.4858 40.9624C42.426 31.6765 38.6116 29.2149 36.6677 29.1027C29.4902 34.2335 26.2006 28.6822 21.1913 29.1027C17.1838 29.4392 16.0823 37.2615 16.0324 41.1306C23.0903 42.2072 24.7551 46.0651 24.7052 47.8595C25.1538 53.7753 23.2099 63.0163 11.8456 52.6538Z" fill="#282828" stroke="#B75800"/>
<path d="M7.27311 33.3691C8.53149 30.9422 15.887 29.9984 19.4075 29.8299C24.0515 30.2512 34.3283 30.8411 38.2832 29.8299C43.2269 28.5659 46.3728 33.3691 49.2941 33.3691C46.4178 23.6616 43.4516 19.0438 42.328 17.9483C34.9875 17.4427 19.5873 16.7349 16.711 17.9483C13.1156 19.4651 9.29551 28.0603 7.27311 33.3691Z" fill="#B75800"/>
<ellipse cx="19.2333" cy="6.39244" rx="5.68218" ry="6.39244" fill="white"/>
<ellipse cx="38.9715" cy="6.39244" rx="5.68218" ry="6.39244" fill="white"/>
<path d="M42.659 18.7571C42.659 27.2247 36.5695 33.9858 29.1778 33.9858C21.7861 33.9858 15.6967 27.2247 15.6967 18.7571C15.6967 10.2895 21.7861 3.52832 29.1778 3.52832C36.5695 3.52832 42.659 10.2895 42.659 18.7571Z" fill="#B75800" stroke="#282828"/>
<ellipse cx="29.1338" cy="27.6268" rx="5.68218" ry="6.39244" fill="white"/>
<ellipse cx="27.2723" cy="13.3978" rx="1.12355" ry="1.264" fill="white"/>
<ellipse cx="31.3165" cy="13.3978" rx="1.12355" ry="1.264" fill="white"/>
<path d="M29.2518 28.2617C29.9157 29.9738 31.9517 32.4278 34.7845 28.5471" stroke="#282828"/>
<path d="M29.2518 28.2617C28.552 29.9738 26.4059 32.4278 23.4201 28.5471" stroke="#282828"/>
<path d="M30.6034 27.3162C29.8461 28.0346 28.6591 28.0346 27.9018 27.3162V27.3162C26.615 26.0955 27.4789 23.9295 29.2526 23.9295V23.9295C31.0263 23.9295 31.8902 26.0955 30.6034 27.3162V27.3162Z" fill="#282828"/>
<path d="M26.3597 17.243C26.3597 18.7426 25.2913 19.8551 24.0933 19.8551C22.8954 19.8551 21.827 18.7426 21.827 17.243C21.827 15.7433 22.8954 14.6309 24.0933 14.6309C25.2913 14.6309 26.3597 15.7433 26.3597 17.243Z" fill="#B75800" stroke="white"/>
<path d="M36.5281 17.243C36.5281 18.7426 35.4597 19.8551 34.2618 19.8551C33.0639 19.8551 31.9955 18.7426 31.9955 17.243C31.9955 15.7433 33.0639 14.6309 34.2618 14.6309C35.4597 14.6309 36.5281 15.7433 36.5281 17.243Z" fill="#B75800" stroke="white"/>
<path d="M22.1224 57.4617C23.4183 59.2829 24.1544 61.2939 24.3158 63.0541C24.4779 64.8227 24.0591 66.2541 23.1527 67.0704C22.2464 67.8867 20.9131 68.033 19.4147 67.468C17.9233 66.9056 16.3402 65.6574 15.0443 63.8361C13.7483 62.0149 13.0122 60.0039 12.8508 58.2437C12.6887 56.4751 13.1075 55.0436 14.0139 54.2273C14.9203 53.4111 16.2535 53.2647 17.7519 53.8298C19.2433 54.3922 20.8264 55.6404 22.1224 57.4617Z" fill="#282828" stroke="#B75800"/>
<path d="M35.9784 57.4617C34.6824 59.2829 33.9463 61.2939 33.785 63.0541C33.6229 64.8227 34.0416 66.2541 34.948 67.0704C35.8544 67.8867 37.1877 68.033 38.6861 67.468C40.1775 66.9056 41.7605 65.6574 43.0565 63.8361C44.3525 62.0149 45.0886 60.0039 45.2499 58.2437C45.412 56.4751 44.9933 55.0436 44.0869 54.2273C43.1805 53.4111 41.8473 53.2647 40.3488 53.8298C38.8574 54.3922 37.2744 55.6404 35.9784 57.4617Z" fill="#282828" stroke="#B75800"/>
<path d="M21.2053 31.0943C20.8457 29.2742 21.9543 24.6058 22.7782 22.752C21.1304 22.9205 17.565 22.8025 16.4863 24.0159C17.3852 27.3023 19.6323 29.8303 21.2053 31.0943Z" fill="white"/>
<path d="M37.1598 31.0943C37.5193 29.2742 36.4108 24.6058 35.5868 22.752C37.2347 22.9205 40.8001 22.8025 41.8787 24.0159C40.9799 27.3023 38.7328 29.8303 37.1598 31.0943Z" fill="white"/>
</svg>
