<svg width="98" height="128" viewBox="0 0 98 128" fill="none" xmlns="http://www.w3.org/2000/svg">
<g filter="url(#filter0_d_398_39)">
<rect x="5" y="1" width="88" height="118" rx="11" fill="#578549" stroke="#F7F7F7" stroke-width="2"/>
<path d="M26.867 35.4998C28.367 42.9998 34.0186 44.9662 35.3669 47.9998C35.292 48.4211 30.9135 58.5424 30.3742 62.1827C29.8349 70.07 34.9433 75.4125 37.565 77.0978C23.1835 86.1986 21.3668 43.9998 26.867 35.4998Z" fill="#B75800"/>
<ellipse cx="52.6543" cy="64.2147" rx="17.3456" ry="23.8875" fill="#282828"/>
<path d="M35.8456 75.6538C24.4812 65.2913 33.4282 48.6262 39.2848 41.5889H67.2334C78.523 63.3736 75.7567 73.8034 68.8035 77.9248C61.8503 82.0463 57.5139 77.9248 57.5887 70.8595C57.6485 65.2072 63.545 63.9063 66.4858 63.9624C66.426 54.6765 62.6116 52.2149 60.6677 52.1027C53.4902 57.2335 50.2006 51.6822 45.1913 52.1027C41.1838 52.4392 40.0823 60.2615 40.0324 64.1306C47.0903 65.2072 48.7551 69.0651 48.7052 70.8595C49.1538 76.7753 47.2099 86.0163 35.8456 75.6538Z" fill="#282828" stroke="#B75800"/>
<path d="M31.2731 56.3691C32.5315 53.9422 39.887 52.9984 43.4075 52.8299C48.0515 53.2512 58.3283 53.8411 62.2832 52.8299C67.2269 51.5659 70.3728 56.3691 73.2941 56.3691C70.4178 46.6616 67.4516 42.0438 66.328 40.9483C58.9875 40.4427 43.5873 39.7349 40.711 40.9483C37.1156 42.4651 33.2955 51.0603 31.2731 56.3691Z" fill="#B75800"/>
<ellipse cx="43.2333" cy="29.3924" rx="5.68218" ry="6.39244" fill="white"/>
<ellipse cx="62.9715" cy="29.3924" rx="5.68218" ry="6.39244" fill="white"/>
<path d="M66.659 41.7571C66.659 50.2247 60.5695 56.9858 53.1778 56.9858C45.7861 56.9858 39.6967 50.2247 39.6967 41.7571C39.6967 33.2895 45.7861 26.5283 53.1778 26.5283C60.5695 26.5283 66.659 33.2895 66.659 41.7571Z" fill="#B75800" stroke="#282828"/>
<ellipse cx="53.1338" cy="50.6268" rx="5.68218" ry="6.39244" fill="white"/>
<ellipse cx="51.2723" cy="36.3978" rx="1.12355" ry="1.264" fill="white"/>
<ellipse cx="55.3165" cy="36.3978" rx="1.12355" ry="1.264" fill="white"/>
<path d="M53.2518 51.2617C53.9157 52.9738 55.9517 55.4278 58.7845 51.5471" stroke="#282828"/>
<path d="M53.2518 51.2617C52.552 52.9738 50.4059 55.4278 47.4201 51.5471" stroke="#282828"/>
<path d="M54.6034 50.3162C53.8461 51.0346 52.6591 51.0346 51.9018 50.3162C50.615 49.0955 51.4789 46.9295 53.2526 46.9295C55.0263 46.9295 55.8902 49.0955 54.6034 50.3162Z" fill="#282828"/>
<path d="M50.3597 40.243C50.3597 41.7426 49.2913 42.8551 48.0933 42.8551C46.8954 42.8551 45.827 41.7426 45.827 40.243C45.827 38.7433 46.8954 37.6309 48.0933 37.6309C49.2913 37.6309 50.3597 38.7433 50.3597 40.243Z" fill="#B75800" stroke="white"/>
<path d="M60.5281 40.243C60.5281 41.7426 59.4597 42.8551 58.2618 42.8551C57.0639 42.8551 55.9955 41.7426 55.9955 40.243C55.9955 38.7433 57.0639 37.6309 58.2618 37.6309C59.4597 37.6309 60.5281 38.7433 60.5281 40.243Z" fill="#B75800" stroke="white"/>
<path d="M46.1224 80.4617C47.4183 82.2829 48.1544 84.2939 48.3158 86.0541C48.4779 87.8227 48.0591 89.2541 47.1527 90.0704C46.2464 90.8867 44.9131 91.033 43.4147 90.468C41.9233 89.9056 40.3402 88.6574 39.0443 86.8361C37.7483 85.0149 37.0122 83.0039 36.8508 81.2437C36.6887 79.4751 37.1075 78.0436 38.0139 77.2273C38.9203 76.4111 40.2535 76.2647 41.7519 76.8298C43.2433 77.3922 44.8264 78.6404 46.1224 80.4617Z" fill="#282828" stroke="#B75800"/>
<path d="M59.9784 80.4617C58.6824 82.2829 57.9463 84.2939 57.785 86.0541C57.6229 87.8227 58.0416 89.2541 58.948 90.0704C59.8544 90.8867 61.1877 91.033 62.6861 90.468C64.1775 89.9056 65.7605 88.6574 67.0565 86.8361C68.3525 85.0149 69.0886 83.0039 69.2499 81.2437C69.412 79.4751 68.9933 78.0436 68.0869 77.2273C67.1805 76.4111 65.8473 76.2647 64.3488 76.8298C62.8574 77.3922 61.2744 78.6404 59.9784 80.4617Z" fill="#282828" stroke="#B75800"/>
<path d="M45.2053 54.0943C44.8457 52.2742 45.9543 47.6058 46.7782 45.752C45.1304 45.9205 41.565 45.8025 40.4863 47.0159C41.3852 50.3023 43.6323 52.8303 45.2053 54.0943Z" fill="white"/>
<path d="M61.1598 54.0943C61.5193 52.2742 60.4108 47.6058 59.5868 45.752C61.2347 45.9205 64.8001 45.8025 65.8787 47.0159C64.9799 50.3023 62.7328 52.8303 61.1598 54.0943Z" fill="white"/>
</g>
<defs>
<filter id="filter0_d_398_39" x="0" y="0" width="98" height="128" filterUnits="userSpaceOnUse" color-interpolation-filters="sRGB">
<feFlood flood-opacity="0" result="BackgroundImageFix"/>
<feColorMatrix in="SourceAlpha" type="matrix" values="0 0 0 0 0 0 0 0 0 0 0 0 0 0 0 0 0 0 127 0" result="hardAlpha"/>
<feOffset dy="4"/>
<feGaussianBlur stdDeviation="2"/>
<feComposite in2="hardAlpha" operator="out"/>
<feColorMatrix type="matrix" values="0 0 0 0 0 0 0 0 0 0 0 0 0 0 0 0 0 0 0.25 0"/>
<feBlend mode="normal" in2="BackgroundImageFix" result="effect1_dropShadow_398_39"/>
<feBlend mode="normal" in="SourceGraphic" in2="effect1_dropShadow_398_39" result="shape"/>
</filter>
</defs>
</svg>
