<svg width="98" height="128" viewBox="0 0 98 128" fill="none" xmlns="http://www.w3.org/2000/svg">
<g filter="url(#filter0_d_450_157)">
<rect x="5" y="1" width="88" height="118" rx="11" fill="#E5D8E5" stroke="#F7F7F7" stroke-width="2"/>
<path d="M27.1953 31.4766C25.8724 31.4766 24.8307 31.1823 24.0703 30.5938C23.4297 30.1042 23.1094 29.5391 23.1094 28.8984C23.1094 28.5703 23.2083 28.2995 23.4062 28.0859C23.6042 27.8672 23.8776 27.7578 24.2266 27.7578C24.6953 27.7578 25.0391 27.9974 25.2578 28.4766C25.5547 29.1172 26.2266 29.4375 27.2734 29.4375C28.1693 29.4375 29.0365 29.2422 29.875 28.8516C30.7448 28.4505 31.1797 28.0104 31.1797 27.5312C31.1797 26.875 30.9089 26.4427 30.3672 26.2344C29.9818 26.0833 29.2083 25.9948 28.0469 25.9688C27.1458 25.9479 26.3385 25.7786 25.625 25.4609C24.6615 25.0286 24.1875 24.4089 24.2031 23.6016C24.2188 22.5859 24.7604 21.6562 25.8281 20.8125C26.8958 19.9635 28.0729 19.5391 29.3594 19.5391C29.8698 19.5391 30.5 19.6562 31.25 19.8906C32.1823 20.1823 32.6484 20.5182 32.6484 20.8984C32.6484 21.1693 32.5547 21.4089 32.3672 21.6172C32.1589 21.8516 31.8906 21.9688 31.5625 21.9688C31.3177 21.9688 30.9505 21.9167 30.4609 21.8125C29.9766 21.7083 29.6094 21.6562 29.3594 21.6562C28.6875 21.6615 28.0495 21.8229 27.4453 22.1406C26.8203 22.4635 26.5078 22.8151 26.5078 23.1953C26.5078 23.3932 26.6016 23.5573 26.7891 23.6875C26.9818 23.8125 27.2682 23.901 27.6484 23.9531C28.3151 23.9896 28.9792 24.026 29.6406 24.0625C30.7969 24.151 31.7109 24.4766 32.3828 25.0391C33.1224 25.6641 33.4922 26.5286 33.4922 27.6328C33.4922 28.9766 32.7266 29.9948 31.1953 30.6875C30.0286 31.2135 28.6953 31.4766 27.1953 31.4766ZM46.1797 29.0781C46.1797 29.3385 46.1354 29.75 46.0469 30.3125C45.9427 30.9844 45.5625 31.3203 44.9062 31.3203C44.5417 31.3203 44.1302 31.1146 43.6719 30.7031C41.6667 28.8958 39.4036 26.362 36.8828 23.1016C36.8516 24.4557 36.8359 25.2865 36.8359 25.5938C36.8359 26.0052 36.8438 26.625 36.8594 27.4531C36.8802 28.2812 36.8906 28.901 36.8906 29.3125C36.8906 30.849 36.5156 31.6172 35.7656 31.6172C35.3854 31.6172 35.0807 31.5 34.8516 31.2656C34.6484 31.0573 34.5469 30.8047 34.5469 30.5078C34.5469 30.2995 34.5625 29.9844 34.5938 29.5625C34.6302 29.1406 34.6484 28.8255 34.6484 28.6172C34.6484 28.3099 34.6589 27.849 34.6797 27.2344C34.7005 26.6198 34.7109 26.1589 34.7109 25.8516C34.7109 25.5234 34.7031 25.0286 34.6875 24.3672C34.6719 23.7057 34.6641 23.2109 34.6641 22.8828C34.6641 22.5703 34.6328 22.1042 34.5703 21.4844C34.5078 20.8646 34.4766 20.3984 34.4766 20.0859C34.4766 19.7734 34.6094 19.4948 34.875 19.25C35.1458 19.0052 35.4531 18.8828 35.7969 18.8828C36.1823 18.8828 36.6094 19.2161 37.0781 19.8828C39.4427 23.2578 41.776 26.0104 44.0781 28.1406C44.0833 27.974 44.0859 27.5781 44.0859 26.9531C44.0859 24.3854 44.0599 22.6536 44.0078 21.7578C43.9974 21.6068 43.9635 21.3255 43.9062 20.9141C43.8542 20.5495 43.8281 20.263 43.8281 20.0547C43.8281 19.3359 44.2083 18.9766 44.9688 18.9766C45.8177 18.9766 46.2422 20.2865 46.2422 22.9062C46.2422 22.9635 46.237 23.375 46.2266 24.1406C46.1953 26.7865 46.1797 28.4323 46.1797 29.0781ZM52.9844 31.4766C51.4427 31.4766 50.1302 31.0339 49.0469 30.1484C47.8906 29.2005 47.3125 27.974 47.3125 26.4688C47.3125 24.6979 47.8672 23.0833 48.9766 21.625C50.2214 19.9844 51.7891 19.1641 53.6797 19.1641C55.4974 19.1641 56.8594 19.5807 57.7656 20.4141C58.6719 21.2474 59.125 22.5 59.125 24.1719C59.125 25.9427 58.6146 27.5469 57.5938 28.9844C56.4167 30.6458 54.8802 31.4766 52.9844 31.4766ZM53.6797 21.2812C52.5182 21.2812 51.5234 21.8438 50.6953 22.9688C49.9193 24.0208 49.5312 25.1875 49.5312 26.4688C49.5312 27.3333 49.8672 28.0365 50.5391 28.5781C51.1849 29.099 52 29.3594 52.9844 29.3594C54.1302 29.3594 55.0859 28.7969 55.8516 27.6719C56.5547 26.6458 56.9062 25.4792 56.9062 24.1719C56.9062 23.0781 56.6615 22.3177 56.1719 21.8906C55.7031 21.4844 54.8724 21.2812 53.6797 21.2812ZM75.6562 20.9766C75.5677 21.1901 75.4635 21.4531 75.3438 21.7656C75.2552 22.0677 75.112 22.5156 74.9141 23.1094C74.6172 23.875 74.1458 24.9896 73.5 26.4531C72.8385 27.9427 72.3646 29.0547 72.0781 29.7891C71.8646 30.3359 71.6641 30.7734 71.4766 31.1016C71.2318 31.5339 70.8594 31.75 70.3594 31.75C70.0625 31.75 69.7943 31.6693 69.5547 31.5078C69.2734 31.3203 69.1224 31.0729 69.1016 30.7656C68.862 30.1667 68.7109 29.6771 68.6484 29.2969C68.4193 28.1823 68.1016 26.5078 67.6953 24.2734C67.3568 25.3203 66.9922 26.2604 66.6016 27.0938C66.0182 28.3438 65.6354 29.3255 65.4531 30.0391C65.5 30.1536 65.5234 30.276 65.5234 30.4062C65.5234 30.7292 65.3802 30.9922 65.0938 31.1953C64.8438 31.3672 64.5677 31.4531 64.2656 31.4531C63.8854 31.4531 63.5703 31.3568 63.3203 31.1641C63.0495 30.9505 62.9089 30.6589 62.8984 30.2891L62.6562 29.375C62.4844 28.5625 62.2031 27.349 61.8125 25.7344C61.4688 24.5 60.8932 22.7422 60.0859 20.4609C60.0391 20.3307 60.0156 20.2005 60.0156 20.0703C60.0156 19.7578 60.1354 19.5104 60.375 19.3281C60.5885 19.1615 60.8464 19.0781 61.1484 19.0781C61.5443 19.0781 61.8594 19.2448 62.0938 19.5781C62.224 19.7604 62.3724 20.0911 62.5391 20.5703C63.0495 22.0391 63.625 24.1797 64.2656 26.9922C64.6823 25.9766 65.1068 24.7786 65.5391 23.3984C65.888 22.2734 66.1719 21.474 66.3906 21C66.9115 19.8646 67.4427 19.2969 67.9844 19.2969C68.4948 19.2969 68.8672 19.5755 69.1016 20.1328C69.2161 20.3984 69.3281 20.8802 69.4375 21.5781C69.4688 21.7917 69.5365 22.3151 69.6406 23.1484C69.75 24.0443 70.0781 25.6745 70.625 28.0391C71.1771 26.7474 71.9193 24.8854 72.8516 22.4531C72.9089 22.3073 73.0443 21.8281 73.2578 21.0156C73.4089 20.4323 73.599 19.9714 73.8281 19.6328C74.0781 19.2682 74.4115 19.0859 74.8281 19.0859C75.1458 19.0859 75.4089 19.1849 75.6172 19.3828C75.8255 19.5755 75.9297 19.8255 75.9297 20.1328C75.9297 20.2422 75.8385 20.5234 75.6562 20.9766ZM36.5234 53.4766C34.9818 53.4766 33.6693 53.0339 32.5859 52.1484C31.4297 51.2005 30.8516 49.974 30.8516 48.4688C30.8516 46.6979 31.4062 45.0833 32.5156 43.625C33.7604 41.9844 35.3281 41.1641 37.2188 41.1641C39.0365 41.1641 40.3984 41.5807 41.3047 42.4141C42.2109 43.2474 42.6641 44.5 42.6641 46.1719C42.6641 47.9427 42.1536 49.5469 41.1328 50.9844C39.9557 52.6458 38.4193 53.4766 36.5234 53.4766ZM37.2188 43.2812C36.0573 43.2812 35.0625 43.8438 34.2344 44.9688C33.4583 46.0208 33.0703 47.1875 33.0703 48.4688C33.0703 49.3333 33.4062 50.0365 34.0781 50.5781C34.724 51.099 35.5391 51.3594 36.5234 51.3594C37.6693 51.3594 38.625 50.7969 39.3906 49.6719C40.0938 48.6458 40.4453 47.4792 40.4453 46.1719C40.4453 45.0781 40.2005 44.3177 39.7109 43.8906C39.2422 43.4844 38.4115 43.2812 37.2188 43.2812ZM59.1953 42.9766C59.1068 43.1901 59.0026 43.4531 58.8828 43.7656C58.7943 44.0677 58.651 44.5156 58.4531 45.1094C58.1562 45.875 57.6849 46.9896 57.0391 48.4531C56.3776 49.9427 55.9036 51.0547 55.6172 51.7891C55.4036 52.3359 55.2031 52.7734 55.0156 53.1016C54.7708 53.5339 54.3984 53.75 53.8984 53.75C53.6016 53.75 53.3333 53.6693 53.0938 53.5078C52.8125 53.3203 52.6615 53.0729 52.6406 52.7656C52.401 52.1667 52.25 51.6771 52.1875 51.2969C51.9583 50.1823 51.6406 48.5078 51.2344 46.2734C50.8958 47.3203 50.5312 48.2604 50.1406 49.0938C49.5573 50.3438 49.1745 51.3255 48.9922 52.0391C49.0391 52.1536 49.0625 52.276 49.0625 52.4062C49.0625 52.7292 48.9193 52.9922 48.6328 53.1953C48.3828 53.3672 48.1068 53.4531 47.8047 53.4531C47.4245 53.4531 47.1094 53.3568 46.8594 53.1641C46.5885 52.9505 46.4479 52.6589 46.4375 52.2891L46.1953 51.375C46.0234 50.5625 45.7422 49.349 45.3516 47.7344C45.0078 46.5 44.4323 44.7422 43.625 42.4609C43.5781 42.3307 43.5547 42.2005 43.5547 42.0703C43.5547 41.7578 43.6745 41.5104 43.9141 41.3281C44.1276 41.1615 44.3854 41.0781 44.6875 41.0781C45.0833 41.0781 45.3984 41.2448 45.6328 41.5781C45.763 41.7604 45.9115 42.0911 46.0781 42.5703C46.5885 44.0391 47.1641 46.1797 47.8047 48.9922C48.2214 47.9766 48.6458 46.7786 49.0781 45.3984C49.4271 44.2734 49.7109 43.474 49.9297 43C50.4505 41.8646 50.9818 41.2969 51.5234 41.2969C52.0339 41.2969 52.4062 41.5755 52.6406 42.1328C52.7552 42.3984 52.8672 42.8802 52.9766 43.5781C53.0078 43.7917 53.0755 44.3151 53.1797 45.1484C53.2891 46.0443 53.6172 47.6745 54.1641 50.0391C54.7161 48.7474 55.4583 46.8854 56.3906 44.4531C56.4479 44.3073 56.5833 43.8281 56.7969 43.0156C56.9479 42.4323 57.138 41.9714 57.3672 41.6328C57.6172 41.2682 57.9505 41.0859 58.3672 41.0859C58.6849 41.0859 58.9479 41.1849 59.1562 41.3828C59.3646 41.5755 59.4688 41.8255 59.4688 42.1328C59.4688 42.2422 59.3776 42.5234 59.1953 42.9766ZM67.9453 52.7031C67.3307 52.974 66.3802 53.2161 65.0938 53.4297C63.9167 53.6276 62.9505 53.7266 62.1953 53.7266C60.9193 53.7266 60.2812 53.1667 60.2812 52.0469C60.2812 52.1354 60.3333 51.3099 60.4375 49.5703C60.5729 47.3099 60.6406 44.7943 60.6406 42.0234C60.6406 41.7266 60.7422 41.474 60.9453 41.2656C61.1536 41.0573 61.4141 40.9531 61.7266 40.9531C62.0391 40.9531 62.2995 41.0573 62.5078 41.2656C62.7161 41.474 62.8203 41.7266 62.8203 42.0234C62.8203 44.7995 62.75 47.3568 62.6094 49.6953C62.5625 50.112 62.513 50.75 62.4609 51.6094C63.6953 51.5885 65.2786 51.2865 67.2109 50.7031C67.3307 50.6667 67.4453 50.6484 67.5547 50.6484C67.8828 50.6484 68.1484 50.7682 68.3516 51.0078C68.5339 51.2214 68.625 51.4609 68.625 51.7266C68.625 52.1745 68.3984 52.5 67.9453 52.7031Z" fill="#F7F7F7"/>
<path d="M27.8984 74.3301C27.6068 74.3301 27.388 74.1592 27.2422 73.8174C27.1146 73.5257 26.9961 73.348 26.8867 73.2842C26.791 73.234 26.554 73.209 26.1758 73.209C25.515 73.209 24.7812 73.7148 23.9746 74.7266C22.8809 76.0846 22.334 77.3721 22.334 78.5889C22.334 79.1768 22.5231 79.6826 22.9014 80.1064C23.2887 80.5439 23.7559 80.7627 24.3027 80.7627C24.7721 80.7627 25.2438 80.6419 25.7178 80.4004C25.9821 80.2637 26.3877 79.9948 26.9346 79.5938C27.1943 79.4023 27.3903 79.3066 27.5225 79.3066C27.7184 79.3066 27.8825 79.3818 28.0146 79.5322C28.1468 79.6781 28.2129 79.8421 28.2129 80.0244C28.2129 80.2295 28.1263 80.4095 27.9531 80.5645C26.75 81.6309 25.5332 82.1641 24.3027 82.1641C23.3594 82.1641 22.5618 81.8018 21.9102 81.0771C21.2812 80.3753 20.9668 79.5459 20.9668 78.5889C20.9668 77.0439 21.6139 75.4603 22.9082 73.8379C23.9883 72.4844 25.0775 71.8076 26.1758 71.8076C26.3991 71.8076 26.5996 71.819 26.7773 71.8418C26.9551 71.86 27.1123 71.8919 27.249 71.9375C27.4085 71.7051 27.6159 71.5889 27.8711 71.5889C28.1855 71.5889 28.3838 71.7962 28.4658 72.2109C28.5387 72.5801 28.5752 73.0335 28.5752 73.5713C28.5752 73.7581 28.5251 73.9222 28.4248 74.0635C28.3018 74.2412 28.1263 74.3301 27.8984 74.3301ZM34.2695 82.417C32.9844 82.417 31.8952 82.0319 31.002 81.2617C30.054 80.4414 29.5801 79.3841 29.5801 78.0898C29.5801 76.513 30.0472 75.0798 30.9814 73.79C32.0251 72.359 33.3262 71.6436 34.8848 71.6436C36.3841 71.6436 37.4984 71.9808 38.2275 72.6553C38.9886 73.3571 39.3691 74.4645 39.3691 75.9775C39.3691 77.5544 38.9408 78.9762 38.084 80.2432C37.0996 81.6924 35.8281 82.417 34.2695 82.417ZM34.8848 73.0449C33.7682 73.0449 32.8226 73.6009 32.0479 74.7129C31.3324 75.7337 30.9746 76.8594 30.9746 78.0898C30.9746 78.9694 31.3005 79.6849 31.9521 80.2363C32.5765 80.7559 33.349 81.0156 34.2695 81.0156C35.377 81.0156 36.2907 80.4574 37.0107 79.3408C37.6533 78.3428 37.9746 77.2217 37.9746 75.9775C37.9746 74.8883 37.7308 74.1227 37.2432 73.6807C36.7783 73.2568 35.9922 73.0449 34.8848 73.0449ZM47.668 82.0752C47.4948 82.0752 47.333 82.0023 47.1826 81.8564C45.6742 80.3662 43.9971 79.3636 42.1514 78.8486L42.2061 80.1885L42.2402 81.5352C42.2402 81.7357 42.1742 81.902 42.042 82.0342C41.9144 82.1709 41.7526 82.2393 41.5566 82.2393C41.3607 82.2393 41.1966 82.1709 41.0645 82.0342C40.9368 81.902 40.873 81.7357 40.873 81.5352C40.873 81.1751 40.8548 80.6396 40.8184 79.9287C40.7865 79.2132 40.7705 78.6755 40.7705 78.3154C40.7705 77.8962 40.8161 77.2718 40.9072 76.4424C40.9984 75.613 41.0439 74.9909 41.0439 74.5762C41.0439 74.3438 41.0212 73.9997 40.9756 73.5439C40.9346 73.0882 40.9141 72.7441 40.9141 72.5117C40.9141 72.252 40.987 72.0241 41.1328 71.8281C41.306 71.5866 41.5452 71.4772 41.8506 71.5L43.498 71.6299C44.1224 71.7074 44.6488 71.86 45.0771 72.0879C46.9229 73.0677 47.8457 74.264 47.8457 75.6768C47.8457 76.3695 47.5312 76.9824 46.9023 77.5156C46.3965 77.944 45.7653 78.2699 45.0088 78.4932C46.4261 79.2542 47.4857 80.0563 48.1875 80.8994C48.306 81.0452 48.3652 81.2002 48.3652 81.3643C48.3652 81.5557 48.2946 81.722 48.1533 81.8633C48.0166 82.0046 47.8548 82.0752 47.668 82.0752ZM43.3135 73.0381L42.3018 72.9561L42.3701 73.7832C42.402 74.1204 42.418 74.3962 42.418 74.6104C42.418 74.9749 42.3883 75.4284 42.3291 75.9707L42.1855 77.3311C42.2493 77.3311 42.3473 77.3333 42.4795 77.3379C42.6162 77.3424 42.7188 77.3447 42.7871 77.3447C43.9492 77.3447 44.8197 77.1898 45.3984 76.8799C45.6536 76.7386 45.8906 76.554 46.1094 76.3262C46.3509 76.071 46.4717 75.8545 46.4717 75.6768C46.4717 75.0433 46.1117 74.4531 45.3916 73.9062C44.7308 73.4049 44.0381 73.1156 43.3135 73.0381ZM54.1758 82.2734C52.7585 82.2734 51.7012 81.8656 51.0039 81.0498C50.4388 80.3936 50.0833 79.4229 49.9375 78.1377C49.8691 77.5589 49.835 76.4036 49.835 74.6719C49.835 74.0339 49.8486 73.5189 49.876 73.127C49.9033 72.7122 49.9443 72.4229 49.999 72.2588C50.113 71.9261 50.318 71.7598 50.6143 71.7598C51.0335 71.7598 51.2432 72.1449 51.2432 72.915V76.9277C51.2432 79.6895 52.2093 81.0703 54.1416 81.0703C55.96 81.0703 56.8691 78.7461 56.8691 74.0977C56.8691 73.9245 56.8691 73.7012 56.8691 73.4277C56.8646 73.1543 56.8623 72.972 56.8623 72.8809C56.8623 72.5983 56.9124 72.3499 57.0127 72.1357C57.1403 71.8623 57.3294 71.7256 57.5801 71.7256C58.0358 71.7256 58.2637 72.0378 58.2637 72.6621C58.2637 72.849 58.266 73.1315 58.2705 73.5098C58.2705 73.888 58.2705 74.1706 58.2705 74.3574C58.2705 79.6348 56.9056 82.2734 54.1758 82.2734ZM67.2803 73.1543C67.1982 73.1543 67.057 73.1383 66.8564 73.1064C66.6605 73.07 66.5078 73.0518 66.3984 73.0518C66.1751 73.0518 65.9131 73.0586 65.6123 73.0723L65.6465 73.8857C65.6465 77.2764 65.4209 79.7441 64.9697 81.2891C64.6689 82.3099 64.1426 82.8203 63.3906 82.8203C62.5977 82.8203 61.8115 82.5332 61.0322 81.959C60.1709 81.321 59.7402 80.5895 59.7402 79.7646C59.7402 79.2041 59.9704 78.9238 60.4307 78.9238C60.891 78.9238 61.1211 79.1995 61.1211 79.751C61.1211 80.1292 61.39 80.5052 61.9277 80.8789C62.4427 81.2344 62.9303 81.4121 63.3906 81.4121C63.7643 81.4121 64.0241 80.266 64.1699 77.9736C64.2383 76.889 64.2725 75.5264 64.2725 73.8857C64.2725 73.7581 64.2611 73.512 64.2383 73.1475L63.8213 73.1543C63.6436 73.1543 63.3747 73.1497 63.0146 73.1406C62.6592 73.127 62.3903 73.1201 62.208 73.1201C62.0075 73.1201 61.8389 73.0563 61.7021 72.9287C61.5654 72.8011 61.4971 72.6279 61.4971 72.4092C61.4971 71.9398 61.8138 71.7051 62.4473 71.7051C62.6022 71.7051 62.8324 71.7119 63.1377 71.7256C63.443 71.7393 63.6709 71.7461 63.8213 71.7461C64.1084 71.7461 64.5368 71.7301 65.1064 71.6982C65.6807 71.6618 66.1113 71.6436 66.3984 71.6436C67.4375 71.6436 67.957 71.9079 67.957 72.4365C67.957 72.6188 67.8955 72.7806 67.7725 72.9219C67.6403 73.0768 67.4762 73.1543 67.2803 73.1543ZM76.9531 82.2051C76.5339 82.2051 76.1693 81.6673 75.8594 80.5918C75.7409 80.1816 75.5928 79.4639 75.415 78.4385C74.9502 78.5023 74.3418 78.6162 73.5898 78.7803L71.7715 79.1562C71.5436 79.7533 71.154 80.626 70.6025 81.7744C70.4567 82.0296 70.2585 82.1572 70.0078 82.1572C69.8255 82.1572 69.6615 82.0911 69.5156 81.959C69.3743 81.8268 69.3037 81.6628 69.3037 81.4668C69.3037 81.248 69.6478 80.4163 70.3359 78.9717C70.2585 78.8532 70.2197 78.7165 70.2197 78.5615C70.2197 78.1924 70.443 77.9554 70.8896 77.8506C71.4092 76.8753 72.0654 75.7542 72.8584 74.4873C73.9385 72.7601 74.6107 71.8965 74.875 71.8965C75.235 71.8965 75.4811 72.1471 75.6133 72.6484L76.0439 74.9453L77.0625 79.6963L77.4521 80.7764C77.5843 81.1455 77.6504 81.3916 77.6504 81.5146C77.6504 81.7106 77.5798 81.8747 77.4385 82.0068C77.2972 82.139 77.1354 82.2051 76.9531 82.2051ZM74.54 74.3916L72.585 77.543C73.1364 77.4017 73.9727 77.2308 75.0938 77.0303L74.54 74.3916ZM25.7109 101.952C25.0046 102.435 23.9906 102.677 22.6689 102.677C22.3363 102.677 21.9557 102.624 21.5273 102.52C21.0124 102.396 20.625 102.237 20.3652 102.041H20.2969C20.1009 102.041 19.9368 101.973 19.8047 101.836C19.6725 101.699 19.6064 101.533 19.6064 101.337C19.6064 100.858 19.627 100.143 19.668 99.1904C19.7135 98.2334 19.7363 97.5156 19.7363 97.0371C19.7363 96.5039 19.7249 95.7087 19.7021 94.6514C19.6839 93.5895 19.6748 92.792 19.6748 92.2588C19.6748 92.0719 19.7705 91.876 19.9619 91.6709C20.1533 91.4658 20.3447 91.3633 20.5361 91.3633C20.6455 91.3633 21.0101 91.516 21.6299 91.8213C22.3317 92.1631 22.7373 92.3522 22.8467 92.3887C24.141 92.8307 25.2438 93.5098 26.1553 94.4258C27.2262 95.5059 27.7617 96.693 27.7617 97.9873C27.7617 98.7666 27.5771 99.514 27.208 100.229C26.8434 100.945 26.3444 101.519 25.7109 101.952ZM24.2754 94.7197C23.8105 94.4144 22.7373 93.8903 21.0557 93.1475L21.0898 95.1162L21.1104 97.0781L21.001 100.811C21.0329 100.824 21.0807 100.854 21.1445 100.899C21.5456 101.168 22.0514 101.303 22.6621 101.303C23.7012 101.303 24.4577 101.143 24.9316 100.824C25.3737 100.523 25.7246 100.12 25.9844 99.6143C26.2487 99.1038 26.3809 98.5729 26.3809 98.0215C26.3809 96.7363 25.679 95.6357 24.2754 94.7197ZM37.0039 102.205C36.5846 102.205 36.2201 101.667 35.9102 100.592C35.7917 100.182 35.6436 99.4639 35.4658 98.4385C35.001 98.5023 34.3926 98.6162 33.6406 98.7803L31.8223 99.1562C31.5944 99.7533 31.2048 100.626 30.6533 101.774C30.5075 102.03 30.3092 102.157 30.0586 102.157C29.8763 102.157 29.7122 102.091 29.5664 101.959C29.4251 101.827 29.3545 101.663 29.3545 101.467C29.3545 101.248 29.6986 100.416 30.3867 98.9717C30.3092 98.8532 30.2705 98.7165 30.2705 98.5615C30.2705 98.1924 30.4938 97.9554 30.9404 97.8506C31.46 96.8753 32.1162 95.7542 32.9092 94.4873C33.9893 92.7601 34.6615 91.8965 34.9258 91.8965C35.2858 91.8965 35.5319 92.1471 35.6641 92.6484L36.0947 94.9453L37.1133 99.6963L37.5029 100.776C37.6351 101.146 37.7012 101.392 37.7012 101.515C37.7012 101.711 37.6305 101.875 37.4893 102.007C37.348 102.139 37.1862 102.205 37.0039 102.205ZM34.5908 94.3916L32.6357 97.543C33.1872 97.4017 34.0234 97.2308 35.1445 97.0303L34.5908 94.3916ZM53.417 100.482C53.417 100.701 53.3805 101.066 53.3076 101.576C53.2347 102.036 52.9909 102.267 52.5762 102.267C52.3255 102.267 52.027 102.103 51.6807 101.774C49.8258 100.02 47.6976 97.4883 45.2959 94.1797L45.2617 95.7314L45.2412 97.29C45.2412 97.6683 45.248 98.2357 45.2617 98.9922C45.2799 99.7487 45.2891 100.318 45.2891 100.701C45.2891 101.927 45.0521 102.54 44.5781 102.54C44.3275 102.54 44.1292 102.46 43.9834 102.301C43.8512 102.16 43.7852 101.991 43.7852 101.795C43.7852 101.604 43.7988 101.314 43.8262 100.927C43.8581 100.539 43.874 100.25 43.874 100.059C43.874 99.776 43.8831 99.3545 43.9014 98.7939C43.9196 98.2288 43.9287 97.805 43.9287 97.5225C43.9287 97.2217 43.9219 96.7682 43.9082 96.1621C43.8945 95.5514 43.8877 95.0957 43.8877 94.7949C43.8877 94.5078 43.8604 94.0817 43.8057 93.5166C43.751 92.9469 43.7236 92.5186 43.7236 92.2314C43.7236 92.0218 43.8125 91.8304 43.9902 91.6572C44.1725 91.484 44.3776 91.3975 44.6055 91.3975C44.847 91.3975 45.1455 91.6618 45.501 92.1904C46.6357 93.8903 47.6566 95.3031 48.5635 96.4287C49.6436 97.764 50.8285 99.04 52.1182 100.257C52.1318 100.061 52.1318 99.7715 52.1182 99.3887L52.0977 98.5273C52.0977 96.5267 52.0202 94.9339 51.8652 93.749C51.847 93.6305 51.7855 93.3913 51.6807 93.0312C51.5895 92.7214 51.5439 92.4798 51.5439 92.3066C51.5439 91.778 51.7855 91.5137 52.2686 91.5137C53.0615 91.5137 53.458 92.9925 53.458 95.9502C53.458 96.4561 53.4512 97.2126 53.4375 98.2197C53.4238 99.2223 53.417 99.9766 53.417 100.482ZM61.6611 92.7988C61.5973 92.7988 61.5267 92.7874 61.4492 92.7646C60.679 92.5459 59.9362 92.4365 59.2207 92.4365C58.847 92.4365 58.4391 92.4707 57.9971 92.5391C57.555 92.6074 57.0788 92.7122 56.5684 92.8535C56.6094 93.1497 56.6299 93.3867 56.6299 93.5645C56.6299 94.1979 56.5911 95.0684 56.5137 96.1758L59.5078 95.8887C60.3874 95.7975 60.9274 95.752 61.1279 95.752C61.3285 95.752 61.4971 95.8158 61.6338 95.9434C61.7705 96.071 61.8389 96.2419 61.8389 96.4561C61.8389 96.8708 61.6292 97.1032 61.21 97.1533L59.583 97.2969L56.4248 97.584C56.4066 97.9076 56.3906 98.2152 56.377 98.5068C56.3678 98.7939 56.3633 99.0628 56.3633 99.3135C56.3633 100.321 56.4362 100.913 56.582 101.091C56.6914 101.218 57.0492 101.282 57.6553 101.282C57.9378 101.282 58.3617 101.275 58.9268 101.262C59.4964 101.243 59.9248 101.234 60.2119 101.234C60.3031 101.234 60.4375 101.221 60.6152 101.193C60.793 101.161 60.9251 101.146 61.0117 101.146C61.4948 101.146 61.7363 101.382 61.7363 101.856C61.7363 102.239 61.5426 102.469 61.1553 102.547C60.7269 102.633 59.7995 102.677 58.373 102.677C56.9603 102.677 56.0534 102.49 55.6523 102.116C55.2148 101.711 54.9961 100.776 54.9961 99.3135C54.9961 99.0218 55.0029 98.7028 55.0166 98.3564C55.0303 98.0101 55.0485 97.6364 55.0713 97.2354C55.0212 97.1305 54.9961 97.0189 54.9961 96.9004C54.9961 96.7454 55.0394 96.6064 55.126 96.4834C55.2171 95.1663 55.2627 94.1934 55.2627 93.5645C55.2627 93.3958 55.2399 93.1497 55.1943 92.8262C55.1488 92.498 55.126 92.2497 55.126 92.0811C55.126 91.5387 55.3538 91.2676 55.8096 91.2676C56.001 91.2676 56.165 91.3337 56.3018 91.4658C56.8486 91.32 57.3636 91.2106 57.8467 91.1377C58.3343 91.0648 58.7923 91.0283 59.2207 91.0283C60.3281 91.0283 61.2122 91.1605 61.873 91.4248C62.1784 91.5479 62.3311 91.7666 62.3311 92.0811C62.3311 92.2633 62.2718 92.4251 62.1533 92.5664C62.0212 92.7214 61.8571 92.7988 61.6611 92.7988ZM71.7168 92.6279C71.4342 93.0518 71.2041 93.4961 71.0264 93.9609L70.5068 95.458L68.668 100.428C68.4538 101.011 68.2031 101.581 67.916 102.137C67.7702 102.41 67.5651 102.547 67.3008 102.547C66.9499 102.547 66.7038 102.369 66.5625 102.014C66.0111 100.628 65.3981 98.6344 64.7236 96.0322L64.1836 94.1523C63.9147 93.2044 63.7803 92.5846 63.7803 92.293C63.7803 92.0879 63.8532 91.9193 63.999 91.7871C64.1312 91.6641 64.2907 91.6025 64.4775 91.6025C64.8239 91.6025 65.0472 91.7894 65.1475 92.1631L65.4004 93.3525L66.0566 95.6768C66.4941 97.3721 66.9202 98.8327 67.335 100.059L67.376 99.9492L69.208 94.9863L69.7891 93.3115C70.0488 92.637 70.3245 92.1266 70.6162 91.7803C70.7666 91.598 70.9443 91.5068 71.1494 91.5068C71.3317 91.5068 71.4935 91.5775 71.6348 91.7188C71.7806 91.8555 71.8535 92.0218 71.8535 92.2178C71.8535 92.3545 71.8079 92.4912 71.7168 92.6279ZM79.5166 92.7988C79.4528 92.7988 79.3822 92.7874 79.3047 92.7646C78.5345 92.5459 77.7917 92.4365 77.0762 92.4365C76.7025 92.4365 76.2946 92.4707 75.8525 92.5391C75.4105 92.6074 74.9342 92.7122 74.4238 92.8535C74.4648 93.1497 74.4854 93.3867 74.4854 93.5645C74.4854 94.1979 74.4466 95.0684 74.3691 96.1758L77.3633 95.8887C78.2428 95.7975 78.7829 95.752 78.9834 95.752C79.1839 95.752 79.3525 95.8158 79.4893 95.9434C79.626 96.071 79.6943 96.2419 79.6943 96.4561C79.6943 96.8708 79.4847 97.1032 79.0654 97.1533L77.4385 97.2969L74.2803 97.584C74.262 97.9076 74.2461 98.2152 74.2324 98.5068C74.2233 98.7939 74.2188 99.0628 74.2188 99.3135C74.2188 100.321 74.2917 100.913 74.4375 101.091C74.5469 101.218 74.9046 101.282 75.5107 101.282C75.7933 101.282 76.2171 101.275 76.7822 101.262C77.3519 101.243 77.7803 101.234 78.0674 101.234C78.1585 101.234 78.293 101.221 78.4707 101.193C78.6484 101.161 78.7806 101.146 78.8672 101.146C79.3503 101.146 79.5918 101.382 79.5918 101.856C79.5918 102.239 79.3981 102.469 79.0107 102.547C78.5824 102.633 77.6549 102.677 76.2285 102.677C74.8158 102.677 73.9089 102.49 73.5078 102.116C73.0703 101.711 72.8516 100.776 72.8516 99.3135C72.8516 99.0218 72.8584 98.7028 72.8721 98.3564C72.8857 98.0101 72.904 97.6364 72.9268 97.2354C72.8766 97.1305 72.8516 97.0189 72.8516 96.9004C72.8516 96.7454 72.8949 96.6064 72.9814 96.4834C73.0726 95.1663 73.1182 94.1934 73.1182 93.5645C73.1182 93.3958 73.0954 93.1497 73.0498 92.8262C73.0042 92.498 72.9814 92.2497 72.9814 92.0811C72.9814 91.5387 73.2093 91.2676 73.665 91.2676C73.8564 91.2676 74.0205 91.3337 74.1572 91.4658C74.7041 91.32 75.2191 91.2106 75.7021 91.1377C76.1898 91.0648 76.6478 91.0283 77.0762 91.0283C78.1836 91.0283 79.0677 91.1605 79.7285 91.4248C80.0339 91.5479 80.1865 91.7666 80.1865 92.0811C80.1865 92.2633 80.1273 92.4251 80.0088 92.5664C79.8766 92.7214 79.7126 92.7988 79.5166 92.7988Z" fill="#F7F7F7"/>
</g>
<defs>
<filter id="filter0_d_450_157" x="0" y="0" width="98" height="128" filterUnits="userSpaceOnUse" color-interpolation-filters="sRGB">
<feFlood flood-opacity="0" result="BackgroundImageFix"/>
<feColorMatrix in="SourceAlpha" type="matrix" values="0 0 0 0 0 0 0 0 0 0 0 0 0 0 0 0 0 0 127 0" result="hardAlpha"/>
<feOffset dy="4"/>
<feGaussianBlur stdDeviation="2"/>
<feComposite in2="hardAlpha" operator="out"/>
<feColorMatrix type="matrix" values="0 0 0 0 0 0 0 0 0 0 0 0 0 0 0 0 0 0 0.25 0"/>
<feBlend mode="normal" in2="BackgroundImageFix" result="effect1_dropShadow_450_157"/>
<feBlend mode="normal" in="SourceGraphic" in2="effect1_dropShadow_450_157" result="shape"/>
</filter>
</defs>
</svg>
