<svg width="98" height="128" viewBox="0 0 98 128" fill="none" xmlns="http://www.w3.org/2000/svg">
<g filter="url(#filter0_d_398_84)">
<rect x="5" y="1" width="88" height="118" rx="11" fill="#DF9766" stroke="#F7F7F7" stroke-width="2"/>
<path d="M67.2486 52.8982C66.4256 55.0419 62.5456 59.4797 60.782 60.937C60.1941 61.2661 57.1372 61.5858 58.4305 63.0525C59.7238 64.5192 67.6375 60.2789 70.2568 58.1164C71.6833 58.5491 73.4047 58.2158 74.5971 56.1419C76.9486 52.052 68.2774 50.2186 67.2486 52.8982Z" fill="#225C21"/>
<path d="M67.6895 55.5778C67.762 56.5511 68.8701 57.6957 70.2568 58.1164M70.2568 58.1164C71.6833 58.5491 73.4047 58.2158 74.5971 56.1419C76.9486 52.052 68.2774 50.2186 67.2486 52.8982C66.4256 55.0419 62.5456 59.4797 60.782 60.937C60.1941 61.2661 57.1372 61.5858 58.4305 63.0525C59.7238 64.5192 67.6375 60.2789 70.2568 58.1164Z" stroke="#397838"/>
<path d="M38.8468 67.2715C36.7793 65.7553 38.1578 64.8019 39.3639 62.4472C40.2145 62.0337 41.8812 62.7343 42.6081 63.1364C42.9527 63.8256 42.4358 62.7918 42.0913 64.8594C44.848 64.5837 45.509 67.0418 45.7388 67.9607C44.3029 68.3627 40.9144 68.7877 38.8468 67.2715Z" fill="#1B461A"/>
<path d="M53.6648 66.9273C51.5972 65.4111 52.9758 64.4577 54.1819 62.1029C55.0325 61.6894 56.6991 62.3901 57.4261 62.7921C57.7707 63.4813 57.2538 62.4476 56.9092 64.5151C59.666 64.2395 60.327 66.6975 60.5567 67.6165C59.1209 68.0185 55.7324 68.4435 53.6648 66.9273Z" fill="#1B461A"/>
<path d="M34.3675 68.1782C32.2999 66.662 33.6785 65.7086 34.8846 63.3539C35.7351 62.9404 37.4018 63.6411 38.1288 64.0431C38.4734 64.7323 37.9565 63.6985 37.6119 65.7661C40.3686 65.4904 41.0297 67.9485 41.2594 68.8674C39.8236 69.2695 36.435 69.6945 34.3675 68.1782Z" fill="#225C21"/>
<path d="M52.5147 68.8768C50.1216 67.9566 51.2015 66.6747 51.7471 64.0859C52.4593 63.4636 54.2514 63.7022 55.0584 63.8992C55.5719 64.4738 54.8017 63.612 55.012 65.6975C57.5997 64.7077 58.8829 66.9061 59.3458 67.7324C58.0659 68.4973 54.9078 69.797 52.5147 68.8768Z" fill="#225C21"/>
<path d="M24.5646 59.852C26.3566 61.5679 27.8585 61.8928 30.1887 60.7049C30.6345 60.6546 31.7945 60.5726 32.8684 60.6468C28.409 66.3004 25.4745 62.4726 24.5646 59.852Z" fill="#225C21"/>
<path d="M28.3074 60.9428C28.0317 59.0131 29.9155 58.9901 30.8919 59.2198L30.2027 60.2537C30.7196 60.9428 35.3716 62.3212 36.5777 62.6658C37.4047 63.0793 43.125 63.4125 45.8818 63.5273C47.6622 63.355 51.9122 62.907 54.669 62.4935C57.5636 62.2179 60.6994 60.8854 61.9055 60.2537C61.848 60.1962 61.6987 59.978 61.5609 59.5645C62.5947 58.1861 65.3514 59.7368 64.3176 60.9428C61.2163 64.3887 48.8109 64.9057 45.3649 65.078C41.9189 65.2503 28.652 63.355 28.3074 60.9428Z" fill="#E3954F"/>
<path d="M30.2027 60.2537C35.2568 51.8111 48.673 39.9915 61.9055 60.2537C59.4933 62.3213 40.196 66.2842 30.2027 60.2537Z" fill="#E3954F"/>
<path d="M41.9189 49.9154C41.9189 50.0877 47.0879 51.9829 49.5 49.5708C48.9832 49.3985 45.5372 48.1924 41.9189 49.9154Z" fill="#CE6C12"/>
<path d="M51.7397 62.8377C51.7397 62.3056 44.8478 54.395 40.1958 63.1821C40.885 63.3545 45.1924 63.6991 51.7397 62.8377Z" fill="#CE6C12"/>
<path d="M38.9895 63.0112C39.1144 62.5914 35.9361 54.412 30.2023 60.2544C30.7057 60.5523 33.6204 62.1542 38.9895 63.0112Z" fill="#CE6C12"/>
<path d="M53.2908 62.8384C53.1659 62.4186 56.284 54.4116 62.0178 60.254C61.5144 60.5518 58.6598 61.9814 53.2908 62.8384Z" fill="#CE6C12"/>
<path d="M33.6489 55.7726C33.7516 55.9109 39.1625 56.1171 39.5071 50.9482C38.9893 51.1178 36.2335 52.4989 33.6489 55.7726Z" fill="#CE6C12"/>
<path d="M58.5596 55.7726C58.4569 55.9109 53.046 56.1171 52.7014 50.9482C53.2192 51.1178 55.975 52.4989 58.5596 55.7726Z" fill="#CE6C12"/>
<path d="M30.2027 60.2537C35.2568 51.8111 48.673 39.9915 61.9055 60.2537C59.4933 62.3213 40.196 66.2842 30.2027 60.2537Z" stroke="#EAAC75"/>
<circle cx="71.3822" cy="53.878" r="0.861489" fill="#282828"/>
</g>
<defs>
<filter id="filter0_d_398_84" x="0" y="0" width="98" height="128" filterUnits="userSpaceOnUse" color-interpolation-filters="sRGB">
<feFlood flood-opacity="0" result="BackgroundImageFix"/>
<feColorMatrix in="SourceAlpha" type="matrix" values="0 0 0 0 0 0 0 0 0 0 0 0 0 0 0 0 0 0 127 0" result="hardAlpha"/>
<feOffset dy="4"/>
<feGaussianBlur stdDeviation="2"/>
<feComposite in2="hardAlpha" operator="out"/>
<feColorMatrix type="matrix" values="0 0 0 0 0 0 0 0 0 0 0 0 0 0 0 0 0 0 0.25 0"/>
<feBlend mode="normal" in2="BackgroundImageFix" result="effect1_dropShadow_398_84"/>
<feBlend mode="normal" in="SourceGraphic" in2="effect1_dropShadow_398_84" result="shape"/>
</filter>
</defs>
</svg>
