<svg width="52" height="23" viewBox="0 0 52 23" fill="none" xmlns="http://www.w3.org/2000/svg">
<path d="M43.2486 4.89819C42.4256 7.04187 38.5456 11.4797 36.782 12.937C36.1941 13.2661 33.1372 13.5858 34.4305 15.0525C35.7238 16.5192 43.6375 12.2789 46.2568 10.1164C47.6833 10.5491 49.4047 10.2158 50.5971 8.14192C52.9486 4.05199 44.2774 2.21858 43.2486 4.89819Z" fill="#225C21"/>
<path d="M43.6895 7.57779C43.762 8.55107 44.8701 9.6957 46.2568 10.1164M46.2568 10.1164C47.6833 10.5491 49.4047 10.2158 50.5971 8.14192C52.9486 4.05199 44.2774 2.21858 43.2486 4.89819C42.4256 7.04187 38.5456 11.4797 36.782 12.937C36.1941 13.2661 33.1372 13.5858 34.4305 15.0525C35.7238 16.5192 43.6375 12.2789 46.2568 10.1164Z" stroke="#397838"/>
<path d="M14.8468 19.2715C12.7793 17.7553 14.1578 16.8019 15.3639 14.4472C16.2145 14.0337 17.8812 14.7343 18.6081 15.1364C18.9527 15.8256 18.4358 14.7918 18.0913 16.8594C20.848 16.5837 21.509 19.0418 21.7388 19.9607C20.3029 20.3627 16.9144 20.7877 14.8468 19.2715Z" fill="#1B461A"/>
<path d="M29.6648 18.9273C27.5972 17.4111 28.9758 16.4577 30.1819 14.1029C31.0325 13.6894 32.6991 14.3901 33.4261 14.7921C33.7707 15.4813 33.2538 14.4476 32.9092 16.5151C35.666 16.2395 36.327 18.6975 36.5567 19.6165C35.1209 20.0185 31.7324 20.4435 29.6648 18.9273Z" fill="#1B461A"/>
<path d="M10.3675 20.1782C8.29988 18.662 9.67848 17.7086 10.8846 15.3539C11.7351 14.9404 13.4018 15.6411 14.1288 16.0431C14.4734 16.7323 13.9565 15.6985 13.6119 17.7661C16.3686 17.4904 17.0297 19.9485 17.2594 20.8674C15.8236 21.2695 12.435 21.6945 10.3675 20.1782Z" fill="#225C21"/>
<path d="M28.5147 20.8768C26.1216 19.9566 27.2015 18.6747 27.7471 16.0859C28.4593 15.4636 30.2514 15.7022 31.0584 15.8992C31.5719 16.4738 30.8017 15.612 31.012 17.6975C33.5997 16.7077 34.8829 18.9061 35.3458 19.7324C34.0659 20.4973 30.9078 21.797 28.5147 20.8768Z" fill="#225C21"/>
<path d="M0.564607 11.852C2.35661 13.5679 3.85849 13.8928 6.18873 12.7049C6.63448 12.6546 7.79446 12.5726 8.86843 12.6468C4.409 18.3004 1.47445 14.4726 0.564607 11.852Z" fill="#225C21"/>
<path d="M4.30741 12.9428C4.03173 11.0131 5.91552 10.9901 6.89187 11.2198L6.20269 12.2537C6.71958 12.9428 11.3716 14.3212 12.5777 14.6658C13.4047 15.0793 19.125 15.4125 21.8818 15.5273C23.6622 15.355 27.9122 14.907 30.669 14.4935C33.5636 14.2179 36.6994 12.8854 37.9055 12.2537C37.848 12.1962 37.6987 11.978 37.5609 11.5645C38.5947 10.1861 41.3514 11.7368 40.3176 12.9428C37.2163 16.3887 24.8109 16.9057 21.3649 17.078C17.9189 17.2503 4.652 15.355 4.30741 12.9428Z" fill="#E3954F"/>
<path d="M6.20271 12.2537C11.2568 3.81115 24.673 -8.00848 37.9055 12.2537C35.4933 14.3213 16.196 18.2842 6.20271 12.2537Z" fill="#E3954F"/>
<path d="M17.9189 1.91535C17.9189 2.08765 23.0879 3.98293 25.5 1.57076C24.9832 1.39846 21.5372 0.192375 17.9189 1.91535Z" fill="#CE6C12"/>
<path d="M27.7397 14.8377C27.7397 14.3056 20.8478 6.39502 16.1958 15.1821C16.885 15.3545 21.1924 15.6991 27.7397 14.8377Z" fill="#CE6C12"/>
<path d="M14.9895 15.0112C15.1144 14.5914 11.9361 6.41203 6.20231 12.2544C6.70572 12.5523 9.62041 14.1542 14.9895 15.0112Z" fill="#CE6C12"/>
<path d="M29.2908 14.8384C29.1659 14.4186 32.284 6.41157 38.0178 12.254C37.5144 12.5518 34.6598 13.9814 29.2908 14.8384Z" fill="#CE6C12"/>
<path d="M9.64894 7.77256C9.7516 7.91094 15.1625 8.11715 15.5071 2.94821C14.9893 3.11782 12.2335 4.49887 9.64894 7.77256Z" fill="#CE6C12"/>
<path d="M34.5596 7.77256C34.4569 7.91094 29.046 8.11715 28.7014 2.94821C29.2192 3.11782 31.975 4.49887 34.5596 7.77256Z" fill="#CE6C12"/>
<path d="M6.20271 12.2537C11.2568 3.81115 24.673 -8.00848 37.9055 12.2537C35.4933 14.3213 16.196 18.2842 6.20271 12.2537Z" stroke="#EAAC75"/>
<circle cx="47.3822" cy="5.87797" r="0.861489" fill="#282828"/>
</svg>
